<?xml version="1.0" encoding="UTF-8"?>
<svg id="Layer_2" data-name="Layer 2" xmlns="http://www.w3.org/2000/svg" viewBox="0 0 228.08 228.38">
  <defs>
    <style>
      .cls-1 {
        opacity: .25;
      }

      .cls-1, .cls-2, .cls-3, .cls-4, .cls-5, .cls-6, .cls-7, .cls-8 {
        fill-rule: evenodd;
      }

      .cls-1, .cls-2, .cls-3, .cls-4, .cls-5, .cls-6, .cls-7, .cls-8, .cls-9, .cls-10, .cls-11, .cls-12, .cls-13 {
        stroke-width: 0px;
      }

      .cls-2, .cls-10 {
        fill: #a36d15;
      }

      .cls-3, .cls-12 {
        fill: #be7f19;
      }

      .cls-4, .cls-11 {
        fill: #d6a85e;
      }

      .cls-5 {
        fill: #f3d594;
      }

      .cls-6 {
        fill: #f5e9ce;
      }

      .cls-7 {
        fill: #f0c37a;
      }

      .cls-8, .cls-13 {
        fill: #8c5b00;
      }

      .cls-9 {
        fill: #754e06;
      }
    </style>
  </defs>
  <g id="g814">
    <path id="path816" class="cls-8" d="M228.06,0H24.95c0,.32-12.64,20.53-3.47,33.48,5.37,7.9-23.69,16.11-10.42,38.22,6.95,12-16.74,38.22,1.58,63.81,10.42,14.85-14.21,12-6,56.86C9.17,204.69.01,211.95.01,228.38h228.06V0h0Z"/>
    <path id="path818" class="cls-2" d="M228.06,0H24.95c0,.32-12.64,20.53-3.47,33.48,5.37,7.9-23.69,16.11-10.42,38.22,6.95,12-16.74,38.22,1.58,63.81,10.42,14.85-14.21,12-6,56.86C9.17,204.69.01,211.95.01,228.38h92.24c-3.79-8.53-6-11.06-3.16-16.11,3.16-4.74,13.9-22.43-.95-28.74-14.85-6.63-12.95-21.48,1.58-29.69,14.53-8.53,1.9-43.28,24.32-34.75,22.43,8.21,36.96,9.79,48.01,4.42,11.06-5.37,20.53,12,24.01,16.43s23.69,4.74,28.11.63,9.79-4.74,13.9-6.32V0h0Z"/>
    <path id="path820" class="cls-3" d="M228.06,0H24.95c0,.32-12.64,20.53-3.47,33.48,5.37,7.9-23.69,16.11-10.42,38.22,6.95,12-16.74,38.22,1.58,63.81,10.42,14.85-14.21,12-6,56.86C9.17,204.69.01,211.95.01,228.38h47.38c0-.63-.63-1.9,1.9-17.37s-18.64-31.9-10.74-44.54c7.58-12.95,4.74-13.58.32-27.17-11.37-33.17,5.69-25.59,19.9-45.8,18.95-27.48,46.75,21.16,71.39-11.37,24.32-32.54,30.32,6.95,48.01,8.53,30.32,2.53,19.58-8.21,49.91-8.53V0h-.02Z"/>
    <circle id="circle822" class="cls-10" cx="221.43" cy="72.97" r="3.79"/>
    <circle id="circle824" class="cls-10" cx="196.48" cy="79.6" r="3.47"/>
    <circle id="circle826" class="cls-10" cx="175.31" cy="71.07" r="2.84"/>
    <circle id="circle828" class="cls-10" cx="114.98" cy="82.44" r="6.95"/>
    <circle id="circle830" class="cls-10" cx="48.01" cy="81.5" r="5.69"/>
    <circle id="circle832" class="cls-10" cx="26.22" cy="100.77" r="1.9"/>
    <circle id="circle834" class="cls-10" cx="26.53" cy="142.46" r="4.11"/>
    <circle id="circle836" class="cls-10" cx="23.06" cy="167.42" r="6.32"/>
    <circle id="circle838" class="cls-10" cx="36.01" cy="206.9" r="3.16"/>
    <circle id="circle840" class="cls-12" cx="217.96" cy="91.29" r="2.84"/>
    <circle id="circle842" class="cls-12" cx="187.95" cy="102.03" r="2.21"/>
    <circle id="circle844" class="cls-12" cx="148.15" cy="82.76" r="2.53"/>
    <circle id="circle846" class="cls-12" cx="124.14" cy="98.87" r="1.26"/>
    <circle id="circle848" class="cls-12" cx="85.29" cy="101.08" r="5.69"/>
    <circle id="circle850" class="cls-12" cx="48.96" cy="114.35" r="3.16"/>
    <circle id="circle852" class="cls-12" cx="57.17" cy="143.72" r="1.9"/>
    <circle id="circle854" class="cls-12" cx="41.06" cy="174.37" r="5.05"/>
    <circle id="circle856" class="cls-12" cx="54.96" cy="199.64" r="5.05"/>
    <circle id="circle858" class="cls-13" cx="208.16" cy="126.04" r="6.32"/>
    <circle id="circle860" class="cls-13" cx="203.74" cy="108.03" r="1.26"/>
    <circle id="circle862" class="cls-13" cx="179.42" cy="117.82" r="5.69"/>
    <circle id="circle864" class="cls-13" cx="152.89" cy="112.77" r="5.69"/>
    <circle id="circle866" class="cls-13" cx="126.04" cy="113.08" r="2.53"/>
    <circle id="circle868" class="cls-13" cx="97.29" cy="109.61" r="3.47"/>
    <circle id="circle870" class="cls-13" cx="87.5" cy="132.04" r="8.21"/>
    <circle id="circle872" class="cls-13" cx="71.07" cy="115.93" r="1.9"/>
    <circle id="circle874" class="cls-13" cx="63.49" cy="157.94" r="5.05"/>
    <circle id="circle876" class="cls-13" cx="80.87" cy="193.63" r="6"/>
    <circle id="circle878" class="cls-13" cx="63.81" cy="178.79" r="2.53"/>
    <circle id="circle880" class="cls-13" cx="77.07" cy="219.54" r="4.74"/>
    <circle id="circle882" class="cls-10" cx="217.01" cy="149.41" r="5.05"/>
    <circle id="circle884" class="cls-10" cx="188.9" cy="156.68" r="4.42"/>
    <circle id="circle886" class="cls-10" cx="162.36" cy="134.88" r="6.32"/>
    <circle id="circle888" class="cls-10" cx="114.66" cy="135.2" r="7.58"/>
    <circle id="circle890" class="cls-10" cx="134.88" cy="147.2" r="1.26"/>
    <circle id="circle892" class="cls-10" cx="96.34" cy="167.1" r="5.37"/>
    <circle id="circle894" class="cls-10" cx="110.87" cy="197.42" r="4.74"/>
    <circle id="circle896" class="cls-10" cx="95.4" cy="215.75" r="2.84"/>
    <circle id="circle898" class="cls-9" cx="205.95" cy="179.42" r="6.63"/>
    <circle id="circle900" class="cls-9" cx="201.53" cy="208.8" r="7.9"/>
    <circle id="circle902" class="cls-9" cx="142.46" cy="202.79" r="5.05"/>
    <circle id="circle904" class="cls-9" cx="124.14" cy="168.05" r="4.74"/>
    <circle id="circle906" class="cls-9" cx="171.52" cy="203.74" r="1.9"/>
  </g>
  <path id="path908" class="cls-1" d="M228.06,53.07c-16.43,0-28.11,19.27-42.01,19.27-19.27,0-23.06-12.32-42.33-13.27-6.95-.32-30.96,18.01-44.54,17.37-13.27-.32-31.59-20.53-41.38-17.37-25.59,8.21-41.7,35.06-50.22,39.48l2.21-7.9L7.58,23.38H2.21C5.37,14.53,12,6.63,24.95,6.63h203.11v46.43h0Z"/>
  <path id="path910" class="cls-5" d="M228.06,46.43c-16.43,0-28.11,19.27-42.01,19.27-19.27,0-23.06-12.32-42.33-13.27-6.95-.32-30.96,18.01-44.54,17.69-13.27-.63-31.59-20.85-41.38-17.69C16.74,65.7,0,126.98,0,66.02V30.32C0,18.01,5.37,0,24.95,0h203.11v46.43Z"/>
  <path id="path912" class="cls-7" d="M228.06,46.43c-16.43,0-28.11,19.27-42.01,19.27-19.27,0-23.06-12.32-42.33-13.27-6.95-.32-30.96,18.01-44.54,17.69-13.27-.63-31.59-20.85-41.38-17.69C16.74,65.7,0,126.98,0,66.02v-25.27c0,60.96,12.95-8.21,53.7-21.8,9.79-3.16,31.27,36.01,44.85,36.33,13.27.32,37.91-36.33,44.54-35.69,19.27.95,23.06,30.64,42.64,30.64,13.58,0,25.9-29.06,42.33-29.06v25.27h0Z"/>
  <path id="path914" class="cls-6" d="M0,37.27v-6.95C0,18.01,5.37,0,24.95,0h203.11v7.27H24.95C5.37,7.27,0,25.27,0,37.27Z"/>
  <path id="path916" class="cls-4" d="M228.06,46.43c-16.43,0-28.11,19.27-42.01,19.27-19.27,0-23.06-12.32-42.33-13.27-6.95-.32-30.96,18.01-44.54,17.69-13.27-.63-31.59-20.85-41.38-17.69C16.74,65.7,0,126.98,0,66.02v-4.11c0,60.96,16.74-.32,57.81-13.58,9.79-3.16,28.11,17.06,41.38,17.69,13.58.32,37.59-18.01,44.54-17.69,19.27,1.26,23.06,13.27,42.33,13.27,13.9,0,25.59-19.27,42.01-19.27v4.11h-.01Z"/>
  <circle id="circle918" class="cls-11" cx="23.06" cy="20.22" r="4.42"/>
  <circle id="circle920" class="cls-11" cx="46.12" cy="36.64" r="5.37"/>
  <circle id="circle922" class="cls-11" cx="96.66" cy="25.27" r="2.21"/>
  <circle id="circle924" class="cls-11" cx="120.35" cy="45.49" r="3.47"/>
  <circle id="circle926" class="cls-11" cx="176.26" cy="32.22" r="4.74"/>
  <circle id="circle928" class="cls-11" cx="200.9" cy="39.48" r="1.58"/>
  <circle id="circle930" class="cls-11" cx="220.17" cy="12.64" r="1.26"/>
</svg>