<?xml version="1.0" encoding="UTF-8"?>
<svg id="Layer_2" data-name="Layer 2" xmlns="http://www.w3.org/2000/svg" viewBox="0 0 228.4 228.39">
  <defs>
    <style>
      .cls-1 {
        opacity: .25;
      }

      .cls-1, .cls-2, .cls-3, .cls-4, .cls-5, .cls-6, .cls-7 {
        fill-rule: evenodd;
      }

      .cls-1, .cls-2, .cls-3, .cls-4, .cls-5, .cls-6, .cls-7, .cls-8, .cls-9, .cls-10, .cls-11, .cls-12 {
        stroke-width: 0px;
      }

      .cls-2, .cls-9 {
        fill: #a36d15;
      }

      .cls-3, .cls-11 {
        fill: #be7f19;
      }

      .cls-4, .cls-10 {
        fill: #d6a85e;
      }

      .cls-5 {
        fill: #f3d594;
      }

      .cls-6 {
        fill: #f5e9ce;
      }

      .cls-7 {
        fill: #f0c37a;
      }

      .cls-8 {
        fill: #754e06;
      }

      .cls-12 {
        fill: #8c5b00;
      }
    </style>
  </defs>
  <g id="g1054">
    <rect id="rect1056" class="cls-12" x=".02" y="0" width="228.38" height="228.38"/>
    <path id="path1058" class="cls-3" d="M107.1,98.88c-24.95,20.22-34.43-61.28-58.12-12.64-2.53,5.37-26.22,17.69-31.27,7.58S9.18,84.66.02,81.5V0h228.38v81.5c-20.85-3.16-18.95,9.48-30.32,9.79-11.69.63-17.37-12.64-26.22-13.27-8.53-.63-6,1.9-12.64,7.58-6.63,6-18.95,18.95-28.43,13.9-9.79-5.05-12.32-10.11-23.69-.63h0Z"/>
    <path id="path1060" class="cls-2" d="M130.79,99.51c9.48,5.05,21.8-7.9,28.43-13.9,6.63-5.69,4.11-8.21,12.64-7.58,8.84.63,14.53,13.9,26.22,13.27,11.37-.32,9.48-12.95,30.32-9.79v52.75c-9.16,0-12.64,1.58-17.69,11.69s-28.74-2.21-31.27-7.58c-23.69-48.65-33.48,32.85-58.12,12.64-11.69-9.48-14.21-4.42-23.69.63-9.79,5.05-21.8-7.9-28.43-13.9-6.63-5.69-4.11-8.21-12.95-7.58s-14.53,13.9-25.9,13.27c-11.69-.32-9.48-8.21-30.32-9.16v-52.12c9.16,0,12.64,1.58,17.69,11.69,5.05,10.11,28.74-2.21,31.27-7.58,23.69-48.65,33.17,32.85,58.12,12.64,11.37-9.48,13.9-4.42,23.69.63v-.02Z"/>
    <circle id="circle1062" class="cls-12" cx="196.18" cy="132.36" r="10.11"/>
    <circle id="circle1064" class="cls-12" cx="214.19" cy="114.67" r="4.74"/>
    <circle id="circle1066" class="cls-12" cx="163.01" cy="102.35" r="4.74"/>
    <circle id="circle1068" class="cls-12" cx="134.9" cy="132.68" r="8.21"/>
    <circle id="circle1070" class="cls-12" cx="92.89" cy="137.73" r="8.84"/>
    <circle id="circle1072" class="cls-12" cx="101.42" cy="115.94" r="3.47"/>
    <circle id="circle1074" class="cls-12" cx="54.67" cy="114.04" r="5.05"/>
    <circle id="circle1076" class="cls-12" cx="72.99" cy="108.99" r="7.27"/>
    <circle id="circle1078" class="cls-12" cx="29.71" cy="129.2" r="6"/>
    <circle id="circle1080" class="cls-12" cx="22.13" cy="113.73" r="2.84"/>
    <circle id="circle1082" class="cls-9" cx="218.61" cy="153.84" r="4.11"/>
    <circle id="circle1084" class="cls-9" cx="191.13" cy="168.69" r="4.42"/>
    <circle id="circle1086" class="cls-9" cx="169.02" cy="139" r="4.74"/>
    <circle id="circle1088" class="cls-9" cx="138.06" cy="168.06" r="2.53"/>
    <circle id="circle1090" class="cls-9" cx="108.68" cy="156.37" r="2.53"/>
    <circle id="circle1092" class="cls-9" cx="69.83" cy="159.84" r="3.47"/>
    <circle id="circle1094" class="cls-9" cx="50.88" cy="149.42" r="6.63"/>
    <circle id="circle1096" class="cls-9" cx="17.08" cy="153.21" r="3.79"/>
    <circle id="circle1098" class="cls-9" cx="211.03" cy="67.29" r="4.74"/>
    <circle id="circle1100" class="cls-9" cx="175.96" cy="53.71" r="2.53"/>
    <circle id="circle1102" class="cls-9" cx="142.48" cy="80.56" r="7.9"/>
    <circle id="circle1104" class="cls-9" cx="109" cy="72.98" r="3.16"/>
    <circle id="circle1106" class="cls-9" cx="102.68" cy="50.55" r="1.26"/>
    <circle id="circle1108" class="cls-9" cx="20.87" cy="78.66" r="4.42"/>
    <circle id="circle1110" class="cls-9" cx="42.98" cy="72.66" r="2.21"/>
    <circle id="circle1112" class="cls-9" cx="95.42" cy="87.82" r="7.58"/>
    <circle id="circle1114" class="cls-9" cx="18.97" cy="55.6" r="3.79"/>
    <circle id="circle1116" class="cls-11" cx="196.5" cy="102.99" r="3.16"/>
    <circle id="circle1118" class="cls-11" cx="163.96" cy="86.88" r="1.9"/>
    <circle id="circle1120" class="cls-11" cx="124.48" cy="103.93" r="4.42"/>
    <circle id="circle1122" class="cls-11" cx="67.62" cy="89.4" r="2.53"/>
    <circle id="circle1124" class="cls-11" cx="11.39" cy="97.62" r="2.53"/>
    <circle id="circle1126" class="cls-8" cx="213.87" cy="194.28" r="6.95"/>
    <circle id="circle1128" class="cls-8" cx="174.7" cy="153.84" r="1.26"/>
    <circle id="circle1130" class="cls-8" cx="151.33" cy="191.12" r="12.64"/>
    <circle id="circle1132" class="cls-8" cx="103" cy="170.27" r="5.37"/>
    <circle id="circle1134" class="cls-8" cx="73.3" cy="181.64" r="7.27"/>
    <circle id="circle1136" class="cls-8" cx="25.92" cy="173.74" r="5.37"/>
    <circle id="circle1138" class="cls-8" cx="17.08" cy="196.49" r="3.16"/>
  </g>
  <path id="path1140" class="cls-1" d="M224.29,0L.02,6.64v46.43c7.27-.63,16.43,7.27,26.85,6.95,10.74-.63,28.74-18.64,44.85-13.27,13.27,4.74,37.27,20.22,57.49,6.95,40.75-26.53,36.33-28.11,61.91-17.69,10.74,4.42,33.17-27.17,33.17-36.01h0Z"/>
  <path id="path1142" class="cls-5" d="M224.29,0H.02v46.43c7.27-.32,16.43,7.58,26.85,6.95,10.74-.63,28.74-18.64,44.85-12.95,13.27,4.74,37.27,19.9,57.49,6.95,40.75-26.53,36.33-28.43,61.91-17.69C201.86,34.12,224.29,8.85,224.29,0Z"/>
  <path id="path1144" class="cls-6" d="M215.45,0H.02v7.27c16.11,0,21.8,4.11,39.8,3.47,17.37-.32,47.07-5.37,63.81-5.05,30.64,1.26,25.59,5.69,55.28,5.69,11.06,0,19.9-6.32,56.54-11.37h0Z"/>
  <path id="path1146" class="cls-7" d="M224.29,0c-4.42,8.21-12.64,20.85-29.06,19.9-13.9-.95-16.43-9.16-27.17-8.21-11.06.63-28.74,15.16-47.07,27.17-20.22,12.95-36.01-19.27-49.28-23.69-16.11-5.69-33.8,24.64-44.54,25.27-10.42.32-15.16-19.27-27.17-19.27v25.27c7.27-.32,16.43,7.58,26.85,6.95,10.74-.63,28.74-18.64,44.85-12.95,13.27,4.74,37.27,19.9,57.49,6.95,40.75-26.53,36.33-28.43,61.91-17.69,10.74,4.42,33.17-20.85,33.17-29.69h.02Z"/>
  <path id="path1148" class="cls-4" d="M224.29,0c-1.9,3.47-4.42,7.9-8.21,11.69-7.58,8.84-18.32,17.06-24.95,14.21-25.59-10.42-21.16-8.53-61.91,18.01-20.22,12.95-44.22-2.53-57.49-6.95-16.11-5.69-34.11,12.32-44.85,12.95-10.42.63-19.58-7.9-26.85-7.58v4.11c7.27-.32,16.43,7.58,26.85,6.95,10.74-.63,28.74-18.64,44.85-12.95,13.27,4.74,37.27,19.9,57.49,6.95,40.75-26.53,36.33-28.43,61.91-17.69,10.74,4.42,33.17-20.85,33.17-29.69h0Z"/>
  <circle id="circle1150" class="cls-10" cx="15.81" cy="10.12" r="1.58"/>
  <circle id="circle1152" class="cls-10" cx="55.3" cy="25.6" r="4.42"/>
  <circle id="circle1154" class="cls-10" cx="109.95" cy="12.65" r="3.16"/>
  <circle id="circle1156" class="cls-10" cx="152.91" cy="15.49" r="1.9"/>
  <circle id="circle1158" class="cls-10" cx="197.76" cy="7.91" r="2.21"/>
  <circle id="circle1160" class="cls-10" cx="89.41" cy="30.02" r="3.47"/>
</svg>