<?xml version="1.0" encoding="UTF-8"?>
<svg id="Layer_2" data-name="Layer 2" xmlns="http://www.w3.org/2000/svg" viewBox="0 0 228.38 228.38">
  <defs>
    <style>
      .cls-1 {
        opacity: .25;
      }

      .cls-1, .cls-2, .cls-3, .cls-4, .cls-5, .cls-6, .cls-7 {
        fill-rule: evenodd;
      }

      .cls-1, .cls-2, .cls-3, .cls-4, .cls-5, .cls-6, .cls-7, .cls-8, .cls-9, .cls-10, .cls-11, .cls-12 {
        stroke-width: 0px;
      }

      .cls-2, .cls-9 {
        fill: #a36d15;
      }

      .cls-3, .cls-11 {
        fill: #be7f19;
      }

      .cls-4, .cls-10 {
        fill: #d6a85e;
      }

      .cls-5 {
        fill: #f3d594;
      }

      .cls-6 {
        fill: #f5e9ce;
      }

      .cls-7 {
        fill: #f0c37a;
      }

      .cls-8 {
        fill: #754e06;
      }

      .cls-12 {
        fill: #8c5b00;
      }
    </style>
  </defs>
  <g id="g1054">
    <rect id="rect1056" class="cls-12" width="228.38" height="228.38"/>
    <path id="path1058" class="cls-3" d="M97.61,99.5c-9.48,5.05-21.8-7.9-28.43-13.9-6.63-5.69-4.11-8.21-12.64-7.58-8.84.63-14.53,13.9-26.22,13.27-11.37-.32-9.47-12.95-30.32-9.79V0h228.38v81.5c-9.16,3.16-12.64,2.21-17.69,12.32s-28.74-2.21-31.27-7.58c-23.69-48.65-33.17,32.85-58.12,12.64-11.37-9.48-13.9-4.42-23.69.63h0Z"/>
    <path id="path1060" class="cls-2" d="M121.3,98.87c24.95,20.22,34.43-61.28,58.12-12.64,2.53,5.37,26.22,17.69,31.27,7.58s8.53-11.69,17.69-11.69v52.12c-20.85.95-18.64,8.84-30.32,9.16-11.37.63-17.06-12.64-25.9-13.27s-6.32,1.9-12.95,7.58c-6.63,6-18.64,18.95-28.43,13.9-9.48-5.05-12-10.11-23.69-.63-24.64,20.22-34.43-61.28-58.12-12.64-2.53,5.37-26.22,17.69-31.27,7.58s-8.54-11.67-17.7-11.67v-52.75c20.85-3.16,18.95,9.48,30.32,9.79,11.69.63,17.37-12.64,26.22-13.27,8.53-.63,6,1.9,12.64,7.58,6.63,6,18.95,18.95,28.43,13.9,9.79-5.05,12.32-10.11,23.69-.63Z"/>
    <circle id="circle1062" class="cls-12" cx="32.22" cy="132.35" r="10.11"/>
    <circle id="circle1064" class="cls-12" cx="14.21" cy="114.66" r="4.74"/>
    <circle id="circle1066" class="cls-12" cx="65.39" cy="102.34" r="4.74"/>
    <circle id="circle1068" class="cls-12" cx="93.5" cy="132.67" r="8.21"/>
    <circle id="circle1070" class="cls-12" cx="135.51" cy="137.72" r="8.84"/>
    <circle id="circle1072" class="cls-12" cx="126.98" cy="115.93" r="3.47"/>
    <circle id="circle1074" class="cls-12" cx="173.73" cy="114.03" r="5.05"/>
    <circle id="circle1076" class="cls-12" cx="155.41" cy="108.98" r="7.27"/>
    <circle id="circle1078" class="cls-12" cx="198.69" cy="129.19" r="6"/>
    <circle id="circle1080" class="cls-12" cx="206.27" cy="113.72" r="2.84"/>
    <circle id="circle1082" class="cls-9" cx="9.79" cy="153.83" r="4.11"/>
    <circle id="circle1084" class="cls-9" cx="37.27" cy="168.68" r="4.42"/>
    <circle id="circle1086" class="cls-9" cx="59.39" cy="138.99" r="4.74"/>
    <circle id="circle1088" class="cls-9" cx="90.34" cy="168.05" r="2.53"/>
    <circle id="circle1090" class="cls-9" cx="119.72" cy="156.36" r="2.53"/>
    <circle id="circle1092" class="cls-9" cx="158.57" cy="159.83" r="3.47"/>
    <circle id="circle1094" class="cls-9" cx="177.52" cy="149.41" r="6.63"/>
    <circle id="circle1096" class="cls-9" cx="211.32" cy="153.2" r="3.79"/>
    <circle id="circle1098" class="cls-9" cx="17.37" cy="67.28" r="4.74"/>
    <circle id="circle1100" class="cls-9" cx="52.44" cy="53.7" r="2.53"/>
    <circle id="circle1102" class="cls-9" cx="85.92" cy="80.55" r="7.9"/>
    <circle id="circle1104" class="cls-9" cx="119.4" cy="72.97" r="3.16"/>
    <circle id="circle1106" class="cls-9" cx="125.72" cy="50.54" r="1.26"/>
    <circle id="circle1108" class="cls-9" cx="207.53" cy="78.65" r="4.42"/>
    <circle id="circle1110" class="cls-9" cx="185.42" cy="72.65" r="2.21"/>
    <circle id="circle1112" class="cls-9" cx="132.99" cy="87.81" r="7.58"/>
    <circle id="circle1114" class="cls-9" cx="209.43" cy="55.59" r="3.79"/>
    <circle id="circle1116" class="cls-11" cx="31.9" cy="102.98" r="3.16"/>
    <circle id="circle1118" class="cls-11" cx="64.44" cy="86.87" r="1.9"/>
    <circle id="circle1120" class="cls-11" cx="103.92" cy="103.92" r="4.42"/>
    <circle id="circle1122" class="cls-11" cx="160.78" cy="89.39" r="2.53"/>
    <circle id="circle1124" class="cls-11" cx="217.01" cy="97.61" r="2.53"/>
    <circle id="circle1126" class="cls-8" cx="14.53" cy="194.27" r="6.95"/>
    <circle id="circle1128" class="cls-8" cx="53.7" cy="153.83" r="1.26"/>
    <circle id="circle1130" class="cls-8" cx="77.07" cy="191.11" r="12.64"/>
    <circle id="circle1132" class="cls-8" cx="125.4" cy="170.26" r="5.37"/>
    <circle id="circle1134" class="cls-8" cx="155.1" cy="181.63" r="7.27"/>
    <circle id="circle1136" class="cls-8" cx="202.48" cy="173.73" r="5.37"/>
    <circle id="circle1138" class="cls-8" cx="211.32" cy="196.48" r="3.16"/>
  </g>
  <path id="path1140" class="cls-1" d="M37.27,36.01c25.59-10.42,21.16-8.84,61.91,17.69,20.22,13.27,44.22-2.21,57.49-6.95,16.11-5.37,34.11,12.64,44.85,13.27,10.42.32,19.58-7.58,26.85-6.95V6.63L4.11,0c0,8.84,22.43,40.43,33.17,36.01h0Z"/>
  <path id="path1142" class="cls-5" d="M37.27,29.69c25.59-10.74,21.16-8.84,61.91,17.69,20.22,12.95,44.22-2.21,57.49-6.95,16.11-5.69,34.11,12.32,44.85,12.95,10.42.63,19.58-7.27,26.85-6.95V0H4.11c0,8.84,22.43,34.11,33.17,29.69h0Z"/>
  <path id="path1144" class="cls-6" d="M69.49,11.37c29.69,0,24.64-4.42,55.28-5.69,16.74-.32,46.43,4.74,63.81,5.05,18.01.63,23.69-3.47,39.8-3.47V0H12.95c36.64,5.05,45.49,11.37,56.54,11.37Z"/>
  <path id="path1146" class="cls-7" d="M37.27,29.69c25.59-10.74,21.16-8.84,61.91,17.69,20.22,12.95,44.22-2.21,57.49-6.95,16.11-5.69,34.11,12.32,44.85,12.95,10.42.63,19.58-7.27,26.85-6.95v-25.27c-12,0-16.74,19.58-27.17,19.27-10.74-.63-28.43-30.96-44.54-25.27-13.27,4.42-29.06,36.64-49.28,23.69-18.32-12-36.01-26.53-47.07-27.17-10.74-.95-13.27,7.27-27.17,8.21C16.74,20.85,8.53,8.21,4.11,0c0,8.84,22.43,34.11,33.17,29.69h0Z"/>
  <path id="path1148" class="cls-4" d="M37.27,29.69c25.59-10.74,21.16-8.84,61.91,17.69,20.22,12.95,44.22-2.21,57.49-6.95,16.11-5.69,34.11,12.32,44.85,12.95,10.42.63,19.58-7.27,26.85-6.95v-4.11c-7.27-.32-16.43,8.21-26.85,7.58-10.74-.63-28.74-18.64-44.85-12.95-13.27,4.42-37.27,19.9-57.49,6.95C58.44,17.37,62.86,15.48,37.27,25.9c-6.63,2.84-17.37-5.37-24.95-14.21C8.53,7.9,6,3.47,4.11,0c0,8.84,22.43,34.11,33.17,29.69h0Z"/>
  <circle id="circle1150" class="cls-10" cx="212.59" cy="10.11" r="1.58"/>
  <circle id="circle1152" class="cls-10" cx="173.1" cy="25.59" r="4.42"/>
  <circle id="circle1154" class="cls-10" cx="118.45" cy="12.64" r="3.16"/>
  <circle id="circle1156" class="cls-10" cx="75.5" cy="15.48" r="1.9"/>
  <circle id="circle1158" class="cls-10" cx="30.64" cy="7.9" r="2.21"/>
  <circle id="circle1160" class="cls-10" cx="138.99" cy="30.01" r="3.47"/>
</svg>