<?xml version="1.0" encoding="UTF-8"?>
<svg id="Layer_2" data-name="Layer 2" xmlns="http://www.w3.org/2000/svg" viewBox="0 0 228.07 165.7">
  <defs>
    <style>
      .cls-1 {
        opacity: .25;
      }

      .cls-1, .cls-2, .cls-3, .cls-4, .cls-5, .cls-6, .cls-7, .cls-8, .cls-9 {
        fill-rule: evenodd;
      }

      .cls-1, .cls-2, .cls-3, .cls-4, .cls-5, .cls-6, .cls-7, .cls-8, .cls-9, .cls-10, .cls-11, .cls-12 {
        stroke-width: 0px;
      }

      .cls-2, .cls-10 {
        fill: #a36d15;
      }

      .cls-3 {
        fill: #be7f19;
      }

      .cls-4, .cls-11 {
        fill: #d6a85e;
      }

      .cls-5 {
        fill: #f3d594;
      }

      .cls-6 {
        fill: #f5e9ce;
      }

      .cls-7 {
        fill: #f0c37a;
      }

      .cls-8, .cls-12 {
        fill: #8c5b00;
      }

      .cls-9 {
        fill: #8c5c03;
      }
    </style>
  </defs>
  <path id="path1274" class="cls-8" d="M228.06,0H24.95c0,.32-12.64,20.53-3.47,33.48,3.79,5.69-8.84,11.37-12.95,21.48,3.79,33.17,27.48,41.06,66.02,41.38,19.27,0,13.27,24.64,36.01,35.69,13.58,6.32,39.8,24.01,57.81,28.11,27.17,6.32,43.91,5.69,59.7,5.37V0h0Z"/>
  <path id="path1276" class="cls-2" d="M228.06,0H24.95c0,.32-12.64,20.53-3.47,33.48,3.79,5.69-8.84,11.37-12.95,21.48,3.79,33.17,27.48,41.06,66.02,41.38,15.48,0,14.85,16.11,25.59,28.11,1.9-5.37,5.37-8.53,13.9-5.37,22.43,8.53,20.22-12.95,31.27-18.32,11.06-5.37,34.75,1.58,38.22,5.69,3.47,4.42,14.53,12.32,18.95,8.21s21.48-13.27,25.59-14.85V0h0Z"/>
  <path id="path1278" class="cls-3" d="M228.06,0H24.95c0,.32-12.64,20.53-3.47,33.48,3.79,5.69-8.84,11.37-12.95,21.48,2.53,21.48,13.27,32.22,30.64,37.27,3.47-6.95,7.9-13.27,12.95-20.53,18.95-27.48,38.54,22.11,63.18-10.42,24.32-32.54,44.22,10.74,61.91,12,30.32,2.84,20.22-19.9,50.86-20.53V0h-.01Z"/>
  <path id="path1280" class="cls-9" d="M228.06,152.25c-15.79.63-32.54,1.26-59.7-5.05-11.06-2.53-34.43-7.9-53.7-13.27,13.9,7.58,37.27,22.43,53.7,26.22,27.17,6.32,43.91,5.69,59.7,5.37v-13.27h0Z"/>
  <circle id="circle1282" class="cls-12" cx="156.68" cy="89.71" r="6.63"/>
  <circle id="circle1284" class="cls-12" cx="212.9" cy="85.92" r="8.84"/>
  <circle id="circle1286" class="cls-12" cx="115.93" cy="99.5" r="4.11"/>
  <circle id="circle1288" class="cls-12" cx="141.51" cy="68.55" r="5.37"/>
  <circle id="circle1290" class="cls-10" cx="149.09" cy="112.77" r="6.95"/>
  <circle id="circle1292" class="cls-10" cx="166.47" cy="113.72" r="3.79"/>
  <circle id="circle1294" class="cls-10" cx="220.48" cy="118.14" r="3.47"/>
  <circle id="circle1296" class="cls-10" cx="192.37" cy="127.3" r="3.79"/>
  <circle id="circle1298" class="cls-10" cx="121.93" cy="128.88" r="2.84"/>
  <path id="path1300" class="cls-1" d="M228.06,53.07c-16.43,0-28.11,19.27-42.01,19.27-19.27,0-23.06-12.32-42.33-13.27-6.95-.32-30.96,18.01-44.54,17.37-13.27-.32-31.59-20.53-41.38-17.37-25.59,8.21-26.53,20.53-35.06,24.95l-3.47-3.16L7.58,23.38H2.21C5.37,14.53,12,6.63,24.95,6.63h203.11v46.43h0Z"/>
  <path id="path1302" class="cls-5" d="M228.06,46.43c-16.43,0-28.11,19.27-42.01,19.27-19.27,0-23.06-12-42.33-12.95-6.95-.63-30.96,17.69-44.54,17.37-13.27-.32-31.59-20.85-41.38-17.69C16.74,66.02,0,127.3,0,66.02V30.32C0,18.32,5.37,0,24.95,0h203.11v46.43Z"/>
  <path id="path1304" class="cls-7" d="M228.06,46.43c-16.43,0-28.11,19.27-42.01,19.27-19.27,0-23.06-12-42.33-12.95-6.95-.63-30.96,17.69-44.54,17.37-13.27-.32-31.59-20.85-41.38-17.69C16.74,66.02,0,127.3,0,66.02v-25.27c0,60.96,12.95-8.21,53.7-21.48,9.79-3.16,31.27,35.69,44.85,36.01,13.27.63,37.91-36.01,44.54-35.69,19.27.95,23.06,30.64,42.64,30.64,13.58,0,25.9-29.06,42.33-29.06v25.27h0Z"/>
  <path id="path1306" class="cls-6" d="M0,37.59v-7.27C0,18.32,5.37,0,24.95,0h203.11v7.27H24.95C5.37,7.27,0,25.27,0,37.59Z"/>
  <path id="path1308" class="cls-4" d="M228.06,46.43c-16.43,0-28.11,19.27-42.01,19.27-19.27,0-23.06-12-42.33-12.95-6.95-.63-30.96,17.69-44.54,17.37-13.27-.32-31.59-20.85-41.38-17.69C16.74,66.02,0,127.3,0,66.02v-4.11c0,61.28,16.74,0,57.81-13.27,9.79-3.16,28.11,17.06,41.38,17.37,13.58.32,37.59-17.69,44.54-17.37,19.27.95,23.06,13.27,42.33,13.27,13.9,0,25.59-19.27,42.01-19.27v3.79h-.01Z"/>
  <circle id="circle1310" class="cls-11" cx="27.17" cy="25.27" r="2.21"/>
  <circle id="circle1312" class="cls-11" cx="78.34" cy="35.38" r="4.74"/>
  <circle id="circle1314" class="cls-11" cx="66.33" cy="16.11" r="4.42"/>
  <circle id="circle1316" class="cls-11" cx="169" cy="23.69" r="4.11"/>
  <circle id="circle1318" class="cls-11" cx="128.88" cy="36.01" r="2.53"/>
  <circle id="circle1320" class="cls-11" cx="200.27" cy="29.38" r="2.84"/>
</svg>