<?xml version="1.0" encoding="UTF-8"?>
<svg id="Layer_2" data-name="Layer 2" xmlns="http://www.w3.org/2000/svg" viewBox="0 0 228.1 165.61">
  <defs>
    <style>
      .cls-1 {
        opacity: .25;
      }

      .cls-1, .cls-2, .cls-3, .cls-4, .cls-5, .cls-6, .cls-7, .cls-8, .cls-9 {
        fill-rule: evenodd;
      }

      .cls-1, .cls-2, .cls-3, .cls-4, .cls-5, .cls-6, .cls-7, .cls-8, .cls-9, .cls-10, .cls-11 {
        stroke-width: 0px;
      }

      .cls-2 {
        fill: #a36d15;
      }

      .cls-3 {
        fill: #be7f19;
      }

      .cls-4, .cls-10 {
        fill: #d6a85e;
      }

      .cls-5 {
        fill: #f3d594;
      }

      .cls-6 {
        fill: #f5e9ce;
      }

      .cls-7 {
        fill: #f0c37a;
      }

      .cls-8, .cls-11 {
        fill: #8c5b00;
      }

      .cls-9 {
        fill: #8c5c03;
      }
    </style>
  </defs>
  <path id="path1323" class="cls-9" d="M.01,0h228.06v165.52c-34.11,0-29.69-10.74-49.28-11.06-12.64,0-36.33,9.79-53.38,11.06-18.01,1.26-39.17-11.69-54.65-11.69-29.06,0-41.7,11.69-70.76,11.69V0h.01Z"/>
  <path id="path1325" class="cls-8" d="M.01,0h228.06v152.25c-34.11,0-18.01-8.53-37.59-8.84-12.64,0-48.01,10.11-65.07,11.37-18.01,1.26-54.33-19.27-69.81-19.27-29.06,0-26.53,16.74-55.59,16.74C.01,152.25.01,0,.01,0Z"/>
  <path id="path1327" class="cls-3" d="M121.31,99.19c24.64,20.22,34.43-61.6,57.81-12.95,2.84,5.37,26.53,17.69,31.59,7.58s8.53-9.16,17.37-12.32V0H.01v81.5c20.53-3.16,18.64,9.48,30.32,9.79,11.37.63,17.06-12.64,25.9-13.27,8.84-.63,6,1.9,12.95,7.9,6.63,5.69,18.64,18.64,28.43,13.58,9.48-4.74,12-9.79,23.69-.32h.01Z"/>
  <path id="path1329" class="cls-2" d="M97.62,65.39c-9.79,4.74-21.8-7.9-28.43-13.9-6.95-6-4.11-8.53-12.95-7.9-8.84.63-14.53,13.9-25.9,13.58-11.69-.63-9.79-13.27-30.32-9.79v52.44c9.16,0,12.64,1.58,17.69,11.69,5.05,10.11,28.74-2.21,31.27-7.58,23.38-48.33,33.17,33.17,57.81,12.95,11.69-9.48,14.21-4.42,24.01.63,9.48,5.05,21.48-7.9,28.43-13.9,6.63-6,3.79-8.53,12.64-7.9,8.84.63,14.53,13.9,25.9,13.58,11.69-.63,9.79-8.53,30.32-9.48v-52.12c-8.84,0-12.32,1.58-17.37,11.69-5.05,10.11-28.74-2.21-31.59-7.58-23.38-48.33-33.17,33.17-57.81,12.95-11.69-9.48-14.21-4.42-23.69.63h0Z"/>
  <path id="path1331" class="cls-8" d="M31.91,87.81c5.69,0,10.11,4.74,10.11,10.42s-4.42,10.11-10.11,10.11-10.11-4.42-10.11-10.11,4.42-10.42,10.11-10.42Z"/>
  <path id="path1333" class="cls-8" d="M14.22,75.5c2.53,0,4.74,2.21,4.74,4.74,0,2.84-2.21,5.05-4.74,5.05-2.84,0-4.74-2.21-4.74-5.05,0-2.53,1.9-4.74,4.74-4.74Z"/>
  <path id="path1335" class="cls-8" d="M65.4,63.18c2.53,0,4.74,2.21,4.74,5.05,0,2.53-2.21,4.74-4.74,4.74-2.84,0-5.05-2.21-5.05-4.74,0-2.84,2.21-5.05,5.05-5.05Z"/>
  <path id="path1337" class="cls-8" d="M93.19,90.34c4.42,0,8.21,3.47,8.21,7.9,0,4.74-3.79,8.21-8.21,8.21s-8.21-3.47-8.21-8.21c0-4.42,3.79-7.9,8.21-7.9Z"/>
  <path id="path1339" class="cls-8" d="M135.52,94.45c4.74,0,8.84,3.79,8.84,8.84s-4.11,8.84-8.84,8.84c-5.05,0-9.16-3.79-9.16-8.84s4.11-8.84,9.16-8.84Z"/>
  <path id="path1341" class="cls-8" d="M126.68,78.02c2.21,0,3.79,1.9,3.79,3.79s-1.58,3.47-3.79,3.47c-1.9,0-3.47-1.58-3.47-3.47s1.58-3.79,3.47-3.79Z"/>
  <path id="path1343" class="cls-8" d="M173.74,74.55c2.53,0,5.05,2.53,5.05,5.05,0,2.84-2.53,5.05-5.05,5.05-2.84,0-5.05-2.21-5.05-5.05,0-2.53,2.21-5.05,5.05-5.05Z"/>
  <path id="path1345" class="cls-8" d="M155.11,67.6c4.11,0,7.27,3.16,7.27,7.27s-3.16,7.27-7.27,7.27-7.27-3.16-7.27-7.27,3.16-7.27,7.27-7.27Z"/>
  <path id="path1347" class="cls-8" d="M198.38,89.08c3.16,0,6,2.53,6,5.69,0,3.47-2.84,6-6,6s-6-2.53-6-6c0-3.16,2.84-5.69,6-5.69Z"/>
  <path id="path1349" class="cls-8" d="M205.96,76.76c1.58,0,2.84,1.26,2.84,2.84s-1.26,2.84-2.84,2.84-2.84-1.26-2.84-2.84,1.26-2.84,2.84-2.84Z"/>
  <path id="path1351" class="cls-2" d="M9.49,115.3c2.53,0,4.42,1.9,4.42,4.11,0,2.53-1.9,4.42-4.42,4.42-2.21,0-4.11-1.9-4.11-4.42,0-2.21,1.9-4.11,4.11-4.11Z"/>
  <path id="path1353" class="cls-2" d="M35.07,121.93c2.53,0,4.42,2.21,4.42,4.74s-1.9,4.42-4.42,4.42-4.74-1.9-4.74-4.42,2.21-4.74,4.74-4.74Z"/>
  <path id="path1355" class="cls-2" d="M59.08,100.13c2.84,0,4.74,1.9,4.74,4.74,0,2.53-1.9,4.74-4.74,4.74-2.53,0-4.74-2.21-4.74-4.74,0-2.84,2.21-4.74,4.74-4.74Z"/>
  <path id="path1357" class="cls-2" d="M90.04,131.09c1.58,0,2.84,1.26,2.84,2.53,0,1.58-1.26,2.84-2.84,2.84-1.26,0-2.53-1.26-2.53-2.84,0-1.26,1.26-2.53,2.53-2.53Z"/>
  <path id="path1359" class="cls-2" d="M119.73,119.4c1.26,0,2.21,1.26,2.21,2.53s-.95,2.53-2.21,2.53c-1.58,0-2.53-1.26-2.53-2.53s.95-2.53,2.53-2.53Z"/>
  <path id="path1361" class="cls-2" d="M157.95,117.82c1.9,0,3.47,1.58,3.47,3.47s-1.58,3.47-3.47,3.47-3.16-1.58-3.16-3.47,1.26-3.47,3.16-3.47Z"/>
  <path id="path1363" class="cls-2" d="M177.53,108.35c3.47,0,6.32,3.16,6.32,6.63s-2.84,6.63-6.32,6.63c-3.79,0-6.63-3.16-6.63-6.63s2.84-6.63,6.63-6.63Z"/>
  <path id="path1365" class="cls-2" d="M211.33,114.98c2.21,0,3.79,1.58,3.79,3.79s-1.58,3.79-3.79,3.79-3.79-1.58-3.79-3.79,1.58-3.79,3.79-3.79Z"/>
  <path id="path1367" class="cls-2" d="M17.38,28.11c2.53,0,4.74,2.21,4.74,5.05,0,2.53-2.21,4.74-4.74,4.74-2.84,0-5.05-2.21-5.05-4.74,0-2.84,2.21-5.05,5.05-5.05Z"/>
  <path id="path1369" class="cls-2" d="M52.13,16.74c1.58,0,2.53,1.26,2.53,2.53s-.95,2.53-2.53,2.53c-1.26,0-2.21-1.26-2.21-2.53s.95-2.53,2.21-2.53Z"/>
  <path id="path1371" class="cls-2" d="M85.61,38.22c4.42,0,7.9,3.47,7.9,7.9s-3.47,7.9-7.9,7.9-7.9-3.47-7.9-7.9,3.47-7.9,7.9-7.9Z"/>
  <path id="path1373" class="cls-2" d="M119.41,35.38c1.58,0,3.16,1.58,3.16,3.16,0,1.9-1.58,3.16-3.16,3.16-1.9,0-3.16-1.26-3.16-3.16,0-1.58,1.26-3.16,3.16-3.16Z"/>
  <path id="path1375" class="cls-2" d="M125.41,14.85c.95,0,1.58.63,1.58,1.26,0,.95-.63,1.58-1.58,1.58-.63,0-1.26-.63-1.26-1.58,0-.63.63-1.26,1.26-1.26Z"/>
  <path id="path1377" class="cls-2" d="M207.23,40.12c2.53,0,4.42,1.9,4.42,4.42s-1.9,4.42-4.42,4.42-4.42-1.9-4.42-4.42,1.9-4.42,4.42-4.42Z"/>
  <path id="path1379" class="cls-2" d="M185.12,36.01c1.26,0,2.53.95,2.53,2.21s-1.26,2.21-2.53,2.21-2.21-.95-2.21-2.21.95-2.21,2.21-2.21Z"/>
  <path id="path1381" class="cls-2" d="M132.68,45.8c4.42,0,7.58,3.47,7.58,7.58s-3.16,7.58-7.58,7.58c-4.11,0-7.27-3.47-7.27-7.58s3.16-7.58,7.27-7.58Z"/>
  <path id="path1383" class="cls-2" d="M209.12,17.69c1.9,0,3.79,1.58,3.79,3.47,0,2.21-1.9,3.79-3.79,3.79-2.21,0-3.79-1.58-3.79-3.79,0-1.9,1.58-3.47,3.79-3.47Z"/>
  <path id="path1385" class="cls-3" d="M31.6,65.39c1.9,0,3.47,1.26,3.47,3.16s-1.58,3.47-3.47,3.47-3.16-1.58-3.16-3.47,1.26-3.16,3.16-3.16Z"/>
  <path id="path1387" class="cls-3" d="M64.13,50.86c.95,0,1.9.63,1.9,1.58,0,1.26-.95,1.9-1.9,1.9s-1.9-.63-1.9-1.9c0-.95.95-1.58,1.9-1.58Z"/>
  <path id="path1389" class="cls-3" d="M103.93,65.39c2.21,0,4.11,1.9,4.11,4.42,0,2.21-1.9,4.11-4.11,4.11-2.53,0-4.42-1.9-4.42-4.11,0-2.53,1.9-4.42,4.42-4.42Z"/>
  <path id="path1391" class="cls-3" d="M160.79,52.75c1.26,0,2.21.95,2.21,2.53,0,1.26-.95,2.21-2.21,2.21-1.58,0-2.53-.95-2.53-2.21,0-1.58.95-2.53,2.53-2.53Z"/>
  <path id="path1393" class="cls-3" d="M217.02,60.96c1.26,0,2.21.95,2.21,2.21,0,1.58-.95,2.53-2.21,2.53-1.58,0-2.53-.95-2.53-2.53,0-1.26.95-2.21,2.53-2.21Z"/>
  <circle id="circle1395" class="cls-11" cx="45.81" cy="146.25" r="6.32"/>
  <circle id="circle1397" class="cls-11" cx="67.92" cy="145.3" r="3.79"/>
  <circle id="circle1399" class="cls-11" cx="192.7" cy="147.52" r="2.53"/>
  <circle id="circle1401" class="cls-11" cx="211.02" cy="157.31" r="3.47"/>
  <circle id="circle1403" class="cls-11" cx="118.15" cy="157.31" r="2.53"/>
  <path id="path1405" class="cls-1" d="M.01,6.63h228.06v46.43c-7.27-.63-16.43,7.27-26.53,6.95-11.06-.63-23.06-6.95-30.96,1.58-9.48,10.11-37.91,25.27-58.12,12-40.43-26.53-47.38-23.69-73.92-8.84C22.11,73.91,12.95,53.06,0,53.06V6.63h0Z"/>
  <path id="path1407" class="cls-5" d="M.01,0h228.06v46.75c-7.27-.63-16.43,7.27-26.53,6.63-11.06-.63-23.06-6.95-30.96,1.58-9.48,10.42-37.91,25.27-58.12,12-40.43-26.22-47.38-23.69-73.92-8.53C22.11,67.59,12.95,46.74,0,46.74V0h0Z"/>
  <path id="path1409" class="cls-7" d="M112.46,51.49C73.93,8.84,67.92,5.69,38.55,42.64,26.86,57.49,12.96,21.16.01,21.16v25.59c12.95,0,22.11,20.85,38.54,11.69,4.42-2.84,8.53-5.05,12.32-6.63.32-.32.63-.32.95-.63,17.06-7.9,27.8-5.69,60.65,15.79,1.9,1.26,3.79,2.21,5.69,3.16l3.79.95c18.64,4.74,40.43-7.27,48.65-16.11,7.9-8.53,19.9-2.21,30.96-1.58,1.58,0,3.16,0,4.74-.32s2.84-.63,4.11-.95c6.63-2.21,12.64-6,17.69-5.37v-25.59c-7.27-.32-16.43,17.37-26.53,16.74-11.06-.63-23.69-29.69-31.27-21.16-9.79,10.42-41.38,52.75-57.81,34.75h-.03Z"/>
  <path id="path1411" class="cls-6" d="M.01,0h228.06v7.27c-16.11,0-21.8,4.11-39.8,3.47-17.37-.32-47.07-5.37-63.49-4.74-30.64.95-56.86,5.69-86.55,5.69-14.21,0-24.01-4.42-38.22-4.42V0Z"/>
  <path id="path1413" class="cls-4" d="M.01,42.64v4.11c12.95,0,22.11,20.85,38.54,11.69,4.42-2.84,8.53-5.05,12.32-6.63.32-.32.63-.32.95-.63,17.06-7.9,27.8-5.69,60.65,15.79,1.9,1.26,3.79,2.21,5.69,3.16l3.79.95c18.64,4.74,40.43-7.27,48.65-16.11,7.9-8.53,19.9-2.21,30.96-1.58,1.58,0,3.16,0,4.74-.32s2.84-.63,4.11-.95c6.63-2.21,12.64-6,17.69-5.37v-4.11c-5.05-.63-11.06,3.47-17.69,5.37-1.26.32-2.53.63-4.11.95s-3.16.63-4.74.32c-11.06-.63-23.06-6.63-30.96,1.58-8.21,8.84-30.01,21.16-48.65,16.43-1.26-.32-2.53-.95-3.79-1.26l-5.69-2.84c-32.85-21.48-43.59-24.01-60.65-15.79-.32,0-.63,0-.95.32-3.79,1.58-7.9,4.11-12.32,6.63C22.12,63.49,12.96,42.64.01,42.64Z"/>
  <circle id="circle1415" class="cls-10" cx="24.65" cy="20.22" r="2.84"/>
  <circle id="circle1417" class="cls-10" cx="67.61" cy="23.69" r="3.47"/>
  <circle id="circle1419" class="cls-10" cx="124.47" cy="22.43" r="4.11"/>
  <circle id="circle1421" class="cls-10" cx="156.05" cy="45.8" r="4.74"/>
  <circle id="circle1423" class="cls-10" cx="174.06" cy="24.95" r="1.9"/>
  <circle id="circle1425" class="cls-10" cx="211.02" cy="21.48" r="5.69"/>
  <circle id="circle1427" class="cls-10" cx="186.06" cy="8.21" r="2.53"/>
  <circle id="circle1429" class="cls-10" cx="91.61" cy="37.27" r="3.16"/>
</svg>