<?xml version="1.0" encoding="UTF-8"?>
<svg id="Layer_2" data-name="Layer 2" xmlns="http://www.w3.org/2000/svg" viewBox="0 0 228.39 165.7">
  <defs>
    <style>
      .cls-1 {
        opacity: .25;
      }

      .cls-1, .cls-2, .cls-3, .cls-4, .cls-5, .cls-6, .cls-7, .cls-8, .cls-9 {
        fill-rule: evenodd;
      }

      .cls-1, .cls-2, .cls-3, .cls-4, .cls-5, .cls-6, .cls-7, .cls-8, .cls-9, .cls-10, .cls-11, .cls-12 {
        stroke-width: 0px;
      }

      .cls-2, .cls-10 {
        fill: #a36d15;
      }

      .cls-3 {
        fill: #be7f19;
      }

      .cls-4, .cls-11 {
        fill: #d6a85e;
      }

      .cls-5 {
        fill: #f3d594;
      }

      .cls-6 {
        fill: #f5e9ce;
      }

      .cls-7 {
        fill: #f0c37a;
      }

      .cls-8, .cls-12 {
        fill: #8c5b00;
      }

      .cls-9 {
        fill: #8c5c03;
      }
    </style>
  </defs>
  <path id="path1432" class="cls-8" d="M0,0h203.11c0,.32,12.95,20.53,3.79,33.48-4.11,5.69,8.84,11.37,12.64,21.48-3.79,33.17-27.17,41.06-65.7,41.38-19.58,0-13.58,24.64-36.33,35.69-13.27,6.32-39.48,24.01-57.81,28.11-27.17,6.32-43.59,5.69-59.7,5.37C0,165.51,0,0,0,0Z"/>
  <path id="path1434" class="cls-2" d="M0,0h203.11c0,.32,12.95,20.53,3.79,33.48-4.11,5.69,8.84,11.37,12.64,21.48-3.79,33.17-27.17,41.06-65.7,41.38-15.79,0-14.85,16.11-25.9,28.11-1.9-5.37-5.05-8.53-13.58-5.37-22.43,8.53-20.22-12.95-31.27-18.32-11.06-5.37-34.75,1.58-38.22,5.69-3.47,4.42-14.85,12.32-19.27,8.21S4.42,101.4,0,99.82V0Z"/>
  <path id="path1436" class="cls-3" d="M0,0h203.11c0,.32,12.95,20.53,3.79,33.48-4.11,5.69,8.84,11.37,12.64,21.48-2.53,21.48-12.95,32.22-30.64,37.27-3.16-6.95-7.9-13.27-12.95-20.53-18.95-27.48-38.54,22.11-62.86-10.42-24.64-32.54-44.54,10.74-61.91,12-30.32,2.84-20.53-19.9-50.86-20.53L0,0Z"/>
  <path id="path1438" class="cls-9" d="M0,152.25c16.11.63,32.54,1.26,59.7-5.05,11.37-2.53,34.75-7.9,54.02-13.27-14.21,7.58-37.27,22.43-54.02,26.22C32.53,166.47,16.11,165.84,0,165.52v-13.27H0Z"/>
  <circle id="circle1440" class="cls-12" cx="71.39" cy="89.71" r="6.63"/>
  <circle id="circle1442" class="cls-12" cx="15.16" cy="85.92" r="8.84"/>
  <circle id="circle1444" class="cls-12" cx="112.14" cy="99.5" r="4.11"/>
  <circle id="circle1446" class="cls-12" cx="86.55" cy="68.55" r="5.37"/>
  <circle id="circle1448" class="cls-10" cx="79.29" cy="112.77" r="6.95"/>
  <circle id="circle1450" class="cls-10" cx="61.6" cy="113.72" r="3.79"/>
  <circle id="circle1452" class="cls-10" cx="7.58" cy="118.14" r="3.47"/>
  <circle id="circle1454" class="cls-10" cx="36.01" cy="127.3" r="3.79"/>
  <circle id="circle1456" class="cls-10" cx="106.14" cy="128.88" r="2.84"/>
  <path id="path1458" class="cls-1" d="M0,53.07c16.74,0,28.11,19.27,42.01,19.27,19.27,0,23.06-12.32,42.33-13.27,6.95-.32,31.27,18.01,44.54,17.37,13.58-.32,31.9-20.53,41.7-17.37,25.27,8.21,26.22,20.53,35.06,24.95l3.16-3.16,11.69-57.49h5.69c-3.16-8.84-10.11-16.74-23.06-16.74H0v46.43H0Z"/>
  <path id="path1460" class="cls-5" d="M0,46.43c16.74,0,28.11,19.27,42.01,19.27,19.27,0,23.06-12,42.33-12.95,6.95-.63,31.27,17.69,44.54,17.37,13.58-.32,31.9-20.85,41.7-17.69,40.75,13.58,57.81,74.86,57.81,13.58V30.32c0-12-5.69-30.32-25.27-30.32H0v46.43Z"/>
  <path id="path1462" class="cls-7" d="M0,46.43c16.74,0,28.11,19.27,42.01,19.27,19.27,0,23.06-12,42.33-12.95,6.95-.63,31.27,17.69,44.54,17.37,13.58-.32,31.9-20.85,41.7-17.69,40.75,13.58,57.81,74.86,57.81,13.58v-25.27c0,60.96-12.95-8.21-54.02-21.48-9.79-3.16-31.27,35.69-44.54,36.01-13.58.63-37.91-36.01-44.85-35.69-19.27.95-23.06,30.64-42.33,30.64C28.75,50.22,16.75,21.16,0,21.16v25.27H0Z"/>
  <path id="path1464" class="cls-6" d="M228.38,37.59v-7.27c0-12-5.69-30.32-25.27-30.32H0v7.27h203.11c19.58,0,25.27,18.01,25.27,30.32Z"/>
  <path id="path1466" class="cls-4" d="M0,46.43c16.74,0,28.11,19.27,42.01,19.27,19.27,0,23.06-12,42.33-12.95,6.95-.63,31.27,17.69,44.54,17.37,13.58-.32,31.9-20.85,41.7-17.69,40.75,13.58,57.81,74.86,57.81,13.58v-4.11c0,61.28-17.06,0-57.81-13.27-9.79-3.16-28.11,17.06-41.7,17.37-13.27.32-37.59-17.69-44.54-17.37-19.27.95-23.06,13.27-42.33,13.27C28.11,61.9,16.74,42.63,0,42.63v3.79h0Z"/>
  <circle id="circle1468" class="cls-11" cx="12.64" cy="21.16" r="4.42"/>
  <circle id="circle1470" class="cls-11" cx="73.92" cy="26.22" r="5.69"/>
  <circle id="circle1472" class="cls-11" cx="146.57" cy="21.16" r="2.53"/>
  <circle id="circle1474" class="cls-11" cx="196.16" cy="30.01" r="7.58"/>
  <circle id="circle1476" class="cls-11" cx="128.25" cy="50.22" r=".95"/>
  <circle id="circle1478" class="cls-11" cx="106.45" cy="15.48" r="3.16"/>
  <circle id="circle1480" class="cls-11" cx="210.06" cy="55.91" r="3.16"/>
</svg>