<?xml version="1.0" encoding="UTF-8"?>
<svg id="Layer_2" data-name="Layer 2" xmlns="http://www.w3.org/2000/svg" viewBox="0 0 228.66 228.17">
  <defs>
    <style>
      .cls-1 {
        fill: #754e06;
      }

      .cls-1, .cls-2, .cls-3, .cls-4 {
        fill-rule: evenodd;
        stroke-width: 0px;
      }

      .cls-2 {
        fill: #a36d15;
      }

      .cls-3 {
        fill: #be7f19;
      }

      .cls-4 {
        fill: #8c5b00;
      }
    </style>
  </defs>
  <g id="Layer_4" data-name="Layer 4">
    <g id="_805152896" data-name=" 805152896">
      <path id="path14" class="cls-4" d="M228.66,228.17H0V0h228.66c0,16.1-8.86,28.09-8.86,44.18,0,22.09,5.38,49.23,5.38,71.32,0,20.2-18.03,40.08-15.81,61.86,2.21,18.94,19.29,33.14,19.29,50.81Z"/>
      <path id="path16" class="cls-3" d="M163.82,121.19c-20.24,24.93,61.35,34.4,12.65,58.07-5.38,2.52-17.71,26.19-7.59,31.24s9.17,8.52,12.33,17.67h47.44c0-17.67-17.08-31.87-19.29-50.81-2.21-21.78,15.81-41.66,15.81-61.86,0-22.09-5.38-49.23-5.38-71.32,0-16.1,8.86-28.09,8.86-44.18h-47.44c3.16,20.83-9.49,18.94-9.8,30.3-.63,11.68,12.65,17.36,13.28,26.19.63,8.52-1.9,6-7.59,12.62-6.01,6.63-18.98,18.94-13.92,28.4,5.06,9.78,10.12,12.31.63,23.67Z"/>
      <path id="path18" class="cls-2" d="M163.19,97.52c-5.06-9.47,7.91-21.78,13.92-28.4,5.69-6.63,8.22-4.1,7.59-12.62-.63-8.84-13.92-14.52-13.28-26.19.32-11.36,12.97-9.47,9.8-30.3h-45.23c0,9.15-9.17,12.62-19.29,17.67-10.12,5.05,2.21,28.72,7.59,31.24,48.7,23.67-32.89,33.45-12.97,58.07,9.49,11.68,4.43,14.2-.32,23.67-5.06,9.78,7.91,21.78,13.6,28.4,6.01,6.63,8.54,4.1,7.91,12.94-.63,8.84-13.92,14.52-13.28,25.88.32,11.68,15.81,9.47,16.76,30.3h44.59c0-9.15-1.58-12.62-11.7-17.67s2.21-28.72,7.59-31.24c48.7-23.67-32.89-33.14-12.65-58.07,9.49-11.36,4.43-13.89-.63-23.67Z"/>
      <path id="path20" class="cls-4" d="M140.42,32.19c0,5.37-4.74,10.1-10.12,10.1-5.69,0-10.44-4.73-10.44-10.1,0-5.68,4.74-10.41,10.44-10.41,5.38,0,10.12,4.73,10.12,10.41Z"/>
      <path id="path22" class="cls-4" d="M152.75,14.2c0,2.84-2.21,4.73-4.74,4.73s-4.74-1.89-4.74-4.73c0-2.52,2.21-4.73,4.74-4.73s4.74,2.21,4.74,4.73Z"/>
      <path id="path24" class="cls-4" d="M165.09,65.33c0,2.84-2.21,5.05-5.06,5.05-2.53,0-4.74-2.21-4.74-5.05,0-2.52,2.21-4.73,4.74-4.73,2.85,0,5.06,2.21,5.06,4.73Z"/>
      <path id="path26" class="cls-4" d="M138.21,93.41c0,4.42-3.8,7.89-8.22,7.89s-8.22-3.47-8.22-7.89c0-4.73,3.8-8.21,8.22-8.21s8.22,3.47,8.22,8.21Z"/>
      <path id="path28" class="cls-4" d="M134.09,135.39c0,5.05-4.11,8.84-9.17,8.84-4.74,0-8.86-3.79-8.86-8.84,0-4.73,4.11-8.84,8.86-8.84,5.06,0,9.17,4.1,9.17,8.84Z"/>
      <path id="path30" class="cls-4" d="M150.22,126.87c0,1.89-1.58,3.47-3.8,3.47-1.9,0-3.48-1.58-3.48-3.47s1.58-3.79,3.48-3.79c2.21,0,3.8,1.89,3.8,3.79Z"/>
      <path id="path32" class="cls-4" d="M153.7,173.57c0,2.84-2.21,5.05-5.06,5.05s-5.06-2.21-5.06-5.05c0-2.52,2.21-4.73,5.06-4.73s5.06,2.21,5.06,4.73Z"/>
      <path id="path34" class="cls-4" d="M160.98,155.27c0,3.79-3.48,7.26-7.27,7.26-4.11,0-7.59-3.47-7.59-7.26,0-4.1,3.48-7.57,7.59-7.57,3.8,0,7.27,3.47,7.27,7.57Z"/>
      <path id="path36" class="cls-4" d="M139.47,198.51c0,3.16-2.85,5.68-6.01,5.68s-6.01-2.52-6.01-5.68c0-3.47,2.85-6,6.01-6s6.01,2.52,6.01,6Z"/>
      <path id="path38" class="cls-4" d="M151.49,206.08c0,1.58-1.27,2.84-2.85,2.84-1.27,0-2.53-1.26-2.53-2.84s1.27-2.84,2.53-2.84c1.58,0,2.85,1.26,2.85,2.84Z"/>
      <path id="path40" class="cls-2" d="M112.9,9.78c0,2.21-1.9,4.1-4.11,4.1s-4.11-1.89-4.11-4.1,1.9-4.1,4.11-4.1,4.11,1.89,4.11,4.1Z"/>
      <path id="path42" class="cls-2" d="M98.67,37.24c0,2.52-2.21,4.73-4.74,4.73s-4.43-2.21-4.43-4.73,1.9-4.42,4.43-4.42,4.74,1.89,4.74,4.42Z"/>
      <path id="path44" class="cls-2" d="M128.4,59.33c0,2.52-2.21,4.73-4.74,4.73-2.85,0-4.74-2.21-4.74-4.73s1.9-4.73,4.74-4.73c2.53,0,4.74,2.21,4.74,4.73Z"/>
      <path id="path46" class="cls-2" d="M97.09,90.26c0,1.26-1.27,2.52-2.53,2.52-1.58,0-2.85-1.26-2.85-2.52,0-1.58,1.27-2.84,2.85-2.84,1.27,0,2.53,1.26,2.53,2.84Z"/>
      <path id="path48" class="cls-2" d="M108.79,119.61c0,1.26-.95,2.52-2.53,2.52-1.27,0-2.21-1.26-2.21-2.52s.95-2.52,2.21-2.52c1.58,0,2.53,1.26,2.53,2.52Z"/>
      <path id="path50" class="cls-2" d="M106.26,158.43c0,1.89-1.58,3.47-3.48,3.47s-3.48-1.58-3.48-3.47,1.58-3.47,3.48-3.47,3.48,1.58,3.48,3.47Z"/>
      <path id="path52" class="cls-2" d="M119.86,177.36c0,3.79-2.85,6.63-6.64,6.63-3.48,0-6.33-2.84-6.33-6.63,0-3.47,2.85-6.31,6.33-6.31,3.8,0,6.64,2.84,6.64,6.31Z"/>
      <path id="path54" class="cls-2" d="M113.22,211.13c0,2.21-1.58,4.1-3.8,4.1-1.9,0-3.8-1.89-3.8-4.1,0-1.89,1.9-3.79,3.8-3.79,2.21,0,3.8,1.89,3.8,3.79Z"/>
      <path id="path56" class="cls-2" d="M200.19,17.36c0,2.84-2.21,5.05-5.06,5.05-2.53,0-4.74-2.21-4.74-5.05,0-2.52,2.21-4.73,4.74-4.73,2.85,0,5.06,2.21,5.06,4.73Z"/>
      <path id="path58" class="cls-2" d="M190.07,85.84c0,4.1-3.48,7.89-7.91,7.89s-7.91-3.79-7.91-7.89c0-4.42,3.48-7.89,7.91-7.89s7.91,3.47,7.91,7.89Z"/>
      <path id="path60" class="cls-2" d="M192.92,119.29c0,1.89-1.27,3.16-3.16,3.16-1.58,0-3.16-1.26-3.16-3.16,0-1.58,1.58-2.84,3.16-2.84,1.9,0,3.16,1.26,3.16,2.84Z"/>
      <path id="path62" class="cls-2" d="M188.17,207.34c0,2.21-1.9,4.42-4.43,4.42-2.21,0-4.43-2.21-4.43-4.42,0-2.52,2.21-4.42,4.43-4.42,2.53,0,4.43,1.89,4.43,4.42Z"/>
      <path id="path64" class="cls-2" d="M192.6,185.25c0,1.26-1.27,2.21-2.53,2.21s-2.21-.95-2.21-2.21.95-2.21,2.21-2.21,2.53.95,2.53,2.21Z"/>
      <path id="path66" class="cls-2" d="M182.48,132.86c0,4.1-3.48,7.57-7.59,7.57s-7.59-3.47-7.59-7.57,3.48-7.57,7.59-7.57,7.59,3.47,7.59,7.57Z"/>
      <path id="path68" class="cls-3" d="M163.19,31.87c0,1.89-1.58,3.16-3.48,3.16s-3.16-1.26-3.16-3.16,1.27-3.47,3.16-3.47,3.48,1.58,3.48,3.47Z"/>
      <path id="path70" class="cls-3" d="M177.74,64.38c0,.95-.95,1.58-1.9,1.58s-1.9-.63-1.9-1.58.95-1.89,1.9-1.89,1.9.95,1.9,1.89Z"/>
      <path id="path72" class="cls-3" d="M162.87,103.83c0,2.52-1.9,4.42-4.11,4.42-2.53,0-4.43-1.89-4.43-4.42,0-2.21,1.9-4.1,4.43-4.1,2.21,0,4.11,1.89,4.11,4.1Z"/>
      <path id="path74" class="cls-3" d="M175.52,160.63c0,1.58-.95,2.52-2.21,2.52-1.58,0-2.53-.95-2.53-2.52,0-1.26.95-2.21,2.53-2.21,1.27,0,2.21.95,2.21,2.21Z"/>
      <path id="path76" class="cls-3" d="M167.62,216.81c0,1.26-1.27,2.52-2.53,2.52s-2.53-1.26-2.53-2.52,1.27-2.52,2.53-2.52,2.53,1.26,2.53,2.52Z"/>
      <path id="path78" class="cls-1" d="M75.27,14.52c0,3.79-3.16,6.94-6.96,6.94s-6.96-3.16-6.96-6.94,3.16-6.94,6.96-6.94,6.96,3.16,6.96,6.94Z"/>
      <path id="path80" class="cls-1" d="M110.06,53.65c0,.95-.63,1.58-1.27,1.58-.95,0-1.58-.63-1.58-1.58,0-.63.63-1.26,1.58-1.26.63,0,1.27.63,1.27,1.26Z"/>
      <path id="path82" class="cls-1" d="M40.48,57.12c0,6.94-5.69,12.62-12.65,12.62s-12.65-5.68-12.65-12.62,5.69-12.62,12.65-12.62,12.65,5.68,12.65,12.62Z"/>
      <path id="path84" class="cls-1" d="M97.41,125.29c0,2.84-2.21,5.05-5.06,5.05s-5.38-2.21-5.38-5.05,2.53-5.37,5.38-5.37,5.06,2.52,5.06,5.37Z"/>
      <path id="path86" class="cls-1" d="M46.49,126.55c0,4.1-3.16,7.26-7.27,7.26-3.8,0-7.27-3.16-7.27-7.26s3.48-7.26,7.27-7.26c4.11,0,7.27,3.16,7.27,7.26Z"/>
      <path id="path88" class="cls-1" d="M94.25,202.29c0,3.16-2.53,5.37-5.38,5.37s-5.38-2.21-5.38-5.37c0-2.84,2.53-5.37,5.38-5.37s5.38,2.52,5.38,5.37Z"/>
      <path id="path90" class="cls-1" d="M36.37,201.66c0,4.73-3.8,8.52-8.54,8.52s-8.54-3.79-8.54-8.52,3.8-8.52,8.54-8.52,8.54,3.79,8.54,8.52Z"/>
    </g>
  </g>
</svg>