<?xml version="1.0" encoding="UTF-8"?>
<svg id="Layer_2" data-name="Layer 2" xmlns="http://www.w3.org/2000/svg" viewBox="0 0 228.39 228.38">
  <defs>
    <style>
      .cls-1 {
        opacity: .25;
      }

      .cls-1, .cls-2, .cls-3, .cls-4, .cls-5, .cls-6, .cls-7, .cls-8 {
        fill-rule: evenodd;
      }

      .cls-1, .cls-2, .cls-3, .cls-4, .cls-5, .cls-6, .cls-7, .cls-8, .cls-9, .cls-10, .cls-11, .cls-12, .cls-13 {
        stroke-width: 0px;
      }

      .cls-2, .cls-10 {
        fill: #a36d15;
      }

      .cls-3, .cls-12 {
        fill: #be7f19;
      }

      .cls-4, .cls-11 {
        fill: #d6a85e;
      }

      .cls-5 {
        fill: #f3d594;
      }

      .cls-6 {
        fill: #f5e9ce;
      }

      .cls-7 {
        fill: #f0c37a;
      }

      .cls-8, .cls-13 {
        fill: #8c5b00;
      }

      .cls-9 {
        fill: #754e06;
      }
    </style>
  </defs>
  <g id="g933">
    <path id="path935" class="cls-8" d="M0,0h203.11c0,.32,12.95,20.53,3.79,33.48-5.69,7.9,23.38,16.11,10.42,38.22-7.27,12,16.43,38.22-1.9,63.81-10.42,14.85,14.21,12,6,56.86-2.21,12.32,6.95,19.58,6.95,36.01H0V0Z"/>
    <path id="path937" class="cls-2" d="M0,0h203.11c0,.32,12.95,20.53,3.79,33.48-5.69,7.9,23.38,16.11,10.42,38.22-7.27,12,16.43,38.22-1.9,63.81-10.42,14.85,14.21,12,6,56.86-2.21,12.32,6.95,19.58,6.95,36.01h-92.55c4.11-8.53,6.32-11.06,3.16-16.11-2.84-4.74-13.58-22.43.95-28.74,14.85-6.63,12.95-21.48-1.58-29.69-14.53-8.53-1.58-43.28-24.01-34.75-22.43,8.21-36.96,9.79-48.01,4.42s-20.85,12-24.32,16.43c-3.47,4.42-23.38,4.74-27.8.63C9.47,136.46,4.42,135.83,0,134.25V0h0Z"/>
    <path id="path939" class="cls-3" d="M0,0h203.11c0,.32,12.95,20.53,3.79,33.48-5.69,7.9,23.38,16.11,10.42,38.22-7.27,12,16.43,38.22-1.9,63.81-10.42,14.85,14.21,12,6,56.86-2.21,12.32,6.95,19.58,6.95,36.01h-47.38c0-.63.32-1.9-2.21-17.37s18.64-31.9,11.06-44.54c-7.9-12.95-5.05-13.58-.32-27.17,11.06-33.17-6-25.59-19.9-45.8-18.95-27.48-47.07,21.16-71.39-11.37-24.64-32.54-30.64,6.95-48.01,8.53-30.32,2.53-19.9-8.21-50.22-8.53V0h0Z"/>
    <circle id="circle941" class="cls-10" cx="6.63" cy="72.97" r="3.79"/>
    <circle id="circle943" class="cls-10" cx="31.59" cy="79.6" r="3.47"/>
    <circle id="circle945" class="cls-10" cx="53.07" cy="71.07" r="2.84"/>
    <circle id="circle947" class="cls-10" cx="113.08" cy="82.44" r="6.95"/>
    <circle id="circle949" class="cls-10" cx="180.05" cy="81.5" r="5.69"/>
    <circle id="circle951" class="cls-10" cx="201.85" cy="100.77" r="1.9"/>
    <circle id="circle953" class="cls-10" cx="201.85" cy="142.46" r="4.11"/>
    <circle id="circle955" class="cls-10" cx="205.32" cy="167.42" r="6.32"/>
    <circle id="circle957" class="cls-10" cx="192.05" cy="206.9" r="3.16"/>
    <circle id="circle959" class="cls-12" cx="10.42" cy="91.29" r="2.84"/>
    <circle id="circle961" class="cls-12" cx="40.12" cy="102.03" r="2.21"/>
    <circle id="circle963" class="cls-12" cx="80.23" cy="82.76" r="2.53"/>
    <circle id="circle965" class="cls-12" cx="103.92" cy="98.87" r="1.26"/>
    <circle id="circle967" class="cls-12" cx="143.09" cy="101.08" r="5.69"/>
    <circle id="circle969" class="cls-12" cx="179.42" cy="114.35" r="3.16"/>
    <circle id="circle971" class="cls-12" cx="171.21" cy="143.72" r="1.9"/>
    <circle id="circle973" class="cls-12" cx="187.32" cy="174.37" r="5.05"/>
    <circle id="circle975" class="cls-12" cx="173.42" cy="199.64" r="5.05"/>
    <circle id="circle977" class="cls-13" cx="19.9" cy="126.04" r="6.32"/>
    <circle id="circle979" class="cls-13" cx="24.64" cy="108.03" r="1.26"/>
    <circle id="circle981" class="cls-13" cx="48.96" cy="117.82" r="5.69"/>
    <circle id="circle983" class="cls-13" cx="75.5" cy="112.77" r="5.69"/>
    <circle id="circle985" class="cls-13" cx="102.34" cy="113.08" r="2.53"/>
    <circle id="circle987" class="cls-13" cx="130.77" cy="109.61" r="3.47"/>
    <circle id="circle989" class="cls-13" cx="140.57" cy="132.04" r="8.21"/>
    <circle id="circle991" class="cls-13" cx="156.99" cy="115.93" r="1.9"/>
    <circle id="circle993" class="cls-13" cx="164.57" cy="157.94" r="5.05"/>
    <circle id="circle995" class="cls-13" cx="147.2" cy="193.63" r="6"/>
    <circle id="circle997" class="cls-13" cx="164.26" cy="178.79" r="2.53"/>
    <circle id="circle999" class="cls-13" cx="151.31" cy="219.54" r="4.74"/>
    <circle id="circle1001" class="cls-10" cx="11.06" cy="149.41" r="5.05"/>
    <circle id="circle1003" class="cls-10" cx="39.17" cy="156.68" r="4.42"/>
    <circle id="circle1005" class="cls-10" cx="66.02" cy="134.88" r="6.32"/>
    <circle id="circle1007" class="cls-10" cx="113.4" cy="135.2" r="7.58"/>
    <circle id="circle1009" class="cls-10" cx="93.18" cy="147.2" r="1.26"/>
    <circle id="circle1011" class="cls-10" cx="131.72" cy="167.1" r="5.37"/>
    <circle id="circle1013" class="cls-10" cx="117.51" cy="197.42" r="4.74"/>
    <circle id="circle1015" class="cls-10" cx="132.67" cy="215.75" r="2.84"/>
    <circle id="circle1017" class="cls-9" cx="22.11" cy="179.42" r="6.63"/>
    <circle id="circle1019" class="cls-9" cx="26.53" cy="208.8" r="7.9"/>
    <circle id="circle1021" class="cls-9" cx="85.92" cy="202.79" r="5.05"/>
    <circle id="circle1023" class="cls-9" cx="104.24" cy="168.05" r="4.74"/>
    <circle id="circle1025" class="cls-9" cx="56.54" cy="203.74" r="1.9"/>
  </g>
  <path id="path1027" class="cls-1" d="M0,53.07c16.74,0,28.11,19.27,42.01,19.27,19.27,0,23.06-12.32,42.33-13.27,6.95-.32,31.27,18.01,44.54,17.37,13.58-.32,31.9-20.53,41.7-17.37,25.27,8.21,41.38,35.06,49.91,39.48l-1.9-7.9,1.9-67.28h5.69c-3.16-8.84-10.11-16.74-23.06-16.74H0v46.43H0Z"/>
  <path id="path1029" class="cls-5" d="M0,46.43c16.74,0,28.11,19.27,42.01,19.27,19.27,0,23.06-12.32,42.33-13.27,6.95-.32,31.27,18.01,44.54,17.69,13.58-.63,31.9-20.85,41.7-17.69,40.75,13.27,57.81,74.55,57.81,13.58V30.32c0-12.32-5.69-30.32-25.27-30.32H0v46.43Z"/>
  <path id="path1031" class="cls-7" d="M0,46.43c16.74,0,28.11,19.27,42.01,19.27,19.27,0,23.06-12.32,42.33-13.27,6.95-.32,31.27,18.01,44.54,17.69,13.58-.63,31.9-20.85,41.7-17.69,40.75,13.27,57.81,74.55,57.81,13.58v-25.27c0,60.96-12.95-8.21-54.02-21.8-9.79-3.16-31.27,36.01-44.54,36.33-13.58.32-37.91-36.33-44.85-35.69-19.27.95-23.06,30.64-42.33,30.64C28.75,50.22,16.75,21.16.01,21.16v25.27H0Z"/>
  <path id="path1033" class="cls-6" d="M228.38,37.27v-6.95c0-12.32-5.69-30.32-25.27-30.32H0v7.27h203.11c19.58,0,25.27,18.01,25.27,30.01h0Z"/>
  <path id="path1035" class="cls-4" d="M0,46.43c16.74,0,28.11,19.27,42.01,19.27,19.27,0,23.06-12.32,42.33-13.27,6.95-.32,31.27,18.01,44.54,17.69,13.58-.63,31.9-20.85,41.7-17.69,40.75,13.27,57.81,74.55,57.81,13.58v-4.11c0,60.96-17.06-.32-57.81-13.58-9.79-3.16-28.11,17.06-41.7,17.69-13.27.32-37.59-18.01-44.54-17.69-19.27,1.26-23.06,13.27-42.33,13.27C28.11,61.59,16.74,42.32,0,42.32,0,42.32,0,46.43,0,46.43Z"/>
  <circle id="circle1037" class="cls-11" cx="22.11" cy="24.64" r="3.47"/>
  <circle id="circle1039" class="cls-11" cx="73.6" cy="15.48" r="3.79"/>
  <circle id="circle1041" class="cls-11" cx="111.19" cy="32.22" r="3.79"/>
  <circle id="circle1043" class="cls-11" cx="156.99" cy="29.38" r="4.42"/>
  <circle id="circle1045" class="cls-11" cx="200.58" cy="23.38" r="1.58"/>
  <circle id="circle1047" class="cls-11" cx="207.22" cy="51.8" r="3.16"/>
  <circle id="circle1049" class="cls-11" cx="180.68" cy="38.85" r="1.26"/>
  <circle id="circle1051" class="cls-11" cx="66.33" cy="37.59" r="2.53"/>
</svg>