<?xml version="1.0" encoding="UTF-8"?>
<svg id="Layer_2" data-name="Layer 2" xmlns="http://www.w3.org/2000/svg" viewBox="0 0 228.39 228.38">
  <defs>
    <style>
      .cls-1 {
        opacity: .25;
      }

      .cls-1, .cls-2, .cls-3, .cls-4, .cls-5, .cls-6, .cls-7 {
        fill-rule: evenodd;
      }

      .cls-1, .cls-2, .cls-3, .cls-4, .cls-5, .cls-6, .cls-7, .cls-8, .cls-9, .cls-10, .cls-11, .cls-12 {
        stroke-width: 0px;
      }

      .cls-2, .cls-9 {
        fill: #a36d15;
      }

      .cls-3, .cls-11 {
        fill: #be7f19;
      }

      .cls-4, .cls-10 {
        fill: #d6a85e;
      }

      .cls-5 {
        fill: #f3d594;
      }

      .cls-6 {
        fill: #f5e9ce;
      }

      .cls-7 {
        fill: #f0c37a;
      }

      .cls-8 {
        fill: #754e06;
      }

      .cls-12 {
        fill: #8c5b00;
      }
    </style>
  </defs>
  <g id="g703">
    <rect id="rect705" class="cls-12" x="0" width="228.38" height="228.38"/>
    <path id="path707" class="cls-3" d="M121.31,98.87c24.64,20.22,34.43-61.28,57.81-12.64,2.84,5.05,26.53,17.37,31.59,7.58,5.05-10.11,8.53-9.16,17.37-12.32V0H0v81.5c20.53-3.16,18.64,9.48,30.32,9.79,11.37.32,17.06-12.64,25.9-13.27,8.84-.95,6,1.58,12.95,7.58,6.63,6,18.64,18.95,28.43,13.9,9.48-5.05,12-10.11,23.69-.63h.01Z"/>
    <path id="path709" class="cls-2" d="M97.62,99.5c-9.79,5.05-21.8-7.9-28.43-13.9-6.95-6-4.11-8.53-12.95-7.58-8.84.63-14.53,13.58-25.9,13.27-11.69-.32-9.79-12.95-30.32-9.79v52.75c9.16,0,12.64,1.58,17.69,11.69,5.05,10.11,28.74-2.53,31.27-7.58,23.38-48.65,33.17,32.85,57.81,12.64,11.69-9.48,14.21-4.42,24.01.63,9.48,5.05,21.48-7.9,28.43-13.9,6.63-6,3.79-8.21,12.64-7.58s14.53,13.9,25.9,13.27c11.69-.32,9.79-8.21,30.32-9.16v-52.12c-8.84,0-12.32,1.58-17.37,11.69-5.05,9.79-28.74-2.53-31.59-7.58-23.38-48.65-33.17,32.85-57.81,12.64-11.69-9.48-14.21-4.42-23.69.63v-.02Z"/>
    <circle id="circle711" class="cls-12" cx="31.91" cy="132.35" r="10.11"/>
    <circle id="circle713" class="cls-12" cx="14.22" cy="114.66" r="4.74"/>
    <circle id="circle715" class="cls-12" cx="65.4" cy="102.34" r="4.74"/>
    <circle id="circle717" class="cls-12" cx="93.19" cy="132.67" r="8.21"/>
    <circle id="circle719" class="cls-12" cx="135.52" cy="137.41" r="8.84"/>
    <circle id="circle721" class="cls-12" cx="126.68" cy="115.93" r="3.47"/>
    <circle id="circle723" class="cls-12" cx="173.74" cy="114.03" r="5.05"/>
    <circle id="circle725" class="cls-12" cx="155.11" cy="108.98" r="7.27"/>
    <circle id="circle727" class="cls-12" cx="198.38" cy="129.19" r="6"/>
    <circle id="circle729" class="cls-12" cx="205.96" cy="113.72" r="2.84"/>
    <circle id="circle731" class="cls-9" cx="9.49" cy="153.83" r="4.11"/>
    <circle id="circle733" class="cls-9" cx="37.28" cy="168.36" r="4.42"/>
    <circle id="circle735" class="cls-9" cx="59.08" cy="138.99" r="4.74"/>
    <circle id="circle737" class="cls-9" cx="90.04" cy="168.05" r="2.53"/>
    <circle id="circle739" class="cls-9" cx="119.73" cy="156.04" r="2.53"/>
    <circle id="circle741" class="cls-9" cx="158.27" cy="159.83" r="3.47"/>
    <circle id="circle743" class="cls-9" cx="177.53" cy="149.09" r="6.63"/>
    <circle id="circle745" class="cls-9" cx="211.33" cy="153.2" r="3.79"/>
    <circle id="circle747" class="cls-9" cx="17.38" cy="67.28" r="4.74"/>
    <circle id="circle749" class="cls-9" cx="52.13" cy="53.7" r="2.53"/>
    <circle id="circle751" class="cls-9" cx="85.61" cy="80.55" r="7.9"/>
    <circle id="circle753" class="cls-9" cx="119.41" cy="72.97" r="3.16"/>
    <circle id="circle755" class="cls-9" cx="125.41" cy="50.54" r="1.26"/>
    <circle id="circle757" class="cls-9" cx="207.23" cy="78.65" r="4.42"/>
    <circle id="circle759" class="cls-9" cx="185.12" cy="72.65" r="2.21"/>
    <circle id="circle761" class="cls-9" cx="132.68" cy="87.81" r="7.58"/>
    <circle id="circle763" class="cls-9" cx="209.12" cy="55.59" r="3.79"/>
    <circle id="circle765" class="cls-11" cx="31.6" cy="102.98" r="3.16"/>
    <circle id="circle767" class="cls-11" cx="64.13" cy="86.87" r="1.9"/>
    <circle id="circle769" class="cls-11" cx="103.93" cy="103.92" r="4.42"/>
    <circle id="circle771" class="cls-11" cx="160.79" cy="89.39" r="2.53"/>
    <circle id="circle773" class="cls-11" cx="217.02" cy="97.61" r="2.53"/>
    <circle id="circle775" class="cls-8" cx="14.22" cy="194.27" r="6.95"/>
    <circle id="circle777" class="cls-8" cx="53.71" cy="153.83" r="1.26"/>
    <circle id="circle779" class="cls-8" cx="77.08" cy="191.11" r="12.64"/>
    <circle id="circle781" class="cls-8" cx="125.1" cy="170.26" r="5.37"/>
    <circle id="circle783" class="cls-8" cx="141.21" cy="212.27" r="7.27"/>
    <circle id="circle785" class="cls-8" cx="178.8" cy="193.95" r="5.37"/>
    <circle id="circle787" class="cls-8" cx="211.33" cy="196.48" r="3.16"/>
  </g>
  <path id="path789" class="cls-1" d="M0,6.63h228.06v46.43c-7.27-.63-16.43,7.27-26.53,6.63-11.06-.32-23.06-6.63-30.96,1.58-9.48,10.42-37.91,25.27-58.12,12.32-40.43-26.53-47.38-24.01-73.92-8.84-16.43,9.16-25.59-11.69-38.54-11.69V6.63h0Z"/>
  <path id="path791" class="cls-5" d="M0,0h228.06v46.43c-7.27-.32-16.43,7.58-26.53,6.95-11.06-.63-23.06-6.95-30.96,1.58-9.48,10.11-37.91,25.27-58.12,12-40.43-26.53-47.38-23.69-73.92-8.84-16.43,9.16-25.59-11.69-38.54-11.69V0h0Z"/>
  <path id="path793" class="cls-7" d="M112.46,51.49C73.93,8.53,67.92,5.69,38.55,42.64,26.86,57.17,12.96,21.16,0,21.16v25.27c12.95,0,22.11,20.85,38.54,11.69,4.42-2.53,8.53-4.74,12.32-6.63.32,0,.63-.32.95-.32,17.06-7.9,27.8-5.69,60.65,15.79,1.9,1.26,3.79,2.21,5.69,2.84,1.26.63,2.53.95,3.79,1.26,18.64,4.74,40.43-7.27,48.65-16.11,7.9-8.53,19.9-2.21,30.96-1.58,1.58,0,3.16,0,4.74-.32s2.84-.63,4.11-.95c6.63-2.21,12.64-6,17.69-5.69v-25.27c-7.27-.63-16.43,17.06-26.53,16.74-11.06-.63-23.69-29.69-31.27-21.48-9.79,10.42-41.38,53.07-57.81,35.06l-.03.03Z"/>
  <path id="path795" class="cls-6" d="M0,0h228.06v7.27c-16.11,0-21.8,4.11-39.8,3.47-17.37-.63-47.07-5.37-63.49-5.05-30.64.95-56.86,5.69-86.55,5.69C24.02,11.37,14.22,7.27,0,7.27V0Z"/>
  <path id="path797" class="cls-4" d="M0,42.33v4.11c12.95,0,22.11,20.85,38.54,11.69,4.42-2.53,8.53-4.74,12.32-6.63.32,0,.63-.32.95-.32,17.06-7.9,27.8-5.69,60.65,15.79,1.9,1.26,3.79,2.21,5.69,2.84,1.26.63,2.53.95,3.79,1.26,18.64,4.74,40.43-7.27,48.65-16.11,7.9-8.53,19.9-2.21,30.96-1.58,1.58,0,3.16,0,4.74-.32s2.84-.63,4.11-.95c6.63-2.21,12.64-6,17.69-5.69v-4.11c-5.05-.32-11.06,3.47-17.69,5.69-1.26.32-2.53.63-4.11.95s-3.16.32-4.74.32c-11.06-.63-23.06-6.95-30.96,1.58-8.21,8.84-30.01,20.85-48.65,16.11-1.26-.32-2.53-.63-3.79-1.26-1.9-.63-3.79-1.58-5.69-2.84-32.85-21.48-43.59-23.69-60.65-15.79-.32.32-.63.32-.95.63-3.79,1.58-7.9,3.79-12.32,6.32C22.12,63.49,12.96,42.33,0,42.33Z"/>
  <circle id="circle799" class="cls-10" cx="18.33" cy="12.95" r="4.42"/>
  <circle id="circle801" class="cls-10" cx="37.92" cy="25.59" r="4.11"/>
  <circle id="circle803" class="cls-10" cx="94.14" cy="35.69" r="3.47"/>
  <circle id="circle805" class="cls-10" cx="139" cy="22.11" r="2.21"/>
  <circle id="circle807" class="cls-10" cx="152.58" cy="54.33" r="3.79"/>
  <circle id="circle809" class="cls-10" cx="201.86" cy="26.85" r="5.37"/>
  <circle id="circle811" class="cls-10" cx="222.07" cy="17.37" r=".95"/>
</svg>