<?xml version="1.0" encoding="UTF-8"?>
<svg id="Layer_2" data-name="Layer 2" xmlns="http://www.w3.org/2000/svg" viewBox="0 0 178.16 175.94">
  <defs>
    <style>
      .cls-1 {
        fill: #755315;
      }

      .cls-1, .cls-2, .cls-3, .cls-4 {
        fill-rule: evenodd;
      }

      .cls-1, .cls-2, .cls-3, .cls-4, .cls-5, .cls-6, .cls-7 {
        stroke-width: 0px;
      }

      .cls-2 {
        fill: #cb9322;
      }

      .cls-3 {
        fill: #e9aa45;
      }

      .cls-4 {
        fill: #fce18b;
      }

      .cls-5 {
        fill: #ac7c1e;
      }

      .cls-6 {
        fill: #8f6719;
      }

      .cls-7 {
        fill: #e5a029;
      }
    </style>
  </defs>
  <g id="Layer_2-2" data-name="Layer 2">
    <g id="_902820544" data-name=" 902820544">
      <rect id="rect1483" class="cls-6" width="178.16" height="175.94" rx="24.95" ry="24.95"/>
      <rect id="rect1485" class="cls-5" x="2.21" y="2.21" width="173.73" height="171.52" rx="24.32" ry="24.32"/>
      <rect id="rect1487" class="cls-7" x="12.64" y="12.64" width="152.57" height="150.67" rx="21.48" ry="21.48"/>
      <path id="path1489" class="cls-2" d="M165.2,129.51v12.32c0,11.69-9.48,21.48-21.16,21.48H34.11c-11.69,0-21.48-9.79-21.48-21.48v-23.38l33.17-4.11,69.81,22.11,49.59-6.95Z"/>
      <path id="path1491" class="cls-3" d="M34.11,12.64h109.93c11.69,0,21.16,9.48,21.16,21.16v50.22l-24.64-2.21-66.65-24.32-61.28,14.85v-38.54c0-11.69,9.79-21.16,21.48-21.16Z"/>
      <polygon id="polygon1493" class="cls-4" points="165.2 50.22 154.15 64.44 132.67 65.07 154.46 68.23 165.2 83.71 178.16 88.45 178.16 83.71 165.2 79.6 156.99 66.02 165.2 55.59 178.16 55.59 178.16 50.22 165.2 50.22"/>
      <polygon id="polygon1495" class="cls-4" points="12.64 82.44 33.8 81.5 48.96 69.18 34.11 84.97 29.38 110.24 43.91 122.88 28.11 112.14 12.64 125.4 0 127.93 0 123.51 12.64 121.3 27.48 109.29 31.27 84.66 12.64 85.92 0 93.82 0 89.71 12.64 82.44"/>
      <path id="path1497" class="cls-4" d="M34.11,12.64h109.93c11.69,0,21.16,9.48,21.16,21.16v3.79c0-11.69-9.48-21.16-21.16-21.16H34.11c-11.69,0-21.48,9.48-21.48,21.16v-3.79c0-11.69,9.79-21.16,21.48-21.16Z"/>
      <polygon id="polygon1499" class="cls-1" points="12.64 80.55 33.8 79.6 48.96 69.18 34.11 83.08 29.38 108.35 43.91 122.88 28.11 110.24 12.64 123.19 0 126.04 0 121.61 12.64 119.4 27.48 107.4 31.27 82.76 12.64 83.71 0 91.6 0 87.81 12.64 80.55"/>
      <polygon id="polygon1501" class="cls-1" points="113.08 163.31 105.82 152.57 116.88 163.31 120.98 175.94 116.24 175.94 113.08 163.31"/>
      <polygon id="polygon1503" class="cls-1" points="108.35 10.74 121.3 0 117.82 0 108.35 10.74"/>
      <polygon id="polygon1505" class="cls-1" points="165.2 48.65 154.15 62.54 132.67 65.07 154.46 66.33 165.2 81.81 178.16 86.55 178.16 81.81 165.2 77.71 156.99 64.12 165.2 53.7 178.16 53.7 178.16 48.65 165.2 48.65"/>
      <circle id="circle1507" class="cls-6" cx="38.22" cy="36.64" r="3.47"/>
      <circle id="circle1509" class="cls-6" cx="107.71" cy="40.43" r="2.53"/>
      <circle id="circle1511" class="cls-6" cx="113.72" cy="81.18" r="3.16"/>
      <circle id="circle1513" class="cls-6" cx="143.41" cy="39.17" r=".63"/>
      <circle id="circle1515" class="cls-6" cx="55.91" cy="96.03" r="1.9"/>
      <circle id="circle1517" class="cls-6" cx="142.46" cy="112.77" r="3.16"/>
      <circle id="circle1519" class="cls-6" cx="142.15" cy="147.2" r="2.53"/>
      <circle id="circle1521" class="cls-6" cx="46.43" cy="145.62" r="2.84"/>
      <circle id="circle1523" class="cls-6" cx="95.4" cy="132.67" r="3.79"/>
      <circle id="circle1525" class="cls-6" cx="21.48" cy="57.17" r="1.26"/>
    </g>
  </g>
</svg>