<svg width="229" height="167" viewBox="0 0 229 167" fill="none" xmlns="http://www.w3.org/2000/svg">
<path fill-rule="evenodd" clip-rule="evenodd" d="M0.469971 0.969727H228.53V166.49C194.42 166.49 198.84 155.75 179.25 155.43C166.61 155.43 142.92 165.22 125.87 166.49C107.86 167.75 86.7 154.8 71.22 154.8C42.16 154.8 29.52 166.49 0.459961 166.49V0.969727H0.469971Z" fill="#8C5C03"/>
<path fill-rule="evenodd" clip-rule="evenodd" d="M0.469727 0.969727H228.53V153.22C194.42 153.22 210.52 144.69 190.94 144.38C178.3 144.38 142.93 154.49 125.87 155.75C107.86 157.01 71.5398 136.48 56.0598 136.48C26.9998 136.48 29.5297 153.22 0.469727 153.22V0.969727Z" fill="#8C5B00"/>
<path fill-rule="evenodd" clip-rule="evenodd" d="M121.771 100.16C146.411 120.38 156.201 38.5597 179.581 87.2097C182.421 92.5797 206.11 104.9 211.17 94.7897C216.23 84.6797 219.701 85.6297 228.541 82.4697V0.969727H0.480469V82.4697C21.0105 79.3097 19.1205 91.9497 30.8005 92.2597C42.1705 92.8897 47.8604 79.6197 56.7004 78.9897C65.5404 78.3597 62.7004 80.8897 69.6504 86.8897C76.2804 92.5797 88.2906 105.53 98.0806 100.47C107.561 95.7297 110.081 90.6797 121.771 100.15V100.16Z" fill="#BE7F19"/>
<path fill-rule="evenodd" clip-rule="evenodd" d="M98.0806 66.3603C88.2906 71.1003 76.2804 58.4603 69.6504 52.4603C62.7004 46.4603 65.5404 43.9303 56.7004 44.5603C47.8604 45.1903 42.1705 58.4603 30.8005 58.1403C19.1105 57.5103 21.0105 44.8704 0.480469 48.3504V100.79C9.64047 100.79 13.1204 102.37 18.1704 112.48C23.2204 122.59 46.9104 110.27 49.4404 104.9C72.8204 56.5703 82.6105 138.07 107.25 117.85C118.94 108.37 121.46 113.43 131.26 118.48C140.74 123.53 152.74 110.58 159.69 104.58C166.32 98.5803 163.481 96.0503 172.331 96.6803C181.171 97.3103 186.86 110.58 198.23 110.26C209.92 109.63 208.021 101.73 228.551 100.78V48.6603C219.711 48.6603 216.23 50.2404 211.18 60.3504C206.13 70.4604 182.441 58.1403 179.591 52.7703C156.211 4.44033 146.421 85.9403 121.781 65.7203C110.091 56.2403 107.571 61.3004 98.0906 66.3504L98.0806 66.3603Z" fill="#A36D15"/>
<path fill-rule="evenodd" clip-rule="evenodd" d="M32.3794 88.79C38.0694 88.79 42.4895 93.53 42.4895 99.21C42.4895 104.89 38.0694 109.32 32.3794 109.32C26.6894 109.32 22.2695 104.9 22.2695 99.21C22.2695 93.52 26.6894 88.79 32.3794 88.79Z" fill="#8C5B00"/>
<path fill-rule="evenodd" clip-rule="evenodd" d="M14.6902 76.4697C17.2202 76.4697 19.4302 78.6797 19.4302 81.2097C19.4302 84.0497 17.2202 86.2597 14.6902 86.2597C11.8502 86.2597 9.9502 84.0497 9.9502 81.2097C9.9502 78.6797 11.8502 76.4697 14.6902 76.4697Z" fill="#8C5B00"/>
<path fill-rule="evenodd" clip-rule="evenodd" d="M65.8606 64.1504C68.3906 64.1504 70.6006 66.3604 70.6006 69.2004C70.6006 71.7304 68.3906 73.9404 65.8606 73.9404C63.0206 73.9404 60.8105 71.7304 60.8105 69.2004C60.8105 66.3604 63.0206 64.1504 65.8606 64.1504Z" fill="#8C5B00"/>
<path fill-rule="evenodd" clip-rule="evenodd" d="M93.6602 91.3203C98.0802 91.3203 101.87 94.7903 101.87 99.2203C101.87 103.96 98.0802 107.43 93.6602 107.43C89.2402 107.43 85.4502 103.96 85.4502 99.2203C85.4502 94.8003 89.2402 91.3203 93.6602 91.3203Z" fill="#8C5B00"/>
<path fill-rule="evenodd" clip-rule="evenodd" d="M135.98 95.4199C140.72 95.4199 144.82 99.2099 144.82 104.26C144.82 109.31 140.71 113.1 135.98 113.1C130.93 113.1 126.82 109.31 126.82 104.26C126.82 99.2099 130.93 95.4199 135.98 95.4199Z" fill="#8C5B00"/>
<path fill-rule="evenodd" clip-rule="evenodd" d="M127.14 79C129.35 79 130.93 80.9 130.93 82.79C130.93 84.68 129.35 86.26 127.14 86.26C125.24 86.26 123.67 84.68 123.67 82.79C123.67 80.9 125.25 79 127.14 79Z" fill="#8C5B00"/>
<path fill-rule="evenodd" clip-rule="evenodd" d="M174.21 75.5195C176.74 75.5195 179.26 78.0495 179.26 80.5695C179.26 83.4095 176.73 85.6195 174.21 85.6195C171.37 85.6195 169.16 83.4095 169.16 80.5695C169.16 78.0395 171.37 75.5195 174.21 75.5195Z" fill="#8C5B00"/>
<path fill-rule="evenodd" clip-rule="evenodd" d="M155.57 68.5703C159.68 68.5703 162.84 71.7303 162.84 75.8403C162.84 79.9503 159.68 83.1103 155.57 83.1103C151.46 83.1103 148.3 79.9503 148.3 75.8403C148.3 71.7303 151.46 68.5703 155.57 68.5703Z" fill="#8C5B00"/>
<path fill-rule="evenodd" clip-rule="evenodd" d="M198.84 90.0498C202 90.0498 204.84 92.5798 204.84 95.7398C204.84 99.2098 202 101.74 198.84 101.74C195.68 101.74 192.84 99.2098 192.84 95.7398C192.84 92.5798 195.68 90.0498 198.84 90.0498Z" fill="#8C5B00"/>
<path fill-rule="evenodd" clip-rule="evenodd" d="M206.43 77.7295C208.01 77.7295 209.27 78.9895 209.27 80.5695C209.27 82.1495 208.01 83.4095 206.43 83.4095C204.85 83.4095 203.59 82.1495 203.59 80.5695C203.59 78.9895 204.85 77.7295 206.43 77.7295Z" fill="#8C5B00"/>
<path fill-rule="evenodd" clip-rule="evenodd" d="M9.94971 116.27C12.4797 116.27 14.3699 118.17 14.3699 120.38C14.3699 122.91 12.4697 124.8 9.94971 124.8C7.73971 124.8 5.83984 122.9 5.83984 120.38C5.83984 118.17 7.73971 116.27 9.94971 116.27Z" fill="#A36D15"/>
<path fill-rule="evenodd" clip-rule="evenodd" d="M35.5398 122.9C38.0698 122.9 39.9597 125.11 39.9597 127.64C39.9597 130.17 38.0598 132.06 35.5398 132.06C33.0198 132.06 30.7998 130.16 30.7998 127.64C30.7998 125.12 33.0098 122.9 35.5398 122.9Z" fill="#A36D15"/>
<path fill-rule="evenodd" clip-rule="evenodd" d="M59.5398 101.11C62.3798 101.11 64.2798 103.01 64.2798 105.85C64.2798 108.38 62.3798 110.59 59.5398 110.59C57.0098 110.59 54.7998 108.38 54.7998 105.85C54.7998 103.01 57.0098 101.11 59.5398 101.11Z" fill="#A36D15"/>
<path fill-rule="evenodd" clip-rule="evenodd" d="M90.4998 132.06C92.0798 132.06 93.3398 133.319 93.3398 134.589C93.3398 136.169 92.0798 137.43 90.4998 137.43C89.2398 137.43 87.9697 136.169 87.9697 134.589C87.9697 133.329 89.2298 132.06 90.4998 132.06Z" fill="#A36D15"/>
<path fill-rule="evenodd" clip-rule="evenodd" d="M120.19 120.38C121.45 120.38 122.4 121.64 122.4 122.91C122.4 124.18 121.45 125.44 120.19 125.44C118.61 125.44 117.66 124.18 117.66 122.91C117.66 121.64 118.61 120.38 120.19 120.38Z" fill="#A36D15"/>
<path fill-rule="evenodd" clip-rule="evenodd" d="M158.41 118.8C160.31 118.8 161.88 120.38 161.88 122.27C161.88 124.16 160.3 125.74 158.41 125.74C156.52 125.74 155.25 124.16 155.25 122.27C155.25 120.38 156.51 118.8 158.41 118.8Z" fill="#A36D15"/>
<path fill-rule="evenodd" clip-rule="evenodd" d="M178 109.32C181.47 109.32 184.32 112.48 184.32 115.95C184.32 119.42 181.48 122.58 178 122.58C174.21 122.58 171.37 119.42 171.37 115.95C171.37 112.48 174.21 109.32 178 109.32Z" fill="#A36D15"/>
<path fill-rule="evenodd" clip-rule="evenodd" d="M211.8 115.95C214.01 115.95 215.59 117.53 215.59 119.74C215.59 121.95 214.01 123.53 211.8 123.53C209.59 123.53 208.01 121.95 208.01 119.74C208.01 117.53 209.59 115.95 211.8 115.95Z" fill="#A36D15"/>
<path fill-rule="evenodd" clip-rule="evenodd" d="M17.8499 29.0898C20.3799 29.0898 22.5898 31.2998 22.5898 34.1398C22.5898 36.6698 20.3799 38.8798 17.8499 38.8798C15.0099 38.8798 12.7998 36.6698 12.7998 34.1398C12.7998 31.2998 15.0099 29.0898 17.8499 29.0898Z" fill="#A36D15"/>
<path fill-rule="evenodd" clip-rule="evenodd" d="M52.5901 17.7197C54.1701 17.7197 55.1201 18.9797 55.1201 20.2497C55.1201 21.5197 54.1701 22.7797 52.5901 22.7797C51.3301 22.7797 50.3799 21.5197 50.3799 20.2497C50.3799 18.9797 51.3301 17.7197 52.5901 17.7197Z" fill="#A36D15"/>
<path fill-rule="evenodd" clip-rule="evenodd" d="M86.0798 39.2002C90.4998 39.2002 93.9797 42.6702 93.9797 47.1002C93.9797 51.5302 90.5098 55.0002 86.0798 55.0002C81.6498 55.0002 78.1797 51.5302 78.1797 47.1002C78.1797 42.6702 81.6498 39.2002 86.0798 39.2002Z" fill="#A36D15"/>
<path fill-rule="evenodd" clip-rule="evenodd" d="M119.88 36.3496C121.46 36.3496 123.04 37.9296 123.04 39.5096C123.04 41.4096 121.46 42.6696 119.88 42.6696C117.98 42.6696 116.72 41.4096 116.72 39.5096C116.72 37.9296 117.98 36.3496 119.88 36.3496Z" fill="#A36D15"/>
<path fill-rule="evenodd" clip-rule="evenodd" d="M125.88 15.8203C126.83 15.8203 127.46 16.4503 127.46 17.0803C127.46 18.0303 126.83 18.6603 125.88 18.6603C125.25 18.6603 124.62 18.0303 124.62 17.0803C124.62 16.4503 125.25 15.8203 125.88 15.8203Z" fill="#A36D15"/>
<path fill-rule="evenodd" clip-rule="evenodd" d="M207.689 41.0898C210.219 41.0898 212.11 42.9898 212.11 45.5098C212.11 48.0298 210.209 49.9298 207.689 49.9298C205.169 49.9298 203.27 48.0298 203.27 45.5098C203.27 42.9898 205.169 41.0898 207.689 41.0898Z" fill="#A36D15"/>
<path fill-rule="evenodd" clip-rule="evenodd" d="M185.58 36.9795C186.84 36.9795 188.11 37.9295 188.11 39.1895C188.11 40.4495 186.85 41.3995 185.58 41.3995C184.31 41.3995 183.37 40.4495 183.37 39.1895C183.37 37.9295 184.32 36.9795 185.58 36.9795Z" fill="#A36D15"/>
<path fill-rule="evenodd" clip-rule="evenodd" d="M133.14 46.7803C137.56 46.7803 140.72 50.2502 140.72 54.3602C140.72 58.4702 137.56 61.9402 133.14 61.9402C129.03 61.9402 125.87 58.4702 125.87 54.3602C125.87 50.2502 129.03 46.7803 133.14 46.7803Z" fill="#A36D15"/>
<path fill-rule="evenodd" clip-rule="evenodd" d="M209.58 18.6602C211.48 18.6602 213.37 20.2401 213.37 22.1301C213.37 24.3401 211.47 25.9201 209.58 25.9201C207.37 25.9201 205.79 24.3401 205.79 22.1301C205.79 20.2301 207.37 18.6602 209.58 18.6602Z" fill="#A36D15"/>
<path fill-rule="evenodd" clip-rule="evenodd" d="M32.0605 66.3604C33.9605 66.3604 35.5305 67.6204 35.5305 69.5204C35.5305 71.4204 33.9505 72.9904 32.0605 72.9904C30.1705 72.9904 28.9004 71.4104 28.9004 69.5204C28.9004 67.6304 30.1605 66.3604 32.0605 66.3604Z" fill="#BE7F19"/>
<path fill-rule="evenodd" clip-rule="evenodd" d="M64.6003 51.8301C65.5503 51.8301 66.5002 52.4601 66.5002 53.4101C66.5002 54.6701 65.5503 55.3101 64.6003 55.3101C63.6503 55.3101 62.7002 54.6801 62.7002 53.4101C62.7002 52.4601 63.6503 51.8301 64.6003 51.8301Z" fill="#BE7F19"/>
<path fill-rule="evenodd" clip-rule="evenodd" d="M104.4 66.3604C106.61 66.3604 108.51 68.2604 108.51 70.7804C108.51 72.9904 106.61 74.8904 104.4 74.8904C101.87 74.8904 99.9805 72.9904 99.9805 70.7804C99.9805 68.2504 101.88 66.3604 104.4 66.3604Z" fill="#BE7F19"/>
<path fill-rule="evenodd" clip-rule="evenodd" d="M161.26 53.7295C162.52 53.7295 163.47 54.6795 163.47 56.2595C163.47 57.5195 162.52 58.4695 161.26 58.4695C159.68 58.4695 158.73 57.5195 158.73 56.2595C158.73 54.6795 159.68 53.7295 161.26 53.7295Z" fill="#BE7F19"/>
<path fill-rule="evenodd" clip-rule="evenodd" d="M217.48 61.9395C218.74 61.9395 219.69 62.8895 219.69 64.1495C219.69 65.7295 218.74 66.6794 217.48 66.6794C215.9 66.6794 214.95 65.7295 214.95 64.1495C214.95 62.8895 215.9 61.9395 217.48 61.9395Z" fill="#BE7F19"/>
<path d="M46.28 153.55C49.7705 153.55 52.6001 150.721 52.6001 147.23C52.6001 143.74 49.7705 140.91 46.28 140.91C42.7896 140.91 39.96 143.74 39.96 147.23C39.96 150.721 42.7896 153.55 46.28 153.55Z" fill="#8C5B00"/>
<path d="M68.3894 150.07C70.4826 150.07 72.1794 148.373 72.1794 146.28C72.1794 144.187 70.4826 142.49 68.3894 142.49C66.2962 142.49 64.5996 144.187 64.5996 146.28C64.5996 148.373 66.2962 150.07 68.3894 150.07Z" fill="#8C5B00"/>
<path d="M193.16 151.02C194.557 151.02 195.69 149.887 195.69 148.49C195.69 147.093 194.557 145.96 193.16 145.96C191.763 145.96 190.63 147.093 190.63 148.49C190.63 149.887 191.763 151.02 193.16 151.02Z" fill="#8C5B00"/>
<path d="M211.48 161.75C213.396 161.75 214.95 160.196 214.95 158.28C214.95 156.363 213.396 154.81 211.48 154.81C209.563 154.81 208.01 156.363 208.01 158.28C208.01 160.196 209.563 161.75 211.48 161.75Z" fill="#8C5B00"/>
<path d="M118.61 160.81C120.007 160.81 121.14 159.677 121.14 158.28C121.14 156.883 120.007 155.75 118.61 155.75C117.213 155.75 116.08 156.883 116.08 158.28C116.08 159.677 117.213 160.81 118.61 160.81Z" fill="#8C5B00"/>
<path fill-rule="evenodd" clip-rule="evenodd" d="M0.469971 7.61035H228.53V54.0404C221.26 53.4104 212.1 61.3104 202 60.9904C190.94 60.3604 178.94 54.0404 171.04 62.5704C161.56 72.6804 133.13 87.8404 112.92 74.5704C72.4899 48.0404 65.54 50.8803 39 65.7303C22.57 74.8903 13.41 54.0404 0.459961 54.0404V7.61035H0.469971Z" fill="black"/>
<path fill-rule="evenodd" clip-rule="evenodd" d="M0.469971 0.969971H228.53V47.72C221.26 47.09 212.1 54.99 202 54.35C190.94 53.72 178.94 47.3999 171.04 55.9299C161.56 66.3499 133.13 81.1999 112.92 67.9299C72.4899 41.7099 65.54 44.24 39 59.4C22.57 68.56 13.41 47.71 0.459961 47.71V0.959961L0.469971 0.969971Z" fill="#F3D594"/>
<path fill-rule="evenodd" clip-rule="evenodd" d="M112.93 52.4597C74.3897 9.81966 68.3898 6.65964 39.0098 43.6196C27.3198 58.4696 13.4197 22.1397 0.469727 22.1397V47.7296C13.4197 47.7296 22.5798 68.5796 39.0098 59.4196C43.4298 56.5796 47.5398 54.3697 51.3298 52.7897C51.6498 52.4697 51.9598 52.4697 52.2798 52.1597C69.3398 44.2597 80.0797 46.4697 112.93 67.9497C114.83 69.2097 116.72 70.1596 118.62 71.1096L122.41 72.0596C141.05 76.7996 162.84 64.7897 171.06 55.9497C178.96 47.4197 190.96 53.7396 202.02 54.3696C203.6 54.3696 205.18 54.3696 206.76 54.0496C208.34 53.7296 209.6 53.4197 210.87 53.0997C217.5 50.8897 223.51 47.0996 228.56 47.7296V22.1397C221.29 21.8197 212.13 39.5096 202.03 38.8796C190.97 38.2496 178.34 9.18968 170.76 17.7197C160.97 28.1397 129.38 70.4697 112.95 52.4697L112.93 52.4597Z" fill="#F0C37A"/>
<path fill-rule="evenodd" clip-rule="evenodd" d="M0.469727 0.969727H228.53V8.23969C212.42 8.23969 206.73 12.3497 188.73 11.7097C171.36 11.3897 141.66 6.33973 125.24 6.96973C94.5997 7.91973 68.3797 12.6597 38.6897 12.6597C24.4797 12.6597 14.6797 8.23969 0.469727 8.23969V0.969727Z" fill="#F5E9CE"/>
<path fill-rule="evenodd" clip-rule="evenodd" d="M0.469727 43.6198V47.7298C13.4197 47.7298 22.5798 68.5798 39.0098 59.4198C43.4298 56.5798 47.5398 54.3699 51.3298 52.7899C51.6498 52.4699 51.9598 52.4699 52.2798 52.1599C69.3398 44.2599 80.0797 46.4699 112.93 67.9499C114.83 69.2099 116.72 70.1598 118.62 71.1098L122.41 72.0598C141.05 76.7998 162.84 64.7899 171.06 55.9499C178.96 47.4199 190.96 53.7398 202.02 54.3698C203.6 54.3698 205.18 54.3698 206.76 54.0498C208.34 53.7298 209.6 53.4199 210.87 53.0999C217.5 50.8899 223.51 47.0998 228.56 47.7298V43.6198C223.51 42.9898 217.5 47.0898 210.87 48.9898C209.61 49.3098 208.34 49.6198 206.76 49.9398C205.18 50.2598 203.6 50.5698 202.02 50.2598C190.96 49.6298 178.96 43.6299 171.06 51.8399C162.85 60.6799 141.05 72.9999 122.41 68.2699C121.15 67.9499 119.88 67.3198 118.62 67.0098L112.93 64.1698C80.0797 42.6898 69.3398 40.1598 52.2798 48.3798C51.9598 48.3798 51.6498 48.3799 51.3298 48.6999C47.5398 50.2799 43.4298 52.8099 39.0098 55.3299C22.5798 64.4899 13.4197 43.6399 0.469727 43.6399V43.6198Z" fill="#D6A85E"/>
<path d="M25.1096 24.0296C26.6781 24.0296 27.9495 22.7581 27.9495 21.1896C27.9495 19.6211 26.6781 18.3496 25.1096 18.3496C23.5411 18.3496 22.2695 19.6211 22.2695 21.1896C22.2695 22.7581 23.5411 24.0296 25.1096 24.0296Z" fill="#D6A85E"/>
<path d="M68.0696 28.1295C69.986 28.1295 71.5396 26.5759 71.5396 24.6595C71.5396 22.7431 69.986 21.1895 68.0696 21.1895C66.1532 21.1895 64.5996 22.7431 64.5996 24.6595C64.5996 26.5759 66.1532 28.1295 68.0696 28.1295Z" fill="#D6A85E"/>
<path d="M124.93 27.51C127.2 27.51 129.04 25.6699 129.04 23.4C129.04 21.1301 127.2 19.29 124.93 19.29C122.66 19.29 120.82 21.1301 120.82 23.4C120.82 25.6699 122.66 27.51 124.93 27.51Z" fill="#D6A85E"/>
<path d="M156.52 51.52C159.138 51.52 161.26 49.3979 161.26 46.78C161.26 44.1622 159.138 42.04 156.52 42.04C153.902 42.04 151.78 44.1622 151.78 46.78C151.78 49.3979 153.902 51.52 156.52 51.52Z" fill="#D6A85E"/>
<path d="M174.52 27.8303C175.569 27.8303 176.42 26.9796 176.42 25.9302C176.42 24.8809 175.569 24.0303 174.52 24.0303C173.471 24.0303 172.62 24.8809 172.62 25.9302C172.62 26.9796 173.471 27.8303 174.52 27.8303Z" fill="#D6A85E"/>
<path d="M211.48 28.1398C214.622 28.1398 217.17 25.5923 217.17 22.4498C217.17 19.3073 214.622 16.7598 211.48 16.7598C208.337 16.7598 205.79 19.3073 205.79 22.4498C205.79 25.5923 208.337 28.1398 211.48 28.1398Z" fill="#D6A85E"/>
<path d="M186.53 11.7202C187.927 11.7202 189.06 10.5874 189.06 9.19012C189.06 7.79284 187.927 6.66016 186.53 6.66016C185.133 6.66016 184 7.79284 184 9.19012C184 10.5874 185.133 11.7202 186.53 11.7202Z" fill="#D6A85E"/>
<path d="M92.0801 41.4099C93.8253 41.4099 95.24 39.995 95.24 38.2498C95.24 36.5046 93.8253 35.0898 92.0801 35.0898C90.3349 35.0898 88.9199 36.5046 88.9199 38.2498C88.9199 39.995 90.3349 41.4099 92.0801 41.4099Z" fill="#D6A85E"/>
</svg>
