<svg width="3561" height="448" viewBox="0 0 3561 448" fill="none" xmlns="http://www.w3.org/2000/svg">
<path d="M3556.92 98.0637H3556.77C3556.47 94.1046 3555.86 90.2978 3554.94 86.491C3554.34 83.5978 3553.73 80.7047 3552.97 77.9638C3551.44 72.3296 3549.46 66.8477 3546.87 61.6704C3531.5 27.5612 3499.52 4.41575 3463.13 4.11121C3415.93 3.95893 3368.88 3.65449 3321.84 3.50222H3320.77C3283.62 3.34994 3246.77 3.19769 3209.62 3.04542C3180.54 3.04542 3151.46 2.89308 3122.22 2.7408C2958.85 2.13171 2795.93 1.67495 2633.17 1.3704C2622.66 1.21813 2612.16 1.21798 2601.65 1.21798C2585.82 1.06571 2570.13 1.06579 2554.3 1.06579C2281.45 0.304425 2009.52 0 1738.65 0C1467.78 0 1203.46 0.456698 937.462 1.06579H930.763C753.686 1.52261 577.065 2.13163 400.902 2.89299C383.697 2.89299 366.491 2.89314 349.438 3.04542C339.846 3.04542 330.101 3.04533 320.509 3.19761C306.045 3.19761 291.58 3.19775 277.115 3.35003C262.651 3.5023 248.186 3.50213 233.722 3.65441C231.895 3.65441 230.067 3.65441 228.24 3.65441H203.727C195.657 3.80668 187.587 3.80683 179.517 3.80683C158.201 3.9591 136.885 3.95893 115.569 4.11121C104.149 4.11121 92.7299 6.54768 82.224 11.1159C80.5492 11.725 78.8743 12.4862 77.1995 13.3999C75.5247 14.1612 73.8498 15.0749 72.3272 15.9885C70.0433 17.2067 67.7594 18.5772 65.6278 20.0999C63.1917 21.9272 60.7555 23.7544 58.4716 25.734C56.9491 27.1044 55.4265 28.6273 53.9039 30.15C52.3813 31.825 50.8587 33.6522 49.3361 35.3272C49.1839 35.4795 49.0316 35.6318 49.0316 35.784C44.7684 41.1136 40.5051 46.9 36.6986 52.6864C36.2419 53.2955 35.9373 53.7523 35.7851 54.3614C33.5012 58.1682 31.2173 61.9749 29.2379 65.934C25.5837 72.4818 22.234 79.1818 19.3411 86.1864C12.4895 102.632 6.0946 121.209 4.26749 139.178C-2.12738 206.482 -1.06157 274.091 5.63782 342.005C10.8146 394.692 50.4019 435.044 98.2112 435.653C1195.39 452.099 2311.45 451.49 3444.1 435.653C3467.7 435.349 3490.69 424.994 3507.74 406.874C3510.64 403.828 3512.92 400.63 3516.12 397.889C3517.95 396.214 3519.01 393.931 3520.23 391.646C3523.27 386.012 3526.17 380.226 3529.06 374.44C3534.69 362.867 3540.02 350.989 3545.05 338.96C3546.42 335.762 3548.24 332.412 3549.01 328.91C3549.62 326.169 3550.07 323.58 3550.99 320.839C3553.12 313.835 3554.64 306.526 3555.25 299.217C3561.95 230.846 3563.17 163.693 3556.92 98.0637ZM3488.26 237.851C3483.99 255.514 3468.61 272.112 3454.76 280.487C3437.4 290.689 3417 292.669 3397.36 294.039C3351.22 297.237 3304.78 297.998 3258.5 298.76C3256.97 298.76 3255.3 298.76 3253.78 298.912C3240.53 299.064 3227.59 299.217 3214.34 299.521L3114 301.196C3092.38 301.653 3070.91 301.957 3049.44 302.262C3037.57 302.262 3025.54 302.719 3013.66 302.871C2980.17 303.48 2946.82 303.937 2913.33 304.546C2879.83 305.155 2846.48 305.612 2812.99 306.221C2779.49 306.83 2746.15 307.287 2712.65 307.896L2612.31 309.571C2596.17 309.876 2579.88 310.18 2563.74 310.332C2546.53 310.637 2529.33 310.941 2511.97 311.246C2501.47 311.398 2491.11 311.551 2480.61 311.703C2457.61 312.008 2434.62 312.312 2411.63 312.921C2408.13 313.073 2405.24 313.226 2401.74 312.617C2397.78 312.008 2393.67 311.398 2389.55 310.942C2385.75 310.485 2381.94 310.028 2378.14 309.723V310.18C2374.02 309.723 2369.61 309.419 2365.19 309.114C2348.9 308.201 2332.61 307.896 2316.32 307.592C2278.41 306.983 2240.34 306.373 2202.28 305.764C2194.66 305.612 2187.2 305.46 2179.59 305.307C2163.45 305.003 2147.31 304.851 2131.17 304.851C2114.42 304.698 2097.83 304.851 2081.08 305.155C2072.7 305.155 2064.33 305.46 2055.96 305.764C2052.61 305.764 2049.41 306.221 2046.06 305.307C2044.54 304.851 2043.01 304.698 2041.49 304.698C2035.86 304.242 2030.07 305.764 2024.44 306.526C1990.48 311.855 1956.38 314.292 1922.12 315.205C1857.41 316.88 1792.55 312.769 1727.84 310.637C1722.66 310.485 1717.33 310.333 1712.16 310.18C1703.78 309.876 1695.25 309.571 1686.73 309.571C1653.38 308.962 1620.04 309.114 1586.69 309.267C1553.35 309.571 1520 310.028 1486.66 310.028C1453.47 310.18 1420.12 310.028 1386.78 309.114C1370.18 308.81 1353.43 308.201 1336.84 307.287C1328.46 306.83 1320.24 306.373 1311.87 305.764C1304.56 305.307 1296.34 303.48 1289.03 304.698C1286.59 305.307 1284.46 305.612 1281.87 305.307C1264.51 303.328 1247.46 300.282 1229.95 299.217C1215.33 298.303 1200.72 298.151 1186.25 298.455C1162.81 298.76 1139.36 300.282 1115.91 302.262C1089.42 304.546 1063.08 307.592 1036.58 310.485C986.642 315.967 936.853 320.687 886.76 318.707C819.157 316.119 751.097 307.744 683.647 310.485C678.927 310.637 674.359 310.941 669.639 311.246C661.265 311.703 653.043 312.464 644.821 313.378C643.602 313.53 642.232 313.683 641.014 313.835C630.66 315.053 619.85 316.576 610.106 320.383C607.517 318.098 602.036 315.662 601.122 315.053C600.056 316.423 598.991 317.794 598.077 319.317C562.905 318.86 527.886 318.251 492.714 317.642C434.551 316.88 376.388 315.967 318.225 314.901C253.972 313.835 189.567 312.617 125.313 311.398C119.68 311.246 113.589 310.942 109.022 307.135C103.084 302.11 102.018 292.516 101.713 284.141C100.343 254.144 100.647 224.146 102.627 194.3C98.2112 194.605 93.948 195.062 89.5325 195.366C89.2279 200.391 89.0757 205.264 88.9234 210.137C88.9234 201 88.6189 192.016 88.6189 183.032C89.0757 182.575 89.3802 182.119 89.6847 181.662C89.9892 181.053 90.1415 180.139 90.1415 179.378C90.446 177.246 90.446 174.962 90.446 172.83V170.698H90.5983C90.2938 162.78 89.9892 154.862 89.6847 146.943C89.5325 146.791 89.6847 146.487 89.6847 146.182C90.2938 132.325 91.3596 118.621 92.5776 105.068C93.7957 92.582 103.997 82.6842 115.873 82.6842C149.827 82.6842 183.628 82.3797 217.582 82.2274C271.634 81.9228 325.686 81.7705 379.586 81.466C410.19 81.3137 440.794 81.1614 471.245 81.1614C481.751 81.0091 492.257 81.0092 502.763 81.0092C537.326 80.8569 571.736 80.7046 606.299 80.5524C722.777 80.5524 839.103 80.0957 955.581 79.4866C988.164 79.4866 1020.75 79.3342 1053.33 79.182C1066.73 79.182 1079.98 79.0295 1093.38 79.0295H1097.94C1107.99 79.0295 1118.19 79.6388 1128.39 79.9434C1145.14 80.4002 1161.74 79.791 1177.12 73.7001C1198.43 62.8887 1215.64 44.7682 1234.52 29.3886C1225.69 40.0477 1216.7 50.5545 1208.64 61.975C1207.26 63.8023 1205.13 65.7818 1204.07 67.9137C1201.33 73.2432 1205.74 75.6796 1209.85 75.9841C1227.52 77.05 1245.33 77.9636 1262.99 79.0295C1270.91 79.4864 1278.67 79.3343 1286.59 78.7252C1289.64 78.5729 1292.83 79.3342 1295.88 79.3342H1308.36C1324.96 79.3342 1341.71 79.1818 1358.31 79.0295H2164.06C2168.32 79.0295 2172.13 78.2683 2176.24 79.6388C2178.98 80.5524 2181.42 80.8568 2184.31 80.7046C2186.29 80.7046 2188.27 80.7047 2190.25 80.4002C2195.88 80.4002 2201.52 79.791 2207 78.8774C2210.96 78.2683 2215.07 77.3546 2218.87 75.9841C2225.42 73.5478 2231.36 69.2842 2236.69 64.4115C2241.25 60.1478 2245.21 55.275 2250.69 52.6864C2256.63 49.7932 2261.51 45.6819 2266.83 41.4183C2273.53 35.9365 2280.23 30.4546 2286.93 24.9728C2292.87 20.1 2298.66 15.3794 2304.59 10.5066C2287.24 35.0226 2261.51 52.0773 2249.02 79.791C2249.63 78.4205 2259.07 78.2682 2260.59 78.1159C2264.7 77.6591 2268.66 77.3546 2272.77 77.2023C2280.84 76.8978 2289.06 77.2023 2297.13 78.1159C2313.12 79.9432 2329.41 79.182 2345.55 79.182C2378.59 79.182 2411.63 79.1819 2444.83 79.3342C2474.21 79.3342 2503.6 79.3343 2532.98 79.4866H2544.25C2568.31 79.4866 2592.36 79.6388 2616.42 79.6388C2625.56 79.6388 2634.69 79.6388 2643.83 79.6388C2677.02 79.6388 2710.36 79.7911 2743.56 79.9434C2776.9 79.9434 2810.25 80.0955 2843.44 80.2478C2876.78 80.2478 2910.13 80.4001 2943.47 80.5524C2976.82 80.5524 3010.31 80.7047 3043.66 80.857C3062.54 80.857 3081.57 81.0092 3100.45 81.0092C3114.92 81.1614 3129.38 81.1614 3143.85 81.1614C3170.64 81.1614 3197.29 81.3137 3224.09 81.466C3230.79 81.6182 3237.48 81.6184 3244.18 81.6184H3248.6C3268.7 81.6184 3288.64 81.7705 3308.59 81.9228C3320.62 81.9228 3332.49 82.0752 3344.52 82.0752C3378.02 82.0752 3411.52 82.3797 3444.86 82.532H3462.37C3474.55 82.532 3484.75 92.7342 3485.97 105.982C3488.25 130.802 3489.47 155.928 3489.63 181.966C3489.63 182.119 3489.47 182.119 3489.47 182.271C3488.1 185.773 3487.65 189.58 3487.65 193.387C3487.34 198.869 3488.25 204.35 3489.02 209.68C3489.02 207.7 3489.02 205.569 3489.47 203.589C3489.32 214.857 3488.86 226.126 3488.26 237.698V237.851Z" fill="url(#paint0_linear_563_4)"/>
<path d="M3558.3 213.028L3557.38 213.638C3557.23 206.014 3559.97 142.428 3552.97 140.446C3549.77 139.531 3546.73 141.971 3543.99 144.258C3529.53 156.762 3515.23 169.57 3500.77 182.074C3498.18 184.209 3495.75 186.496 3493.77 189.241C3490.88 193.358 3489.36 198.695 3488.9 204.032C3488.75 215.315 3488.29 226.599 3487.68 238.188C3483.42 255.876 3468.05 272.497 3454.2 280.884C3436.85 291.1 3416.46 293.082 3396.82 294.455C3350.71 297.657 3304.29 298.419 3258.03 299.182C3256.5 299.182 3254.83 299.182 3253.31 299.334C3240.07 299.487 3227.13 299.639 3213.89 299.944L3113.6 301.622C3091.99 302.079 3070.53 302.384 3049.07 302.689C3037.2 302.689 3025.18 303.146 3013.31 303.299C2979.82 303.909 2946.49 304.366 2913.01 304.976C2879.53 305.586 2846.2 306.044 2812.72 306.654C2779.24 307.263 2745.91 307.721 2712.43 308.331L2612.13 310.008C2596 310.313 2579.72 310.618 2563.58 310.77C2546.39 311.075 2529.19 311.38 2511.84 311.685C2501.34 311.838 2490.99 311.99 2480.49 312.143C2457.51 312.448 2434.53 312.753 2411.55 313.363C2408.05 313.515 2405.16 313.668 2401.65 313.058C2397.7 312.448 2393.59 311.838 2389.48 311.381C2385.67 310.923 2381.87 310.466 2378.07 310.161V310.618C2373.96 310.161 2369.54 309.856 2365.13 309.551C2348.84 308.636 2332.56 308.331 2316.28 308.026C2278.38 307.416 2240.33 306.806 2202.29 306.196C2194.68 306.043 2187.22 305.891 2179.61 305.738C2163.48 305.433 2147.35 305.281 2131.21 305.281C2114.47 305.129 2097.88 305.281 2081.14 305.586C2072.77 305.586 2064.4 305.891 2056.03 306.196C2052.68 306.196 2049.49 306.653 2046.14 305.738C2044.62 305.281 2043.1 305.129 2041.57 305.129C2035.94 304.671 2030.16 306.196 2024.53 306.958C1990.59 312.295 1956.5 314.735 1922.26 315.65C1857.58 317.327 1792.74 313.21 1728.06 311.075C1722.89 310.923 1717.56 310.771 1712.39 310.618C1704.02 310.313 1695.49 310.008 1686.97 310.008C1653.64 309.398 1620.31 309.551 1586.98 309.703C1553.65 310.008 1520.32 310.466 1486.99 310.466C1453.82 310.618 1420.49 310.465 1387.16 309.551C1370.57 309.246 1353.83 308.636 1337.24 307.721C1328.87 307.263 1320.65 306.806 1312.28 306.196C1304.98 305.738 1296.76 303.909 1289.45 305.129C1287.02 305.739 1284.89 306.043 1282.3 305.738C1264.95 303.756 1247.9 300.707 1230.4 299.639C1215.79 298.724 1201.18 298.572 1186.72 298.877C1163.29 299.182 1139.85 300.707 1116.41 302.689C1089.93 304.976 1063.6 308.026 1037.12 310.923C987.203 316.412 937.437 321.139 887.367 319.157C819.794 316.565 751.766 308.178 684.345 310.923C679.628 311.076 675.062 311.38 670.344 311.685C661.974 312.143 653.755 312.905 645.537 313.82C644.319 313.973 642.95 314.125 641.732 314.278C631.383 315.498 620.578 317.022 610.838 320.834C610.99 320.834 611.294 321.139 611.447 321.444C612.207 322.054 612.512 322.664 612.055 323.274C611.447 324.189 609.011 323.427 608.098 323.732C606.729 323.732 605.815 324.951 604.75 326.019C602.315 328.306 600.184 330.746 598.206 333.338H598.054C593.336 339.59 589.379 346.147 585.422 352.856C585.118 353.466 584.813 354.228 584.357 354.838C582.987 357.278 581.617 359.87 580.248 362.31C578.878 364.597 577.66 367.037 576.291 369.324C572.79 375.271 569.138 381.371 564.724 386.708C564.116 387.623 563.05 388.385 562.137 389.3C561.072 390.367 559.854 391.587 559.093 392.807V393.112C558.332 394.789 558.941 396.009 560.615 396.924C561.985 397.839 564.115 398.449 566.703 398.906C576.899 400.279 593.184 399.364 595.314 399.364C632.753 400.431 670.04 401.346 707.478 401.803H756.94C785.856 401.803 814.468 402.109 843.384 402.413C876.105 402.718 908.673 403.023 941.394 403.176C974.115 403.328 1006.68 403.786 1039.4 403.786H1067.86C1091.15 404.091 1114.43 404.243 1137.72 404.243H1138.18C1161.46 404.243 1184.9 404.243 1208.33 404.548H1235.88C1268.6 405.006 1301.48 405.006 1334.2 405.006H1372.85C1392.79 405.311 1412.73 405.31 1432.66 405.31C1465.54 405.615 1498.41 405.616 1531.28 405.616H1629.9C1635.84 405.616 1642.53 406.988 1648.01 404.243C1650.14 403.176 1651.21 401.803 1653.49 401.346C1658.06 400.584 1664.3 403.633 1667.8 399.211C1669.17 397.534 1669.47 395.247 1669.17 392.959C1669.01 391.129 1668.71 389.452 1668.25 387.775C1663.69 370.697 1658.97 353.619 1654.4 336.388C1659.43 345.689 1664.6 354.991 1669.62 364.445C1669.62 364.597 1669.62 364.902 1669.93 364.902C1677.38 378.931 1685.15 392.959 1692.76 406.988C1699.76 402.566 1708.13 401.194 1716.19 401.194H1717.11C1720.3 401.194 1723.65 401.346 1726.85 401.651H1727.61C1736.28 402.261 1744.8 403.023 1753.48 403.786H1753.78C1767.63 405.158 1781.33 406.835 1795.03 408.97C1795.33 405.768 1795.33 402.718 1795.33 399.516C1795.33 388.232 1795.79 376.949 1796.09 365.512C1796.24 365.97 1796.4 366.58 1796.55 367.037C1797.61 370.697 1798.83 374.204 1800.2 377.711C1800.35 378.168 1800.51 378.473 1800.66 378.931C1801.27 380.151 1801.72 381.523 1802.33 382.743C1802.48 383.2 1802.64 383.505 1802.79 383.81C1803.4 384.878 1803.7 385.945 1804.31 387.012C1804.46 387.317 1804.61 387.622 1804.77 387.927C1805.38 388.842 1805.83 389.757 1806.29 390.672C1806.44 390.977 1806.59 391.282 1806.9 391.435C1807.2 391.74 1807.35 392.045 1807.51 392.197C1808.11 392.959 1808.57 393.417 1809.18 394.179C1809.94 395.247 1810.55 396.162 1811.31 396.924C1811.46 397.077 1811.77 397.229 1811.92 397.381C1813.9 399.364 1816.18 401.041 1818.46 402.261C1820.29 403.328 1822.27 404.243 1824.25 405.006C1824.25 405.006 1824.4 405.158 1824.55 405.158C1826.07 405.768 1827.44 406.225 1829.12 406.53C1846.92 410.647 1868.53 404.548 1885.43 405.463C1902.93 406.378 1920.43 406.073 1937.93 405.768H1938.54C1946.61 405.463 1954.37 405.463 1962.28 405.463H2033.66C2063.79 405.158 2094.23 405.158 2124.52 405.158C2142.78 404.853 2161.19 404.853 2179.61 404.853H2223.75C2256.77 404.853 2289.95 404.396 2322.97 404.396C2356 404.396 2389.18 403.938 2422.35 403.938C2438.64 403.633 2455.07 403.633 2471.36 403.633H2471.81C2488.56 403.481 2505.14 403.176 2521.88 403.176H2537.56C2565.56 403.176 2593.57 403.023 2621.57 402.718C2654.75 402.413 2687.92 402.261 2721.1 401.956C2740.73 401.956 2760.37 401.956 2780 401.498C2789.43 401.498 2799.78 402.566 2809.07 401.194C2810.59 401.041 2811.65 400.889 2813.02 400.279C2815.15 399.059 2816.07 397.534 2818.5 397.534C2822 397.381 2825.2 399.364 2828.55 398.754C2832.81 398.144 2835.4 393.112 2837.22 388.69C2837.83 387.317 2838.29 385.945 2838.74 384.573C2844.07 369.477 2847.27 353.619 2847.88 337.303C2847.57 348.434 2847.88 359.413 2848.79 370.392C2849.24 376.339 2849.85 382.133 2850.61 388.08C2851.07 391.74 2851.98 396.009 2854.88 397.839C2856.4 399.059 2858.38 399.059 2860.2 399.059C2870.25 399.059 2880.6 399.974 2890.79 400.431C2900.69 400.889 2910.88 400.126 2920.93 400.126C2954.1 399.821 2987.43 399.516 3020.76 399.211H3036.74C3064.75 398.754 3092.9 398.601 3120.9 398.144L3220.28 396.924H3220.89C3254.37 396.467 3287.86 396.162 3321.19 395.704C3354.67 395.247 3388.15 394.789 3421.48 394.332C3434.72 394.332 3448.11 394.332 3461.5 393.874C3491.33 393.417 3517.97 377.711 3535.16 353.009C3539.58 346.452 3543.53 339.438 3546.58 331.813C3550.54 321.902 3553.27 311.075 3554.34 299.792C3557.23 270.82 3559.06 242.305 3558.3 213.028ZM3553.27 86.0092C3548.4 59.6294 3533.34 37.3667 3513.55 23.0332C3512.18 21.8133 3510.81 20.8984 3509.44 20.136C3508.68 19.526 3507.62 19.0686 3506.7 18.4586C3504.73 17.2388 3502.75 16.1714 3500.77 15.104C3488.44 8.69965 3475.05 5.19261 3461.5 5.19261C3414.63 5.04013 3367.91 4.88752 3321.19 4.58255H3272.79C3258.64 4.27758 3244.94 4.27775 3230.78 4.27775H3229.72C3193.65 4.12526 3157.58 3.82031 3121.51 3.82031H3120.75C2957.76 3.21038 2795.07 2.75283 2632.83 2.29538H2553.08C2521.58 1.99041 2490.23 1.99035 2458.88 1.99035H2100.17C1991.2 1.68538 1882.38 1.68555 1773.72 1.68555H865.756C840.644 1.99051 815.685 1.99035 790.574 1.99035C765.615 2.29532 740.656 1.99041 715.544 2.29538C690.433 2.60035 665.474 2.60041 640.363 2.60041C615.556 2.90538 590.444 2.60025 565.485 2.90521C540.526 3.21018 515.415 3.21025 490.456 3.21025C471.432 3.51522 452.408 3.51528 433.384 3.51528H349.68C311.48 3.51528 272.976 3.51526 234.777 3.97271H228.385C212.405 4.27768 196.577 4.27775 180.749 4.27775H179.836C158.53 4.27775 137.071 4.58255 115.764 4.58255C104.35 4.58255 93.3925 7.02241 83.1958 11.1395C81.5217 11.7494 79.8476 12.5117 78.1735 13.4266C76.4995 14.1891 74.8254 15.1039 73.3035 16.0188C71.0206 17.2387 68.7378 18.6111 66.6071 20.136C64.1721 21.9658 61.737 23.7955 59.4542 25.7778C46.8224 36.2992 36.6257 50.0228 30.2338 66.0336C26.1246 75.6401 23.5374 86.1615 22.4721 97.2928C21.4068 110.254 20.3414 124.587 19.5805 138.006C18.9717 150.357 16.0801 164.691 18.9717 176.89C19.7327 180.092 20.4936 182.989 21.2546 186.191C21.7111 188.326 21.7111 188.936 23.233 190.308C24.6027 191.528 26.1246 192.443 27.7987 193.053C29.0162 193.663 30.0816 194.12 31.2991 194.425C31.4513 194.578 31.7557 194.578 31.9078 194.578C34.1907 195.188 36.6257 195.493 38.9086 195.798C46.6703 196.713 54.7363 196.865 62.498 196.255C64.7808 196.103 66.9115 195.645 69.1943 195.34C69.8031 195.188 70.4119 195.188 71.0206 195.188C71.6294 195.188 72.3903 195.188 72.9991 195.188C75.1297 195.035 77.1082 194.73 79.0867 193.663C79.6954 193.358 80.3042 193.053 80.7608 192.595C83.8046 190.613 86.2396 187.258 87.3049 183.294C87.7615 181.007 87.9137 178.567 88.8268 176.432C88.8268 179.177 88.8268 181.769 89.1312 184.209C89.1312 188.173 89.2834 191.986 89.2834 195.798C89.2834 200.982 89.2834 206.319 89.1312 211.656C88.979 214.858 88.979 218.06 88.8268 221.415C88.5224 218.518 88.2181 215.62 87.9137 212.571C87.7615 211.503 87.6093 210.284 87.3049 209.216C86.8484 207.844 86.0874 206.624 84.8699 206.166C83.9568 205.861 82.8914 205.862 81.9783 205.862C81.3695 205.862 80.7608 206.014 80.152 206.014C64.4765 207.386 48.6487 208.301 32.9732 209.674C32.06 209.826 30.8425 209.826 29.7772 209.979C28.2553 209.826 26.7334 209.978 25.6681 210.893C24.4506 211.656 23.5374 213.181 22.7765 214.401C15.4714 225.227 18.5151 241.848 20.1892 255.419C20.4936 257.859 20.6458 259.993 20.798 262.128C21.5589 272.954 22.4721 283.781 23.5374 294.455C23.5374 296.59 23.8418 298.572 23.994 300.554C29.3206 353.314 68.7378 393.722 116.525 394.484C198.86 395.552 281.043 396.772 363.225 397.839H372.356C403.251 398.296 434.145 397.839 465.04 398.296C486.347 398.601 515.871 406.53 537.634 398.296C539.004 397.839 540.374 397.229 541.744 396.467C544.787 394.942 547.679 392.959 550.418 390.672H550.571C550.571 390.672 550.875 390.672 551.027 390.215C551.027 390.215 551.179 390.215 551.179 390.062C558.637 382.895 564.572 373.899 570.051 365.055C575.378 356.821 580.704 348.587 586.031 340.352C586.183 340.047 586.335 339.895 586.487 339.59C590.292 333.643 593.792 327.239 597.749 321.444C598.054 320.834 598.358 320.377 598.815 319.92C563.659 319.462 528.655 318.852 493.499 318.242C435.363 317.48 377.226 316.565 319.09 315.497C254.866 314.43 190.49 313.21 126.266 311.99C120.634 311.838 114.547 311.533 109.981 307.721C104.046 302.689 102.98 293.082 102.676 284.696C101.306 254.656 101.611 224.617 103.589 194.73C99.1757 195.035 94.9144 195.493 90.5009 195.798C90.1965 200.83 90.0443 205.709 89.8922 210.589C89.8922 201.44 89.5878 192.443 89.5878 183.446C90.0443 182.989 90.3487 182.531 90.6531 182.074C90.9575 181.464 91.1097 180.549 91.1097 179.787C91.4141 177.652 91.4141 175.365 91.4141 173.23V171.095H91.5662C91.2619 163.166 90.9575 155.237 90.6531 147.308C90.5009 147.155 90.6531 146.85 90.6531 146.545C91.2619 132.669 92.3272 118.946 93.5447 105.374C94.7622 92.8708 104.959 82.9593 116.83 82.9593C150.768 82.9593 184.554 82.6544 218.493 82.5019C272.52 82.1969 326.547 82.0446 380.422 81.7396C411.013 81.5872 441.603 81.4346 472.041 81.4346C482.542 81.2821 493.043 81.282 503.544 81.282C538.091 81.1295 572.486 80.977 607.033 80.8245C723.458 80.8245 839.731 80.3672 956.156 79.7573C988.725 79.7573 1021.29 79.6047 1053.86 79.4522C1067.25 79.4522 1080.5 79.2998 1093.89 79.2998H1098.45C1108.5 79.2998 1118.7 79.9097 1128.89 80.2147C1145.63 80.6722 1162.22 80.0622 1177.59 73.9628C1198.9 63.1364 1216.1 44.9908 1234.97 29.5899C1226.14 40.2638 1217.16 50.7852 1209.1 62.2215C1207.73 64.0513 1205.6 66.0338 1204.53 68.1686C1201.79 73.5055 1206.2 75.9452 1210.31 76.2502C1227.97 77.3176 1245.77 78.2325 1263.43 79.2998C1271.34 79.7573 1279.1 79.6047 1287.02 78.9948C1290.06 78.8423 1293.26 79.6049 1296.3 79.6049H1308.78C1325.37 79.6049 1342.11 79.4523 1358.7 79.2998H2164.09C2168.35 79.2998 2172.15 78.5373 2176.26 79.9097C2179 80.8246 2181.44 81.1297 2184.33 80.9772C2186.31 80.9772 2188.28 80.9771 2190.26 80.6721C2195.89 80.6721 2201.53 80.0621 2207 79.1472C2210.96 78.5373 2215.07 77.6226 2218.87 76.2502C2225.42 73.8105 2231.35 69.5408 2236.68 64.6613C2241.25 60.3917 2245.2 55.5124 2250.68 52.9202C2256.62 50.023 2261.49 45.9058 2266.81 41.6363C2273.51 36.1469 2280.21 30.6574 2286.9 25.168C2292.84 20.2885 2298.62 15.5615 2304.56 10.682C2287.21 35.232 2261.49 52.3102 2249.01 80.0623C2249.62 78.69 2259.05 78.5375 2260.57 78.385C2264.68 77.9275 2268.64 77.6224 2272.75 77.4699C2280.82 77.1649 2289.03 77.4701 2297.1 78.385C2313.08 80.2148 2329.36 79.4522 2345.5 79.4522C2378.52 79.4522 2411.55 79.4524 2444.72 79.6049C2474.1 79.6049 2503.47 79.6048 2532.84 79.7573H2544.1C2568.15 79.7573 2592.2 79.9097 2616.24 79.9097C2625.37 79.9097 2634.51 79.9097 2643.64 79.9097C2676.81 79.9097 2710.14 80.0622 2743.32 80.2147C2776.65 80.2147 2809.98 80.3673 2843.16 80.5197C2876.49 80.5197 2909.82 80.6721 2943.15 80.8245C2976.48 80.8245 3009.96 80.9771 3043.29 81.1296C3062.16 81.1296 3081.18 81.282 3100.05 81.282C3114.51 81.4345 3128.97 81.4346 3143.43 81.4346C3170.21 81.4346 3196.85 81.5872 3223.63 81.7396C3230.33 81.8921 3237.02 81.892 3243.72 81.892H3248.13C3268.22 81.892 3288.16 82.0446 3308.1 82.1971C3320.12 82.1971 3331.99 82.3495 3344.01 82.3495C3377.5 82.3495 3410.98 82.6544 3444.31 82.8069H3461.81C3473.98 82.8069 3484.18 93.0235 3485.4 106.29C3487.68 131.144 3488.9 156.304 3489.05 182.379C3492.55 173.382 3500.01 167.436 3507.01 161.794C3513.86 156.304 3520.71 150.967 3527.71 145.478C3535.93 139.074 3544.45 132.364 3549.62 122.758C3549.93 122.758 3549.93 122.453 3549.93 122.148C3550.38 121.08 3550.84 120.166 3551.14 119.098C3551.14 119.098 3551.14 118.996 3551.14 118.793C3553.43 112.999 3553.73 106.899 3553.73 100.342C3553.88 95.6155 3553.88 90.7362 3553.12 86.0092H3553.27Z" fill="url(#paint1_linear_563_4)"/>
<path d="M3558.22 213.068C3558.97 242.225 3557.18 270.622 3554.35 299.476C3553.31 310.713 3550.63 321.495 3546.75 331.366C3543.77 338.959 3539.9 345.945 3535.58 352.475C3538.26 340.63 3540.5 328.633 3542.14 316.484C3547.05 281.86 3548.39 246.78 3548.39 211.853C3548.39 194.389 3548.69 176.621 3547.8 159.157C3547.5 152.779 3543.77 155.209 3540.35 157.942C3528.43 167.661 3515.47 175.71 3505.34 188.011C3500.72 193.629 3496.85 200.008 3494.16 206.993C3489.7 217.927 3488.5 229.62 3489.55 241.617C3489.99 246.78 3489.55 251.944 3488.8 257.107C3488.21 260.903 3487.46 264.548 3486.57 268.193C3486.12 270.015 3485.52 271.685 3484.93 273.508C3484.63 274.723 3483.14 277.001 3483.14 278.064C3482.25 259.385 3481.35 240.858 3480.91 222.027C3480.91 215.953 3480.61 209.423 3482.84 203.804C3484.33 199.856 3486.86 196.667 3489.25 193.326C3488.95 198.793 3489.84 204.26 3490.59 209.575C3490.59 202.285 3491.93 194.541 3495.8 188.77C3497.74 186.036 3500.12 183.759 3502.66 181.633C3516.81 169.18 3530.81 156.424 3544.97 143.971C3547.65 141.693 3550.63 139.264 3553.76 140.175C3560.61 142.149 3557.93 205.475 3558.08 213.068H3558.22Z" fill="#EB924D"/>
<path d="M3141.66 7.777C3134.5 7.62451 3127.5 7.47205 3120.34 7.31956C3112.11 30.9551 3105.57 56.4203 3100.24 80.9707C3114.7 81.1232 3129.17 81.1234 3143.64 81.1234C3170.44 81.1234 3197.1 81.2759 3223.9 81.4284C3227.71 58.0978 3230.75 33.8522 3230.9 10.2166C3201.21 9.14921 3171.36 8.38695 3141.66 7.777ZM3141.66 7.777C3134.5 7.62451 3127.5 7.47205 3120.34 7.31956C3112.11 30.9551 3105.57 56.4203 3100.24 80.9707C3114.7 81.1232 3129.17 81.1234 3143.64 81.1234C3170.44 81.1234 3197.1 81.2759 3223.9 81.4284C3227.71 58.0978 3230.75 33.8522 3230.9 10.2166C3201.21 9.14921 3171.36 8.38695 3141.66 7.777ZM3141.66 7.777C3134.5 7.62451 3127.5 7.47205 3120.34 7.31956C3112.11 30.9551 3105.57 56.4203 3100.24 80.9707C3114.7 81.1232 3129.17 81.1234 3143.64 81.1234C3170.44 81.1234 3197.1 81.2759 3223.9 81.4284C3227.71 58.0978 3230.75 33.8522 3230.9 10.2166C3201.21 9.14921 3171.36 8.38695 3141.66 7.777ZM3274.16 3.20234C3274.16 3.20234 3273.85 3.96465 3273.85 4.26963C3273.85 4.42211 3273.85 4.72722 3273.55 4.87971C3272.94 7.16702 3272.18 9.30188 3271.41 11.5892C3263.8 34.9197 3256.19 58.2502 3248.42 81.5808C3268.52 81.5808 3288.47 81.7334 3308.42 81.8858C3312.69 59.3177 3316.65 36.5969 3320 13.5714C3320.61 10.6741 3321.06 7.77696 3321.37 4.87971C3321.37 4.72722 3321.37 4.42211 3321.37 4.26963C3321.37 3.96465 3321.52 3.50731 3321.52 3.20234H3274H3274.16ZM3120.34 7.31956C3112.11 30.9551 3105.57 56.4203 3100.24 80.9707C3114.7 81.1232 3129.17 81.1234 3143.64 81.1234C3170.44 81.1234 3197.1 81.2759 3223.9 81.4284C3227.71 58.0978 3230.75 33.8522 3230.9 10.2166C3201.21 9.14921 3171.36 8.38695 3141.66 7.777C3134.5 7.62451 3127.5 7.47205 3120.34 7.31956ZM3141.66 7.777C3134.5 7.62451 3127.5 7.47205 3120.34 7.31956C3112.11 30.9551 3105.57 56.4203 3100.24 80.9707C3114.7 81.1232 3129.17 81.1234 3143.64 81.1234C3170.44 81.1234 3197.1 81.2759 3223.9 81.4284C3227.71 58.0978 3230.75 33.8522 3230.9 10.2166C3201.21 9.14921 3171.36 8.38695 3141.66 7.777ZM3141.66 7.777C3134.5 7.62451 3127.5 7.47205 3120.34 7.31956C3112.11 30.9551 3105.57 56.4203 3100.24 80.9707C3114.7 81.1232 3129.17 81.1234 3143.64 81.1234C3170.44 81.1234 3197.1 81.2759 3223.9 81.4284C3227.71 58.0978 3230.75 33.8522 3230.9 10.2166C3201.21 9.14921 3171.36 8.38695 3141.66 7.777ZM3214.15 299.638L3113.79 301.315C3092.16 301.773 3070.69 302.077 3049.22 302.382C3048 308.177 3046.93 313.972 3045.87 319.919C3045.41 322.053 3045.1 324.188 3044.65 326.475C3040.69 350.568 3037.79 374.814 3037.03 398.754C3065.06 398.297 3093.08 398.144 3121.25 397.687L3220.7 396.467C3229.08 375.271 3236.39 353.618 3243.24 331.965C3244.76 327.085 3246.29 322.358 3247.81 317.631C3249.79 311.379 3251.62 305.127 3253.6 299.028C3240.35 299.18 3227.4 299.333 3214.15 299.638ZM3122.01 2.43985C3122.01 2.43985 3121.71 3.2024 3121.71 3.50738C3121.56 3.65986 3121.56 3.81225 3121.4 4.11722C3121.1 5.18463 3120.64 6.25215 3120.34 7.31956C3112.11 30.9551 3105.57 56.4203 3100.24 80.9707C3114.7 81.1232 3129.17 81.1234 3143.64 81.1234C3170.44 81.1234 3197.1 81.2759 3223.9 81.4284C3227.71 58.0978 3230.75 33.8522 3230.9 10.2166C3230.9 8.38677 3230.9 6.557 3230.9 4.57467V2.8973C3194.51 2.8973 3158.26 2.59234 3121.86 2.43985H3122.01ZM2511.62 311.379C2501.11 311.532 2490.75 311.684 2480.24 311.837C2479.48 316.259 2478.87 320.528 2478.26 324.95C2477.96 326.78 2477.81 328.61 2477.5 330.44C2474.46 354.38 2472.32 378.474 2471.56 403.329C2488.47 403.482 2505.22 403.177 2522.13 403.024H2537.35C2545.27 379.389 2551.97 355.906 2557.91 332.27C2558.68 329.678 2559.29 326.933 2560.05 324.341C2561.11 319.766 2562.33 315.039 2563.4 310.464C2546.19 310.769 2528.98 311.074 2511.62 311.379ZM2554.26 0.914887H2553.95C2553.95 0.914887 2553.65 1.52495 2553.65 1.98241C2553.5 2.1349 2553.5 2.43977 2553.35 2.59226C2552.28 6.09946 2551.06 9.75926 2550 13.419C2543.6 35.0722 2537.96 57.3354 2532.63 79.2936H2543.9C2567.97 79.2936 2592.03 79.446 2616.09 79.446C2621.73 56.8779 2627.06 34.1572 2631.02 11.4365C2631.63 8.53929 2632.08 5.48952 2632.54 2.59226C2632.54 2.43977 2632.69 2.1349 2632.69 1.98241C2632.69 1.67743 2632.84 1.3725 2632.84 1.06752L2554.26 0.914887ZM2179.46 331.05V326.323C2179.31 318.394 2179.16 311.379 2179.16 305.432C2163.01 305.127 2146.87 304.975 2130.73 304.975C2113.98 304.822 2097.38 304.975 2080.62 305.28C2072.25 305.28 2063.87 305.585 2055.49 305.89C2052.14 305.89 2048.95 306.347 2045.6 305.432C2044.07 304.975 2042.55 304.822 2041.03 304.822C2040.11 311.837 2039.05 319.156 2038.13 326.78C2037.83 328.763 2037.68 330.745 2037.37 332.88C2034.48 355.905 2032.19 380.913 2031.89 405.159C2062.65 405.311 2093.57 405.311 2124.48 405.006C2142.76 405.006 2161.19 405.006 2179.61 404.701C2180.68 378.016 2180.07 351.941 2179.46 331.05ZM2185.25 4.72707C2185.1 3.81215 2185.1 3.04974 2184.94 2.13481C2184.94 2.13481 2184.94 1.82986 2184.94 1.67737C2184.94 1.21991 2184.79 0.610098 2184.79 0.152636H2100.88C2100.88 0.152636 2100.42 1.21991 2100.27 1.67737C2100.27 1.82986 2100.12 1.98233 2100.12 2.13481C2099.81 2.74476 2099.66 3.20223 2099.51 3.81218C2090.07 27.7527 2082.6 53.0656 2076.51 78.8359H2163.78C2168.04 78.8359 2171.85 78.0736 2175.96 79.446C2178.7 80.3609 2181.14 80.6658 2184.03 80.5133C2186.01 80.5133 2187.99 80.5135 2189.97 80.2085C2189.82 54.5906 2188.6 29.43 2185.4 4.72707H2185.25ZM1782.73 14.1814C1781.06 12.0466 1779.38 9.91174 1777.86 7.92941C1776.34 5.79458 1774.82 3.81234 1773.29 1.83001C1773.14 1.67752 1772.99 1.52505 1772.99 1.37256C1772.53 0.915101 1772.23 0.457462 1771.92 0H1648.56C1648.56 0 1648.72 0.915101 1648.87 1.37256C1648.87 1.52505 1648.87 1.67752 1648.87 1.83001C1649.32 3.96483 1649.93 6.09954 1650.54 8.38685C1655.87 30.1925 1663.18 52.1508 1668.06 77.6162C1668.21 78.0737 1668.21 78.3785 1668.36 78.8359H1823.4C1811.52 55.6578 1798.12 33.6998 1782.58 14.1814H1782.73ZM1924.98 327.085C1923.91 323.121 1922.85 319.309 1921.63 315.344C1856.9 317.021 1792.02 312.904 1727.3 310.769C1728.52 316.106 1729.74 321.443 1731.11 327.085C1731.72 329.525 1732.32 331.965 1732.93 334.405C1738.42 356.668 1744.97 380.608 1753.04 403.482C1753.04 403.482 1753.09 403.583 1753.19 403.787C1767.05 405.159 1780.91 406.989 1794.77 408.971C1795.07 394.942 1795.53 380.913 1795.83 366.732V365.665C1796.9 369.629 1798.12 373.594 1799.49 377.406C1799.64 377.864 1799.79 378.169 1799.94 378.626C1800.55 379.846 1801.01 381.218 1801.62 382.438C1801.77 382.896 1801.92 383.201 1802.08 383.506C1802.68 384.573 1802.99 385.64 1803.6 386.708C1803.75 387.013 1803.9 387.318 1804.06 387.623C1804.82 388.843 1805.43 390.063 1806.19 391.13C1806.49 391.435 1806.64 391.74 1806.8 391.893C1807.41 392.655 1807.86 393.112 1808.47 393.875C1809.23 395.095 1810.15 396.162 1811.21 397.077C1813.19 399.059 1815.48 400.737 1817.76 401.957C1819.59 403.024 1821.57 403.939 1823.55 404.701C1823.55 404.701 1823.7 404.854 1823.85 404.854C1825.38 405.464 1826.75 405.921 1828.42 406.226C1846.39 410.953 1868.32 404.701 1885.38 405.616C1902.89 406.531 1920.41 406.074 1937.92 405.921V405.464C1937.31 380.609 1932.29 353.771 1924.98 327.085ZM1015.78 11.2841C1013.95 8.08191 1011.97 4.87975 1009.84 1.83001C1009.84 1.67752 1009.69 1.52505 1009.69 1.37256C1009.53 1.37256 1009.38 0.91497 1009.23 0.762483H930.037C930.037 0.762483 930.189 1.22008 930.189 1.37256C930.189 1.52505 930.189 1.67752 930.341 1.83001C931.103 5.03224 931.864 8.2344 932.778 11.2841C939.022 34.3097 946.941 57.0304 954.861 79.2936C987.452 79.2936 1020.04 79.141 1052.63 78.9886C1041.21 55.658 1029.18 32.7849 1015.78 11.2841ZM1105.48 10.9791C1104.41 7.92936 1103.35 4.87975 1102.28 1.83001C1102.13 1.67752 1102.13 1.52505 1102.13 1.37256C1101.98 1.06759 1101.98 0.915054 1101.82 0.61008H1074.72C1074.72 0.61008 1074.87 1.06759 1074.87 1.37256C1075.02 1.52505 1075.02 1.67752 1075.02 1.83001C1075.78 4.87975 1076.7 8.082 1077.31 11.1317C1083.09 33.5474 1088.12 56.1153 1092.69 78.8359H1097.26C1107.31 78.8359 1117.51 79.4461 1127.72 79.751C1120.86 56.573 1113.4 33.6997 1105.48 10.9791ZM1206.45 399.669C1203.41 376.644 1198.68 353.618 1193.35 330.745C1192.9 329.068 1192.59 327.39 1192.14 325.713C1190 316.564 1187.72 307.567 1185.59 298.57C1162.13 298.875 1138.68 300.4 1115.23 302.382C1088.73 304.67 1062.38 307.72 1035.88 310.617C1037.4 315.344 1038.93 320.071 1040.45 324.798C1040.91 326.323 1041.36 328 1041.97 329.525C1049.28 352.703 1056.9 376.644 1065.43 399.974C1065.73 401.194 1066.19 402.262 1066.64 403.482C1089.95 403.787 1113.25 403.939 1136.55 403.939H1137.01C1160.31 403.939 1183.76 403.939 1207.21 404.244C1207.06 402.719 1206.76 401.194 1206.45 399.669ZM439.191 11.1317C436.754 8.53946 434.317 5.94717 432.033 3.50738C431.881 3.35489 431.728 3.35482 431.728 3.20234C431.728 3.04985 431.271 2.74474 431.119 2.59226H400.051C400.051 2.59226 400.356 3.04985 400.66 3.20234C400.66 3.20234 400.812 3.2024 400.965 3.50738C403.401 6.09966 405.838 8.69178 408.275 11.4365C429.444 34.1572 450.156 57.3352 470.411 80.9707C480.92 80.8182 491.428 80.8183 501.936 80.8183C481.529 57.0303 460.512 33.6999 439.191 11.1317ZM755.355 400.127C735.556 376.034 715.91 351.788 696.417 327.39C694.894 325.56 693.371 323.731 692 321.901C688.954 318.241 685.908 314.429 682.862 310.617C678.141 310.769 673.572 311.074 668.851 311.379C660.475 311.837 652.251 312.599 644.027 313.514C645.855 316.106 647.682 318.851 649.51 321.596C651.185 323.883 652.708 326.17 654.231 328.305C670.679 352.246 687.583 376.034 704.945 399.059C705.402 399.669 706.011 400.432 706.468 401.042H755.964C755.964 401.042 755.507 400.432 755.355 400.127ZM439.191 11.1317C436.449 11.2842 433.86 11.2841 431.119 11.2841C423.504 11.2841 415.89 11.2841 408.275 11.4365C429.444 34.1572 450.156 57.3352 470.411 80.9707C480.92 80.8182 491.428 80.8183 501.936 80.8183C481.529 57.0303 460.512 33.6999 439.191 11.1317ZM439.191 11.1317C436.449 11.2842 433.86 11.2841 431.119 11.2841C423.504 11.2841 415.89 11.2841 408.275 11.4365C429.444 34.1572 450.156 57.3352 470.411 80.9707C480.92 80.8182 491.428 80.8183 501.936 80.8183C481.529 57.0303 460.512 33.6999 439.191 11.1317ZM439.191 11.1317C436.449 11.2842 433.86 11.2841 431.119 11.2841C423.504 11.2841 415.89 11.2841 408.275 11.4365C429.444 34.1572 450.156 57.3352 470.411 80.9707C480.92 80.8182 491.428 80.8183 501.936 80.8183C481.529 57.0303 460.512 33.6999 439.191 11.1317ZM439.191 11.1317C436.449 11.2842 433.86 11.2841 431.119 11.2841C423.504 11.2841 415.89 11.2841 408.275 11.4365C429.444 34.1572 450.156 57.3352 470.411 80.9707C480.92 80.8182 491.428 80.8183 501.936 80.8183C481.529 57.0303 460.512 33.6999 439.191 11.1317ZM439.191 11.1317C436.449 11.2842 433.86 11.2841 431.119 11.2841C423.504 11.2841 415.89 11.2841 408.275 11.4365C429.444 34.1572 450.156 57.3352 470.411 80.9707C480.92 80.8182 491.428 80.8183 501.936 80.8183C481.529 57.0303 460.512 33.6999 439.191 11.1317ZM439.191 11.1317C436.449 11.2842 433.86 11.2841 431.119 11.2841C423.504 11.2841 415.89 11.2841 408.275 11.4365C429.444 34.1572 450.156 57.3352 470.411 80.9707C480.92 80.8182 491.428 80.8183 501.936 80.8183C481.529 57.0303 460.512 33.6999 439.191 11.1317ZM348.88 3.50738C348.88 3.50738 348.88 3.35482 348.88 3.20234C348.88 3.04985 348.728 2.89738 348.728 2.74489C339.133 2.74489 329.386 2.74481 319.792 2.8973C305.324 2.8973 290.856 2.89745 276.388 3.04993C261.92 2.89745 247.452 3.04985 232.984 3.20234C232.984 3.20234 233.136 3.50729 233.136 3.65978V3.96482C233.745 6.86208 234.507 9.60666 235.268 12.3514C235.268 12.8089 235.42 13.4189 235.573 13.8764C235.116 13.2665 234.659 12.6565 234.202 12.199C232.222 9.30177 230.09 6.70959 227.958 3.96482C227.958 3.81233 227.806 3.81227 227.653 3.65978C227.653 3.50729 227.501 3.50723 227.501 3.35474H202.982C194.91 3.50723 186.838 3.50738 178.767 3.50738C178.919 3.65986 178.919 3.81233 179.071 3.96482C179.071 4.11731 179.224 4.11714 179.224 4.26963C179.528 4.72709 179.833 5.33713 179.985 5.79459C194.149 30.1926 206.028 55.8104 216.841 82.0383C270.905 81.7333 324.97 81.5807 378.882 81.2758C369.592 58.2502 360.607 35.0721 352.078 11.7416C351.012 8.99682 349.946 6.25215 349.032 3.50738H348.88ZM439.191 11.1317C436.449 11.2842 433.86 11.2841 431.119 11.2841C423.504 11.2841 415.89 11.2841 408.275 11.4365C429.444 34.1572 450.156 57.3352 470.411 80.9707C480.92 80.8182 491.428 80.8183 501.936 80.8183C481.529 57.0303 460.512 33.6999 439.191 11.1317ZM439.191 11.1317C436.449 11.2842 433.86 11.2841 431.119 11.2841C423.504 11.2841 415.89 11.2841 408.275 11.4365C429.444 34.1572 450.156 57.3352 470.411 80.9707C480.92 80.8182 491.428 80.8183 501.936 80.8183C481.529 57.0303 460.512 33.6999 439.191 11.1317ZM439.191 11.1317C436.449 11.2842 433.86 11.2841 431.119 11.2841C423.504 11.2841 415.89 11.2841 408.275 11.4365C429.444 34.1572 450.156 57.3352 470.411 80.9707C480.92 80.8182 491.428 80.8183 501.936 80.8183C481.529 57.0303 460.512 33.6999 439.191 11.1317ZM439.191 11.1317C436.449 11.2842 433.86 11.2841 431.119 11.2841C423.504 11.2841 415.89 11.2841 408.275 11.4365C429.444 34.1572 450.156 57.3352 470.411 80.9707C480.92 80.8182 491.428 80.8183 501.936 80.8183C481.529 57.0303 460.512 33.6999 439.191 11.1317ZM535.441 394.79C522.648 370.697 508.942 346.909 495.083 323.273C494.321 322.206 493.712 320.986 493.103 319.766C492.646 319.156 492.189 318.546 491.885 317.784C433.708 317.021 375.532 316.106 317.355 315.039C317.812 315.954 318.421 316.869 318.878 317.631C319.792 319.156 320.705 320.681 321.772 322.206C336.392 346.146 352.078 369.019 368.831 391.588C368.831 391.588 369.287 392.35 369.592 392.807C370.201 394.18 370.81 395.552 371.42 396.924C402.335 397.382 433.099 396.924 464.015 397.382C485.336 397.687 514.881 405.616 536.659 397.382H536.812C536.355 396.467 535.898 395.705 535.441 394.79ZM439.191 11.1317C436.449 11.2842 433.86 11.2841 431.119 11.2841C423.504 11.2841 415.89 11.2841 408.275 11.4365C429.444 34.1572 450.156 57.3352 470.411 80.9707C480.92 80.8182 491.428 80.8183 501.936 80.8183C481.529 57.0303 460.512 33.6999 439.191 11.1317Z" fill="url(#paint2_linear_563_4)"/>
<path d="M3488.48 235.264C3488.48 232.218 3489.08 229.034 3489.08 225.988C3490.88 229.034 3490.28 232.218 3488.48 235.264Z" fill="#EB924D"/>
<path d="M3490.12 182.982C3490.24 189.802 3490.12 196.919 3490 204.035C3489.75 205.963 3489.63 208.039 3489.63 209.966C3489.02 204.777 3488.29 199.439 3488.53 194.102C3488.53 190.395 3488.9 186.689 3490 183.279C3490 183.131 3490.12 183.131 3490.12 182.982Z" fill="url(#paint3_linear_563_4)"/>
<path d="M3556.55 99.5519C3556.55 107.476 3556.09 114.485 3552.59 121.342C3560.66 83.0953 3539.19 39.2109 3505.07 27.3255C3493.35 23.2113 3480.7 22.2969 3468.37 21.6874C3393.59 17.5732 3318.96 13.6115 3244.18 11.0211H3243.11C3209.75 9.80206 3176.25 8.88791 3142.89 8.2784C3109.54 7.66889 3076.03 7.05921 3042.52 6.90683C3009.17 6.60208 2975.66 6.60208 2942.31 6.90683C2908.8 6.90683 2875.45 7.36401 2841.94 7.66876C2808.43 8.12589 2775.08 8.73541 2741.57 9.34492C2708.22 9.95442 2674.71 10.7164 2641.2 11.6307C2607.85 12.3926 2574.34 13.3068 2540.83 14.2211C2524.23 14.6782 2507.48 14.9829 2490.72 15.5924C2480.22 15.8972 2470.47 15.8971 2460.57 13.1543C2459.04 12.6972 2457.52 12.2401 2456 11.783C2451.58 10.1069 2446.86 8.73553 2442.14 8.2784C2435.13 7.36414 2428.28 7.66876 2421.27 7.66876C2400.41 7.36401 2379.54 7.21173 2358.68 7.05936C2275.97 6.29747 2193.27 5.23086 2110.72 4.46898C2103.87 4.46898 2096.86 4.01166 2090.01 5.23068C2088.64 5.53543 2087.42 5.84021 2086.05 6.44972C2082.24 8.27824 2078.28 9.95456 2074.48 11.6307C2064.88 15.7449 2055.44 19.8589 2045.84 24.1255V14.5257C2045.84 14.5257 2045.84 13.1544 2045.39 12.6972C2045.08 12.2401 2044.47 12.2402 2043.86 12.0878C2038.07 11.4783 2032.44 10.8688 2026.65 10.4117C2024.06 10.1069 2021.32 10.1069 2018.73 9.49744C2017.21 9.04031 2015.69 8.27842 2014.16 7.82129C2008.83 6.75465 2002.74 7.66876 1997.41 7.66876H1979.89C1954.92 7.66876 1929.79 7.97358 1904.66 7.97358C1879.53 7.97358 1854.55 8.2784 1829.42 8.2784C1804.29 8.2784 1779.31 8.27823 1754.18 8.58299C1729.2 8.58299 1704.07 8.58305 1678.94 8.8878H1654.72C1650.76 8.8878 1646.65 9.19258 1642.69 8.43069C1639.34 7.97356 1636.14 6.14515 1632.94 5.68802C1627.46 4.77376 1621.83 5.38327 1616.34 5.68802C1601.57 5.99278 1586.8 6.14497 1572.02 6.44972C1546.89 6.90685 1521.91 7.36416 1496.78 7.82129C1471.65 8.27842 1446.68 8.58305 1421.55 8.8878C1396.42 9.34493 1371.44 9.49727 1346.31 9.80203C1321.18 10.1068 1296.2 10.2592 1271.07 10.564C1245.94 10.564 1220.96 11.0211 1195.83 11.0211C1170.7 11.0211 1145.72 11.3258 1120.59 11.4782C1095.46 11.4782 1070.48 11.4782 1045.35 11.783H932.343C927.47 11.783 922.901 11.7829 918.179 10.2591C916.351 9.80201 914.828 9.19256 912.848 8.8878C901.426 7.66879 889.546 8.58307 877.971 8.43069C852.84 8.12594 827.862 7.97358 802.732 7.97358H727.494C702.363 7.97358 677.386 8.27832 652.255 8.43069C627.277 8.88782 602.604 9.80199 577.626 10.7163C565.137 11.1734 552.496 11.6307 540.007 12.0878C533.762 12.0878 527.518 12.5448 521.273 12.6972C518.075 12.6972 515.029 12.6973 511.83 13.002C510.917 13.002 502.997 12.6973 502.844 13.4592C502.083 16.6591 501.474 19.859 501.474 23.2113C495.229 12.3925 481.369 11.1735 469.794 11.3259C457.305 11.3259 444.664 11.6306 432.175 11.783C407.045 11.783 382.067 12.2401 356.937 12.2401C331.806 12.5449 306.676 12.6971 281.698 12.8495C269.057 12.8495 256.568 13.1545 243.927 13.3069C241.337 13.3069 238.444 13.7638 235.854 12.8495C228.848 10.7162 221.385 10.564 214.227 9.64973C183.766 6.14507 152.848 2.64048 122.387 7.82129C84.159 14.3735 45.626 37.3823 30.5478 77.0002C19.7342 104.885 22.1711 136.732 24.7602 166.902C25.2172 172.083 25.6741 177.112 26.7402 182.293C27.5017 186.407 28.8725 190.673 31.0047 194.787C28.2633 193.873 25.5218 192.654 23.2372 190.673C21.7142 189.302 21.7142 188.692 21.2572 186.559C20.4957 183.359 19.7342 180.464 18.9727 177.264C16.0789 165.074 18.9727 150.751 19.5819 138.408C20.3434 124.999 21.4095 110.675 22.4757 97.7235C27.5017 45.1535 68.0148 5.23076 115.838 5.07839C137.161 5.07839 158.636 4.77357 179.959 4.77357C196.103 4.77357 212.247 4.77373 228.544 4.46898H234.179C272.712 4.16423 311.398 4.01187 349.931 4.01187H432.327C451.822 4.01187 471.317 4.0118 490.812 3.70705C515.79 3.70705 540.921 3.70699 565.899 3.40223C590.877 3.09748 616.007 3.40217 640.832 3.09741C665.963 3.09741 690.941 3.09758 716.071 2.79283C741.201 2.48807 766.179 2.79276 791.157 2.48801C816.287 2.48801 841.265 2.48794 866.396 2.18319H867.919C872.792 2.18319 877.666 2.64032 882.388 2.18319H884.52C886.347 1.87844 887.87 1.5737 889.698 1.72608C891.678 2.03083 893.658 2.18334 895.333 2.33572H1575.83C1582.07 2.33572 1588.32 2.03096 1594.72 2.33572C1596.54 2.33572 1598.37 3.24979 1600.2 3.09741C1601.57 3.09741 1603.09 2.64047 1604.62 2.33572H1773.37C1882.72 2.33572 1992.38 2.33555 2102.04 2.6403H2411.83C2418.53 2.94506 2424.62 5.38307 2431.48 4.77357C2434.98 4.46881 2438.48 3.70709 2441.68 2.79283H2460.87C2492.25 2.79283 2523.62 2.79266 2555.15 3.09741H2633.74C2796.55 3.55454 2959.67 4.01177 3123.25 4.62127C3159.65 4.62127 3195.89 4.92601 3232.3 5.07839C3246.76 5.07839 3260.93 5.07845 3275.4 5.3832H3322.92C3369.98 5.68796 3417.04 5.84023 3464.26 5.99261C3506.44 5.99261 3547.41 39.9727 3556.09 86.7523C3556.86 91.476 3556.86 96.3521 3556.7 101.076V99.5519H3556.55Z" fill="#EB924D"/>
<path d="M2822.68 396.138C2829.07 393.06 2835.01 389.06 2840.03 383.674C2839.57 385.059 2839.12 386.444 2838.51 387.829C2836.68 392.291 2834.09 397.369 2829.83 397.984C2826.48 398.6 2823.29 396.6 2819.79 396.753C2817.35 396.753 2816.44 398.292 2814.31 399.523C2812.94 400.139 2811.87 400.292 2810.35 400.446C2801.07 401.831 2790.72 400.754 2781.28 400.754C2761.65 401.062 2742.01 401.216 2722.38 401.216C2689.2 401.523 2656.02 401.677 2622.84 401.985C2594.69 402.293 2566.53 402.447 2538.37 402.447H2523.15C2506.26 402.447 2489.52 402.754 2472.62 402.908C2456.34 402.908 2439.9 402.908 2423.62 403.216C2390.44 403.216 2357.26 403.678 2324.23 403.678C2291.2 403.678 2258.02 403.986 2225 404.139H2180.86C2162.44 404.139 2144.03 404.139 2125.76 404.447C2095.48 404.447 2065.04 404.447 2034.9 404.755H2005.22C2007.66 403.216 2010.4 402.293 2013.29 402.139C2038.25 400.754 2062.91 399.523 2087.87 398.292C2098.98 397.677 2110.09 396.753 2121.35 396.599C2123.63 396.599 2125.76 396.599 2128.2 397.061C2131.4 397.523 2134.59 398.446 2137.79 399.369C2147.53 401.985 2157.42 399.831 2167.16 398.908C2172.34 398.446 2177.82 396.753 2182.84 398.138C2185.27 398.754 2187.86 398.908 2190.45 399.215C2195.62 399.677 2200.8 399.985 2205.97 399.985C2216.63 399.985 2227.13 398.754 2237.48 396.599C2239.15 396.292 2240.83 395.984 2242.5 396.292C2244.33 396.753 2245.85 397.831 2247.52 398.908C2257.42 405.217 2269.74 402.139 2281.31 400.293C2289.38 398.908 2297.75 397.984 2305.97 397.83H2318.6C2337.17 398.6 2355.74 398.6 2374.46 398.908C2399.42 399.369 2424.53 399.369 2449.64 399.523C2474.75 399.523 2499.87 399.523 2524.83 399.061C2549.94 398.754 2574.9 398.292 2600.01 397.677C2613.41 397.369 2626.8 397.061 2640.19 396.599C2653.74 396.138 2667.29 395.676 2680.83 396.599C2693.16 397.215 2705.33 398.908 2717.82 398.908C2723.14 398.908 2728.77 398.908 2733.8 397.215C2736.99 396.138 2739.73 393.984 2742.78 393.06C2744.6 392.445 2746.28 391.983 2748.25 391.829C2758.76 390.444 2769.41 391.829 2779.91 391.829C2794.68 392.291 2809.29 393.06 2824.05 394.138C2824.96 394.138 2821.61 395.522 2822.53 395.676V396.138H2822.68Z" fill="#EB924D"/>
<path d="M3546.67 330.551C3531.93 366.75 3499.27 391.741 3461.75 392.195C3448.38 392.498 3435.01 392.649 3421.79 392.649C3388.52 393.104 3355.1 393.558 3321.68 394.013C3288.42 394.467 3254.99 394.77 3221.57 395.224H3220.97L3121.77 396.436C3093.82 396.89 3065.71 397.042 3037.76 397.496H3021.81C2988.54 397.799 2955.27 398.102 2922.16 398.405C2912.13 398.405 2901.95 399.162 2892.08 398.708C2881.9 398.254 2871.57 397.345 2861.54 397.345C2859.72 397.345 2857.75 397.345 2856.23 396.133C2853.34 394.315 2852.43 390.075 2851.97 386.439C2851.21 380.533 2850.61 374.777 2850.15 368.87C2850.15 368.567 2850.45 368.416 2850.45 368.264C2850.15 377.958 2856.99 386.742 2865.19 390.529C2873.24 394.467 2882.51 394.467 2891.32 394.467H3069.05C3072.85 394.467 3076.8 394.921 3080.6 394.467C3082.88 394.013 3085.01 393.558 3087.28 393.407C3090.32 393.407 3093.51 392.952 3096.55 392.952C3109.01 392.498 3121.46 391.892 3133.92 391.438C3154.13 390.68 3174.18 390.075 3194.23 389.469C3213.83 389.015 3233.27 388.56 3252.56 388.106C3275.35 387.651 3298.29 387.348 3321.08 386.742C3343.56 386.288 3365.89 385.985 3388.37 386.439C3412.38 386.894 3436.38 388.56 3460.38 386.742C3472.53 385.834 3484.69 384.016 3496.38 380.684C3498.66 380.078 3501.09 378.867 3503.37 378.564H3504.74C3505.8 378.261 3506.86 377.655 3507.62 376.898C3514.61 371.142 3521.6 365.235 3528.28 358.874C3531.17 356.299 3533.9 353.573 3535.88 349.938C3537.09 347.666 3537.7 345.091 3538.77 342.667C3540.59 338.427 3543.32 334.791 3546.36 331.308L3546.67 330.551Z" fill="#EB924D"/>
<defs>
<linearGradient id="paint0_linear_563_4" x1="2076.36" y1="1167.78" x2="1974.78" y2="841.771" gradientUnits="userSpaceOnUse">
<stop stop-color="#CF5C2B"/>
<stop offset="1" stop-color="#59173E"/>
</linearGradient>
<linearGradient id="paint1_linear_563_4" x1="1783" y1="599.728" x2="1796.45" y2="-458.663" gradientUnits="userSpaceOnUse">
<stop stop-color="#CF5C2B"/>
<stop offset="1" stop-color="#59173E"/>
</linearGradient>
<linearGradient id="paint2_linear_563_4" x1="1750.14" y1="-162.856" x2="1750.14" y2="1270.98" gradientUnits="userSpaceOnUse">
<stop stop-color="#CF5C2B"/>
<stop offset="1" stop-color="#59173E"/>
</linearGradient>
<linearGradient id="paint3_linear_563_4" x1="3489.38" y1="106.776" x2="3489.38" y2="202.701" gradientUnits="userSpaceOnUse">
<stop stop-color="#CF5C2B"/>
<stop offset="1" stop-color="#59173E"/>
</linearGradient>
</defs>
</svg>
