<svg width="1955" height="4031" viewBox="0 0 1955 4031" fill="none" xmlns="http://www.w3.org/2000/svg">
<path d="M1548.37 3563.81C1538.74 3581.25 1511.93 3581.64 1495.92 3569.93C1479.91 3558.08 1471.84 3538.56 1464.68 3520.08C1413.91 3390.05 1363.28 3260.02 1312.52 3129.99C1304.58 3109.42 1296.38 3088.21 1297.43 3066.21C1298.47 3044.21 1311.48 3021.17 1332.7 3015.57C1350.4 3010.89 1369.4 3019.35 1382.16 3032.5C1394.91 3045.64 1402.46 3062.69 1409.62 3079.62C1473.27 3230.73 1516.74 3389.4 1548.37 3563.94V3563.81Z" fill="#3C5B31" stroke="#231F20" stroke-width="5" stroke-miterlimit="10"/>
<path d="M1625.17 3635.37C1564.13 3630.56 1502.66 3637.45 1458.41 3679.63C1462.05 3736.64 1458.41 3783.67 1465.6 3837.61C1469.38 3857.27 1481.99 3910.05 1499.17 3920.33C1515.44 3929.96 1523.84 3933.96 1542.33 3929.92C1620.25 3907.15 1743.73 3883.48 1821.65 3866.39C1863.17 3857.27 1911.25 3839.64 1937.94 3806.44C1953.04 3787.57 1954.76 3764.69 1953.62 3740.51C1952.6 3718.83 1945.42 3697.22 1932.75 3679.63C1905.93 3642.4 1858.55 3623.01 1812.74 3623.92C1766.92 3624.83 1722.67 3644.48 1686.35 3672.34C1681.41 3676.17 1677.33 3679.18 1673 3682.97C1668.21 3687.15 1663.12 3691.9 1656.22 3691.36C1649.6 3690.82 1641.97 3686.64 1635.84 3681.22C1631.59 3677.46 1628.06 3673.11 1626.09 3668.95C1621.27 3658.8 1620.36 3647.35 1625.31 3635.24L1625.17 3635.37Z" fill="white"/>
<path d="M1644.03 3629.53C1640.26 3636.3 1631.41 3638.77 1623.73 3637.99C1616.05 3637.21 1608.76 3634.08 1601.08 3632.39C1576.22 3627.06 1550.97 3638.25 1528.84 3650.74C1506.71 3663.24 1484.32 3677.69 1458.94 3679.51C1449.44 3680.16 1439.16 3678.73 1432 3672.61C1423.67 3665.45 1421.2 3653.09 1424.19 3642.55C1427.18 3632 1434.73 3623.28 1443.71 3617.03C1452.57 3610.65 1462.85 3606.49 1472.87 3602.32C1491.75 3594.52 1510.75 3586.7 1529.62 3578.9C1547.45 3571.61 1565.55 3564.19 1584.68 3562.63C1603.81 3561.06 1624.51 3566.4 1637.13 3580.98C1649.11 3594.78 1651.58 3615.99 1644.03 3629.4V3629.53Z" fill="white" stroke="#231F20" stroke-width="2.15" stroke-miterlimit="10"/>
<path d="M1462.99 3686.67C1459.08 3755.4 1455.57 3826.86 1482.51 3890.24C1488.24 3903.65 1495.79 3917.06 1508.42 3924.48C1519.87 3931.25 1534.06 3931.9 1547.2 3929.55C1560.35 3927.21 1572.58 3921.87 1585.08 3917.19C1625.05 3907.15 1672.08 3896.6 1713.76 3889.16C1770.21 3879.09 1821.15 3868.25 1874.68 3848.33C1898.24 3839.61 1921.93 3827.77 1936.77 3807.46C1949.4 3790.02 1954.22 3767.63 1953.17 3746.03C1950.44 3688.24 1904.76 3635.26 1847.88 3624.2C1821.84 3619.12 1794.9 3622.12 1769.26 3628.88C1735.42 3637.87 1703.14 3653.61 1677.36 3677.3C1651.72 3700.99 1633.11 3733.01 1628.55 3767.76" stroke="#231F20" stroke-width="2.15" stroke-miterlimit="10"/>
<path d="M1622.7 3639.29C1620.09 3649.97 1621.79 3661.55 1627.13 3671.18C1632.46 3680.81 1641.57 3688.23 1652.12 3691.49" stroke="#231F20" stroke-width="2.15" stroke-miterlimit="10"/>
<path d="M1490.05 3893.78C1551.49 3890.66 1612.67 3879.73 1671.37 3861.38" stroke="#231F20" stroke-miterlimit="10"/>
<path d="M726.273 3530.09C785.756 3466.83 845.37 3403.18 893.269 3330.81C941.168 3258.44 977.095 3176.18 983.733 3089.63C984.905 3074.14 985.297 3058 992.066 3043.94C998.834 3029.88 1014.19 3018.43 1029.29 3022.07C1039.7 3024.54 1047.51 3033.26 1053.63 3041.99C1093.85 3099.26 1095.8 3177.22 1071.85 3242.82C1047.9 3308.42 1000.91 3363.35 949.109 3410.34C897.305 3457.33 840.033 3497.81 788.099 3544.67C778.467 3553.39 768.445 3562.5 756.08 3566.4C743.585 3570.18 727.837 3566.79 721.849 3555.34C715.862 3543.75 726.796 3526.31 726.146 3530.09H726.273Z" fill="#3C5B31" stroke="#231F20" stroke-width="5" stroke-miterlimit="10"/>
<path d="M470.907 3830.49C459.844 3755.64 455.415 3679.76 458.018 3604.14C458.669 3585.65 461.275 3568.04 470.907 3552.29C480.799 3536.15 496.804 3524.35 514.506 3517.71C549.649 3504.44 599.575 3498.83 636.02 3507.94C644.48 3510.02 658.798 3523.52 661.195 3523.52C661.195 3517.71 669.183 3503 680.376 3496.89C692.351 3490.38 710.436 3495.77 719.937 3505.53C729.439 3515.29 731.223 3519.79 735.778 3532.68C743.914 3563.08 750.223 3585.16 752.305 3612.24C754.388 3639.31 752.574 3667.01 734.482 3687.31C721.856 3701.63 704.025 3710.87 692.961 3726.36C686.974 3734.82 681.178 3742.71 675.581 3751.3C669.984 3759.89 656.023 3769.96 645.611 3770.48C701.955 3805.24 719.937 3856.79 717.036 3875.52C719.937 3884.37 727.713 3960 707.929 3996.44C698.817 4013.23 683.457 4029.24 664.324 4029.37C659.996 4029.37 630.717 4015.04 622.543 4008.02C602.368 3990.71 582.061 3973.4 561.886 3956.09C539.629 3936.96 517.244 3917.69 499.672 3894.26C495.846 3889.16 472.339 3842.2 470.647 3830.62L470.907 3830.49Z" fill="white"/>
<path d="M752.05 3629.38C754.002 3651.9 746.586 3675.06 731.878 3692.11C728.494 3696.15 724.586 3699.92 719.771 3702.01C714.955 3704.09 709.098 3704.35 704.543 3701.61C697.514 3697.19 696.474 3687.56 696.084 3679.23C695.303 3661.4 694.653 3643.43 693.872 3625.6C693.221 3610.63 692.567 3595.27 687.23 3581.22C682.284 3568.07 673.437 3556.75 668.1 3543.6C662.894 3530.59 661.983 3514.05 671.615 3503.9C679.294 3495.83 692.049 3493.88 702.592 3497.52C713.135 3501.17 721.466 3509.63 726.933 3519.39C732.4 3529.02 735.392 3539.96 737.865 3550.76C743.982 3577.18 749.71 3603.87 751.923 3629.12L752.05 3629.38Z" stroke="#231F20" stroke-width="2.15" stroke-miterlimit="10"/>
<path d="M702.975 3708.13C693.994 3731.69 676.938 3752.13 655.201 3764.88C633.464 3777.77 607.307 3782.85 582.316 3779.33" stroke="#231F20" stroke-width="2.15" stroke-miterlimit="10"/>
<path d="M649.481 3777.14C685.275 3799.14 712.351 3835.06 723.675 3875.54C734.999 3916.02 730.444 3960.8 711.18 3998.15C703.11 4013.77 689.704 4029.65 672.132 4029.13C663.672 4028.87 655.861 4024.84 648.572 4020.41C628.918 4008.57 610.825 3994.51 592.733 3980.32C560.714 3955.2 528.17 3929.69 504.741 3896.5C479.881 3861.23 466.475 3818.92 459.967 3776.36C453.459 3733.8 453.723 3690.33 453.853 3647.24C453.983 3608.19 456.067 3564.59 484.442 3537.91C502.274 3521.12 527.13 3514.48 551.079 3509.53C569.562 3505.63 588.439 3502.24 607.313 3503.67C626.186 3504.98 645.189 3511.49 658.856 3524.5L659.764 3525.28" stroke="#231F20" stroke-width="2.15" stroke-miterlimit="10"/>
<path d="M533.632 3518.74C505.127 3545.68 491.203 3585.38 487.949 3624.43C484.695 3663.47 490.939 3702.78 497.317 3741.44" stroke="#231F20" stroke-miterlimit="10"/>
<path d="M697.913 4010.66C657.173 3995.82 621.636 3969.27 589.876 3939.85C568.66 3920.07 548.617 3898.72 533.128 3874.12C517.639 3849.52 506.834 3821.67 505.012 3792.64" stroke="#231F20" stroke-miterlimit="10"/>
<path d="M1244.67 3229.42C1116.6 3170.07 1001.66 3095.75 901.566 3000.61C819.174 2922.38 750.582 2832.44 692.4 2734.16C560.288 2511.2 456.287 2276.26 384.178 2027.4C378.842 2008.78 371.554 1998.24 349.948 1994.47C241.785 1975.59 151.326 1924.7 83.2526 1837.36C32.6202 1772.28 -1.0956 1700.56 0.726645 1615.83C1.37745 1583.68 10.8827 1554 27.1527 1526.28C31.8385 1518.21 37.3053 1512.09 49.9308 1512.48C57.3499 1573.01 79.6048 1627.02 131.929 1661.9C179.308 1693.53 232.285 1710.84 293.981 1713.32C282.007 1672.32 271.98 1634.96 260.266 1598.25C219.786 1471.09 200.132 1341.06 205.208 1207.65C207.551 1145.82 214.323 1084.77 241.136 1027.5C269.12 967.63 312.46 925.068 374.156 900.728C435.982 876.388 498.85 857.384 563.931 841.504C672.354 815.082 767.767 757.681 848.987 679.325C880.746 648.737 891.416 607.865 897.924 567.125C912.111 477.445 903.91 389.068 876.576 302.251C849.633 216.866 797.833 192.915 711.537 200.204C675.482 203.328 640.206 214.653 604.282 220.901C516.033 236.39 492.085 188.098 501.456 114.557C505.101 85.792 519.936 62.8865 543.625 45.7053C563.149 31.5179 583.98 20.062 607.669 14.5952C748.502 -17.6845 880.091 5.22432 1001.27 83.5808C1033.29 104.276 1058.15 133.562 1075.99 167.534C1107.35 227.277 1127.79 289.883 1127.92 358.608C1128.05 423.037 1122.71 486.946 1116.07 550.855C1109.43 613.853 1111.65 676.59 1118.41 739.327C1125.44 803.106 1156.81 849.703 1216.04 876.386C1238.94 886.669 1262.11 896.562 1284.89 906.975C1338.52 931.575 1372.62 970.493 1385.64 1030.11C1402.95 1108.85 1402.03 1187.6 1395.01 1266.74C1386.55 1363.84 1356.61 1456.38 1334.87 1550.75C1332.92 1559.34 1331.88 1568.32 1328.88 1576.52C1322.51 1593.7 1331.1 1602.29 1345.29 1608.67C1384.2 1626.11 1422.34 1646.02 1462.3 1660.6C1512.8 1679.08 1563.3 1679.09 1609.77 1645.77C1629.81 1631.45 1644 1612.7 1654.68 1590.84C1673.55 1552.31 1685.53 1511.44 1694.25 1469.79C1708.69 1470.57 1712.08 1480.07 1715.2 1489.57C1729.65 1533.83 1730.17 1579.12 1718.98 1623.64C1702.45 1688.85 1674.59 1749.37 1634.37 1803.65C1580.1 1876.93 1505.9 1918.84 1417.26 1935.11C1374.18 1943.05 1331.1 1955.03 1286.45 1948.91C1272.27 1946.96 1269.53 1953.72 1269.27 1966.09C1268.1 2045.49 1267.84 2125.15 1286.97 2202.72C1328.76 2371.28 1379.52 2537.1 1447.85 2697.07C1494.19 2805.62 1559.4 2902.33 1634.24 2993.05C1666 3031.58 1690.86 3072.97 1696.06 3124C1701.14 3173.2 1684.74 3212.5 1644.92 3242.57C1589.99 3283.96 1526.86 3289.82 1461.78 3284.87C1387.19 3279.28 1316.26 3258.06 1244.28 3229.69L1244.67 3229.42Z" fill="#2B2A28"/>
<path d="M716.606 1967.41C767.629 1950.1 818.266 1939.42 864.473 1914.69C912.372 1889.18 960.791 1865.1 987.865 1811.61C1051.12 1864.71 1116.46 1906.23 1193.52 1932.26C1207.7 1952.31 1202.76 1970.27 1187.79 1981.07C1161.5 2000.08 1157.33 2025.2 1158.89 2054.09C1159.41 2064.11 1159.41 2074.27 1157.2 2084.16C1153.56 2100.56 1146.14 2106.42 1131.95 2092.62C1121.93 2082.86 1110.99 2071.28 1096.8 2085.33C1084.44 2097.7 1085.22 2112.93 1094.85 2126.72C1106.57 2143.25 1119.06 2137.4 1133.64 2128.29C1155.9 2114.49 1163.45 2119.95 1166.05 2151.71C1173.47 2244.91 1190.13 2336.28 1223.45 2423.75C1281.76 2576.82 1350.75 2724.42 1447.46 2857.7C1453.32 2865.9 1458.26 2875.02 1465.16 2882.04C1489.24 2906.64 1483.9 2928.9 1451.88 2954.41C1480.78 2952.59 1501.35 2925.52 1519.05 2955.32C1531.02 2975.63 1523.21 2991.12 1508.89 3008.69C1470.5 3025.87 1437.44 3009.6 1405.03 2997.75C1296.99 2958.06 1214.08 2884.13 1138.33 2800.3C1061.41 2715.31 989.944 2626.02 932.413 2526.84C883.212 2442.1 842.733 2352.42 809.282 2260.4C780.126 2180.09 750.578 2099.91 719.86 2020.25C713.613 2003.85 705.416 1987.58 716.74 1967.54L716.606 1967.41Z" fill="#679441"/>
<path d="M1271.87 1548.65C1226.18 1534.33 1182.58 1519.1 1135.08 1518.58C1077.15 1518.06 1033.41 1541.1 1005.69 1592.64C1003.35 1596.94 1000.49 1600.98 996.322 1607.87C971.071 1588.22 945.299 1571.69 917.444 1558.15C855.878 1528.22 794.444 1527.04 733.008 1557.76C689.274 1579.63 646.192 1602.54 600.115 1625.7C592.435 1622.06 589.44 1616.46 588.268 1610.22C564.97 1479.15 536.725 1348.6 556.249 1213.88C565.1 1153.09 589.309 1100.25 632.782 1057.69C662.979 1028.14 687.063 991.175 730.796 973.343C751.882 972.302 769.059 975.295 785.199 982.845C808.889 993.908 814.225 1007.57 804.202 1031.26C800.818 1039.33 796.263 1046.88 791.968 1054.56C783.898 1069.14 787.544 1081.24 799.779 1091.14C810.582 1099.86 819.691 1095.17 830.234 1088.4C886.984 1051.57 946.597 1019.03 995.668 971.389C1012.72 954.858 1031.99 957.853 1051.9 962.799C1095.9 973.863 1137.02 992.867 1177.5 1012.39C1219.42 1032.57 1261.07 1046.23 1307.4 1029.44C1310.53 1028.27 1314.69 1030.48 1320.42 1032.95C1334.87 1047.53 1336.43 1063.93 1337.47 1080.2C1338.64 1099.99 1331.35 1112.22 1305.84 1105.06C1288.92 1089.18 1283.33 1069.92 1274.22 1052.74C1271.74 1048.44 1268.1 1055.21 1272 1052.09C1283.07 1066.93 1286.84 1085.54 1299.07 1103.24C1311.57 1134.87 1312.87 1165.07 1311.31 1195.26C1305.19 1312.93 1301.29 1430.99 1271.48 1548.91L1271.87 1548.65Z" fill="#679441"/>
<path d="M1618.36 3194.54C1614.19 3205.34 1605.86 3206.91 1597.01 3211.33C1545.73 3203.65 1497.18 3216.28 1448.37 3214.06C1425.46 3213.02 1402.81 3212.24 1385.76 3193.5C1381.34 3188.55 1376 3185.82 1369.1 3186.34C1327.45 3189.33 1294 3167.34 1260.55 3148.2C1116.98 3065.94 996.06 2957.91 889.589 2830.74C776.349 2695.51 686.798 2546.73 605.448 2390.93C548.567 2281.99 508.869 2166.79 462.792 2053.81C457.195 2039.89 451.21 2025.57 457.848 2007.61C500.671 2001.75 542.19 2002.79 586.184 1994.59C617.943 2026.09 634.347 2064.88 648.404 2103.28C692.268 2223.02 752.532 2334.57 810.844 2447.42C890.242 2601.14 994.109 2735.59 1118.93 2854.82C1229.83 2960.64 1361.94 3027.94 1507.85 3070.37C1531.15 3077.14 1555.62 3071.54 1581.78 3078.05C1618.75 3109.68 1624.21 3148.85 1618.23 3194.54H1618.36Z" fill="#3E5B2D"/>
<path d="M1125.3 847.249C1156.67 876.925 1189.21 901.007 1224.48 920.4C1251.56 935.369 1273.94 954.501 1293.08 980.663C1272.51 999.927 1251.04 996.675 1227.87 986.132C1178.67 963.744 1130.12 939.404 1078.05 923.785C1063.6 919.489 1049.29 914.934 1033.93 914.153C1010.11 912.851 989.804 918.707 971.451 934.846C936.568 965.434 902.725 997.586 862.505 1018.41C856.128 1017.89 853.528 1015.29 852.877 1011.38C845.067 958.147 806.408 938.361 760.462 931.723C731.696 927.558 707.748 919.23 686.923 898.534C675.599 887.341 660.242 880.05 646.705 871.069C645.534 859.225 655.942 860.787 661.799 858.444C749.137 824.602 821.897 769.282 887.108 703.551C925.375 665.024 938.389 613.612 943.595 562.329C952.967 471.738 949.325 381.408 920.951 293.289C904.55 242.526 880.601 197.358 830.359 173.409C778.295 148.678 723.365 149.46 668.047 161.565C666.875 161.826 665.707 162.478 664.405 162.738C649.697 165.471 634.6 176.923 620.934 169.894C607.137 162.865 614.941 144.774 611.947 131.758C607.001 110.672 593.725 93.8834 583.703 75.2705C598.672 58.8703 618.329 56.9158 636.161 53.6618C747.839 33.0965 853.918 47.4136 953.23 105.205C997.354 130.846 1028.85 166.641 1049.81 212.848C1074.15 266.604 1084.3 322.442 1083.13 381.535C1081.57 454.685 1073.5 527.185 1068.81 599.944C1064.39 668.539 1075.97 735.313 1095.1 800.784C1100.05 817.835 1111.5 831.89 1125.43 846.858L1125.3 847.249Z" fill="#679441"/>
<path d="M1585.3 3079.2C1516.31 3094.81 1456.18 3064.88 1395.65 3042.36C1344.37 3023.23 1296.08 2996.02 1248.83 2967.52C1205.62 2941.49 1166.18 2910.64 1129.08 2877.19C1059.05 2814.06 997.358 2742.6 937.614 2669.97C902.601 2627.54 873.319 2580.16 847.678 2531.35C814.357 2467.96 774.523 2408.22 745.106 2342.75C709.703 2264 666.625 2188.77 640.203 2105.73C628.488 2069.02 607.401 2035.18 590.09 1997.3C630.7 1984.55 671.572 1974.66 715.566 1964.89C714.134 2000.95 733.393 2031.15 745.628 2061.86C766.714 2114.32 787.279 2166.9 804.721 2220.66C827.239 2290.03 861.214 2354.59 889.198 2421.63C921.478 2498.94 968.855 2566.5 1014.8 2635.35C1043.96 2679.21 1079.49 2718.39 1114.37 2757.7C1143.53 2790.5 1170.21 2825.9 1203.92 2854.41C1240.11 2885.26 1272.13 2921.96 1315.08 2943.7C1372.87 2973.12 1429.1 3008.26 1500.82 3008.39C1511.36 3010.08 1517.48 3017.11 1524.51 3016.72C1567.46 3013.99 1577.75 3043.92 1585.3 3079.2Z" fill="#4E6F36"/>
<path d="M937.882 1624.17C936.189 1635.1 933.068 1643.3 930.465 1651.63C922.655 1677.14 923.956 1685.99 946.214 1698.23C959.75 1705.78 958.059 1712.15 957.018 1724.65C953.373 1765.91 928.776 1790.77 894.543 1806.26C872.286 1816.28 864.213 1838.15 845.86 1851.82C790.282 1892.95 730.411 1922.36 662.727 1934.34C591.92 1946.96 520.978 1943.58 449.52 1936.29C392.249 1930.43 336.676 1915.33 279.275 1909.74C249.599 1906.87 218.358 1897.76 188.811 1887.87C181.783 1885.52 174.106 1882.66 168.639 1877.85C125.296 1838.93 90.1492 1794.67 74.1394 1736.88C69.714 1721 71.4096 1709.81 84.2955 1700.83C97.702 1691.59 110.324 1691.46 125.943 1700.57C169.286 1725.82 215.621 1743.91 270.028 1746.25C273.542 1770.99 248.165 1781.27 244.13 1800.53C313.375 1859.36 395.374 1823.05 463.057 1832.55C463.317 1832.55 454.598 1834.63 441.321 1822.01C535.427 1792.98 631.354 1778.54 713.355 1721.53C718.692 1718.4 721.689 1716.58 727.026 1713.71C732.492 1711.24 735.748 1710.46 741.605 1710.72C747.072 1712.8 748.504 1715.14 748.113 1718.66C748.894 1715.54 748.628 1712.41 748.628 1707.08C764.507 1681.96 783.382 1668.16 812.278 1663.6C845.339 1658.27 873.713 1641.87 876.837 1599.56C887.901 1592.93 897.012 1593.19 909.117 1597.48C923.695 1602.17 928.253 1613.88 937.754 1624.04L937.882 1624.17Z" fill="#3F483D"/>
<path d="M399.158 952.518C463.327 928.308 523.456 897.98 592.702 906.311C606.629 908.003 620.038 908.783 634.355 918.415C633.314 939.501 618.213 950.175 605.718 962.02C569.924 995.991 539.727 1034.13 512.133 1075C489.746 1108.19 473.869 1142.81 469.443 1182.38C461.634 1252.28 449.529 1322.17 450.18 1392.33C450.961 1468.86 457.99 1545.4 473.479 1620.76C477.514 1640.29 483.372 1660.2 471.007 1682.2C439.378 1695.99 408.527 1702.89 374.035 1707.84C357.114 1697.3 350.868 1682.07 346.833 1666.19C300.366 1479.54 280.061 1291.33 317.026 1100.25C328.09 1043.37 351.779 993.258 398.897 952.518H399.158Z" fill="#3E5B2D"/>
<path d="M471.65 1684.68C471.389 1635.48 453.298 1588.88 449.653 1540.46C449.263 1535.52 446.396 1530.57 446.787 1525.89C450.952 1478.12 434.947 1431.39 438.722 1383.75C442.106 1340.28 447.182 1297.06 451.738 1253.72C455.903 1214.02 458.246 1174.32 468.269 1135.28C471.132 1124.21 474.646 1113.67 480.503 1104.04C522.024 1036.35 570.574 974.526 633.962 921.941C648.02 922.592 656.345 930.272 664.284 938.342C682.377 956.694 703.729 968.28 731.843 972.054C693.446 1007.72 655.173 1044.68 621.722 1085.03C590.613 1122.52 572.13 1167.42 566.143 1218.19C561.197 1259.58 557.036 1300.84 560.55 1341.71C566.277 1408.74 572.781 1475.78 585.928 1542.03C591.004 1567.67 598.164 1593.18 597.514 1622.99C565.364 1645.89 533.997 1666.46 494.949 1677.78C490.914 1679.08 489.613 1680.13 486.229 1682.21C480.762 1683.77 477.507 1684.29 471.65 1684.81V1684.68Z" fill="#4E6F36"/>
<path d="M1586.34 3083.92C1579.7 3070.77 1575.4 3059.32 1569.41 3048.65C1561.6 3034.72 1557.7 3015.19 1532.58 3028.34C1522.16 3033.81 1512.54 3023 1505.25 3010.77C1504.73 3006.08 1505.25 3003.61 1506.42 3001.4C1517.7 2981.35 1513.45 2961.13 1493.66 2940.74C1491.71 2960.01 1484.16 2973.67 1464.12 2970.68C1452.92 2968.99 1445.63 2960.92 1445.37 2950.11C1444.98 2927.99 1461.26 2924.21 1480.26 2923.82C1312.09 2680.68 1172.56 2427.52 1154.2 2123.47C1141.19 2124.38 1141.32 2135.7 1135.72 2140.78C1118.67 2156.53 1101.1 2155.75 1087.56 2137.26C1078.32 2124.51 1075.2 2109.93 1078.84 2094.44C1081.96 2081.16 1090.55 2072.18 1103.31 2068.02C1117.5 2063.46 1127.52 2070.49 1135.2 2081.68C1138.59 2086.63 1141.58 2091.84 1150.56 2096.91C1150.56 2074.26 1149 2051.49 1150.95 2028.97C1152.9 2007.62 1150.17 1983.41 1182.06 1976.64C1197.42 1973.39 1191.69 1953.09 1195.2 1937.21C1209.91 1932.78 1218.89 1935.51 1218.5 1954C1217.72 1994.22 1218.11 2034.57 1219.81 2074.79C1223.58 2163.43 1244.53 2248.68 1269.26 2333.42C1303.76 2451.86 1341.37 2569 1387.19 2683.55C1436.78 2807.33 1508.11 2917.96 1591.67 3021.18C1609.11 3042.79 1626.56 3064.53 1636.19 3090.82C1649.73 3127.65 1655.97 3164.36 1620.57 3196.64C1616.53 3158.11 1610.81 3119.71 1586.21 3083.92H1586.34Z" fill="#EDF0E9"/>
<path d="M456.683 2005C459.156 2020.88 464.229 2035.2 469.566 2049.13C497.94 2122.8 524.102 2197.64 556.642 2269.62C600.116 2365.55 649.581 2458.48 701.255 2550.38C745.639 2629.38 796.919 2703.57 854.06 2773.47C919.791 2853.91 985.917 2934.09 1067.01 3001.12C1127.14 3050.97 1190.27 3095.49 1256.39 3136.49C1284.5 3153.93 1314.96 3164.99 1344.63 3178.53C1345.8 3179.05 1347.11 3179.31 1348.15 3179.96C1363.9 3190.37 1370.93 3162 1384.6 3170.85C1394.88 3177.62 1390.32 3195.71 1408.68 3200.53C1441.22 3208.86 1474.53 3209.12 1505.9 3203.78C1535.58 3198.7 1562.66 3199.23 1592.59 3210.03C1571.38 3228.77 1544.95 3234.63 1516.57 3234.11C1492.75 3233.72 1469.07 3233.07 1441.87 3232.42C1433.93 3232.16 1429.63 3230.98 1423.25 3229.29C1337.21 3214.45 1259.12 3184.13 1184.67 3143.13C1090.43 3091.19 1002.57 3029.89 926.169 2954.39C851.717 2880.85 788.72 2797.81 734.443 2707.48C619.772 2516.54 533.344 2313.09 459.282 2103.93C450.041 2077.89 443.929 2050.82 435.208 2024.53C428.7 2004.87 438.721 2002.79 456.683 2005Z" fill="#758F55"/>
<path d="M1496.54 1697.56C1503.69 1698.47 1509.03 1699.25 1516.97 1700.42C1528.03 1725.41 1551.33 1728.4 1572.67 1738.82C1574.11 1742.98 1574.11 1744.81 1572.41 1749.1C1541.96 1763.42 1525.17 1791.14 1497.7 1805.85C1393.58 1861.95 1288.67 1830.32 1183.76 1811.06C1173.99 1809.23 1165.53 1802.73 1152.65 1800.38C1142.36 1797.52 1135.47 1794.14 1127.27 1787.5C1119.07 1762.77 1132.73 1755.48 1149.91 1749.62C1143.41 1740.51 1114.77 1739.34 1133 1714.22C1137.81 1707.58 1130.52 1703.02 1125.18 1699.9C1097.85 1683.5 1099.02 1658.9 1108.01 1634.04C1112.82 1620.63 1113.99 1607.36 1116.2 1590.96C1157.99 1566.75 1195.21 1574.82 1232.05 1603.58C1240.51 1616.21 1247.93 1624.8 1264.85 1619.46C1290.75 1620.24 1305.85 1636.38 1322.12 1649.92C1367.15 1687.54 1418.96 1700.55 1479.35 1692.87C1483.52 1692.48 1484.95 1692.22 1488.46 1691.96C1491.2 1694.56 1492.63 1696.39 1496.66 1697.56H1496.54Z" fill="#586159"/>
<path d="M750.05 1713.46C745.365 1715.54 742.11 1715.54 736.253 1715.67C731.957 1717.23 730.133 1718.79 727.399 1721.92C645.919 1783.61 550.906 1804.57 455.239 1825.53C462.267 1833.47 475.279 1824.49 483.088 1832.04C484.39 1834.12 483.218 1835.55 479.834 1836.2C425.297 1846.22 370.113 1843.88 315.056 1844.14C297.224 1844.14 280.823 1844.66 268.978 1826.18C259.867 1811.99 238.65 1815.63 225.895 1803.66C232.012 1796.5 246.456 1794.29 245.025 1784.13C241.901 1761.88 263.512 1762.79 272.493 1749.25C310.37 1758.23 346.815 1747.69 383.39 1742.35C406.558 1738.97 429.461 1733.76 455.493 1729.86C566.65 1720.62 653.078 1655.41 749.917 1616.62C789.225 1600.87 828.405 1582.13 874.872 1599.57C878.256 1608.94 878.129 1616.75 880.732 1623.52C885.418 1635.62 879.687 1644.21 870.836 1648.51C847.668 1659.44 826.322 1675.71 799.509 1677.27C785.582 1678.05 772.955 1676.75 771.913 1697.19C771.653 1702.26 758.511 1706.69 750.05 1713.33V1713.46Z" fill="#586159"/>
<path d="M398.362 950.841C398.883 976.092 375.451 989.111 362.956 1008.63C334.191 1053.67 326.645 1103.91 317.794 1154.15C304.778 1227.43 307.378 1301.75 311.152 1375.3C315.187 1453.65 326.12 1531.62 343.171 1608.54C350.2 1640.3 358.535 1671.67 370.64 1704.86C355.02 1711.63 344.086 1707.2 340.572 1689.5C339.14 1682.21 336.143 1675.05 333.409 1665.16C329.504 1659.18 329.506 1654.75 327.944 1648.76C306.467 1571.71 279.654 1497.91 268.85 1420.46C253.491 1310.48 245.291 1199.97 271.844 1090.38C288.244 1022.69 324.038 970.756 398.489 950.711L398.362 950.841Z" fill="#758F55"/>
<path d="M1124.91 1781.64C1132.33 1785.55 1138.31 1787.63 1146.64 1790.49C1184.52 1824.86 1228.91 1828.76 1274.33 1828.89C1311.56 1828.89 1347.09 1839.3 1385.23 1839.3C1463.98 1839.3 1520.73 1806.5 1570.84 1748.06C1572.79 1746.11 1572.79 1745.72 1572.92 1745.85C1588.54 1730.75 1568.89 1719.04 1570.71 1703.29C1577.22 1700.55 1582.17 1700.16 1587.11 1699.25C1597.39 1697.3 1608.07 1687.41 1617.57 1700.81C1626.16 1713.05 1627.33 1725.54 1621.08 1739.86C1612.49 1759.91 1599.35 1777.35 1583.6 1790.88C1542.21 1826.81 1500.94 1864.3 1442.63 1871.19C1440.16 1871.46 1437.55 1873.67 1435.47 1873.15C1397.59 1862.86 1358.93 1881.74 1321.06 1870.15C1298.28 1863.25 1274.2 1865.6 1250.65 1861.43C1202.23 1852.97 1156.54 1836.83 1110.2 1822.25C1102.91 1819.91 1094.84 1818.09 1091.98 1810.54C1075.58 1767.85 1041.87 1731.53 1043.56 1682.33C1044.08 1668.93 1033.14 1663.07 1028.72 1650.18C1040.69 1633 1053.58 1619.59 1077.01 1620.25C1087.81 1626.75 1090.16 1635.73 1088.73 1644.32C1082.35 1682.46 1092.11 1718.65 1102 1756.91C1104.48 1760.04 1105.52 1761.21 1108.51 1763.94C1115.54 1769.54 1120.22 1773.96 1124.91 1781.77V1781.64Z" fill="#3F483D"/>
<path d="M1296.6 1091.93C1327.84 1105.73 1331.48 1103.78 1330.96 1076.18C1330.7 1063.95 1327.58 1052.36 1323.15 1037.92C1336.95 1035.05 1337.21 1046.12 1339.29 1055.75C1350.23 1108.85 1351.66 1162.48 1349.06 1216.63C1345.02 1299.8 1325.49 1380.11 1305.84 1460.42C1299.07 1488.4 1291.79 1516.25 1285.02 1544.24C1283.46 1550.88 1281.37 1556.08 1271.35 1553.09C1287.36 1434.64 1295.95 1317.11 1303.5 1199.71C1305.58 1165.99 1300.77 1132.15 1289.96 1096.1C1290.48 1092.58 1292.3 1092.19 1296.86 1092.19L1296.6 1091.93Z" fill="#EDF0E9"/>
<path d="M880.213 1601.77C839.994 1596.57 804.718 1603.21 771.007 1618.04C721.936 1639.78 672.737 1660.61 625.879 1687.29C577.069 1715.15 524.744 1736.62 462.137 1730.24C484.134 1709.42 516.546 1702.52 545.832 1689.25C617.29 1656.97 684.06 1614.4 761.245 1588.11C765.54 1584.86 767.751 1583.16 772.176 1581.99C779.075 1581.34 784.024 1580.56 791.313 1579C795.998 1576.78 798.209 1575.35 802.505 1574.57C841.162 1571.32 877.35 1570.93 912.753 1592.79C916.007 1595.79 916.919 1597.35 916.528 1601.51C904.554 1603.21 894.007 1602.56 880.08 1601.91L880.213 1601.77Z" fill="#818A8C"/>
<path d="M1083.4 1622.19C1061.79 1623.88 1051.77 1643.41 1030.94 1646.53C1017.67 1629.61 1031.2 1619.59 1041.22 1609.57C1073.11 1577.42 1109.95 1556.72 1160.84 1564.53C1167.74 1567.78 1172.17 1568.05 1178.8 1568.83C1193.51 1572.47 1206.13 1575.98 1221.23 1580.28C1225.53 1581.84 1227.09 1582.49 1230.87 1584.84C1240.89 1589.78 1248.7 1593.04 1258.85 1597.46C1262.89 1598.5 1264.71 1598.37 1267.44 1600.72C1282.15 1610.61 1295.94 1618.03 1311.82 1626.88C1315.73 1628.44 1317.56 1628.44 1320.29 1630.91C1343.85 1645.62 1364.93 1661.11 1393.96 1665.93C1398.51 1666.45 1400.33 1666.32 1403.98 1668.27C1426.11 1675.56 1446.41 1680.76 1469.58 1686.36C1475.05 1687.01 1477.13 1688.05 1480.51 1690.79C1482.2 1691.44 1481.81 1692.09 1481.81 1692.48C1466.72 1707.45 1449.54 1707.06 1429.62 1704.45C1377.95 1697.94 1334.09 1677.64 1297.77 1640.41C1289.7 1632.21 1279.03 1628.05 1265.62 1624.4C1252.21 1632.47 1244.14 1624.93 1234.38 1616.86C1201.71 1581.97 1163.32 1583.01 1121.53 1593.43C1110.47 1607.09 1098.23 1614.25 1083.4 1622.06V1622.19Z" fill="#818A8C"/>
<path d="M582.281 144.75C582.281 154.121 583.321 160.631 581.759 166.358C577.724 180.416 564.839 184.19 553.255 175.73C537.636 164.275 529.954 115.984 541.408 99.3239C548.177 89.5619 556.116 91.7739 563.405 98.5422C575.77 110.126 581.887 124.705 582.408 144.75H582.281Z" fill="#3E5B2D"/>
<path d="M1569.03 1700.95C1573.32 1706.03 1574.88 1710.32 1579.18 1713.58C1592.2 1723.47 1591.02 1734.1 1575.66 1745.47C1566.16 1736.48 1555.88 1737.13 1546.51 1738.18C1521.78 1740.91 1517.74 1726.85 1519.56 1703.95C1534.92 1700.82 1550.28 1700.69 1568.9 1700.95H1569.03Z" fill="#50584D"/>
<path d="M916.289 1606.19C915.248 1602.41 915.113 1600.72 915.113 1596.69C931.513 1597.21 944.008 1603.59 940.624 1625.06C927.999 1624.93 921.883 1617.51 916.156 1606.19H916.289Z" fill="#586159"/>
<path d="M1422.86 3229.8C1425.72 3228.5 1430.28 3228.89 1436.52 3230.71C1433.66 3233.96 1428.98 3234.22 1422.86 3229.8Z" fill="#3F483D"/>
<path d="M326.646 1649C328.989 1650.57 330.944 1654.21 332.767 1660.2C328.602 1659.68 326.516 1656.03 326.646 1649Z" fill="#50584D"/>
<path d="M1179.2 1567.54C1176.21 1571.06 1171.65 1571.05 1165.66 1566.63C1168.53 1565.2 1172.95 1565.59 1179.2 1567.54Z" fill="#586159"/>
<path d="M1497.19 1696.41C1498.23 1697.71 1494.58 1697.71 1494.58 1697.71C1494.58 1697.71 1491.72 1695.5 1491.07 1693.93C1492.63 1692.76 1494.46 1693.67 1497.19 1696.54V1696.41Z" fill="#3F483D"/>
<path d="M1481.31 1689.78C1480 1690.82 1477.66 1690.3 1474.02 1688.22C1475.32 1687.18 1477.79 1687.69 1481.31 1689.78Z" fill="#3F483D"/>
<path d="M485.703 1682.98C485.182 1681.15 486.746 1679.59 490.52 1678.29C491.171 1680.12 489.608 1681.81 485.703 1682.98Z" fill="#3E5B2D"/>
<path d="M1405.02 1668.67C1403.59 1670.75 1401.38 1670.36 1398.12 1667.76C1399.3 1666.71 1401.64 1666.85 1405.02 1668.67Z" fill="#50584D"/>
<path d="M1321.09 1631.73C1319.26 1633.29 1317.45 1632.51 1314.97 1629.65C1316.66 1627.04 1318.87 1627.56 1321.09 1631.73Z" fill="#586159"/>
<path d="M1268.1 1601.5C1266.41 1603.19 1264.59 1602.41 1262.11 1599.81C1263.68 1597.07 1265.89 1597.46 1268.1 1601.5Z" fill="#586159"/>
<path d="M1232.03 1584.73C1230.21 1586.94 1227.87 1586.29 1224.88 1582.77C1226.31 1581.73 1228.65 1582.38 1232.03 1584.73Z" fill="#586159"/>
<path d="M772.175 1581.83C772.175 1583.65 769.966 1585.21 765.801 1586.78C765.801 1585.08 768.01 1583.26 772.175 1581.83Z" fill="#3F483D"/>
<path d="M802.522 1574.57C802.262 1576.39 799.919 1577.56 795.754 1578.6C796.014 1576.91 798.227 1575.48 802.522 1574.57Z" fill="#3F483D"/>
<path d="M1147.03 2506.78C1140.79 2502.49 1136.23 2499.62 1133.76 2495.59C1127.77 2485.83 1129.46 2476.06 1137.14 2468.12C1144.95 2459.92 1154.97 2459.01 1164.73 2464.22C1174.5 2469.42 1180.36 2479.32 1176.06 2489.21C1169.03 2505.35 1170.85 2513.94 1189.08 2518.89C1197.54 2521.1 1204.69 2531.12 1201.57 2539.58C1194.41 2558.72 1199.75 2565.61 1219.01 2572.12C1238.92 2578.76 1247.39 2603.36 1239.19 2618.59C1232.03 2631.87 1219.92 2638.24 1204.69 2635.77C1185.04 2632.52 1167.73 2611.17 1173.45 2591.52C1178.4 2574.72 1179.83 2566.27 1161.48 2557.55C1149.38 2551.82 1149.64 2536.98 1158.1 2524.61C1162 2518.89 1171.11 2517.59 1171.89 2509.13C1164.21 2503.14 1156.67 2510.3 1147.03 2506.78Z" fill="#EDF0E9"/>
<path d="M1163.18 2389.13C1167.48 2396.81 1171.52 2402.15 1172.56 2407.88C1176.33 2428.96 1170.08 2443.15 1154.72 2447.96C1138.58 2453.04 1125.31 2447.58 1115.55 2434.04C1104.87 2419.33 1104.61 2396.94 1115.55 2385.49C1127.65 2372.86 1141.44 2372.08 1155.63 2382.24C1157.58 2383.67 1159.41 2385.49 1163.06 2389.13H1163.18Z" fill="#EDF0E9"/>
<path d="M1330.31 2787.91C1353.22 2776.97 1366.76 2786.6 1374.83 2804.18C1381.08 2817.71 1378.08 2831.77 1364.93 2840.49C1351.79 2849.21 1338.38 2846.09 1327.84 2835.02C1313.65 2820.18 1312.22 2804.57 1330.18 2787.91H1330.31Z" fill="#EDF0E9"/>
<path d="M1138.98 2279.01C1141.84 2289.29 1140.15 2296.58 1134.56 2302.18C1125.84 2310.9 1115.94 2314.02 1104.49 2306.47C1093.03 2298.92 1091.47 2288.25 1096.29 2277.19C1101.37 2265.6 1111.39 2261.44 1124.01 2265.08C1130.39 2266.9 1134.68 2271.2 1138.98 2279.14V2279.01Z" fill="#EDF0E9"/>
<path d="M1384.35 2851.05C1406.73 2859.12 1417.67 2877.87 1432.38 2892.45C1436.93 2897 1438.36 2903.64 1432.64 2908.72C1430.29 2910.8 1424.69 2912.49 1422.74 2911.19C1403.74 2897.91 1384.48 2884.38 1376.54 2861.08C1375.76 2858.86 1379.92 2854.96 1384.47 2851.05H1384.35Z" fill="#EDF0E9"/>
<path d="M1090.04 2198.8C1089.26 2185.78 1094.34 2180.71 1105.14 2184.09C1110.48 2185.78 1112.43 2191.51 1110.61 2195.81C1106.7 2204.92 1100.33 2209.08 1090.17 2198.67L1090.04 2198.8Z" fill="#EDF0E9"/>
<path d="M880.486 1227.31C815.406 1193.08 753.054 1194.52 690.317 1225.88C679.904 1231.09 668.192 1245.28 656.868 1235C644.503 1223.67 656.866 1208.83 661.552 1196.99C679.644 1150.91 733.53 1117.72 784.683 1119.15C831.541 1120.46 885.04 1158.07 901.961 1201.54C909.25 1220.29 907.689 1222.63 880.486 1227.45V1227.31Z" fill="#2B2A28"/>
<path d="M841.436 1396.23C837.271 1422.13 827.377 1442.18 810.586 1458.05C785.205 1482 753.577 1478.23 733.272 1449.72C701.383 1404.82 706.064 1314.88 742.379 1273.22C769.192 1242.38 796.269 1243.68 827.638 1279.73C828.029 1283.77 827.117 1285.33 823.863 1288.06C802.647 1290.54 779.475 1283.64 774.919 1312.66C771.795 1332.32 768.411 1353.27 784.421 1368.76C804.596 1388.42 816.443 1359.52 836.097 1358.74C846.25 1370.06 841.823 1382.04 841.302 1396.23H841.436Z" fill="#2B2A28"/>
<path d="M1219.41 1403.81C1216.02 1428.54 1206.52 1447.54 1191.68 1463.29C1167.08 1489.46 1135.85 1486.85 1115.54 1457.18C1099.4 1433.62 1095.37 1406.54 1095.76 1378.43C1096.28 1345.37 1101.22 1313.48 1121.65 1286.27C1145.08 1254.91 1168.51 1253.08 1202.1 1280.94C1204.96 1286.93 1204.57 1290.31 1199.49 1294.74C1182.57 1298.25 1166.04 1296.17 1158.23 1313.35C1149.38 1332.74 1145.73 1353.83 1160.7 1370.23C1182.44 1394.05 1194.54 1361.38 1214.72 1359.16C1224.22 1373.22 1219.8 1387.28 1219.41 1403.81Z" fill="#2B2A28"/>
<path d="M1119.46 1154.01C1184.28 1123.69 1254.95 1154.14 1274.08 1217.79C1276.43 1225.6 1277.47 1232.76 1269.92 1237.97C1264.19 1241.87 1257.95 1240.7 1252.09 1237.45C1251.05 1236.79 1249.88 1236.27 1248.83 1235.49C1195.99 1189.81 1140.02 1199.18 1083.14 1226.38C1076.63 1229.51 1069.61 1235.75 1063.23 1227.42C1058.93 1221.83 1062.97 1215.45 1065.44 1209.72C1075.85 1185.25 1097.98 1171.98 1119.46 1154.01Z" fill="#2B2A28"/>
<path d="M1129.08 1041.41C1146.39 1049.09 1161.37 1055.34 1175.82 1062.63C1181.28 1065.36 1186.49 1070.18 1182.84 1077.6C1179.85 1083.84 1173.6 1086.84 1167.22 1084.88C1153.04 1080.33 1138.98 1075.25 1125.44 1069.01C1097.07 1055.99 1070.52 1039.59 1045.39 1020.98C1037.32 1014.99 1027.82 1007.96 1036.67 996.766C1044.48 986.744 1052.16 995.334 1059.32 999.629C1081.71 1013.17 1104.1 1026.71 1128.96 1041.41H1129.08Z" fill="#EDF0E9"/>
<path d="M842.223 1396.39C837.928 1387.28 842.609 1374.78 834.018 1361.77C816.707 1340.03 822.046 1316.34 820.875 1291.22C822.958 1287.06 823.868 1285.75 826.862 1283.28C839.878 1291.22 846.516 1302.94 846.646 1316.99C846.907 1342.64 850.42 1368.41 842.09 1396.39H842.223Z" fill="#3F483D"/>
<path d="M1220.2 1404.07C1215.52 1392.48 1221.24 1377.39 1211.74 1361.77C1197.82 1347.32 1199.9 1332.35 1202.9 1314.39C1205.11 1309.57 1206.28 1307.75 1210.57 1305.15C1232.83 1335.22 1225.67 1368.53 1220.2 1404.07Z" fill="#3F483D"/>
<path d="M1018.07 1052.23C1015.46 1057.17 1013.38 1060.69 1010.25 1061.99C1000.88 1066.02 992.687 1064.2 991.906 1052.62C991.385 1042.98 999.712 1041.29 1007.26 1041.42C1012.34 1041.42 1016.25 1044.55 1017.94 1052.1L1018.07 1052.23Z" fill="#EDF0E9"/>
<path d="M1057.37 1060.43C1067.39 1069.28 1067.27 1076.31 1056.2 1080.74C1051.78 1082.56 1045.53 1081.78 1043.57 1076.83C1039.41 1066.29 1044.88 1060.95 1057.37 1060.56V1060.43Z" fill="#EDF0E9"/>
<path d="M1298.42 1089.97C1297.51 1092.44 1295.82 1092.96 1291.27 1092.96C1281.51 1078.51 1274.08 1064.45 1270.05 1039.59C1287.88 1057.3 1286.84 1076.17 1298.42 1089.97Z" fill="#818A8C"/>
<path d="M1193.78 1294.72C1196.91 1290.56 1199.12 1288.86 1202.5 1285.22C1209.4 1287.17 1210.83 1293.55 1213.04 1302.01C1212.52 1305.26 1211.35 1306.18 1208.49 1308.52C1199.12 1308.91 1194.82 1304.35 1193.78 1294.72Z" fill="#3F483D"/>
<path d="M1356.63 3124.88C1358.32 3135.03 1353.5 3136.98 1346.6 3134.9C1342.83 3133.86 1340.35 3129.96 1342.17 3126.57C1344.78 3121.76 1349.86 3121.49 1356.63 3124.88Z" fill="#679441"/>
<path d="M748.617 1715.41C749.528 1716.45 750.442 1717.62 751.484 1718.66C750.833 1718.27 750.183 1717.88 749.011 1716.45C748.621 1715.41 748.617 1715.41 748.617 1715.41Z" fill="#50584D"/>
<path d="M727.812 1722.3C726.771 1720.61 728.067 1718.53 732.102 1716.32C733.013 1718.01 731.587 1719.96 727.812 1722.3Z" fill="#50584D"/>
<path d="M1570.21 1746.27C1572.81 1748.61 1573.33 1751.35 1572.55 1753.56C1564.87 1775.95 1511.38 1827.62 1489.77 1827.75C1465.04 1827.88 1449.94 1853.13 1427.43 1850.01C1406.08 1847.01 1386.55 1845.45 1364.82 1849.75C1345.16 1853.78 1322.38 1858.34 1303.9 1840.9C1297.13 1834.39 1287.11 1836.73 1278.39 1836.6C1265.76 1836.34 1253.27 1836.47 1240.64 1836.6C1204.2 1836.99 1170.74 1830.61 1149.4 1793.91C1159.29 1790.39 1168.53 1793.52 1177.9 1797.94C1216.04 1815.51 1257.04 1819.68 1298.43 1821.5C1328.37 1822.8 1358.31 1819.42 1388.12 1827.75C1403.09 1831.92 1420.65 1832.18 1436.27 1825.02C1463.48 1812.65 1489.25 1797.42 1517.5 1786.88C1532.07 1781.41 1513.46 1777.9 1512.16 1770.22C1531.03 1764.75 1549.91 1756.81 1570.34 1746.4L1570.21 1746.27Z" fill="#50584D"/>
<path d="M1080.94 1626.12C1086.27 1606.72 1101.24 1602.56 1116.99 1595.92C1126.1 1608.8 1130.66 1621.04 1118.16 1633.8C1106.97 1645.12 1111.53 1659.96 1112.31 1673.36C1113.22 1689.76 1126.75 1691.33 1139.38 1694.19C1149.14 1696.4 1153.95 1705.12 1153.69 1714.1C1153.3 1727.12 1138.86 1719.7 1133.13 1725.82C1134.69 1732.72 1141.85 1734.28 1146.14 1738.57C1149.66 1742.09 1153.83 1744.82 1157.73 1748.07C1147.32 1758.23 1133.39 1764.61 1127.01 1781.27C1119.86 1780.09 1113.21 1776.45 1105.15 1770.72C1099.29 1762.91 1080.81 1766.82 1090.96 1750.03C1092.91 1746.91 1090.96 1740.14 1089.01 1736.1C1073 1705.25 1076.38 1672.98 1081.32 1640.43C1081.85 1636.79 1081.32 1633.01 1081.32 1626.12H1080.94Z" fill="#50584D"/>
<path d="M1233.21 1617.02C1241.41 1617.15 1249.62 1620.27 1260.42 1623.79C1251.44 1634.2 1240.76 1637.19 1233.21 1617.02Z" fill="#50584D"/>
<path d="M819.561 1286.81C832.707 1308.94 835.179 1330.8 831.535 1356.84C827.37 1366.21 824.116 1373.5 818.779 1378.44C801.989 1393.93 783.377 1391.33 771.793 1371.28C758.387 1347.98 758.518 1323 769.321 1298.79C779.343 1276.27 790.666 1273.66 819.822 1286.81H819.561Z" fill="#EDF0E9"/>
<path d="M1192.2 1291.58C1197.67 1297.05 1200.54 1302 1205.09 1308.37C1209.13 1324.38 1211.21 1338.83 1209 1356.79C1192.08 1389.46 1182.19 1396.36 1165.79 1390.63C1150.43 1385.3 1142.1 1366.82 1142.75 1340.13C1143.66 1303.17 1156.15 1290.02 1192.2 1291.71V1291.58Z" fill="#EDF0E9"/>
<path d="M1109.56 1718.15C1113.21 1717.11 1114.51 1718.15 1113.34 1720.23C1113.08 1720.62 1110.34 1719.58 1109.56 1718.15Z" fill="#586159"/>
<path d="M1103.71 1768.5C1104.62 1769.15 1103.58 1763.68 1104.75 1768.24C1103.71 1768.76 1103.84 1768.37 1103.71 1768.5Z" fill="#586159"/>
</svg>
