<svg width="1751" height="3992" viewBox="0 0 1751 3992" fill="none" xmlns="http://www.w3.org/2000/svg">
<path d="M903.401 3530.91C893.907 3516.59 884.282 3502.26 878.56 3485.99C872.838 3469.71 871.28 3451.49 877.912 3435.73C884.935 3419.07 899.888 3407.48 914.583 3396.94C953.858 3368.68 995.083 3343.16 1037.87 3320.51C1065.44 3305.93 1094.18 3292.26 1116.68 3270.65C1146.85 3241.74 1163.37 3201.12 1171.17 3159.98C1178.97 3118.97 1178.72 3076.78 1180.15 3035.12C1180.93 3012.73 1182.49 2989.42 1193.41 2969.89C1204.34 2950.23 1227.22 2935.52 1248.81 2941.25C1266.37 2945.94 1278.59 2962.6 1283.14 2980.18C1287.7 2997.76 1285.87 3016.24 1284.05 3034.21C1279.11 3083.16 1274.17 3132.12 1269.22 3181.07C1264.8 3225.73 1259.47 3272.47 1233.59 3309.18C1205.37 3349.28 1157.78 3369.99 1113.56 3391.21C1039.3 3426.75 968.165 3468.8 903.141 3531.04L903.401 3530.91Z" fill="#3A5B34" stroke="#231F20" stroke-width="5" stroke-miterlimit="10"/>
<path d="M727.764 3446.69C757.192 3459.92 796.162 3463.48 823.601 3469.77C823.601 3485.06 837.271 3444.91 844.218 3448.09C848.891 3450.25 851.791 3454.83 854.443 3459.28C874.147 3492.72 885.768 3531 888.042 3569.79C889.052 3588.48 887.286 3609.08 874.277 3622.3C866.825 3629.93 856.723 3634 847.881 3639.85C823.378 3656 809.864 3684.1 797.36 3710.81C826.283 3742.85 844.465 3784.56 848.381 3827.67C852.296 3870.77 841.818 3915.15 818.957 3951.78C789.908 3952.92 763.763 3935.25 740.018 3918.21C709.326 3896.33 678.124 3873.83 656.274 3843.06C633.918 3811.65 622.807 3773.5 616.113 3735.47C616.114 3660.44 611.685 3576.67 630.757 3502.15C635.304 3484.35 635.559 3470.35 649.2 3458.26C671.808 3438.17 706.341 3450.76 727.764 3446.69Z" fill="white"/>
<path d="M844.359 3442.88C868.677 3454.21 881.031 3481.55 888.574 3507.33C894.816 3528.55 899.371 3550.68 898.721 3572.81C898.071 3594.95 891.955 3617.47 878.82 3635.18C873.618 3642.21 865.556 3648.98 857.103 3646.89C847.089 3644.42 844.097 3631.92 842.796 3621.77C836.814 3572.29 830.837 3522.95 824.724 3473.47C823.944 3466.7 823.162 3459.28 826.413 3453.29C830.315 3446.13 840.457 3441.19 844.359 3443.01V3442.88Z" stroke="#231F20" stroke-width="2.15" stroke-miterlimit="10"/>
<path d="M816.139 3467.27C774.654 3451.91 729.917 3445.66 685.831 3448.91C670.875 3449.95 655.01 3452.69 644.346 3463.1C634.983 3472.22 631.342 3485.76 628.611 3498.52C614.436 3565.44 614.823 3634.57 615.993 3703.05C616.644 3737.43 617.557 3772.58 628.871 3805C642.786 3844.97 671.786 3878.3 705.338 3904.08C738.89 3929.86 776.866 3948.99 814.71 3968C850.474 3927.51 866.336 3870.23 856.582 3817.11C850.73 3784.95 835.257 3753.83 810.158 3733.13C784.928 3712.43 749.428 3703.19 718.476 3713.47" stroke="#231F20" stroke-width="2.15" stroke-miterlimit="10"/>
<path d="M844.61 3635.18C840.448 3654.84 833.033 3673.84 823.02 3691.29C818.078 3699.88 811.059 3709 801.176 3709.78" stroke="#231F20" stroke-width="2.15" stroke-miterlimit="10"/>
<path d="M668.4 3463.47C644.211 3532.74 636.274 3607.6 645.248 3680.38" stroke="#231F20" stroke-miterlimit="10"/>
<path d="M824.458 3950.93C797.798 3930.62 771.266 3910.31 744.607 3890C729.911 3878.67 715.089 3867.47 701.954 3854.19C665.15 3816.83 644.339 3765.27 639.787 3712.93" stroke="#231F20" stroke-miterlimit="10"/>
<path d="M1341.53 3653.07C1357.28 3640.96 1388.9 3605.41 1401 3589.79C1413.24 3574.17 1439.83 3555.96 1433.84 3552.37C1405.06 3531.99 1415.58 3514.68 1420.13 3506.09C1424.04 3498.81 1432.89 3495.29 1441.22 3495.29C1449.55 3495.29 1459.72 3497.96 1467.4 3500.82C1524.67 3522.3 1583.88 3547.48 1616.03 3599.55C1623.19 3611.13 1619.3 3631.06 1610.06 3641.08C1602.38 3649.54 1587.28 3645.88 1576.49 3641.08C1564.52 3642.38 1562.66 3651.88 1554.46 3660.73C1546.26 3669.58 1541.03 3704.08 1545.33 3715.41C1551.7 3732.07 1583.29 3720.18 1600.47 3725C1630.8 3733.33 1650.91 3740.77 1677.46 3757.7C1704.01 3774.62 1727.05 3798.43 1738.5 3827.72C1753.21 3865.34 1746.83 3910.76 1721.71 3942.39C1696.59 3974.02 1653.51 3990.55 1613.68 3983.26C1578.67 3976.76 1549.25 3954.11 1520.75 3932.76C1464.78 3890.98 1406.73 3852.06 1346.98 3816.01C1330.71 3806.24 1313.93 3796.22 1303.38 3780.47C1287.11 3755.74 1290.63 3722.03 1304.55 3696C1318.48 3669.97 1321.35 3668.69 1341.53 3653.07Z" fill="white"/>
<path d="M1428.97 3499.44C1438.34 3493.2 1450.84 3495.02 1461.64 3497.88C1500.04 3507.91 1535.18 3527.43 1567.85 3549.82C1590.11 3564.92 1613.15 3583.92 1618.23 3610.34C1619.66 3617.63 1619.53 3625.44 1616.66 3632.34C1613.8 3639.24 1607.94 3645.09 1600.65 3646.79C1587.51 3649.78 1575.53 3639.24 1566.03 3629.73C1539.48 3602.92 1510.71 3575.98 1474.66 3564.65C1462.81 3560.88 1450.32 3558.93 1438.99 3553.98C1427.67 3549.03 1417 3539.93 1414.39 3527.82C1411.79 3515.72 1421.68 3504.52 1428.97 3499.57V3499.44Z" stroke="#231F20" stroke-width="2.15" stroke-miterlimit="10"/>
<path d="M1431.58 3555.65C1393.83 3592.61 1357.78 3631.27 1323.68 3671.49C1312.88 3684.12 1302.2 3697.13 1295.04 3712.23C1287.76 3727.2 1284.24 3744.51 1288.28 3760.65C1294.78 3786.03 1318.08 3802.95 1339.82 3817.66C1399.3 3857.75 1458.66 3897.97 1518.14 3938.06C1540.14 3952.9 1562.26 3967.87 1586.86 3978.02C1611.33 3988.17 1638.67 3993.38 1664.7 3987.78C1706.09 3978.93 1738.89 3942.22 1747.22 3900.7C1755.55 3859.18 1740.97 3814.8 1712.99 3783.17C1685 3751.41 1644.65 3732.02 1602.87 3725.12C1561.09 3718.22 1518.01 3723.03 1477.27 3734.62" stroke="#231F20" stroke-width="2.15" stroke-miterlimit="10"/>
<path d="M1575.68 3643.15C1562.66 3649.53 1554.33 3663.07 1550.95 3677.26C1547.56 3691.44 1548.34 3706.02 1549.12 3720.6" stroke="#231F20" stroke-width="2.15" stroke-miterlimit="10"/>
<path d="M1289.96 3723.59C1330.05 3772.01 1378.47 3813.53 1432.49 3845.68" stroke="#231F20" stroke-miterlimit="10"/>
<path d="M1692.41 3968.28C1671.85 3973.36 1650.38 3965.81 1630.72 3957.61C1585.3 3938.48 1541.69 3915.31 1500.43 3888.37" stroke="#231F20" stroke-miterlimit="10"/>
<path d="M1497.58 3507.64C1568.39 3347.8 1564.61 3156.73 1487.56 2999.89C1473.89 2972.03 1459.7 2933.89 1483.52 2913.98C1496.93 2902.66 1517.75 2903.96 1533.11 2912.68C1548.47 2921.4 1559.14 2936.11 1568.77 2950.82C1671.47 3108.7 1679.41 3323.47 1588.56 3488.51C1579.58 3504.78 1568.25 3521.83 1550.55 3527.43C1532.85 3533.02 1509.03 3519.36 1497.58 3507.64Z" fill="#3A5B34" stroke="#231F20" stroke-width="5" stroke-miterlimit="10"/>
<path d="M1244.03 3229.06C1115.95 3169.7 1001.02 3095.38 900.931 3000.23C818.539 2922.01 749.947 2832.07 691.766 2733.8C559.653 2510.83 455.652 2275.9 383.544 2027.03C378.207 2008.42 370.92 1997.87 349.313 1994.1C241.15 1975.22 150.685 1924.33 82.6115 1836.99C31.9791 1771.91 -1.73035 1700.19 0.0918917 1615.46C0.742693 1583.31 10.2416 1553.64 26.5116 1525.91C31.1974 1517.84 36.6641 1511.72 49.2897 1512.11C56.7088 1572.64 78.9701 1626.65 131.295 1661.54C178.673 1693.17 231.644 1710.48 293.34 1712.95C281.366 1671.95 271.345 1634.59 259.631 1597.89C219.151 1470.72 199.497 1340.69 204.573 1207.28C206.916 1145.45 213.688 1084.41 240.501 1027.14C268.485 967.263 311.825 924.7 373.521 900.361C435.347 876.021 498.216 857.016 563.296 841.137C671.719 814.714 767.126 757.314 848.346 678.958C880.105 648.37 890.781 607.498 897.289 566.758C911.477 477.077 903.275 388.701 875.941 301.884C848.998 216.498 797.192 192.548 710.896 199.837C674.841 202.961 639.571 214.286 603.647 220.533C515.398 236.022 491.45 187.731 500.821 114.19C504.466 85.4248 519.301 62.5193 542.99 45.3381C562.514 31.1507 583.339 19.6948 607.028 14.228C747.861 -18.0517 879.456 4.85714 1000.64 83.2136C1032.66 103.909 1057.51 133.195 1075.34 167.166C1106.71 226.91 1127.15 289.516 1127.28 358.241C1127.41 422.67 1122.07 486.579 1115.43 550.488C1108.8 613.485 1111.01 676.222 1117.78 738.96C1124.81 802.738 1156.18 849.336 1215.4 876.019C1238.31 886.302 1261.48 896.195 1284.26 906.608C1337.88 931.208 1371.98 970.126 1385 1029.74C1402.31 1108.49 1401.4 1187.23 1394.37 1266.37C1385.91 1363.47 1355.97 1456.01 1334.24 1550.38C1332.28 1558.97 1331.24 1567.95 1328.25 1576.15C1321.87 1593.33 1330.46 1601.92 1344.65 1608.3C1383.56 1625.74 1421.7 1645.66 1461.66 1660.23C1512.16 1678.72 1562.67 1678.72 1609.14 1645.4C1629.18 1631.08 1643.36 1612.34 1654.04 1590.47C1672.91 1551.94 1684.89 1511.07 1693.61 1469.42C1708.05 1470.2 1711.44 1479.7 1714.57 1489.21C1729.01 1533.46 1729.53 1578.76 1718.34 1623.27C1701.8 1688.48 1673.95 1749 1633.73 1803.28C1579.45 1876.56 1505.27 1918.47 1416.63 1934.74C1373.54 1942.68 1330.46 1954.66 1285.81 1948.54C1271.63 1946.59 1268.89 1953.36 1268.63 1965.72C1267.46 2045.12 1267.2 2124.78 1286.33 2202.35C1328.12 2370.91 1378.88 2536.74 1447.22 2696.7C1493.55 2805.26 1558.76 2901.97 1633.6 2992.69C1665.36 3031.21 1690.22 3072.61 1695.43 3123.63C1700.51 3172.83 1684.1 3212.14 1644.27 3242.2C1589.35 3283.59 1526.22 3289.45 1461.14 3284.51C1386.56 3278.91 1315.62 3257.69 1243.64 3229.32L1244.03 3229.06Z" fill="#2B2A28"/>
<path d="M715.976 1966.88C766.999 1949.57 817.629 1938.89 863.836 1914.16C911.735 1888.65 960.155 1864.57 987.228 1811.08C1050.49 1864.18 1115.83 1905.7 1192.89 1931.74C1207.07 1951.78 1202.13 1969.74 1187.16 1980.55C1160.87 1999.55 1156.7 2024.67 1158.26 2053.57C1158.78 2063.59 1158.78 2073.74 1156.57 2083.63C1152.93 2100.03 1145.51 2105.89 1131.32 2092.1C1121.3 2082.33 1110.36 2070.75 1096.17 2084.81C1083.81 2097.17 1084.59 2112.4 1094.22 2126.2C1105.94 2142.73 1118.43 2136.87 1133.01 2127.76C1155.27 2113.96 1162.81 2119.43 1165.42 2151.19C1172.84 2244.38 1189.5 2335.75 1222.82 2423.22C1281.13 2576.29 1350.12 2723.89 1446.82 2857.17C1452.68 2865.38 1457.63 2874.49 1464.52 2881.52C1488.6 2906.12 1483.27 2928.37 1451.25 2953.89C1480.15 2952.06 1500.71 2924.99 1518.41 2954.8C1530.39 2975.1 1522.58 2990.59 1508.26 3008.16C1469.87 3025.34 1436.81 3009.07 1404.4 2997.23C1296.36 2957.53 1213.45 2883.6 1137.69 2799.78C1060.77 2714.78 989.314 2625.49 931.783 2526.31C882.582 2441.57 842.103 2351.89 808.652 2259.87C779.496 2179.56 749.948 2099.38 719.23 2019.73C712.982 2003.33 704.779 1987.05 716.103 1967.01L715.976 1966.88Z" fill="#679441"/>
<path d="M1271.24 1548.18C1225.56 1533.86 1181.95 1518.63 1134.44 1518.11C1076.52 1517.59 1032.79 1540.63 1005.06 1592.17C1002.72 1596.47 999.858 1600.5 995.693 1607.4C970.442 1587.75 944.67 1571.22 916.815 1557.68C855.25 1527.74 793.809 1526.57 732.373 1557.29C688.639 1579.16 645.556 1602.06 599.48 1625.23C591.8 1621.59 588.811 1615.99 587.639 1609.74C564.341 1478.67 536.096 1348.12 555.62 1213.41C564.471 1152.62 588.68 1099.78 632.153 1057.21C662.35 1027.67 686.427 990.702 730.161 972.87C751.247 971.829 768.431 974.823 784.57 982.372C808.26 993.435 813.596 1007.1 803.573 1030.79C800.189 1038.86 795.634 1046.41 791.339 1054.09C783.269 1068.67 786.915 1080.77 799.15 1090.66C809.953 1099.38 819.062 1094.7 829.605 1087.93C886.355 1051.09 945.968 1018.55 995.039 970.916C1012.09 954.386 1031.35 957.381 1051.27 962.327C1095.26 973.39 1136.4 992.394 1176.88 1011.92C1218.79 1032.09 1260.44 1045.76 1306.78 1028.97C1309.9 1027.8 1314.06 1030.01 1319.79 1032.48C1334.24 1047.06 1335.8 1063.46 1336.84 1079.73C1338.01 1099.52 1330.72 1111.75 1305.21 1104.59C1288.29 1088.71 1282.69 1069.45 1273.58 1052.27C1271.11 1047.97 1267.46 1054.74 1271.37 1051.61C1282.43 1066.45 1286.21 1085.07 1298.44 1102.77C1310.94 1134.4 1312.24 1164.59 1310.68 1194.79C1304.56 1312.46 1300.65 1430.51 1270.85 1548.44L1271.24 1548.18Z" fill="#679441"/>
<path d="M1617.71 3194.17C1613.55 3204.98 1605.22 3206.54 1596.37 3210.96C1545.09 3203.29 1496.54 3215.91 1447.73 3213.7C1424.82 3212.66 1402.17 3211.87 1385.12 3193.13C1380.7 3188.19 1375.36 3185.45 1368.46 3185.97C1326.81 3188.97 1293.36 3166.97 1259.9 3147.84C1116.34 3065.57 995.419 2957.54 888.948 2830.38C775.708 2695.14 686.157 2546.37 604.807 2390.56C547.927 2281.62 508.228 2166.43 462.152 2053.45C456.555 2039.52 450.569 2025.2 457.207 2007.24C500.03 2001.39 541.549 2002.43 585.543 1994.23C617.303 2025.73 633.7 2064.51 647.757 2102.91C691.621 2222.66 751.892 2334.2 810.203 2447.05C889.601 2600.77 993.468 2735.23 1118.29 2854.45C1229.19 2960.27 1361.3 3027.57 1507.21 3070C1530.51 3076.77 1554.98 3071.17 1581.14 3077.68C1618.11 3109.31 1623.57 3148.49 1617.59 3194.17H1617.71Z" fill="#3E5B2D"/>
<path d="M1124.67 846.733C1156.04 876.41 1188.58 900.491 1223.85 919.885C1250.93 934.853 1273.31 953.985 1292.45 980.148C1271.88 999.411 1250.4 996.159 1227.23 985.616C1178.03 963.229 1129.49 938.888 1077.42 923.269C1062.98 918.974 1048.66 914.418 1033.3 913.637C1009.48 912.336 989.175 918.191 970.822 934.331C935.939 964.919 902.096 997.07 861.877 1017.9C855.499 1017.38 852.899 1014.77 852.248 1010.87C844.438 957.631 805.78 937.845 759.833 931.207C731.068 927.042 707.119 918.714 686.294 898.019C674.97 886.825 659.606 879.535 646.07 870.554C644.898 858.709 655.313 860.271 661.17 857.928C748.508 824.087 821.268 768.767 886.479 703.036C924.746 664.508 937.76 613.097 942.966 561.814C952.338 471.222 948.697 380.892 920.322 292.773C903.921 242.011 879.972 196.843 829.731 172.893C777.666 148.163 722.736 148.945 667.418 161.05C666.246 161.31 665.078 161.962 663.776 162.222C649.068 164.956 633.965 176.407 620.298 169.378C606.501 162.35 614.312 144.258 611.318 131.242C606.372 110.156 593.097 93.3678 583.074 74.7549C598.043 58.3547 617.694 56.4002 635.526 53.1462C747.204 32.5809 853.289 46.898 952.601 104.689C996.725 130.331 1028.22 166.125 1049.18 212.332C1073.52 266.088 1083.67 321.926 1082.5 381.019C1080.94 454.169 1072.87 526.669 1068.18 599.429C1063.76 668.023 1075.34 734.798 1094.47 800.268C1099.42 817.319 1110.88 831.374 1124.8 846.342L1124.67 846.733Z" fill="#679441"/>
<path d="M1584.67 3078.72C1515.68 3094.34 1455.55 3064.41 1395.02 3041.89C1343.74 3022.76 1295.45 2995.55 1248.2 2967.05C1204.99 2941.02 1165.55 2910.16 1128.45 2876.71C1058.43 2813.59 996.731 2742.13 936.988 2669.5C901.974 2627.07 872.686 2579.69 847.045 2530.88C813.724 2467.49 773.896 2407.75 744.48 2342.28C709.076 2263.53 665.993 2188.3 639.57 2105.26C627.856 2068.55 606.768 2034.71 589.457 1996.83C630.067 1984.08 670.939 1974.18 714.933 1964.42C713.502 2000.48 732.766 2030.67 745.001 2061.39C766.087 2113.85 786.653 2166.43 804.094 2220.19C826.612 2289.56 860.581 2354.12 888.565 2421.15C920.845 2498.47 968.228 2566.02 1014.17 2634.88C1043.33 2678.74 1078.86 2717.92 1113.75 2757.23C1142.9 2790.03 1169.58 2825.43 1203.3 2853.94C1239.48 2884.78 1271.5 2921.49 1314.45 2943.23C1372.24 2972.64 1428.47 3007.79 1500.19 3007.92C1510.73 3009.61 1516.85 3016.64 1523.88 3016.25C1566.83 3013.51 1577.12 3043.45 1584.67 3078.72Z" fill="#4E6F36"/>
<path d="M937.128 1623.65C935.436 1634.58 932.308 1642.78 929.705 1651.11C921.895 1676.62 923.196 1685.47 945.454 1697.71C958.99 1705.26 957.299 1711.63 956.258 1724.13C952.614 1765.39 928.016 1790.25 893.784 1805.74C871.526 1815.76 863.453 1837.63 845.101 1851.3C789.522 1892.43 729.651 1921.84 661.967 1933.82C591.16 1946.44 520.224 1943.06 448.766 1935.77C391.496 1929.91 335.916 1914.81 278.516 1909.22C248.839 1906.35 217.598 1897.24 188.052 1887.35C181.023 1885.01 173.346 1882.14 167.879 1877.33C124.536 1838.41 89.3894 1794.16 73.3797 1736.36C68.9542 1720.48 70.6499 1709.29 83.5357 1700.31C96.9422 1691.07 109.564 1690.94 125.183 1700.05C168.527 1725.3 214.868 1743.39 269.275 1745.74C272.789 1770.47 247.405 1780.75 243.37 1800.01C312.615 1858.84 394.614 1822.53 462.297 1832.03C462.557 1832.03 453.838 1834.12 440.561 1821.49C534.667 1792.46 630.601 1778.02 712.602 1721.01C717.938 1717.88 720.929 1716.06 726.266 1713.2C731.733 1710.72 734.988 1709.94 740.845 1710.2C746.312 1712.28 747.744 1714.63 747.353 1718.14C748.134 1715.02 747.874 1711.89 747.874 1706.56C763.754 1681.44 782.623 1667.64 811.518 1663.08C844.579 1657.75 872.953 1641.35 876.077 1599.04C887.141 1592.41 896.252 1592.67 908.357 1596.96C922.935 1601.65 927.493 1613.36 936.995 1623.52L937.128 1623.65Z" fill="#3F483D"/>
<path d="M398.396 952.151C462.565 927.941 522.701 897.613 591.946 905.943C605.873 907.636 619.276 908.416 633.594 918.047C632.552 939.133 617.458 949.808 604.962 961.652C569.168 995.624 538.965 1033.76 511.371 1074.63C488.984 1107.82 473.107 1142.44 468.682 1182.01C460.872 1251.91 448.767 1321.81 449.418 1391.96C450.199 1468.5 457.228 1545.03 472.717 1620.4C476.752 1639.92 482.61 1659.83 470.245 1681.83C438.616 1695.63 407.766 1702.53 373.273 1707.47C356.352 1696.93 350.107 1681.7 346.072 1665.82C299.604 1479.17 279.299 1290.96 316.264 1099.88C327.328 1043 351.018 992.891 398.136 952.151H398.396Z" fill="#3E5B2D"/>
<path d="M471.021 1684.31C470.761 1635.11 452.669 1588.52 449.025 1540.1C448.634 1535.15 445.768 1530.21 446.158 1525.52C450.323 1477.75 434.312 1431.02 438.087 1383.38C441.471 1339.91 446.547 1296.7 451.103 1253.35C455.268 1213.65 457.611 1173.96 467.634 1134.91C470.497 1123.85 474.011 1113.3 479.868 1103.67C521.389 1035.99 569.939 974.159 633.327 921.574C647.385 922.225 655.716 929.905 663.656 937.975C681.748 956.327 703.094 967.913 731.208 971.687C692.811 1007.35 654.544 1044.32 621.093 1084.67C589.985 1122.15 571.502 1167.06 565.514 1217.82C560.568 1259.21 556.401 1300.47 559.915 1341.34C565.642 1408.37 572.153 1475.41 585.299 1541.66C590.375 1567.3 597.536 1592.81 596.885 1622.62C564.735 1645.53 533.368 1666.09 494.32 1677.42C490.285 1678.72 488.978 1679.76 485.594 1681.84C480.127 1683.4 476.878 1683.92 471.021 1684.45V1684.31Z" fill="#4E6F36"/>
<path d="M1585.69 3083.55C1579.05 3070.41 1574.76 3058.95 1568.77 3048.28C1560.96 3034.35 1557.06 3014.83 1531.94 3027.97C1521.52 3033.44 1511.89 3022.64 1504.6 3010.4C1504.08 3005.71 1504.61 3003.24 1505.78 3001.03C1517.06 2980.98 1512.81 2960.77 1493.02 2940.38C1491.07 2959.64 1483.52 2973.31 1463.48 2970.31C1452.28 2968.62 1444.99 2960.55 1444.73 2949.75C1444.34 2927.62 1460.61 2923.84 1479.61 2923.45C1311.45 2680.31 1171.92 2427.15 1153.56 2123.1C1140.55 2124.01 1140.68 2135.33 1135.08 2140.41C1118.03 2156.16 1100.46 2155.38 1086.92 2136.9C1077.68 2124.14 1074.56 2109.56 1078.2 2094.07C1081.32 2080.8 1089.91 2071.82 1102.67 2067.65C1116.86 2063.09 1126.88 2070.12 1134.56 2081.32C1137.94 2086.26 1140.93 2091.47 1149.92 2096.55C1149.92 2073.9 1148.36 2051.12 1150.31 2028.6C1152.26 2007.26 1149.52 1983.05 1181.41 1976.28C1196.77 1973.02 1191.05 1952.72 1194.56 1936.84C1209.27 1932.41 1218.25 1935.15 1217.86 1953.63C1217.08 1993.85 1217.47 2034.2 1219.16 2074.42C1222.94 2163.06 1243.89 2248.31 1268.62 2333.05C1303.12 2451.49 1340.73 2568.64 1386.55 2683.18C1436.14 2806.96 1507.47 2917.6 1591.03 3020.81C1608.47 3042.42 1625.91 3064.16 1635.54 3090.45C1649.08 3127.29 1655.33 3163.99 1619.93 3196.27C1615.89 3157.74 1610.16 3119.35 1585.56 3083.55H1585.69Z" fill="#EDF0E9"/>
<path d="M456.042 2004.48C458.515 2020.36 463.595 2034.68 468.931 2048.61C497.306 2122.28 523.468 2197.12 556.008 2269.1C599.481 2365.03 648.94 2457.96 700.614 2549.86C744.999 2628.86 796.285 2703.05 853.425 2772.95C919.156 2853.39 985.276 2933.57 1066.37 3000.6C1126.5 3050.45 1189.63 3094.97 1255.75 3135.97C1283.87 3153.41 1314.32 3164.47 1344 3178.01C1345.17 3178.53 1346.47 3178.79 1347.51 3179.44C1363.26 3189.85 1370.29 3161.48 1383.96 3170.33C1394.24 3177.1 1389.68 3195.19 1408.04 3200.01C1440.58 3208.34 1473.9 3208.6 1505.27 3203.26C1534.95 3198.19 1562.01 3198.71 1591.95 3209.51C1570.74 3228.25 1544.32 3234.11 1515.94 3233.59C1492.12 3233.2 1468.43 3232.55 1441.23 3231.9C1433.29 3231.64 1428.99 3230.46 1422.62 3228.77C1336.58 3213.93 1258.48 3183.61 1184.03 3142.61C1089.8 3090.67 1001.94 3029.37 925.535 2953.88C851.083 2880.33 788.086 2797.29 733.809 2706.96C619.138 2516.02 532.709 2312.57 458.648 2103.41C449.407 2077.37 443.288 2050.3 434.567 2024.01C428.059 2004.35 438.08 2002.27 456.042 2004.48Z" fill="#758F55"/>
<path d="M1495.9 1697.08C1503.06 1698 1508.4 1698.78 1516.34 1699.95C1527.41 1724.94 1550.7 1727.93 1572.05 1738.34C1573.48 1742.51 1573.48 1744.33 1571.79 1748.63C1541.33 1762.95 1524.54 1790.67 1497.07 1805.38C1392.95 1861.48 1288.04 1829.85 1183.13 1810.58C1173.37 1808.76 1164.91 1802.25 1152.02 1799.91C1141.74 1797.05 1134.84 1793.66 1126.64 1787.02C1118.44 1762.29 1132.11 1755.01 1149.29 1749.15C1142.78 1740.04 1114.15 1738.87 1132.37 1713.75C1137.19 1707.11 1129.9 1702.55 1124.56 1699.43C1097.23 1683.03 1098.39 1658.43 1107.37 1633.56C1112.19 1620.16 1113.37 1606.88 1115.58 1590.48C1157.36 1566.27 1194.59 1574.34 1231.42 1603.11C1239.88 1615.73 1247.3 1624.33 1264.22 1618.99C1290.12 1619.77 1305.22 1635.91 1321.49 1649.45C1366.53 1687.06 1418.33 1700.08 1478.73 1692.4C1482.89 1692.01 1484.32 1691.75 1487.83 1691.49C1490.57 1694.09 1492 1695.91 1496.04 1697.08H1495.9Z" fill="#586159"/>
<path d="M749.416 1712.94C744.73 1715.03 741.475 1715.02 735.618 1715.15C731.323 1716.72 729.504 1718.28 726.771 1721.4C645.291 1783.1 550.272 1804.06 454.604 1825.01C461.632 1832.95 474.65 1823.97 482.46 1831.52C483.761 1833.6 482.59 1835.03 479.206 1835.68C424.669 1845.71 369.479 1843.36 314.421 1843.62C296.589 1843.62 280.188 1844.14 268.344 1825.66C259.232 1811.47 238.015 1815.12 225.26 1803.14C231.377 1795.98 245.828 1793.77 244.396 1783.62C241.272 1761.36 262.877 1762.27 271.858 1748.74C309.735 1757.72 346.18 1747.17 382.755 1741.84C405.924 1738.45 428.832 1733.25 454.864 1729.34C566.021 1720.1 652.449 1654.89 749.289 1616.1C788.597 1600.36 827.776 1581.61 874.244 1599.05C877.628 1608.42 877.494 1616.24 880.097 1623C884.783 1635.11 879.059 1643.7 870.208 1647.99C847.039 1658.93 825.693 1675.2 798.88 1676.76C784.953 1677.54 772.326 1676.24 771.285 1696.67C771.025 1701.75 757.876 1706.17 749.416 1712.81V1712.94Z" fill="#586159"/>
<path d="M397.723 950.326C398.244 975.577 374.819 988.595 362.323 1008.12C333.558 1053.15 326.006 1103.4 317.155 1153.64C304.139 1226.92 306.745 1301.24 310.52 1374.78C314.555 1453.14 325.488 1531.1 342.539 1608.03C349.567 1639.79 357.896 1671.16 370.001 1704.35C354.381 1711.11 343.447 1706.69 339.933 1688.99C338.501 1681.7 335.51 1674.54 332.776 1664.65C328.872 1658.66 328.873 1654.23 327.311 1648.25C305.834 1571.19 279.021 1497.39 268.217 1419.95C252.859 1309.96 244.658 1199.46 271.211 1089.86C287.611 1022.18 323.405 970.24 397.857 950.195L397.723 950.326Z" fill="#758F55"/>
<path d="M1124.27 1781.17C1131.69 1785.08 1137.68 1787.16 1146.01 1790.02C1183.89 1824.39 1228.27 1828.29 1273.7 1828.42C1310.92 1828.42 1346.46 1838.83 1384.59 1838.83C1463.34 1838.83 1520.09 1806.03 1570.2 1747.59C1572.15 1745.64 1572.15 1745.25 1572.29 1745.38C1587.9 1730.28 1568.25 1718.57 1570.07 1702.82C1576.58 1700.08 1581.52 1699.69 1586.47 1698.78C1596.75 1696.83 1607.43 1686.94 1616.93 1700.35C1625.52 1712.58 1626.69 1725.08 1620.45 1739.39C1611.86 1759.44 1598.71 1776.88 1582.96 1790.42C1541.56 1826.34 1500.3 1863.83 1441.99 1870.73C1439.52 1870.99 1436.92 1873.2 1434.83 1872.68C1396.96 1862.39 1358.3 1881.27 1320.42 1869.68C1297.65 1862.79 1273.56 1865.13 1250 1860.96C1201.59 1852.5 1155.9 1836.36 1109.57 1821.79C1102.28 1819.44 1094.2 1817.62 1091.34 1810.07C1074.94 1767.38 1041.23 1731.06 1042.92 1681.86C1043.44 1668.46 1032.51 1662.6 1028.08 1649.71C1040.06 1632.53 1052.94 1619.13 1076.37 1619.78C1087.18 1626.28 1089.52 1635.26 1088.09 1643.85C1081.71 1681.99 1091.47 1718.18 1101.36 1756.44C1103.84 1759.57 1104.88 1760.74 1107.87 1763.47C1114.9 1769.07 1119.59 1773.49 1124.27 1781.3V1781.17Z" fill="#3F483D"/>
<path d="M1295.96 1091.4C1327.2 1105.2 1330.85 1103.25 1330.33 1075.66C1330.07 1063.42 1326.94 1051.84 1322.52 1037.39C1336.31 1034.53 1336.57 1045.59 1338.65 1055.22C1349.59 1108.33 1351.02 1161.95 1348.42 1216.1C1344.38 1299.27 1324.86 1379.58 1305.2 1459.89C1298.44 1487.87 1291.15 1515.73 1284.38 1543.71C1282.82 1550.35 1280.74 1555.56 1270.71 1552.56C1286.72 1434.12 1295.31 1316.58 1302.86 1199.18C1304.94 1165.47 1300.13 1131.63 1289.32 1095.57C1289.84 1092.06 1291.67 1091.67 1296.22 1091.67L1295.96 1091.4Z" fill="#EDF0E9"/>
<path d="M879.576 1601.42C839.356 1596.21 804.088 1602.85 770.376 1617.69C721.306 1639.42 672.1 1660.25 625.242 1686.93C576.432 1714.79 524.113 1736.26 461.506 1729.89C483.503 1709.06 515.909 1702.16 545.195 1688.88C616.653 1656.6 683.429 1614.04 760.614 1587.75C764.909 1584.5 767.12 1582.8 771.545 1581.63C778.444 1580.98 783.393 1580.2 790.682 1578.64C795.368 1576.42 797.579 1574.99 801.874 1574.21C840.531 1570.96 876.712 1570.57 912.116 1592.44C915.37 1595.43 916.282 1596.99 915.891 1601.15C903.916 1602.85 893.376 1602.2 879.449 1601.55L879.576 1601.42Z" fill="#818A8C"/>
<path d="M1082.76 1621.72C1061.16 1623.41 1051.13 1642.94 1030.31 1646.06C1017.03 1629.14 1030.57 1619.12 1040.59 1609.09C1072.48 1576.94 1109.31 1556.25 1160.21 1564.06C1167.1 1567.31 1171.53 1567.57 1178.17 1568.35C1192.87 1572 1205.5 1575.51 1220.6 1579.81C1224.9 1581.37 1226.46 1582.02 1230.23 1584.36C1240.25 1589.31 1248.07 1592.56 1258.22 1596.99C1262.25 1598.03 1264.07 1597.9 1266.81 1600.24C1281.51 1610.13 1295.31 1617.55 1311.19 1626.41C1315.1 1627.97 1316.92 1627.96 1319.65 1630.44C1343.21 1645.15 1364.3 1660.64 1393.32 1665.45C1397.88 1665.97 1399.7 1665.84 1403.35 1667.8C1425.47 1675.08 1445.78 1680.29 1468.95 1685.89C1474.42 1686.54 1476.5 1687.58 1479.88 1690.31C1481.57 1690.96 1481.18 1691.62 1481.18 1692.01C1466.08 1706.97 1448.9 1706.58 1428.99 1703.98C1377.31 1697.47 1333.45 1677.17 1297.13 1639.94C1289.06 1631.74 1278.39 1627.57 1264.99 1623.93C1251.58 1632 1243.51 1624.45 1233.74 1616.38C1201.07 1581.5 1162.68 1582.54 1120.9 1592.95C1109.83 1606.62 1097.6 1613.78 1082.76 1621.59V1621.72Z" fill="#818A8C"/>
<path d="M581.642 144.281C581.642 153.653 582.683 160.163 581.121 165.89C577.086 179.947 564.201 183.721 552.616 175.261C536.997 163.807 529.316 115.516 540.77 98.8552C547.538 89.0932 555.477 91.3051 562.766 98.0735C575.131 109.658 581.248 124.236 581.769 144.281H581.642Z" fill="#3E5B2D"/>
<path d="M1568.4 1700.44C1572.69 1705.51 1574.25 1709.81 1578.55 1713.06C1591.56 1722.95 1590.39 1733.58 1575.03 1744.95C1565.53 1735.97 1555.24 1736.62 1545.87 1737.66C1521.14 1740.39 1517.11 1726.34 1518.93 1703.43C1534.29 1700.31 1549.65 1700.18 1568.26 1700.44H1568.4Z" fill="#50584D"/>
<path d="M915.642 1605.72C914.601 1601.95 914.473 1600.25 914.473 1596.22C930.873 1596.74 943.368 1603.12 939.984 1624.59C927.358 1624.46 921.242 1617.04 915.515 1605.72H915.642Z" fill="#586159"/>
<path d="M1422.23 3229.43C1425.09 3228.13 1429.65 3228.52 1435.9 3230.34C1433.04 3233.6 1428.35 3233.86 1422.23 3229.43Z" fill="#3F483D"/>
<path d="M326.012 1648.64C328.355 1650.2 330.303 1653.84 332.126 1659.83C327.96 1659.31 325.881 1655.67 326.012 1648.64Z" fill="#50584D"/>
<path d="M1178.57 1567.03C1175.58 1570.54 1171.02 1570.54 1165.04 1566.11C1167.9 1564.68 1172.32 1565.07 1178.57 1567.03Z" fill="#586159"/>
<path d="M1496.55 1695.89C1497.6 1697.19 1493.95 1697.19 1493.95 1697.19C1493.95 1697.19 1491.08 1694.98 1490.43 1693.42C1492 1692.24 1493.82 1693.15 1496.55 1696.02V1695.89Z" fill="#3F483D"/>
<path d="M1480.66 1689.41C1479.36 1690.45 1477.02 1689.93 1473.38 1687.85C1474.68 1686.81 1477.15 1687.33 1480.66 1689.41Z" fill="#3F483D"/>
<path d="M485.07 1682.61C484.549 1680.79 486.113 1679.23 489.887 1677.93C490.538 1679.75 488.975 1681.44 485.07 1682.61Z" fill="#3E5B2D"/>
<path d="M1404.39 1668.15C1402.96 1670.23 1400.74 1669.84 1397.49 1667.24C1398.66 1666.19 1401.01 1666.33 1404.39 1668.15Z" fill="#50584D"/>
<path d="M1320.45 1631.21C1318.63 1632.77 1316.81 1631.99 1314.33 1629.13C1316.03 1626.52 1318.24 1627.04 1320.45 1631.21Z" fill="#586159"/>
<path d="M1267.47 1601.03C1265.78 1602.72 1263.96 1601.94 1261.48 1599.34C1263.05 1596.61 1265.26 1596.99 1267.47 1601.03Z" fill="#586159"/>
<path d="M1231.4 1584.21C1229.58 1586.42 1227.23 1585.77 1224.24 1582.26C1225.67 1581.22 1228.02 1581.87 1231.4 1584.21Z" fill="#586159"/>
<path d="M771.553 1581.48C771.553 1583.3 769.337 1584.86 765.172 1586.42C765.172 1584.73 767.388 1582.91 771.553 1581.48Z" fill="#3F483D"/>
<path d="M801.888 1574.05C801.627 1575.87 799.284 1577.04 795.119 1578.08C795.379 1576.39 797.592 1574.96 801.888 1574.05Z" fill="#3F483D"/>
<path d="M1146.28 2506.41C1140.03 2502.12 1135.48 2499.26 1133 2495.22C1127.01 2485.46 1128.7 2475.7 1136.38 2467.76C1144.19 2459.56 1154.22 2458.64 1163.98 2463.85C1173.74 2469.06 1179.6 2478.95 1175.3 2488.84C1168.28 2504.98 1170.1 2513.57 1188.32 2518.52C1196.78 2520.73 1203.94 2530.75 1200.82 2539.21C1193.66 2558.35 1198.99 2565.25 1218.25 2571.75C1238.17 2578.39 1246.63 2602.99 1238.43 2618.22C1231.27 2631.5 1219.17 2637.88 1203.94 2635.4C1184.29 2632.15 1166.97 2610.8 1172.7 2591.15C1177.64 2574.36 1179.08 2565.9 1160.72 2557.18C1148.62 2551.45 1148.88 2536.61 1157.34 2524.25C1161.25 2518.52 1170.36 2517.22 1171.14 2508.76C1163.46 2502.77 1155.91 2509.93 1146.28 2506.41Z" fill="#EDF0E9"/>
<path d="M1162.56 2388.62C1166.86 2396.3 1170.89 2401.63 1171.93 2407.36C1175.7 2428.45 1169.46 2442.63 1154.1 2447.45C1137.96 2452.52 1124.68 2447.06 1114.92 2433.52C1104.25 2418.82 1103.99 2396.43 1114.92 2384.97C1127.02 2372.35 1140.82 2371.57 1155.01 2381.72C1156.96 2383.15 1158.78 2384.97 1162.43 2388.62H1162.56Z" fill="#EDF0E9"/>
<path d="M1329.68 2787.54C1352.59 2776.6 1366.12 2786.24 1374.19 2803.81C1380.44 2817.34 1377.45 2831.4 1364.3 2840.12C1351.16 2848.84 1337.75 2845.72 1327.21 2834.65C1313.02 2819.82 1311.59 2804.2 1329.55 2787.54H1329.68Z" fill="#EDF0E9"/>
<path d="M1138.35 2278.49C1141.21 2288.77 1139.51 2296.06 1133.92 2301.66C1125.19 2310.38 1115.3 2313.51 1103.85 2305.96C1092.39 2298.41 1090.83 2287.73 1095.65 2276.67C1100.73 2265.09 1110.75 2260.92 1123.37 2264.57C1129.75 2266.39 1134.05 2270.68 1138.35 2278.62V2278.49Z" fill="#EDF0E9"/>
<path d="M1383.71 2850.54C1406.09 2858.61 1417.03 2877.35 1431.74 2891.93C1436.3 2896.49 1437.72 2903.13 1432 2908.2C1429.65 2910.28 1424.06 2911.98 1422.11 2910.67C1403.1 2897.4 1383.84 2883.86 1375.9 2860.56C1375.12 2858.35 1379.28 2854.44 1383.84 2850.54H1383.71Z" fill="#EDF0E9"/>
<path d="M1089.4 2198.33C1088.62 2185.31 1093.7 2180.23 1104.5 2183.62C1109.84 2185.31 1111.79 2191.04 1109.97 2195.33C1106.07 2204.44 1099.69 2208.61 1089.54 2198.2L1089.4 2198.33Z" fill="#EDF0E9"/>
<path d="M879.728 1226.95C814.648 1192.72 752.303 1194.15 689.566 1225.52C679.153 1230.72 667.434 1244.91 656.11 1234.63C643.745 1223.3 656.109 1208.47 660.794 1196.62C678.887 1150.55 732.779 1117.36 783.932 1118.79C830.79 1120.09 884.282 1157.7 901.203 1201.18C908.492 1219.92 906.932 1222.26 879.728 1227.08V1226.95Z" fill="#2B2A28"/>
<path d="M840.796 1395.76C836.631 1421.66 826.744 1441.71 809.953 1457.59C784.572 1481.54 752.937 1477.76 732.632 1449.25C700.743 1404.35 705.431 1314.41 741.746 1272.76C768.559 1241.91 795.63 1243.21 826.999 1279.26C827.389 1283.3 826.484 1284.86 823.23 1287.6C802.014 1290.07 778.842 1283.17 774.286 1312.19C771.162 1331.85 767.778 1352.81 783.788 1368.29C803.963 1387.95 815.81 1359.05 835.464 1358.27C845.617 1369.6 841.19 1381.57 840.669 1395.76H840.796Z" fill="#2B2A28"/>
<path d="M1218.77 1403.29C1215.39 1428.02 1205.89 1447.03 1191.05 1462.78C1166.45 1488.94 1135.21 1486.34 1114.91 1456.66C1098.77 1433.1 1094.73 1406.03 1095.12 1377.91C1095.64 1344.85 1100.59 1312.96 1121.03 1285.76C1144.45 1254.39 1167.88 1252.57 1201.46 1280.42C1204.32 1286.41 1203.94 1289.8 1198.86 1294.22C1181.94 1297.73 1165.41 1295.65 1157.6 1312.83C1148.75 1332.23 1145.11 1353.31 1160.07 1369.71C1181.81 1393.53 1193.91 1360.86 1214.09 1358.65C1223.59 1372.71 1219.16 1386.76 1218.77 1403.29Z" fill="#2B2A28"/>
<path d="M1118.82 1153.65C1183.64 1123.32 1254.32 1153.78 1273.45 1217.42C1275.79 1225.23 1276.83 1232.39 1269.28 1237.6C1263.55 1241.5 1257.31 1240.33 1251.45 1237.08C1250.41 1236.43 1249.24 1235.91 1248.2 1235.13C1195.35 1189.44 1139.39 1198.81 1082.51 1226.02C1076 1229.14 1068.97 1235.39 1062.59 1227.06C1058.29 1221.46 1062.33 1215.08 1064.8 1209.36C1075.21 1184.89 1097.34 1171.61 1118.82 1153.65Z" fill="#2B2A28"/>
<path d="M1128.45 1040.94C1145.76 1048.62 1160.73 1054.87 1175.17 1062.16C1180.64 1064.89 1185.85 1069.71 1182.2 1077.13C1179.21 1083.37 1172.97 1086.37 1166.59 1084.42C1152.4 1079.86 1138.34 1074.78 1124.81 1068.54C1096.43 1055.52 1069.87 1039.12 1044.75 1020.51C1036.68 1014.52 1027.18 1007.49 1036.03 996.297C1043.84 986.275 1051.53 994.865 1058.69 999.16C1081.07 1012.7 1103.46 1026.24 1128.32 1040.94H1128.45Z" fill="#EDF0E9"/>
<path d="M841.582 1396.02C837.287 1386.91 841.974 1374.42 833.384 1361.4C816.073 1339.66 821.406 1315.98 820.234 1290.86C822.317 1286.69 823.234 1285.39 826.228 1282.91C839.244 1290.85 845.882 1302.57 846.012 1316.63C846.273 1342.27 849.786 1368.04 841.455 1396.02H841.582Z" fill="#3F483D"/>
<path d="M1219.57 1403.54C1214.88 1391.96 1220.61 1376.86 1211.11 1361.24C1197.18 1346.8 1199.26 1331.83 1202.25 1313.87C1204.47 1309.05 1205.64 1307.23 1209.94 1304.62C1232.19 1334.69 1225.03 1368.01 1219.57 1403.54Z" fill="#3F483D"/>
<path d="M1017.41 1051.76C1014.81 1056.7 1012.73 1060.22 1009.6 1061.52C1000.23 1065.55 992.029 1063.73 991.248 1052.15C990.727 1042.52 999.06 1040.83 1006.61 1040.96C1011.69 1040.96 1015.59 1044.08 1017.28 1051.63L1017.41 1051.76Z" fill="#EDF0E9"/>
<path d="M1056.73 1060.06C1066.76 1068.91 1066.62 1075.94 1055.56 1080.37C1051.13 1082.19 1044.89 1081.41 1042.93 1076.46C1038.77 1065.92 1044.24 1060.58 1056.73 1060.19V1060.06Z" fill="#EDF0E9"/>
<path d="M1297.79 1089.6C1296.88 1092.07 1295.19 1092.59 1290.63 1092.59C1280.87 1078.15 1273.45 1064.09 1269.42 1039.23C1287.25 1056.93 1286.21 1075.8 1297.79 1089.6Z" fill="#818A8C"/>
<path d="M1193.15 1294.25C1196.27 1290.09 1198.49 1288.39 1201.87 1284.75C1208.77 1286.7 1210.2 1293.08 1212.41 1301.54C1211.89 1304.8 1210.72 1305.71 1207.86 1308.05C1198.49 1308.44 1194.19 1303.88 1193.15 1294.25Z" fill="#3F483D"/>
<path d="M1355.84 3124.42C1357.53 3134.57 1352.71 3136.52 1345.81 3134.44C1342.04 3133.4 1339.56 3129.49 1341.38 3126.11C1343.99 3121.29 1349.07 3121.03 1355.84 3124.42Z" fill="#679441"/>
<path d="M747.986 1715.04C748.897 1716.08 749.811 1717.25 750.853 1718.29C750.202 1717.9 749.552 1717.51 748.38 1716.08C747.99 1715.04 747.986 1715.04 747.986 1715.04Z" fill="#50584D"/>
<path d="M727.177 1721.94C726.136 1720.24 727.438 1718.16 731.473 1715.95C732.384 1717.64 730.951 1719.59 727.177 1721.94Z" fill="#50584D"/>
<path d="M1569.44 1745.75C1572.04 1748.09 1572.56 1750.83 1571.78 1753.04C1564.1 1775.43 1510.61 1827.1 1489 1827.23C1464.27 1827.36 1449.17 1852.61 1426.66 1849.49C1405.31 1846.49 1385.78 1844.93 1364.05 1849.23C1344.39 1853.26 1321.61 1857.82 1303.13 1840.38C1296.36 1833.87 1286.34 1836.21 1277.62 1836.08C1264.99 1835.82 1252.5 1835.95 1239.87 1836.08C1203.43 1836.47 1169.98 1830.09 1148.63 1793.39C1158.53 1789.87 1167.77 1793 1177.14 1797.42C1215.28 1814.99 1256.27 1819.16 1297.66 1820.98C1327.6 1822.28 1357.54 1818.9 1387.35 1827.23C1402.32 1831.4 1419.88 1831.66 1435.5 1824.5C1462.71 1812.13 1488.48 1796.9 1516.73 1786.36C1531.3 1780.89 1512.69 1777.38 1511.39 1769.7C1530.26 1764.23 1549.14 1756.29 1569.57 1745.88L1569.44 1745.75Z" fill="#50584D"/>
<path d="M1080.31 1625.6C1085.64 1606.21 1100.61 1602.04 1116.36 1595.4C1125.47 1608.29 1130.03 1620.53 1117.53 1633.28C1106.34 1644.6 1110.89 1659.44 1111.67 1672.85C1112.58 1689.25 1126.12 1690.81 1138.75 1693.67C1148.51 1695.89 1153.32 1704.61 1153.06 1713.59C1152.67 1726.6 1138.23 1719.18 1132.5 1725.3C1134.06 1732.2 1141.22 1733.76 1145.51 1738.06C1149.03 1741.57 1153.2 1744.3 1157.1 1747.56C1146.69 1757.71 1132.76 1764.09 1126.38 1780.75C1119.22 1779.58 1112.58 1775.93 1104.51 1770.21C1098.66 1762.4 1080.17 1766.3 1090.32 1749.51C1092.28 1746.39 1090.32 1739.62 1088.37 1735.59C1072.36 1704.74 1075.75 1672.46 1080.69 1639.92C1081.22 1636.27 1080.69 1632.5 1080.69 1625.6H1080.31Z" fill="#50584D"/>
<path d="M1232.58 1616.65C1240.78 1616.78 1248.98 1619.91 1259.78 1623.42C1250.8 1633.83 1240.13 1636.83 1232.58 1616.65Z" fill="#50584D"/>
<path d="M818.93 1286.29C832.076 1308.42 834.548 1330.29 830.903 1356.32C826.738 1365.69 823.484 1372.98 818.148 1377.93C801.357 1393.42 782.746 1390.81 771.162 1370.77C757.755 1347.47 757.88 1322.48 768.683 1298.27C778.705 1275.75 790.034 1273.15 819.19 1286.29H818.93Z" fill="#EDF0E9"/>
<path d="M1191.44 1291.22C1196.91 1296.68 1199.77 1301.63 1204.33 1308.01C1208.37 1324.02 1210.45 1338.46 1208.23 1356.43C1191.31 1389.1 1181.42 1395.99 1165.02 1390.27C1149.66 1384.93 1141.33 1366.45 1141.98 1339.77C1142.89 1302.8 1155.39 1289.65 1191.44 1291.35V1291.22Z" fill="#EDF0E9"/>
<path d="M1108.92 1717.63C1112.57 1716.59 1113.87 1717.63 1112.7 1719.71C1112.44 1720.1 1109.7 1719.06 1108.92 1717.63Z" fill="#586159"/>
<path d="M1103.08 1768.02C1103.99 1768.67 1102.94 1763.21 1104.12 1767.76C1103.07 1768.28 1103.21 1767.89 1103.08 1768.02Z" fill="#586159"/>
</svg>
