<svg width="2048" height="3906" viewBox="0 0 2048 3906" fill="none" xmlns="http://www.w3.org/2000/svg">
<path d="M1641.24 3439.58C1631.6 3457.02 1604.79 3457.41 1588.78 3445.69C1572.77 3433.85 1564.7 3414.32 1557.54 3395.84C1506.78 3265.81 1456.15 3135.78 1405.38 3005.75C1397.44 2985.19 1389.25 2963.97 1390.29 2941.97C1391.33 2919.98 1404.35 2896.94 1425.56 2891.34C1443.26 2886.65 1462.26 2895.12 1475.02 2908.26C1487.78 2921.41 1495.32 2938.46 1502.48 2955.38C1566.13 3106.5 1609.61 3265.16 1641.24 3439.71V3439.58Z" fill="#3C5B31" stroke="#231F20" stroke-width="5" stroke-miterlimit="10"/>
<path d="M1718.03 3511.14C1656.99 3506.32 1595.53 3513.22 1551.27 3555.39C1554.92 3612.4 1551.27 3659.43 1558.46 3713.38C1562.24 3733.03 1574.85 3785.82 1592.03 3796.1C1608.3 3805.73 1616.71 3809.72 1635.19 3805.69C1713.11 3782.91 1836.59 3759.25 1914.51 3742.15C1956.03 3733.04 2004.12 3715.4 2030.8 3682.21C2045.9 3663.34 2047.62 3640.46 2046.48 3616.27C2045.46 3594.6 2038.28 3572.99 2025.61 3555.39C1998.8 3518.17 1951.41 3498.77 1905.6 3499.68C1859.78 3500.59 1815.53 3520.25 1779.21 3548.1C1774.27 3551.93 1770.19 3554.95 1765.86 3558.73C1761.07 3562.92 1755.98 3567.67 1749.08 3567.12C1742.46 3566.59 1734.83 3562.41 1728.7 3556.98C1724.45 3553.23 1720.92 3548.87 1718.95 3544.72C1714.13 3534.57 1713.22 3523.11 1718.17 3511.01L1718.03 3511.14Z" fill="white"/>
<path d="M1736.9 3505.29C1733.13 3512.06 1724.27 3514.54 1716.59 3513.75C1708.91 3512.97 1701.63 3509.85 1693.95 3508.16C1669.09 3502.82 1643.83 3514.01 1621.71 3526.51C1599.58 3539 1577.19 3553.45 1551.81 3555.27C1542.31 3555.93 1532.03 3554.49 1524.87 3548.38C1516.54 3541.22 1514.06 3528.85 1517.06 3518.31C1520.05 3507.77 1527.6 3499.04 1536.58 3492.8C1545.43 3486.42 1555.72 3482.26 1565.74 3478.09C1584.61 3470.28 1603.62 3462.47 1622.49 3454.66C1640.32 3447.37 1658.41 3439.95 1677.55 3438.39C1696.68 3436.83 1717.37 3442.17 1730 3456.75C1741.97 3470.54 1744.45 3491.76 1736.9 3505.16V3505.29Z" fill="white" stroke="#231F20" stroke-width="2.15" stroke-miterlimit="10"/>
<path d="M1555.85 3562.44C1551.94 3631.16 1548.43 3702.62 1575.37 3766.01C1581.1 3779.42 1588.65 3792.82 1601.27 3800.24C1612.73 3807.01 1626.92 3807.66 1640.06 3805.32C1653.21 3802.98 1665.44 3797.64 1677.93 3792.95C1717.91 3782.91 1764.94 3772.37 1806.62 3764.93C1863.07 3754.86 1914.01 3744.01 1967.54 3724.1C1991.1 3715.38 2014.79 3703.53 2029.63 3683.23C2042.25 3665.79 2047.07 3643.4 2046.03 3621.79C2043.3 3564 1997.61 3511.03 1940.73 3499.96C1914.7 3494.89 1887.76 3497.88 1862.12 3504.65C1828.27 3513.63 1795.99 3529.38 1770.22 3553.07C1744.58 3576.76 1725.97 3608.78 1721.41 3643.53" stroke="#231F20" stroke-width="2.15" stroke-miterlimit="10"/>
<path d="M1715.55 3515.06C1712.95 3525.73 1714.65 3537.32 1719.98 3546.95C1725.32 3556.58 1734.43 3564 1744.97 3567.25" stroke="#231F20" stroke-width="2.15" stroke-miterlimit="10"/>
<path d="M2040.31 3651.88C2015.45 3673.87 1985.12 3688.97 1953.49 3699.25C1921.86 3709.53 1889.06 3715.13 1856.26 3720.21" stroke="#231F20" stroke-miterlimit="10"/>
<path d="M1582.92 3769.55C1644.36 3766.43 1705.54 3755.49 1764.24 3737.14" stroke="#231F20" stroke-miterlimit="10"/>
<path d="M819.138 3405.85C878.621 3342.59 938.236 3278.94 986.135 3206.58C1034.03 3134.21 1069.96 3051.95 1076.6 2965.39C1077.77 2949.9 1078.16 2933.76 1084.93 2919.71C1091.7 2905.65 1107.06 2894.19 1122.15 2897.84C1132.57 2900.31 1140.38 2909.03 1146.5 2917.75C1186.72 2975.02 1188.67 3052.99 1164.72 3118.59C1140.77 3184.19 1093.78 3239.12 1041.97 3286.11C990.17 3333.09 932.898 3373.57 880.964 3420.43C871.332 3429.15 861.31 3438.26 848.945 3442.17C836.45 3445.94 820.702 3442.56 814.715 3431.1C808.727 3419.52 819.662 3402.08 819.011 3405.85H819.138Z" fill="#3C5B31" stroke="#231F20" stroke-width="5" stroke-miterlimit="10"/>
<path d="M563.769 3706.25C552.705 3631.41 548.276 3555.53 550.88 3479.9C551.53 3461.42 554.137 3443.81 563.769 3428.06C573.661 3411.92 589.665 3400.12 607.367 3393.48C642.51 3380.2 692.436 3374.59 728.881 3383.7C737.342 3385.79 751.659 3399.29 754.057 3399.29C754.057 3393.48 762.044 3378.77 773.238 3372.65C785.212 3366.14 803.297 3371.54 812.799 3381.3C822.3 3391.06 824.084 3395.56 828.64 3408.44C836.775 3438.85 843.084 3460.93 845.167 3488C847.249 3515.07 845.435 3542.77 827.343 3563.08C814.718 3577.39 796.886 3586.64 785.823 3602.12C779.835 3610.59 774.039 3618.47 768.442 3627.06C762.845 3635.65 748.885 3645.72 738.472 3646.24C794.816 3681.01 812.799 3732.56 809.897 3751.29C812.799 3760.13 820.574 3835.76 800.79 3872.21C791.679 3889 776.319 3905.01 757.185 3905.14C752.858 3905.14 723.578 3890.8 715.404 3883.79C695.229 3866.48 674.922 3849.17 654.747 3831.86C632.49 3812.72 610.105 3793.46 592.533 3770.03C588.707 3764.93 565.2 3717.97 563.508 3706.38L563.769 3706.25Z" fill="white"/>
<path d="M844.913 3505.14C846.866 3527.66 839.449 3550.83 824.741 3567.88C821.357 3571.91 817.45 3575.69 812.634 3577.77C807.818 3579.85 801.962 3580.11 797.406 3577.38C790.377 3572.95 789.337 3563.32 788.947 3554.99C788.166 3537.16 787.516 3519.2 786.735 3501.37C786.084 3486.4 785.43 3471.04 780.094 3456.98C775.148 3443.84 766.3 3432.51 760.964 3419.37C755.757 3406.35 754.846 3389.82 764.478 3379.67C772.158 3371.6 784.912 3369.65 795.455 3373.29C805.998 3376.93 814.33 3385.39 819.796 3395.16C825.263 3404.79 828.255 3415.72 830.728 3426.53C836.845 3452.95 842.573 3479.63 844.786 3504.88L844.913 3505.14Z" stroke="#231F20" stroke-width="2.15" stroke-miterlimit="10"/>
<path d="M795.837 3583.9C786.856 3607.46 769.799 3627.89 748.062 3640.65C726.326 3653.54 700.169 3658.61 675.178 3655.1" stroke="#231F20" stroke-width="2.15" stroke-miterlimit="10"/>
<path d="M742.343 3652.91C778.137 3674.9 805.213 3710.83 816.536 3751.31C827.86 3791.79 823.305 3836.56 804.042 3873.92C795.972 3889.54 782.565 3905.42 764.993 3904.9C756.533 3904.64 748.723 3900.6 741.434 3896.18C721.78 3884.33 703.687 3870.28 685.594 3856.09C653.575 3830.97 621.032 3805.46 597.603 3772.27C572.742 3736.99 559.336 3694.69 552.828 3652.13C546.32 3609.56 546.584 3566.09 546.714 3523.01C546.845 3483.96 548.928 3440.36 577.303 3413.67C595.135 3396.88 619.991 3390.24 643.941 3385.3C662.423 3381.39 681.301 3378.01 700.174 3379.44C719.047 3380.74 738.05 3387.25 751.717 3400.27L752.626 3401.05" stroke="#231F20" stroke-width="2.15" stroke-miterlimit="10"/>
<path d="M626.497 3394.5C597.992 3421.45 584.068 3461.14 580.814 3500.19C577.56 3539.24 583.804 3578.55 590.182 3617.21" stroke="#231F20" stroke-miterlimit="10"/>
<path d="M790.769 3886.42C750.029 3871.59 714.491 3845.03 682.732 3815.62C661.516 3795.83 641.473 3774.49 625.984 3749.89C610.495 3725.29 599.689 3697.43 597.867 3668.41" stroke="#231F20" stroke-miterlimit="10"/>
<path d="M1244.02 3229.45C1115.94 3170.1 1001 3095.78 900.909 3000.63C818.518 2922.41 749.926 2832.46 691.744 2734.19C559.631 2511.23 455.631 2276.29 383.522 2027.42C378.186 2008.81 370.898 1998.27 349.292 1994.49C241.128 1975.62 150.67 1924.73 82.5964 1837.39C31.964 1772.31 -1.75185 1700.59 0.0703948 1615.86C0.721196 1583.71 10.2265 1554.03 26.4965 1526.31C31.1823 1518.24 36.649 1512.12 49.2746 1512.51C56.6937 1573.03 78.9486 1627.05 131.273 1661.93C178.651 1693.56 231.629 1710.87 293.325 1713.34C281.35 1672.34 271.324 1634.99 259.609 1598.28C219.129 1471.12 199.475 1341.09 204.552 1207.67C206.895 1145.85 213.666 1084.8 240.479 1027.53C268.464 967.657 311.804 925.095 373.5 900.755C435.326 876.415 498.194 857.411 563.274 841.531C671.698 815.109 767.11 757.709 848.331 679.352C880.09 648.764 890.76 607.893 897.268 567.152C911.455 477.472 903.253 389.095 875.92 302.278C848.976 216.893 797.177 192.942 710.88 200.231C674.826 203.355 639.55 214.68 603.625 220.928C515.377 236.417 491.428 188.125 500.8 114.585C504.444 85.8194 519.279 62.9138 542.969 45.7327C562.493 31.5452 583.324 20.0893 607.013 14.6226C747.846 -17.6572 879.435 5.25167 1000.61 83.6082C1032.63 104.304 1057.5 133.589 1075.33 167.561C1106.7 227.305 1127.13 289.911 1127.26 358.635C1127.39 423.065 1122.05 486.974 1115.41 550.882C1108.78 613.88 1110.99 676.617 1117.76 739.354C1124.79 803.133 1156.16 849.731 1215.38 876.414C1238.29 886.696 1261.46 896.59 1284.23 907.002C1337.86 931.603 1371.97 970.52 1384.98 1030.13C1402.29 1108.88 1401.38 1187.63 1394.35 1266.76C1385.89 1363.86 1355.95 1456.41 1334.21 1550.77C1332.26 1559.37 1331.22 1568.35 1328.23 1576.55C1321.85 1593.73 1330.44 1602.32 1344.63 1608.7C1383.55 1626.14 1421.68 1646.05 1461.64 1660.63C1512.14 1679.11 1562.65 1679.11 1609.11 1645.79C1629.16 1631.47 1643.35 1612.73 1654.02 1590.87C1672.89 1552.34 1684.87 1511.47 1693.59 1469.82C1708.04 1470.6 1711.42 1480.1 1714.54 1489.6C1728.99 1533.85 1729.51 1579.15 1718.32 1623.67C1701.79 1688.88 1673.94 1749.4 1633.72 1803.68C1579.44 1876.96 1505.25 1918.87 1416.61 1935.14C1373.52 1943.08 1330.44 1955.05 1285.8 1948.94C1271.61 1946.98 1268.87 1953.75 1268.61 1966.12C1267.44 2045.51 1267.19 2125.17 1286.32 2202.75C1328.1 2371.31 1378.86 2537.13 1447.2 2697.1C1493.53 2805.65 1558.74 2902.36 1633.58 2993.08C1665.34 3031.61 1690.2 3073 1695.41 3124.02C1700.48 3173.22 1684.09 3212.53 1644.26 3242.6C1589.33 3283.99 1526.2 3289.85 1461.12 3284.9C1386.54 3279.3 1315.6 3258.09 1243.62 3229.71L1244.02 3229.45Z" fill="#2B2A28"/>
<path d="M715.95 1967.43C766.973 1950.12 817.61 1939.45 863.817 1914.72C911.716 1889.21 960.135 1865.13 987.208 1811.63C1050.47 1864.74 1115.8 1906.26 1192.86 1932.29C1207.05 1952.34 1202.1 1970.3 1187.13 1981.1C1160.84 2000.11 1156.67 2025.22 1158.23 2054.12C1158.76 2064.14 1158.76 2074.3 1156.54 2084.19C1152.9 2100.59 1145.48 2106.45 1131.29 2092.65C1121.27 2082.89 1110.34 2071.3 1096.15 2085.36C1083.78 2097.73 1084.56 2112.95 1094.2 2126.75C1105.91 2143.28 1118.41 2137.43 1132.98 2128.31C1155.24 2114.52 1162.79 2119.98 1165.4 2151.74C1172.82 2244.93 1189.47 2336.31 1222.79 2423.78C1281.11 2576.85 1350.1 2724.45 1446.81 2857.73C1452.66 2865.93 1457.61 2875.04 1464.51 2882.07C1488.58 2906.67 1483.25 2928.93 1451.23 2954.44C1480.12 2952.62 1500.69 2925.54 1518.39 2955.35C1530.37 2975.65 1522.55 2991.15 1508.24 3008.72C1469.84 3025.9 1436.78 3009.63 1404.37 2997.78C1296.34 2958.08 1213.43 2884.15 1137.67 2800.33C1060.75 2715.34 989.288 2626.05 931.757 2526.86C882.556 2442.13 842.077 2352.45 808.626 2260.43C779.47 2180.12 749.922 2099.94 719.204 2020.28C712.956 2003.88 704.76 1987.61 716.083 1967.56L715.95 1967.43Z" fill="#679441"/>
<path d="M1271.22 1548.68C1225.53 1534.36 1181.93 1519.13 1134.42 1518.61C1076.5 1518.09 1032.76 1541.13 1005.04 1592.67C1002.7 1596.97 999.837 1601 995.672 1607.9C970.421 1588.25 944.648 1571.72 916.794 1558.18C855.228 1528.24 793.793 1527.07 732.358 1557.79C688.624 1579.66 645.541 1602.56 599.465 1625.73C591.785 1622.09 588.789 1616.49 587.618 1610.24C564.319 1479.17 536.075 1348.62 555.599 1213.91C564.45 1153.12 588.658 1100.28 632.132 1057.71C662.329 1028.17 686.412 991.202 730.146 973.37C751.232 972.329 768.409 975.323 784.549 982.872C808.238 993.935 813.574 1007.6 803.552 1031.29C800.168 1039.36 795.613 1046.91 791.318 1054.59C783.248 1069.17 786.893 1081.27 799.128 1091.16C809.932 1099.88 819.041 1095.2 829.584 1088.43C886.334 1051.59 945.947 1019.05 995.017 971.416C1012.07 954.886 1031.34 957.881 1051.25 962.827C1095.24 973.89 1136.37 992.894 1176.85 1012.42C1218.77 1032.59 1260.42 1046.26 1306.75 1029.47C1309.88 1028.3 1314.04 1030.51 1319.77 1032.98C1334.22 1047.56 1335.78 1063.96 1336.82 1080.23C1337.99 1100.02 1330.7 1112.25 1305.19 1105.09C1288.27 1089.21 1282.68 1069.95 1273.57 1052.77C1271.09 1048.47 1267.45 1055.24 1271.35 1052.11C1282.42 1066.95 1286.19 1085.57 1298.42 1103.27C1310.92 1134.9 1312.22 1165.09 1310.66 1195.29C1304.54 1312.96 1300.64 1431.01 1270.83 1548.94L1271.22 1548.68Z" fill="#679441"/>
<path d="M1617.7 3194.57C1613.53 3205.37 1605.2 3206.93 1596.35 3211.36C1545.07 3203.68 1496.52 3216.3 1447.71 3214.09C1424.8 3213.05 1402.15 3212.27 1385.1 3193.53C1380.67 3188.58 1375.34 3185.85 1368.44 3186.37C1326.79 3189.36 1293.33 3167.36 1259.88 3148.23C1116.32 3065.97 995.398 2957.94 888.926 2830.77C775.687 2695.53 686.136 2546.76 604.785 2390.96C547.905 2282.01 508.207 2166.82 462.13 2053.84C456.533 2039.91 450.547 2025.6 457.186 2007.64C500.008 2001.78 541.528 2002.82 585.522 1994.62C617.281 2026.12 633.685 2064.91 647.742 2103.3C691.606 2223.05 751.87 2334.6 810.182 2447.45C889.58 2601.17 993.447 2735.62 1118.27 2854.85C1229.17 2960.67 1361.28 3027.96 1507.19 3070.39C1530.49 3077.16 1554.96 3071.57 1581.12 3078.08C1618.09 3109.7 1623.55 3148.88 1617.56 3194.57H1617.7Z" fill="#3E5B2D"/>
<path d="M1124.65 847.276C1156.02 876.953 1188.56 901.034 1223.83 920.428C1250.91 935.396 1273.29 954.528 1292.43 980.691C1271.86 999.954 1250.39 996.702 1227.22 986.159C1178.02 963.772 1129.47 939.431 1077.4 923.812C1062.95 919.517 1048.64 914.961 1033.28 914.18C1009.46 912.879 989.153 918.734 970.801 934.874C935.918 965.462 902.075 997.613 861.855 1018.44C855.477 1017.92 852.877 1015.31 852.227 1011.41C844.417 958.174 805.758 938.388 759.811 931.75C731.046 927.585 707.098 919.257 686.272 898.562C674.948 887.368 659.591 880.078 646.055 871.097C644.883 859.252 655.292 860.814 661.149 858.471C748.486 824.63 821.247 769.31 886.457 703.579C924.724 665.051 937.738 613.64 942.945 562.357C952.316 471.765 948.675 381.435 920.3 293.316C903.9 242.554 879.951 197.386 829.709 173.436C777.645 148.706 722.714 149.488 667.396 161.593C666.225 161.853 665.056 162.505 663.755 162.765C649.047 165.499 633.95 176.95 620.283 169.921C606.486 162.893 614.29 144.801 611.297 131.785C606.35 110.699 593.075 93.9107 583.053 75.2978C598.021 58.8976 617.679 56.9432 635.511 53.6892C747.188 33.1238 853.267 47.441 952.58 105.232C996.704 130.874 1028.2 166.668 1049.16 212.875C1073.5 266.631 1083.65 322.469 1082.48 381.562C1080.92 454.712 1072.85 527.212 1068.16 599.972C1063.74 668.566 1075.32 735.341 1094.45 800.811C1099.4 817.862 1110.85 831.917 1124.78 846.885L1124.65 847.276Z" fill="#679441"/>
<path d="M1584.64 3079.22C1515.66 3094.84 1455.52 3064.91 1395 3042.39C1343.72 3023.26 1295.42 2996.05 1248.18 2967.55C1204.96 2941.52 1165.52 2910.66 1128.43 2877.21C1058.4 2814.09 996.703 2742.63 936.96 2670C901.947 2627.57 872.665 2580.19 847.023 2531.38C813.702 2467.99 773.868 2408.25 744.452 2342.78C709.049 2264.03 665.971 2188.8 639.549 2105.76C627.834 2069.05 606.747 2035.21 589.436 1997.33C630.046 1984.58 670.918 1974.68 714.912 1964.92C713.48 2000.98 732.738 2031.17 744.973 2061.89C766.059 2114.35 786.625 2166.93 804.067 2220.69C826.584 2290.06 860.559 2354.62 888.544 2421.65C920.823 2498.97 968.201 2566.52 1014.15 2635.38C1043.3 2679.24 1078.84 2718.42 1113.72 2757.73C1142.87 2790.53 1169.56 2825.93 1203.27 2854.44C1239.45 2885.28 1271.47 2921.99 1314.42 2943.73C1372.22 2973.14 1428.45 3008.29 1500.16 3008.42C1510.71 3010.11 1516.83 3017.14 1523.86 3016.75C1566.81 3014.01 1577.09 3043.95 1584.64 3079.22Z" fill="#4E6F36"/>
<path d="M937.227 1624.19C935.535 1635.13 932.414 1643.33 929.81 1651.66C922.001 1677.17 923.302 1686.02 945.559 1698.25C959.096 1705.8 957.405 1712.18 956.364 1724.68C952.719 1765.94 928.121 1790.8 893.889 1806.29C871.632 1816.31 863.559 1838.18 845.206 1851.84C789.628 1892.97 729.756 1922.39 662.073 1934.36C591.266 1946.99 520.323 1943.61 448.865 1936.32C391.595 1930.46 336.022 1915.36 278.621 1909.76C248.945 1906.9 217.704 1897.79 188.157 1887.9C181.128 1885.55 173.452 1882.69 167.985 1877.88C124.641 1838.96 89.4949 1794.7 73.4851 1736.91C69.0597 1721.03 70.7553 1709.84 83.6412 1700.86C97.0477 1691.61 109.669 1691.48 125.289 1700.6C168.632 1725.85 214.967 1743.94 269.374 1746.28C272.888 1771.01 247.51 1781.29 243.475 1800.56C312.721 1859.39 394.719 1823.08 462.403 1832.58C462.663 1832.58 453.943 1834.66 440.667 1822.04C534.773 1793.01 630.7 1778.56 712.701 1721.55C718.037 1718.43 721.035 1716.61 726.371 1713.74C731.838 1711.27 735.094 1710.49 740.951 1710.75C746.418 1712.83 747.849 1715.17 747.459 1718.69C748.24 1715.56 747.974 1712.44 747.974 1707.1C763.853 1681.98 782.728 1668.18 811.624 1663.63C844.684 1658.29 873.059 1641.89 876.183 1599.59C887.246 1592.95 896.357 1593.21 908.462 1597.51C923.04 1602.2 927.598 1613.91 937.1 1624.06L937.227 1624.19Z" fill="#3F483D"/>
<path d="M398.5 952.546C462.669 928.336 522.798 898.008 592.043 906.338C605.971 908.03 619.38 908.81 633.697 918.442C632.656 939.528 617.555 950.202 605.059 962.047C569.265 996.019 539.069 1034.15 511.475 1075.03C489.087 1108.22 473.211 1142.84 468.785 1182.41C460.976 1252.3 448.871 1322.2 449.522 1392.36C450.303 1468.89 457.332 1545.43 472.821 1620.79C476.856 1640.31 482.714 1660.23 470.349 1682.22C438.72 1696.02 407.869 1702.92 373.377 1707.87C356.456 1697.32 350.21 1682.1 346.175 1666.22C299.708 1479.57 279.402 1291.35 316.368 1100.28C327.432 1043.4 351.121 993.286 398.239 952.546H398.5Z" fill="#3E5B2D"/>
<path d="M470.993 1684.71C470.733 1635.51 452.642 1588.91 448.997 1540.49C448.607 1535.54 445.74 1530.6 446.131 1525.91C450.296 1478.15 434.291 1431.42 438.066 1383.78C441.45 1340.3 446.526 1297.09 451.082 1253.75C455.247 1214.05 457.59 1174.35 467.612 1135.3C470.476 1124.24 473.989 1113.69 479.847 1104.06C521.368 1036.38 569.918 974.554 633.306 921.969C647.363 922.62 655.688 930.299 663.628 938.369C681.72 956.722 703.072 968.307 731.187 972.082C692.79 1007.75 654.517 1044.71 621.065 1085.06C589.957 1122.55 571.474 1167.45 565.487 1218.21C560.541 1259.6 556.38 1300.87 559.894 1341.74C565.621 1408.77 572.125 1475.8 585.271 1542.05C590.348 1567.7 597.508 1593.21 596.857 1623.01C564.708 1645.92 533.341 1666.49 494.293 1677.81C490.258 1679.11 488.957 1680.15 485.573 1682.24C480.106 1683.8 476.851 1684.32 470.993 1684.84V1684.71Z" fill="#4E6F36"/>
<path d="M1585.68 3083.95C1579.04 3070.8 1574.74 3059.35 1568.75 3048.67C1560.94 3034.75 1557.04 3015.22 1531.92 3028.37C1521.5 3033.83 1511.88 3023.03 1504.59 3010.79C1504.07 3006.11 1504.58 3003.64 1505.76 3001.42C1517.04 2981.38 1512.79 2961.16 1493 2940.77C1491.05 2960.03 1483.5 2973.7 1463.45 2970.71C1452.26 2969.02 1444.97 2960.94 1444.71 2950.14C1444.32 2928.01 1460.59 2924.24 1479.6 2923.85C1311.43 2680.71 1171.89 2427.55 1153.54 2123.49C1140.53 2124.4 1140.66 2135.73 1135.06 2140.81C1118.01 2156.55 1100.43 2155.77 1086.9 2137.29C1077.66 2124.54 1074.53 2109.96 1078.18 2094.47C1081.3 2081.19 1089.89 2072.21 1102.65 2068.04C1116.83 2063.49 1126.86 2070.52 1134.54 2081.71C1137.92 2086.66 1140.92 2091.86 1149.9 2096.94C1149.9 2074.29 1148.34 2051.51 1150.29 2029C1152.24 2007.65 1149.51 1983.44 1181.4 1976.67C1196.76 1973.42 1191.03 1953.11 1194.54 1937.23C1209.25 1932.81 1218.23 1935.54 1217.84 1954.02C1217.06 1994.24 1217.45 2034.59 1219.14 2074.81C1222.92 2163.45 1243.87 2248.71 1268.6 2333.44C1303.09 2451.89 1340.71 2569.03 1386.53 2683.57C1436.12 2807.36 1507.45 2917.99 1591.01 3021.21C1608.45 3042.81 1625.9 3064.55 1635.53 3090.85C1649.07 3127.68 1655.31 3164.38 1619.91 3196.66C1615.87 3158.14 1610.14 3119.74 1585.54 3083.95H1585.68Z" fill="#EDF0E9"/>
<path d="M456.021 2005.03C458.494 2020.91 463.567 2035.23 468.903 2049.16C497.278 2122.83 523.44 2197.67 555.98 2269.65C599.453 2365.58 648.919 2458.51 700.593 2550.4C744.977 2629.41 796.257 2703.6 853.397 2773.5C919.128 2853.94 985.254 2934.12 1066.34 3001.15C1126.48 3051 1189.6 3095.52 1255.73 3136.52C1283.84 3153.96 1314.29 3165.02 1343.97 3178.56C1345.14 3179.08 1346.44 3179.34 1347.49 3179.99C1363.23 3190.4 1370.27 3162.03 1383.93 3170.88C1394.22 3177.65 1389.66 3195.74 1408.02 3200.55C1440.56 3208.88 1473.87 3209.14 1505.24 3203.81C1534.92 3198.73 1561.99 3199.25 1591.93 3210.06C1570.71 3228.8 1544.29 3234.66 1515.91 3234.14C1492.09 3233.75 1468.41 3233.09 1441.2 3232.44C1433.26 3232.18 1428.97 3231.01 1422.59 3229.32C1336.55 3214.48 1258.46 3184.16 1184 3143.15C1089.77 3091.22 1001.91 3029.92 925.507 2954.42C851.055 2880.88 788.058 2797.84 733.781 2707.51C619.11 2516.56 532.681 2313.12 458.62 2103.95C449.379 2077.92 443.266 2050.85 434.546 2024.55C428.038 2004.9 438.059 2002.82 456.021 2005.03Z" fill="#758F55"/>
<path d="M1495.89 1697.58C1503.04 1698.49 1508.38 1699.27 1516.32 1700.44C1527.38 1725.43 1550.68 1728.43 1572.02 1738.84C1573.46 1743.01 1573.46 1744.83 1571.76 1749.12C1541.31 1763.44 1524.52 1791.17 1497.05 1805.88C1392.93 1861.97 1288.02 1830.34 1183.11 1811.08C1173.34 1809.26 1164.88 1802.75 1152 1800.41C1141.71 1797.54 1134.82 1794.16 1126.62 1787.52C1118.42 1762.79 1132.08 1755.5 1149.26 1749.64C1142.76 1740.53 1114.12 1739.36 1132.35 1714.24C1137.16 1707.6 1129.87 1703.05 1124.53 1699.92C1097.2 1683.52 1098.37 1658.92 1107.36 1634.06C1112.17 1620.65 1113.34 1607.38 1115.55 1590.98C1157.34 1566.77 1194.56 1574.84 1231.4 1603.61C1239.86 1616.23 1247.28 1624.82 1264.2 1619.48C1290.1 1620.27 1305.2 1636.41 1321.47 1649.94C1366.5 1687.56 1418.31 1700.57 1478.7 1692.89C1482.87 1692.5 1484.3 1692.25 1487.81 1691.98C1490.55 1694.59 1491.98 1696.41 1496.01 1697.58H1495.89Z" fill="#586159"/>
<path d="M749.394 1713.49C744.708 1715.57 741.454 1715.57 735.596 1715.7C731.301 1717.26 729.477 1718.82 726.743 1721.95C645.263 1783.64 550.25 1804.6 454.582 1825.56C461.611 1833.5 474.622 1824.51 482.432 1832.06C483.734 1834.15 482.562 1835.58 479.178 1836.23C424.641 1846.25 369.457 1843.91 314.399 1844.17C296.567 1844.17 280.167 1844.69 268.322 1826.2C259.211 1812.02 237.994 1815.66 225.238 1803.69C231.356 1796.53 245.8 1794.31 244.368 1784.16C241.244 1761.9 262.856 1762.82 271.837 1749.28C309.713 1758.26 346.158 1747.72 382.734 1742.38C405.902 1739 428.804 1733.79 454.837 1729.89C565.993 1720.64 652.421 1655.44 749.261 1616.65C788.569 1600.9 827.749 1582.15 874.216 1599.6C877.6 1608.97 877.472 1616.78 880.076 1623.55C884.761 1635.65 879.031 1644.24 870.18 1648.54C847.012 1659.47 825.666 1675.74 798.853 1677.3C784.925 1678.08 772.298 1676.78 771.257 1697.22C770.997 1702.29 757.855 1706.72 749.394 1713.36V1713.49Z" fill="#586159"/>
<path d="M397.708 950.869C398.229 976.12 374.797 989.138 362.302 1008.66C333.536 1053.7 325.99 1103.94 317.14 1154.18C304.124 1227.46 306.723 1301.78 310.498 1375.32C314.533 1453.68 325.466 1531.64 342.517 1608.57C349.546 1640.33 357.881 1671.7 369.985 1704.89C354.366 1711.66 343.432 1707.23 339.918 1689.53C338.486 1682.24 335.488 1675.08 332.755 1665.19C328.85 1659.2 328.851 1654.78 327.289 1648.79C305.813 1571.73 278.999 1497.93 268.196 1420.49C252.837 1310.5 244.637 1200 271.189 1090.4C287.59 1022.72 323.383 970.783 397.835 950.738L397.708 950.869Z" fill="#758F55"/>
<path d="M1124.25 1781.67C1131.67 1785.58 1137.66 1787.66 1145.99 1790.52C1183.87 1824.88 1228.25 1828.79 1273.68 1828.92C1310.9 1828.92 1346.44 1839.33 1384.57 1839.33C1463.32 1839.33 1520.07 1806.53 1570.19 1748.09C1572.14 1746.14 1572.13 1745.75 1572.26 1745.88C1587.88 1730.78 1568.23 1719.06 1570.05 1703.31C1576.56 1700.58 1581.51 1700.19 1586.46 1699.28C1596.74 1697.33 1607.41 1687.43 1616.91 1700.84C1625.5 1713.08 1626.67 1725.57 1620.43 1739.89C1611.83 1759.93 1598.69 1777.37 1582.94 1790.91C1541.55 1826.84 1500.29 1864.32 1441.98 1871.22C1439.5 1871.48 1436.9 1873.69 1434.81 1873.17C1396.94 1862.89 1358.28 1881.76 1320.4 1870.18C1297.62 1863.28 1273.55 1865.63 1249.99 1861.46C1201.57 1853 1155.88 1836.86 1109.55 1822.28C1102.26 1819.94 1094.19 1818.11 1091.32 1810.57C1074.92 1767.87 1041.21 1731.56 1042.9 1682.36C1043.42 1668.95 1032.49 1663.1 1028.06 1650.21C1040.04 1633.03 1052.92 1619.62 1076.35 1620.27C1087.15 1626.78 1089.5 1635.76 1088.07 1644.35C1081.69 1682.49 1091.46 1718.67 1101.35 1756.94C1103.82 1760.06 1104.86 1761.24 1107.86 1763.97C1114.88 1769.57 1119.57 1773.99 1124.25 1781.8V1781.67Z" fill="#3F483D"/>
<path d="M1295.94 1091.96C1327.18 1105.76 1330.83 1103.8 1330.31 1076.21C1330.05 1063.98 1326.92 1052.39 1322.49 1037.94C1336.29 1035.08 1336.56 1046.14 1338.64 1055.77C1349.57 1108.88 1351 1162.51 1348.4 1216.65C1344.36 1299.83 1324.84 1380.14 1305.18 1460.44C1298.41 1488.43 1291.13 1516.28 1284.36 1544.27C1282.8 1550.9 1280.71 1556.11 1270.69 1553.12C1286.7 1434.67 1295.29 1317.14 1302.84 1199.73C1304.93 1166.02 1300.11 1132.18 1289.31 1096.13C1289.83 1092.61 1291.65 1092.22 1296.2 1092.22L1295.94 1091.96Z" fill="#EDF0E9"/>
<path d="M879.561 1601.8C839.341 1596.6 804.066 1603.23 770.355 1618.07C721.284 1639.81 672.085 1660.64 625.227 1687.32C576.417 1715.17 524.091 1736.65 461.484 1730.27C483.481 1709.45 515.894 1702.55 545.18 1689.27C616.638 1656.99 683.407 1614.43 760.593 1588.14C764.888 1584.88 767.099 1583.19 771.524 1582.02C778.422 1581.37 783.371 1580.59 790.66 1579.02C795.346 1576.81 797.557 1575.38 801.852 1574.6C840.51 1571.35 876.697 1570.95 912.101 1592.82C915.355 1595.82 916.267 1597.38 915.876 1601.54C903.901 1603.23 893.355 1602.58 879.427 1601.93L879.561 1601.8Z" fill="#818A8C"/>
<path d="M1082.74 1622.22C1061.13 1623.91 1051.11 1643.44 1030.29 1646.56C1017.01 1629.64 1030.54 1619.62 1040.56 1609.59C1072.45 1577.44 1109.29 1556.75 1160.19 1564.56C1167.08 1567.81 1171.51 1568.07 1178.15 1568.85C1192.85 1572.5 1205.48 1576.01 1220.57 1580.31C1224.87 1581.87 1226.44 1582.52 1230.21 1584.86C1240.23 1589.81 1248.04 1593.06 1258.19 1597.49C1262.23 1598.53 1264.05 1598.4 1266.79 1600.74C1281.49 1610.63 1295.29 1618.05 1311.17 1626.91C1315.07 1628.47 1316.9 1628.46 1319.63 1630.94C1343.19 1645.65 1364.27 1661.14 1393.3 1665.95C1397.85 1666.47 1399.68 1666.34 1403.32 1668.3C1425.45 1675.58 1445.75 1680.79 1468.92 1686.39C1474.39 1687.04 1476.47 1688.08 1479.85 1690.81C1481.55 1691.46 1481.16 1692.12 1481.16 1692.51C1466.06 1707.47 1448.88 1707.08 1428.96 1704.48C1377.29 1697.97 1333.43 1677.67 1297.11 1640.44C1289.04 1632.24 1278.37 1628.07 1264.96 1624.43C1251.56 1632.5 1243.49 1624.95 1233.72 1616.88C1201.05 1582 1162.66 1583.04 1120.88 1593.45C1109.81 1607.12 1097.58 1614.28 1082.74 1622.09V1622.22Z" fill="#818A8C"/>
<path d="M581.62 144.777C581.62 154.149 582.661 160.659 581.099 166.386C577.064 180.443 564.179 184.217 552.595 175.757C536.976 164.303 529.294 116.012 540.748 99.3513C547.517 89.5893 555.456 91.8012 562.745 98.5695C575.11 110.154 581.227 124.732 581.748 144.777H581.62Z" fill="#3E5B2D"/>
<path d="M1568.38 1700.98C1572.67 1706.06 1574.23 1710.35 1578.52 1713.6C1591.54 1723.5 1590.37 1734.13 1575.01 1745.49C1565.51 1736.51 1555.23 1737.16 1545.86 1738.2C1521.13 1740.94 1517.09 1726.88 1518.91 1703.97C1534.27 1700.85 1549.63 1700.72 1568.24 1700.98H1568.38Z" fill="#50584D"/>
<path d="M915.627 1606.22C914.586 1602.44 914.451 1600.75 914.451 1596.71C930.851 1597.24 943.346 1603.61 939.962 1625.09C927.337 1624.96 921.221 1617.54 915.493 1606.22H915.627Z" fill="#586159"/>
<path d="M1422.21 3229.82C1425.07 3228.52 1429.62 3228.91 1435.87 3230.74C1433.01 3233.99 1428.32 3234.25 1422.21 3229.82Z" fill="#3F483D"/>
<path d="M325.99 1649.03C328.333 1650.59 330.288 1654.24 332.11 1660.22C327.945 1659.7 325.86 1656.06 325.99 1649.03Z" fill="#50584D"/>
<path d="M1178.55 1567.57C1175.56 1571.08 1171 1571.08 1165.01 1566.66C1167.88 1565.22 1172.3 1565.62 1178.55 1567.57Z" fill="#586159"/>
<path d="M1496.53 1696.43C1497.57 1697.74 1493.93 1697.74 1493.93 1697.74C1493.93 1697.74 1491.06 1695.52 1490.41 1693.96C1491.97 1692.79 1493.8 1693.7 1496.53 1696.56V1696.43Z" fill="#3F483D"/>
<path d="M1480.64 1689.8C1479.34 1690.85 1477 1690.33 1473.35 1688.24C1474.66 1687.2 1477.13 1687.72 1480.64 1689.8Z" fill="#3F483D"/>
<path d="M485.048 1683C484.528 1681.18 486.091 1679.62 489.866 1678.32C490.517 1680.14 488.953 1681.83 485.048 1683Z" fill="#3E5B2D"/>
<path d="M1404.36 1668.69C1402.93 1670.77 1400.72 1670.38 1397.47 1667.78C1398.64 1666.74 1400.98 1666.87 1404.36 1668.69Z" fill="#50584D"/>
<path d="M1320.43 1631.76C1318.6 1633.32 1316.79 1632.54 1314.31 1629.67C1316 1627.07 1318.21 1627.59 1320.43 1631.76Z" fill="#586159"/>
<path d="M1267.45 1601.53C1265.76 1603.22 1263.94 1602.44 1261.46 1599.84C1263.02 1597.1 1265.24 1597.49 1267.45 1601.53Z" fill="#586159"/>
<path d="M1231.38 1584.75C1229.55 1586.97 1227.21 1586.31 1224.22 1582.8C1225.65 1581.76 1227.99 1582.41 1231.38 1584.75Z" fill="#586159"/>
<path d="M771.525 1581.86C771.525 1583.68 769.316 1585.24 765.15 1586.8C765.15 1585.11 767.36 1583.29 771.525 1581.86Z" fill="#3F483D"/>
<path d="M801.866 1574.59C801.606 1576.42 799.263 1577.59 795.098 1578.63C795.358 1576.94 797.571 1575.5 801.866 1574.59Z" fill="#3F483D"/>
<path d="M1146.38 2506.81C1140.14 2502.51 1135.58 2499.65 1133.11 2495.62C1127.12 2485.85 1128.81 2476.09 1136.49 2468.15C1144.3 2459.95 1154.32 2459.04 1164.08 2464.25C1173.85 2469.45 1179.7 2479.35 1175.41 2489.24C1168.38 2505.38 1170.2 2513.97 1188.43 2518.92C1196.89 2521.13 1204.04 2531.15 1200.92 2539.61C1193.76 2558.74 1199.1 2565.64 1218.36 2572.15C1238.27 2578.79 1246.74 2603.39 1238.54 2618.62C1231.38 2631.89 1219.27 2638.27 1204.04 2635.8C1184.39 2632.55 1167.08 2611.2 1172.8 2591.54C1177.75 2574.75 1179.18 2566.29 1160.83 2557.57C1148.73 2551.85 1148.99 2537.01 1157.45 2524.64C1161.35 2518.91 1170.46 2517.61 1171.24 2509.15C1163.56 2503.17 1156.02 2510.32 1146.38 2506.81Z" fill="#EDF0E9"/>
<path d="M1162.53 2389.16C1166.83 2396.84 1170.87 2402.18 1171.91 2407.9C1175.68 2428.99 1169.43 2443.18 1154.07 2447.99C1137.93 2453.07 1124.66 2447.6 1114.9 2434.07C1104.22 2419.36 1103.96 2396.97 1114.9 2385.52C1127 2372.89 1140.79 2372.11 1154.98 2382.26C1156.93 2383.69 1158.76 2385.51 1162.4 2389.16H1162.53Z" fill="#EDF0E9"/>
<path d="M1329.66 2787.93C1352.57 2777 1366.11 2786.63 1374.18 2804.2C1380.42 2817.74 1377.43 2831.8 1364.28 2840.52C1351.14 2849.24 1337.73 2846.11 1327.18 2835.05C1313 2820.21 1311.57 2804.59 1329.53 2787.93H1329.66Z" fill="#EDF0E9"/>
<path d="M1138.32 2279.03C1141.18 2289.32 1139.49 2296.61 1133.9 2302.2C1125.18 2310.92 1115.28 2314.05 1103.83 2306.5C1092.37 2298.95 1090.81 2288.28 1095.63 2277.21C1100.71 2265.63 1110.73 2261.46 1123.35 2265.11C1129.73 2266.93 1134.02 2271.22 1138.32 2279.16V2279.03Z" fill="#EDF0E9"/>
<path d="M1383.69 2851.08C1406.08 2859.15 1417.01 2877.9 1431.72 2892.48C1436.27 2897.03 1437.71 2903.67 1431.98 2908.75C1429.64 2910.83 1424.04 2912.52 1422.08 2911.22C1403.08 2897.94 1383.82 2884.4 1375.88 2861.1C1375.1 2858.89 1379.26 2854.99 1383.82 2851.08H1383.69Z" fill="#EDF0E9"/>
<path d="M1089.38 2198.83C1088.6 2185.81 1093.68 2180.73 1104.48 2184.12C1109.82 2185.81 1111.77 2191.54 1109.95 2195.83C1106.04 2204.94 1099.67 2209.11 1089.52 2198.7L1089.38 2198.83Z" fill="#EDF0E9"/>
<path d="M879.834 1227.34C814.753 1193.11 752.402 1194.54 689.665 1225.91C679.252 1231.12 667.54 1245.31 656.216 1235.02C643.851 1223.7 656.214 1208.86 660.9 1197.02C678.992 1150.94 732.878 1117.75 784.031 1119.18C830.889 1120.48 884.388 1158.1 901.309 1201.57C908.598 1220.31 907.037 1222.66 879.834 1227.47V1227.34Z" fill="#2B2A28"/>
<path d="M840.778 1396.26C836.612 1422.16 826.719 1442.2 809.928 1458.08C784.547 1482.03 752.919 1478.26 732.614 1449.75C700.724 1404.84 705.406 1314.9 741.721 1273.25C768.534 1242.4 795.611 1243.71 826.98 1279.76C827.37 1283.79 826.459 1285.36 823.205 1288.09C801.989 1290.57 778.817 1283.67 774.261 1312.69C771.137 1332.35 767.753 1353.3 783.763 1368.79C803.937 1388.44 815.785 1359.55 835.439 1358.77C845.591 1370.09 841.165 1382.07 840.644 1396.26H840.778Z" fill="#2B2A28"/>
<path d="M1218.75 1403.84C1215.37 1428.57 1205.86 1447.57 1191.02 1463.32C1166.42 1489.48 1135.19 1486.88 1114.88 1457.2C1098.74 1433.64 1094.71 1406.57 1095.1 1378.46C1095.62 1345.39 1100.56 1313.5 1121 1286.3C1144.43 1254.93 1167.86 1253.11 1201.44 1280.97C1204.3 1286.95 1203.91 1290.34 1198.83 1294.76C1181.91 1298.28 1165.38 1296.19 1157.57 1313.38C1148.72 1332.77 1145.08 1353.86 1160.05 1370.26C1181.78 1394.08 1193.89 1361.4 1214.06 1359.19C1223.56 1373.25 1219.14 1387.31 1218.75 1403.84Z" fill="#2B2A28"/>
<path d="M1118.79 1154.04C1183.61 1123.71 1254.29 1154.17 1273.42 1217.82C1275.77 1225.63 1276.81 1232.79 1269.26 1237.99C1263.53 1241.9 1257.28 1240.73 1251.43 1237.47C1250.38 1236.82 1249.21 1236.3 1248.17 1235.52C1195.33 1189.84 1139.36 1199.21 1082.48 1226.41C1075.97 1229.53 1068.94 1235.78 1062.57 1227.45C1058.27 1221.85 1062.31 1215.48 1064.78 1209.75C1075.19 1185.28 1097.32 1172 1118.79 1154.04Z" fill="#2B2A28"/>
<path d="M1128.42 1041.44C1145.73 1049.12 1160.71 1055.37 1175.15 1062.66C1180.62 1065.39 1185.83 1070.2 1182.18 1077.62C1179.19 1083.87 1172.94 1086.86 1166.56 1084.91C1152.37 1080.36 1138.32 1075.28 1124.78 1069.03C1096.4 1056.02 1069.85 1039.62 1044.73 1021C1036.66 1015.02 1027.16 1007.99 1036.01 996.793C1043.82 986.771 1051.5 995.361 1058.66 999.656C1081.04 1013.19 1103.43 1026.73 1128.29 1041.44H1128.42Z" fill="#EDF0E9"/>
<path d="M841.561 1396.42C837.266 1387.31 841.947 1374.81 833.356 1361.8C816.045 1340.06 821.384 1316.37 820.213 1291.25C822.295 1287.08 823.206 1285.78 826.2 1283.31C839.216 1291.25 845.854 1302.96 845.984 1317.02C846.245 1342.66 849.758 1368.44 841.427 1396.42H841.561Z" fill="#3F483D"/>
<path d="M1219.54 1404.1C1214.85 1392.51 1220.58 1377.41 1211.08 1361.79C1197.15 1347.35 1199.24 1332.38 1202.23 1314.42C1204.45 1309.6 1205.62 1307.78 1209.91 1305.18C1232.17 1335.24 1225.01 1368.56 1219.54 1404.1Z" fill="#3F483D"/>
<path d="M1017.41 1052.25C1014.81 1057.2 1012.72 1060.71 1009.6 1062.02C1000.23 1066.05 992.031 1064.23 991.25 1052.64C990.729 1043.01 999.055 1041.32 1006.6 1041.45C1011.68 1041.45 1015.59 1044.57 1017.28 1052.12L1017.41 1052.25Z" fill="#EDF0E9"/>
<path d="M1056.71 1060.46C1066.73 1069.31 1066.61 1076.34 1055.54 1080.76C1051.12 1082.59 1044.87 1081.8 1042.91 1076.86C1038.75 1066.31 1044.22 1060.98 1056.71 1060.59V1060.46Z" fill="#EDF0E9"/>
<path d="M1297.77 1089.99C1296.86 1092.47 1295.17 1092.99 1290.62 1092.99C1280.85 1078.54 1273.43 1064.48 1269.39 1039.62C1287.23 1057.32 1286.19 1076.2 1297.77 1089.99Z" fill="#818A8C"/>
<path d="M1193.13 1294.75C1196.25 1290.58 1198.46 1288.89 1201.85 1285.25C1208.75 1287.2 1210.18 1293.58 1212.39 1302.04C1211.87 1305.29 1210.7 1306.2 1207.84 1308.55C1198.46 1308.94 1194.17 1304.38 1193.13 1294.75Z" fill="#3F483D"/>
<path d="M1355.97 3124.9C1357.66 3135.06 1352.85 3137.01 1345.95 3134.93C1342.17 3133.89 1339.7 3129.98 1341.52 3126.6C1344.12 3121.78 1349.2 3121.52 1355.97 3124.9Z" fill="#679441"/>
<path d="M747.965 1715.44C748.876 1716.48 749.79 1717.65 750.831 1718.69C750.18 1718.3 749.53 1717.91 748.359 1716.48C747.968 1715.44 747.965 1715.44 747.965 1715.44Z" fill="#50584D"/>
<path d="M727.156 1722.33C726.115 1720.64 727.411 1718.56 731.446 1716.34C732.357 1718.04 730.931 1719.99 727.156 1722.33Z" fill="#50584D"/>
<path d="M1569.55 1746.3C1572.15 1748.64 1572.68 1751.37 1571.89 1753.59C1564.22 1775.97 1510.72 1827.65 1489.11 1827.78C1464.38 1827.91 1449.28 1853.16 1426.77 1850.03C1405.42 1847.04 1385.9 1845.48 1364.16 1849.77C1344.51 1853.81 1321.72 1858.37 1303.24 1840.92C1296.47 1834.42 1286.45 1836.76 1277.73 1836.63C1265.11 1836.37 1252.61 1836.5 1239.99 1836.63C1203.54 1837.02 1170.09 1830.64 1148.74 1793.93C1158.63 1790.42 1167.87 1793.54 1177.24 1797.97C1215.38 1815.54 1256.39 1819.71 1297.78 1821.53C1327.71 1822.83 1357.65 1819.45 1387.46 1827.78C1402.43 1831.94 1419.99 1832.2 1435.61 1825.04C1462.82 1812.68 1488.59 1797.45 1516.84 1786.91C1531.42 1781.44 1512.8 1777.93 1511.5 1770.25C1530.37 1764.78 1549.25 1756.84 1569.68 1746.43L1569.55 1746.3Z" fill="#50584D"/>
<path d="M1080.28 1626.14C1085.62 1606.75 1100.59 1602.58 1116.34 1595.95C1125.45 1608.83 1130 1621.07 1117.51 1633.82C1106.31 1645.15 1110.87 1659.98 1111.65 1673.39C1112.56 1689.79 1126.1 1691.35 1138.72 1694.22C1148.48 1696.43 1153.3 1705.15 1153.04 1714.13C1152.65 1727.15 1138.2 1719.73 1132.47 1725.85C1134.04 1732.74 1141.19 1734.31 1145.49 1738.6C1149 1742.11 1153.17 1744.85 1157.08 1748.1C1146.66 1758.25 1132.74 1764.63 1126.36 1781.29C1119.2 1780.12 1112.56 1776.48 1104.49 1770.75C1098.63 1762.94 1080.15 1766.85 1090.31 1750.06C1092.26 1746.93 1090.31 1740.16 1088.35 1736.13C1072.34 1705.28 1075.72 1673 1080.67 1640.46C1081.19 1636.82 1080.67 1633.04 1080.67 1626.14H1080.28Z" fill="#50584D"/>
<path d="M1232.56 1617.05C1240.76 1617.18 1248.96 1620.3 1259.77 1623.82C1250.79 1634.23 1240.11 1637.22 1232.56 1617.05Z" fill="#50584D"/>
<path d="M818.905 1286.84C832.051 1308.96 834.523 1330.83 830.878 1356.86C826.713 1366.24 823.46 1373.52 818.123 1378.47C801.332 1393.96 782.721 1391.35 771.137 1371.31C757.73 1348.01 757.861 1323.02 768.665 1298.81C778.687 1276.29 790.009 1273.69 819.165 1286.84H818.905Z" fill="#EDF0E9"/>
<path d="M1191.55 1291.61C1197.01 1297.08 1199.88 1302.02 1204.44 1308.4C1208.47 1324.41 1210.55 1338.86 1208.34 1356.82C1191.42 1389.49 1181.53 1396.39 1165.13 1390.66C1149.77 1385.32 1141.44 1366.84 1142.09 1340.16C1143 1303.19 1155.49 1290.05 1191.55 1291.74V1291.61Z" fill="#EDF0E9"/>
<path d="M1108.9 1718.17C1112.55 1717.13 1113.85 1718.17 1112.68 1720.26C1112.42 1720.65 1109.68 1719.61 1108.9 1718.17Z" fill="#586159"/>
<path d="M1103.06 1768.52C1103.97 1769.17 1102.93 1763.71 1104.1 1768.26C1103.06 1768.78 1103.19 1768.39 1103.06 1768.52Z" fill="#586159"/>
</svg>
