<svg width="100" height="201" viewBox="0 0 100 201" fill="none" xmlns="http://www.w3.org/2000/svg">
<path d="M35.7322 164.408C35.5738 163.683 36.2904 162.965 37.1048 162.862C37.9117 162.766 38.7184 163.163 39.2613 163.717C39.8043 164.272 40.1284 164.97 40.4451 165.654C41.0901 167.047 42.1838 168.712 42.4368 170.19C42.6127 171.217 42.2302 173.057 42.0201 173.215C41.7713 173.94 40.4731 174.745 39.6587 174.602C39.2515 174.526 39.4651 174.605 39.1031 174.42C38.7146 174.221 38.1308 173.656 38.0613 173.593C37.4048 173.544 36.5177 174.171 36.2904 174.721C36.0885 175.206 35.5041 175.76 35.7 176.24C35.7513 176.366 38.1842 178.391 38.617 178.95C40.6228 181.523 40.7609 184.249 39.3809 187.144C39.3809 187.463 37.2279 189.854 36.3945 190.106C35.5611 190.673 33.8834 191.179 32.6441 191.304C30.1255 191.557 28.3726 190.077 26.8796 188.215C26.6453 187.779 25.869 186.149 25.4905 185.127C24.8658 183.44 24.2436 181.777 23.6848 180.085C23.4088 179.242 23.0476 178.35 22.7125 177.438C22.4648 176.764 22.2655 176.08 21.9485 175.398C21.2761 173.952 20.6794 172.501 20.49 171.135C20.3316 169.958 20.2972 169.438 20.9759 168.425C21.7752 167.227 22.9235 166.502 24.3788 166.03C26.5958 165.318 31.6713 165.526 31.6713 165.526C32.4352 165.526 34.2392 165.086 34.2392 165.086C34.9404 164.963 35.6342 164.627 35.7624 164.415L35.7322 164.408Z" fill="white"/>
<path d="M40.6133 163.435C41.1892 162.919 47.9762 159.41 51.795 157.852C55.1175 156.496 58.626 155.297 61.1955 152.304C63.5346 149.58 64.7925 145.69 65.8203 141.879C66.8481 138.068 67.752 134.11 69.6127 130.837C70.1 129.985 70.6668 129.167 71.3934 128.652C72.1199 128.136 73.0502 127.99 73.7945 128.461C74.6273 128.999 75.0705 130.21 75.1326 131.387C75.1946 132.564 74.9288 133.729 74.6718 134.862C73.0327 142.047 71.3758 149.277 68.8595 156.047C68.1418 157.987 67.3003 159.96 65.9535 161.249C64.6599 162.482 63.0382 162.975 61.4611 163.446C55.6754 165.15 49.8985 166.865 44.1128 168.569C43.5369 168.737 42.9078 168.905 42.3762 168.569C40.9852 167.672 40.693 163.76 40.6133 163.435Z" fill="#3C5B31" stroke="#231F20" stroke-width="5" stroke-miterlimit="10"/>
<path d="M40.9995 166.899C40.5546 165.9 40.004 164.935 39.3555 164.032C38.9558 163.478 38.4807 162.916 37.787 162.718C37.2214 162.554 36.5579 162.67 36.1054 163.019C35.3137 163.628 35.2762 164.75 35.6382 165.626C36.0001 166.502 36.6713 167.248 37.1614 168.076C37.9683 169.458 38.2319 171.053 38.2093 172.613C38.2017 173.037 38.1791 173.489 38.4129 173.858C38.6994 174.317 39.3404 174.529 39.921 174.481C40.8108 174.406 41.5799 173.797 41.9645 173.065C42.3491 172.332 42.4019 171.484 42.3265 170.676C42.1983 169.301 41.5121 168.035 41.0068 166.899H40.9995Z" stroke="#231F20" stroke-width="2.15" stroke-miterlimit="10"/>
<path d="M35.2719 164.867C33.6883 165.551 31.8787 165.647 30.1293 165.64C28.3798 165.634 26.5927 165.558 24.8961 165.941C23.1995 166.325 21.5327 167.255 20.854 168.72C20.0698 170.403 20.7258 172.319 21.3743 174.044C22.7467 177.657 24.1117 181.27 25.4841 184.883C25.9365 186.087 26.4042 187.299 27.1281 188.38C27.852 189.461 28.8851 190.426 30.1896 190.898C31.5017 191.37 33.0021 191.295 34.3444 190.898C36.4708 190.275 38.2955 188.859 39.2984 187.045C40.3013 185.232 40.4598 183.056 39.7359 181.14C39.0723 179.395 37.7301 177.917 36.1691 176.733C34.6082 175.556 32.8135 174.653 31.0339 173.763" stroke="#231F20" stroke-width="2.15" stroke-miterlimit="10"/>
<path d="M38.2939 173.434C37.6982 173.44 37.1553 173.748 36.7556 174.152C36.356 174.549 36.092 175.042 35.8281 175.521" stroke="#231F20" stroke-width="2.15" stroke-miterlimit="10"/>
<path d="M23.0831 167.227C22.5402 170.717 23.204 174.357 24.9458 177.505C24.9081 177.546 24.8779 177.58 24.8402 177.621" stroke="#231F20" stroke-miterlimit="10"/>
<path d="M31.0243 190.767C28.1363 188.18 26.3944 184.56 26.2812 180.879" stroke="#231F20" stroke-miterlimit="10"/>
<path d="M47.8574 188.905C47.8972 188.178 48.4783 186.321 48.4783 186.069C48.3393 186.069 47.2069 185.921 46.9508 185.628C46.6568 185.3 46.6149 184.96 46.464 184.557C46.3698 184.305 46.7424 183.575 47.0893 183.233C47.4362 182.891 47.5332 182.911 47.9932 182.726C51.1678 181.494 55.0602 181.015 58.3404 181.973C59.1096 182.198 59.8096 182.886 59.9378 183.611C60.0509 184.234 59.5003 184.841 59.1761 185.402C59.0111 185.693 58.8363 185.31 58.7537 185.628C58.6135 186.169 58.6446 187.428 58.7537 187.975C58.799 188.214 58.8819 188.461 59.0704 188.638C59.553 189.083 60.014 189.053 60.6323 188.779C63.2489 187.616 66.9889 186.632 69.8694 187.015C71.2343 187.193 72.3935 187.674 73.4115 188.515C74.158 189.131 75.0938 190.242 75.4256 191.111C75.9459 192.473 75.9792 194.071 75.5645 195.46C75.1497 196.849 74.337 198.027 72.9947 198.801C71.1473 199.861 67.0913 199.871 66.7441 199.872C64.3707 199.879 62.0325 199.991 59.66 199.998C57.2234 200.006 54.0238 199.857 51.5901 199.868C50.7682 199.868 49.9312 199.868 49.1394 199.669C48.3476 199.471 47.5858 199.033 47.2163 198.362C47.2163 198.044 47.2163 196.721 47.2163 196.469C47.2163 195.46 47.6448 189.788 47.8423 188.898L47.8574 188.905Z" fill="white"/>
<path d="M51.1031 181.478C50.1294 182.035 51.8502 153.695 52.2276 139.804C52.288 137.433 52.3561 135.044 52.7712 132.73C53.1184 130.794 53.9409 128.67 55.4882 128.245C56.7035 127.914 57.9715 128.811 58.6659 130.096C59.3679 131.38 59.5944 132.967 59.7001 134.515C60.002 138.85 59.4737 143.203 58.9453 147.51C57.6319 158.19 56.3188 168.871 55.0054 179.561C54.9375 180.08 54.8617 180.647 54.5598 181.015C53.6842 182.11 52.19 180.835 51.1031 181.459V181.478Z" fill="#3C5B31" stroke="#231F20" stroke-width="5" stroke-miterlimit="10"/>
<path d="M54.2733 181.557C52.5842 181.578 50.8948 181.824 49.2736 182.269C48.3762 182.515 47.4488 182.871 46.9285 183.569C46.4007 184.274 46.5065 185.41 47.3435 185.779C47.9769 186.06 48.7309 185.813 49.4021 185.615C51.7246 184.924 54.2504 184.807 56.6408 185.28C57.5758 185.464 58.6769 185.704 59.4008 185.143C60.1021 184.595 60.0191 183.514 59.431 182.864C58.8428 182.214 57.9151 181.906 57.0027 181.728C55.6605 181.468 54.2731 181.42 54.2656 181.55L54.2733 181.557Z" stroke="#231F20" stroke-width="2.15" stroke-miterlimit="10"/>
<path d="M48.4887 186.191C47.6442 189.818 47.2448 193.527 47.2976 197.236C47.3051 197.832 47.3425 198.482 47.7497 198.947C48.3153 199.604 49.3711 199.679 50.291 199.7C52.5306 199.747 54.7777 199.788 57.0172 199.836C61.0138 199.919 65.0255 200.001 69.0145 199.672C70.3869 199.556 71.8046 199.385 72.9734 198.714C74.1723 198.023 74.9869 196.873 75.4016 195.642C75.9219 194.123 75.8765 192.439 75.2205 190.961C74.5569 189.49 73.275 188.238 71.6688 187.601C69.7988 186.855 67.6495 186.951 65.6437 187.307C62.2504 187.916 58.88 189.353 56.8515 191.892" stroke="#231F20" stroke-width="2.15" stroke-miterlimit="10"/>
<path d="M58.6687 185.59C58.3369 186.644 58.5256 187.827 59.1665 188.758" stroke="#231F20" stroke-width="2.15" stroke-miterlimit="10"/>
<path d="M74.8368 196.797C71.059 198.083 66.9642 198.603 62.9375 198.295" stroke="#231F20" stroke-miterlimit="10"/>
<path d="M47.5078 197.547C51.4063 198.245 55.3878 198.573 59.3692 198.532" stroke="#231F20" stroke-miterlimit="10"/>
<path d="M72.0703 169.76C64.6503 166.64 57.9916 162.733 52.1929 157.73C47.4196 153.618 43.4459 148.889 40.0752 143.723C32.4214 132 26.3963 119.649 22.2188 106.565C21.9096 105.586 21.4874 105.032 20.2357 104.834C13.9694 103.841 8.72886 101.166 4.7851 96.5741C1.85179 93.1526 -0.101491 89.382 0.00407822 84.9272C0.0417815 83.237 0.592455 81.6769 1.53504 80.2193C1.8065 79.795 2.12321 79.4734 2.85465 79.4939C3.28447 82.6759 4.57377 85.5158 7.60511 87.3497C10.3499 89.0125 13.4191 89.9226 16.9934 90.0527C16.2996 87.8971 15.7187 85.9331 15.0401 84.0033C12.6949 77.3177 11.5563 70.4817 11.8504 63.4675C11.9861 60.2171 12.3784 57.0077 13.9318 53.9967C15.5531 50.8489 18.0639 48.6112 21.6382 47.3316C25.22 46.0519 28.8622 45.0528 32.6325 44.218C38.9138 42.8288 44.4414 39.8111 49.1468 35.6916C50.9867 34.0835 51.6049 31.9347 51.9819 29.7928C52.8038 25.0779 52.3287 20.4316 50.7451 15.8673C49.1842 11.3783 46.1833 10.1191 41.1838 10.5023C39.0951 10.6665 37.0514 11.2619 34.9702 11.5904C29.8576 12.4047 28.4702 9.86585 29.0131 5.99953C29.2243 4.48722 30.0837 3.28298 31.4561 2.3797C32.5872 1.63381 33.794 1.03153 35.1664 0.744122C43.3254 -0.952952 50.9488 0.251457 57.9691 4.37097C59.8241 5.45901 61.2646 6.99866 62.2976 8.7847C64.1149 11.9257 65.2986 15.2171 65.3062 18.8302C65.3137 22.2175 65.0044 25.5775 64.6198 28.9374C64.2353 32.2494 64.3636 35.5478 64.7557 38.8461C65.1629 42.1992 66.9802 44.649 70.4112 46.0519C71.7384 46.5925 73.0806 47.1126 74.4002 47.6601C77.507 48.9534 79.4828 50.9994 80.2369 54.1335C81.2398 58.2736 81.1868 62.4136 80.7796 66.5741C80.2894 71.679 78.555 76.5445 77.2957 81.5057C77.1826 81.9573 77.1223 82.4295 76.9489 82.8606C76.5794 83.7639 77.0773 84.2155 77.8992 84.5508C80.1538 85.4678 82.3631 86.5148 84.678 87.2812C87.6038 88.2529 90.5296 88.253 93.2217 86.5012C94.3829 85.7484 95.205 84.763 95.8233 83.6134C96.9167 81.5879 97.6105 79.4391 98.1157 77.2494C98.9527 77.2904 99.1487 77.79 99.3297 78.2895C100.167 80.6161 100.197 82.9976 99.5484 85.3379C98.5907 88.7662 96.977 91.9481 94.6469 94.8017C91.5025 98.6543 87.2042 100.858 82.069 101.713C79.5731 102.131 77.0772 102.76 74.4908 102.439C73.6689 102.336 73.5103 102.692 73.4952 103.342C73.4273 107.516 73.4125 111.704 74.521 115.783C76.9415 124.644 79.8823 133.362 83.8411 141.772C86.5256 147.48 90.3033 152.564 94.6392 157.333C96.4791 159.359 97.9194 161.535 98.221 164.218C98.5151 166.804 97.5652 168.871 95.2578 170.452C92.0756 172.628 88.4182 172.936 84.6479 172.676C80.3271 172.381 76.2174 171.266 72.0475 169.774L72.0703 169.76Z" fill="#2B2A28"/>
<path d="M41.4793 103.41C44.4352 102.5 47.3688 101.939 50.0457 100.638C52.8207 99.2971 55.6258 98.0312 57.1942 95.2188C60.859 98.0107 64.6443 100.194 69.1083 101.562C69.9303 102.616 69.6438 103.56 68.7766 104.128C67.2534 105.127 67.0119 106.448 67.1024 107.967C67.1326 108.494 67.1326 109.028 67.0045 109.548C66.7933 110.41 66.3635 110.718 65.5416 109.993C64.961 109.48 64.3274 108.871 63.5055 109.61C62.7891 110.26 62.8344 111.06 63.3925 111.786C64.0711 112.655 64.795 112.347 65.6396 111.868C66.929 111.143 67.3665 111.43 67.5174 113.1C67.9472 117.999 68.9121 122.803 70.8425 127.402C74.2207 135.449 78.2176 143.209 83.8203 150.216C84.1597 150.647 84.4461 151.126 84.8457 151.496C86.2408 152.789 85.9316 153.959 84.0766 155.301C85.7506 155.205 86.9422 153.781 87.9677 155.348C88.6614 156.416 88.2088 157.23 87.3793 158.154C85.1548 159.057 83.2395 158.202 81.3619 157.579C75.1031 155.492 70.2999 151.605 65.9113 147.198C61.4548 142.73 57.3147 138.036 53.9817 132.821C51.1314 128.366 48.7863 123.652 46.8483 118.814C45.1592 114.591 43.4474 110.376 41.6678 106.188C41.3059 105.326 40.831 104.471 41.487 103.417L41.4793 103.41Z" fill="#679441"/>
<path d="M73.6456 81.3962C70.9989 80.6435 68.4729 79.8428 65.7206 79.8155C62.365 79.7881 59.831 80.9993 58.2249 83.7091C58.0891 83.9349 57.9234 84.1472 57.6821 84.5099C56.2193 83.4766 54.7262 82.6075 53.1125 81.8958C49.5457 80.3219 45.9866 80.2603 42.4274 81.8752C39.8938 83.0249 37.3978 84.2292 34.7285 85.4473C34.2836 85.2557 34.11 84.9615 34.0421 84.633C32.6924 77.742 31.0561 70.8785 32.1872 63.796C32.6999 60.6003 34.1024 57.822 36.621 55.5843C38.3704 54.0309 39.7656 52.0875 42.2993 51.15C43.5209 51.0953 44.516 51.2527 45.451 51.6496C46.8234 52.2312 47.1326 52.9497 46.552 54.1952C46.3559 54.6194 46.092 55.0163 45.8432 55.4201C45.3757 56.1865 45.5869 56.8228 46.2957 57.3429C46.9216 57.8013 47.4493 57.555 48.0601 57.1992C51.3478 55.2626 54.8014 53.5518 57.6442 51.0473C58.632 50.1782 59.7483 50.3357 60.902 50.5957C63.4508 51.1774 65.8335 52.1765 68.1787 53.2029C70.6068 54.2636 73.0197 54.982 75.7042 54.0993C75.8852 54.0377 76.1265 54.154 76.4583 54.284C77.2953 55.0505 77.3858 55.9128 77.4462 56.7681C77.514 57.8083 77.0916 58.4515 75.6136 58.0751C74.6334 57.2403 74.3093 56.2275 73.7815 55.3242C73.6382 55.0984 73.4271 55.4542 73.6534 55.2899C74.2943 56.07 74.5127 57.0487 75.2215 57.9794C75.9454 59.6422 76.0208 61.2297 75.9303 62.8173C75.5759 69.0034 75.35 75.2102 73.6232 81.4099L73.6456 81.3962Z" fill="#679441"/>
<path d="M93.7182 167.926C93.4769 168.494 92.9942 168.576 92.4815 168.809C89.5104 168.405 86.6978 169.069 83.8701 168.952C82.5429 168.898 81.2308 168.856 80.243 167.871C79.9866 167.611 79.6776 167.467 79.278 167.495C76.865 167.652 74.9268 166.496 72.9888 165.49C64.6715 161.165 57.6662 155.485 51.498 148.8C44.9376 141.69 39.7496 133.868 35.0367 125.677C31.7414 119.949 29.4415 113.893 26.7721 107.953C26.4479 107.221 26.1011 106.468 26.4857 105.524C28.9666 105.216 31.3719 105.271 33.9207 104.84C35.7606 106.496 36.7109 108.535 37.5253 110.554C40.0665 116.849 43.5578 122.714 46.936 128.647C51.5358 136.728 57.5532 143.797 64.7847 150.065C71.2093 155.629 78.863 159.167 87.316 161.398C88.6658 161.753 90.0836 161.459 91.5993 161.801C93.7408 163.464 94.0574 165.524 93.7105 167.926H93.7182Z" fill="#3E5B2D"/>
<path d="M65.1542 44.5211C66.9715 46.0813 68.8564 47.3474 70.8999 48.367C72.4684 49.1539 73.7654 50.1598 74.8739 51.5352C73.6825 52.548 72.4384 52.377 71.0962 51.8228C68.2458 50.6458 65.433 49.3661 62.4167 48.5449C61.5797 48.3191 60.7505 48.0796 59.8607 48.0385C58.4808 47.9701 57.3042 48.2779 56.241 49.1265C54.2201 50.7346 52.2594 52.4249 49.9294 53.5198C49.5599 53.4924 49.4092 53.3556 49.3715 53.1503C48.9191 50.3515 46.6795 49.3112 44.0176 48.9622C42.3511 48.7433 40.9637 48.3054 39.7572 47.2174C39.1012 46.6289 38.2115 46.2456 37.4273 45.7734C37.3594 45.1507 37.9624 45.2329 38.3017 45.1097C43.3615 43.3305 47.5768 40.4221 51.3546 36.9664C53.5716 34.9408 54.3255 32.2379 54.6272 29.5418C55.1701 24.779 54.9591 20.03 53.3153 15.3973C52.3652 12.7285 50.9777 10.3538 48.067 9.09469C45.0508 7.79451 41.8684 7.83563 38.6637 8.47203C38.5958 8.48572 38.5281 8.51999 38.4527 8.53368C37.6006 8.67738 36.726 9.27944 35.9342 8.90991C35.1349 8.54039 35.587 7.58925 35.4136 6.90495C35.1271 5.79638 34.358 4.91373 33.7773 3.93518C34.6445 3.07295 35.7834 2.9702 36.8164 2.79912C43.2863 1.71792 49.4318 2.47063 55.1853 5.50894C57.7416 6.85702 59.5664 8.73887 60.7805 11.1681C62.1906 13.9943 62.7788 16.93 62.7109 20.0367C62.6204 23.8825 62.1528 27.6941 61.8814 31.5193C61.625 35.1256 62.2961 38.6362 63.4046 42.0783C63.6911 42.9747 64.3548 43.7136 65.1616 44.5006L65.1542 44.5211Z" fill="#679441"/>
<path d="M91.8042 161.861C87.8077 162.682 84.324 161.108 80.8176 159.924C77.8466 158.918 75.0488 157.488 72.3116 155.989C69.8081 154.621 67.5231 152.999 65.374 151.24C61.3171 147.921 57.7429 144.164 54.2817 140.346C52.2533 138.115 50.5569 135.624 49.0714 133.058C47.141 129.726 44.8333 126.585 43.1291 123.143C41.078 119.003 38.5824 115.047 37.0517 110.682C36.373 108.752 35.1513 106.973 34.1484 104.981C36.5011 104.311 38.869 103.791 41.4177 103.277C41.3348 105.173 42.4505 106.76 43.1593 108.375C44.3809 111.133 45.5723 113.898 46.5828 116.724C47.8873 120.371 49.8556 123.765 51.4768 127.289C53.3469 131.354 56.0916 134.906 58.7535 138.526C60.4426 140.832 62.5011 142.892 64.522 144.958C66.2111 146.683 67.7569 148.544 69.7099 150.043C71.8062 151.664 73.6612 153.594 76.1496 154.737C79.4977 156.284 82.7552 158.131 86.9101 158.138C87.5209 158.227 87.8756 158.597 88.2828 158.576C90.7712 158.432 91.3668 160.006 91.8042 161.861Z" fill="#4E6F36"/>
<path d="M54.2961 85.366C54.1981 85.9408 54.0172 86.3718 53.8664 86.8098C53.414 88.151 53.4894 88.6164 54.7788 89.2596C55.563 89.6565 55.4651 89.9919 55.4047 90.6488C55.1936 92.818 53.7686 94.1251 51.7854 94.9394C50.4959 95.4663 50.0282 96.6159 48.965 97.3345C45.7451 99.4969 42.2766 101.043 38.3554 101.673C34.2533 102.337 30.1434 102.159 26.0036 101.776C22.6857 101.468 19.4662 100.674 16.1407 100.38C14.4215 100.229 12.6116 99.7499 10.8998 99.2298C10.4926 99.1066 10.0479 98.9563 9.73117 98.7031C7.22014 96.657 5.18397 94.3303 4.25647 91.292C4.00009 90.4571 4.09832 89.8686 4.84485 89.3965C5.62154 88.9106 6.35276 88.9037 7.25764 89.3828C9.76867 90.7103 12.453 91.6615 15.605 91.7847C15.8086 93.0849 14.3384 93.6254 14.1046 94.6382C18.1162 97.7312 22.8667 95.822 26.7878 96.3215C26.8029 96.3215 26.2978 96.4311 25.5286 95.7674C30.9805 94.2414 36.5379 93.4818 41.2885 90.4846C41.5977 90.3203 41.7713 90.2245 42.0805 90.0739C42.3972 89.9439 42.5858 89.9029 42.9251 89.9165C43.2418 90.026 43.3248 90.1491 43.3022 90.3339C43.3474 90.1696 43.332 90.0055 43.332 89.7249C44.2519 88.4042 45.3454 87.6788 47.0195 87.4393C48.9348 87.1587 50.5786 86.2965 50.7596 84.0726C51.4005 83.7236 51.9284 83.7373 52.6297 83.9631C53.4742 84.2095 53.7383 84.8254 54.2887 85.3591L54.2961 85.366Z" fill="#3F483D"/>
<path d="M23.0879 50.0541C26.8054 48.7813 30.2889 47.1869 34.3005 47.6248C35.1074 47.7138 35.8842 47.7548 36.7137 48.2612C36.6533 49.3697 35.7785 49.9309 35.0546 50.5537C32.9809 52.3397 31.2315 54.3447 29.6329 56.4934C28.3359 58.2384 27.4161 60.0586 27.1597 62.1389C26.7073 65.8136 26.006 69.4884 26.0437 73.1768C26.089 77.2005 26.4962 81.2242 27.3935 85.1864C27.6273 86.2128 27.9667 87.2598 27.2503 88.4163C25.4179 89.1416 23.6306 89.5043 21.6324 89.7643C20.6521 89.21 20.2903 88.4094 20.0565 87.5746C17.3645 77.7617 16.1881 67.8666 18.3297 57.8211C18.9706 54.8306 20.343 52.196 23.0728 50.0541H23.0879Z" fill="#3E5B2D"/>
<path d="M27.285 88.5456C27.27 85.9589 26.2219 83.5091 26.0107 80.9635C25.9881 80.7034 25.822 80.4435 25.8447 80.1971C26.086 77.6857 25.1587 75.229 25.3774 72.7244C25.5735 70.4388 25.8676 68.1669 26.1315 65.8882C26.3728 63.8011 26.5085 61.7141 27.0892 59.6611C27.2551 59.0795 27.4586 58.5251 27.7979 58.0187C30.2034 54.4603 33.0161 51.2099 36.6884 48.4453C37.5028 48.4795 37.9851 48.8833 38.4451 49.3075C39.4932 50.2724 40.7302 50.8815 42.359 51.0799C40.1345 52.9549 37.9172 54.8983 35.9793 57.0197C34.177 58.9905 33.1062 61.3513 32.7594 64.0201C32.4728 66.1962 32.2318 68.3654 32.4354 70.5141C32.7672 74.0383 33.144 77.5625 33.9056 81.0457C34.1997 82.3937 34.6145 83.7349 34.5768 85.302C32.7143 86.5064 30.897 87.5876 28.6349 88.1829C28.4011 88.2513 28.3257 88.3061 28.1297 88.4156C27.813 88.4977 27.6244 88.5251 27.285 88.5524V88.5456Z" fill="#4E6F36"/>
<path d="M91.8622 162.111C91.4776 161.42 91.2286 160.818 90.8817 160.257C90.4293 159.524 90.203 158.498 88.7476 159.189C88.1444 159.476 87.5867 158.908 87.1644 158.265C87.1342 158.019 87.1643 157.889 87.2321 157.773C87.8857 156.719 87.6393 155.656 86.4932 154.584C86.3801 155.597 85.9427 156.315 84.7814 156.158C84.1329 156.069 83.7107 155.644 83.6956 155.076C83.673 153.913 84.6157 153.715 85.7166 153.694C75.9741 140.911 67.8903 127.602 66.8271 111.616C66.073 111.664 66.0806 112.26 65.7564 112.526C64.7686 113.354 63.7504 113.313 62.9662 112.342C62.4308 111.671 62.2499 110.905 62.461 110.09C62.642 109.392 63.1396 108.92 63.8786 108.701C64.7005 108.462 65.2813 108.831 65.7262 109.42C65.9222 109.68 66.0958 109.953 66.6161 110.22C66.6161 109.03 66.5255 107.832 66.6386 106.648C66.7517 105.526 66.5934 104.253 68.4409 103.897C69.3307 103.726 68.9987 102.659 69.2023 101.824C70.0544 101.591 70.5748 101.735 70.5521 102.707C70.5069 104.821 70.5296 106.942 70.6276 109.057C70.8463 113.717 72.0602 118.199 73.4929 122.654C75.4912 128.881 77.6705 135.04 80.3248 141.062C83.1978 147.57 87.33 153.386 92.1711 158.813C93.1816 159.949 94.1923 161.091 94.7503 162.474C95.5346 164.41 95.8964 166.34 93.8453 168.037C93.6115 166.012 93.2796 163.993 91.8545 162.111H91.8622Z" fill="#EDF0E9"/>
<path d="M26.4182 105.389C26.5615 106.224 26.8554 106.976 27.1645 107.709C28.8084 111.582 30.324 115.516 32.2092 119.301C34.7277 124.344 37.5935 129.23 40.5871 134.061C43.1585 138.215 46.1293 142.115 49.4396 145.79C53.2476 150.019 57.0786 154.234 61.7764 157.758C65.2602 160.379 68.9172 162.72 72.7479 164.875C74.3767 165.792 76.141 166.374 77.8603 167.086C77.9281 167.113 78.0036 167.127 78.0639 167.161C78.9763 167.708 79.3837 166.217 80.1755 166.682C80.7712 167.038 80.5074 167.989 81.5706 168.242C83.4557 168.68 85.3859 168.694 87.2032 168.413C88.9225 168.146 90.4911 168.174 92.2254 168.742C90.9963 169.727 89.4653 170.035 87.8214 170.008C86.4415 169.987 85.0693 169.953 83.4933 169.919C83.0333 169.905 82.7844 169.843 82.4149 169.754C77.4305 168.974 72.906 167.38 68.5928 165.224C63.1334 162.494 58.0435 159.271 53.6172 155.302C49.3039 151.436 45.6543 147.07 42.5098 142.321C35.8665 132.282 30.8594 121.586 26.5688 110.589C26.0334 109.221 25.6793 107.797 25.1741 106.415C24.797 105.382 25.3776 105.272 26.4182 105.389Z" fill="#758F55"/>
<path d="M86.6606 89.2234C87.0754 89.2713 87.3844 89.3124 87.8444 89.374C88.4853 90.6878 89.835 90.8452 91.0716 91.3926C91.1546 91.6116 91.1546 91.7074 91.0565 91.9333C89.292 92.686 88.3195 94.1436 86.7284 94.9169C80.6959 97.8662 74.618 96.2033 68.5403 95.1905C67.9747 95.0947 67.4845 94.7525 66.7379 94.6294C66.1422 94.4788 65.7428 94.3009 65.2677 93.9519C64.7927 92.6517 65.5842 92.2686 66.5796 91.9607C66.2026 91.4816 64.5438 91.4201 65.5995 90.0994C65.8785 89.7504 65.4561 89.5108 65.147 89.3466C63.5634 88.4843 63.6314 87.191 64.1517 85.8839C64.4307 85.1791 64.4985 84.4812 64.6267 83.619C67.0472 82.3462 69.2038 82.7705 71.3378 84.2828C71.8279 84.9466 72.2578 85.3982 73.2381 85.1176C74.7386 85.1587 75.6133 86.0073 76.5559 86.7189C79.1649 88.6966 82.1662 89.3808 85.665 88.977C85.9063 88.9565 85.9894 88.9429 86.193 88.9292C86.3514 89.0661 86.4342 89.1618 86.668 89.2234H86.6606Z" fill="#586159"/>
<path d="M43.417 90.0589C43.1455 90.1684 42.957 90.1683 42.6176 90.1752C42.3688 90.2573 42.2631 90.3394 42.1047 90.5036C37.3843 93.7472 31.8799 94.8491 26.3375 95.9508C26.7447 96.3683 27.4985 95.8961 27.9509 96.293C28.0263 96.4025 27.9585 96.4776 27.7624 96.5118C24.6029 97.0388 21.4059 96.9157 18.2162 96.9293C17.1831 96.9293 16.233 96.9566 15.5468 95.9849C15.0189 95.239 13.7898 95.4306 13.0508 94.8011C13.4052 94.4247 14.242 94.3084 14.1591 93.7746C13.9781 92.6045 15.2301 92.6524 15.7504 91.9407C17.9447 92.4129 20.0561 91.8586 22.175 91.578C23.5173 91.4001 24.8441 91.1264 26.3522 90.9211C32.7919 90.4353 37.799 87.007 43.4093 84.9677C45.6865 84.1397 47.9563 83.1543 50.6483 84.0712C50.8444 84.5639 50.837 84.9746 50.9878 85.3304C51.2593 85.9668 50.9273 86.4184 50.4145 86.6442C49.0723 87.2191 47.8357 88.0744 46.2823 88.1565C45.4754 88.1976 44.7439 88.1292 44.6836 89.2035C44.6685 89.4704 43.9071 89.7031 43.417 90.0521V90.0589Z" fill="#586159"/>
<path d="M23.0413 49.9678C23.0715 51.2953 21.714 51.9798 20.9901 53.0062C19.3236 55.3739 18.8865 58.0153 18.3737 60.6567C17.6196 64.5093 17.7703 68.4167 17.9889 72.283C18.2227 76.4025 18.8561 80.5015 19.8439 84.5457C20.2511 86.2154 20.734 87.8647 21.4352 89.6096C20.5304 89.9655 19.8969 89.7327 19.6933 88.802C19.6104 88.4188 19.4367 88.0426 19.2784 87.5225C19.0521 87.2077 19.0522 86.975 18.9617 86.6603C17.7175 82.6092 16.1641 78.7291 15.5382 74.6575C14.6484 68.8752 14.1734 63.0655 15.7116 57.3037C16.6618 53.7453 18.7354 51.0148 23.0487 49.9609L23.0413 49.9678Z" fill="#758F55"/>
<path d="M65.1312 93.6467C65.5611 93.8519 65.9079 93.9614 66.3905 94.1119C68.5848 95.9185 71.1562 96.1239 73.7879 96.1308C75.9445 96.1308 78.0031 96.6781 80.2125 96.6781C84.7746 96.6781 88.0625 94.9536 90.9657 91.8811C91.0788 91.7785 91.0785 91.758 91.0861 91.7648C91.991 90.971 90.8524 90.3551 90.958 89.5271C91.335 89.3834 91.6217 89.3629 91.9083 89.315C92.504 89.2123 93.1222 88.6923 93.6727 89.3972C94.1703 90.0404 94.2382 90.6973 93.8763 91.4501C93.3786 92.5039 92.6171 93.4208 91.7047 94.1325C89.3067 96.0212 86.9163 97.9921 83.5381 98.3548C83.3948 98.3684 83.2438 98.4847 83.1231 98.4573C80.9288 97.9167 78.6892 98.909 76.4949 98.3C75.1752 97.9373 73.7805 98.0605 72.4156 97.8415C69.6105 97.3967 66.9637 96.5482 64.2792 95.7818C63.857 95.6586 63.3895 95.5627 63.2236 95.1658C62.2735 92.9213 60.3203 91.0122 60.4183 88.4255C60.4485 87.7207 59.815 87.4127 59.5586 86.7353C60.2523 85.832 60.9988 85.1271 62.3561 85.1614C62.982 85.5035 63.118 85.9756 63.0351 86.4272C62.6656 88.4322 63.2312 90.3347 63.8043 92.3465C63.9475 92.5108 64.0079 92.5724 64.1813 92.7161C64.5885 93.0103 64.8598 93.2429 65.1312 93.6535V93.6467Z" fill="#3F483D"/>
<path d="M75.08 57.3835C76.8898 58.1089 77.101 58.0062 77.0709 56.5555C77.0558 55.9123 76.8747 55.3033 76.6184 54.5437C77.4177 54.3932 77.4329 54.9747 77.5536 55.4811C78.187 58.2731 78.2699 61.0925 78.1191 63.9392C77.8854 68.3119 76.754 72.534 75.6154 76.7562C75.2233 78.2274 74.8013 79.6918 74.4092 81.1631C74.3187 81.5121 74.1978 81.7857 73.6172 81.6284C74.5447 75.4012 75.0425 69.222 75.4799 63.0496C75.6005 61.2772 75.3215 59.4981 74.6956 57.6025C74.7258 57.4178 74.8312 57.3972 75.0951 57.3972L75.08 57.3835Z" fill="#EDF0E9"/>
<path d="M50.955 84.188C48.625 83.9142 46.5813 84.2632 44.6283 85.0433C41.7855 86.1861 38.9352 87.2811 36.2206 88.6839C33.3928 90.1483 30.3614 91.2774 26.7344 90.9421C28.0087 89.8472 29.8865 89.4846 31.5831 88.7866C35.723 87.0896 39.5912 84.8519 44.0628 83.4696C44.3116 83.2985 44.4397 83.2094 44.6961 83.1478C45.0957 83.1136 45.3824 83.0726 45.8047 82.9904C46.0762 82.8741 46.2043 82.7989 46.4531 82.7579C48.6927 82.5868 50.7891 82.5662 52.8402 83.7158C53.0287 83.8732 53.0815 83.9553 53.0589 84.1743C52.3652 84.2632 51.7541 84.229 50.9473 84.1948L50.955 84.188Z" fill="#818A8C"/>
<path d="M62.7263 85.2628C61.4745 85.3517 60.894 86.3783 59.6875 86.5425C58.9184 85.6529 59.7023 85.1259 60.2829 84.599C62.1304 82.9088 64.2647 81.8208 67.2131 82.2314C67.6127 82.4024 67.869 82.4162 68.2536 82.4572C69.1057 82.6488 69.837 82.8335 70.7117 83.0593C70.9605 83.1415 71.0512 83.1757 71.2699 83.2989C71.8505 83.5589 72.3029 83.73 72.891 83.9627C73.1248 84.0174 73.2305 84.0106 73.3888 84.1337C74.2409 84.6538 75.04 85.0439 75.9599 85.5092C76.1862 85.5913 76.292 85.5912 76.4504 85.7212C77.8152 86.4945 79.0366 87.3089 80.7181 87.5621C80.9821 87.5895 81.0876 87.5826 81.2988 87.6852C82.5807 88.0685 83.7571 88.3421 85.0993 88.6364C85.416 88.6706 85.5365 88.7254 85.7326 88.8691C85.8306 88.9033 85.8081 88.9376 85.8081 88.9581C84.9334 89.7451 83.9382 89.7245 82.7845 89.5876C79.7908 89.2455 77.2497 88.178 75.1459 86.2209C74.6783 85.7898 74.0598 85.5707 73.2832 85.3791C72.5065 85.8033 72.039 85.4065 71.4735 84.9823C69.5808 83.1483 67.3563 83.203 64.9358 83.7505C64.2948 84.469 63.5859 84.8453 62.7263 85.2559V85.2628Z" fill="#818A8C"/>
<path d="M33.6938 7.58683C33.6938 8.07953 33.7541 8.42179 33.6636 8.72288C33.4298 9.46193 32.6833 9.66036 32.0122 9.21556C31.1073 8.61337 30.6623 6.07453 31.3259 5.19862C31.718 4.68539 32.1779 4.80168 32.6002 5.15752C33.3166 5.76655 33.671 6.533 33.7011 7.58683H33.6938Z" fill="#3E5B2D"/>
<path d="M90.8604 89.4031C91.1092 89.67 91.1996 89.8958 91.4484 90.0668C92.2025 90.5869 92.1346 91.1457 91.2448 91.7434C90.6943 91.2712 90.0988 91.3054 89.5559 91.3601C88.1232 91.5038 87.8892 90.7648 87.9947 89.5605C88.8845 89.3962 89.7744 89.3894 90.8527 89.4031H90.8604Z" fill="#50584D"/>
<path d="M53.0447 84.4214C52.9844 84.223 52.9766 84.134 52.9766 83.9219C53.9267 83.9492 54.6506 84.2845 54.4545 85.4136C53.7231 85.4068 53.3687 85.0167 53.0369 84.4214H53.0447Z" fill="#586159"/>
<path d="M82.3945 169.779C82.5604 169.71 82.8242 169.731 83.1862 169.827C83.0203 169.998 82.7489 170.011 82.3945 169.779Z" fill="#3F483D"/>
<path d="M18.8871 86.6719C19.0228 86.754 19.1361 86.9455 19.2416 87.2603C19.0003 87.2329 18.8795 87.0414 18.8871 86.6719Z" fill="#50584D"/>
<path d="M68.2764 82.39C68.103 82.5748 67.8391 82.5747 67.4922 82.3421C67.6581 82.2668 67.9145 82.2874 68.2764 82.39Z" fill="#586159"/>
<path d="M86.6983 89.1639C86.7586 89.2324 86.5474 89.2324 86.5474 89.2324C86.5474 89.2324 86.3815 89.1161 86.3438 89.034C86.4342 88.9724 86.54 89.0202 86.6983 89.1708V89.1639Z" fill="#3F483D"/>
<path d="M85.7778 88.8165C85.7024 88.8712 85.5666 88.8439 85.3555 88.7344C85.4309 88.6797 85.5742 88.707 85.7778 88.8165Z" fill="#3F483D"/>
<path d="M28.0994 88.4572C28.0692 88.3614 28.1598 88.2794 28.3785 88.2109C28.4162 88.3067 28.3256 88.3956 28.0994 88.4572Z" fill="#3E5B2D"/>
<path d="M81.3604 87.7034C81.2775 87.8129 81.1495 87.7923 80.9609 87.6555C81.0288 87.6007 81.1644 87.6076 81.3604 87.7034Z" fill="#50584D"/>
<path d="M76.4987 85.7634C76.3932 85.8455 76.2878 85.8045 76.1445 85.654C76.2426 85.5171 76.3705 85.5444 76.4987 85.7634Z" fill="#586159"/>
<path d="M73.4289 84.1732C73.3308 84.2622 73.2253 84.2212 73.082 84.0843C73.1725 83.9406 73.3007 83.9611 73.4289 84.1732Z" fill="#586159"/>
<path d="M71.3365 83.2921C71.2309 83.4084 71.0953 83.3741 70.9219 83.1893C71.0048 83.1346 71.1404 83.1689 71.3365 83.2921Z" fill="#586159"/>
<path d="M44.6974 83.1406C44.6974 83.2364 44.5694 83.3185 44.3281 83.4006C44.3281 83.3116 44.4561 83.2159 44.6974 83.1406Z" fill="#3F483D"/>
<path d="M46.4546 82.7578C46.4395 82.8536 46.3038 82.9152 46.0625 82.97C46.0776 82.881 46.2058 82.8057 46.4546 82.7578Z" fill="#3F483D"/>
<path d="M66.4158 131.767C66.0538 131.541 65.7899 131.391 65.6466 131.179C65.2997 130.666 65.3976 130.152 65.8425 129.735C66.2949 129.304 66.8756 129.256 67.4412 129.53C68.0067 129.803 68.3462 130.324 68.0973 130.844C67.6901 131.692 67.7957 132.144 68.8514 132.404C69.3415 132.52 69.7562 133.047 69.5753 133.492C69.1605 134.498 69.4696 134.86 70.5856 135.203C71.7393 135.552 72.2297 136.845 71.7546 137.646C71.3399 138.344 70.6383 138.679 69.756 138.549C68.6174 138.378 67.6146 137.255 67.9464 136.222C68.2329 135.339 68.3159 134.895 67.2527 134.436C66.5514 134.135 66.5667 133.355 67.0568 132.705C67.283 132.404 67.8105 132.335 67.8558 131.891C67.4109 131.576 66.9738 131.952 66.4158 131.767Z" fill="#EDF0E9"/>
<path d="M67.3501 125.581C67.599 125.985 67.8329 126.266 67.8932 126.567C68.1119 127.675 67.7499 128.421 66.8601 128.674C65.925 128.941 65.1561 128.654 64.5905 127.942C63.9722 127.169 63.9571 125.992 64.5905 125.39C65.2918 124.726 66.0908 124.685 66.9127 125.219C67.0258 125.294 67.1316 125.39 67.3428 125.581H67.3501Z" fill="#EDF0E9"/>
<path d="M77.0321 146.548C78.3592 145.973 79.1434 146.48 79.6109 147.404C79.9729 148.115 79.7992 148.854 79.0376 149.313C78.276 149.771 77.4993 149.607 76.8885 149.025C76.0665 148.245 75.9837 147.424 77.0243 146.548H77.0321Z" fill="#EDF0E9"/>
<path d="M65.9459 119.792C66.1118 120.332 66.0139 120.715 65.6896 121.01C65.1844 121.468 64.6113 121.632 63.9477 121.236C63.2841 120.839 63.1937 120.278 63.4727 119.696C63.7668 119.087 64.3473 118.868 65.0788 119.06C65.4483 119.155 65.697 119.381 65.9459 119.798V119.792Z" fill="#EDF0E9"/>
<path d="M80.1611 149.867C81.4581 150.291 82.0915 151.277 82.9436 152.043C83.2075 152.283 83.2905 152.632 82.9587 152.899C82.823 153.008 82.4985 153.097 82.3854 153.029C81.2845 152.331 80.1686 151.619 79.7086 150.394C79.6634 150.278 79.9046 150.072 80.1685 149.867H80.1611Z" fill="#EDF0E9"/>
<path d="M63.11 115.577C63.0647 114.893 63.359 114.626 63.9848 114.804C64.294 114.893 64.407 115.194 64.3015 115.42C64.0753 115.899 63.7059 116.118 63.1177 115.57L63.11 115.577Z" fill="#EDF0E9"/>
<path d="M50.9712 64.5013C47.2009 62.7016 43.5886 62.7769 39.954 64.4261C39.3508 64.6998 38.6723 65.4457 38.0162 64.9051C37.2999 64.3097 38.0161 63.5297 38.2876 62.907C39.3357 60.4845 42.4575 58.7396 45.421 58.8148C48.1356 58.8833 51.235 60.8608 52.2153 63.1464C52.6376 64.1318 52.5472 64.2549 50.9712 64.5081V64.5013Z" fill="#2B2A28"/>
<path d="M48.7103 73.3809C48.469 74.7427 47.8958 75.7965 46.9231 76.6314C45.4526 77.8905 43.6203 77.692 42.444 76.1933C40.5965 73.8325 40.8678 69.1039 42.9716 66.9141C44.525 65.2923 46.0936 65.3608 47.9109 67.2563C47.9336 67.4684 47.8807 67.5506 47.6922 67.6943C46.4631 67.8244 45.1207 67.4616 44.8568 68.9876C44.6758 70.0209 44.4797 71.1227 45.4072 71.937C46.576 72.9703 47.2624 71.4511 48.401 71.4101C48.9892 72.0054 48.7327 72.6351 48.7026 73.3809H48.7103Z" fill="#2B2A28"/>
<path d="M70.6065 73.7805C70.4104 75.0806 69.8597 76.0798 69 76.9078C67.5749 78.2832 65.7654 78.1464 64.5891 76.5862C63.654 75.3476 63.4202 73.9242 63.4429 72.4461C63.473 70.708 63.7594 69.0314 64.9433 67.6012C66.3006 65.952 67.658 65.8563 69.6035 67.3207C69.7694 67.6354 69.7466 67.8134 69.4526 68.0461C68.4723 68.2308 67.5147 68.1213 67.0622 69.0246C66.5495 70.0442 66.3383 71.1528 67.2055 72.0151C68.4647 73.2673 69.166 71.5497 70.3348 71.4333C70.8852 72.1724 70.6291 72.9114 70.6065 73.7805Z" fill="#2B2A28"/>
<path d="M64.8161 60.6487C68.5713 59.0542 72.6658 60.6554 73.7743 64.0017C73.91 64.4123 73.9705 64.7887 73.5331 65.0624C73.2013 65.2677 72.8393 65.2061 72.5 65.035C72.4396 65.0008 72.3718 64.9735 72.3114 64.9324C69.2499 62.5305 66.0075 63.0232 62.7122 64.4534C62.3352 64.6177 61.9281 64.946 61.5586 64.5081C61.3098 64.2138 61.5435 63.8786 61.6868 63.5775C62.29 62.291 63.5719 61.593 64.8161 60.6487Z" fill="#2B2A28"/>
<path d="M65.3719 54.7294C66.3748 55.1332 67.2423 55.4616 68.0793 55.8448C68.396 55.9885 68.6976 56.2416 68.4865 56.6317C68.3131 56.9601 67.951 57.1175 67.5815 57.0149C66.7596 56.7754 65.9452 56.5085 65.161 56.1801C63.5171 55.4958 61.9789 54.6336 60.5235 53.655C60.056 53.3403 59.5056 52.9707 60.0184 52.3822C60.4708 51.8552 60.9155 52.3069 61.3303 52.5327C62.6272 53.2444 63.9243 53.9562 65.3646 54.7294H65.3719Z" fill="#EDF0E9"/>
<path d="M48.7563 73.392C48.5075 72.913 48.7786 72.256 48.281 71.5717C47.2781 70.4289 47.5874 69.1835 47.5195 67.8628C47.6402 67.6438 47.6929 67.5753 47.8664 67.4453C48.6204 67.8627 49.005 68.4787 49.0126 69.2177C49.0276 70.5658 49.2312 71.9208 48.7486 73.392H48.7563Z" fill="#3F483D"/>
<path d="M70.6531 73.7944C70.3816 73.1853 70.7135 72.3915 70.163 71.5704C69.3561 70.8108 69.477 70.0239 69.6505 69.0796C69.7787 68.8264 69.8464 68.7306 70.0952 68.5938C71.3847 70.1745 70.9698 71.9262 70.6531 73.7944Z" fill="#3F483D"/>
<path d="M58.9426 55.2948C58.7918 55.5548 58.6711 55.7396 58.4901 55.808C57.9472 56.0201 57.4724 55.9244 57.4271 55.3153C57.397 54.8089 57.8793 54.7201 58.3167 54.7269C58.6108 54.7269 58.8372 54.891 58.9353 55.2879L58.9426 55.2948Z" fill="#EDF0E9"/>
<path d="M61.219 55.7266C61.7997 56.1919 61.7923 56.5615 61.1513 56.7941C60.8949 56.8899 60.5328 56.8488 60.4197 56.5888C60.1784 56.0345 60.4951 55.7539 61.219 55.7334V55.7266Z" fill="#EDF0E9"/>
<path d="M75.1831 57.2811C75.1303 57.4112 75.0324 57.4385 74.7685 57.4385C74.2029 56.6789 73.7728 55.9398 73.5391 54.6328C74.5721 55.5635 74.5119 56.5558 75.1831 57.2811Z" fill="#818A8C"/>
<path d="M69.1211 68.0464C69.3021 67.8274 69.4302 67.7385 69.6263 67.5469C70.0259 67.6495 70.1089 67.9849 70.2371 68.4297C70.2069 68.6007 70.139 68.6486 69.9731 68.7718C69.4302 68.7923 69.1814 68.5528 69.1211 68.0464Z" fill="#3F483D"/>
<path d="M78.5563 164.264C78.6543 164.798 78.3753 164.9 77.9757 164.791C77.757 164.736 77.6135 164.531 77.719 164.353C77.8698 164.1 78.1642 164.086 78.5563 164.264Z" fill="#679441"/>
<path d="M43.332 90.1641C43.3848 90.2188 43.4378 90.2804 43.4981 90.3351C43.4604 90.3146 43.4227 90.2941 43.3549 90.2189C43.3322 90.1641 43.332 90.1641 43.332 90.1641Z" fill="#50584D"/>
<path d="M42.1254 90.5257C42.065 90.4367 42.1401 90.3273 42.3739 90.2109C42.4267 90.2999 42.3441 90.4025 42.1254 90.5257Z" fill="#50584D"/>
<path d="M90.9298 91.7852C91.0806 91.9083 91.1109 92.0521 91.0656 92.1684C90.6207 93.3454 87.5216 96.0621 86.2699 96.0689C84.8371 96.0757 83.9624 97.4033 82.6579 97.239C81.4212 97.0816 80.2901 96.9995 79.0308 97.2253C77.8921 97.4375 76.5724 97.677 75.5016 96.7601C75.1095 96.4179 74.5289 96.541 74.0237 96.5342C73.2922 96.5205 72.5684 96.5273 71.837 96.5342C69.7256 96.5547 67.7874 96.2194 66.5508 94.2896C67.1239 94.1049 67.6592 94.2692 68.2021 94.5018C70.4115 95.4256 72.787 95.6447 75.185 95.7405C76.9193 95.8089 78.6538 95.631 80.3806 96.0689C81.2478 96.2879 82.2655 96.3016 83.1704 95.9252C84.7464 95.2751 86.2396 94.4746 87.8759 93.9203C88.7205 93.6329 87.6421 93.4481 87.5667 93.0443C88.6601 92.7569 89.7536 92.3394 90.9375 91.792L90.9298 91.7852Z" fill="#50584D"/>
<path d="M62.5863 85.4665C62.8954 84.4469 63.7626 84.2279 64.6751 83.8789C65.2029 84.5564 65.4667 85.1997 64.7428 85.8703C64.0943 86.4657 64.3584 87.2456 64.4037 87.9505C64.4565 88.8127 65.2404 88.8949 65.9718 89.0454C66.5374 89.1618 66.8165 89.6203 66.8014 90.0924C66.7788 90.7767 65.9417 90.3866 65.6099 90.7082C65.7004 91.0709 66.1151 91.153 66.364 91.3789C66.5676 91.5636 66.809 91.7073 67.0352 91.8784C66.4319 92.4121 65.6252 92.7475 65.2557 93.6234C64.841 93.5618 64.4563 93.3702 63.9887 93.0691C63.6494 92.6585 62.5788 92.8639 63.1669 91.9811C63.28 91.8169 63.167 91.461 63.0539 91.2489C62.1264 89.6271 62.3222 87.9301 62.6087 86.2193C62.6389 86.0277 62.6087 85.8292 62.6087 85.4665H62.5863Z" fill="#50584D"/>
<path d="M71.4062 84.9883C71.8813 84.9951 72.3566 85.1594 72.9825 85.3441C72.4622 85.8916 71.8436 86.049 71.4062 84.9883Z" fill="#50584D"/>
<path d="M47.4404 67.6288C48.202 68.7922 48.3452 69.9419 48.1341 71.3105C47.8928 71.8032 47.7043 72.1863 47.3951 72.4464C46.4224 73.2607 45.3441 73.1238 44.673 72.07C43.8963 70.8451 43.9039 69.5313 44.5298 68.2585C45.1104 67.0747 45.7664 66.9377 47.4555 67.6288H47.4404Z" fill="#EDF0E9"/>
<path d="M69.0314 67.8796C69.3481 68.167 69.5142 68.427 69.7781 68.7624C70.0119 69.6041 70.1324 70.3636 70.0042 71.3079C69.0239 73.0256 68.4509 73.3881 67.5008 73.087C66.611 72.8065 66.1284 71.8348 66.1661 70.432C66.2189 68.4886 66.9427 67.7975 69.0314 67.8864V67.8796Z" fill="#EDF0E9"/>
<path d="M64.2422 90.3066C64.4533 90.2519 64.5288 90.3066 64.4609 90.4161C64.4458 90.4366 64.2874 90.3819 64.2422 90.3066Z" fill="#586159"/>
<path d="M63.9023 92.9536C63.9551 92.9879 63.8949 92.7004 63.9627 92.9399C63.9024 92.9673 63.9099 92.9468 63.9023 92.9536Z" fill="#586159"/>
</svg>
