<svg width="100" height="202" viewBox="0 0 100 202" fill="none" xmlns="http://www.w3.org/2000/svg">
<path d="M40.5179 175.814C39.9765 174.851 39.4275 173.888 39.1012 172.793C38.7748 171.699 38.686 170.473 39.0642 169.414C39.4647 168.293 40.3175 167.514 41.1556 166.805C43.3954 164.905 45.7465 163.189 48.1865 161.666C49.7589 160.685 51.398 159.766 52.6811 158.313C54.4017 156.369 55.3436 153.637 55.7886 150.871C56.2336 148.113 56.2191 145.276 56.3007 142.475C56.3452 140.969 56.4342 139.402 57.0572 138.088C57.6802 136.766 58.9853 135.777 60.2165 136.162C61.2177 136.477 61.915 137.598 62.1746 138.78C62.4341 139.962 62.3302 141.205 62.2264 142.413C61.9445 145.705 61.6626 148.997 61.3808 152.289C61.1286 155.292 60.8247 158.435 59.3488 160.904C57.7394 163.601 55.0249 164.993 52.5033 166.42C48.2684 168.81 44.2113 171.638 40.503 175.823L40.5179 175.814Z" fill="#3A5B34" stroke="#231F20" stroke-width="5" stroke-miterlimit="10"/>
<path d="M30.373 171.395C32.0779 172.091 34.3356 172.278 35.9252 172.61C35.9252 173.415 36.7172 171.301 37.1196 171.468C37.3904 171.582 37.5583 171.823 37.712 172.057C38.8535 173.818 39.5268 175.833 39.6585 177.875C39.717 178.859 39.6147 179.943 38.861 180.639C38.4293 181.041 37.8441 181.255 37.3319 181.563C35.9123 182.413 35.1294 183.892 34.405 185.298C36.0806 186.985 37.134 189.181 37.3608 191.45C37.5876 193.719 36.9806 196.055 35.6562 197.983C33.9732 198.044 32.4586 197.113 31.0829 196.216C29.3048 195.065 27.4972 193.88 26.2313 192.26C24.9362 190.607 24.2925 188.598 23.9047 186.597C23.9048 182.647 23.6482 178.237 24.7531 174.314C25.0165 173.377 25.0313 172.64 25.8215 172.004C27.1313 170.946 29.1319 171.609 30.373 171.395Z" fill="white"/>
<path d="M37.1304 171.197C38.5393 171.793 39.255 173.232 39.692 174.589C40.0536 175.706 40.3175 176.872 40.2798 178.037C40.2422 179.202 39.8878 180.388 39.1269 181.32C38.8255 181.69 38.3585 182.046 37.8687 181.937C37.2886 181.806 37.1153 181.148 37.0399 180.614C36.6933 178.009 36.347 175.412 35.9929 172.807C35.9477 172.451 35.9024 172.06 36.0908 171.745C36.3168 171.368 36.9044 171.108 37.1304 171.204V171.197Z" stroke="#231F20" stroke-width="2.15" stroke-miterlimit="10"/>
<path d="M35.4923 172.479C33.0889 171.67 30.4971 171.342 27.9431 171.513C27.0766 171.568 26.1575 171.712 25.5397 172.26C24.9973 172.74 24.7863 173.453 24.6281 174.124C23.8069 177.647 23.8293 181.286 23.8971 184.891C23.9348 186.701 23.9877 188.551 24.6432 190.258C25.4493 192.362 27.1294 194.117 29.0732 195.474C31.017 196.831 33.2171 197.838 35.4095 198.839C37.4814 196.707 38.4004 193.692 37.8353 190.895C37.4963 189.202 36.5998 187.564 35.1457 186.475C33.6841 185.385 31.6274 184.898 29.8343 185.44" stroke="#231F20" stroke-width="2.15" stroke-miterlimit="10"/>
<path d="M37.1413 181.316C36.9002 182.351 36.4706 183.352 35.8905 184.27C35.6042 184.723 35.1976 185.202 34.625 185.244" stroke="#231F20" stroke-width="2.15" stroke-miterlimit="10"/>
<path d="M26.9356 172.277C25.5343 175.924 25.0745 179.865 25.5943 183.696" stroke="#231F20" stroke-miterlimit="10"/>
<path d="M35.976 197.939C34.4315 196.87 32.8944 195.8 31.3499 194.731C30.4986 194.135 29.6398 193.545 28.8789 192.846C26.7467 190.879 25.541 188.165 25.2773 185.41" stroke="#231F20" stroke-miterlimit="10"/>
<path d="M65.9296 182.259C66.842 181.622 68.674 179.75 69.3753 178.927C70.0841 178.105 71.6247 177.147 71.2774 176.958C69.6106 175.885 70.2197 174.974 70.4836 174.522C70.7098 174.138 71.2227 173.953 71.7053 173.953C72.1879 173.953 72.7772 174.093 73.2221 174.244C76.5399 175.375 79.9699 176.701 81.8325 179.441C82.2472 180.051 82.0222 181.1 81.4868 181.628C81.0419 182.073 80.1672 181.88 79.5422 181.628C78.8484 181.696 78.7408 182.196 78.2658 182.662C77.7907 183.128 77.4876 184.944 77.7364 185.54C78.1059 186.417 79.9358 185.792 80.9312 186.045C82.6882 186.484 83.8532 186.876 85.3915 187.766C86.9297 188.657 88.2644 189.911 88.928 191.453C89.7801 193.433 89.4105 195.824 87.9552 197.489C86.4999 199.154 84.0041 200.025 81.6966 199.641C79.6682 199.298 77.9639 198.106 76.3125 196.982C73.07 194.783 69.7068 192.734 66.2456 190.836C65.3031 190.322 64.3306 189.795 63.7198 188.966C62.7772 187.664 62.9807 185.889 63.7876 184.519C64.5944 183.148 64.7608 183.081 65.9296 182.259Z" fill="white"/>
<path d="M70.9982 174.174C71.5411 173.845 72.2649 173.941 72.8907 174.092C75.1152 174.62 77.1513 175.647 79.044 176.826C80.3335 177.621 81.6683 178.621 81.9623 180.012C82.0453 180.396 82.0377 180.807 81.8718 181.17C81.7059 181.533 81.3666 181.841 80.9443 181.93C80.1827 182.088 79.4888 181.533 78.9383 181.033C77.4001 179.621 75.7336 178.203 73.6448 177.607C72.9586 177.408 72.2349 177.305 71.5788 177.045C70.9228 176.785 70.3044 176.305 70.1536 175.668C70.0028 175.031 70.5759 174.441 70.9982 174.181V174.174Z" stroke="#231F20" stroke-width="2.15" stroke-miterlimit="10"/>
<path d="M71.1465 177.133C68.9597 179.079 66.8713 181.114 64.8957 183.231C64.2698 183.896 63.6513 184.581 63.2366 185.376C62.8143 186.164 62.6107 187.075 62.8445 187.925C63.2215 189.261 64.5712 190.151 65.8305 190.926C69.2766 193.036 72.7153 195.153 76.1614 197.264C77.4357 198.045 78.7175 198.833 80.1427 199.367C81.5603 199.902 83.1438 200.176 84.652 199.881C87.0499 199.415 88.95 197.483 89.4326 195.297C89.9152 193.111 89.0707 190.775 87.4495 189.11C85.8283 187.438 83.4907 186.417 81.0701 186.054C78.6496 185.691 76.1537 185.944 73.7935 186.554" stroke="#231F20" stroke-width="2.15" stroke-miterlimit="10"/>
<path d="M79.4954 181.738C78.7414 182.074 78.2588 182.787 78.0628 183.534C77.8667 184.28 77.9119 185.048 77.9571 185.815" stroke="#231F20" stroke-width="2.15" stroke-miterlimit="10"/>
<path d="M62.9453 185.973C65.2678 188.522 68.0731 190.707 71.2025 192.4" stroke="#231F20" stroke-miterlimit="10"/>
<path d="M86.2592 198.852C85.0678 199.119 83.8237 198.721 82.6851 198.29C80.0534 197.282 77.5271 196.063 75.1367 194.645" stroke="#231F20" stroke-miterlimit="10"/>
<path d="M74.9598 174.376C79.064 164.205 78.8452 152.045 74.3788 142.065C73.5867 140.292 72.7643 137.865 74.1449 136.598C74.922 135.877 76.1292 135.96 77.0194 136.515C77.9096 137.07 78.5281 138.006 79.0864 138.942C85.039 148.989 85.4992 162.656 80.2332 173.159C79.7126 174.194 79.0563 175.279 78.0302 175.635C77.0042 175.991 75.6237 175.122 74.9598 174.376Z" fill="#3A5B34" stroke="#231F20" stroke-width="5" stroke-miterlimit="10"/>
<path d="M72.0703 169.98C64.6503 166.855 57.9916 162.943 52.1929 157.934C47.4196 153.816 43.4459 149.081 40.0752 143.908C32.4214 132.171 26.3963 119.804 22.2188 106.703C21.9096 105.723 21.4874 105.168 20.2357 104.969C13.9694 103.976 8.72886 101.297 4.7851 96.6989C1.85179 93.2729 -0.101491 89.4975 0.00407822 85.037C0.0417815 83.3446 0.592455 81.7824 1.53504 80.323C1.8065 79.8981 2.12321 79.5761 2.85465 79.5966C3.28447 82.7827 4.57377 85.6263 7.60511 87.4626C10.3499 89.1276 13.4191 90.0388 16.9934 90.169C16.2996 88.0107 15.7187 86.0441 15.0401 84.1119C12.6949 77.4176 11.5563 70.5727 11.8504 63.5496C11.9861 60.2949 12.3784 57.0813 13.9318 54.0665C15.5531 50.9146 18.0639 48.6741 21.6382 47.3928C25.22 46.1115 28.8622 45.1111 32.6325 44.2751C38.9138 42.8842 44.4414 39.8625 49.1468 35.7377C50.9867 34.1275 51.6049 31.9759 51.9819 29.8313C52.8038 25.1103 52.3287 20.458 50.7451 15.8878C49.1842 11.393 46.1833 10.1322 41.1838 10.5159C39.0951 10.6803 37.0514 11.2765 34.9702 11.6054C29.8576 12.4208 28.4702 9.8786 29.0131 6.00728C29.2243 4.49302 30.0837 3.28723 31.4561 2.38278C32.5872 1.63592 33.794 1.03286 35.1664 0.745084C43.3254 -0.954183 50.9488 0.251782 57.9691 4.37662C59.8241 5.46607 61.2646 7.00771 62.2976 8.79605C64.1149 11.9411 65.2986 15.2368 65.3062 18.8546C65.3137 22.2462 65.0044 25.6105 64.6198 28.9748C64.2353 32.2911 64.3636 35.5937 64.7557 38.8963C65.1629 42.2537 66.9802 44.7067 70.4112 46.1114C71.7384 46.6527 73.0806 47.1735 74.4002 47.7216C77.507 49.0166 79.4828 51.0653 80.2369 54.2035C81.2398 58.3489 81.1868 62.4942 80.7796 66.6602C80.2894 71.7717 78.555 76.6434 77.2957 81.611C77.1826 82.0633 77.1223 82.536 76.9489 82.9677C76.5794 83.8721 77.0773 84.3243 77.8992 84.6601C80.1538 85.5782 82.3631 86.6266 84.678 87.394C87.6038 88.3669 90.5296 88.367 93.2217 86.6129C94.3829 85.8592 95.205 84.8726 95.8233 83.7215C96.9167 81.6933 97.6105 79.5418 98.1157 77.3492C98.9527 77.3903 99.1487 77.8905 99.3297 78.3907C100.167 80.7203 100.197 83.1048 99.5484 85.4482C98.5907 88.8809 96.977 92.067 94.6469 94.9242C91.5025 98.7818 87.2042 100.988 82.069 101.845C79.5731 102.263 77.0772 102.893 74.4908 102.571C73.6689 102.468 73.5103 102.824 73.4952 103.475C73.4273 107.655 73.4125 111.848 74.521 115.932C76.9415 124.805 79.8823 133.535 83.8411 141.956C86.5256 147.67 90.3033 152.761 94.6392 157.537C96.4791 159.565 97.9194 161.744 98.221 164.43C98.5151 167.02 97.5652 169.089 95.2578 170.672C92.0756 172.851 88.4182 173.159 84.6479 172.899C80.3271 172.604 76.2174 171.487 72.0475 169.993L72.0703 169.98Z" fill="#2B2A28"/>
<path d="M41.4793 103.545C44.4352 102.634 47.3688 102.072 50.0457 100.77C52.8207 99.4274 55.6258 98.1599 57.1942 95.3438C60.859 98.1393 64.6443 100.325 69.1083 101.695C69.9303 102.751 69.6438 103.696 68.7766 104.265C67.2534 105.265 67.0119 106.588 67.1024 108.109C67.1326 108.636 67.1326 109.171 67.0045 109.692C66.7933 110.555 66.3635 110.863 65.5416 110.137C64.961 109.623 64.3274 109.013 63.5055 109.753C62.7891 110.404 62.8344 111.206 63.3925 111.932C64.0711 112.802 64.795 112.494 65.6396 112.014C66.929 111.288 67.3665 111.576 67.5174 113.248C67.9472 118.154 68.9121 122.964 70.8425 127.568C74.2207 135.626 78.2176 143.396 83.8203 150.412C84.1597 150.844 84.4461 151.324 84.8457 151.694C86.2408 152.989 85.9316 154.16 84.0766 155.503C85.7506 155.407 86.9422 153.982 87.9677 155.551C88.6614 156.62 88.2088 157.435 87.3793 158.361C85.1548 159.265 83.2395 158.408 81.3619 157.785C75.1031 155.695 70.2999 151.803 65.9113 147.391C61.4548 142.916 57.3147 138.216 53.9817 132.995C51.1314 128.534 48.7863 123.813 46.8483 118.969C45.1592 114.741 43.4474 110.521 41.6678 106.327C41.3059 105.464 40.831 104.607 41.487 103.552L41.4793 103.545Z" fill="#679441"/>
<path d="M73.6456 81.4988C70.9989 80.7451 68.4729 79.9434 65.7206 79.916C62.365 79.8886 59.831 81.1013 58.2249 83.8147C58.0891 84.0408 57.9234 84.2533 57.6821 84.6165C56.2193 83.5818 54.7262 82.7116 53.1125 81.999C49.5457 80.4231 45.9866 80.3614 42.4274 81.9784C39.8938 83.1295 37.3978 84.3354 34.7285 85.5551C34.2836 85.3632 34.11 85.0686 34.0421 84.7397C32.6924 77.8399 31.0561 70.9675 32.1872 63.8758C32.6999 60.676 34.1024 57.8941 36.621 55.6535C38.3704 54.0981 39.7656 52.1522 42.2993 51.2135C43.5209 51.1587 44.516 51.3163 45.451 51.7137C46.8234 52.2961 47.1326 53.0155 46.552 54.2626C46.3559 54.6874 46.092 55.0848 45.8432 55.4891C45.3757 56.2565 45.5869 56.8936 46.2957 57.4143C46.9216 57.8734 47.4493 57.6268 48.0601 57.2705C51.3478 55.3314 54.8014 53.6184 57.6442 51.1106C58.632 50.2404 59.7483 50.3981 60.902 50.6585C63.4508 51.2409 65.8335 52.2413 68.1787 53.2691C70.6068 54.3311 73.0197 55.0504 75.7042 54.1666C75.8852 54.1049 76.1265 54.2214 76.4583 54.3516C77.2953 55.119 77.3858 55.9824 77.4462 56.8389C77.514 57.8804 77.0916 58.5244 75.6136 58.1475C74.6334 57.3116 74.3093 56.2975 73.7815 55.3931C73.6382 55.167 73.4271 55.5232 73.6534 55.3588C74.2943 56.1399 74.5127 57.1198 75.2215 58.0517C75.9454 59.7167 76.0208 61.3062 75.9303 62.8958C75.5759 69.0899 75.35 75.3047 73.6232 81.5125L73.6456 81.4988Z" fill="#679441"/>
<path d="M93.7182 168.144C93.4769 168.713 92.9942 168.795 92.4815 169.028C89.5104 168.624 86.6978 169.288 83.8701 169.172C82.5429 169.117 81.2308 169.076 80.243 168.089C79.9866 167.829 79.6776 167.685 79.278 167.712C76.865 167.87 74.9268 166.712 72.9888 165.705C64.6715 161.374 57.6662 155.687 51.498 148.993C44.9376 141.874 39.7496 134.042 35.0367 125.841C31.7414 120.105 29.4415 114.041 26.7721 108.094C26.4479 107.361 26.1011 106.607 26.4857 105.662C28.9666 105.353 31.3719 105.408 33.9207 104.977C35.7606 106.635 36.7109 108.676 37.5253 110.698C40.0665 117.002 43.5578 122.874 46.936 128.814C51.5358 136.906 57.5532 143.984 64.7847 150.261C71.2093 155.831 78.863 159.374 87.316 161.607C88.6658 161.964 90.0836 161.669 91.5993 162.012C93.7408 163.677 94.0574 165.739 93.7105 168.144H93.7182Z" fill="#3E5B2D"/>
<path d="M65.1542 44.5756C66.9715 46.1379 68.8564 47.4055 70.8999 48.4265C72.4684 49.2144 73.7654 50.2216 74.8739 51.5988C73.6825 52.6129 72.4384 52.4417 71.0962 51.8867C68.2458 50.7082 65.433 49.4269 62.4167 48.6046C61.5797 48.3785 60.7505 48.1387 59.8607 48.0976C58.4808 48.0291 57.3042 48.3373 56.241 49.1869C54.2201 50.7971 52.2594 52.4897 49.9294 53.586C49.5599 53.5586 49.4092 53.4215 49.3715 53.2159C48.9191 50.4135 46.6795 49.3719 44.0176 49.0225C42.3511 48.8032 40.9637 48.3649 39.7572 47.2754C39.1012 46.6861 38.2115 46.3024 37.4273 45.8296C37.3594 45.2061 37.9624 45.2883 38.3017 45.165C43.3615 43.3835 47.5768 40.4713 51.3546 37.0111C53.5716 34.983 54.3255 32.2766 54.6272 29.5769C55.1701 24.808 54.9591 20.0529 53.3153 15.4142C52.3652 12.7419 50.9777 10.3642 48.067 9.10343C45.0508 7.80157 41.8684 7.84274 38.6637 8.47997C38.5958 8.49367 38.5281 8.52799 38.4527 8.54169C37.6006 8.68558 36.726 9.28841 35.9342 8.91841C35.1349 8.54841 35.587 7.59605 35.4136 6.91086C35.1271 5.80085 34.358 4.91707 33.7773 3.93725C34.6445 3.07391 35.7834 2.97102 36.8164 2.79973C43.2863 1.71713 49.4318 2.47081 55.1853 5.51305C57.7416 6.86287 59.5664 8.74715 60.7805 11.1796C62.1906 14.0094 62.7788 16.9488 62.7109 20.0596C62.6204 23.9103 62.1528 27.7269 61.8814 31.5571C61.625 35.168 62.2961 38.6831 63.4046 42.1296C63.6911 43.0272 64.3548 43.7671 65.1616 44.5551L65.1542 44.5756Z" fill="#679441"/>
<path d="M91.8042 162.073C87.8077 162.895 84.324 161.319 80.8176 160.134C77.8466 159.127 75.0488 157.695 72.3116 156.194C69.8081 154.824 67.5231 153.2 65.374 151.439C61.3171 148.116 57.7429 144.354 54.2817 140.531C52.2533 138.297 50.5569 135.803 49.0714 133.233C47.141 129.897 44.8333 126.752 43.1291 123.305C41.078 119.16 38.5824 115.199 37.0517 110.828C36.373 108.896 35.1513 107.114 34.1484 105.12C36.5011 104.449 38.869 103.928 41.4177 103.414C41.3348 105.312 42.4505 106.902 43.1593 108.519C44.3809 111.28 45.5723 114.048 46.5828 116.878C47.8873 120.53 49.8556 123.928 51.4768 127.457C53.3469 131.527 56.0916 135.083 58.7535 138.708C60.4426 141.017 62.5011 143.08 64.522 145.149C66.2111 146.875 67.7569 148.739 69.7099 150.24C71.8062 151.864 73.6612 153.796 76.1496 154.94C79.4977 156.489 82.7552 158.339 86.9101 158.346C87.5209 158.435 87.8756 158.805 88.2828 158.784C90.7712 158.64 91.3668 160.216 91.8042 162.073Z" fill="#4E6F36"/>
<path d="M54.2961 85.4774C54.1981 86.0529 54.0172 86.4845 53.8664 86.923C53.414 88.266 53.4894 88.732 54.7788 89.3761C55.563 89.7735 55.4651 90.1092 55.4047 90.767C55.1936 92.9391 53.7686 94.2478 51.7854 95.0632C50.4959 95.5908 50.0282 96.7419 48.965 97.4613C45.7451 99.6265 42.2766 101.175 38.3554 101.805C34.2533 102.47 30.1434 102.292 26.0036 101.908C22.6857 101.6 19.4662 100.805 16.1407 100.51C14.4215 100.36 12.6116 99.8799 10.8998 99.3591C10.4926 99.2358 10.0479 99.0852 9.73117 98.8317C7.22014 96.783 5.18397 94.4533 4.25647 91.4111C4.00009 90.5751 4.09832 89.9858 4.84485 89.5131C5.62154 89.0266 6.35276 89.0197 7.25764 89.4993C9.76867 90.8286 12.453 91.781 15.605 91.9044C15.8086 93.2062 14.3384 93.7475 14.1046 94.7615C18.1162 97.8586 22.8667 95.9469 26.7878 96.4471C26.8029 96.4471 26.2978 96.5568 25.5286 95.8922C30.9805 94.3642 36.5379 93.6037 41.2885 90.6026C41.5977 90.4381 41.7713 90.3421 42.0805 90.1914C42.3972 90.0612 42.5858 90.0201 42.9251 90.0338C43.2418 90.1434 43.3248 90.2667 43.3022 90.4517C43.3474 90.2872 43.332 90.1229 43.332 89.8419C44.2519 88.5195 45.3454 87.7932 47.0195 87.5534C48.9348 87.2724 50.5786 86.4091 50.7596 84.1823C51.4005 83.8328 51.9284 83.8466 52.6297 84.0727C53.4742 84.3194 53.7383 84.9361 54.2887 85.4705L54.2961 85.4774Z" fill="#3F483D"/>
<path d="M23.0879 50.1199C26.8054 48.8454 30.2889 47.2489 34.3005 47.6874C35.1074 47.7765 35.8842 47.8176 36.7137 48.3246C36.6533 49.4346 35.7785 49.9965 35.0546 50.62C32.9809 52.4084 31.2315 54.4159 29.6329 56.5674C28.3359 58.3147 27.4161 60.1373 27.1597 62.2202C26.7073 65.8997 26.006 69.5792 26.0437 73.2724C26.089 77.3013 26.4962 81.3303 27.3935 85.2975C27.6273 86.3253 27.9667 87.3736 27.2503 88.5316C25.4179 89.2579 23.6306 89.621 21.6324 89.8814C20.6521 89.3264 20.2903 88.5247 20.0565 87.6888C17.3645 77.8632 16.1881 67.9554 18.3297 57.8968C18.9706 54.9025 20.343 52.2645 23.0728 50.1199H23.0879Z" fill="#3E5B2D"/>
<path d="M27.285 88.6599C27.27 86.0699 26.2219 83.6169 26.0107 81.068C25.9881 80.8076 25.822 80.5473 25.8447 80.3007C26.086 77.786 25.1587 75.3261 25.3774 72.8183C25.5735 70.5298 25.8676 68.2549 26.1315 65.9733C26.3728 63.8834 26.5085 61.7937 27.0892 59.7381C27.2551 59.1557 27.4586 58.6006 27.7979 58.0936C30.2034 54.5306 33.0161 51.276 36.6884 48.5078C37.5028 48.5421 37.9851 48.9463 38.4451 49.3712C39.4932 50.3373 40.7302 50.9471 42.359 51.1459C40.1345 53.0233 37.9172 54.9692 35.9793 57.0932C34.177 59.0666 33.1062 61.4305 32.7594 64.1027C32.4728 66.2816 32.2318 68.4536 32.4354 70.6051C32.7672 74.1339 33.144 77.6627 33.9056 81.1503C34.1997 82.5001 34.6145 83.843 34.5768 85.4121C32.7143 86.6181 30.897 87.7006 28.6349 88.2967C28.4011 88.3653 28.3257 88.4201 28.1297 88.5298C27.813 88.612 27.6244 88.6394 27.285 88.6668V88.6599Z" fill="#4E6F36"/>
<path d="M91.8622 162.322C91.4776 161.63 91.2286 161.027 90.8817 160.465C90.4293 159.732 90.203 158.704 88.7476 159.396C88.1444 159.684 87.5867 159.115 87.1644 158.471C87.1342 158.224 87.1643 158.094 87.2321 157.978C87.8857 156.923 87.6393 155.858 86.4932 154.785C86.3801 155.799 85.9427 156.518 84.7814 156.361C84.1329 156.272 83.7107 155.847 83.6956 155.278C83.673 154.113 84.6157 153.915 85.7166 153.894C75.9741 141.095 67.8903 127.768 66.8271 111.762C66.073 111.81 66.0806 112.406 65.7564 112.673C64.7686 113.502 63.7504 113.461 62.9662 112.488C62.4308 111.817 62.2499 111.049 62.461 110.234C62.642 109.535 63.1396 109.062 63.8786 108.843C64.7005 108.603 65.2813 108.973 65.7262 109.562C65.9222 109.823 66.0958 110.097 66.6161 110.364C66.6161 109.172 66.5255 107.973 66.6386 106.787C66.7517 105.664 66.5934 104.389 68.4409 104.033C69.3307 103.862 68.9987 102.793 69.2023 101.957C70.0544 101.724 70.5748 101.868 70.5521 102.841C70.5069 104.958 70.5296 107.082 70.6276 109.199C70.8463 113.865 72.0602 118.353 73.4929 122.814C75.4912 129.049 77.6705 135.216 80.3248 141.246C83.1978 147.762 87.33 153.586 92.1711 159.019C93.1816 160.157 94.1923 161.301 94.7503 162.685C95.5346 164.624 95.8964 166.556 93.8453 168.256C93.6115 166.227 93.2796 164.206 91.8545 162.322H91.8622Z" fill="#EDF0E9"/>
<path d="M26.4182 105.525C26.5615 106.361 26.8554 107.115 27.1645 107.848C28.8084 111.727 30.324 115.666 32.2092 119.455C34.7277 124.505 37.5935 129.398 40.5871 134.235C43.1585 138.394 46.1293 142.3 49.4396 145.979C53.2476 150.213 57.0786 154.434 61.7764 157.963C65.2602 160.587 68.9172 162.931 72.7479 165.089C74.3767 166.007 76.141 166.59 77.8603 167.302C77.9281 167.33 78.0036 167.343 78.0639 167.377C78.9763 167.926 79.3837 166.432 80.1755 166.898C80.7712 167.254 80.5074 168.207 81.5706 168.46C83.4557 168.899 85.3859 168.912 87.2032 168.631C88.9225 168.364 90.4911 168.392 92.2254 168.96C90.9963 169.947 89.4653 170.255 87.8214 170.228C86.4415 170.207 85.0693 170.173 83.4933 170.139C83.0333 170.125 82.7844 170.063 82.4149 169.974C77.4305 169.193 72.906 167.597 68.5928 165.438C63.1334 162.705 58.0435 159.477 53.6172 155.503C49.3039 151.632 45.6543 147.26 42.5098 142.505C35.8665 132.454 30.8594 121.744 26.5688 110.733C26.0334 109.363 25.6793 107.937 25.1741 106.553C24.797 105.519 25.3776 105.409 26.4182 105.525Z" fill="#758F55"/>
<path d="M86.6606 89.341C87.0754 89.389 87.3844 89.4301 87.8444 89.4917C88.4853 90.8073 89.835 90.9649 91.0716 91.513C91.1546 91.7323 91.1546 91.8282 91.0565 92.0543C89.292 92.8081 88.3195 94.2676 86.7284 95.0418C80.6959 97.995 74.618 96.3299 68.5403 95.3158C67.9747 95.2199 67.4845 94.8773 66.7379 94.7539C66.1422 94.6032 65.7428 94.4251 65.2677 94.0756C64.7927 92.7738 65.5842 92.3901 66.5796 92.0818C66.2026 91.6021 64.5438 91.5405 65.5995 90.2181C65.8785 89.8686 65.4561 89.6288 65.147 89.4643C63.5634 88.601 63.6314 87.3059 64.1517 85.9972C64.4307 85.2915 64.4985 84.5927 64.6267 83.7294C67.0472 82.4549 69.2038 82.8797 71.3378 84.394C71.8279 85.0586 72.2578 85.5108 73.2381 85.2299C74.7386 85.271 75.6133 86.1207 76.5559 86.8333C79.1649 88.8135 82.1662 89.4985 85.665 89.0943C85.9063 89.0737 85.9894 89.0601 86.193 89.0464C86.3514 89.1835 86.4342 89.2794 86.668 89.341H86.6606Z" fill="#586159"/>
<path d="M43.417 90.1765C43.1455 90.2861 42.957 90.2861 42.6176 90.2929C42.3688 90.3751 42.2631 90.4574 42.1047 90.6218C37.3843 93.8696 31.8799 94.9729 26.3375 96.076C26.7447 96.494 27.4985 96.0212 27.9509 96.4186C28.0263 96.5283 27.9585 96.6035 27.7624 96.6378C24.6029 97.1654 21.4059 97.0421 18.2162 97.0558C17.1831 97.0558 16.233 97.0831 15.5468 96.1102C15.0189 95.3633 13.7898 95.5552 13.0508 94.9248C13.4052 94.5479 14.242 94.4315 14.1591 93.897C13.9781 92.7253 15.2301 92.7734 15.7504 92.0608C17.9447 92.5335 20.0561 91.9785 22.175 91.6976C23.5173 91.5194 24.8441 91.2454 26.3522 91.0398C32.7919 90.5534 37.799 87.1206 43.4093 85.0787C45.6865 84.2497 47.9563 83.2629 50.6483 84.1811C50.8444 84.6744 50.837 85.0856 50.9878 85.4419C51.2593 86.0791 50.9273 86.5313 50.4145 86.7574C49.0723 87.333 47.8357 88.1894 46.2823 88.2717C45.4754 88.3128 44.7439 88.2443 44.6836 89.32C44.6685 89.5872 43.9071 89.8202 43.417 90.1696V90.1765Z" fill="#586159"/>
<path d="M23.0413 50.0303C23.0715 51.3596 21.714 52.0449 20.9901 53.0727C19.3236 55.4434 18.8865 58.0882 18.3737 60.733C17.6196 64.5906 17.7703 68.503 17.9889 72.3744C18.2227 76.4992 18.8561 80.6034 19.8439 84.6529C20.2511 86.3247 20.734 87.9761 21.4352 89.7234C20.5304 90.0797 19.8969 89.8466 19.6933 88.9147C19.6104 88.531 19.4367 88.1543 19.2784 87.6335C19.0521 87.3183 19.0522 87.0854 18.9617 86.7702C17.7175 82.7139 16.1641 78.8288 15.5382 74.7519C14.6484 68.9621 14.1734 63.1449 15.7116 57.3757C16.6618 53.8127 18.7354 51.0786 23.0487 50.0234L23.0413 50.0303Z" fill="#758F55"/>
<path d="M65.1312 93.767C65.5611 93.9726 65.9079 94.0821 66.3905 94.2329C68.5848 96.0418 71.1562 96.2475 73.7879 96.2543C75.9445 96.2543 78.0031 96.8023 80.2125 96.8023C84.7746 96.8023 88.0625 95.0757 90.9657 91.9992C91.0788 91.8964 91.0785 91.8759 91.0861 91.8827C91.991 91.0879 90.8524 90.4712 90.958 89.6421C91.335 89.4983 91.6217 89.4777 91.9083 89.4297C92.504 89.3269 93.1222 88.8063 93.6727 89.512C94.1703 90.1561 94.2382 90.8139 93.8763 91.5676C93.3786 92.6228 92.6171 93.5409 91.7047 94.2535C89.3067 96.1446 86.9163 98.118 83.5381 98.4812C83.3948 98.4949 83.2438 98.6113 83.1231 98.5839C80.9288 98.0426 78.6892 99.0361 76.4949 98.4263C75.1752 98.0632 73.7805 98.1865 72.4156 97.9673C69.6105 97.5219 66.9637 96.6723 64.2792 95.9049C63.857 95.7815 63.3895 95.6855 63.2236 95.2881C62.2735 93.0407 60.3203 91.1291 60.4183 88.5391C60.4485 87.8333 59.815 87.525 59.5586 86.8467C60.2523 85.9422 60.9988 85.2365 62.3561 85.2707C62.982 85.6133 63.118 86.086 63.0351 86.5382C62.6656 88.5458 63.2312 90.4508 63.8043 92.4652C63.9475 92.6296 64.0079 92.6913 64.1813 92.8352C64.5885 93.1299 64.8598 93.3627 65.1312 93.7739V93.767Z" fill="#3F483D"/>
<path d="M75.08 57.4575C76.8898 58.1838 77.101 58.0811 77.0709 56.6285C77.0558 55.9844 76.8747 55.3746 76.6184 54.6141C77.4177 54.4633 77.4329 55.0456 77.5536 55.5527C78.187 58.3482 78.2699 61.1713 78.1191 64.0217C77.8854 68.4 76.754 72.6276 75.6154 76.8552C75.2233 78.3284 74.8013 79.7947 74.4092 81.2678C74.3187 81.6173 74.1978 81.8913 73.6172 81.7337C74.5447 75.4985 75.0425 69.3113 75.4799 63.1309C75.6005 61.3563 75.3215 59.5748 74.6956 57.6768C74.7258 57.4918 74.8312 57.4712 75.0951 57.4712L75.08 57.4575Z" fill="#EDF0E9"/>
<path d="M50.955 84.2954C48.625 84.0213 46.5813 84.3708 44.6283 85.1519C41.7855 86.2961 38.9352 87.3925 36.2206 88.7971C33.3928 90.2634 30.3614 91.394 26.7344 91.0583C28.0087 89.962 29.8865 89.5989 31.5831 88.9C35.723 87.2007 39.5912 84.9602 44.0628 83.5761C44.3116 83.4048 44.4397 83.3156 44.6961 83.2539C45.0957 83.2196 45.3824 83.1785 45.8047 83.0963C46.0762 82.9798 46.2043 82.9046 46.4531 82.8635C48.6927 82.6922 50.7891 82.6715 52.8402 83.8227C53.0287 83.9803 53.0815 84.0624 53.0589 84.2817C52.3652 84.3708 51.7541 84.3365 50.9473 84.3023L50.955 84.2954Z" fill="#818A8C"/>
<path d="M62.7263 85.3723C61.4745 85.4614 60.894 86.4892 59.6875 86.6537C58.9184 85.7629 59.7023 85.2353 60.2829 84.7077C62.1304 83.0152 64.2647 81.9258 67.2131 82.3369C67.6127 82.5082 67.869 82.522 68.2536 82.5631C69.1057 82.755 69.837 82.9399 70.7117 83.166C70.9605 83.2482 71.0512 83.2825 71.2699 83.4059C71.8505 83.6662 72.3029 83.8375 72.891 84.0705C73.1248 84.1253 73.2305 84.1184 73.3888 84.2418C74.2409 84.7625 75.04 85.1531 75.9599 85.619C76.1862 85.7012 76.292 85.7011 76.4504 85.8313C77.8152 86.6056 79.0366 87.4211 80.7181 87.6746C80.9821 87.702 81.0876 87.6951 81.2988 87.7979C82.5807 88.1816 83.7571 88.4556 85.0993 88.7502C85.416 88.7845 85.5365 88.8393 85.7326 88.9832C85.8306 89.0175 85.8081 89.0518 85.8081 89.0724C84.9334 89.8604 83.9382 89.8398 82.7845 89.7027C79.7908 89.3601 77.2497 88.2913 75.1459 86.3316C74.6783 85.9 74.0598 85.6806 73.2832 85.4887C72.5065 85.9135 72.039 85.5162 71.4735 85.0914C69.5808 83.2551 67.3563 83.3099 64.9358 83.858C64.2948 84.5775 63.5859 84.9543 62.7263 85.3654V85.3723Z" fill="#818A8C"/>
<path d="M33.6938 7.59818C33.6938 8.09151 33.7541 8.43422 33.6636 8.7357C33.4298 9.4757 32.6833 9.67439 32.0122 9.22901C31.1073 8.62605 30.6623 6.08392 31.3259 5.20688C31.718 4.69299 32.1779 4.80943 32.6002 5.16573C33.3166 5.77554 33.671 6.54299 33.7011 7.59818H33.6938Z" fill="#3E5B2D"/>
<path d="M90.8604 89.5164C91.1092 89.7836 91.1996 90.0097 91.4484 90.181C92.2025 90.7017 92.1346 91.2613 91.2448 91.8597C90.6943 91.3869 90.0988 91.4211 89.5559 91.4759C88.1232 91.6198 87.8892 90.8799 87.9947 89.674C88.8845 89.5095 89.7744 89.5027 90.8527 89.5164H90.8604Z" fill="#50584D"/>
<path d="M53.0447 84.5314C52.9844 84.3327 52.9766 84.2437 52.9766 84.0312C53.9267 84.0587 54.6506 84.3944 54.4545 85.5249C53.7231 85.5181 53.3687 85.1275 53.0369 84.5314H53.0447Z" fill="#586159"/>
<path d="M82.3945 170.001C82.5604 169.933 82.8242 169.953 83.1862 170.049C83.0203 170.221 82.7489 170.234 82.3945 170.001Z" fill="#3F483D"/>
<path d="M18.8871 86.7852C19.0228 86.8674 19.1361 87.0591 19.2416 87.3743C19.0003 87.3469 18.8795 87.1552 18.8871 86.7852Z" fill="#50584D"/>
<path d="M68.2764 82.4956C68.103 82.6806 67.8391 82.6806 67.4922 82.4476C67.6581 82.3722 67.9145 82.3928 68.2764 82.4956Z" fill="#586159"/>
<path d="M86.6983 89.2774C86.7586 89.3459 86.5474 89.346 86.5474 89.346C86.5474 89.346 86.3815 89.2295 86.3438 89.1473C86.4342 89.0856 86.54 89.1335 86.6983 89.2843V89.2774Z" fill="#3F483D"/>
<path d="M85.7778 88.9299C85.7024 88.9847 85.5666 88.9574 85.3555 88.8477C85.4309 88.7929 85.5742 88.8202 85.7778 88.9299Z" fill="#3F483D"/>
<path d="M28.0994 88.5708C28.0692 88.4749 28.1598 88.3927 28.3785 88.3242C28.4162 88.4201 28.3256 88.5091 28.0994 88.5708Z" fill="#3E5B2D"/>
<path d="M81.3604 87.8168C81.2775 87.9264 81.1495 87.9058 80.9609 87.7688C81.0288 87.714 81.1644 87.7209 81.3604 87.8168Z" fill="#50584D"/>
<path d="M76.4987 85.873C76.3932 85.9553 76.2878 85.9142 76.1445 85.7635C76.2426 85.6264 76.3705 85.6538 76.4987 85.873Z" fill="#586159"/>
<path d="M73.4289 84.2828C73.3308 84.3719 73.2253 84.3309 73.082 84.1938C73.1725 84.05 73.3007 84.0704 73.4289 84.2828Z" fill="#586159"/>
<path d="M71.3365 83.4016C71.2309 83.5181 71.0953 83.4837 70.9219 83.2987C71.0048 83.2439 71.1404 83.2783 71.3365 83.4016Z" fill="#586159"/>
<path d="M44.6974 83.2461C44.6974 83.342 44.5694 83.4242 44.3281 83.5064C44.3281 83.4173 44.4561 83.3215 44.6974 83.2461Z" fill="#3F483D"/>
<path d="M46.4546 82.8633C46.4395 82.9592 46.3038 83.0209 46.0625 83.0757C46.0776 82.9867 46.2058 82.9112 46.4546 82.8633Z" fill="#3F483D"/>
<path d="M66.4158 131.938C66.0538 131.712 65.7899 131.562 65.6466 131.349C65.2997 130.835 65.3976 130.321 65.8425 129.903C66.2949 129.472 66.8756 129.424 67.4412 129.698C68.0067 129.972 68.3462 130.493 68.0973 131.013C67.6901 131.863 67.7957 132.315 68.8514 132.576C69.3415 132.692 69.7562 133.22 69.5753 133.665C69.1605 134.672 69.4696 135.035 70.5856 135.378C71.7393 135.727 72.2297 137.023 71.7546 137.824C71.3399 138.523 70.6383 138.859 69.756 138.729C68.6174 138.557 67.6146 137.434 67.9464 136.399C68.2329 135.515 68.3159 135.07 67.2527 134.611C66.5514 134.309 66.5667 133.528 67.0568 132.877C67.283 132.576 67.8105 132.507 67.8558 132.062C67.4109 131.747 66.9738 132.123 66.4158 131.938Z" fill="#EDF0E9"/>
<path d="M67.3501 125.746C67.599 126.15 67.8329 126.431 67.8932 126.733C68.1119 127.843 67.7499 128.59 66.8601 128.843C65.925 129.11 65.1561 128.823 64.5905 128.11C63.9722 127.336 63.9571 126.157 64.5905 125.554C65.2918 124.89 66.0908 124.849 66.9127 125.383C67.0258 125.459 67.1316 125.554 67.3428 125.746H67.3501Z" fill="#EDF0E9"/>
<path d="M77.0321 146.736C78.3592 146.16 79.1434 146.667 79.6109 147.592C79.9729 148.305 79.7992 149.045 79.0376 149.504C78.276 149.963 77.4993 149.799 76.8885 149.216C76.0665 148.435 75.9837 147.613 77.0243 146.736H77.0321Z" fill="#EDF0E9"/>
<path d="M65.9459 119.949C66.1118 120.49 66.0139 120.874 65.6896 121.169C65.1844 121.628 64.6113 121.792 63.9477 121.395C63.2841 120.997 63.1937 120.435 63.4727 119.853C63.7668 119.243 64.3473 119.024 65.0788 119.216C65.4483 119.312 65.697 119.538 65.9459 119.956V119.949Z" fill="#EDF0E9"/>
<path d="M80.1611 150.062C81.4581 150.487 82.0915 151.474 82.9436 152.242C83.2075 152.481 83.2905 152.831 82.9587 153.098C82.823 153.208 82.4985 153.297 82.3854 153.228C81.2845 152.529 80.1686 151.817 79.7086 150.59C79.6634 150.474 79.9046 150.268 80.1685 150.062H80.1611Z" fill="#EDF0E9"/>
<path d="M63.11 115.726C63.0647 115.041 63.359 114.774 63.9848 114.952C64.294 115.041 64.407 115.343 64.3015 115.569C64.0753 116.048 63.7059 116.268 63.1177 115.72L63.11 115.726Z" fill="#EDF0E9"/>
<path d="M50.9712 64.5868C47.2009 62.7847 43.5886 62.8602 39.954 64.5115C39.3508 64.7856 38.6723 65.5324 38.0162 64.9911C37.2999 64.395 38.0161 63.6139 38.2876 62.9904C39.3357 60.5648 42.4575 58.8176 45.421 58.893C48.1356 58.9615 51.235 60.9416 52.2153 63.2301C52.6376 64.2168 52.5472 64.3401 50.9712 64.5936V64.5868Z" fill="#2B2A28"/>
<path d="M48.7103 73.4767C48.469 74.8403 47.8958 75.8954 46.9231 76.7314C45.4526 77.9921 43.6203 77.7933 42.444 76.2928C40.5965 73.9289 40.8678 69.1942 42.9716 67.0016C44.525 65.3777 46.0936 65.4462 47.9109 67.3442C47.9336 67.5566 47.8807 67.6389 47.6922 67.7828C46.4631 67.913 45.1207 67.5497 44.8568 69.0777C44.6758 70.1123 44.4797 71.2155 45.4072 72.0309C46.576 73.0655 47.2624 71.5444 48.401 71.5033C48.9892 72.0994 48.7327 72.7299 48.7026 73.4767H48.7103Z" fill="#2B2A28"/>
<path d="M70.6065 73.8761C70.4104 75.1779 69.8597 76.1784 69 77.0074C67.5749 78.3847 65.7654 78.2476 64.5891 76.6854C63.654 75.4452 63.4202 74.02 63.4429 72.54C63.473 70.7996 63.7594 69.1208 64.9433 67.6888C66.3006 66.0375 67.658 65.9416 69.6035 67.4079C69.7694 67.7231 69.7466 67.9013 69.4526 68.1343C68.4723 68.3193 67.5147 68.2096 67.0622 69.114C66.5495 70.135 66.3383 71.2451 67.2055 72.1084C68.4647 73.3623 69.166 71.6424 70.3348 71.5259C70.8852 72.2659 70.6291 73.0059 70.6065 73.8761Z" fill="#2B2A28"/>
<path d="M64.8161 60.7276C68.5713 59.1311 72.6658 60.7344 73.7743 64.085C73.91 64.4961 73.9705 64.873 73.5331 65.147C73.2013 65.3526 72.8393 65.2909 72.5 65.1196C72.4396 65.0853 72.3718 65.058 72.3114 65.0169C69.2499 62.6119 66.0075 63.1052 62.7122 64.5373C62.3352 64.7017 61.9281 65.0305 61.5586 64.592C61.3098 64.2974 61.5435 63.9617 61.6868 63.6602C62.29 62.3721 63.5719 61.6732 64.8161 60.7276Z" fill="#2B2A28"/>
<path d="M65.3719 54.7992C66.3748 55.2035 67.2423 55.5323 68.0793 55.916C68.396 56.0599 68.6976 56.3133 68.4865 56.7039C68.3131 57.0328 67.951 57.1904 67.5815 57.0876C66.7596 56.8478 65.9452 56.5806 65.161 56.2517C63.5171 55.5665 61.9789 54.7032 60.5235 53.7234C60.056 53.4082 59.5056 53.0381 60.0184 52.4489C60.4708 51.9213 60.9155 52.3735 61.3303 52.5996C62.6272 53.3122 63.9243 54.0249 65.3646 54.7992H65.3719Z" fill="#EDF0E9"/>
<path d="M48.7563 73.4857C48.5075 73.006 48.7786 72.3481 48.281 71.663C47.2781 70.5187 47.5874 69.2717 47.5195 67.9493C47.6402 67.73 47.6929 67.6614 47.8664 67.5312C48.6204 67.9492 49.005 68.5659 49.0126 69.3059C49.0276 70.6558 49.2312 72.0125 48.7486 73.4857H48.7563Z" fill="#3F483D"/>
<path d="M70.6531 73.8909C70.3816 73.2811 70.7135 72.4863 70.163 71.6641C69.3561 70.9035 69.477 70.1156 69.6505 69.1701C69.7787 68.9165 69.8464 68.8206 70.0952 68.6836C71.3847 70.2664 70.9698 72.0204 70.6531 73.8909Z" fill="#3F483D"/>
<path d="M58.9426 55.3697C58.7918 55.6301 58.6711 55.8151 58.4901 55.8836C57.9472 56.096 57.4724 56.0001 57.4271 55.3903C57.397 54.8833 57.8793 54.7943 58.3167 54.8011C58.6108 54.8011 58.8372 54.9655 58.9353 55.3629L58.9426 55.3697Z" fill="#EDF0E9"/>
<path d="M61.219 55.8008C61.7997 56.2667 61.7923 56.6368 61.1513 56.8697C60.8949 56.9656 60.5328 56.9245 60.4197 56.6641C60.1784 56.1091 60.4951 55.8282 61.219 55.8076V55.8008Z" fill="#EDF0E9"/>
<path d="M75.1831 57.3549C75.1303 57.4851 75.0324 57.5125 74.7685 57.5125C74.2029 56.7519 73.7728 56.0118 73.5391 54.7031C74.5721 55.635 74.5119 56.6286 75.1831 57.3549Z" fill="#818A8C"/>
<path d="M69.1211 68.133C69.3021 67.9137 69.4302 67.8247 69.6263 67.6328C70.0259 67.7356 70.1089 68.0714 70.2371 68.5167C70.2069 68.688 70.139 68.736 69.9731 68.8593C69.4302 68.8799 69.1814 68.64 69.1211 68.133Z" fill="#3F483D"/>
<path d="M78.5563 164.475C78.6543 165.01 78.3753 165.112 77.9757 165.003C77.757 164.948 77.6135 164.742 77.719 164.564C77.8698 164.311 78.1642 164.297 78.5563 164.475Z" fill="#679441"/>
<path d="M43.332 90.2773C43.3848 90.3322 43.4378 90.3938 43.4981 90.4486C43.4604 90.4281 43.4227 90.4076 43.3549 90.3322C43.3322 90.2774 43.332 90.2773 43.332 90.2773Z" fill="#50584D"/>
<path d="M42.1254 90.6433C42.065 90.5542 42.1401 90.4446 42.3739 90.3281C42.4267 90.4172 42.3441 90.52 42.1254 90.6433Z" fill="#50584D"/>
<path d="M90.9298 91.9023C91.0806 92.0257 91.1109 92.1696 91.0656 92.2861C90.6207 93.4646 87.5216 96.1848 86.2699 96.1916C84.8371 96.1985 83.9624 97.5277 82.6579 97.3633C81.4212 97.2057 80.2901 97.1234 79.0308 97.3496C77.8921 97.562 76.5724 97.8018 75.5016 96.8837C75.1095 96.5411 74.5289 96.6644 74.0237 96.6575C73.2922 96.6438 72.5684 96.6507 71.837 96.6575C69.7256 96.6781 67.7874 96.3423 66.5508 94.4101C67.1239 94.2251 67.6592 94.3896 68.2021 94.6225C70.4115 95.5475 72.787 95.7668 75.185 95.8628C76.9193 95.9313 78.6538 95.7531 80.3806 96.1916C81.2478 96.4109 82.2655 96.4246 83.1704 96.0478C84.7464 95.3968 86.2396 94.5952 87.8759 94.0402C88.7205 93.7524 87.6421 93.5674 87.5667 93.1632C88.6601 92.8754 89.7536 92.4574 90.9375 91.9092L90.9298 91.9023Z" fill="#50584D"/>
<path d="M62.5863 85.578C62.8954 84.557 63.7626 84.3377 64.6751 83.9883C65.2029 84.6666 65.4667 85.3108 64.7428 85.9823C64.0943 86.5784 64.3584 87.3594 64.4037 88.0651C64.4565 88.9285 65.2404 89.0107 65.9718 89.1615C66.5374 89.278 66.8165 89.7371 66.8014 90.2098C66.7788 90.895 65.9417 90.5044 65.6099 90.8264C65.7004 91.1896 66.1151 91.2718 66.364 91.4979C66.5676 91.6829 66.809 91.8268 67.0352 91.9981C66.4319 92.5325 65.6252 92.8683 65.2557 93.7454C64.841 93.6837 64.4563 93.4918 63.9887 93.1903C63.6494 92.7792 62.5788 92.9849 63.1669 92.101C63.28 91.9365 63.167 91.5802 63.0539 91.3678C62.1264 89.7439 62.3222 88.0447 62.6087 86.3317C62.6389 86.1399 62.6087 85.9411 62.6087 85.578H62.5863Z" fill="#50584D"/>
<path d="M71.4062 85.1016C71.8813 85.1084 72.3566 85.2729 72.9825 85.4579C72.4622 86.006 71.8436 86.1636 71.4062 85.1016Z" fill="#50584D"/>
<path d="M47.4404 67.7153C48.202 68.8801 48.3452 70.0313 48.1341 71.4017C47.8928 71.8951 47.7043 72.2787 47.3951 72.5391C46.4224 73.3545 45.3441 73.2174 44.673 72.1622C43.8963 70.9357 43.9039 69.6203 44.5298 68.3458C45.1104 67.1604 45.7664 67.0233 47.4555 67.7153H47.4404Z" fill="#EDF0E9"/>
<path d="M69.0314 67.9694C69.3481 68.2572 69.5142 68.5176 69.7781 68.8533C70.0119 69.6961 70.1324 70.4567 70.0042 71.4022C69.0239 73.122 68.4509 73.4851 67.5008 73.1836C66.611 72.9027 66.1284 71.9298 66.1661 70.5252C66.2189 68.5792 66.9427 67.8872 69.0314 67.9763V67.9694Z" fill="#EDF0E9"/>
<path d="M64.2422 90.4239C64.4533 90.369 64.5288 90.4238 64.4609 90.5334C64.4458 90.554 64.2874 90.4992 64.2422 90.4239Z" fill="#586159"/>
<path d="M63.9023 93.0749C63.9551 93.1091 63.8949 92.8213 63.9627 93.0612C63.9024 93.0886 63.9099 93.068 63.9023 93.0749Z" fill="#586159"/>
</svg>
