<svg width="1727" height="3926" viewBox="0 0 1727 3926" fill="none" xmlns="http://www.w3.org/2000/svg">
<path d="M779.384 3248.2C776.651 3234.4 789.02 3220.74 803.078 3218.78C817.005 3216.96 830.93 3224.51 840.302 3235.05C849.673 3245.6 855.268 3258.87 860.735 3271.89C871.868 3298.38 890.746 3330.05 895.114 3358.16C898.15 3377.71 891.547 3412.7 887.921 3415.71C883.626 3429.51 861.218 3444.82 847.161 3442.08C840.132 3440.65 843.818 3442.14 837.571 3438.63C830.864 3434.85 820.787 3424.1 819.588 3422.9C808.256 3421.96 792.943 3433.89 789.019 3444.35C785.535 3453.57 775.448 3464.11 778.828 3473.25C779.715 3475.65 821.709 3514.15 829.179 3524.8C863.801 3573.74 866.185 3625.59 842.366 3680.65C842.366 3686.71 805.202 3732.2 790.817 3736.99C776.431 3747.78 747.471 3757.4 726.08 3759.77C682.607 3764.59 652.35 3736.43 626.578 3701.03C622.534 3692.73 609.134 3661.73 602.601 3642.28C591.819 3610.19 581.078 3578.56 571.432 3546.38C566.668 3530.35 560.434 3513.37 554.649 3496.03C550.375 3483.22 546.934 3470.21 541.462 3457.24C529.855 3429.73 519.557 3402.12 516.287 3376.15C513.553 3353.76 512.959 3343.86 524.673 3324.6C538.47 3301.82 558.291 3288.02 583.412 3279.04C621.679 3265.51 709.288 3269.45 709.288 3269.45C722.475 3269.45 753.613 3261.09 753.613 3261.09C765.718 3258.74 777.693 3252.37 779.905 3248.33L779.384 3248.2Z" fill="white"/>
<path d="M863.859 3269.17C872.32 3263.18 972.024 3222.44 1028.12 3204.35C1076.93 3188.6 1128.48 3174.67 1166.22 3139.92C1200.58 3108.29 1219.06 3063.12 1234.16 3018.87C1249.26 2974.61 1262.54 2928.67 1289.87 2890.66C1297.03 2880.77 1305.36 2871.27 1316.03 2865.28C1326.71 2859.29 1340.37 2857.6 1351.31 2863.07C1363.54 2869.31 1370.05 2883.37 1370.96 2897.04C1371.87 2910.7 1367.97 2924.24 1364.19 2937.39C1340.12 3020.82 1315.77 3104.77 1278.81 3183.39C1268.27 3205.91 1255.9 3228.82 1236.12 3243.79C1217.12 3258.1 1193.29 3263.83 1170.12 3269.3C1085.13 3289.08 1000.26 3309 915.269 3328.78C906.808 3330.73 897.568 3332.69 889.758 3328.78C869.323 3318.37 865.031 3272.94 863.859 3269.17Z" fill="#3C5B31" stroke="#231F20" stroke-width="5" stroke-miterlimit="10"/>
<path d="M870.363 3295.56C862.683 3276.56 853.179 3258.21 841.986 3241.03C835.087 3230.49 826.886 3219.81 814.911 3216.04C805.149 3212.91 793.695 3215.13 785.886 3221.76C772.219 3233.35 771.573 3254.69 777.821 3271.35C784.068 3288.01 795.653 3302.2 804.113 3317.95C818.04 3344.24 822.591 3374.57 822.201 3404.25C822.071 3412.32 821.681 3420.91 825.716 3427.94C830.662 3436.66 841.725 3440.69 851.748 3439.78C867.107 3438.35 880.382 3426.77 887.021 3412.84C893.659 3398.91 894.57 3382.77 893.268 3367.41C891.055 3341.25 879.211 3317.17 870.49 3295.56H870.363Z" stroke="#231F20" stroke-width="2.15" stroke-miterlimit="10"/>
<path d="M771.441 3256.95C744.108 3269.96 712.871 3271.78 682.674 3271.65C652.477 3271.52 621.63 3270.09 592.344 3277.38C563.058 3284.67 534.288 3302.37 522.573 3330.22C509.036 3362.24 520.36 3398.69 531.553 3431.49C555.243 3500.21 578.804 3568.94 602.493 3637.66C610.303 3660.57 618.375 3683.61 630.871 3704.17C643.366 3724.74 661.199 3743.09 683.716 3752.08C706.364 3761.06 732.263 3759.62 755.432 3752.08C792.137 3740.23 823.633 3713.29 840.945 3678.79C858.256 3644.3 860.99 3602.91 848.495 3566.47C837.041 3533.28 813.873 3505.16 786.93 3482.64C759.986 3460.25 729.007 3443.07 698.29 3426.15" stroke="#231F20" stroke-width="2.15" stroke-miterlimit="10"/>
<path d="M823.649 3419.9C813.366 3420.03 803.994 3425.89 797.095 3433.57C790.197 3441.12 785.642 3450.49 781.086 3459.6" stroke="#231F20" stroke-width="2.15" stroke-miterlimit="10"/>
<path d="M561.096 3301.84C551.725 3368.22 563.182 3437.46 593.249 3497.34C592.598 3498.12 592.076 3498.77 591.425 3499.55" stroke="#231F20" stroke-miterlimit="10"/>
<path d="M698.17 3749.58C648.319 3700.38 618.251 3631.53 616.299 3561.5" stroke="#231F20" stroke-miterlimit="10"/>
<path d="M988.695 3714.21C989.382 3700.37 999.412 3665.06 999.412 3660.26C997.015 3660.26 977.467 3657.44 973.047 3651.87C967.971 3645.63 967.248 3639.17 964.645 3631.49C963.017 3626.7 969.45 3612.83 975.438 3606.32C981.425 3599.81 983.1 3600.19 991.04 3596.67C1045.84 3573.24 1113.02 3564.12 1169.64 3582.34C1182.92 3586.64 1195 3599.71 1197.22 3613.51C1199.17 3625.36 1189.67 3636.89 1184.07 3647.57C1181.22 3653.11 1178.2 3645.82 1176.78 3651.87C1174.36 3662.15 1174.89 3686.1 1176.78 3696.51C1177.56 3701.06 1178.99 3705.75 1182.24 3709.13C1190.57 3717.59 1198.53 3717.02 1209.21 3711.81C1254.37 3689.69 1318.93 3670.96 1368.65 3678.25C1392.21 3681.63 1412.22 3690.78 1429.79 3706.79C1442.67 3718.5 1458.83 3739.64 1464.55 3756.17C1473.53 3782.07 1474.11 3812.47 1466.95 3838.89C1459.79 3865.31 1445.76 3887.72 1422.6 3902.43C1390.71 3922.6 1320.7 3922.79 1314.7 3922.81C1273.73 3922.93 1233.37 3925.06 1192.42 3925.2C1150.36 3925.35 1095.14 3922.53 1053.13 3922.72C1038.94 3922.72 1024.49 3922.72 1010.82 3918.95C997.158 3915.17 984.008 3906.85 977.63 3894.09C977.63 3888.04 977.63 3862.86 977.63 3858.07C977.63 3838.89 985.026 3730.99 988.434 3714.08L988.695 3714.21Z" fill="white"/>
<path d="M1044.92 3572.71C1028.13 3580.39 1057.8 3189.78 1064.31 2998.31C1065.35 2965.64 1066.53 2932.71 1073.69 2900.82C1079.67 2874.14 1093.86 2844.85 1120.54 2838.99C1141.5 2834.44 1163.36 2846.8 1175.34 2864.5C1187.44 2882.21 1191.35 2904.08 1193.17 2925.42C1198.38 2985.17 1189.27 3045.17 1180.15 3104.52C1157.51 3251.73 1134.86 3398.94 1112.21 3546.29C1111.04 3553.44 1109.74 3561.25 1104.53 3566.33C1089.43 3581.43 1063.67 3563.86 1044.92 3572.45V3572.71Z" fill="#3C5B31" stroke="#231F20" stroke-width="5" stroke-miterlimit="10"/>
<path d="M1099.46 3574.39C1070.31 3574.78 1041.15 3579.47 1013.16 3587.93C997.675 3592.62 981.667 3599.38 972.686 3612.66C963.574 3626.07 965.401 3647.68 979.848 3654.7C990.782 3660.04 1003.8 3655.35 1015.38 3651.58C1055.47 3638.43 1099.07 3636.22 1140.33 3645.2C1156.47 3648.71 1175.48 3653.27 1187.97 3642.6C1200.08 3632.18 1198.65 3611.62 1188.49 3599.26C1178.34 3586.89 1162.33 3581.03 1146.58 3577.65C1123.41 3572.7 1099.46 3571.79 1099.33 3574.26L1099.46 3574.39Z" stroke="#231F20" stroke-width="2.15" stroke-miterlimit="10"/>
<path d="M999.624 3662.53C985.046 3731.52 978.153 3802.06 979.064 3872.61C979.194 3883.94 979.84 3896.3 986.869 3905.15C996.631 3917.65 1014.85 3919.08 1030.73 3919.47C1069.39 3920.38 1108.18 3921.16 1146.84 3922.07C1215.82 3923.63 1285.07 3925.19 1353.92 3918.95C1377.61 3916.73 1402.08 3913.48 1422.26 3900.73C1442.95 3887.58 1457.01 3865.71 1464.17 3842.28C1473.15 3813.39 1472.37 3781.37 1461.05 3753.25C1449.59 3725.27 1427.46 3701.45 1399.74 3689.35C1367.46 3675.16 1330.36 3676.98 1295.74 3683.75C1237.17 3695.33 1178.99 3722.67 1143.98 3770.96" stroke="#231F20" stroke-width="2.15" stroke-miterlimit="10"/>
<path d="M1175.35 3651.09C1169.62 3671.13 1172.88 3693.65 1183.94 3711.35" stroke="#231F20" stroke-width="2.15" stroke-miterlimit="10"/>
<path d="M1454.41 3864.28C1389.2 3888.75 1318.52 3898.64 1249.01 3892.78" stroke="#231F20" stroke-miterlimit="10"/>
<path d="M982.693 3878.56C1049.99 3891.84 1118.71 3898.09 1187.44 3897.3" stroke="#231F20" stroke-miterlimit="10"/>
<path d="M1244.47 3229.06C1116.39 3169.7 1001.46 3095.38 901.366 3000.23C818.975 2922.01 750.376 2832.07 692.195 2733.8C560.082 2510.83 456.088 2275.9 383.979 2027.03C378.643 2008.42 371.349 1997.87 349.742 1994.1C241.579 1975.22 151.121 1924.33 83.047 1836.99C32.4147 1771.91 -1.29481 1700.19 0.527439 1615.46C1.17824 1583.31 10.6771 1553.64 26.9472 1525.91C31.633 1517.84 37.0997 1511.72 49.7252 1512.11C57.1444 1572.64 79.3992 1626.65 131.724 1661.54C179.102 1693.17 232.08 1710.48 293.776 1712.95C281.801 1671.95 271.781 1634.59 260.066 1597.89C219.586 1470.72 199.933 1340.69 205.009 1207.28C207.352 1145.45 214.117 1084.41 240.93 1027.14C268.914 967.263 312.261 924.7 373.957 900.361C435.783 876.021 498.651 857.016 563.731 841.137C672.155 814.714 767.561 757.314 848.781 678.958C880.54 648.37 891.21 607.498 897.718 566.758C911.906 477.077 903.704 388.701 876.37 301.884C849.427 216.498 797.627 192.548 711.331 199.837C675.277 202.961 640 214.286 604.076 220.533C515.827 236.022 491.879 187.731 501.251 114.19C504.895 85.4248 519.736 62.5193 543.426 45.3381C562.95 31.1507 583.774 19.6948 607.463 14.228C748.297 -18.0517 879.886 4.85714 1001.06 83.2136C1033.08 103.909 1057.95 133.195 1075.78 167.166C1107.15 226.91 1127.58 289.516 1127.71 358.241C1127.84 422.67 1122.51 486.579 1115.87 550.488C1109.23 613.485 1111.44 676.222 1118.21 738.96C1125.24 802.738 1156.61 849.336 1215.83 876.019C1238.74 886.302 1261.91 896.195 1284.68 906.608C1338.31 931.208 1372.42 970.126 1385.43 1029.74C1402.74 1108.49 1401.83 1187.23 1394.8 1266.37C1386.34 1363.47 1356.41 1456.01 1334.67 1550.38C1332.72 1558.97 1331.67 1567.95 1328.68 1576.15C1322.3 1593.33 1330.89 1601.92 1345.08 1608.3C1384 1625.74 1422.13 1645.66 1462.09 1660.23C1512.59 1678.72 1563.1 1678.72 1609.56 1645.4C1629.61 1631.08 1643.8 1612.34 1654.47 1590.47C1673.35 1551.94 1685.32 1511.07 1694.04 1469.42C1708.49 1470.2 1711.87 1479.7 1715 1489.21C1729.44 1533.46 1729.96 1578.76 1718.77 1623.27C1702.24 1688.48 1674.39 1749 1634.17 1803.28C1579.89 1876.56 1505.7 1918.47 1417.06 1934.74C1373.97 1942.68 1330.89 1954.66 1286.25 1948.54C1272.06 1946.59 1269.33 1953.36 1269.07 1965.72C1267.9 2045.12 1267.64 2124.78 1286.77 2202.35C1328.55 2370.91 1379.31 2536.74 1447.65 2696.7C1493.98 2805.26 1559.2 2901.97 1634.04 2992.69C1665.8 3031.21 1690.66 3072.61 1695.87 3123.63C1700.94 3172.83 1684.54 3212.14 1644.71 3242.2C1589.78 3283.59 1526.66 3289.45 1461.58 3284.51C1386.99 3278.91 1316.05 3257.69 1244.07 3229.32L1244.47 3229.06Z" fill="#2B2A28"/>
<path d="M716.532 1966.88C767.555 1949.57 818.185 1938.89 864.392 1914.16C912.291 1888.65 960.711 1864.57 987.784 1811.08C1051.04 1864.18 1116.39 1905.7 1193.44 1931.74C1207.63 1951.78 1202.68 1969.74 1187.71 1980.55C1161.42 1999.55 1157.25 2024.67 1158.82 2053.57C1159.34 2063.59 1159.34 2073.74 1157.13 2083.63C1153.48 2100.03 1146.06 2105.89 1131.88 2092.1C1121.85 2082.33 1110.92 2070.75 1096.73 2084.81C1084.36 2097.17 1085.15 2112.4 1094.78 2126.2C1106.49 2142.73 1118.99 2136.87 1133.57 2127.76C1155.82 2113.96 1163.37 2119.43 1165.97 2151.19C1173.39 2244.38 1190.05 2335.75 1223.38 2423.22C1281.69 2576.29 1350.67 2723.89 1447.38 2857.17C1453.24 2865.38 1458.19 2874.49 1465.09 2881.52C1489.17 2906.12 1483.83 2928.37 1451.81 2953.89C1480.71 2952.06 1501.27 2924.99 1518.97 2954.8C1530.94 2975.1 1523.14 2990.59 1508.82 3008.16C1470.42 3025.34 1437.36 3009.07 1404.95 2997.23C1296.92 2957.53 1214 2883.6 1138.25 2799.78C1061.33 2714.78 989.87 2625.49 932.339 2526.31C883.138 2441.57 842.659 2351.89 809.208 2259.87C780.052 2179.56 750.504 2099.38 719.786 2019.73C713.538 2003.33 705.342 1987.05 716.666 1967.01L716.532 1966.88Z" fill="#679441"/>
<path d="M1271.68 1548.18C1225.99 1533.86 1182.39 1518.63 1134.88 1518.11C1076.96 1517.59 1033.23 1540.63 1005.5 1592.17C1003.16 1596.47 1000.29 1600.5 996.129 1607.4C970.878 1587.75 945.105 1571.22 917.251 1557.68C855.685 1527.74 794.25 1526.57 732.815 1557.29C689.081 1579.16 645.998 1602.06 599.922 1625.23C592.242 1621.59 589.246 1615.99 588.075 1609.74C564.776 1478.67 536.532 1348.12 556.056 1213.41C564.907 1152.62 589.115 1099.78 632.589 1057.21C662.786 1027.67 686.869 990.702 730.603 972.87C751.689 971.829 768.872 974.823 785.012 982.372C808.702 993.435 814.038 1007.1 804.015 1030.79C800.631 1038.86 796.07 1046.41 791.775 1054.09C783.705 1068.67 787.35 1080.77 799.585 1090.66C810.389 1099.38 819.504 1094.7 830.047 1087.93C886.797 1051.09 946.41 1018.55 995.481 970.916C1012.53 954.386 1031.79 957.381 1051.71 962.327C1095.7 973.39 1136.83 992.394 1177.31 1011.92C1219.22 1032.09 1260.87 1045.76 1307.21 1028.97C1310.33 1027.8 1314.5 1030.01 1320.23 1032.48C1334.67 1047.06 1336.24 1063.46 1337.28 1079.73C1338.45 1099.52 1331.17 1111.75 1305.65 1104.59C1288.73 1088.71 1283.13 1069.45 1274.02 1052.27C1271.55 1047.97 1267.91 1054.74 1271.81 1051.61C1282.87 1066.45 1286.65 1085.07 1298.89 1102.77C1311.38 1134.4 1312.68 1164.59 1311.12 1194.79C1305 1312.46 1301.1 1430.51 1271.29 1548.44L1271.68 1548.18Z" fill="#679441"/>
<path d="M1618.15 3194.17C1613.99 3204.98 1605.66 3206.54 1596.8 3210.96C1545.52 3203.29 1496.97 3215.91 1448.16 3213.7C1425.25 3212.66 1402.61 3211.87 1385.55 3193.13C1381.13 3188.19 1375.8 3185.45 1368.9 3185.97C1327.25 3188.97 1293.79 3166.97 1260.34 3147.84C1116.77 3065.57 995.853 2957.54 889.382 2830.38C776.143 2695.14 686.598 2546.37 605.247 2390.56C548.367 2281.62 508.669 2166.43 462.592 2053.45C456.995 2039.52 451.003 2025.2 457.641 2007.24C500.464 2001.39 541.99 2002.43 585.984 1994.23C617.743 2025.73 634.14 2064.51 648.198 2102.91C692.062 2222.66 752.326 2334.2 810.638 2447.05C890.035 2600.77 993.902 2735.23 1118.73 2854.45C1229.62 2960.27 1361.73 3027.57 1507.64 3070C1530.94 3076.77 1555.41 3071.17 1581.58 3077.68C1618.54 3109.31 1624.01 3148.49 1618.03 3194.17H1618.15Z" fill="#3E5B2D"/>
<path d="M1125.11 846.733C1156.48 876.41 1189.02 900.491 1224.3 919.885C1251.37 934.853 1273.75 953.985 1292.88 980.148C1272.32 999.411 1250.84 996.159 1227.68 985.616C1178.48 963.229 1129.93 938.888 1077.86 923.269C1063.42 918.974 1049.1 914.418 1033.74 913.637C1009.92 912.336 989.61 918.191 971.258 934.331C936.375 964.919 902.538 997.07 862.318 1017.9C855.941 1017.38 853.334 1014.77 852.684 1010.87C844.874 957.631 806.215 937.845 760.268 931.207C731.503 927.042 707.555 918.714 686.729 898.019C675.405 886.825 660.048 879.535 646.512 870.554C645.34 858.709 655.749 860.271 661.606 857.928C748.944 824.087 821.704 768.767 886.914 703.036C925.181 664.508 938.202 613.097 943.408 561.814C952.78 471.222 949.132 380.892 920.757 292.773C904.357 242.011 880.408 196.843 830.166 172.893C778.102 148.163 723.178 148.945 667.86 161.05C666.688 161.31 665.513 161.962 664.212 162.222C649.504 164.956 634.407 176.407 620.74 169.378C606.943 162.35 614.754 144.258 611.76 131.242C606.814 110.156 593.532 93.3678 583.51 74.7549C598.478 58.3547 618.136 56.4002 635.968 53.1462C747.645 32.5809 853.724 46.898 953.037 104.689C997.161 130.331 1028.66 166.125 1049.61 212.332C1073.95 266.088 1084.11 321.926 1082.94 381.019C1081.37 454.169 1073.3 526.669 1068.62 599.429C1064.19 668.023 1075.78 734.798 1094.91 800.268C1099.86 817.319 1111.31 831.374 1125.24 846.342L1125.11 846.733Z" fill="#679441"/>
<path d="M1585.1 3078.72C1516.11 3094.34 1455.98 3064.41 1395.46 3041.89C1344.17 3022.76 1295.88 2995.55 1248.63 2967.05C1205.42 2941.02 1165.98 2910.16 1128.89 2876.71C1058.86 2813.59 997.167 2742.13 937.423 2669.5C902.41 2627.07 873.122 2579.69 847.48 2530.88C814.159 2467.49 774.332 2407.75 744.916 2342.28C709.512 2263.53 666.428 2188.3 640.006 2105.26C628.291 2068.55 607.204 2034.71 589.893 1996.83C630.503 1984.08 671.375 1974.18 715.369 1964.42C713.937 2000.48 733.202 2030.67 745.437 2061.39C766.523 2113.85 787.089 2166.43 804.53 2220.19C827.048 2289.56 861.016 2354.12 889.001 2421.15C921.28 2498.47 968.658 2566.02 1014.6 2634.88C1043.76 2678.74 1079.29 2717.92 1114.18 2757.23C1143.33 2790.03 1170.02 2825.43 1203.73 2853.94C1239.92 2884.78 1271.94 2921.49 1314.89 2943.23C1372.68 2972.64 1428.91 3007.79 1500.63 3007.92C1511.17 3009.61 1517.29 3016.64 1524.31 3016.25C1567.27 3013.51 1577.55 3043.45 1585.1 3078.72Z" fill="#4E6F36"/>
<path d="M937.691 1623.65C935.999 1634.58 932.871 1642.78 930.267 1651.11C922.458 1676.62 923.759 1685.47 946.016 1697.71C959.553 1705.26 957.862 1711.63 956.821 1724.13C953.176 1765.39 928.578 1790.25 894.346 1805.74C872.089 1815.76 864.016 1837.63 845.663 1851.3C790.085 1892.43 730.213 1921.84 662.53 1933.82C591.723 1946.44 520.787 1943.06 449.329 1935.77C392.058 1929.91 336.479 1914.81 279.078 1909.22C249.402 1906.35 218.161 1897.24 188.614 1887.35C181.586 1885.01 173.909 1882.14 168.442 1877.33C125.098 1838.41 89.9519 1794.16 73.9422 1736.36C69.5167 1720.48 71.2124 1709.29 84.0982 1700.31C97.5047 1691.07 110.126 1690.94 125.746 1700.05C169.089 1725.3 215.43 1743.39 269.837 1745.74C273.352 1770.47 247.967 1780.75 243.932 1800.01C313.178 1858.84 395.183 1822.53 462.866 1832.03C463.126 1832.03 454.4 1834.12 441.124 1821.49C535.23 1792.46 631.163 1778.02 713.164 1721.01C718.501 1717.88 721.492 1716.06 726.828 1713.2C732.295 1710.72 735.551 1709.94 741.408 1710.2C746.875 1712.28 748.306 1714.63 747.916 1718.14C748.697 1715.02 748.437 1711.89 748.437 1706.56C764.317 1681.44 783.185 1667.64 812.081 1663.08C845.142 1657.75 873.516 1641.35 876.64 1599.04C887.703 1592.41 896.814 1592.67 908.919 1596.96C923.497 1601.65 928.055 1613.36 937.557 1623.52L937.691 1623.65Z" fill="#3F483D"/>
<path d="M398.957 952.151C463.126 927.941 523.261 897.613 592.507 905.943C606.434 907.636 619.837 908.416 634.154 918.047C633.113 939.133 618.018 949.808 605.523 961.652C569.729 995.624 539.526 1033.76 511.932 1074.63C489.544 1107.82 473.668 1142.44 469.242 1182.01C461.433 1251.91 449.328 1321.81 449.979 1391.96C450.76 1468.5 457.789 1545.03 473.278 1620.4C477.313 1639.92 483.171 1659.83 470.806 1681.83C439.177 1695.63 408.326 1702.53 373.834 1707.47C356.913 1696.93 350.667 1681.7 346.632 1665.82C300.165 1479.17 279.859 1290.96 316.825 1099.88C327.889 1043 351.578 992.891 398.696 952.151H398.957Z" fill="#3E5B2D"/>
<path d="M471.45 1684.31C471.19 1635.11 453.098 1588.52 449.454 1540.1C449.063 1535.15 446.203 1530.21 446.594 1525.52C450.759 1477.75 434.748 1431.02 438.522 1383.38C441.907 1339.91 446.983 1296.7 451.538 1253.35C455.704 1213.65 458.047 1173.96 468.069 1134.91C470.933 1123.85 474.446 1113.3 480.303 1103.67C521.825 1035.99 570.375 974.159 633.763 921.574C647.82 922.225 656.152 929.905 664.091 937.975C682.184 956.327 703.529 967.913 731.644 971.687C693.246 1007.35 654.98 1044.32 621.529 1084.67C590.42 1122.15 571.937 1167.06 565.95 1217.82C561.004 1259.21 556.836 1300.47 560.351 1341.34C566.078 1408.37 572.588 1475.41 585.735 1541.66C590.811 1567.3 597.965 1592.81 597.314 1622.62C565.165 1645.53 533.798 1666.09 494.749 1677.42C490.714 1678.72 489.414 1679.76 486.03 1681.84C480.563 1683.4 477.307 1683.92 471.45 1684.45V1684.31Z" fill="#4E6F36"/>
<path d="M1586.13 3083.55C1579.49 3070.41 1575.2 3058.95 1569.21 3048.28C1561.4 3034.35 1557.5 3014.83 1532.38 3027.97C1521.96 3033.44 1512.33 3022.64 1505.04 3010.4C1504.52 3005.71 1505.04 3003.24 1506.21 3001.03C1517.49 2980.98 1513.24 2960.77 1493.46 2940.38C1491.5 2959.64 1483.95 2973.31 1463.91 2970.31C1452.72 2968.62 1445.43 2960.55 1445.17 2949.75C1444.78 2927.62 1461.05 2923.84 1480.05 2923.45C1311.89 2680.31 1172.35 2427.15 1154 2123.1C1140.98 2124.01 1141.11 2135.33 1135.52 2140.41C1118.46 2156.16 1100.9 2155.38 1087.36 2136.9C1078.12 2124.14 1074.99 2109.56 1078.63 2094.07C1081.76 2080.8 1090.35 2071.82 1103.11 2067.65C1117.3 2063.09 1127.32 2070.12 1134.99 2081.32C1138.38 2086.26 1141.37 2091.47 1150.36 2096.55C1150.36 2073.9 1148.79 2051.12 1150.74 2028.6C1152.7 2007.26 1149.96 1983.05 1181.85 1976.28C1197.21 1973.02 1191.49 1952.72 1195 1936.84C1209.71 1932.41 1218.69 1935.15 1218.3 1953.63C1217.51 1993.85 1217.91 2034.2 1219.6 2074.42C1223.37 2163.06 1244.33 2248.31 1269.06 2333.05C1303.56 2451.49 1341.17 2568.64 1386.99 2683.18C1436.58 2806.96 1507.91 2917.6 1591.47 3020.81C1608.91 3042.42 1626.35 3064.16 1635.98 3090.45C1649.52 3127.29 1655.77 3163.99 1620.36 3196.27C1616.33 3157.74 1610.6 3119.35 1586 3083.55H1586.13Z" fill="#EDF0E9"/>
<path d="M456.605 2004.48C459.078 2020.36 464.157 2034.68 469.494 2048.61C497.869 2122.28 524.03 2197.12 556.57 2269.1C600.044 2365.03 649.503 2457.96 701.177 2549.86C745.561 2628.86 796.847 2703.05 853.988 2772.95C919.719 2853.39 985.838 2933.57 1066.93 3000.6C1127.06 3050.45 1190.19 3094.97 1256.32 3135.97C1284.43 3153.41 1314.88 3164.47 1344.56 3178.01C1345.73 3178.53 1347.03 3178.79 1348.08 3179.44C1363.83 3189.85 1370.85 3161.48 1384.52 3170.33C1394.8 3177.1 1390.25 3195.19 1408.6 3200.01C1441.14 3208.34 1474.46 3208.6 1505.83 3203.26C1535.51 3198.19 1562.58 3198.71 1592.51 3209.51C1571.3 3228.25 1544.88 3234.11 1516.5 3233.59C1492.68 3233.2 1469 3232.55 1441.79 3231.9C1433.85 3231.64 1429.56 3230.46 1423.18 3228.77C1337.14 3213.93 1259.05 3183.61 1184.59 3142.61C1090.36 3090.67 1002.5 3029.37 926.097 2953.88C851.645 2880.33 788.648 2797.29 734.371 2706.96C619.7 2516.02 533.272 2312.57 459.211 2103.41C449.969 2077.37 443.85 2050.3 435.13 2024.01C428.622 2004.35 438.643 2002.27 456.605 2004.48Z" fill="#758F55"/>
<path d="M1496.31 1697.08C1503.47 1698 1508.81 1698.78 1516.75 1699.95C1527.81 1724.94 1551.11 1727.93 1572.46 1738.34C1573.89 1742.51 1573.89 1744.33 1572.2 1748.63C1541.74 1762.95 1524.95 1790.67 1497.48 1805.38C1393.36 1861.48 1288.45 1829.85 1183.54 1810.58C1173.77 1808.76 1165.32 1802.25 1152.43 1799.91C1142.15 1797.05 1135.25 1793.66 1127.05 1787.02C1118.85 1762.29 1132.51 1755.01 1149.69 1749.15C1143.19 1740.04 1114.55 1738.87 1132.77 1713.75C1137.59 1707.11 1130.3 1702.55 1124.96 1699.43C1097.63 1683.03 1098.8 1658.43 1107.79 1633.56C1112.6 1620.16 1113.77 1606.88 1115.98 1590.48C1157.77 1566.27 1194.99 1574.34 1231.83 1603.11C1240.29 1615.73 1247.7 1624.33 1264.63 1618.99C1290.53 1619.77 1305.63 1635.91 1321.9 1649.45C1366.94 1687.06 1418.74 1700.08 1479.13 1692.4C1483.29 1692.01 1484.73 1691.75 1488.24 1691.49C1490.98 1694.09 1492.41 1695.91 1496.44 1697.08H1496.31Z" fill="#586159"/>
<path d="M749.851 1712.94C745.165 1715.03 741.911 1715.02 736.053 1715.15C731.758 1716.72 729.934 1718.28 727.2 1721.4C645.72 1783.1 550.707 1804.06 455.039 1825.01C462.068 1832.95 475.079 1823.97 482.889 1831.52C484.191 1833.6 483.019 1835.03 479.635 1835.68C425.098 1845.71 369.914 1843.36 314.856 1843.62C297.024 1843.62 280.624 1844.14 268.779 1825.66C259.668 1811.47 238.451 1815.12 225.695 1803.14C231.813 1795.98 246.263 1793.77 244.832 1783.62C241.708 1761.36 263.313 1762.27 272.294 1748.74C310.17 1757.72 346.616 1747.17 383.191 1741.84C406.359 1738.45 429.268 1733.25 455.3 1729.34C566.457 1720.1 652.878 1654.89 749.718 1616.1C789.026 1600.36 828.206 1581.61 874.673 1599.05C878.057 1608.42 877.929 1616.24 880.533 1623C885.218 1635.11 879.488 1643.7 870.637 1647.99C847.469 1658.93 826.123 1675.2 799.31 1676.76C785.382 1677.54 772.762 1676.24 771.72 1696.67C771.46 1701.75 758.312 1706.17 749.851 1712.81V1712.94Z" fill="#586159"/>
<path d="M398.165 950.326C398.686 975.577 375.254 988.595 362.759 1008.12C333.993 1053.15 326.448 1103.4 317.597 1153.64C304.581 1226.92 307.18 1301.24 310.955 1374.78C314.99 1453.14 325.923 1531.1 342.974 1608.03C350.003 1639.79 358.338 1671.16 370.442 1704.35C354.823 1711.11 343.889 1706.69 340.375 1688.99C338.943 1681.7 335.945 1674.54 333.212 1664.65C329.307 1658.66 329.308 1654.23 327.746 1648.25C306.27 1571.19 279.456 1497.39 268.653 1419.95C253.294 1309.96 245.094 1199.46 271.646 1089.86C288.047 1022.18 323.84 970.24 398.292 950.195L398.165 950.326Z" fill="#758F55"/>
<path d="M1124.84 1781.17C1132.26 1785.08 1138.24 1787.16 1146.57 1790.02C1184.45 1824.39 1228.83 1828.29 1274.26 1828.42C1311.49 1828.42 1347.02 1838.83 1385.16 1838.83C1463.9 1838.83 1520.65 1806.03 1570.76 1747.59C1572.72 1745.64 1572.72 1745.25 1572.85 1745.38C1588.47 1730.28 1568.81 1718.57 1570.64 1702.82C1577.14 1700.08 1582.09 1699.69 1587.03 1698.78C1597.32 1696.83 1607.99 1686.94 1617.49 1700.35C1626.09 1712.58 1627.26 1725.08 1621.01 1739.39C1612.42 1759.44 1599.27 1776.88 1583.52 1790.42C1542.13 1826.34 1500.87 1863.83 1442.55 1870.73C1440.08 1870.99 1437.48 1873.2 1435.4 1872.68C1397.52 1862.39 1358.86 1881.27 1320.99 1869.68C1298.21 1862.79 1274.13 1865.13 1250.57 1860.96C1202.15 1852.5 1156.47 1836.36 1110.13 1821.79C1102.84 1819.44 1094.77 1817.62 1091.9 1810.07C1075.5 1767.38 1041.79 1731.06 1043.49 1681.86C1044.01 1668.46 1033.07 1662.6 1028.65 1649.71C1040.62 1632.53 1053.51 1619.13 1076.94 1619.78C1087.74 1626.28 1090.08 1635.26 1088.65 1643.85C1082.27 1681.99 1092.03 1718.18 1101.93 1756.44C1104.4 1759.57 1105.44 1760.74 1108.43 1763.47C1115.46 1769.07 1120.15 1773.49 1124.84 1781.3V1781.17Z" fill="#3F483D"/>
<path d="M1296.4 1091.4C1327.64 1105.2 1331.28 1103.25 1330.76 1075.66C1330.5 1063.42 1327.38 1051.84 1322.95 1037.39C1336.75 1034.53 1337.01 1045.59 1339.09 1055.22C1350.03 1108.33 1351.46 1161.95 1348.86 1216.1C1344.82 1299.27 1325.3 1379.58 1305.65 1459.89C1298.88 1487.87 1291.59 1515.73 1284.82 1543.71C1283.26 1550.35 1281.17 1555.56 1271.15 1552.56C1287.16 1434.12 1295.75 1316.58 1303.3 1199.18C1305.38 1165.47 1300.57 1131.63 1289.76 1095.57C1290.28 1092.06 1292.1 1091.67 1296.66 1091.67L1296.4 1091.4Z" fill="#EDF0E9"/>
<path d="M880.138 1601.42C839.919 1596.21 804.65 1602.85 770.939 1617.69C721.868 1639.42 672.662 1660.25 625.805 1686.93C576.995 1714.79 524.675 1736.26 462.068 1729.89C484.065 1709.06 516.471 1702.16 545.757 1688.88C617.215 1656.6 683.991 1614.04 761.177 1587.75C765.472 1584.5 767.683 1582.8 772.108 1581.63C779.006 1580.98 783.955 1580.2 791.244 1578.64C795.93 1576.42 798.141 1574.99 802.436 1574.21C841.094 1570.96 877.275 1570.57 912.679 1592.44C915.933 1595.43 916.844 1596.99 916.454 1601.15C904.479 1602.85 893.939 1602.2 880.011 1601.55L880.138 1601.42Z" fill="#818A8C"/>
<path d="M1083.33 1621.72C1061.72 1623.41 1051.7 1642.94 1030.87 1646.06C1017.6 1629.14 1031.13 1619.12 1041.16 1609.09C1073.04 1576.94 1109.88 1556.25 1160.77 1564.06C1167.67 1567.31 1172.1 1567.57 1178.74 1568.35C1193.45 1572 1206.07 1575.51 1221.17 1579.81C1225.46 1581.37 1227.03 1582.02 1230.8 1584.36C1240.83 1589.31 1248.63 1592.56 1258.79 1596.99C1262.82 1598.03 1264.64 1597.9 1267.37 1600.24C1282.08 1610.13 1295.88 1617.55 1311.76 1626.41C1315.66 1627.97 1317.48 1627.96 1320.22 1630.44C1343.78 1645.15 1364.87 1660.64 1393.89 1665.45C1398.45 1665.97 1400.27 1665.84 1403.91 1667.8C1426.04 1675.08 1446.35 1680.29 1469.51 1685.89C1474.98 1686.54 1477.06 1687.58 1480.45 1690.31C1482.14 1690.96 1481.75 1691.62 1481.75 1692.01C1466.65 1706.97 1449.47 1706.58 1429.55 1703.98C1377.88 1697.47 1334.02 1677.17 1297.7 1639.94C1289.63 1631.74 1278.96 1627.57 1265.55 1623.93C1252.15 1632 1244.07 1624.45 1234.31 1616.38C1201.64 1581.5 1163.24 1582.54 1121.46 1592.95C1110.4 1606.62 1098.17 1613.78 1083.33 1621.59V1621.72Z" fill="#818A8C"/>
<path d="M582.077 144.281C582.077 153.653 583.118 160.163 581.556 165.89C577.521 179.947 564.636 183.721 553.052 175.261C537.433 163.807 529.751 115.516 541.205 98.8552C547.974 89.0932 555.919 91.3051 563.208 98.0735C575.573 109.658 581.69 124.236 582.211 144.281H582.077Z" fill="#3E5B2D"/>
<path d="M1568.83 1700.44C1573.12 1705.51 1574.69 1709.81 1578.98 1713.06C1592 1722.95 1590.83 1733.58 1575.47 1744.95C1565.97 1735.97 1555.68 1736.62 1546.31 1737.66C1521.58 1740.39 1517.55 1726.34 1519.37 1703.43C1534.73 1700.31 1550.09 1700.18 1568.7 1700.44H1568.83Z" fill="#50584D"/>
<path d="M916.208 1605.72C915.167 1601.95 915.039 1600.25 915.039 1596.22C931.439 1596.74 943.934 1603.12 940.55 1624.59C927.924 1624.46 921.808 1617.04 916.081 1605.72H916.208Z" fill="#586159"/>
<path d="M1422.79 3229.43C1425.65 3228.12 1430.21 3228.52 1436.45 3230.34C1433.59 3233.59 1428.91 3233.85 1422.79 3229.43Z" fill="#3F483D"/>
<path d="M326.447 1648.64C328.79 1650.2 330.745 1653.84 332.567 1659.83C328.402 1659.31 326.317 1655.67 326.447 1648.64Z" fill="#50584D"/>
<path d="M1179.13 1567.03C1176.14 1570.54 1171.59 1570.54 1165.6 1566.11C1168.46 1564.68 1172.89 1565.07 1179.13 1567.03Z" fill="#586159"/>
<path d="M1496.98 1695.89C1498.02 1697.19 1494.38 1697.19 1494.38 1697.19C1494.38 1697.19 1491.52 1694.98 1490.87 1693.42C1492.43 1692.24 1494.25 1693.15 1496.98 1696.02V1695.89Z" fill="#3F483D"/>
<path d="M1481.1 1689.41C1479.8 1690.45 1477.46 1689.93 1473.81 1687.85C1475.11 1686.81 1477.59 1687.33 1481.1 1689.41Z" fill="#3F483D"/>
<path d="M485.506 1682.61C484.985 1680.79 486.548 1679.23 490.323 1677.93C490.974 1679.75 489.41 1681.44 485.506 1682.61Z" fill="#3E5B2D"/>
<path d="M1404.82 1668.15C1403.39 1670.23 1401.18 1669.84 1397.92 1667.24C1399.1 1666.19 1401.44 1666.33 1404.82 1668.15Z" fill="#50584D"/>
<path d="M1321.01 1631.21C1319.19 1632.77 1317.37 1631.99 1314.9 1629.13C1316.59 1626.52 1318.8 1627.04 1321.01 1631.21Z" fill="#586159"/>
<path d="M1268.03 1601.03C1266.34 1602.72 1264.52 1601.94 1262.04 1599.34C1263.61 1596.61 1265.82 1596.99 1268.03 1601.03Z" fill="#586159"/>
<path d="M1231.83 1584.21C1230.01 1586.42 1227.67 1585.77 1224.68 1582.26C1226.11 1581.22 1228.45 1581.87 1231.83 1584.21Z" fill="#586159"/>
<path d="M771.988 1581.48C771.988 1583.3 769.773 1584.86 765.607 1586.42C765.607 1584.73 767.823 1582.91 771.988 1581.48Z" fill="#3F483D"/>
<path d="M802.45 1574.05C802.19 1575.87 799.847 1577.04 795.682 1578.08C795.942 1576.39 798.155 1574.96 802.45 1574.05Z" fill="#3F483D"/>
<path d="M1146.84 2506.41C1140.59 2502.12 1136.04 2499.26 1133.56 2495.22C1127.58 2485.46 1129.27 2475.7 1136.95 2467.76C1144.76 2459.56 1154.78 2458.64 1164.54 2463.85C1174.3 2469.06 1180.16 2478.95 1175.87 2488.84C1168.84 2504.98 1170.66 2513.57 1188.88 2518.52C1197.34 2520.73 1204.5 2530.75 1201.38 2539.21C1194.22 2558.35 1199.55 2565.25 1218.82 2571.75C1238.73 2578.39 1247.2 2602.99 1239 2618.22C1231.84 2631.5 1219.73 2637.88 1204.5 2635.4C1184.85 2632.15 1167.53 2610.8 1173.26 2591.15C1178.21 2574.36 1179.64 2565.9 1161.29 2557.18C1149.18 2551.45 1149.45 2536.61 1157.91 2524.25C1161.81 2518.52 1170.92 2517.22 1171.7 2508.76C1164.02 2502.77 1156.47 2509.93 1146.84 2506.41Z" fill="#EDF0E9"/>
<path d="M1163.12 2388.62C1167.42 2396.3 1171.45 2401.63 1172.49 2407.36C1176.27 2428.45 1170.02 2442.63 1154.66 2447.45C1138.52 2452.52 1125.24 2447.06 1115.48 2433.52C1104.81 2418.82 1104.55 2396.43 1115.48 2384.97C1127.59 2372.35 1141.38 2371.57 1155.57 2381.72C1157.52 2383.15 1159.34 2384.97 1162.99 2388.62H1163.12Z" fill="#EDF0E9"/>
<path d="M1330.12 2787.54C1353.03 2776.6 1366.56 2786.24 1374.63 2803.81C1380.88 2817.34 1377.88 2831.4 1364.74 2840.12C1351.59 2848.84 1338.19 2845.72 1327.64 2834.65C1313.46 2819.82 1312.02 2804.2 1329.98 2787.54H1330.12Z" fill="#EDF0E9"/>
<path d="M1138.77 2278.49C1141.64 2288.77 1139.95 2296.06 1134.35 2301.66C1125.63 2310.38 1115.74 2313.51 1104.28 2305.96C1092.83 2298.41 1091.27 2287.73 1096.08 2276.67C1101.16 2265.09 1111.18 2260.92 1123.81 2264.57C1130.19 2266.39 1134.48 2270.68 1138.77 2278.62V2278.49Z" fill="#EDF0E9"/>
<path d="M1384.12 2850.54C1406.51 2858.61 1417.44 2877.35 1432.15 2891.93C1436.7 2896.49 1438.14 2903.13 1432.41 2908.2C1430.07 2910.28 1424.47 2911.98 1422.52 2910.67C1403.52 2897.4 1384.25 2883.86 1376.31 2860.56C1375.53 2858.35 1379.69 2854.44 1384.25 2850.54H1384.12Z" fill="#EDF0E9"/>
<path d="M1089.84 2198.33C1089.06 2185.31 1094.13 2180.23 1104.93 2183.62C1110.27 2185.31 1112.23 2191.04 1110.41 2195.33C1106.5 2204.44 1100.12 2208.61 1089.97 2198.2L1089.84 2198.33Z" fill="#EDF0E9"/>
<path d="M880.289 1226.95C815.209 1192.72 752.864 1194.15 690.127 1225.52C679.714 1230.72 667.995 1244.91 656.671 1234.63C644.306 1223.3 656.676 1208.47 661.362 1196.62C679.454 1150.55 733.34 1117.36 784.493 1118.79C831.351 1120.09 884.843 1157.7 901.764 1201.18C909.053 1219.92 907.493 1222.26 880.289 1227.08V1226.95Z" fill="#2B2A28"/>
<path d="M841.232 1395.76C837.067 1421.66 827.173 1441.71 810.382 1457.59C785.001 1481.54 753.373 1477.76 733.068 1449.25C701.179 1404.35 705.867 1314.41 742.182 1272.76C768.995 1241.91 796.066 1243.21 827.434 1279.26C827.825 1283.3 826.913 1284.86 823.659 1287.6C802.443 1290.07 779.277 1283.17 774.722 1312.19C771.598 1331.85 768.214 1352.81 784.223 1368.29C804.398 1387.95 816.239 1359.05 835.893 1358.27C846.046 1369.6 841.619 1381.57 841.098 1395.76H841.232Z" fill="#2B2A28"/>
<path d="M1219.21 1403.29C1215.82 1428.02 1206.32 1447.03 1191.49 1462.78C1166.89 1488.94 1135.65 1486.34 1115.34 1456.66C1099.2 1433.1 1095.17 1406.03 1095.56 1377.91C1096.08 1344.85 1101.02 1312.96 1121.46 1285.76C1144.88 1254.39 1168.32 1252.57 1201.9 1280.42C1204.76 1286.41 1204.37 1289.8 1199.29 1294.22C1182.37 1297.73 1165.84 1295.65 1158.03 1312.83C1149.18 1332.23 1145.53 1353.31 1160.5 1369.71C1182.24 1393.53 1194.35 1360.86 1214.52 1358.65C1224.03 1372.71 1219.6 1386.76 1219.21 1403.29Z" fill="#2B2A28"/>
<path d="M1119.25 1153.65C1184.07 1123.32 1254.75 1153.78 1273.88 1217.42C1276.22 1225.23 1277.27 1232.39 1269.72 1237.6C1263.99 1241.5 1257.74 1240.33 1251.88 1237.08C1250.84 1236.43 1249.67 1235.91 1248.63 1235.13C1195.78 1189.44 1139.82 1198.81 1082.94 1226.02C1076.43 1229.14 1069.4 1235.39 1063.02 1227.06C1058.73 1221.46 1062.76 1215.08 1065.24 1209.36C1075.65 1184.89 1097.77 1171.61 1119.25 1153.65Z" fill="#2B2A28"/>
<path d="M1128.88 1040.94C1146.2 1048.62 1161.16 1054.87 1175.61 1062.16C1181.08 1064.89 1186.28 1069.71 1182.64 1077.13C1179.65 1083.37 1173.4 1086.37 1167.02 1084.42C1152.83 1079.86 1138.77 1074.78 1125.24 1068.54C1096.86 1055.52 1070.31 1039.12 1045.19 1020.51C1037.12 1014.52 1027.62 1007.49 1036.47 996.297C1044.28 986.275 1051.96 994.865 1059.11 999.16C1081.5 1012.7 1103.89 1026.24 1128.75 1040.94H1128.88Z" fill="#EDF0E9"/>
<path d="M842.018 1396.02C837.723 1386.91 842.41 1374.42 833.819 1361.4C816.508 1339.66 821.841 1315.98 820.67 1290.86C822.752 1286.69 823.663 1285.39 826.657 1282.91C839.673 1290.85 846.311 1302.57 846.441 1316.63C846.702 1342.27 850.215 1368.04 841.885 1396.02H842.018Z" fill="#3F483D"/>
<path d="M1220 1403.54C1215.32 1391.96 1221.04 1376.86 1211.54 1361.24C1197.61 1346.8 1199.7 1331.83 1202.69 1313.87C1204.9 1309.05 1206.07 1307.23 1210.37 1304.62C1232.63 1334.69 1225.47 1368.01 1220 1403.54Z" fill="#3F483D"/>
<path d="M1017.98 1051.76C1015.37 1056.7 1013.29 1060.22 1010.16 1061.52C1000.79 1065.55 992.591 1063.73 991.81 1052.15C991.29 1042.52 999.622 1040.83 1007.17 1040.96C1012.25 1040.96 1016.15 1044.08 1017.84 1051.63L1017.98 1051.76Z" fill="#EDF0E9"/>
<path d="M1057.17 1060.06C1067.19 1068.91 1067.06 1075.94 1056 1080.37C1051.57 1082.19 1045.32 1081.41 1043.37 1076.46C1039.21 1065.92 1044.67 1060.58 1057.17 1060.19V1060.06Z" fill="#EDF0E9"/>
<path d="M1298.22 1089.6C1297.31 1092.07 1295.62 1092.59 1291.07 1092.59C1281.3 1078.15 1273.89 1064.09 1269.85 1039.23C1287.68 1056.93 1286.64 1075.8 1298.22 1089.6Z" fill="#818A8C"/>
<path d="M1193.59 1294.25C1196.71 1290.09 1198.92 1288.39 1202.31 1284.75C1209.2 1286.7 1210.64 1293.08 1212.85 1301.54C1212.33 1304.8 1211.16 1305.71 1208.29 1308.05C1198.92 1308.44 1194.63 1303.88 1193.59 1294.25Z" fill="#3F483D"/>
<path d="M1356.4 3124.42C1358.09 3134.57 1353.28 3136.52 1346.38 3134.44C1342.6 3133.4 1340.13 3129.49 1341.95 3126.11C1344.55 3121.29 1349.63 3121.03 1356.4 3124.42Z" fill="#679441"/>
<path d="M748.422 1715.04C749.333 1716.08 750.241 1717.25 751.282 1718.29C750.631 1717.9 749.981 1717.51 748.81 1716.08C748.419 1715.04 748.422 1715.04 748.422 1715.04Z" fill="#50584D"/>
<path d="M727.589 1721.94C726.548 1720.24 727.85 1718.16 731.885 1715.95C732.796 1717.64 731.364 1719.59 727.589 1721.94Z" fill="#50584D"/>
<path d="M1570 1745.75C1572.6 1748.09 1573.13 1750.83 1572.35 1753.04C1564.67 1775.43 1511.17 1827.1 1489.57 1827.23C1464.83 1827.36 1449.74 1852.61 1427.22 1849.49C1405.87 1846.49 1386.35 1844.93 1364.61 1849.23C1344.96 1853.26 1322.18 1857.82 1303.69 1840.38C1296.92 1833.87 1286.9 1836.21 1278.18 1836.08C1265.56 1835.82 1253.06 1835.95 1240.44 1836.08C1203.99 1836.47 1170.54 1830.09 1149.2 1793.39C1159.09 1789.87 1168.33 1793 1177.7 1797.42C1215.84 1814.99 1256.84 1819.16 1298.23 1820.98C1328.16 1822.28 1358.1 1818.9 1387.91 1827.23C1402.88 1831.4 1420.45 1831.66 1436.06 1824.5C1463.27 1812.13 1489.04 1796.9 1517.29 1786.36C1531.87 1780.89 1513.25 1777.38 1511.95 1769.7C1530.82 1764.23 1549.7 1756.29 1570.13 1745.88L1570 1745.75Z" fill="#50584D"/>
<path d="M1080.71 1625.6C1086.05 1606.21 1101.02 1602.04 1116.77 1595.4C1125.88 1608.29 1130.43 1620.53 1117.94 1633.28C1106.74 1644.6 1111.3 1659.44 1112.08 1672.85C1112.99 1689.25 1126.53 1690.81 1139.16 1693.67C1148.92 1695.89 1153.73 1704.61 1153.47 1713.59C1153.08 1726.6 1138.64 1719.18 1132.91 1725.3C1134.47 1732.2 1141.63 1733.76 1145.93 1738.06C1149.44 1741.57 1153.6 1744.3 1157.51 1747.56C1147.09 1757.71 1133.17 1764.09 1126.79 1780.75C1119.63 1779.58 1112.99 1775.93 1104.92 1770.21C1099.06 1762.4 1080.58 1766.3 1090.74 1749.51C1092.69 1746.39 1090.74 1739.62 1088.78 1735.59C1072.77 1704.74 1076.16 1672.46 1081.11 1639.92C1081.63 1636.27 1081.11 1632.5 1081.11 1625.6H1080.71Z" fill="#50584D"/>
<path d="M1233.02 1616.65C1241.22 1616.78 1249.41 1619.91 1260.22 1623.42C1251.24 1633.83 1240.56 1636.83 1233.02 1616.65Z" fill="#50584D"/>
<path d="M819.362 1286.29C832.508 1308.42 834.98 1330.29 831.335 1356.32C827.17 1365.69 823.917 1372.98 818.58 1377.93C801.789 1393.42 783.178 1390.81 771.594 1370.77C758.187 1347.47 758.318 1322.48 769.122 1298.27C779.144 1275.75 790.466 1273.15 819.622 1286.29H819.362Z" fill="#EDF0E9"/>
<path d="M1192 1291.22C1197.47 1296.68 1200.34 1301.63 1204.89 1308.01C1208.93 1324.02 1211.01 1338.46 1208.79 1356.43C1191.87 1389.1 1181.98 1395.99 1165.58 1390.27C1150.22 1384.93 1141.89 1366.45 1142.55 1339.77C1143.46 1302.8 1155.95 1289.65 1192 1291.35V1291.22Z" fill="#EDF0E9"/>
<path d="M1109.36 1717.63C1113 1716.59 1114.31 1717.63 1113.13 1719.71C1112.87 1720.1 1110.14 1719.06 1109.36 1717.63Z" fill="#586159"/>
<path d="M1103.64 1768.02C1104.55 1768.67 1103.51 1763.21 1104.68 1767.76C1103.64 1768.28 1103.77 1767.89 1103.64 1768.02Z" fill="#586159"/>
</svg>
