<svg width="102" height="202" viewBox="0 0 102 202" fill="none" xmlns="http://www.w3.org/2000/svg">
<path d="M31.3897 165.063C32.4916 163.54 34.2992 162.885 36.0468 162.692C37.7858 162.499 39.551 162.711 41.29 162.538C45.7064 162.124 49.7526 159.32 52.6624 155.581C55.5723 151.842 57.4315 147.217 58.7917 142.505C59.2135 141.05 59.6098 139.518 60.5396 138.39C61.4693 137.263 63.1049 136.695 64.224 137.562C65.3174 138.41 65.4554 140.144 65.3607 141.628C65.1024 145.56 63.9486 149.346 62.8036 153.075C61.4692 157.431 59.9626 162.047 56.6739 164.812C54.1515 166.922 50.9403 167.635 47.8497 168.281C45.2584 168.83 42.6671 169.37 40.0672 169.919C38.0354 170.343 35.8747 170.758 33.9635 169.89C32.0523 169.023 30.5374 166.238 31.3897 165.063Z" fill="#3D5B30" stroke="#231F20" stroke-width="5" stroke-miterlimit="10"/>
<path d="M16.0809 178.805C15.8589 176.299 16.3234 174.398 16.7351 172.456C17.1132 170.673 17.3309 170.181 17.8808 168.433C18.1589 167.54 19.2311 165.766 19.9702 165.114C20.724 164.449 21.5839 164.214 22.6376 164.103C24.7379 163.875 27.4053 164.07 29.2713 164.95C29.7031 165.152 29.8595 166.017 30.3498 165.971C31.0669 165.906 31.0099 165.329 31.6978 165.166C32.4369 164.99 33.3319 165.151 33.7197 165.731C34.1076 166.318 34.4414 166.776 34.5219 167.454C34.3263 168.853 34.5678 170.272 34.3263 171.615C34.0848 172.958 33.651 174.196 32.3923 174.971C32.1695 175.109 31.7652 175.578 30.4172 175.578C29.9781 175.917 29.4936 176.547 29.0692 176.899C28.6448 177.252 27.0788 178.078 26.508 177.98C28.4626 180.202 29.1543 181.785 29.2714 183.865C29.3885 185.938 28.3823 188.16 26.8236 189.705C26.0991 190.416 25.0453 191.016 24.0062 190.788C23.5424 190.59 22.3967 189.569 21.9923 189.149C21.1214 188.067 20.2739 187.091 19.3957 186.002C18.4371 184.809 17.5066 183.533 16.8699 182.184C16.2333 180.834 16.0295 179.398 16.0881 178.811L16.0809 178.805Z" fill="white"/>
<path d="M34.1268 172.365C33.9366 173.479 33.2191 174.523 32.1873 175.181C31.9459 175.338 31.6825 175.474 31.3898 175.52C31.0971 175.566 30.7752 175.507 30.563 175.318C30.2337 175.018 30.3069 174.536 30.3947 174.132C30.5923 173.251 30.7899 172.378 30.9875 171.498C31.1558 170.761 31.3241 170.011 31.2144 169.261C31.1192 168.564 30.7898 167.905 30.6727 167.208C30.5556 166.51 30.7312 165.695 31.3898 165.317C31.9167 165.017 32.6413 165.069 33.1682 165.376C33.695 165.682 34.0316 166.191 34.2072 166.725C34.3755 167.26 34.3975 167.827 34.3902 168.388C34.3755 169.744 34.3317 171.113 34.1122 172.371L34.1268 172.365Z" stroke="#231F20" stroke-width="2" stroke-miterlimit="10"/>
<path d="M30.395 175.617C29.59 176.66 28.3825 177.449 27.0287 177.814C25.6676 178.179 24.1746 178.121 22.8574 177.651" stroke="#231F20" stroke-width="2.15" stroke-miterlimit="10"/>
<path d="M26.5513 178.328C28.2124 179.828 29.2148 181.895 29.288 184C29.3611 186.106 28.5196 188.225 26.9683 189.816C26.3243 190.481 25.373 191.094 24.4217 190.859C23.9607 190.748 23.5874 190.455 23.2508 190.155C22.336 189.346 21.5386 188.44 20.741 187.54C19.3287 185.943 17.8942 184.313 17.0599 182.416C16.1745 180.408 15.9989 178.192 16.2185 176.034C16.438 173.876 17.0234 171.776 17.6088 169.677C18.1357 167.78 18.8384 165.681 20.741 164.722C21.9338 164.116 23.3825 164.09 24.7583 164.129C25.8194 164.162 26.8953 164.22 27.9051 164.507C28.915 164.794 29.8734 165.335 30.4442 166.131L30.481 166.183" stroke="#231F20" stroke-width="2.15" stroke-miterlimit="10"/>
<path d="M24.1664 164.129C22.2491 165.1 20.9613 166.867 20.2588 168.725C19.5563 170.583 19.3734 172.572 19.2051 174.534" stroke="#231F20" stroke-miterlimit="10"/>
<path d="M26.5659 190.027C24.5389 188.821 22.9509 187.106 21.6118 185.294C20.7117 184.081 19.9065 182.797 19.3943 181.421C18.8747 180.039 18.6626 178.553 18.948 177.125" stroke="#231F20" stroke-miterlimit="10"/>
<path d="M82.9291 186.504C82.6577 187.007 82.6203 187.602 82.8088 188.138C82.9972 188.675 83.4342 189.131 83.9845 189.409" stroke="#231F20" stroke-width="2.15" stroke-miterlimit="10"/>
<path d="M99.278 196.52C97.6614 197.338 95.818 197.763 93.9599 197.95C92.1092 198.13 90.2364 198.079 88.3711 198.001" stroke="#231F20" stroke-miterlimit="10"/>
<path d="M82.9943 185.975C79.6866 185.128 76.7415 185.182 73.8217 186.806C73.4173 188.667 72.1785 192.879 72.1419 195.741C72.1273 196.745 72.2224 197.867 73.0567 198.545C73.8397 199.184 75.0106 199.203 76.0717 199.19C81.1063 199.131 86.1336 199.073 91.1682 199.014C93.5611 198.988 96.159 198.897 97.9958 197.534C99.9789 196.067 100.484 193.336 99.4229 191.243C98.3691 189.144 96.0342 187.884 93.5022 187.466C90.963 187.049 88.2059 187.84 85.8861 188.844C85.2202 189.13 84.5384 189.026 83.8286 188.844C83.2286 188.687 82.8042 188.172 82.6505 187.631C82.4969 187.09 82.5773 186.516 82.9871 185.969L82.9943 185.975Z" fill="white"/>
<path d="M84.2232 186.254C83.9378 186.548 83.4254 186.58 83.0083 186.463C82.5912 186.346 82.2252 186.117 81.8227 185.961C80.5128 185.446 78.9982 185.739 77.6371 186.13C76.276 186.522 74.8784 187.004 73.4587 186.841C72.9245 186.782 72.3757 186.606 72.0537 186.228C71.6805 185.791 71.6805 185.159 71.9658 184.677C72.2512 184.188 72.7634 183.842 73.3269 183.62C73.8903 183.399 74.4978 183.294 75.1052 183.197C76.2395 183.008 77.3662 182.812 78.5004 182.623C79.5615 182.44 80.6448 182.264 81.7205 182.382C82.7962 182.499 83.8717 182.968 84.3986 183.809C84.9035 184.611 84.7938 185.674 84.2303 186.254H84.2232Z" fill="white" stroke="#231F20" stroke-width="2.15" stroke-miterlimit="10"/>
<path d="M73.6047 187.234C72.6095 190.566 71.6072 194.041 72.3756 197.418C72.5366 198.135 72.8073 198.872 73.4147 199.361C73.9708 199.804 74.7464 199.987 75.4928 200C76.2392 200.013 76.9783 199.876 77.7174 199.778C83.2424 199.022 88.9209 200.084 94.4458 199.315C95.8435 199.119 97.2853 198.781 98.3245 197.933C99.2172 197.203 99.7366 196.153 99.9195 195.084C100.424 192.222 98.4998 189.158 95.4995 188.043C94.1238 187.534 92.609 187.404 91.1235 187.482C89.1623 187.58 87.2014 188.023 85.5183 188.93C83.8352 189.836 82.4521 191.218 81.8008 192.874" stroke="#231F20" stroke-width="2.15" stroke-miterlimit="10"/>
<path d="M72.7578 197.664C76.1752 198.133 79.6656 198.212 83.1049 197.899" stroke="#231F20" stroke-miterlimit="10"/>
<path d="M80.2861 182.147C79.1005 182.223 77.9151 182.289 76.7295 182.364C76.4953 182.383 76.2318 182.373 76.0781 182.157C75.9025 181.922 75.9391 181.545 75.983 181.225C76.8759 175.117 77.7686 169.018 78.6688 162.91C79.0054 160.633 79.3201 158.148 78.5005 156.077C77.8857 154.515 76.7222 153.452 75.6025 152.454C72.5142 149.715 69.2868 146.845 67.567 142.553C67.245 141.744 66.9742 140.868 66.9595 139.955C66.9449 139.043 67.2231 138.082 67.8086 137.565C68.3721 137.066 69.1256 137.047 69.7843 137.301C70.4356 137.565 71.0139 138.064 71.5774 138.563C74.2413 140.915 76.9122 143.259 79.5761 145.612C81.9399 147.692 84.4796 150.092 85.1602 153.668C85.6505 156.237 85.0649 158.92 84.4795 161.461C82.9719 168.058 81.457 174.665 80.2861 182.129V182.147Z" fill="#3C5B31" stroke="#231F20" stroke-width="5" stroke-miterlimit="10"/>
<path d="M69.9403 161.734C62.7396 158.761 56.2778 155.039 50.6504 150.273C46.0182 146.355 42.1619 141.85 38.8908 136.927C31.4633 125.76 25.6162 113.992 21.5622 101.527C21.2621 100.594 20.8524 100.066 19.6377 99.8772C13.5566 98.9319 8.47089 96.3827 4.64368 92.0081C1.79706 88.7484 -0.0984914 85.1561 0.00395769 80.9119C0.0405467 79.3016 0.574946 77.8152 1.48967 76.4266C1.75311 76.0224 2.06046 75.7159 2.77028 75.7355C3.1874 78.767 4.4386 81.4726 7.38035 83.2198C10.044 84.8041 13.0225 85.6712 16.4911 85.795C15.8179 83.7414 15.2542 81.8702 14.5956 80.0317C12.3198 73.6622 11.2148 67.1493 11.5002 60.4668C11.6319 57.3701 12.0126 54.3124 13.5201 51.4438C15.0934 48.4448 17.53 46.3129 20.9987 45.0938C24.4746 43.8746 28.0092 42.9228 31.6681 42.1274C37.7638 40.8039 43.128 37.9288 47.6943 34.0041C49.4799 32.472 50.0798 30.4248 50.4456 28.3842C51.2433 23.8923 50.7822 19.4656 49.2454 15.1171C47.7306 10.8403 44.8184 9.64067 39.9667 10.0058C37.9397 10.1622 35.9564 10.7295 33.9367 11.0424C28.9752 11.8182 27.6288 9.3994 28.1557 5.71588C28.3606 4.27507 29.1946 3.12777 30.5265 2.26719C31.6241 1.55657 32.7953 0.98276 34.1271 0.708941C42.045 -0.907897 49.4431 0.239568 56.2559 4.16431C58.0561 5.20091 59.454 6.66777 60.4565 8.36936C62.2201 11.3618 63.3688 14.4977 63.3761 17.9399C63.3834 21.1671 63.0833 24.3682 62.7101 27.5693C62.3369 30.7247 62.4614 33.8671 62.8419 37.0095C63.2371 40.2041 65.0007 42.5381 68.3303 43.8746C69.6182 44.3896 70.9208 44.8852 72.2014 45.4067C75.2164 46.6389 77.1338 48.5882 77.8656 51.5741C78.8388 55.5184 78.7874 59.4627 78.3923 63.4266C77.9166 68.2901 76.2334 72.9255 75.0114 77.6522C74.9016 78.0825 74.8431 78.5323 74.6748 78.943C74.3162 79.8036 74.7994 80.2339 75.597 80.5533C77.785 81.4269 79.9289 82.4244 82.1755 83.1546C85.0148 84.0804 87.8542 84.0804 90.4666 82.4114C91.5936 81.6943 92.3913 80.7555 92.9914 79.6602C94.0525 77.7304 94.7257 75.6833 95.216 73.5971C96.0283 73.6362 96.2185 74.1121 96.3941 74.588C97.2064 76.8047 97.2357 79.0735 96.6063 81.3032C95.677 84.5694 94.111 87.6009 91.8498 90.3195C88.7983 93.99 84.627 96.0893 79.6436 96.9043C77.2214 97.302 74.7993 97.9018 72.2893 97.5954C71.4917 97.4976 71.3378 97.8365 71.3232 98.4559C71.2573 102.433 71.2429 106.423 72.3186 110.308C74.6676 118.751 77.5215 127.057 81.3633 135.069C83.9685 140.507 87.6345 145.351 91.8423 149.895C93.6278 151.825 95.0255 153.898 95.3182 156.454C95.6036 158.918 94.6818 160.887 92.4426 162.393C89.3545 164.466 85.8051 164.759 82.1462 164.512C77.9531 164.231 73.9649 163.169 69.9182 161.747L69.9403 161.734Z" fill="#2B2A28"/>
<path d="M40.2511 98.5226C43.1197 97.6555 45.9666 97.1209 48.5644 95.8821C51.2573 94.6043 53.9795 93.3983 55.5016 90.7188C59.0581 93.3787 62.7315 95.4584 67.0636 96.7623C67.8612 97.7663 67.5832 98.666 66.7417 99.2072C65.2635 100.159 65.0291 101.417 65.117 102.865C65.1462 103.367 65.1463 103.875 65.0219 104.371C64.817 105.192 64.3999 105.485 63.6023 104.794C63.0388 104.305 62.424 103.725 61.6264 104.429C60.9312 105.049 60.9751 105.811 61.5167 106.502C62.1753 107.33 62.8778 107.037 63.6973 106.581C64.9487 105.89 65.3733 106.163 65.5196 107.754C65.9368 112.422 66.8732 116.999 68.7466 121.38C72.0249 129.047 75.9037 136.44 81.3408 143.116C81.6701 143.527 81.9481 143.983 82.3359 144.335C83.6897 145.567 83.3897 146.682 81.5895 147.96C83.214 147.869 84.3704 146.513 85.3656 148.006C86.0388 149.023 85.5996 149.798 84.7946 150.679C82.6359 151.539 80.7771 150.724 78.955 150.131C72.8812 148.142 68.22 144.439 63.961 140.241C59.6362 135.984 55.6185 131.511 52.3841 126.543C49.6179 122.299 47.3421 117.807 45.4615 113.198C43.8223 109.175 42.1611 105.159 40.4341 101.17C40.0828 100.348 39.622 99.5331 40.2586 98.5291L40.2511 98.5226Z" fill="#679441"/>
<path d="M71.4697 77.5475C68.9012 76.8304 66.4499 76.0675 63.7789 76.0415C60.5225 76.0154 58.0634 77.1693 56.5047 79.751C56.373 79.9662 56.2122 80.1684 55.978 80.5139C54.5584 79.5295 53.1094 78.7014 51.5434 78.0234C48.0821 76.5239 44.6281 76.4652 41.1741 78.0038C38.7154 79.0991 36.2932 80.2465 33.7027 81.407C33.271 81.2245 33.1025 80.9442 33.0367 80.6312C31.7268 74.0661 30.1389 67.527 31.2365 60.7794C31.7341 57.7347 33.0952 55.0878 35.5393 52.9559C37.237 51.476 38.591 49.6245 41.0498 48.7313C42.2353 48.6792 43.201 48.8291 44.1084 49.2072C45.4402 49.7614 45.7402 50.4459 45.1768 51.6325C44.9865 52.0367 44.7304 52.4148 44.4889 52.7995C44.0352 53.5297 44.2402 54.1359 44.9281 54.6313C45.5355 55.0682 46.0476 54.8335 46.6403 54.4945C49.8309 52.6494 53.1824 51.0196 55.9412 48.6334C56.8999 47.8055 57.9831 47.9555 59.1027 48.2032C61.5762 48.7574 63.8885 49.7092 66.1643 50.6872C68.5207 51.6977 70.8624 52.3821 73.4675 51.5411C73.6431 51.4824 73.8773 51.5933 74.1993 51.7171C75.0115 52.4473 75.0994 53.2689 75.1579 54.0838C75.2238 55.0748 74.8139 55.6875 73.3796 55.329C72.4283 54.5336 72.1138 53.5687 71.6016 52.7081C71.4626 52.493 71.2577 52.832 71.4772 52.6755C72.0993 53.4187 72.3112 54.3511 72.999 55.2378C73.7016 56.822 73.7747 58.3344 73.6869 59.8469C73.3429 65.7406 73.1237 71.6539 71.4479 77.5606L71.4697 77.5475Z" fill="#679441"/>
<path d="M90.9489 159.986C90.7147 160.527 90.2463 160.605 89.7487 160.827C86.8655 160.442 84.136 161.075 81.3918 160.964C80.1039 160.912 78.8306 160.873 77.8719 159.934C77.6231 159.686 77.3233 159.549 76.9354 159.575C74.5937 159.725 72.7128 158.623 70.8321 157.665C62.7606 153.545 55.9624 148.134 49.9764 141.764C43.6099 134.99 38.5752 127.539 34.0016 119.735C30.8037 114.278 28.5718 108.508 25.9813 102.849C25.6667 102.151 25.3301 101.434 25.7033 100.535C28.1109 100.241 30.4452 100.294 32.9186 99.8828C34.7041 101.461 35.6264 103.403 36.4167 105.327C38.8828 111.324 42.2709 116.912 45.5493 122.564C50.0131 130.264 55.8527 136.998 62.8704 142.97C69.1052 148.27 76.5327 151.641 84.7359 153.766C86.0458 154.105 87.4217 153.825 88.8926 154.151C90.9708 155.735 91.278 157.698 90.9414 159.986H90.9489Z" fill="#3E5B2D"/>
<path d="M63.2289 42.4171C64.9925 43.9035 66.8217 45.1097 68.8048 46.0811C70.3269 46.8309 71.5856 47.7891 72.6613 49.0996C71.5051 50.0644 70.2978 49.9016 68.9952 49.3735C66.2291 48.2521 63.4994 47.033 60.5723 46.2506C59.76 46.0355 58.9553 45.8073 58.0918 45.7682C56.7526 45.703 55.6108 45.9963 54.579 46.8047C52.6179 48.3368 50.7152 49.9472 48.454 50.9903C48.0954 50.9642 47.9492 50.8338 47.9126 50.6382C47.4736 47.9718 45.3001 46.9807 42.7169 46.6482C41.0997 46.4396 39.7533 46.0225 38.5824 44.9859C37.9458 44.4252 37.0824 44.06 36.3214 43.6102C36.2555 43.0169 36.8407 43.0952 37.17 42.9778C42.0802 41.2827 46.1709 38.5119 49.8371 35.2195C51.9885 33.2897 52.7202 30.7146 53.0129 28.1459C53.5398 23.6084 53.3351 19.0839 51.7398 14.6702C50.8178 12.1276 49.4713 9.86517 46.6467 8.66558C43.7195 7.42687 40.6313 7.46605 37.5212 8.07236C37.4554 8.0854 37.3896 8.11805 37.3165 8.13109C36.4896 8.268 35.6408 8.84159 34.8724 8.48954C34.0968 8.13749 34.5355 7.23132 34.3672 6.57937C34.0891 5.52321 33.3428 4.68229 32.7793 3.75C33.6208 2.92855 34.726 2.83065 35.7286 2.66767C42.0072 1.63758 47.9711 2.3547 53.5546 5.24936C56.0353 6.53371 57.8062 8.32658 58.9844 10.641C60.3528 13.3336 60.9236 16.1304 60.8578 19.0903C60.7699 22.7542 60.3162 26.3856 60.0527 30.03C59.8039 33.4658 60.4552 36.8104 61.5309 40.0897C61.809 40.9438 62.453 41.6477 63.236 42.3975L63.2289 42.4171Z" fill="#679441"/>
<path d="M89.0905 154.208C85.2121 154.99 81.8314 153.491 78.4286 152.363C75.5454 151.405 72.8303 150.042 70.1739 148.614C67.7444 147.31 65.527 145.765 63.4414 144.09C59.5044 140.928 56.0358 137.349 52.677 133.711C50.7085 131.585 49.0622 129.212 47.6206 126.767C45.7473 123.592 43.5077 120.6 41.8539 117.321C39.8635 113.376 37.4416 109.608 35.9561 105.449C35.2975 103.61 34.1119 101.915 33.1387 100.018C35.4218 99.379 37.7197 98.8835 40.1931 98.3945C40.1126 100.2 41.1953 101.713 41.8832 103.252C43.0687 105.879 44.2249 108.513 45.2055 111.205C46.4715 114.68 48.3816 117.914 49.9549 121.271C51.7698 125.144 54.4334 128.528 57.0165 131.977C58.6557 134.174 60.6534 136.136 62.6146 138.105C64.2538 139.748 65.7538 141.521 67.6491 142.949C69.6835 144.494 71.4837 146.332 73.8986 147.421C77.1477 148.895 80.309 150.655 84.3411 150.661C84.9338 150.746 85.278 151.098 85.6731 151.079C88.088 150.942 88.6661 152.441 89.0905 154.208Z" fill="#4E6F36"/>
<path d="M52.6924 81.331C52.5973 81.8787 52.4218 82.2893 52.2754 82.7066C51.8363 83.9844 51.9095 84.4278 53.1608 85.0406C53.9219 85.4187 53.8268 85.7382 53.7683 86.3641C53.5634 88.4308 52.1804 89.676 50.2559 90.4518C49.0045 90.9538 48.5506 92.0491 47.5188 92.7337C44.3941 94.7938 41.0281 96.2671 37.2228 96.8669C33.2419 97.4993 29.2535 97.3299 25.236 96.9648C22.0162 96.6714 18.8918 95.9151 15.6646 95.6348C13.9962 95.4914 12.2398 95.0349 10.5786 94.5394C10.1835 94.4221 9.75186 94.2788 9.44451 94.0376C7.00769 92.0882 5.0317 89.8715 4.13161 86.9769C3.8828 86.1815 3.97814 85.6208 4.7026 85.171C5.45633 84.7081 6.16594 84.7015 7.04408 85.1579C9.4809 86.4227 12.0859 87.3289 15.1447 87.4463C15.3423 88.685 13.9155 89.2 13.6887 90.1648C17.5818 93.1117 22.1918 91.2927 25.9971 91.7686C26.0117 91.7686 25.5215 91.8731 24.7751 91.2407C30.0658 89.7868 35.459 89.0632 40.0692 86.2076C40.3692 86.0512 40.5377 85.9598 40.8378 85.8164C41.1451 85.6925 41.3282 85.6534 41.6575 85.6665C41.9648 85.7708 42.0453 85.888 42.0233 86.0641C42.0673 85.9076 42.0523 85.7512 42.0523 85.4839C42.9451 84.2256 44.0062 83.5345 45.6308 83.3063C47.4895 83.039 49.0848 82.2176 49.2604 80.0988C49.8824 79.7663 50.3946 79.7794 51.0752 79.9945C51.8948 80.2292 52.151 80.816 52.6852 81.3245L52.6924 81.331Z" fill="#3F483D"/>
<path d="M22.4047 47.6897C26.0124 46.4771 29.393 44.958 33.286 45.3752C34.069 45.46 34.8229 45.4991 35.6279 45.9815C35.5693 47.0377 34.7203 47.5723 34.0178 48.1656C32.0054 49.8672 30.3077 51.7774 28.7564 53.8245C27.4977 55.487 26.6051 57.2211 26.3563 59.2031C25.9172 62.704 25.2367 66.2051 25.2733 69.7191C25.3172 73.5526 25.7124 77.3861 26.5832 81.1609C26.81 82.1388 27.1394 83.1363 26.4442 84.2381C24.666 84.9291 22.9315 85.2746 20.9923 85.5224C20.041 84.9943 19.6898 84.2316 19.463 83.4362C16.8505 74.0872 15.7089 64.66 17.7872 55.0894C18.4092 52.2404 19.7411 49.7303 22.3901 47.6897H22.4047Z" fill="#3E5B2D"/>
<path d="M26.4796 84.3606C26.465 81.8962 25.4479 79.5622 25.243 77.137C25.221 76.8892 25.0599 76.6416 25.0818 76.4069C25.316 74.0142 24.4162 71.6736 24.6284 69.2874C24.8186 67.1099 25.104 64.9455 25.3602 62.7745C25.5943 60.786 25.7261 58.7977 26.2895 56.8418C26.4505 56.2877 26.6481 55.7595 26.9774 55.277C29.3117 51.8869 32.0413 48.7901 35.6051 46.1562C36.3954 46.1888 36.8634 46.5735 37.3098 46.9777C38.327 47.897 39.5274 48.4773 41.1081 48.6663C38.9493 50.4527 36.7976 52.3042 34.9169 54.3252C33.1679 56.2028 32.1288 58.452 31.7922 60.9947C31.5141 63.0679 31.2802 65.1345 31.4777 67.1817C31.7997 70.5392 32.1654 73.8968 32.9045 77.2153C33.1899 78.4996 33.5925 79.7774 33.5559 81.2704C31.7484 82.4178 29.9849 83.4479 27.7895 84.0151C27.5627 84.0803 27.4896 84.1325 27.2993 84.2368C26.992 84.315 26.8089 84.3411 26.4796 84.3671V84.3606Z" fill="#4E6F36"/>
<path d="M89.1489 154.448C88.7757 153.789 88.534 153.215 88.1974 152.681C87.7583 151.983 87.5388 151.005 86.1264 151.664C85.541 151.938 84.9998 151.396 84.59 150.784C84.5607 150.549 84.5899 150.425 84.6557 150.314C85.2899 149.31 85.0509 148.297 83.9386 147.276C83.8288 148.241 83.4044 148.926 82.2774 148.776C81.6481 148.691 81.2383 148.287 81.2237 147.745C81.2018 146.637 82.1166 146.448 83.185 146.429C73.7304 134.25 65.8855 121.57 64.8537 106.34C64.1219 106.386 64.1293 106.953 63.8147 107.207C62.856 107.996 61.868 107.957 61.1069 107.031C60.5874 106.392 60.4118 105.662 60.6167 104.886C60.7923 104.221 61.2752 103.771 61.9923 103.563C62.79 103.335 63.3536 103.687 63.7854 104.247C63.9756 104.495 64.1441 104.756 64.649 105.01C64.649 103.876 64.561 102.735 64.6708 101.607C64.7805 100.538 64.627 99.3251 66.4198 98.9861C67.2833 98.8231 66.9612 97.806 67.1588 97.0106C67.9857 96.789 68.4906 96.9259 68.4687 97.8517C68.4248 99.8662 68.4468 101.887 68.5419 103.902C68.7541 108.342 69.9322 112.612 71.3225 116.856C73.2618 122.789 75.3766 128.656 77.9525 134.394C80.7406 140.594 84.7507 146.135 89.4487 151.305C90.4293 152.387 91.4102 153.476 91.9517 154.793C92.7128 156.638 93.0639 158.477 91.0734 160.093C90.8466 158.164 90.5245 156.24 89.1414 154.448H89.1489Z" fill="#EDF0E9"/>
<path d="M25.6378 100.406C25.7768 101.202 26.062 101.919 26.362 102.617C27.9573 106.307 29.4282 110.055 31.2576 113.661C33.7018 118.466 36.4828 123.121 39.3879 127.723C41.8833 131.681 44.7663 135.397 47.9788 138.898C51.6743 142.927 55.392 146.943 59.951 150.3C63.3318 152.797 66.8808 155.027 70.5983 157.081C72.1789 157.954 73.8911 158.508 75.5596 159.186C75.6254 159.213 75.6986 159.225 75.7572 159.258C76.6426 159.78 77.038 158.358 77.8064 158.802C78.3845 159.141 78.1284 160.047 79.1602 160.288C80.9897 160.705 82.8628 160.718 84.6264 160.451C86.2949 160.197 87.8171 160.223 89.5002 160.764C88.3074 161.703 86.8216 161.996 85.2263 161.97C83.8872 161.951 82.5555 161.918 81.0261 161.885C80.5797 161.872 80.3381 161.814 79.9795 161.729C75.1425 160.986 70.7517 159.467 66.566 157.413C61.2679 154.812 56.3285 151.741 52.0329 147.96C47.8471 144.276 44.3053 140.117 41.2538 135.592C34.8069 126.028 29.9477 115.838 25.7839 105.361C25.2643 104.057 24.9207 102.701 24.4304 101.384C24.0645 100.4 24.6279 100.296 25.6378 100.406Z" fill="#758F55"/>
<path d="M84.1009 85.0049C84.5033 85.0506 84.8032 85.0897 85.2496 85.1484C85.8716 86.4001 87.1814 86.55 88.3815 87.0716C88.462 87.2802 88.462 87.3715 88.3668 87.5866C86.6545 88.3038 85.7107 89.6925 84.1666 90.4292C78.3124 93.2391 72.4141 91.6548 66.516 90.6899C65.9672 90.5987 65.4914 90.2726 64.7669 90.1553C64.1888 90.0119 63.8012 89.8424 63.3402 89.5099C62.8792 88.2712 63.6473 87.9061 64.6133 87.6127C64.2474 87.1564 62.6376 87.0977 63.6621 85.8395C63.9329 85.507 63.523 85.2787 63.223 85.1223C61.6862 84.3008 61.7522 83.0686 62.2572 81.8233C62.5279 81.1518 62.5937 80.487 62.7181 79.6655C65.0671 78.4529 67.1599 78.8571 69.2309 80.2979C69.7065 80.9303 70.1237 81.3605 71.075 81.0932C72.5312 81.1324 73.38 81.9408 74.2947 82.6189C76.8267 84.503 79.7392 85.1548 83.1347 84.7702C83.3688 84.7506 83.4495 84.7377 83.6471 84.7247C83.8007 84.855 83.8811 84.9463 84.108 85.0049H84.1009Z" fill="#586159"/>
<path d="M42.1328 85.8014C41.8694 85.9057 41.6864 85.9056 41.3571 85.9122C41.1156 85.9904 41.013 86.0686 40.8594 86.2251C36.2784 89.3153 30.9367 90.3651 25.5581 91.4147C25.9533 91.8124 26.6848 91.3626 27.1239 91.7407C27.197 91.845 27.1312 91.9166 26.9409 91.9492C23.8748 92.4512 20.7723 92.3339 17.6768 92.347C16.6743 92.347 15.7522 92.373 15.0863 91.4472C14.574 90.7366 13.3812 90.9191 12.6641 90.3194C13.008 89.9608 13.8201 89.8499 13.7396 89.3414C13.564 88.2266 14.779 88.2723 15.2839 87.5942C17.4134 88.0441 19.4624 87.516 21.5187 87.2487C22.8212 87.0792 24.1088 86.8184 25.5724 86.6228C31.8218 86.16 36.6809 82.8937 42.1253 80.9509C44.3353 80.162 46.538 79.2232 49.1505 80.0968C49.3407 80.5662 49.3336 80.9574 49.4799 81.2965C49.7434 81.9028 49.4212 82.333 48.9236 82.5482C47.621 83.0958 46.4209 83.9107 44.9135 83.9889C44.1305 84.0281 43.4205 83.9629 43.362 84.9864C43.3474 85.2407 42.6085 85.4624 42.1328 85.7949V85.8014Z" fill="#586159"/>
<path d="M22.3596 47.6042C22.3888 48.869 21.0715 49.521 20.369 50.499C18.7517 52.7547 18.3275 55.2712 17.8299 57.7877C17.0981 61.4582 17.2443 65.1808 17.4565 68.8644C17.6834 72.7891 18.298 76.6942 19.2567 80.5473C19.6518 82.138 20.1204 83.7093 20.801 85.3718C19.9228 85.7108 19.3081 85.489 19.1105 84.6024C19.03 84.2373 18.8615 83.8788 18.7078 83.3833C18.4883 83.0834 18.4884 82.8617 18.4005 82.5618C17.1931 78.7023 15.6856 75.0057 15.0782 71.1266C14.2147 65.6176 13.7537 60.0827 15.2465 54.5932C16.1686 51.2031 18.1809 48.6017 22.3667 47.5977L22.3596 47.6042Z" fill="#758F55"/>
<path d="M63.2068 89.2181C63.6239 89.4137 63.9605 89.5179 64.4288 89.6614C66.5583 91.3825 69.0537 91.5782 71.6076 91.5847C73.7005 91.5847 75.6983 92.1062 77.8424 92.1062C82.2696 92.1062 85.4604 90.4632 88.2777 87.536C88.3875 87.4382 88.3873 87.4187 88.3946 87.4252C89.2727 86.6689 88.1678 86.0822 88.2702 85.2933C88.6361 85.1564 88.9144 85.1368 89.1925 85.0912C89.7706 84.9934 90.3705 84.498 90.9047 85.1695C91.3877 85.7823 91.4536 86.4082 91.1023 87.1253C90.6193 88.1293 89.8803 89.0029 88.9949 89.6809C86.6678 91.4803 84.348 93.358 81.0696 93.7036C80.9306 93.7166 80.784 93.8274 80.6669 93.8013C78.5375 93.2863 76.364 94.2316 74.2346 93.6514C72.954 93.3058 71.6004 93.4232 70.2759 93.2146C67.5537 92.7908 64.9851 91.9824 62.38 91.2522C61.9702 91.1349 61.5165 91.0435 61.3555 90.6654C60.4335 88.527 58.538 86.7081 58.6332 84.2438C58.6624 83.5723 58.0476 83.2789 57.7988 82.6335C58.4721 81.7729 59.1965 81.1014 60.5137 81.134C61.1211 81.4599 61.2531 81.9097 61.1726 82.34C60.814 84.2502 61.3629 86.0627 61.919 87.9794C62.0581 88.1359 62.1166 88.1946 62.2849 88.3315C62.6801 88.6118 62.9433 88.8334 63.2068 89.2246V89.2181Z" fill="#3F483D"/>
<path d="M72.8591 54.67C74.6153 55.361 74.8203 55.2633 74.7911 53.8811C74.7764 53.2683 74.6007 52.6881 74.3519 51.9644C75.1276 51.821 75.1424 52.3751 75.2595 52.8575C75.8742 55.5175 75.9547 58.2036 75.8083 60.9157C75.5815 65.0817 74.4836 69.1042 73.3786 73.1267C72.9981 74.5284 72.5886 75.9236 72.208 77.3253C72.1202 77.6578 72.0029 77.9185 71.4395 77.7685C72.3395 71.8358 72.8227 65.9487 73.2471 60.0681C73.3642 58.3796 73.0934 56.6845 72.486 54.8786C72.5153 54.7026 72.6176 54.683 72.8737 54.683L72.8591 54.67Z" fill="#EDF0E9"/>
<path d="M49.4502 80.2061C47.189 79.9454 45.2057 80.2778 43.3104 81.0211C40.5516 82.1098 37.7856 83.153 35.1512 84.4895C32.407 85.8847 29.4652 86.9604 25.9453 86.641C27.182 85.5978 29.0043 85.2524 30.6508 84.5874C34.6683 82.9705 38.4221 80.8387 42.7616 79.5217C43.0031 79.3587 43.1274 79.2738 43.3762 79.2152C43.764 79.1826 44.0422 79.1435 44.452 79.0652C44.7155 78.9544 44.8398 78.8828 45.0813 78.8437C47.2547 78.6807 49.2892 78.661 51.2796 79.7563C51.4625 79.9063 51.5138 79.9845 51.4918 80.1931C50.8186 80.2778 50.2257 80.2453 49.4426 80.2127L49.4502 80.2061Z" fill="#818A8C"/>
<path d="M60.8731 81.2325C59.6583 81.3173 59.095 82.2953 57.9242 82.4518C57.1777 81.6042 57.9385 81.1022 58.5019 80.6002C60.2948 78.9898 62.366 77.9533 65.2273 78.3444C65.6151 78.5074 65.8639 78.5205 66.2371 78.5596C67.064 78.7422 67.7736 78.9181 68.6225 79.1333C68.864 79.2115 68.952 79.2442 69.1642 79.3615C69.7277 79.6093 70.1667 79.7722 70.7374 79.9939C70.9643 80.0461 71.0669 80.0395 71.2205 80.1569C72.0474 80.6524 72.8229 81.024 73.7157 81.4673C73.9352 81.5455 74.0379 81.5454 74.1916 81.6693C75.5161 82.406 76.7014 83.1819 78.3332 83.4232C78.5894 83.4492 78.6918 83.4427 78.8967 83.5405C80.1407 83.9056 81.2823 84.1663 82.5849 84.4466C82.8923 84.4792 83.0092 84.5314 83.1995 84.6683C83.2946 84.7009 83.2727 84.7336 83.2727 84.7532C82.4239 85.5029 81.4581 85.4833 80.3385 85.3529C77.4333 85.0269 74.9673 84.0099 72.9256 82.1454C72.4719 81.7346 71.8717 81.5259 71.118 81.3433C70.3643 81.7475 69.9106 81.3695 69.3618 80.9653C67.525 79.2181 65.3663 79.2702 63.0173 79.7918C62.3953 80.4763 61.7073 80.8348 60.8731 81.226V81.2325Z" fill="#818A8C"/>
<path d="M88.1755 85.1763C88.4169 85.4306 88.5046 85.6457 88.7461 85.8087C89.4779 86.3042 89.412 86.8366 88.5485 87.4059C88.0143 86.9561 87.4364 86.9886 86.9095 87.0408C85.5191 87.1777 85.292 86.4737 85.3945 85.3262C86.258 85.1698 87.1215 85.1633 88.1679 85.1763H88.1755Z" fill="#50584D"/>
<path d="M51.4782 80.429C51.4197 80.24 51.4121 80.1552 51.4121 79.9531C52.3342 79.9792 53.0366 80.2986 52.8464 81.3743C52.1365 81.3678 51.7927 80.9962 51.4707 80.429H51.4782Z" fill="#586159"/>
<path d="M79.959 161.753C80.12 161.688 80.376 161.708 80.7272 161.799C80.5662 161.962 80.3029 161.975 79.959 161.753Z" fill="#3F483D"/>
<path d="M18.3284 82.5742C18.4602 82.6525 18.5701 82.8349 18.6725 83.1348C18.4384 83.1087 18.3211 82.9263 18.3284 82.5742Z" fill="#50584D"/>
<path d="M66.2591 78.495C66.0908 78.671 65.8347 78.671 65.498 78.4493C65.659 78.3776 65.9079 78.3972 66.2591 78.495Z" fill="#586159"/>
<path d="M84.1371 84.9495C84.1956 85.0147 83.9906 85.0148 83.9906 85.0148C83.9906 85.0148 83.8296 84.9039 83.793 84.8257C83.8808 84.767 83.9834 84.8126 84.1371 84.956V84.9495Z" fill="#3F483D"/>
<path d="M83.2438 84.616C83.1706 84.6681 83.0389 84.6421 82.834 84.5378C82.9072 84.4857 83.0462 84.5117 83.2438 84.616Z" fill="#3F483D"/>
<path d="M27.2691 84.2737C27.2399 84.1824 27.3278 84.1043 27.54 84.0391C27.5766 84.1303 27.4887 84.215 27.2691 84.2737Z" fill="#3E5B2D"/>
<path d="M78.956 83.5589C78.8755 83.6632 78.7513 83.6436 78.5684 83.5132C78.6342 83.4611 78.7658 83.4676 78.956 83.5589Z" fill="#50584D"/>
<path d="M74.2363 81.7074C74.1339 81.7856 74.0316 81.7466 73.8926 81.6032C73.9877 81.4728 74.1119 81.4988 74.2363 81.7074Z" fill="#586159"/>
<path d="M71.2585 80.1959C71.1633 80.2807 71.0609 80.2416 70.9219 80.1112C71.0097 79.9743 71.1341 79.9938 71.2585 80.1959Z" fill="#586159"/>
<path d="M69.2305 79.3524C69.128 79.4632 68.9964 79.4305 68.8281 79.2545C68.9086 79.2024 69.0402 79.2351 69.2305 79.3524Z" fill="#586159"/>
<path d="M43.376 79.2109C43.376 79.3022 43.2517 79.3804 43.0176 79.4586C43.0176 79.3738 43.1418 79.2827 43.376 79.2109Z" fill="#3F483D"/>
<path d="M45.0817 78.8438C45.0671 78.935 44.9353 78.9937 44.7012 79.0459C44.7158 78.9611 44.8402 78.8894 45.0817 78.8438Z" fill="#3F483D"/>
<path d="M64.4513 125.54C64.1001 125.325 63.8439 125.182 63.7049 124.98C63.3683 124.491 63.4632 124.002 63.895 123.604C64.334 123.193 64.8976 123.147 65.4464 123.408C65.9953 123.669 66.3247 124.165 66.0832 124.66C65.688 125.469 65.7905 125.899 66.8149 126.147C67.2906 126.257 67.6931 126.759 67.5174 127.183C67.1149 128.141 67.4149 128.487 68.4979 128.813C69.6175 129.145 70.0934 130.378 69.6324 131.14C69.2299 131.805 68.5491 132.125 67.6929 132.001C66.5879 131.838 65.6147 130.769 65.9367 129.784C66.2147 128.943 66.2953 128.52 65.2635 128.083C64.5829 127.796 64.5977 127.053 65.0734 126.433C65.2929 126.147 65.8049 126.081 65.8488 125.658C65.417 125.358 64.9928 125.716 64.4513 125.54Z" fill="#EDF0E9"/>
<path d="M65.3582 119.644C65.5997 120.029 65.8267 120.296 65.8853 120.583C66.0975 121.639 65.7461 122.35 64.8826 122.591C63.9752 122.845 63.229 122.572 62.6802 121.894C62.0801 121.157 62.0655 120.036 62.6802 119.462C63.3607 118.83 64.1361 118.79 64.9337 119.299C65.0435 119.371 65.1462 119.462 65.3511 119.644H65.3582Z" fill="#EDF0E9"/>
<path d="M74.7553 139.619C76.0432 139.071 76.8042 139.554 77.2579 140.434C77.6092 141.112 77.4407 141.816 76.7016 142.253C75.9625 142.689 75.2087 142.533 74.6159 141.979C73.8183 141.235 73.7379 140.453 74.7478 139.619H74.7553Z" fill="#EDF0E9"/>
<path d="M63.9973 114.129C64.1583 114.644 64.0633 115.009 63.7486 115.289C63.2583 115.726 62.7021 115.883 62.0582 115.504C61.4142 115.126 61.3265 114.592 61.5972 114.038C61.8826 113.457 62.446 113.249 63.1558 113.431C63.5144 113.523 63.7558 113.738 63.9973 114.135V114.129Z" fill="#EDF0E9"/>
<path d="M77.7921 142.781C79.0508 143.185 79.6654 144.124 80.4924 144.855C80.7485 145.083 80.829 145.415 80.507 145.67C80.3753 145.774 80.0604 145.859 79.9507 145.793C78.8823 145.128 77.7994 144.45 77.353 143.283C77.3091 143.172 77.5432 142.977 77.7993 142.781H77.7921Z" fill="#EDF0E9"/>
<path d="M61.2466 110.112C61.2027 109.46 61.4882 109.206 62.0956 109.375C62.3956 109.46 62.5053 109.747 62.4028 109.962C62.1833 110.418 61.8249 110.627 61.2541 110.106L61.2466 110.112Z" fill="#EDF0E9"/>
<path d="M49.4659 61.4511C45.807 59.7364 42.3015 59.8082 38.7743 61.3794C38.1889 61.6402 37.5304 62.3508 36.8938 61.8358C36.1986 61.2686 36.8937 60.5254 37.1571 59.9321C38.1743 57.6242 41.2039 55.9618 44.0797 56.0335C46.7141 56.0987 49.7219 57.9827 50.6733 60.1602C51.0831 61.099 50.9953 61.2164 49.4659 61.4576V61.4511Z" fill="#2B2A28"/>
<path d="M47.2699 69.9113C47.0357 71.2087 46.4795 72.2127 45.5355 73.0081C44.1085 74.2077 42.3304 74.0185 41.1888 72.5908C39.3959 70.3415 39.6591 65.8365 41.7008 63.7503C43.2083 62.2052 44.7306 62.2703 46.4942 64.0763C46.5161 64.2784 46.4649 64.3567 46.2819 64.4936C45.0891 64.6175 43.7864 64.2719 43.5303 65.7257C43.3546 66.7101 43.1644 67.7598 44.0644 68.5356C45.1987 69.5201 45.8648 68.0728 46.9698 68.0336C47.5406 68.6008 47.2917 69.2007 47.2624 69.9113H47.2699Z" fill="#2B2A28"/>
<path d="M68.5197 70.2935C68.3295 71.5322 67.795 72.4841 66.9608 73.2729C65.5777 74.5833 63.8217 74.453 62.6801 72.9665C61.7727 71.7865 61.5459 70.4304 61.5678 69.0222C61.5971 67.3662 61.875 65.7689 63.0239 64.4063C64.3411 62.8351 65.6584 62.7439 67.5464 64.1391C67.7074 64.439 67.6853 64.6085 67.3999 64.8302C66.4486 65.0062 65.5193 64.9019 65.0802 65.7624C64.5826 66.7338 64.3777 67.7901 65.2192 68.6115C66.4413 69.8046 67.1218 68.1681 68.256 68.0573C68.7902 68.7614 68.5417 69.4655 68.5197 70.2935Z" fill="#2B2A28"/>
<path d="M62.9002 57.7795C66.5444 56.2604 70.5179 57.7859 71.5936 60.9739C71.7253 61.3651 71.784 61.7237 71.3596 61.9845C71.0376 62.1801 70.6863 62.1214 70.357 61.9584C70.2984 61.9258 70.2326 61.8998 70.174 61.8607C67.203 59.5723 64.0564 60.0418 60.8585 61.4043C60.4926 61.5608 60.0976 61.8736 59.739 61.4564C59.4975 61.176 59.7243 60.8567 59.8634 60.5698C60.4488 59.3442 61.6927 58.6791 62.9002 57.7795Z" fill="#2B2A28"/>
<path d="M63.442 52.142C64.4153 52.5267 65.2571 52.8395 66.0693 53.2046C66.3767 53.3415 66.6694 53.5827 66.4645 53.9543C66.2962 54.2672 65.9448 54.4172 65.5863 54.3194C64.7886 54.0912 63.9983 53.837 63.2373 53.5241C61.642 52.8721 60.1492 52.0507 58.7369 51.1184C58.2832 50.8185 57.7491 50.4664 58.2467 49.9057C58.6857 49.4037 59.1173 49.834 59.5198 50.0491C60.7784 50.7271 62.0372 51.4053 63.4349 52.142H63.442Z" fill="#EDF0E9"/>
<path d="M47.3135 69.9195C47.072 69.4631 47.3352 68.8371 46.8522 68.1852C45.8789 67.0964 46.1791 65.9099 46.1133 64.6517C46.2304 64.443 46.2816 64.3778 46.4499 64.2539C47.1817 64.6516 47.5549 65.2384 47.5622 65.9425C47.5768 67.2269 47.7743 68.5178 47.306 69.9195H47.3135Z" fill="#3F483D"/>
<path d="M68.565 70.3063C68.3015 69.7261 68.6236 68.9698 68.0894 68.1875C67.3064 67.4638 67.4237 66.7141 67.592 65.8144C67.7164 65.5732 67.7822 65.482 68.0237 65.3516C69.275 66.8576 68.8723 68.5265 68.565 70.3063Z" fill="#3F483D"/>
<path d="M57.2005 52.682C57.0542 52.9297 56.937 53.1057 56.7614 53.1709C56.2345 53.373 55.7737 53.2818 55.7298 52.7016C55.7006 52.2191 56.1687 52.1344 56.5931 52.141C56.8785 52.141 57.0982 52.2973 57.1934 52.6754L57.2005 52.682Z" fill="#EDF0E9"/>
<path d="M59.4099 53.0938C59.9733 53.5371 59.9661 53.8892 59.3441 54.1108C59.0953 54.2021 58.7439 54.163 58.6341 53.9152C58.4 53.3871 58.7074 53.1198 59.4099 53.1003V53.0938Z" fill="#EDF0E9"/>
<path d="M72.9626 54.5739C72.9114 54.6978 72.8164 54.7238 72.5603 54.7238C72.0114 54.0002 71.594 53.296 71.3672 52.0508C72.3697 52.9374 72.3113 53.8828 72.9626 54.5739Z" fill="#818A8C"/>
<path d="M67.0801 64.8275C67.2557 64.6188 67.3801 64.5341 67.5703 64.3516C67.9582 64.4494 68.0387 64.7688 68.1631 65.1926C68.1338 65.3556 68.0679 65.4012 67.9069 65.5186C67.38 65.5381 67.1386 65.3099 67.0801 64.8275Z" fill="#3F483D"/>
<path d="M76.2336 156.497C76.3288 157.005 76.058 157.103 75.6701 156.999C75.4579 156.946 75.3187 156.751 75.4211 156.581C75.5675 156.34 75.8531 156.327 76.2336 156.497Z" fill="#679441"/>
<path d="M42.0508 85.8984C42.102 85.9506 42.1534 86.0093 42.2119 86.0614C42.1753 86.0419 42.1388 86.0224 42.0729 85.9506C42.051 85.8985 42.0508 85.8984 42.0508 85.8984Z" fill="#50584D"/>
<path d="M40.8826 86.2452C40.8241 86.1604 40.8969 86.0561 41.1238 85.9453C41.175 86.0301 41.0948 86.1278 40.8826 86.2452Z" fill="#50584D"/>
<path d="M88.2425 87.4453C88.3888 87.5627 88.4182 87.6996 88.3743 87.8104C87.9426 88.9318 84.9351 91.52 83.7203 91.5265C82.3299 91.533 81.481 92.7978 80.2151 92.6413C79.0149 92.4914 77.9172 92.4131 76.6951 92.6283C75.5902 92.8304 74.3094 93.0586 73.2703 92.185C72.8898 91.859 72.3263 91.9763 71.836 91.9698C71.1262 91.9568 70.4238 91.9633 69.7139 91.9698C67.665 91.9894 65.7841 91.6699 64.584 89.8314C65.1401 89.6554 65.6597 89.8119 66.1865 90.0335C68.3307 90.9137 70.6359 91.1223 72.963 91.2136C74.6461 91.2788 76.3293 91.1093 78.0051 91.5265C78.8466 91.7352 79.8343 91.7482 80.7124 91.3896C82.2419 90.7703 83.6909 90.0076 85.2789 89.4795C86.0985 89.2057 85.0519 89.0296 84.9788 88.645C86.0398 88.3711 87.1011 87.9734 88.25 87.4518L88.2425 87.4453Z" fill="#50584D"/>
<path d="M60.7342 81.4266C61.0342 80.4552 61.8758 80.2466 62.7613 79.9141C63.2735 80.5595 63.5295 81.1724 62.827 81.8113C62.1977 82.3785 62.454 83.1216 62.4979 83.7931C62.5491 84.6146 63.3099 84.6929 64.0197 84.8363C64.5686 84.9472 64.8394 85.384 64.8247 85.8338C64.8028 86.4858 63.9905 86.1141 63.6685 86.4205C63.7563 86.766 64.1588 86.8443 64.4003 87.0594C64.5978 87.2354 64.8321 87.3723 65.0516 87.5353C64.4662 88.0438 63.6833 88.3633 63.3247 89.1978C62.9223 89.1392 62.5489 88.9566 62.0952 88.6697C61.7659 88.2785 60.7269 88.4742 61.2977 87.6332C61.4075 87.4767 61.2978 87.1377 61.188 86.9356C60.2879 85.3905 60.4779 83.7737 60.756 82.1438C60.7853 81.9613 60.756 81.7722 60.756 81.4266H60.7342Z" fill="#50584D"/>
<path d="M69.2969 80.9727C69.7579 80.9792 70.2192 81.1357 70.8265 81.3117C70.3216 81.8332 69.7213 81.9832 69.2969 80.9727Z" fill="#50584D"/>
<path d="M46.0401 64.4333C46.7792 65.5416 46.9182 66.637 46.7133 67.9409C46.4791 68.4103 46.2962 68.7753 45.9962 69.0231C45.0522 69.7989 44.0058 69.6685 43.3545 68.6645C42.6008 67.4975 42.6082 66.2458 43.2156 65.0332C43.779 63.9053 44.4156 63.7748 46.0548 64.4333H46.0401Z" fill="#EDF0E9"/>
<path d="M66.9896 64.6725C67.297 64.9463 67.4582 65.1941 67.7143 65.5136C67.9411 66.3155 68.0581 67.0391 67.9337 67.9388C66.9824 69.5752 66.4263 69.9206 65.5043 69.6338C64.6408 69.3665 64.1724 68.4408 64.209 67.1043C64.2602 65.2527 64.9626 64.5943 66.9896 64.679V64.6725Z" fill="#EDF0E9"/>
<path d="M62.3438 86.0361C62.5486 85.9839 62.6219 86.036 62.556 86.1404C62.5414 86.1599 62.3877 86.1078 62.3438 86.0361Z" fill="#586159"/>
<path d="M62.0156 88.5578C62.0668 88.5904 62.0084 88.3166 62.0742 88.5448C62.0157 88.5709 62.0229 88.5513 62.0156 88.5578Z" fill="#586159"/>
</svg>
