<svg width="100" height="201" viewBox="0 0 100 201" fill="none" xmlns="http://www.w3.org/2000/svg">
<path d="M36.658 165.247C36.4996 164.538 37.2162 163.837 38.0306 163.737C38.8375 163.643 39.6442 164.031 40.1871 164.572C40.7301 165.113 41.0542 165.795 41.3709 166.463C42.0159 167.823 43.1096 169.448 43.3626 170.891C43.5385 171.895 43.156 173.691 42.9459 173.845C42.697 174.553 41.3989 175.339 40.5845 175.199C40.1773 175.126 40.3909 175.202 40.0289 175.022C39.6404 174.828 39.0566 174.276 38.9871 174.214C38.3306 174.166 37.4435 174.779 37.2162 175.316C37.0143 175.789 36.4299 176.33 36.6258 176.799C36.6771 176.922 39.11 178.899 39.5427 179.445C41.5485 181.957 41.6866 184.619 40.3067 187.445C40.3067 187.756 38.1537 190.091 37.3203 190.338C36.4869 190.891 34.8091 191.385 33.5699 191.507C31.0513 191.754 29.2984 190.309 27.8054 188.491C27.5711 188.066 26.7948 186.474 26.4163 185.476C25.7916 183.828 25.1694 182.205 24.6106 180.553C24.3346 179.73 23.9734 178.859 23.6382 177.968C23.3906 177.311 23.1913 176.643 22.8743 175.977C22.2019 174.565 21.6052 173.148 21.4158 171.814C21.2574 170.665 21.223 170.157 21.9017 169.168C22.701 167.999 23.8492 167.291 25.3046 166.83C27.5215 166.135 32.597 166.338 32.597 166.338C33.361 166.338 35.1649 165.908 35.1649 165.908C35.8662 165.788 36.56 165.46 36.6882 165.253L36.658 165.247Z" fill="white"/>
<path d="M41.5391 164.297C42.115 163.794 48.902 160.368 52.7207 158.847C56.0433 157.523 59.5518 156.352 62.1213 153.429C64.4604 150.77 65.7183 146.972 66.7461 143.251C67.7738 139.529 68.6778 135.666 70.5385 132.47C71.0258 131.638 71.5926 130.839 72.3192 130.336C73.0457 129.832 73.976 129.69 74.7202 130.15C75.5531 130.675 75.9963 131.857 76.0583 133.006C76.1204 134.155 75.8545 135.294 75.5976 136.399C73.9585 143.415 72.3016 150.474 69.7853 157.085C69.0676 158.978 68.2261 160.905 66.8793 162.163C65.5857 163.367 63.964 163.849 62.3869 164.308C56.6012 165.972 50.8243 167.647 45.0386 169.31C44.4627 169.474 43.8336 169.639 43.302 169.31C41.911 168.435 41.6188 164.615 41.5391 164.297Z" fill="#3C5B31" stroke="#231F20" stroke-width="5" stroke-miterlimit="10"/>
<path d="M41.9272 167.677C41.4823 166.702 40.9317 165.76 40.2832 164.878C39.8836 164.337 39.4084 163.789 38.7147 163.595C38.1492 163.435 37.4856 163.548 37.0332 163.889C36.2414 164.484 36.204 165.579 36.5659 166.435C36.9279 167.29 37.599 168.018 38.0891 168.827C38.896 170.176 39.1596 171.733 39.137 173.256C39.1295 173.671 39.1069 174.112 39.3406 174.472C39.6272 174.92 40.2681 175.127 40.8488 175.081C41.7386 175.007 42.5077 174.412 42.8923 173.697C43.2768 172.983 43.3296 172.154 43.2542 171.366C43.126 170.023 42.4398 168.787 41.9346 167.677H41.9272Z" stroke="#231F20" stroke-width="2.15" stroke-miterlimit="10"/>
<path d="M36.1976 165.695C34.6141 166.363 32.8045 166.457 31.055 166.45C29.3056 166.444 27.5185 166.37 25.8219 166.744C24.1252 167.118 22.4585 168.027 21.7798 169.457C20.9956 171.101 21.6516 172.971 22.3001 174.655C23.6725 178.183 25.0375 181.711 26.4099 185.239C26.8623 186.415 27.33 187.597 28.0539 188.653C28.7778 189.708 29.8109 190.651 31.1154 191.112C32.4275 191.573 33.9279 191.499 35.2701 191.112C37.3966 190.504 39.2213 189.12 40.2242 187.35C41.2271 185.579 41.3855 183.455 40.6616 181.584C39.9981 179.88 38.6558 178.437 37.0949 177.281C35.534 176.132 33.7393 175.25 31.9597 174.381" stroke="#231F20" stroke-width="2.15" stroke-miterlimit="10"/>
<path d="M39.2217 174.062C38.626 174.069 38.083 174.37 37.6833 174.764C37.2837 175.151 37.0198 175.633 36.7559 176.1" stroke="#231F20" stroke-width="2.15" stroke-miterlimit="10"/>
<path d="M24.0109 168C23.4679 171.408 24.1317 174.962 25.8736 178.036C25.8359 178.076 25.8056 178.109 25.7679 178.149" stroke="#231F20" stroke-miterlimit="10"/>
<path d="M31.9521 190.987C29.064 188.461 27.3221 184.927 27.209 181.332" stroke="#231F20" stroke-miterlimit="10"/>
<path d="M48.7831 189.167C48.823 188.457 49.404 186.644 49.404 186.398C49.2651 186.398 48.1327 186.253 47.8766 185.967C47.5825 185.647 47.5406 185.315 47.3898 184.921C47.2956 184.675 47.6682 183.963 48.0151 183.629C48.362 183.295 48.459 183.314 48.919 183.134C52.0936 181.931 55.986 181.463 59.2662 182.398C60.0353 182.619 60.7354 183.29 60.8636 183.998C60.9767 184.606 60.4261 185.198 60.1018 185.746C59.9369 186.031 59.7621 185.656 59.6795 185.967C59.5393 186.495 59.5704 187.724 59.6795 188.259C59.7248 188.492 59.8076 188.733 59.9962 188.907C60.4788 189.341 60.9398 189.312 61.5581 189.044C64.1747 187.908 67.9147 186.947 70.7952 187.321C72.16 187.495 73.3192 187.965 74.3372 188.786C75.0838 189.388 76.0195 190.473 76.3513 191.321C76.8716 192.651 76.905 194.211 76.4902 195.567C76.0755 196.924 75.2628 198.074 73.9205 198.829C72.0731 199.864 68.0171 199.874 67.6699 199.875C65.2965 199.882 62.9582 199.991 60.5858 199.998C58.1492 200.006 54.9496 199.861 52.5159 199.871C51.694 199.871 50.857 199.871 50.0652 199.677C49.2734 199.483 48.5116 199.056 48.1421 198.401C48.1421 198.09 48.1421 196.798 48.1421 196.552C48.1421 195.567 48.5706 190.029 48.768 189.16L48.7831 189.167Z" fill="white"/>
<path d="M52.0289 181.914C51.0552 182.458 52.776 154.788 53.1534 141.224C53.2137 138.91 53.2818 136.577 53.697 134.318C54.0442 132.428 54.8666 130.353 56.414 129.938C57.6292 129.616 58.8973 130.492 59.5917 131.746C60.2937 133 60.5202 134.549 60.6259 136.061C60.9278 140.293 60.3995 144.544 59.8711 148.748C58.5577 159.177 57.2446 169.605 55.9312 180.043C55.8633 180.55 55.7875 181.103 55.4856 181.463C54.61 182.532 53.1158 181.287 52.0289 181.896V181.914Z" fill="#3C5B31" stroke="#231F20" stroke-width="5" stroke-miterlimit="10"/>
<path d="M55.201 181.993C53.5119 182.013 51.8225 182.253 50.2013 182.688C49.304 182.928 48.3766 183.275 47.8563 183.957C47.3284 184.645 47.4342 185.754 48.2712 186.115C48.9046 186.389 49.6587 186.149 50.3298 185.955C52.6523 185.28 55.1781 185.166 57.5685 185.627C58.5036 185.808 59.6046 186.042 60.3285 185.494C61.0298 184.959 60.9469 183.904 60.3587 183.269C59.7705 182.634 58.8429 182.333 57.9305 182.16C56.5882 181.906 55.2008 181.859 55.1933 181.986L55.201 181.993Z" stroke="#231F20" stroke-width="2.15" stroke-miterlimit="10"/>
<path d="M49.4164 186.516C48.5719 190.057 48.1725 193.678 48.2253 197.3C48.2329 197.881 48.2703 198.516 48.6775 198.97C49.243 199.611 50.2988 199.685 51.2188 199.705C53.4583 199.752 55.7054 199.792 57.945 199.838C61.9415 199.919 65.9532 199.999 69.9422 199.678C71.3146 199.564 72.7323 199.398 73.9011 198.743C75.1 198.068 75.9146 196.945 76.3293 195.743C76.8496 194.259 76.8042 192.616 76.1482 191.173C75.4846 189.736 74.2027 188.513 72.5966 187.892C70.7265 187.164 68.5772 187.257 66.5714 187.605C63.1781 188.199 59.8077 189.603 57.7793 192.081" stroke="#231F20" stroke-width="2.15" stroke-miterlimit="10"/>
<path d="M59.5965 185.93C59.2647 186.959 59.4533 188.114 60.0943 189.023" stroke="#231F20" stroke-width="2.15" stroke-miterlimit="10"/>
<path d="M75.7646 196.871C71.9867 198.127 67.8919 198.635 63.8652 198.334" stroke="#231F20" stroke-miterlimit="10"/>
<path d="M48.4355 197.605C52.3341 198.287 56.3155 198.608 60.297 198.568" stroke="#231F20" stroke-miterlimit="10"/>
<path d="M72.0703 165.752C64.6503 162.705 57.9916 158.89 52.1929 154.006C47.4196 149.99 43.4459 145.373 40.0752 140.329C32.4214 128.884 26.3963 116.824 22.2188 104.049C21.9096 103.093 21.4874 102.552 20.2357 102.358C13.9694 101.389 8.72886 98.7769 4.7851 94.2937C1.85179 90.953 -0.101491 87.2715 0.00407822 82.9218C0.0417815 81.2715 0.592455 79.7482 1.53504 78.3251C1.8065 77.9108 2.12321 77.5968 2.85465 77.6168C3.28447 80.7237 4.57377 83.4965 7.60511 85.2871C10.3499 86.9107 13.4191 87.7993 16.9934 87.9262C16.2996 85.8216 15.7187 83.9039 15.0401 82.0198C12.6949 75.492 11.5563 68.8174 11.8504 61.9689C11.9861 58.7952 12.3784 55.6615 13.9318 52.7217C15.5531 49.6482 18.0639 47.4634 21.6382 46.214C25.22 44.9645 28.8622 43.989 32.6325 43.1739C38.9138 41.8175 44.4414 38.871 49.1468 34.8488C50.9867 33.2786 51.6049 31.1806 51.9819 29.0893C52.8038 24.4858 52.3287 19.9492 50.7451 15.4926C49.1842 11.1096 46.1833 9.88015 41.1838 10.2543C39.0951 10.4147 37.0514 10.996 34.9702 11.3167C29.8576 12.1118 28.4702 9.63289 29.0131 5.85786C29.2243 4.38126 30.0837 3.20546 31.4561 2.32351C32.5872 1.59523 33.794 1.00717 35.1664 0.726551C43.3254 -0.93045 50.9488 0.245519 57.9691 4.26776C59.8241 5.33011 61.2646 6.8334 62.2976 8.57726C64.1149 11.6441 65.2986 14.8578 65.3062 18.3856C65.3137 21.6929 65.0044 24.9735 64.6198 28.2541C64.2353 31.4879 64.3636 34.7084 64.7557 37.9289C65.1629 41.2028 66.9802 43.5947 70.4112 44.9644C71.7384 45.4923 73.0806 46.0001 74.4002 46.5347C77.507 47.7974 79.4828 49.7952 80.2369 52.8553C81.2398 56.8976 81.1868 60.9398 80.7796 65.0021C80.2894 69.9865 78.555 74.7371 77.2957 79.5811C77.1826 80.0221 77.1223 80.4831 76.9489 80.904C76.5794 81.786 77.0773 82.2269 77.8992 82.5543C80.1538 83.4496 82.3631 84.4719 84.678 85.2202C87.6038 86.169 90.5296 86.1691 93.2217 84.4586C94.3829 83.7236 95.205 82.7615 95.8233 81.6391C96.9167 79.6613 97.6105 77.5633 98.1157 75.4253C98.9527 75.4654 99.1487 75.9531 99.3297 76.4409C100.167 78.7126 100.197 81.0377 99.5484 83.3228C98.5907 86.6702 96.977 89.777 94.6469 92.5631C91.5025 96.3248 87.2042 98.4763 82.069 99.3115C79.5731 99.719 77.0772 100.334 74.4908 100.02C73.6689 99.9195 73.5103 100.267 73.4952 100.902C73.4273 104.977 73.4125 109.066 74.521 113.049C76.9415 121.701 79.8823 130.213 83.8411 138.425C86.5256 143.997 90.3033 148.961 94.6392 153.618C96.4791 155.596 97.9194 157.721 98.221 160.34C98.5151 162.866 97.5652 164.883 95.2578 166.427C92.0756 168.551 88.4182 168.852 84.6479 168.598C80.3271 168.311 76.2174 167.222 72.0475 165.765L72.0703 165.752Z" fill="#2B2A28"/>
<path d="M41.4773 100.97C44.4333 100.082 47.3668 99.5338 50.0438 98.2643C52.8187 96.9548 55.6238 95.7187 57.1923 92.9727C60.8571 95.6987 64.6423 97.8301 69.1064 99.1664C69.9283 100.195 69.6418 101.117 68.7746 101.672C67.2514 102.647 67.01 103.937 67.1004 105.42C67.1306 105.935 67.1307 106.456 67.0025 106.964C66.7914 107.805 66.3616 108.106 65.5397 107.398C64.959 106.897 64.3255 106.302 63.5035 107.024C62.7872 107.659 62.8325 108.44 63.3905 109.148C64.0692 109.997 64.793 109.696 65.6376 109.229C66.9271 108.52 67.3646 108.801 67.5154 110.431C67.9452 115.215 68.9102 119.906 70.8406 124.396C74.2188 132.253 78.2157 139.83 83.8184 146.671C84.1577 147.092 84.4441 147.56 84.8438 147.921C86.2388 149.184 85.9296 150.326 84.0746 151.636C85.7487 151.542 86.9402 150.152 87.9657 151.683C88.6595 152.725 88.2068 153.52 87.3773 154.422C85.1529 155.304 83.2375 154.469 81.3599 153.861C75.1012 151.823 70.298 148.028 65.9093 143.725C61.4528 139.362 57.3128 134.778 53.9798 129.687C51.1294 125.338 48.7843 120.734 46.8464 116.01C45.1573 111.888 43.4454 107.772 41.6659 103.683C41.3039 102.841 40.829 102.006 41.4851 100.977L41.4773 100.97Z" fill="#679441"/>
<path d="M73.6456 79.4727C70.9989 78.7377 68.4729 77.956 65.7206 77.9292C62.365 77.9025 59.831 79.0851 58.2249 81.731C58.0891 81.9514 57.9234 82.1587 57.6821 82.5128C56.2193 81.5039 54.7262 80.6553 53.1125 79.9604C49.5457 78.4237 45.9866 78.3635 42.4274 79.9404C39.8938 81.0629 37.3978 82.2388 34.7285 83.4281C34.2836 83.241 34.11 82.9537 34.0421 82.633C32.6924 75.9048 31.0561 69.2033 32.1872 62.288C32.6999 59.1678 34.1024 56.4551 36.621 54.2703C38.3704 52.7536 39.7656 50.8561 42.2993 49.9407C43.5209 49.8872 44.516 50.0409 45.451 50.4284C46.8234 50.9964 47.1326 51.6979 46.552 52.9139C46.3559 53.3282 46.092 53.7157 45.8432 54.1099C45.3757 54.8582 45.5869 55.4795 46.2957 55.9873C46.9216 56.4349 47.4493 56.1944 48.0601 55.847C51.3478 53.9561 54.8014 52.2858 57.6442 49.8404C58.632 48.9918 59.7483 49.1456 60.902 49.3995C63.4508 49.9674 65.8335 50.9429 68.1787 51.9451C70.6068 52.9808 73.0197 53.6822 75.7042 52.8203C75.8852 52.7601 76.1265 52.8737 76.4583 53.0007C77.2953 53.749 77.3858 54.591 77.4462 55.4261C77.514 56.4417 77.0916 57.0697 75.6136 56.7022C74.6334 55.8871 74.3093 54.8982 73.7815 54.0163C73.6382 53.7958 73.4271 54.1432 73.6534 53.9828C74.2943 54.7445 74.5127 55.7001 75.2215 56.6088C75.9454 58.2324 76.0208 59.7824 75.9303 61.3325C75.5759 67.3725 75.35 73.4327 73.6232 79.4861L73.6456 79.4727Z" fill="#679441"/>
<path d="M93.7182 163.96C93.4769 164.514 92.9942 164.594 92.4815 164.822C89.5104 164.427 86.6978 165.075 83.8701 164.962C82.5429 164.908 81.2308 164.868 80.243 163.906C79.9866 163.652 79.6776 163.512 79.278 163.539C76.865 163.692 74.9268 162.563 72.9888 161.581C64.6715 157.358 57.6662 151.813 51.498 145.285C44.9376 138.343 39.7496 130.706 35.0367 122.708C31.7414 117.116 29.4415 111.203 26.7721 105.403C26.4479 104.688 26.1011 103.953 26.4857 103.031C28.9666 102.731 31.3719 102.784 33.9207 102.363C35.7606 103.98 36.7109 105.971 37.5253 107.942C40.0665 114.089 43.5578 119.815 46.936 125.608C51.5358 133.499 57.5532 140.401 64.7847 146.521C71.2093 151.953 78.863 155.407 87.316 157.585C88.6658 157.933 90.0836 157.646 91.5993 157.98C93.7408 159.603 94.0574 161.614 93.7105 163.96H93.7182Z" fill="#3E5B2D"/>
<path d="M65.1542 43.4702C66.9715 44.9936 68.8564 46.2297 70.8999 47.2253C72.4684 47.9936 73.7654 48.9757 74.8739 50.3187C73.6825 51.3076 72.4384 51.1406 71.0962 50.5994C68.2458 49.4502 65.433 48.2008 62.4167 47.399C61.5797 47.1785 60.7505 46.9447 59.8607 46.9046C58.4808 46.8378 57.3042 47.1383 56.241 47.9668C54.2201 49.537 52.2594 51.1874 49.9294 52.2564C49.5599 52.2297 49.4092 52.0961 49.3715 51.8956C48.9191 49.1629 46.6795 48.1472 44.0176 47.8065C42.3511 47.5927 40.9637 47.1652 39.7572 46.1028C39.1012 45.5282 38.2115 45.154 37.4273 44.693C37.3594 44.085 37.9624 44.1652 38.3017 44.0449C43.3615 42.3077 47.5768 39.468 51.3546 36.0939C53.5716 34.1162 54.3255 31.4771 54.6272 28.8446C55.1701 24.1943 54.9591 19.5574 53.3153 15.0341C52.3652 12.4283 50.9777 10.1097 48.067 8.88031C45.0508 7.61084 41.8684 7.65098 38.6637 8.27236C38.5958 8.28572 38.5281 8.31919 38.4527 8.33255C37.6006 8.47286 36.726 9.0607 35.9342 8.6999C35.1349 8.3391 35.587 7.41043 35.4136 6.74228C35.1271 5.65988 34.358 4.79808 33.7773 3.84263C34.6445 3.00077 35.7834 2.90044 36.8164 2.73341C43.2863 1.67774 49.4318 2.41267 55.1853 5.37924C57.7416 6.69548 59.5664 8.5329 60.7805 10.9048C62.1906 13.6643 62.7788 16.5306 62.7109 19.564C62.6204 23.3189 62.1528 27.0405 61.8814 30.7755C61.625 34.2966 62.2961 37.7243 63.4046 41.0851C63.6911 41.9603 64.3548 42.6818 65.1616 43.4502L65.1542 43.4702Z" fill="#679441"/>
<path d="M91.8042 158.04C87.8077 158.841 84.324 157.305 80.8176 156.149C77.8466 155.167 75.0488 153.77 72.3116 152.307C69.8081 150.971 67.5231 149.387 65.374 147.67C61.3171 144.43 57.7429 140.761 54.2817 137.033C52.2533 134.855 50.5569 132.423 49.0714 129.918C47.141 126.664 44.8333 123.597 43.1291 120.236C41.078 116.194 38.5824 112.332 37.0517 108.069C36.373 106.185 35.1513 104.448 34.1484 102.504C36.5011 101.849 38.869 101.341 41.4177 100.84C41.3348 102.691 42.4505 104.241 43.1593 105.817C44.3809 108.51 45.5723 111.209 46.5828 113.969C47.8873 117.53 49.8556 120.844 51.4768 124.285C53.3469 128.254 56.0916 131.722 58.7535 135.256C60.4426 137.508 62.5011 139.519 64.522 141.537C66.2111 143.22 67.7569 145.038 69.7099 146.501C71.8062 148.084 73.6612 149.969 76.1496 151.084C79.4977 152.594 82.7552 154.398 86.9101 154.405C87.5209 154.492 87.8756 154.853 88.2828 154.833C90.7712 154.692 91.3668 156.229 91.8042 158.04Z" fill="#4E6F36"/>
<path d="M54.2961 83.3486C54.1981 83.9098 54.0172 84.3306 53.8664 84.7583C53.414 86.0678 53.4894 86.5222 54.7788 87.1503C55.563 87.5378 55.4651 87.8652 55.4047 88.5066C55.1936 90.6246 53.7686 91.9008 51.7854 92.6959C50.4959 93.2104 50.0282 94.3329 48.965 95.0344C45.7451 97.1458 42.2766 98.6557 38.3554 99.2704C34.2533 99.9185 30.1434 99.7448 26.0036 99.3707C22.6857 99.07 19.4662 98.2949 16.1407 98.0076C14.4215 97.8606 12.6116 97.3928 10.8998 96.885C10.4926 96.7648 10.0479 96.6179 9.73117 96.3707C7.22014 94.373 5.18397 92.1012 4.25647 89.1346C4.00009 88.3195 4.09832 87.7449 4.84485 87.2839C5.62154 86.8095 6.35276 86.8028 7.25764 87.2705C9.76867 88.5667 12.453 89.4954 15.605 89.6157C15.8086 90.8852 14.3384 91.4129 14.1046 92.4018C18.1162 95.4218 22.8667 93.5577 26.7878 94.0454C26.8029 94.0454 26.2978 94.1524 25.5286 93.5043C30.9805 92.0144 36.5379 91.2727 41.2885 88.3463C41.5977 88.1859 41.7713 88.0923 42.0805 87.9453C42.3972 87.8184 42.5858 87.7783 42.9251 87.7917C43.2418 87.8986 43.3248 88.0187 43.3022 88.1991C43.3474 88.0388 43.332 87.8785 43.332 87.6046C44.2519 86.315 45.3454 85.6067 47.0195 85.3729C48.9348 85.099 50.5786 84.2571 50.7596 82.0857C51.4005 81.7449 51.9284 81.7583 52.6297 81.9788C53.4742 82.2194 53.7383 82.8207 54.2887 83.3419L54.2961 83.3486Z" fill="#3F483D"/>
<path d="M23.0859 48.8739C26.8034 47.6312 30.2869 46.0744 34.2986 46.502C35.1054 46.5888 35.8822 46.6289 36.7117 47.1233C36.6514 48.2057 35.7765 48.7536 35.0526 49.3617C32.9789 51.1055 31.2296 53.0631 29.6309 55.1611C28.334 56.8649 27.4142 58.6422 27.1578 60.6733C26.7053 64.2613 26.0041 67.8493 26.0418 71.4506C26.087 75.3793 26.4942 79.308 27.3916 83.1766C27.6253 84.1788 27.9647 85.201 27.2484 86.3302C25.416 87.0384 23.6287 87.3925 21.6304 87.6464C20.6501 87.1052 20.2883 86.3235 20.0545 85.5084C17.3625 75.9272 16.1862 66.2658 18.3277 56.4574C18.9687 53.5377 20.3411 50.9652 23.0708 48.8739H23.0859Z" fill="#3E5B2D"/>
<path d="M27.287 86.4581C27.2719 83.9325 26.2238 81.5405 26.0127 79.055C25.9901 78.8011 25.824 78.5473 25.8466 78.3067C26.0879 75.8546 25.1607 73.4559 25.3794 71.0105C25.5754 68.7789 25.8695 66.5606 26.1334 64.3357C26.3747 62.2979 26.5105 60.2601 27.0911 58.2557C27.257 57.6878 27.4606 57.1465 27.7999 56.652C30.2054 53.1777 33.0181 50.004 36.6903 47.3047C37.5047 47.3381 37.987 47.7323 38.447 48.1466C39.4952 49.0886 40.7322 49.6834 42.3609 49.8771C40.1364 51.7078 37.9192 53.6053 35.9812 55.6766C34.179 57.6008 33.1082 59.9059 32.7613 62.5117C32.4748 64.6364 32.2337 66.7544 32.4373 68.8524C32.7691 72.2933 33.1459 75.7344 33.9075 79.1352C34.2016 80.4515 34.6164 81.761 34.5787 83.2911C32.7162 84.467 30.899 85.5227 28.6368 86.104C28.403 86.1708 28.3277 86.2243 28.1316 86.3312C27.8149 86.4114 27.6263 86.4381 27.287 86.4648V86.4581Z" fill="#4E6F36"/>
<path d="M91.8641 158.283C91.4796 157.608 91.2305 157.02 90.8836 156.472C90.4312 155.757 90.2049 154.755 88.7496 155.43C88.1463 155.711 87.5886 155.156 87.1663 154.528C87.1362 154.287 87.1662 154.16 87.2341 154.047C87.8876 153.018 87.6413 151.98 86.4951 150.933C86.382 151.922 85.9446 152.624 84.7834 152.47C84.1349 152.383 83.7126 151.969 83.6976 151.414C83.6749 150.278 84.6177 150.085 85.7186 150.065C75.9761 137.584 67.8923 124.588 66.829 108.98C66.075 109.027 66.0826 109.609 65.7583 109.869C64.7705 110.678 63.7524 110.637 62.9681 109.689C62.4328 109.034 62.2518 108.286 62.463 107.49C62.644 106.809 63.1416 106.348 63.8805 106.134C64.7025 105.9 65.2832 106.261 65.7281 106.836C65.9242 107.09 66.0978 107.357 66.6181 107.617C66.6181 106.455 66.5274 105.286 66.6405 104.13C66.7536 103.034 66.5954 101.791 68.4428 101.444C69.3326 101.277 69.0007 100.234 69.2043 99.4192C70.0564 99.192 70.5767 99.3324 70.5541 100.281C70.5088 102.346 70.5315 104.417 70.6296 106.482C70.8482 111.032 72.0621 115.408 73.4949 119.758C75.4931 125.838 77.6724 131.851 80.3267 137.731C83.1997 144.085 87.332 149.764 92.1731 155.062C93.1835 156.171 94.1943 157.287 94.7523 158.637C95.5365 160.528 95.8983 162.412 93.8473 164.069C93.6135 162.091 93.2816 160.12 91.8564 158.283H91.8641Z" fill="#EDF0E9"/>
<path d="M26.4182 102.9C26.5615 103.715 26.8554 104.45 27.1645 105.165C28.8084 108.946 30.324 112.788 32.2092 116.483C34.7277 121.407 37.5935 126.178 40.5871 130.895C43.1585 134.951 46.1293 138.759 49.4396 142.347C53.2476 146.476 57.0786 150.592 61.7764 154.033C65.2602 156.592 68.9172 158.877 72.7479 160.982C74.3767 161.877 76.141 162.445 77.8603 163.14C77.9281 163.166 78.0036 163.18 78.0639 163.213C78.9763 163.748 79.3837 162.291 80.1755 162.745C80.7712 163.093 80.5074 164.022 81.5706 164.269C83.4557 164.696 85.3859 164.71 87.2032 164.436C88.9225 164.175 90.4911 164.202 92.2254 164.757C90.9963 165.719 89.4653 166.019 87.8214 165.993C86.4415 165.973 85.0693 165.939 83.4933 165.906C83.0333 165.892 82.7844 165.832 82.4149 165.745C77.4305 164.984 72.906 163.427 68.5928 161.322C63.1334 158.656 58.0435 155.509 53.6172 151.634C49.3039 147.859 45.6543 143.596 42.5098 138.959C35.8665 129.158 30.8594 118.715 26.5688 107.978C26.0334 106.641 25.6793 105.251 25.1741 103.902C24.797 102.893 25.3776 102.786 26.4182 102.9Z" fill="#758F55"/>
<path d="M86.6626 87.1163C87.0773 87.1631 87.3864 87.2032 87.8463 87.2633C88.4873 88.5461 89.8369 88.6998 91.0736 89.2343C91.1565 89.4481 91.1565 89.5417 91.0585 89.7621C89.294 90.4971 88.3214 91.9203 86.7303 92.6753C80.6978 95.555 74.62 93.9314 68.5422 92.9425C67.9767 92.849 67.4864 92.5149 66.7399 92.3946C66.1442 92.2476 65.7447 92.0739 65.2697 91.7331C64.7946 90.4637 65.5862 90.0896 66.5816 89.7889C66.2045 89.3212 64.5457 89.2611 65.6014 87.9716C65.8804 87.6308 65.4581 87.3969 65.1489 87.2365C63.5654 86.3947 63.6334 85.1318 64.1537 83.8557C64.4327 83.1675 64.5005 82.4861 64.6287 81.6442C67.0492 80.4015 69.2058 80.8157 71.3398 82.2923C71.8299 82.9404 72.2597 83.3814 73.24 83.1074C74.7406 83.1475 75.6152 83.9761 76.5578 84.671C79.1669 86.6019 82.1681 87.2699 85.667 86.8757C85.9083 86.8557 85.9914 86.8424 86.195 86.8291C86.3533 86.9627 86.4362 87.0562 86.67 87.1163H86.6626Z" fill="#586159"/>
<path d="M43.415 87.9323C43.1436 88.0392 42.955 88.0391 42.6157 88.0458C42.3668 88.126 42.2611 88.2061 42.1028 88.3665C37.3823 91.5335 31.8779 92.6094 26.3355 93.6851C26.7427 94.0926 27.4965 93.6316 27.949 94.0191C28.0244 94.126 27.9565 94.1994 27.7605 94.2328C24.6009 94.7473 21.4039 94.6271 18.2142 94.6405C17.1812 94.6405 16.231 94.6671 15.5448 93.7183C15.017 92.9901 13.7878 93.1772 13.0488 92.5625C13.4032 92.195 14.24 92.0814 14.1571 91.5603C13.9761 90.4177 15.2281 90.4645 15.7484 89.7697C17.9428 90.2307 20.0542 89.6895 22.1731 89.4155C23.5153 89.2418 24.8421 88.9746 26.3503 88.7741C32.79 88.2998 37.7971 84.9524 43.4073 82.9613C45.6846 82.1528 47.9544 81.1907 50.6464 82.086C50.8425 82.5671 50.8351 82.968 50.9859 83.3154C51.2573 83.9368 50.9254 84.3777 50.4126 84.5982C49.0704 85.1595 47.8337 85.9946 46.2803 86.0748C45.4735 86.1149 44.742 86.0481 44.6816 87.0971C44.6665 87.3577 43.9052 87.5848 43.415 87.9256V87.9323Z" fill="#586159"/>
<path d="M23.0413 48.7879C23.0715 50.0841 21.714 50.7524 20.9901 51.7546C19.3236 54.0664 18.8865 56.6454 18.3737 59.2245C17.6196 62.9861 17.7703 66.8012 17.9889 70.5762C18.2227 74.5985 18.8561 78.6006 19.8439 82.5494C20.2511 84.1796 20.734 85.79 21.4352 87.4937C20.5304 87.8412 19.8969 87.6139 19.6933 86.7052C19.6104 86.331 19.4367 85.9636 19.2784 85.4559C19.0521 85.1485 19.0522 84.9213 18.9617 84.614C17.7175 80.6586 16.1641 76.8702 15.5382 72.8947C14.6484 67.2489 14.1734 61.5764 15.7116 55.9506C16.6618 52.4762 18.7354 49.8102 23.0487 48.7812L23.0413 48.7879Z" fill="#758F55"/>
<path d="M65.1312 91.4345C65.5611 91.635 65.9079 91.7418 66.3905 91.8888C68.5848 93.6527 71.1562 93.8533 73.7879 93.86C75.9445 93.86 78.0031 94.3944 80.2125 94.3944C84.7746 94.3944 88.0625 92.7107 90.9657 89.7107C91.0788 89.6105 91.0785 89.5905 91.0861 89.5971C91.991 88.8221 90.8524 88.2208 90.958 87.4123C91.335 87.272 91.6217 87.2519 91.9083 87.2051C92.504 87.1049 93.1222 86.5972 93.6727 87.2854C94.1703 87.9134 94.2382 88.5549 93.8763 89.2898C93.3786 90.3188 92.6171 91.214 91.7047 91.9089C89.3067 93.753 86.9163 95.6774 83.5381 96.0315C83.3948 96.0448 83.2438 96.1584 83.1231 96.1316C80.9288 95.6038 78.6892 96.5726 76.4949 95.978C75.1752 95.6239 73.7805 95.7442 72.4156 95.5304C69.6105 95.0961 66.9637 94.2676 64.2792 93.5192C63.857 93.399 63.3895 93.3053 63.2236 92.9178C62.2735 90.7263 60.3203 88.8623 60.4183 86.3367C60.4485 85.6485 59.815 85.3478 59.5586 84.6864C60.2523 83.8044 60.9988 83.1162 62.3561 83.1496C62.982 83.4837 63.118 83.9446 63.0351 84.3856C62.6656 86.3432 63.2312 88.2008 63.8043 90.1651C63.9475 90.3255 64.0079 90.3856 64.1813 90.526C64.5885 90.8133 64.8598 91.0403 65.1312 91.4412V91.4345Z" fill="#3F483D"/>
<path d="M75.0781 56.0307C76.8878 56.739 77.0991 56.6388 77.0689 55.2223C77.0538 54.5942 76.8728 53.9996 76.6164 53.258C77.4157 53.111 77.431 53.6788 77.5516 54.1733C78.185 56.8993 78.268 59.6521 78.1172 62.4316C77.8834 66.7011 76.7521 70.8235 75.6134 74.946C75.2213 76.3825 74.7993 77.8123 74.4072 79.2488C74.3167 79.5895 74.1959 79.8567 73.6152 79.7031C74.5427 73.623 75.0406 67.5897 75.4779 61.563C75.5986 59.8325 75.3196 58.0953 74.6937 56.2446C74.7238 56.0642 74.8292 56.0441 75.0932 56.0441L75.0781 56.0307Z" fill="#EDF0E9"/>
<path d="M50.957 82.199C48.6269 81.9318 46.5833 82.2725 44.6303 83.0342C41.7874 84.15 38.9372 85.2191 36.2225 86.5888C33.3948 88.0186 30.3634 89.1211 26.7363 88.7937C28.0107 87.7247 29.8885 87.3706 31.5851 86.6891C35.7249 85.0321 39.5931 82.8473 44.0647 81.4976C44.3136 81.3306 44.4416 81.2436 44.698 81.1835C45.0977 81.15 45.3844 81.11 45.8067 81.0298C46.0781 80.9162 46.2062 80.8428 46.455 80.8027C48.6946 80.6357 50.7911 80.6156 52.8421 81.7381C53.0307 81.8917 53.0835 81.9719 53.0608 82.1857C52.3671 82.2725 51.7561 82.2391 50.9492 82.2057L50.957 82.199Z" fill="#818A8C"/>
<path d="M62.7263 83.2477C61.4745 83.3346 60.894 84.3369 59.6875 84.4973C58.9184 83.6287 59.7023 83.1141 60.2829 82.5997C62.1304 80.9493 64.2647 79.887 67.2131 80.2879C67.6127 80.4549 67.869 80.4684 68.2536 80.5084C69.1057 80.6955 69.837 80.8758 70.7117 81.0963C70.9605 81.1765 71.0512 81.21 71.2699 81.3302C71.8505 81.5841 72.3029 81.7512 72.891 81.9783C73.1248 82.0318 73.2305 82.0251 73.3888 82.1454C74.2409 82.6532 75.04 83.034 75.9599 83.4883C76.1862 83.5685 76.292 83.5684 76.4504 83.6953C77.8152 84.4504 79.0366 85.2456 80.7181 85.4928C80.9821 85.5195 81.0876 85.5128 81.2988 85.613C82.5807 85.9872 83.7571 86.2544 85.0993 86.5417C85.416 86.5751 85.5365 86.6286 85.7326 86.7689C85.8306 86.8023 85.8081 86.8358 85.8081 86.8558C84.9334 87.6242 83.9382 87.6041 82.7845 87.4705C79.7908 87.1364 77.2497 86.0941 75.1459 84.1832C74.6783 83.7623 74.0598 83.5484 73.2832 83.3613C72.5065 83.7755 72.039 83.3881 71.4735 82.9739C69.5808 81.1832 67.3563 81.2366 64.9358 81.7712C64.2948 82.4727 63.5859 82.8402 62.7263 83.2411V83.2477Z" fill="#818A8C"/>
<path d="M33.6957 7.40896C33.6957 7.89003 33.756 8.2242 33.6655 8.51819C33.4318 9.23979 32.6853 9.43353 32.0142 8.99923C31.1093 8.41127 30.6643 5.93237 31.3278 5.07714C31.72 4.57603 32.1799 4.68958 32.6022 5.03701C33.3185 5.63166 33.6729 6.38002 33.7031 7.40896H33.6957Z" fill="#3E5B2D"/>
<path d="M90.8624 87.2897C91.1112 87.5503 91.2015 87.7707 91.4504 87.9378C92.2044 88.4456 92.1366 88.9912 91.2468 89.5747C90.6963 89.1137 90.1008 89.1471 89.5578 89.2005C88.1251 89.3408 87.8911 88.6193 87.9967 87.4434C88.8865 87.283 89.7763 87.2763 90.8546 87.2897H90.8624Z" fill="#50584D"/>
<path d="M53.0447 82.4252C52.9844 82.2315 52.9766 82.1446 52.9766 81.9375C53.9267 81.9642 54.6506 82.2916 54.4545 83.394C53.7231 83.3873 53.3687 83.0065 53.0369 82.4252H53.0447Z" fill="#586159"/>
<path d="M82.3926 165.77C82.5585 165.703 82.8222 165.723 83.1842 165.817C83.0183 165.984 82.747 165.997 82.3926 165.77Z" fill="#3F483D"/>
<path d="M18.8851 84.625C19.0208 84.7052 19.1341 84.8922 19.2397 85.1995C18.9984 85.1728 18.8776 84.9858 18.8851 84.625Z" fill="#50584D"/>
<path d="M68.2784 80.4425C68.105 80.6229 67.841 80.6229 67.4941 80.3957C67.66 80.3222 67.9164 80.3423 68.2784 80.4425Z" fill="#586159"/>
<path d="M86.7003 87.0587C86.7606 87.1255 86.5493 87.1256 86.5493 87.1256C86.5493 87.1256 86.3834 87.012 86.3457 86.9318C86.4362 86.8716 86.5419 86.9184 86.7003 87.0654V87.0587Z" fill="#3F483D"/>
<path d="M85.7797 86.7162C85.7043 86.7697 85.5686 86.743 85.3574 86.6361C85.4328 86.5827 85.5761 86.6093 85.7797 86.7162Z" fill="#3F483D"/>
<path d="M28.1013 86.3693C28.0712 86.2758 28.1618 86.1957 28.3804 86.1289C28.4181 86.2224 28.3276 86.3092 28.1013 86.3693Z" fill="#3E5B2D"/>
<path d="M81.3604 85.6351C81.2775 85.742 81.1495 85.7219 80.9609 85.5883C81.0288 85.5348 81.1644 85.5415 81.3604 85.6351Z" fill="#50584D"/>
<path d="M76.4968 83.7393C76.3912 83.8195 76.2859 83.7795 76.1426 83.6325C76.2406 83.4989 76.3686 83.5255 76.4968 83.7393Z" fill="#586159"/>
<path d="M73.4269 82.1846C73.3289 82.2714 73.2234 82.2314 73.0801 82.0978C73.1706 81.9575 73.2987 81.9775 73.4269 82.1846Z" fill="#586159"/>
<path d="M71.3384 81.3242C71.2328 81.4378 71.0973 81.4043 70.9238 81.2239C71.0068 81.1704 71.1424 81.2039 71.3384 81.3242Z" fill="#586159"/>
<path d="M44.6974 81.1758C44.6974 81.2693 44.5694 81.3494 44.3281 81.4296C44.3281 81.3427 44.4561 81.2493 44.6974 81.1758Z" fill="#3F483D"/>
<path d="M46.4546 80.8047C46.4395 80.8982 46.3038 80.9584 46.0625 81.0119C46.0776 80.925 46.2058 80.8515 46.4546 80.8047Z" fill="#3F483D"/>
<path d="M66.4138 128.656C66.0519 128.435 65.7879 128.288 65.6447 128.081C65.2978 127.58 65.3956 127.079 65.8405 126.671C66.293 126.25 66.8737 126.204 67.4392 126.471C68.0048 126.738 68.3442 127.246 68.0954 127.754C67.6882 128.582 67.7937 129.023 68.8494 129.277C69.3396 129.391 69.7543 129.905 69.5733 130.339C69.1586 131.322 69.4676 131.676 70.5836 132.01C71.7374 132.351 72.2277 133.613 71.7527 134.395C71.3379 135.077 70.6363 135.404 69.7541 135.277C68.6155 135.11 67.6126 134.014 67.9444 133.005C68.231 132.143 68.314 131.709 67.2507 131.262C66.5494 130.968 66.5647 130.206 67.0548 129.571C67.2811 129.277 67.8086 129.21 67.8538 128.776C67.4089 128.469 66.9718 128.836 66.4138 128.656Z" fill="#EDF0E9"/>
<path d="M67.3501 122.619C67.599 123.013 67.8329 123.287 67.8932 123.581C68.1119 124.663 67.7499 125.391 66.8601 125.639C65.925 125.899 65.1561 125.619 64.5905 124.924C63.9722 124.169 63.9571 123.02 64.5905 122.432C65.2918 121.784 66.0908 121.743 66.9127 122.265C67.0258 122.338 67.1316 122.432 67.3428 122.619H67.3501Z" fill="#EDF0E9"/>
<path d="M77.0321 143.089C78.3592 142.528 79.1434 143.023 79.6109 143.924C79.9729 144.619 79.7992 145.341 79.0376 145.789C78.276 146.236 77.4993 146.076 76.8885 145.508C76.0665 144.746 75.9837 143.945 77.0243 143.089H77.0321Z" fill="#EDF0E9"/>
<path d="M65.9478 116.964C66.1137 117.492 66.0158 117.866 65.6916 118.153C65.1864 118.601 64.6132 118.762 63.9496 118.374C63.2861 117.986 63.1957 117.439 63.4747 116.871C63.7688 116.276 64.3493 116.062 65.0807 116.249C65.4502 116.343 65.699 116.563 65.9478 116.971V116.964Z" fill="#EDF0E9"/>
<path d="M80.1631 146.328C81.4601 146.742 82.0934 147.705 82.9455 148.453C83.2095 148.687 83.2924 149.028 82.9606 149.288C82.8249 149.395 82.5005 149.482 82.3874 149.415C81.2864 148.734 80.1706 148.039 79.7106 146.843C79.6653 146.729 79.9065 146.529 80.1705 146.328H80.1631Z" fill="#EDF0E9"/>
<path d="M63.1119 112.846C63.0667 112.178 63.3609 111.918 63.9868 112.091C64.2959 112.178 64.409 112.472 64.3034 112.693C64.0772 113.161 63.7078 113.374 63.1197 112.84L63.1119 112.846Z" fill="#EDF0E9"/>
<path d="M50.9712 62.9802C47.2009 61.223 43.5886 61.2966 39.954 62.9068C39.3508 63.1741 38.6723 63.9023 38.0162 63.3745C37.2999 62.7932 38.0161 62.0316 38.2876 61.4236C39.3357 59.0583 42.4575 57.3546 45.421 57.4281C48.1356 57.4949 51.235 59.4257 52.2153 61.6573C52.6376 62.6195 52.5472 62.7397 50.9712 62.9869V62.9802Z" fill="#2B2A28"/>
<path d="M48.7083 71.6502C48.467 72.9799 47.8939 74.0088 46.9211 74.8239C45.4507 76.0533 43.6184 75.8595 42.442 74.3962C40.5946 72.0911 40.8658 67.4742 42.9696 65.3361C44.523 63.7526 46.0917 63.8195 47.909 65.6702C47.9316 65.8773 47.8788 65.9576 47.6903 66.0979C46.4612 66.2249 45.1187 65.8707 44.8548 67.3606C44.6738 68.3695 44.4778 69.4453 45.4053 70.2404C46.5741 71.2493 47.2604 69.766 48.3991 69.7259C48.9872 70.3072 48.7308 70.922 48.7006 71.6502H48.7083Z" fill="#2B2A28"/>
<path d="M70.6065 72.0372C70.4104 73.3066 69.8597 74.2822 69 75.0906C67.5749 76.4336 65.7654 76.3 64.5891 74.7766C63.654 73.5673 63.4202 72.1775 63.4429 70.7343C63.473 69.0372 63.7594 67.4002 64.9433 66.0038C66.3006 64.3936 67.658 64.3001 69.6035 65.7299C69.7694 66.0372 69.7466 66.211 69.4526 66.4382C68.4723 66.6186 67.5147 66.5116 67.0622 67.3936C66.5495 68.3891 66.3383 69.4716 67.2055 70.3135C68.4647 71.5362 69.166 69.859 70.3348 69.7455C70.8852 70.4671 70.6291 71.1886 70.6065 72.0372Z" fill="#2B2A28"/>
<path d="M64.8161 59.216C68.5713 57.6593 72.6658 59.2226 73.7743 62.4899C73.91 62.8908 73.9705 63.2583 73.5331 63.5255C73.2013 63.726 72.8393 63.6658 72.5 63.4988C72.4396 63.4654 72.3718 63.4387 72.3114 63.3986C69.2499 61.0534 66.0075 61.5345 62.7122 62.931C62.3352 63.0913 61.9281 63.4119 61.5586 62.9843C61.3098 62.697 61.5435 62.3697 61.6868 62.0757C62.29 60.8196 63.5719 60.1381 64.8161 59.216Z" fill="#2B2A28"/>
<path d="M65.3739 53.4338C66.3768 53.828 67.2442 54.1487 68.0812 54.5228C68.3979 54.6631 68.6996 54.9103 68.4885 55.2911C68.315 55.6118 67.9529 55.7656 67.5834 55.6653C66.7615 55.4315 65.9471 55.1709 65.1629 54.8502C63.5191 54.1821 61.9808 53.3403 60.5255 52.3848C60.058 52.0775 59.5076 51.7166 60.0203 51.142C60.4728 50.6275 60.9175 51.0685 61.3322 51.289C62.6292 51.9838 63.9263 52.6788 65.3665 53.4338H65.3739Z" fill="#EDF0E9"/>
<path d="M48.7543 71.6579C48.5055 71.1902 48.7767 70.5486 48.279 69.8805C47.2761 68.7647 47.5854 67.5487 47.5176 66.2592C47.6382 66.0454 47.691 65.9785 47.8644 65.8516C48.6185 66.2591 49.0031 66.8605 49.0106 67.5821C49.0257 68.8984 49.2292 70.2214 48.7466 71.6579H48.7543Z" fill="#3F483D"/>
<path d="M70.6531 72.0505C70.3816 71.4558 70.7135 70.6808 70.163 69.879C69.3561 69.1374 69.477 68.3691 69.6505 67.447C69.7787 67.1998 69.8464 67.1063 70.0952 66.9727C71.3847 68.5161 70.9698 70.2264 70.6531 72.0505Z" fill="#3F483D"/>
<path d="M58.9426 53.9923C58.7918 54.2462 58.6711 54.4266 58.4901 54.4934C57.9472 54.7005 57.4724 54.607 57.4271 54.0124C57.397 53.5179 57.8793 53.4312 58.3167 53.4378C58.6108 53.4378 58.8372 53.5981 58.9353 53.9856L58.9426 53.9923Z" fill="#EDF0E9"/>
<path d="M61.219 54.4102C61.7997 54.8645 61.7923 55.2253 61.1513 55.4525C60.8949 55.546 60.5328 55.5059 60.4197 55.252C60.1784 54.7108 60.4951 54.4369 61.219 54.4168V54.4102Z" fill="#EDF0E9"/>
<path d="M75.185 55.9296C75.1322 56.0565 75.0343 56.0832 74.7704 56.0832C74.2049 55.3416 73.7748 54.6199 73.541 53.3438C74.5741 54.2524 74.5139 55.2213 75.185 55.9296Z" fill="#818A8C"/>
<path d="M69.123 66.437C69.304 66.2231 69.4322 66.1363 69.6282 65.9492C70.0279 66.0494 70.1109 66.3769 70.239 66.8112C70.2089 66.9782 70.1409 67.025 69.9751 67.1452C69.4321 67.1653 69.1834 66.9314 69.123 66.437Z" fill="#3F483D"/>
<path d="M78.5563 160.386C78.6543 160.907 78.3753 161.008 77.9757 160.901C77.757 160.847 77.6135 160.647 77.719 160.473C77.8698 160.226 78.1642 160.212 78.5563 160.386Z" fill="#679441"/>
<path d="M43.332 88.0352C43.3848 88.0886 43.4378 88.1487 43.4981 88.2022C43.4604 88.1821 43.4227 88.1622 43.3549 88.0887C43.3322 88.0352 43.332 88.0352 43.332 88.0352Z" fill="#50584D"/>
<path d="M42.1273 88.3894C42.067 88.3025 42.1421 88.1956 42.3759 88.082C42.4286 88.1689 42.346 88.2691 42.1273 88.3894Z" fill="#50584D"/>
<path d="M90.9298 89.6172C91.0806 89.7375 91.1109 89.8778 91.0656 89.9914C90.6207 91.1406 87.5216 93.7931 86.2699 93.7998C84.8371 93.8065 83.9624 95.1026 82.6579 94.9423C81.4212 94.7886 80.2901 94.7084 79.0308 94.9289C77.8921 95.136 76.5724 95.3699 75.5016 94.4746C75.1095 94.1405 74.5289 94.2608 74.0237 94.2541C73.2922 94.2407 72.5684 94.2474 71.837 94.2541C69.7256 94.2741 67.7874 93.9467 66.5508 92.0625C67.1239 91.8821 67.6592 92.0425 68.2021 92.2697C70.4115 93.1717 72.787 93.3855 75.185 93.4791C76.9193 93.5459 78.6538 93.3722 80.3806 93.7998C81.2478 94.0136 82.2655 94.027 83.1704 93.6595C84.7464 93.0248 86.2396 92.2431 87.8759 91.7019C88.7205 91.4213 87.6421 91.2408 87.5667 90.8466C88.6601 90.566 89.7536 90.1584 90.9375 89.6239L90.9298 89.6172Z" fill="#50584D"/>
<path d="M62.5843 83.4486C62.8935 82.453 63.7607 82.2392 64.6731 81.8984C65.2009 82.5599 65.4647 83.1881 64.7408 83.8428C64.0924 84.4241 64.3565 85.1857 64.4017 85.8739C64.4545 86.7157 65.2384 86.796 65.9699 86.943C66.5354 87.0566 66.8145 87.5042 66.7994 87.9653C66.7768 88.6334 65.9397 88.2525 65.6079 88.5665C65.6984 88.9206 66.1132 89.0008 66.362 89.2213C66.5656 89.4017 66.807 89.542 67.0332 89.709C66.43 90.2302 65.6232 90.5576 65.2537 91.4128C64.839 91.3527 64.4543 91.1656 63.9868 90.8716C63.6475 90.4707 62.5768 90.6712 63.165 89.8093C63.2781 89.649 63.165 89.3015 63.0519 89.0944C62.1244 87.5109 62.3202 85.854 62.6068 84.1836C62.6369 83.9965 62.6068 83.8027 62.6068 83.4486H62.5843Z" fill="#50584D"/>
<path d="M71.4062 82.9844C71.8813 82.9911 72.3566 83.1514 72.9825 83.3318C72.4622 83.8663 71.8436 84.02 71.4062 82.9844Z" fill="#50584D"/>
<path d="M47.4423 66.033C48.2039 67.1689 48.3472 68.2915 48.136 69.6278C47.8947 70.1088 47.7062 70.4829 47.397 70.7368C46.4243 71.5319 45.3461 71.3982 44.675 70.3693C43.8983 69.1733 43.9059 67.8906 44.5318 66.6478C45.1124 65.492 45.7683 65.3582 47.4574 66.033H47.4423Z" fill="#EDF0E9"/>
<path d="M69.0314 66.278C69.3481 66.5586 69.5142 66.8125 69.7781 67.1399C70.0119 67.9618 70.1324 68.7034 70.0042 69.6254C69.0239 71.3025 68.4509 71.6565 67.5008 71.3625C66.611 71.0886 66.1284 70.1399 66.1661 68.7702C66.2189 66.8726 66.9427 66.1978 69.0314 66.2847V66.278Z" fill="#EDF0E9"/>
<path d="M64.2422 88.1733C64.4533 88.1199 64.5288 88.1733 64.4609 88.2802C64.4458 88.3002 64.2874 88.2468 64.2422 88.1733Z" fill="#586159"/>
<path d="M63.9043 90.7596C63.9571 90.7931 63.8968 90.5124 63.9647 90.7463C63.9044 90.773 63.9118 90.753 63.9043 90.7596Z" fill="#586159"/>
</svg>
