<svg width="1909" height="3960" viewBox="0 0 1909 3960" fill="none" xmlns="http://www.w3.org/2000/svg">
<path d="M760.861 3491.11C787.544 3487.73 812.401 3504.39 832.576 3522.09C849.236 3536.8 864.727 3553.07 875.92 3572.2C887.114 3591.34 893.886 3613.59 892.063 3635.59C891.412 3644.31 888.153 3654.33 879.823 3657.07C870.061 3660.19 860.82 3651.34 854.312 3643.4C822.943 3604.74 791.578 3566.09 760.34 3527.43C756.044 3522.09 751.489 3516.23 751.099 3509.33C750.708 3501.26 756.565 3491.63 760.861 3491.11Z" stroke="#231F20" stroke-width="2.15" stroke-miterlimit="10"/>
<path d="M749.926 3526.62C706.583 3535.73 665.325 3554.08 629.661 3580.37C617.556 3589.22 605.583 3600.03 601.939 3614.48C598.815 3627.23 602.849 3640.64 607.404 3652.87C630.963 3717.17 667.929 3775.48 705.285 3832.88C724.028 3861.78 743.422 3890.93 770.365 3912.41C803.426 3938.83 845.728 3951.59 887.77 3955.76C929.942 3959.79 972.374 3955.75 1014.42 3951.72C1023.14 3898.35 1006.21 3841.47 969.769 3801.64C947.772 3777.56 918.223 3759.34 885.813 3755.18C853.403 3751.01 818.393 3762.08 797.567 3787.33" stroke="#231F20" stroke-width="2.15" stroke-miterlimit="10"/>
<path d="M863.166 3653.79C870.065 3672.66 873.968 3692.7 874.619 3712.75C875.009 3722.64 873.839 3734.09 865.899 3739.95" stroke="#231F20" stroke-width="2.15" stroke-miterlimit="10"/>
<path d="M622.492 3602.12C638.762 3673.58 671.697 3741.26 718.034 3798.14" stroke="#231F20" stroke-width="2.15" stroke-miterlimit="10"/>
<path d="M1013.75 3932.05C980.433 3928.93 946.983 3925.94 913.662 3922.81C895.179 3921.12 876.569 3919.43 858.477 3915.13C807.454 3903.03 762.418 3870.49 730.789 3828.58" stroke="#231F20" stroke-width="2.15" stroke-miterlimit="10"/>
<path d="M667.532 3554.74C700.462 3550.05 731.307 3532.48 752.002 3506.58C756.948 3500.46 762.153 3493.3 769.963 3492.26C775.169 3491.61 780.244 3493.95 784.93 3496.29C820.334 3514.52 851.313 3541.33 874.352 3573.87C885.415 3589.49 895.048 3608.36 890.882 3626.98C888.54 3637.65 881.901 3646.76 877.345 3656.65C864.72 3684.12 868.105 3715.88 871.879 3745.81C914.572 3757.79 953.103 3783.95 979.916 3819.22C1006.73 3854.5 1021.7 3898.62 1021.7 3943.01C996.967 3959.93 964.551 3958.76 934.614 3957.06C895.957 3954.85 856.391 3952.51 820.597 3937.8C784.022 3922.83 753.565 3895.76 727.013 3866.47C674.298 3808.03 634.209 3738.13 610.389 3663.16C604.662 3645.2 599.975 3625.94 605.311 3607.97C614.162 3578.17 645.011 3557.99 667.398 3554.87L667.532 3554.74Z" stroke="#231F20" stroke-width="2.15" stroke-miterlimit="10"/>
<path d="M811.229 3499.3C862.902 3375.25 962.606 3270.87 987.466 3138.75C998.53 3079.66 994.237 3016.66 1018.84 2961.73C1027.95 2941.43 1043.7 2921.13 1065.82 2918.91C1086.91 2916.83 1106.44 2932.84 1115.29 2952.23C1124.14 2971.63 1124.53 2993.49 1124.79 3014.71C1125.7 3098.14 1124.79 3183.66 1094.59 3261.49C1072.98 3316.94 1037.58 3365.75 1000.36 3412.22C960.136 3462.46 917.703 3510.88 872.928 3557.22C854.445 3533.92 835.832 3510.75 811.102 3499.43L811.229 3499.3Z" fill="#3B5B33" stroke="#231F20" stroke-width="5" stroke-miterlimit="10"/>
<path d="M667.531 3554.73C685.187 3544.63 733.997 3525.99 755.576 3523.59C757.441 3522.08 754.366 3522.13 751.984 3518.8C749.093 3514.75 746.842 3506.85 750.785 3499.62C755.731 3493.5 760.958 3489.87 768.767 3488.82C773.974 3488.17 789.257 3492.48 793.943 3494.83C829.346 3513.05 849.088 3530.79 868.269 3555.96C879.333 3571.58 897.61 3605.68 893.445 3624.29C897.207 3630.01 895.842 3653.06 877.344 3656.65C876.428 3658.64 867.209 3653.4 867.071 3659.06C866.653 3676.16 877.344 3680.64 875.462 3726.19C871.768 3746.78 861.986 3737.37 868.269 3751.37C871.866 3754.96 901.836 3751.37 904.234 3757.36C946.927 3769.34 964.175 3792.13 983.356 3814.91C992.864 3827.41 1001.72 3841.93 1007.33 3858.06C1017.55 3887.42 1016.92 3925.32 1016.92 3953.97C1000.14 3955.17 958.181 3958.76 934.204 3958.76C916.125 3957.73 898.256 3959.4 880.258 3957.06C859.772 3954.39 839.37 3947.41 820.317 3939.58C800.144 3931.33 781.917 3924.06 765.171 3909.61C751.556 3897.86 738.919 3879.6 727.012 3866.46C707.485 3844.81 691.539 3815.92 675.26 3788.53C647.59 3741.99 623.304 3695.29 610.389 3663.15C604.661 3645.19 595.597 3630.27 600.934 3612.3C605.463 3597.05 624.924 3583.08 636.893 3573.86C648.313 3565.07 663.267 3557.16 667.397 3554.86L667.531 3554.73Z" fill="white"/>
<path d="M760.861 3491.11C787.544 3487.73 812.401 3504.39 832.576 3522.09C849.236 3536.8 864.727 3553.07 875.92 3572.2C887.114 3591.34 893.886 3613.59 892.063 3635.59C891.412 3644.31 888.153 3654.33 879.823 3657.07C870.061 3660.19 860.82 3651.34 854.312 3643.4C822.943 3604.74 791.578 3566.09 760.34 3527.43C756.044 3522.09 751.489 3516.23 751.099 3509.33C750.708 3501.26 756.565 3491.63 760.861 3491.11Z" stroke="#231F20" stroke-width="2.15" stroke-miterlimit="10"/>
<path d="M749.926 3526.62C706.583 3535.73 665.325 3554.08 629.661 3580.37C617.556 3589.22 605.583 3600.03 601.939 3614.48C598.815 3627.23 602.849 3640.64 607.404 3652.87C630.963 3717.17 667.929 3775.48 705.285 3832.88C724.028 3861.78 743.422 3890.93 770.365 3912.41C803.426 3938.83 845.728 3951.59 887.77 3955.76C929.942 3959.79 972.374 3955.75 1014.42 3951.72C1023.14 3898.35 1006.21 3841.47 969.769 3801.64C947.772 3777.56 918.223 3759.34 885.813 3755.18C853.403 3751.01 818.393 3762.08 797.567 3787.33" stroke="#231F20" stroke-width="2.15" stroke-miterlimit="10"/>
<path d="M863.166 3653.79C870.065 3672.66 873.968 3692.7 874.619 3712.75C875.009 3722.64 873.839 3734.09 865.899 3739.95" stroke="#231F20" stroke-width="2.15" stroke-miterlimit="10"/>
<path d="M622.492 3602.12C638.762 3673.58 671.697 3741.26 718.034 3798.14" stroke="#231F20" stroke-miterlimit="10"/>
<path d="M1013.75 3932.05C980.433 3928.93 946.983 3925.94 913.662 3922.81C895.179 3921.12 876.569 3919.43 858.477 3915.13C807.454 3903.03 762.418 3870.49 730.789 3828.58" stroke="#231F20" stroke-miterlimit="10"/>
<path d="M1530.59 3357.58C1515.23 3298.48 1499.74 3239.39 1484.39 3180.3C1478.53 3157.65 1472.41 3134.74 1461.47 3113.92C1438.44 3070.44 1395.87 3040.89 1352.66 3017.21C1309.45 2993.52 1263.5 2973.73 1225.89 2941.98C1206.49 2925.71 1188.4 2901.11 1196.21 2877.03C1202.33 2858.02 1223.41 2846.96 1243.45 2846.31C1263.5 2845.66 1282.77 2852.95 1301.38 2860.23C1353.96 2880.8 1406.81 2901.49 1454.58 2931.56C1502.35 2961.63 1545.17 3001.98 1569.12 3053C1613.11 3146.58 1588.11 3267.01 1611.54 3367.75C1583.29 3362.81 1542.01 3357.45 1530.59 3357.45V3357.58Z" fill="#3B5B33" stroke="#231F20" stroke-width="5" stroke-miterlimit="10"/>
<path d="M1473.21 3370.18C1479.98 3361.2 1492.34 3358.85 1503.67 3357.94C1543.1 3354.82 1582.8 3361.85 1621.07 3372.13C1647.1 3379.16 1674.96 3389.44 1688.5 3412.74C1692.27 3419.25 1694.74 3426.67 1694.22 3434.09C1693.7 3441.5 1690.18 3449.06 1683.81 3452.96C1672.35 3460.12 1657.64 3454.13 1645.54 3448.14C1611.57 3431.48 1575.64 3415.47 1537.9 3416.52C1525.53 3416.91 1513.04 3419.12 1500.67 3418.08C1488.31 3417.03 1475.29 3412.09 1468.91 3401.42C1462.41 3390.87 1468.13 3376.95 1473.34 3370.05L1473.21 3370.18Z" stroke="#231F20" stroke-width="2.15" stroke-miterlimit="10"/>
<path d="M1494.01 3422.38C1470.45 3469.62 1449.11 3517.91 1430.11 3567.24C1424.12 3582.73 1418.26 3598.48 1416.31 3615.01C1414.36 3631.54 1416.7 3649.11 1425.81 3662.91C1440.26 3684.78 1467.85 3693.11 1493.24 3699.88C1562.48 3718.36 1631.85 3736.71 1701.1 3755.2C1726.74 3761.96 1752.64 3768.86 1779.07 3770.42C1805.62 3771.99 1833.08 3767.95 1855.73 3754.15C1891.91 3732.29 1910.92 3686.86 1905.19 3644.95C1899.46 3603.04 1871.09 3565.81 1834.25 3545.12C1797.42 3524.42 1752.91 3519.21 1711.25 3526.24C1669.6 3533.4 1630.42 3552.15 1595.8 3576.36" stroke="#231F20" stroke-width="2.15" stroke-miterlimit="10"/>
<path d="M1415.26 3627.53C1469.02 3660.2 1528.37 3683.5 1589.94 3696.13" stroke="#231F20" stroke-miterlimit="10"/>
<path d="M1448.06 3518.6C1458.74 3501.94 1468.88 3464.86 1474.88 3460.06C1478.71 3448.49 1492.66 3434.94 1491.65 3422.9C1491.02 3415.29 1472.1 3415.46 1468.88 3408.51C1464.71 3399.66 1464.33 3390.53 1465.76 3381.03C1467.07 3372.83 1474.1 3366.58 1481.91 3363.84C1489.72 3361.11 1498.17 3361.24 1506.5 3361.37C1567.68 3362.41 1633.93 3365.15 1681.7 3403.54C1692.25 3412 1699.59 3430.78 1694.25 3443.28C1689.83 3453.82 1681.7 3460.06 1669.6 3457.04C1658.66 3462.24 1649.03 3470.71 1644.35 3481.9C1639.66 3492.96 1640.57 3506.89 1648.51 3516C1660.09 3529.54 1680.92 3528.63 1698.62 3527.33C1729.99 3524.98 1761.88 3524.85 1792.6 3531.88C1823.32 3538.91 1852.99 3553.62 1873.56 3577.44C1900.11 3608.02 1909.22 3652.8 1896.21 3691.07C1883.19 3729.33 1848.05 3759.4 1808.22 3765.78C1773.07 3771.37 1737.8 3759.92 1703.7 3749.38C1636.93 3728.81 1569.24 3711.5 1500.78 3697.7C1482.29 3693.93 1462.9 3690.16 1447.8 3678.83C1424.11 3661.13 1416.17 3628.07 1420.47 3598.91C1424.15 3573.95 1441.3 3531.99 1447.93 3518.99L1448.06 3518.6Z" fill="white"/>
<path d="M1471.89 3371.75C1478.66 3362.77 1491.03 3360.29 1502.22 3359.25C1541.66 3355.74 1581.36 3362.51 1619.75 3372.53C1645.79 3379.3 1673.77 3389.45 1687.57 3412.62C1691.34 3419 1693.94 3426.41 1693.55 3433.96C1693.16 3441.51 1689.52 3448.93 1683.27 3452.97C1671.95 3460.26 1657.11 3454.27 1644.88 3448.54C1610.78 3432.14 1574.72 3416.39 1536.97 3417.82C1524.61 3418.34 1512.12 3420.69 1499.75 3419.78C1487.38 3418.87 1474.37 3413.92 1467.86 3403.38C1461.35 3392.84 1466.81 3379.04 1472.02 3372.01L1471.89 3371.75Z" stroke="#231F20" stroke-width="2.15" stroke-miterlimit="10"/>
<path d="M1493.11 3423.8C1469.94 3471.18 1448.99 3519.73 1430.37 3569.19C1424.51 3584.81 1418.79 3600.56 1417.1 3617.09C1415.27 3633.62 1417.74 3651.19 1426.98 3664.98C1441.56 3686.72 1469.29 3694.92 1494.67 3701.43C1564.18 3719.26 1633.55 3737.23 1703.05 3755.06C1728.7 3761.7 1754.6 3768.33 1781.15 3769.63C1807.7 3770.94 1835.17 3766.64 1857.69 3752.71C1893.74 3730.45 1912.23 3684.9 1906.24 3643.12C1900.12 3601.21 1871.48 3564.24 1834.52 3543.81C1797.42 3523.37 1752.91 3518.55 1711.26 3525.97C1669.61 3533.39 1630.69 3552.53 1596.19 3577" stroke="#231F20" stroke-width="2.15" stroke-miterlimit="10"/>
<path d="M1877.34 3724.9C1859.64 3736.62 1836.86 3736.62 1815.65 3735.45C1766.45 3732.71 1717.51 3725.55 1669.61 3713.97" stroke="#231F20" stroke-miterlimit="10"/>
<path d="M1244.82 3229.06C1116.74 3169.7 1001.81 3095.38 901.718 3000.23C819.326 2922.01 750.728 2832.07 692.546 2733.8C560.434 2510.83 456.44 2275.9 384.331 2027.03C378.994 2008.42 371.7 1997.87 350.094 1994.1C241.931 1975.22 151.472 1924.33 83.3986 1836.99C32.7662 1771.91 -0.943243 1700.19 0.879001 1615.46C1.5298 1583.31 11.0287 1553.64 27.2987 1525.91C31.9845 1517.84 37.4512 1511.72 50.0768 1512.11C57.4959 1572.64 79.7508 1626.65 132.075 1661.54C179.454 1693.17 232.431 1710.48 294.127 1712.95C282.153 1671.95 272.132 1634.59 260.418 1597.89C219.938 1470.72 200.284 1340.69 205.36 1207.28C207.703 1145.45 214.468 1084.41 241.282 1027.14C269.266 967.263 312.612 924.7 374.308 900.361C436.134 876.021 498.996 857.016 564.077 841.137C672.5 814.714 767.913 757.314 849.133 678.958C880.892 648.37 891.562 607.498 898.07 566.758C912.257 477.077 904.055 388.701 876.722 301.884C849.779 216.498 797.979 192.548 711.683 199.837C675.628 202.961 640.352 214.286 604.427 220.533C516.179 236.022 492.231 187.731 501.602 114.19C505.247 85.4248 520.088 62.5193 543.777 45.3381C563.301 31.1507 584.126 19.6948 607.815 14.228C748.648 -18.0517 880.237 4.85714 1001.42 83.2136C1033.44 103.909 1058.3 133.195 1076.13 167.166C1107.5 226.91 1127.93 289.516 1128.06 358.241C1128.19 422.67 1122.86 486.579 1116.22 550.488C1109.58 613.485 1111.79 676.222 1118.56 738.96C1125.59 802.738 1156.96 849.336 1216.18 876.019C1239.09 886.302 1262.26 896.195 1285.04 906.608C1338.66 931.208 1372.77 970.126 1385.78 1029.74C1403.09 1108.49 1402.18 1187.23 1395.15 1266.37C1386.69 1363.47 1356.76 1456.01 1335.02 1550.38C1333.07 1558.97 1332.02 1567.95 1329.03 1576.15C1322.65 1593.33 1331.24 1601.92 1345.43 1608.3C1384.35 1625.74 1422.48 1645.66 1462.44 1660.23C1512.95 1678.72 1563.45 1678.72 1609.92 1645.4C1629.96 1631.08 1644.15 1612.34 1654.82 1590.47C1673.7 1551.94 1685.67 1511.07 1694.39 1469.42C1708.84 1470.2 1712.22 1479.7 1715.35 1489.21C1729.79 1533.46 1730.32 1578.76 1719.12 1623.27C1702.59 1688.48 1674.74 1749 1634.52 1803.28C1580.24 1876.56 1506.05 1918.47 1417.41 1934.74C1374.33 1942.68 1331.24 1954.66 1286.6 1948.54C1272.41 1946.59 1269.68 1953.36 1269.42 1965.72C1268.25 2045.12 1267.99 2124.78 1287.12 2202.35C1328.9 2370.91 1379.66 2536.74 1448 2696.7C1494.33 2805.26 1559.55 2901.97 1634.39 2992.69C1666.15 3031.21 1691.01 3072.61 1696.22 3123.63C1701.29 3172.83 1684.89 3212.14 1645.06 3242.2C1590.13 3283.59 1527.01 3289.45 1461.93 3284.51C1387.35 3278.91 1316.4 3257.69 1244.42 3229.32L1244.82 3229.06Z" fill="#2B2A28"/>
<path d="M716.763 1966.88C767.786 1949.57 818.416 1938.89 864.623 1914.16C912.522 1888.65 960.942 1864.57 988.015 1811.08C1051.27 1864.18 1116.61 1905.7 1193.67 1931.74C1207.85 1951.78 1202.91 1969.74 1187.94 1980.55C1161.65 1999.55 1157.49 2024.67 1159.05 2053.57C1159.57 2063.59 1159.56 2073.74 1157.35 2083.63C1153.71 2100.03 1146.29 2105.89 1132.1 2092.1C1122.08 2082.33 1111.15 2070.75 1096.96 2084.81C1084.6 2097.17 1085.37 2112.4 1095 2126.2C1106.72 2142.73 1119.21 2136.87 1133.79 2127.76C1156.05 2113.96 1163.6 2119.43 1166.2 2151.19C1173.62 2244.38 1190.29 2335.75 1223.61 2423.22C1281.92 2576.29 1350.9 2723.89 1447.61 2857.17C1453.47 2865.38 1458.41 2874.49 1465.31 2881.52C1489.39 2906.12 1484.05 2928.37 1452.04 2953.89C1480.93 2952.06 1501.5 2924.99 1519.2 2954.8C1531.17 2975.1 1523.36 2990.59 1509.04 3008.16C1470.65 3025.34 1437.59 3009.07 1405.18 2997.23C1297.14 2957.53 1214.23 2883.6 1138.48 2799.78C1061.56 2714.78 990.094 2625.49 932.564 2526.31C883.363 2441.57 842.884 2351.89 809.432 2259.87C780.276 2179.56 750.735 2099.38 720.017 2019.73C713.769 2003.33 705.566 1987.05 716.89 1967.01L716.763 1966.88Z" fill="#679441"/>
<path d="M1271.9 1548.18C1226.22 1533.86 1182.61 1518.63 1135.1 1518.11C1077.18 1517.59 1033.45 1540.63 1005.72 1592.17C1003.38 1596.47 1000.52 1600.5 996.353 1607.4C971.102 1587.75 945.33 1571.22 917.476 1557.68C855.91 1527.74 794.475 1526.57 733.039 1557.29C689.306 1579.16 646.217 1602.06 600.14 1625.23C592.46 1621.59 589.471 1615.99 588.3 1609.74C565.001 1478.67 536.757 1348.12 556.281 1213.41C565.132 1152.62 589.34 1099.78 632.813 1057.21C663.011 1027.67 687.087 990.702 730.821 972.87C751.907 971.829 769.091 974.823 785.231 982.372C808.92 993.435 814.256 1007.1 804.234 1030.79C800.849 1038.86 796.295 1046.41 791.999 1054.09C783.929 1068.67 787.575 1080.77 799.81 1090.66C810.613 1099.38 819.723 1094.7 830.266 1087.93C887.015 1051.09 946.628 1018.55 995.699 970.916C1012.75 954.386 1032.02 957.381 1051.93 962.327C1095.93 973.39 1137.06 992.394 1177.54 1011.92C1219.45 1032.09 1261.1 1045.76 1307.44 1028.97C1310.56 1027.8 1314.72 1030.01 1320.45 1032.48C1334.9 1047.06 1336.46 1063.46 1337.5 1079.73C1338.67 1099.52 1331.38 1111.75 1305.87 1104.59C1288.95 1088.71 1283.35 1069.45 1274.24 1052.27C1271.77 1047.97 1268.12 1054.74 1272.03 1051.61C1283.09 1066.45 1286.87 1085.07 1299.1 1102.77C1311.6 1134.4 1312.9 1164.59 1311.34 1194.79C1305.22 1312.46 1301.31 1430.51 1271.51 1548.44L1271.9 1548.18Z" fill="#679441"/>
<path d="M1618.37 3194.17C1614.21 3204.98 1605.88 3206.54 1597.03 3210.96C1545.75 3203.29 1497.2 3215.91 1448.39 3213.7C1425.48 3212.66 1402.83 3211.87 1385.78 3193.13C1381.36 3188.19 1376.02 3185.45 1369.12 3185.97C1327.47 3188.97 1294.02 3166.97 1260.56 3147.84C1117 3065.57 996.079 2957.54 889.608 2830.38C776.369 2695.14 686.817 2546.37 605.467 2390.56C548.587 2281.62 508.889 2166.43 462.812 2053.45C457.215 2039.52 451.229 2025.2 457.867 2007.24C500.69 2001.39 542.209 2002.43 586.204 1994.23C617.963 2025.73 634.366 2064.51 648.424 2102.91C692.288 2222.66 752.552 2334.2 810.864 2447.05C890.261 2600.77 994.128 2735.23 1118.95 2854.45C1229.85 2960.27 1361.96 3027.57 1507.87 3070C1531.17 3076.77 1555.64 3071.17 1581.8 3077.68C1618.77 3109.31 1624.23 3148.49 1618.25 3194.17H1618.37Z" fill="#3E5B2D"/>
<path d="M1125.46 846.733C1156.83 876.41 1189.37 900.491 1224.64 919.885C1251.71 934.853 1274.1 953.985 1293.24 980.148C1272.67 999.411 1251.2 996.159 1228.03 985.616C1178.83 963.229 1130.27 938.888 1078.21 923.269C1063.76 918.974 1049.45 914.418 1034.09 913.637C1010.27 912.336 989.962 918.191 971.609 934.331C936.726 964.919 902.89 997.07 862.67 1017.9C856.292 1017.38 853.686 1014.77 853.035 1010.87C845.226 957.631 806.567 937.845 760.62 931.207C731.855 927.042 707.906 918.714 687.081 898.019C675.757 886.825 660.4 879.535 646.863 870.554C645.692 858.709 656.1 860.271 661.958 857.928C749.295 824.087 822.055 768.767 887.266 703.036C925.533 664.508 938.553 613.097 943.76 561.814C953.131 471.222 949.484 380.892 921.109 292.773C904.709 242.011 880.76 196.843 830.518 172.893C778.454 148.163 723.523 148.945 668.205 161.05C667.034 161.31 665.865 161.962 664.563 162.222C649.855 164.956 634.759 176.407 621.092 169.378C607.295 162.35 615.105 144.258 612.111 131.242C607.165 110.156 593.884 93.3678 583.861 74.7549C598.83 58.3547 618.488 56.4002 636.319 53.1462C747.997 32.5809 854.076 46.898 953.388 104.689C997.513 130.331 1029.01 166.125 1049.97 212.332C1074.31 266.088 1084.46 321.926 1083.29 381.019C1081.73 454.169 1073.65 526.669 1068.97 599.429C1064.54 668.023 1076.13 734.798 1095.26 800.268C1100.21 817.319 1111.66 831.374 1125.59 846.342L1125.46 846.733Z" fill="#679441"/>
<path d="M1585.32 3078.72C1516.34 3094.34 1456.2 3064.41 1395.68 3041.89C1344.39 3022.76 1296.11 2995.55 1248.86 2967.05C1205.65 2941.02 1166.2 2910.16 1129.11 2876.71C1059.08 2813.59 997.387 2742.13 937.644 2669.5C902.631 2627.07 873.343 2579.69 847.701 2530.88C814.38 2467.49 774.552 2407.75 745.136 2342.28C709.733 2263.53 666.649 2188.3 640.226 2105.26C628.512 2068.55 607.425 2034.71 590.113 1996.83C630.723 1984.08 671.595 1974.18 715.59 1964.42C714.158 2000.48 733.422 2030.67 745.657 2061.39C766.743 2113.85 787.309 2166.43 804.751 2220.19C827.268 2289.56 861.243 2354.12 889.228 2421.15C921.508 2498.47 968.885 2566.02 1014.83 2634.88C1043.99 2678.74 1079.52 2717.92 1114.4 2757.23C1143.56 2790.03 1170.24 2825.43 1203.95 2853.94C1240.14 2884.78 1272.16 2921.49 1315.11 2943.23C1372.9 2972.64 1429.13 3007.79 1500.85 3007.92C1511.39 3009.61 1517.51 3016.64 1524.53 3016.25C1567.49 3013.51 1577.78 3043.45 1585.32 3078.72Z" fill="#4E6F36"/>
<path d="M937.91 1623.65C936.218 1634.58 933.097 1642.78 930.493 1651.11C922.684 1676.62 923.985 1685.47 946.242 1697.71C959.779 1705.26 958.088 1711.63 957.047 1724.13C953.402 1765.39 928.798 1790.25 894.566 1805.74C872.308 1815.76 864.242 1837.63 845.889 1851.3C790.311 1892.43 730.433 1921.84 662.75 1933.82C591.942 1946.44 521.007 1943.06 449.549 1935.77C392.278 1929.91 336.699 1914.81 279.298 1909.22C249.621 1906.35 218.387 1897.24 188.84 1887.35C181.812 1885.01 174.128 1882.14 168.662 1877.33C125.318 1838.41 90.178 1794.16 74.1683 1736.36C69.7429 1720.48 71.4322 1709.29 84.318 1700.31C97.7245 1691.07 110.353 1690.94 125.972 1700.05C169.315 1725.3 215.65 1743.39 270.057 1745.74C273.571 1770.47 248.193 1780.75 244.158 1800.01C313.404 1858.84 395.402 1822.53 463.086 1832.03C463.346 1832.03 454.626 1834.12 441.35 1821.49C535.456 1792.46 631.383 1778.02 713.384 1721.01C718.72 1717.88 721.711 1716.06 727.048 1713.2C732.515 1710.72 735.77 1709.94 741.628 1710.2C747.094 1712.28 748.526 1714.63 748.136 1718.14C748.917 1715.02 748.657 1711.89 748.657 1706.56C764.536 1681.44 783.411 1667.64 812.307 1663.08C845.368 1657.75 873.742 1641.35 876.866 1599.04C887.93 1592.41 897.04 1592.67 909.145 1596.96C923.723 1601.65 928.281 1613.36 937.783 1623.52L937.91 1623.65Z" fill="#3F483D"/>
<path d="M399.154 952.151C463.323 927.941 523.459 897.613 592.704 905.943C606.631 907.636 620.04 908.416 634.358 918.047C633.317 939.133 618.215 949.808 605.72 961.652C569.926 995.624 539.73 1033.76 512.136 1074.63C489.748 1107.82 473.871 1142.44 469.446 1182.01C461.636 1251.91 449.525 1321.81 450.176 1391.96C450.957 1468.5 457.986 1545.03 473.475 1620.4C477.51 1639.92 483.368 1659.83 471.003 1681.83C439.374 1695.63 408.53 1702.53 374.037 1707.47C357.116 1696.93 350.864 1681.7 346.829 1665.82C300.362 1479.17 280.057 1290.96 317.022 1099.88C328.086 1043 351.776 992.891 398.894 952.151H399.154Z" fill="#3E5B2D"/>
<path d="M471.658 1684.31C471.397 1635.11 453.306 1588.52 449.661 1540.1C449.271 1535.15 446.405 1530.21 446.795 1525.52C450.96 1477.75 434.949 1431.02 438.724 1383.38C442.108 1339.91 447.184 1296.7 451.74 1253.35C455.905 1213.65 458.248 1173.96 468.27 1134.91C471.134 1123.85 474.647 1113.3 480.505 1103.67C522.026 1035.99 570.576 974.159 633.964 921.574C648.021 922.225 656.353 929.905 664.292 937.975C682.385 956.327 703.73 967.913 731.845 971.687C693.448 1007.35 655.181 1044.32 621.73 1084.67C590.621 1122.15 572.138 1167.06 566.151 1217.82C561.205 1259.21 557.044 1300.47 560.558 1341.34C566.285 1408.37 572.79 1475.41 585.936 1541.66C591.012 1567.3 598.173 1592.81 597.522 1622.62C565.372 1645.53 534.005 1666.09 494.957 1677.42C490.922 1678.72 489.615 1679.76 486.231 1681.84C480.764 1683.4 477.515 1683.92 471.658 1684.45V1684.31Z" fill="#4E6F36"/>
<path d="M1586.35 3083.55C1579.72 3070.41 1575.42 3058.95 1569.44 3048.28C1561.63 3034.35 1557.72 3014.83 1532.6 3027.97C1522.19 3033.44 1512.55 3022.64 1505.26 3010.4C1504.74 3005.71 1505.27 3003.24 1506.44 3001.03C1517.72 2980.98 1513.47 2960.77 1493.68 2940.38C1491.73 2959.64 1484.18 2973.31 1464.14 2970.31C1452.94 2968.62 1445.66 2960.55 1445.4 2949.75C1445 2927.62 1461.27 2923.84 1480.27 2923.45C1312.11 2680.31 1172.58 2427.15 1154.23 2123.1C1141.21 2124.01 1141.34 2135.33 1135.74 2140.41C1118.69 2156.16 1101.12 2155.38 1087.58 2136.9C1078.34 2124.14 1075.22 2109.56 1078.86 2094.07C1081.99 2080.8 1090.57 2071.82 1103.33 2067.65C1117.52 2063.09 1127.54 2070.12 1135.22 2081.32C1138.61 2086.26 1141.6 2091.47 1150.58 2096.55C1150.58 2073.9 1149.02 2051.12 1150.97 2028.6C1152.92 2007.26 1150.19 1983.05 1182.08 1976.28C1197.44 1973.02 1191.71 1952.72 1195.22 1936.84C1209.93 1932.41 1218.91 1935.15 1218.52 1953.63C1217.74 1993.85 1218.13 2034.2 1219.83 2074.42C1223.6 2163.06 1244.55 2248.31 1269.28 2333.05C1303.78 2451.49 1341.39 2568.64 1387.21 2683.18C1436.8 2806.96 1508.13 2917.6 1591.69 3020.81C1609.13 3042.42 1626.57 3064.16 1636.21 3090.45C1649.74 3127.29 1655.99 3163.99 1620.59 3196.27C1616.56 3157.74 1610.83 3119.35 1586.23 3083.55H1586.35Z" fill="#EDF0E9"/>
<path d="M456.829 2004.48C459.302 2020.36 464.375 2034.68 469.712 2048.61C498.087 2122.28 524.255 2197.12 556.795 2269.1C600.268 2365.03 649.728 2457.96 701.401 2549.86C745.786 2628.86 797.066 2703.05 854.206 2772.95C919.937 2853.39 986.063 2933.57 1067.15 3000.6C1127.29 3050.45 1190.41 3094.97 1256.53 3135.97C1284.65 3153.41 1315.11 3164.47 1344.79 3178.01C1345.96 3178.53 1347.25 3178.79 1348.29 3179.44C1364.04 3189.85 1371.08 3161.48 1384.74 3170.33C1395.03 3177.1 1390.47 3195.19 1408.82 3200.01C1441.36 3208.34 1474.68 3208.6 1506.05 3203.26C1535.73 3198.19 1562.8 3198.71 1592.74 3209.51C1571.52 3228.25 1545.1 3234.11 1516.73 3233.59C1492.91 3233.2 1469.22 3232.55 1442.01 3231.9C1434.07 3231.64 1429.77 3230.46 1423.4 3228.77C1337.36 3213.93 1259.27 3183.61 1184.82 3142.61C1090.58 3090.67 1002.72 3029.37 926.315 2953.88C851.864 2880.33 788.866 2797.29 734.59 2706.96C619.918 2516.02 533.496 2312.57 459.435 2103.41C450.194 2077.37 444.075 2050.3 435.354 2024.01C428.846 2004.35 438.867 2002.27 456.829 2004.48Z" fill="#758F55"/>
<path d="M1496.54 1697.08C1503.7 1698 1509.04 1698.78 1516.98 1699.95C1528.04 1724.94 1551.34 1727.93 1572.68 1738.34C1574.11 1742.51 1574.11 1744.33 1572.42 1748.63C1541.96 1762.95 1525.18 1790.67 1497.71 1805.38C1393.58 1861.48 1288.67 1829.85 1183.76 1810.58C1174 1808.76 1165.54 1802.25 1152.65 1799.91C1142.37 1797.05 1135.47 1793.66 1127.27 1787.02C1119.07 1762.29 1132.74 1755.01 1149.92 1749.15C1143.41 1740.04 1114.78 1738.87 1133 1713.75C1137.82 1707.11 1130.53 1702.55 1125.19 1699.43C1097.86 1683.03 1099.03 1658.43 1108.01 1633.56C1112.82 1620.16 1114 1606.88 1116.21 1590.48C1157.99 1566.27 1195.22 1574.34 1232.05 1603.11C1240.51 1615.73 1247.93 1624.33 1264.85 1618.99C1290.76 1619.77 1305.85 1635.91 1322.12 1649.45C1367.16 1687.06 1418.96 1700.08 1479.36 1692.4C1483.52 1692.01 1484.95 1691.75 1488.47 1691.49C1491.2 1694.09 1492.64 1695.91 1496.67 1697.08H1496.54Z" fill="#586159"/>
<path d="M750.076 1712.94C745.39 1715.03 742.142 1715.02 736.284 1715.15C731.989 1716.72 730.165 1718.28 727.431 1721.4C645.951 1783.1 550.932 1804.06 455.264 1825.01C462.293 1832.95 475.31 1823.97 483.12 1831.52C484.422 1833.6 483.25 1835.03 479.866 1835.68C425.329 1845.71 370.139 1843.36 315.081 1843.62C297.249 1843.62 280.848 1844.14 269.004 1825.66C259.893 1811.47 238.676 1815.12 225.92 1803.14C232.037 1795.98 246.488 1793.77 245.056 1783.62C241.932 1761.36 263.537 1762.27 272.518 1748.74C310.395 1757.72 346.84 1747.17 383.415 1741.84C406.584 1738.45 429.492 1733.25 455.525 1729.34C566.681 1720.1 653.109 1654.89 749.949 1616.1C789.257 1600.36 828.437 1581.61 874.904 1599.05C878.288 1608.42 878.154 1616.24 880.757 1623C885.443 1635.11 879.719 1643.7 870.868 1647.99C847.7 1658.93 826.354 1675.2 799.541 1676.76C785.613 1677.54 772.986 1676.24 771.945 1696.67C771.685 1701.75 758.536 1706.17 750.076 1712.81V1712.94Z" fill="#586159"/>
<path d="M398.383 950.326C398.904 975.577 375.479 988.595 362.983 1008.12C334.218 1053.15 326.666 1103.4 317.815 1153.64C304.799 1226.92 307.405 1301.24 311.18 1374.78C315.215 1453.14 326.148 1531.1 343.199 1608.03C350.227 1639.79 358.556 1671.16 370.661 1704.35C355.041 1711.11 344.107 1706.69 340.593 1688.99C339.161 1681.7 336.17 1674.54 333.437 1664.65C329.532 1658.66 329.533 1654.23 327.971 1648.25C306.494 1571.19 279.681 1497.39 268.878 1419.95C253.519 1309.96 245.318 1199.46 271.871 1089.86C288.271 1022.18 324.065 970.24 398.517 950.195L398.383 950.326Z" fill="#758F55"/>
<path d="M1125.08 1781.17C1132.5 1785.08 1138.49 1787.16 1146.82 1790.02C1184.69 1824.39 1229.08 1828.29 1274.51 1828.42C1311.73 1828.42 1347.27 1838.83 1385.4 1838.83C1464.15 1838.83 1520.9 1806.03 1571.01 1747.59C1572.97 1745.64 1572.96 1745.25 1573.09 1745.38C1588.71 1730.28 1569.06 1718.57 1570.88 1702.82C1577.39 1700.08 1582.34 1699.69 1587.28 1698.78C1597.57 1696.83 1608.24 1686.94 1617.74 1700.35C1626.33 1712.58 1627.5 1725.08 1621.26 1739.39C1612.66 1759.44 1599.52 1776.88 1583.77 1790.42C1542.38 1826.34 1501.12 1863.83 1442.81 1870.73C1440.33 1870.99 1437.73 1873.2 1435.65 1872.68C1397.77 1862.39 1359.11 1881.27 1321.24 1869.68C1298.46 1862.79 1274.38 1865.13 1250.82 1860.96C1202.4 1852.5 1156.71 1836.36 1110.38 1821.79C1103.09 1819.44 1095.02 1817.62 1092.15 1810.07C1075.75 1767.38 1042.04 1731.06 1043.73 1681.86C1044.25 1668.46 1033.32 1662.6 1028.9 1649.71C1040.87 1632.53 1053.76 1619.13 1077.19 1619.78C1087.99 1626.28 1090.33 1635.26 1088.9 1643.85C1082.52 1681.99 1092.28 1718.18 1102.18 1756.44C1104.65 1759.57 1105.69 1760.74 1108.69 1763.47C1115.71 1769.07 1120.4 1773.49 1125.08 1781.3V1781.17Z" fill="#3F483D"/>
<path d="M1296.62 1091.4C1327.86 1105.2 1331.5 1103.25 1330.98 1075.66C1330.72 1063.42 1327.6 1051.84 1323.17 1037.39C1336.97 1034.53 1337.23 1045.59 1339.31 1055.22C1350.24 1108.33 1351.67 1161.95 1349.07 1216.1C1345.04 1299.27 1325.51 1379.58 1305.86 1459.89C1299.09 1487.87 1291.8 1515.73 1285.03 1543.71C1283.47 1550.35 1281.39 1555.56 1271.37 1552.56C1287.38 1434.12 1295.97 1316.58 1303.52 1199.18C1305.6 1165.47 1300.78 1131.63 1289.98 1095.57C1290.5 1092.06 1292.32 1091.67 1296.88 1091.67L1296.62 1091.4Z" fill="#EDF0E9"/>
<path d="M880.369 1601.42C840.15 1596.21 804.875 1602.85 771.163 1617.69C722.093 1639.42 672.893 1660.25 626.036 1686.93C577.226 1714.79 524.9 1736.26 462.293 1729.89C484.29 1709.06 516.702 1702.16 545.988 1688.88C617.446 1656.6 684.216 1614.04 761.401 1587.75C765.696 1584.5 767.907 1582.8 772.333 1581.63C779.231 1580.98 784.18 1580.2 791.469 1578.64C796.155 1576.42 798.366 1574.99 802.661 1574.21C841.319 1570.96 877.506 1570.57 912.909 1592.44C916.164 1595.43 917.075 1596.99 916.685 1601.15C904.71 1602.85 894.163 1602.2 880.236 1601.55L880.369 1601.42Z" fill="#818A8C"/>
<path d="M1083.54 1621.72C1061.94 1623.41 1051.92 1642.94 1031.09 1646.06C1017.82 1629.14 1031.35 1619.12 1041.38 1609.09C1073.27 1576.94 1110.1 1556.25 1160.99 1564.06C1167.89 1567.31 1172.31 1567.57 1178.95 1568.35C1193.66 1572 1206.28 1575.51 1221.38 1579.81C1225.68 1581.37 1227.24 1582.02 1231.02 1584.36C1241.04 1589.31 1248.85 1592.56 1259 1596.99C1263.04 1598.03 1264.86 1597.9 1267.59 1600.24C1282.3 1610.13 1296.1 1617.55 1311.98 1626.41C1315.88 1627.97 1317.71 1627.96 1320.44 1630.44C1344 1645.15 1365.08 1660.64 1394.11 1665.45C1398.66 1665.97 1400.48 1665.84 1404.13 1667.8C1426.26 1675.08 1446.56 1680.29 1469.73 1685.89C1475.2 1686.54 1477.28 1687.58 1480.67 1690.31C1482.36 1690.96 1481.96 1691.62 1481.96 1692.01C1466.86 1706.97 1449.69 1706.58 1429.77 1703.98C1378.1 1697.47 1334.24 1677.17 1297.92 1639.94C1289.85 1631.74 1279.18 1627.57 1265.77 1623.93C1252.36 1632 1244.29 1624.45 1234.53 1616.38C1201.86 1581.5 1163.47 1582.54 1121.68 1592.95C1110.62 1606.62 1098.38 1613.78 1083.54 1621.59V1621.72Z" fill="#818A8C"/>
<path d="M582.304 144.281C582.304 153.653 583.345 160.163 581.783 165.89C577.748 179.947 564.863 183.721 553.279 175.261C537.659 163.807 529.978 115.516 541.432 98.8552C548.2 89.0932 556.139 91.3051 563.428 98.0735C575.793 109.658 581.91 124.236 582.431 144.281H582.304Z" fill="#3E5B2D"/>
<path d="M1569.06 1700.44C1573.35 1705.51 1574.91 1709.81 1579.21 1713.06C1592.22 1722.95 1591.05 1733.58 1575.69 1744.95C1566.19 1735.97 1555.91 1736.62 1546.54 1737.66C1521.81 1740.39 1517.77 1726.34 1519.59 1703.43C1534.95 1700.31 1550.31 1700.18 1568.92 1700.44H1569.06Z" fill="#50584D"/>
<path d="M916.429 1605.72C915.388 1601.95 915.26 1600.25 915.26 1596.22C931.66 1596.74 944.155 1603.12 940.771 1624.59C928.145 1624.46 922.023 1617.04 916.296 1605.72H916.429Z" fill="#586159"/>
<path d="M1423.02 3229.43C1425.88 3228.13 1430.43 3228.52 1436.68 3230.34C1433.82 3233.6 1429.13 3233.86 1423.02 3229.43Z" fill="#3F483D"/>
<path d="M326.799 1648.64C329.142 1650.2 331.097 1653.84 332.919 1659.83C328.754 1659.31 326.669 1655.67 326.799 1648.64Z" fill="#50584D"/>
<path d="M1179.35 1567.03C1176.36 1570.54 1171.81 1570.54 1165.82 1566.11C1168.69 1564.68 1173.11 1565.07 1179.35 1567.03Z" fill="#586159"/>
<path d="M1497.34 1695.89C1498.38 1697.19 1494.73 1697.19 1494.73 1697.19C1494.73 1697.19 1491.87 1694.98 1491.22 1693.42C1492.78 1692.24 1494.6 1693.15 1497.34 1696.02V1695.89Z" fill="#3F483D"/>
<path d="M1481.32 1689.41C1480.02 1690.45 1477.68 1689.93 1474.04 1687.85C1475.34 1686.81 1477.81 1687.33 1481.32 1689.41Z" fill="#3F483D"/>
<path d="M485.73 1682.61C485.21 1680.79 486.767 1679.23 490.541 1677.93C491.192 1679.75 489.635 1681.44 485.73 1682.61Z" fill="#3E5B2D"/>
<path d="M1405.05 1668.15C1403.62 1670.23 1401.4 1669.84 1398.15 1667.24C1399.32 1666.19 1401.67 1666.33 1405.05 1668.15Z" fill="#50584D"/>
<path d="M1321.22 1631.21C1319.4 1632.77 1317.57 1631.99 1315.1 1629.13C1316.79 1626.52 1319.01 1627.04 1321.22 1631.21Z" fill="#586159"/>
<path d="M1268.26 1601.03C1266.57 1602.72 1264.74 1601.94 1262.27 1599.34C1263.83 1596.61 1266.05 1596.99 1268.26 1601.03Z" fill="#586159"/>
<path d="M1232.18 1584.21C1230.36 1586.42 1228.02 1585.77 1225.03 1582.26C1226.46 1581.22 1228.8 1581.87 1232.18 1584.21Z" fill="#586159"/>
<path d="M772.215 1581.48C772.215 1583.3 769.999 1584.86 765.834 1586.42C765.834 1584.73 768.05 1582.91 772.215 1581.48Z" fill="#3F483D"/>
<path d="M802.647 1574.05C802.387 1575.87 800.044 1577.04 795.879 1578.08C796.139 1576.39 798.352 1574.96 802.647 1574.05Z" fill="#3F483D"/>
<path d="M1147.06 2506.41C1140.82 2502.12 1136.26 2499.26 1133.79 2495.22C1127.8 2485.46 1129.49 2475.7 1137.17 2467.76C1144.98 2459.56 1155.01 2458.64 1164.77 2463.85C1174.53 2469.06 1180.38 2478.95 1176.09 2488.84C1169.06 2504.98 1170.88 2513.57 1189.11 2518.52C1197.57 2520.73 1204.73 2530.75 1201.61 2539.21C1194.45 2558.35 1199.78 2565.25 1219.05 2571.75C1238.96 2578.39 1247.42 2602.99 1239.22 2618.22C1232.06 2631.5 1219.96 2637.88 1204.73 2635.4C1185.07 2632.15 1167.76 2610.8 1173.49 2591.15C1178.44 2574.36 1179.87 2565.9 1161.52 2557.18C1149.41 2551.45 1149.67 2536.61 1158.13 2524.25C1162.03 2518.52 1171.15 2517.22 1171.93 2508.76C1164.25 2502.77 1156.7 2509.93 1147.06 2506.41Z" fill="#EDF0E9"/>
<path d="M1163.34 2388.62C1167.64 2396.3 1171.67 2401.63 1172.71 2407.36C1176.49 2428.45 1170.24 2442.63 1154.88 2447.45C1138.74 2452.52 1125.47 2447.06 1115.71 2433.52C1105.03 2418.82 1104.77 2396.43 1115.71 2384.97C1127.81 2372.35 1141.61 2371.57 1155.8 2381.72C1157.75 2383.15 1159.57 2384.97 1163.21 2388.62H1163.34Z" fill="#EDF0E9"/>
<path d="M1330.47 2787.54C1353.38 2776.6 1366.91 2786.24 1374.98 2803.81C1381.23 2817.34 1378.23 2831.4 1365.09 2840.12C1351.94 2848.84 1338.54 2845.72 1328 2834.65C1313.81 2819.82 1312.37 2804.2 1330.34 2787.54H1330.47Z" fill="#EDF0E9"/>
<path d="M1139.01 2278.49C1141.87 2288.77 1140.17 2296.06 1134.58 2301.66C1125.86 2310.38 1115.96 2313.51 1104.51 2305.96C1093.06 2298.41 1091.5 2287.73 1096.31 2276.67C1101.39 2265.09 1111.41 2260.92 1124.03 2264.57C1130.41 2266.39 1134.71 2270.68 1139.01 2278.62V2278.49Z" fill="#EDF0E9"/>
<path d="M1384.34 2850.54C1406.73 2858.61 1417.67 2877.35 1432.37 2891.93C1436.93 2896.49 1438.36 2903.13 1432.63 2908.2C1430.29 2910.28 1424.69 2911.98 1422.74 2910.67C1403.74 2897.4 1384.47 2883.86 1376.53 2860.56C1375.75 2858.35 1379.92 2854.44 1384.47 2850.54H1384.34Z" fill="#EDF0E9"/>
<path d="M1090.06 2198.33C1089.28 2185.31 1094.36 2180.23 1105.17 2183.62C1110.5 2185.31 1112.45 2191.04 1110.63 2195.33C1106.73 2204.44 1100.35 2208.61 1090.2 2198.2L1090.06 2198.33Z" fill="#EDF0E9"/>
<path d="M880.481 1226.95C815.401 1192.72 753.056 1194.15 690.319 1225.52C679.906 1230.72 668.194 1244.91 656.87 1234.63C644.505 1223.3 656.868 1208.47 661.554 1196.62C679.646 1150.55 733.532 1117.36 784.685 1118.79C831.543 1120.09 885.042 1157.7 901.963 1201.18C909.252 1219.92 907.685 1222.26 880.481 1227.08V1226.95Z" fill="#2B2A28"/>
<path d="M841.583 1395.76C837.418 1421.66 827.525 1441.71 810.734 1457.59C785.353 1481.54 753.725 1477.76 733.42 1449.25C701.53 1404.35 706.219 1314.41 742.533 1272.76C769.346 1241.91 796.417 1243.21 827.786 1279.26C828.176 1283.3 827.265 1284.86 824.011 1287.6C802.794 1290.07 779.629 1283.17 775.073 1312.19C771.949 1331.85 768.565 1352.81 784.575 1368.29C804.75 1387.95 816.591 1359.05 836.245 1358.27C846.397 1369.6 841.971 1381.57 841.45 1395.76H841.583Z" fill="#2B2A28"/>
<path d="M1219.56 1403.29C1216.18 1428.02 1206.68 1447.03 1191.84 1462.78C1167.24 1488.94 1136 1486.34 1115.69 1456.66C1099.55 1433.1 1095.52 1406.03 1095.91 1377.91C1096.43 1344.85 1101.37 1312.96 1121.81 1285.76C1145.24 1254.39 1168.67 1252.57 1202.25 1280.42C1205.11 1286.41 1204.72 1289.8 1199.64 1294.22C1182.72 1297.73 1166.19 1295.65 1158.38 1312.83C1149.53 1332.23 1145.89 1353.31 1160.85 1369.71C1182.59 1393.53 1194.7 1360.86 1214.87 1358.65C1224.37 1372.71 1219.95 1386.76 1219.56 1403.29Z" fill="#2B2A28"/>
<path d="M1119.48 1153.65C1184.3 1123.32 1254.98 1153.78 1274.11 1217.42C1276.46 1225.23 1277.5 1232.39 1269.95 1237.6C1264.22 1241.5 1257.97 1240.33 1252.12 1237.08C1251.07 1236.43 1249.9 1235.91 1248.86 1235.13C1196.02 1189.44 1140.05 1198.81 1083.17 1226.02C1076.66 1229.14 1069.63 1235.39 1063.25 1227.06C1058.95 1221.46 1062.99 1215.08 1065.46 1209.36C1075.87 1184.89 1098.01 1171.61 1119.48 1153.65Z" fill="#2B2A28"/>
<path d="M1129.11 1040.94C1146.42 1048.62 1161.39 1054.87 1175.84 1062.16C1181.3 1064.89 1186.51 1069.71 1182.86 1077.13C1179.87 1083.37 1173.63 1086.37 1167.25 1084.42C1153.06 1079.86 1139.01 1074.78 1125.47 1068.54C1097.09 1055.52 1070.54 1039.12 1045.42 1020.51C1037.35 1014.52 1027.84 1007.49 1036.69 996.297C1044.5 986.275 1052.19 994.865 1059.35 999.16C1081.73 1012.7 1104.12 1026.24 1128.98 1040.94H1129.11Z" fill="#EDF0E9"/>
<path d="M842.236 1396.02C837.941 1386.91 842.628 1374.42 834.038 1361.4C816.726 1339.66 822.066 1315.98 820.895 1290.86C822.977 1286.69 823.888 1285.39 826.881 1282.91C839.897 1290.85 846.536 1302.57 846.666 1316.63C846.926 1342.27 850.439 1368.04 842.109 1396.02H842.236Z" fill="#3F483D"/>
<path d="M1220.2 1403.54C1215.52 1391.96 1221.24 1376.86 1211.74 1361.24C1197.82 1346.8 1199.9 1331.83 1202.89 1313.87C1205.1 1309.05 1206.28 1307.23 1210.57 1304.62C1232.83 1334.69 1225.67 1368.01 1220.2 1403.54Z" fill="#3F483D"/>
<path d="M1018.22 1051.76C1015.61 1056.7 1013.53 1060.22 1010.41 1061.52C1001.04 1065.55 992.839 1063.73 992.058 1052.15C991.538 1042.52 999.864 1040.83 1007.41 1040.96C1012.49 1040.96 1016.4 1044.08 1018.09 1051.63L1018.22 1051.76Z" fill="#EDF0E9"/>
<path d="M1057.52 1060.06C1067.54 1068.91 1067.41 1075.94 1056.35 1080.37C1051.92 1082.19 1045.67 1081.41 1043.72 1076.46C1039.56 1065.92 1045.02 1060.58 1057.52 1060.19V1060.06Z" fill="#EDF0E9"/>
<path d="M1298.45 1089.6C1297.54 1092.07 1295.85 1092.59 1291.29 1092.59C1281.53 1078.15 1274.11 1064.09 1270.08 1039.23C1287.91 1056.93 1286.87 1075.8 1298.45 1089.6Z" fill="#818A8C"/>
<path d="M1193.78 1294.25C1196.91 1290.09 1199.12 1288.39 1202.5 1284.75C1209.4 1286.7 1210.83 1293.08 1213.05 1301.54C1212.53 1304.8 1211.35 1305.71 1208.49 1308.05C1199.12 1308.44 1194.82 1303.88 1193.78 1294.25Z" fill="#3F483D"/>
<path d="M1356.62 3124.42C1358.31 3134.57 1353.49 3136.52 1346.6 3134.44C1342.82 3133.4 1340.35 3129.49 1342.17 3126.11C1344.78 3121.29 1349.85 3121.03 1356.62 3124.42Z" fill="#679441"/>
<path d="M748.773 1715.04C749.685 1716.08 750.592 1717.25 751.633 1718.29C750.983 1717.9 750.333 1717.51 749.161 1716.08C748.771 1715.04 748.773 1715.04 748.773 1715.04Z" fill="#50584D"/>
<path d="M727.94 1721.94C726.899 1720.24 728.202 1718.16 732.237 1715.95C733.148 1717.64 731.715 1719.59 727.94 1721.94Z" fill="#50584D"/>
<path d="M1570.21 1745.75C1572.81 1748.09 1573.33 1750.83 1572.55 1753.04C1564.87 1775.43 1511.37 1827.1 1489.77 1827.23C1465.04 1827.36 1449.94 1852.61 1427.42 1849.49C1406.07 1846.49 1386.55 1844.93 1364.81 1849.23C1345.16 1853.26 1322.38 1857.82 1303.9 1840.38C1297.13 1833.87 1287.11 1836.21 1278.39 1836.08C1265.76 1835.82 1253.27 1835.95 1240.64 1836.08C1204.2 1836.47 1170.74 1830.09 1149.4 1793.39C1159.29 1789.87 1168.53 1793 1177.9 1797.42C1216.04 1814.99 1257.04 1819.16 1298.43 1820.98C1328.37 1822.28 1358.3 1818.9 1388.11 1827.23C1403.08 1831.4 1420.65 1831.66 1436.27 1824.5C1463.48 1812.13 1489.24 1796.9 1517.49 1786.36C1532.07 1780.89 1513.46 1777.38 1512.16 1769.7C1531.03 1764.23 1549.9 1756.29 1570.33 1745.88L1570.21 1745.75Z" fill="#50584D"/>
<path d="M1081.07 1625.6C1086.4 1606.21 1101.37 1602.04 1117.12 1595.4C1126.23 1608.29 1130.79 1620.53 1118.29 1633.28C1107.1 1644.6 1111.66 1659.44 1112.44 1672.85C1113.35 1689.25 1126.89 1690.81 1139.51 1693.67C1149.27 1695.89 1154.09 1704.61 1153.83 1713.59C1153.43 1726.6 1138.99 1719.18 1133.27 1725.3C1134.83 1732.2 1141.99 1733.76 1146.28 1738.06C1149.8 1741.57 1153.96 1744.3 1157.86 1747.56C1147.45 1757.71 1133.52 1764.09 1127.15 1780.75C1119.99 1779.58 1113.35 1775.93 1105.28 1770.21C1099.42 1762.4 1080.94 1766.3 1091.09 1749.51C1093.04 1746.39 1091.09 1739.62 1089.14 1735.59C1073.13 1704.74 1076.51 1672.46 1081.46 1639.92C1081.98 1636.27 1081.46 1632.5 1081.46 1625.6H1081.07Z" fill="#50584D"/>
<path d="M1233.24 1616.65C1241.44 1616.78 1249.63 1619.91 1260.44 1623.42C1251.46 1633.83 1240.79 1636.83 1233.24 1616.65Z" fill="#50584D"/>
<path d="M819.713 1286.29C832.859 1308.42 835.332 1330.29 831.687 1356.32C827.522 1365.69 824.268 1372.98 818.932 1377.93C802.141 1393.42 783.53 1390.81 771.945 1370.77C758.539 1347.47 758.67 1322.48 769.473 1298.27C779.496 1275.75 790.818 1273.15 819.974 1286.29H819.713Z" fill="#EDF0E9"/>
<path d="M1192.23 1291.22C1197.69 1296.68 1200.56 1301.63 1205.11 1308.01C1209.15 1324.02 1211.23 1338.46 1209.02 1356.43C1192.1 1389.1 1182.21 1395.99 1165.81 1390.27C1150.45 1384.93 1142.12 1366.45 1142.77 1339.77C1143.68 1302.8 1156.17 1289.65 1192.23 1291.35V1291.22Z" fill="#EDF0E9"/>
<path d="M1109.59 1717.63C1113.23 1716.59 1114.53 1717.63 1113.36 1719.71C1113.1 1720.1 1110.37 1719.06 1109.59 1717.63Z" fill="#586159"/>
<path d="M1103.84 1768.02C1104.75 1768.67 1103.71 1763.21 1104.88 1767.76C1103.84 1768.28 1103.97 1767.89 1103.84 1768.02Z" fill="#586159"/>
</svg>
