<svg width="102" height="202" viewBox="0 0 102 202" fill="none" xmlns="http://www.w3.org/2000/svg">
<path d="M77.0751 175.624C76.5313 176.916 75.0177 176.945 74.1138 176.077C73.21 175.2 72.7541 173.753 72.3499 172.383C69.484 162.748 66.6255 153.112 63.7596 143.477C63.3113 141.953 62.8486 140.381 62.9074 138.751C62.9662 137.121 63.701 135.414 64.8988 134.999C65.8982 134.652 66.971 135.279 67.6911 136.253C68.4113 137.227 68.8374 138.491 69.2415 139.745C72.8349 150.942 75.2894 162.7 77.0751 175.634V175.624Z" fill="#3C5B31" stroke="#231F20" stroke-width="5" stroke-miterlimit="10"/>
<path d="M81.4181 179.62C77.9677 179.373 74.4936 179.726 71.9922 181.886C72.1982 184.806 71.9922 187.214 72.3988 189.977C72.6121 190.983 73.3249 193.687 74.2961 194.213C75.2157 194.706 75.6908 194.911 76.7355 194.704C81.1399 193.538 88.1193 192.326 92.5238 191.45C94.8707 190.984 97.5884 190.08 99.0966 188.381C99.9501 187.414 100.047 186.242 99.9829 185.004C99.9252 183.894 99.5195 182.787 98.8032 181.886C97.2876 179.979 94.6095 178.986 92.0198 179.033C89.4301 179.079 86.9287 180.086 84.8761 181.513C84.5966 181.709 84.3661 181.863 84.1214 182.057C83.8508 182.271 83.563 182.515 83.1727 182.487C82.7989 182.459 82.3675 182.245 82.0208 181.967C81.7807 181.775 81.5813 181.552 81.4699 181.339C81.1977 180.819 81.1461 180.233 81.4257 179.613L81.4181 179.62Z" fill="white"/>
<path d="M82.4783 179.336C82.2655 179.683 81.7665 179.809 81.3336 179.769C80.9007 179.729 80.4899 179.57 80.057 179.483C78.6554 179.21 77.2317 179.783 75.9842 180.422C74.7368 181.062 73.4746 181.801 72.0437 181.895C71.508 181.928 70.9284 181.855 70.5248 181.542C70.0552 181.175 69.9157 180.542 70.0845 180.003C70.2533 179.463 70.6789 179.016 71.1852 178.697C71.6842 178.37 72.264 178.157 72.829 177.944C73.893 177.544 74.9643 177.144 76.0283 176.745C77.0336 176.372 78.0535 175.992 79.1322 175.912C80.2109 175.832 81.3775 176.105 82.0892 176.851C82.7643 177.558 82.9039 178.644 82.4783 179.33V179.336Z" fill="white" stroke="#231F20" stroke-width="2.15" stroke-miterlimit="10"/>
<path d="M72.2561 182.25C72.0356 185.764 71.8372 189.417 73.3586 192.658C73.6819 193.343 74.1084 194.028 74.8213 194.408C75.4681 194.754 76.2692 194.787 77.0115 194.667C77.7538 194.547 78.4444 194.275 79.15 194.035C81.4072 193.522 84.0626 192.983 86.4164 192.602C89.6038 192.087 92.4803 191.533 95.503 190.515C96.8333 190.069 98.171 189.464 99.0088 188.425C99.7218 187.534 99.9939 186.389 99.9351 185.285C99.7807 182.33 97.2011 179.622 93.9893 179.056C92.5194 178.797 90.998 178.95 89.5501 179.296C87.6392 179.755 85.8164 180.56 84.3612 181.771C82.9133 182.982 81.8623 184.619 81.605 186.396" stroke="#231F20" stroke-width="2.15" stroke-miterlimit="10"/>
<path d="M81.264 179.852C81.1152 180.397 81.2121 180.989 81.5172 181.482C81.8223 181.974 82.343 182.353 82.9457 182.52" stroke="#231F20" stroke-width="2.15" stroke-miterlimit="10"/>
<path d="M99.6045 186.828C98.2011 187.951 96.4891 188.722 94.7037 189.247C92.9182 189.772 91.0664 190.058 89.2148 190.317" stroke="#231F20" stroke-miterlimit="10"/>
<path d="M73.8008 192.833C77.2637 192.675 80.7121 192.121 84.021 191.191" stroke="#231F20" stroke-miterlimit="10"/>
<path d="M30.6713 173.305C34.0268 168.529 37.3897 163.724 40.0917 158.261C42.7937 152.798 44.8204 146.588 45.1948 140.054C45.2609 138.885 45.2831 137.666 45.6649 136.605C46.0467 135.544 46.913 134.679 47.7647 134.954C48.3521 135.141 48.7927 135.799 49.1378 136.457C51.4066 140.781 51.5167 146.666 50.1657 151.619C48.8147 156.571 46.1639 160.718 43.2416 164.265C40.3194 167.812 37.0886 170.868 34.159 174.405C33.6156 175.064 33.0503 175.752 32.3527 176.046C31.6479 176.331 30.7595 176.076 30.4218 175.211C30.084 174.337 30.7008 173.02 30.6641 173.305H30.6713Z" fill="#3C5B31" stroke="#231F20" stroke-width="5" stroke-miterlimit="10"/>
<path d="M77.0751 175.624C76.5313 176.916 75.0177 176.945 74.1138 176.077C73.21 175.2 72.7541 173.753 72.3499 172.383C69.484 162.748 66.6255 153.112 63.7596 143.477C63.3113 141.953 62.8486 140.381 62.9074 138.751C62.9662 137.121 63.701 135.414 64.8988 134.999C65.8982 134.652 66.971 135.279 67.6911 136.253C68.4113 137.227 68.8374 138.491 69.2415 139.745C72.8349 150.942 75.2894 162.7 77.0751 175.634V175.624Z" fill="#3C5B31" stroke="#231F20" stroke-width="5" stroke-miterlimit="10"/>
<path d="M81.4181 179.62C77.9677 179.373 74.4936 179.726 71.9922 181.886C72.1982 184.806 71.9922 187.214 72.3988 189.977C72.6121 190.983 73.3249 193.687 74.2961 194.213C75.2157 194.706 75.6908 194.911 76.7355 194.704C81.1399 193.538 88.1193 192.326 92.5238 191.45C94.8707 190.984 97.5884 190.08 99.0966 188.381C99.9501 187.414 100.047 186.242 99.9829 185.004C99.9252 183.894 99.5195 182.787 98.8032 181.886C97.2876 179.979 94.6095 178.986 92.0198 179.033C89.4301 179.079 86.9287 180.086 84.8761 181.513C84.5966 181.709 84.3661 181.863 84.1214 182.057C83.8508 182.271 83.563 182.515 83.1727 182.487C82.7989 182.459 82.3675 182.245 82.0208 181.967C81.7807 181.775 81.5813 181.552 81.4699 181.339C81.1977 180.819 81.1461 180.233 81.4257 179.613L81.4181 179.62Z" fill="white"/>
<path d="M82.4783 179.336C82.2655 179.683 81.7665 179.809 81.3336 179.769C80.9007 179.729 80.4899 179.57 80.057 179.483C78.6554 179.21 77.2317 179.783 75.9842 180.422C74.7368 181.062 73.4746 181.801 72.0437 181.895C71.508 181.928 70.9284 181.855 70.5248 181.542C70.0552 181.175 69.9157 180.542 70.0845 180.003C70.2533 179.463 70.6789 179.016 71.1852 178.697C71.6842 178.37 72.264 178.157 72.829 177.944C73.893 177.544 74.9643 177.144 76.0283 176.745C77.0336 176.372 78.0535 175.992 79.1322 175.912C80.2109 175.832 81.3775 176.105 82.0892 176.851C82.7643 177.558 82.9039 178.644 82.4783 179.33V179.336Z" fill="white" stroke="#231F20" stroke-width="2.15" stroke-miterlimit="10"/>
<path d="M72.2561 182.25C72.0356 185.764 71.8372 189.417 73.3586 192.658C73.6819 193.343 74.1084 194.028 74.8213 194.408C75.4681 194.754 76.2692 194.787 77.0115 194.667C77.7538 194.547 78.4444 194.275 79.15 194.035C81.4072 193.522 84.0626 192.983 86.4164 192.602C89.6038 192.087 92.4803 191.533 95.503 190.515C96.8333 190.069 98.171 189.464 99.0088 188.425C99.7218 187.534 99.9939 186.389 99.9351 185.285C99.7807 182.33 97.2011 179.622 93.9893 179.056C92.5194 178.797 90.998 178.95 89.5501 179.296C87.6392 179.755 85.8164 180.56 84.3612 181.771C82.9133 182.982 81.8623 184.619 81.605 186.396" stroke="#231F20" stroke-width="2.15" stroke-miterlimit="10"/>
<path d="M81.264 179.852C81.1152 180.397 81.2121 180.989 81.5172 181.482C81.8223 181.974 82.343 182.353 82.9457 182.52" stroke="#231F20" stroke-width="2.15" stroke-miterlimit="10"/>
<path d="M99.6045 186.828C98.2011 187.951 96.4891 188.722 94.7037 189.247C92.9182 189.772 91.0664 190.058 89.2148 190.317" stroke="#231F20" stroke-miterlimit="10"/>
<path d="M73.8008 192.833C77.2637 192.675 80.7121 192.121 84.021 191.191" stroke="#231F20" stroke-miterlimit="10"/>
<path d="M30.6713 173.305C34.0268 168.529 37.3897 163.724 40.0917 158.261C42.7937 152.798 44.8204 146.588 45.1948 140.054C45.2609 138.885 45.2831 137.666 45.6649 136.605C46.0467 135.544 46.913 134.679 47.7647 134.954C48.3521 135.141 48.7927 135.799 49.1378 136.457C51.4066 140.781 51.5167 146.666 50.1657 151.619C48.8147 156.571 46.1639 160.718 43.2416 164.265C40.3194 167.812 37.0886 170.868 34.159 174.405C33.6156 175.064 33.0503 175.752 32.3527 176.046C31.6479 176.331 30.7595 176.076 30.4218 175.211C30.084 174.337 30.7008 173.02 30.6641 173.305H30.6713Z" fill="#3C5B31" stroke="#231F20" stroke-width="5" stroke-miterlimit="10"/>
<path d="M16.2492 189.795C15.6245 185.955 15.3744 182.061 15.5214 178.181C15.5582 177.232 15.7053 176.329 16.2492 175.52C16.8078 174.692 17.7115 174.087 18.711 173.746C20.6954 173.065 23.5145 172.777 25.5723 173.244C26.0501 173.351 26.8585 174.044 26.9939 174.044C26.9939 173.746 27.4449 172.991 28.0769 172.677C28.7531 172.343 29.7742 172.62 30.3108 173.121C30.8473 173.622 30.948 173.853 31.2052 174.514C31.6646 176.074 32.0208 177.207 32.1384 178.596C32.256 179.985 32.1536 181.407 31.132 182.449C30.4191 183.183 29.4123 183.657 28.7876 184.452C28.4495 184.886 28.1222 185.291 27.8062 185.732C27.4901 186.173 26.7018 186.689 26.1139 186.716C29.2954 188.5 30.3108 191.145 30.1469 192.106C30.3108 192.56 30.7498 196.441 29.6327 198.311C29.1182 199.172 28.2509 199.994 27.1705 200.001C26.9262 200.001 25.2729 199.265 24.8113 198.905C23.6722 198.017 22.5255 197.129 21.3863 196.24C20.1296 195.259 18.8656 194.27 17.8734 193.068C17.6574 192.806 16.33 190.396 16.2345 189.802L16.2492 189.795Z" fill="white"/>
<path d="M32.1256 179.473C32.2359 180.629 31.8171 181.818 30.9866 182.693C30.7955 182.9 30.5749 183.093 30.303 183.2C30.031 183.307 29.7003 183.32 29.4431 183.18C29.0462 182.953 28.9875 182.459 28.9655 182.031C28.9214 181.116 28.8847 180.195 28.8406 179.28C28.8038 178.512 28.7669 177.723 28.4656 177.002C28.1863 176.328 27.6867 175.747 27.3854 175.072C27.0914 174.404 27.04 173.556 27.5838 173.035C28.0175 172.621 28.7376 172.521 29.3329 172.708C29.9283 172.895 30.3987 173.329 30.7074 173.83C31.0161 174.324 31.185 174.885 31.3246 175.439C31.6701 176.795 31.9935 178.164 32.1184 179.46L32.1256 179.473Z" stroke="#231F20" stroke-width="2.15" stroke-miterlimit="10"/>
<path d="M29.3521 183.516C28.845 184.725 27.8819 185.773 26.6545 186.428C25.4271 187.089 23.9502 187.349 22.5391 187.169" stroke="#231F20" stroke-width="2.15" stroke-miterlimit="10"/>
<path d="M26.3339 187.057C28.355 188.186 29.8838 190.029 30.5232 192.107C31.1627 194.184 30.9054 196.481 29.8177 198.398C29.362 199.2 28.605 200.014 27.6129 199.988C27.1351 199.974 26.6941 199.767 26.2825 199.54C25.1728 198.932 24.1512 198.211 23.1296 197.483C21.3216 196.194 19.484 194.885 18.1611 193.182C16.7573 191.372 16.0004 189.201 15.6329 187.017C15.2654 184.833 15.2803 182.603 15.2877 180.392C15.295 178.388 15.4127 176.151 17.0149 174.782C18.0218 173.92 19.4253 173.579 20.7776 173.326C21.8212 173.125 22.8871 172.952 23.9528 173.025C25.0185 173.092 26.0915 173.426 26.8632 174.094L26.9145 174.134" stroke="#231F20" stroke-width="2.15" stroke-miterlimit="10"/>
<path d="M19.7899 173.797C18.1804 175.179 17.3942 177.216 17.2104 179.22C17.0267 181.224 17.3793 183.241 17.7394 185.224" stroke="#231F20" stroke-miterlimit="10"/>
<path d="M29.068 199.039C26.7676 198.277 24.761 196.915 22.9677 195.405C21.7697 194.39 20.638 193.295 19.7634 192.033C18.8888 190.77 18.2787 189.341 18.1758 187.852" stroke="#231F20" stroke-miterlimit="10"/>
<path d="M70.2437 165.688C63.0118 162.642 56.5219 158.829 50.8701 153.947C46.2178 149.933 42.3448 145.317 39.0595 140.275C31.5997 128.834 25.7273 116.779 21.6557 104.009C21.3544 103.053 20.9429 102.512 19.7228 102.319C13.6154 101.35 8.50763 98.7388 4.66383 94.2573C1.80486 90.9179 -0.0989187 87.2378 0.00397486 82.8899C0.0407226 81.2402 0.57744 79.7175 1.49613 78.2949C1.76072 77.8808 2.0694 77.5668 2.7823 77.5869C3.20122 80.6925 4.45785 83.4643 7.41237 85.2542C10.0876 86.8772 13.079 87.7654 16.5627 87.8923C15.8865 85.7885 15.3204 83.8716 14.6589 81.9881C12.3732 75.4629 11.2634 68.7908 11.5501 61.945C11.6824 58.7725 12.0647 55.6401 13.5787 52.7014C15.1589 49.6291 17.6061 47.4451 21.0898 46.1961C24.5808 44.9472 28.1307 43.972 31.8054 43.1572C37.9276 41.8014 43.3151 38.856 47.9012 34.8353C49.6945 33.2658 50.297 31.1686 50.6645 29.0781C51.4656 24.4763 51.0024 19.9415 49.459 15.4867C47.9377 11.1053 45.0128 9.87634 40.1401 10.2504C38.1042 10.4107 36.1123 10.9918 34.0839 11.3124C29.1009 12.1071 27.7486 9.62917 28.2778 5.8556C28.4836 4.37957 29.3213 3.20423 30.6589 2.32261C31.7613 1.59462 32.9375 1.00678 34.2751 0.726271C42.2273 -0.930091 49.6575 0.245424 56.5 4.26611C58.3079 5.32805 59.7119 6.83077 60.7188 8.57395C62.49 11.6396 63.6437 14.8521 63.651 18.3785C63.6584 21.6845 63.357 24.9639 62.9821 28.2432C62.6073 31.4758 62.7324 34.695 63.1145 37.9142C63.5114 41.1869 65.2827 43.5779 68.6267 44.9471C69.9202 45.4747 71.2285 45.9824 72.5146 46.5167C75.5426 47.779 77.4684 49.776 78.2033 52.8349C79.1808 56.8756 79.1292 60.9163 78.7323 64.9771C78.2546 69.9595 76.5641 74.7082 75.3367 79.5504C75.2265 79.9912 75.1677 80.452 74.9987 80.8728C74.6386 81.7544 75.1238 82.1952 75.9249 82.5225C78.1224 83.4175 80.2757 84.4393 82.532 85.1873C85.3836 86.1357 88.2353 86.1358 90.8591 84.426C91.9909 83.6913 92.7921 82.7296 93.3948 81.6076C94.4605 79.6306 95.1367 77.5334 95.6291 75.3962C96.4449 75.4362 96.6359 75.9238 96.8122 76.4114C97.628 78.6822 97.6575 81.0065 97.0254 83.2906C96.092 86.6368 94.5192 89.7423 92.2482 92.5274C89.1835 96.2876 84.9941 98.4383 79.9891 99.2732C77.5564 99.6806 75.1238 100.295 72.6029 99.9812C71.8018 99.881 71.6472 100.228 71.6325 100.863C71.5664 104.937 71.552 109.024 72.6323 113.005C74.9915 121.654 77.8578 130.163 81.7163 138.371C84.3327 143.942 88.0147 148.904 92.2407 153.559C94.034 155.536 95.4377 157.66 95.7317 160.278C96.0183 162.803 95.0925 164.82 92.8436 166.362C89.7421 168.486 86.1773 168.787 82.5025 168.533C78.2913 168.246 74.2858 167.157 70.2215 165.701L70.2437 165.688Z" fill="#2B2A28"/>
<path d="M40.4282 100.932C43.3093 100.044 46.1685 99.4961 48.7776 98.2271C51.4822 96.9181 54.2162 95.6825 55.7449 92.9375C59.3168 95.6625 63.0061 97.7931 67.357 99.1288C68.1581 100.157 67.8789 101.079 67.0337 101.633C65.5491 102.609 65.3138 103.897 65.4019 105.38C65.4313 105.894 65.4314 106.415 65.3065 106.923C65.1007 107.765 64.6818 108.065 63.8807 107.357C63.3148 106.856 62.6973 106.262 61.8962 106.983C61.198 107.618 61.2422 108.399 61.786 109.107C62.4475 109.955 63.153 109.655 63.9762 109.187C65.233 108.479 65.6594 108.76 65.8064 110.389C66.2253 115.171 67.1658 119.86 69.0473 124.348C72.3399 132.203 76.2355 139.776 81.6962 146.616C82.0269 147.036 82.3061 147.504 82.6956 147.865C84.0553 149.127 83.7539 150.269 81.9459 151.578C83.5775 151.485 84.7389 150.095 85.7384 151.625C86.4146 152.667 85.9734 153.461 85.165 154.363C82.9968 155.245 81.1301 154.41 79.3 153.802C73.1999 151.765 68.5185 147.971 64.241 143.67C59.8974 139.309 55.8623 134.727 52.6138 129.638C49.8357 125.29 47.55 120.688 45.6612 115.966C44.0149 111.845 42.3465 107.731 40.612 103.644C40.2592 102.802 39.7964 101.967 40.4358 100.939L40.4282 100.932Z" fill="#679441"/>
<path d="M71.7806 79.4415C69.2009 78.7068 66.739 77.9253 64.0564 77.8986C60.7859 77.8719 58.3161 79.054 56.7507 81.6989C56.6184 81.9193 56.4569 82.1264 56.2217 82.4804C54.7959 81.4719 53.3407 80.6236 51.7679 79.929C48.2915 78.3929 44.8226 78.3328 41.3536 79.909C38.8842 81.031 36.4515 82.2065 33.8498 83.3953C33.4161 83.2083 33.247 82.9212 33.1808 82.6006C31.8653 75.875 30.2705 69.1761 31.3729 62.2634C31.8727 59.1444 33.2396 56.4328 35.6943 54.2488C37.3994 52.7327 38.7593 50.8359 41.2287 49.9209C42.4194 49.8674 43.3893 50.0211 44.3006 50.4084C45.6382 50.9761 45.9395 51.6774 45.3736 52.8929C45.1825 53.307 44.9253 53.6944 44.6828 54.0885C44.2271 54.8365 44.433 55.4575 45.1238 55.9651C45.7339 56.4126 46.2482 56.1722 46.8435 55.8249C50.0479 53.9348 53.414 52.2651 56.1848 49.8206C57.1475 48.9724 58.2355 49.1261 59.36 49.3799C61.8441 49.9476 64.1665 50.9227 66.4522 51.9245C68.8188 52.9598 71.1706 53.6609 73.787 52.7994C73.9634 52.7392 74.1986 52.8528 74.522 52.9797C75.3378 53.7277 75.426 54.5694 75.4848 55.4042C75.551 56.4194 75.1393 57.0472 73.6988 56.6798C72.7433 55.865 72.4275 54.8765 71.9131 53.9949C71.7734 53.7745 71.5677 54.1218 71.7882 53.9615C72.4129 54.7229 72.6257 55.6781 73.3166 56.5864C74.0221 58.2094 74.0956 59.7587 74.0074 61.3082C73.662 67.3459 73.4418 73.4038 71.7587 79.4549L71.7806 79.4415Z" fill="#679441"/>
<path d="M91.342 163.897C91.1068 164.451 90.6364 164.531 90.1366 164.758C87.2409 164.364 84.4996 165.012 81.7435 164.899C80.45 164.845 79.1711 164.805 78.2083 163.843C77.9584 163.589 77.6573 163.449 77.2677 163.476C74.9159 163.63 73.0268 162.501 71.138 161.519C63.0314 157.298 56.2037 151.755 50.1918 145.229C43.7977 138.29 38.7412 130.656 34.1477 122.661C30.9359 117.071 28.6944 111.16 26.0926 105.363C25.7766 104.648 25.4386 103.914 25.8134 102.992C28.2314 102.692 30.5758 102.745 33.06 102.324C34.8533 103.941 35.7795 105.931 36.5733 107.901C39.05 114.046 42.4529 119.769 45.7455 125.56C50.2287 133.448 56.0936 140.347 63.1418 146.465C69.4036 151.895 76.8633 155.348 85.1021 157.525C86.4177 157.872 87.7995 157.585 89.2768 157.919C91.364 159.542 91.6726 161.552 91.3345 163.897H91.342Z" fill="#3E5B2D"/>
<path d="M63.5036 43.4504C65.2748 44.9732 67.1119 46.2089 69.1036 47.204C70.6323 47.9721 71.8965 48.9538 72.9769 50.2963C71.8156 51.2848 70.6031 51.1179 69.2949 50.5769C66.5168 49.4281 63.7752 48.1792 60.8354 47.3777C60.0196 47.1573 59.2114 46.9235 58.3442 46.8835C56.9992 46.8167 55.8525 47.1171 54.8162 47.9453C52.8465 49.5148 50.9355 51.1646 48.6645 52.2333C48.3044 52.2065 48.1576 52.0729 48.1208 51.8726C47.6799 49.1409 45.497 48.1256 42.9026 47.785C41.2784 47.5713 39.9261 47.144 38.7502 46.082C38.1108 45.5076 37.2436 45.1336 36.4793 44.6727C36.4131 44.0649 37.0009 44.1451 37.3316 44.0249C42.2631 42.2884 46.3716 39.4498 50.0537 36.0769C52.2145 34.1 52.9493 31.4619 53.2433 28.8304C53.7724 24.1819 53.5668 19.5468 51.9646 15.0252C51.0386 12.4205 49.6863 10.1028 46.8494 8.87386C43.9096 7.60487 40.8079 7.64501 37.6844 8.26614C37.6182 8.2795 37.5522 8.31295 37.4787 8.32631C36.6482 8.46657 35.7958 9.05418 35.0241 8.69352C34.2451 8.33286 34.6857 7.40454 34.5167 6.73665C34.2374 5.65467 33.4878 4.7932 32.9219 3.83812C33.7671 2.99658 34.8771 2.8963 35.8839 2.72932C42.1898 1.67406 48.1796 2.40871 53.7873 5.37413C56.2788 6.68987 58.0573 8.52658 59.2406 10.8976C60.615 13.656 61.1883 16.5212 61.1221 19.5534C61.0339 23.3069 60.5782 27.0271 60.3136 30.7606C60.0637 34.2803 60.7179 37.7067 61.7982 41.0662C62.0775 41.9411 62.7243 42.6623 63.5107 43.4304L63.5036 43.4504Z" fill="#679441"/>
<path d="M89.4758 157.979C85.5805 158.78 82.1852 157.244 78.7676 156.089C75.8719 155.107 73.145 153.711 70.4772 152.248C68.0371 150.912 65.8101 149.329 63.7154 147.613C59.7614 144.374 56.2777 140.707 52.9043 136.98C50.9273 134.803 49.2739 132.372 47.826 129.867C45.9445 126.615 43.6953 123.549 42.0343 120.19C40.0352 116.149 37.6028 112.288 36.1109 108.027C35.4494 106.144 34.2587 104.407 33.2812 102.464C35.5743 101.809 37.8822 101.302 40.3663 100.801C40.2855 102.651 41.3729 104.2 42.0637 105.777C43.2544 108.468 44.4156 111.166 45.4005 113.925C46.6719 117.485 48.5903 120.797 50.1705 124.237C51.9932 128.204 54.6683 131.671 57.2627 135.204C58.909 137.454 60.9154 139.465 62.885 141.482C64.5313 143.165 66.0379 144.981 67.9414 146.444C69.9846 148.027 71.7926 149.911 74.218 151.026C77.4812 152.535 80.6562 154.339 84.7058 154.345C85.3011 154.432 85.6467 154.793 86.0436 154.773C88.469 154.633 89.0495 156.169 89.4758 157.979Z" fill="#4E6F36"/>
<path d="M52.9192 83.3167C52.8237 83.8777 52.6474 84.2984 52.5004 84.7259C52.0594 86.0349 52.1329 86.4891 53.3897 87.117C54.154 87.5043 54.0585 87.8316 53.9997 88.4728C53.794 90.59 52.405 91.8657 50.4721 92.6605C49.2153 93.1747 48.7595 94.2968 47.7232 94.9981C44.585 97.1086 41.2043 98.6179 37.3825 99.2324C33.3844 99.8802 29.3786 99.7067 25.3437 99.3327C22.1099 99.0321 18.972 98.2573 15.7308 97.9701C14.0551 97.8232 12.2911 97.3556 10.6228 96.848C10.2259 96.7277 9.7924 96.581 9.48372 96.3338C7.03633 94.3369 5.05176 92.066 4.14777 89.1006C3.89789 88.2857 3.99363 87.7113 4.72124 87.2505C5.47824 86.7763 6.19093 86.7696 7.07287 87.2371C9.52027 88.5328 12.1366 89.4612 15.2087 89.5814C15.4071 90.8504 13.9741 91.378 13.7463 92.3665C17.6563 95.3853 22.2863 93.5219 26.1081 94.0094C26.1228 94.0094 25.6304 94.1164 24.8808 93.4686C30.1945 91.9792 35.611 91.2379 40.2412 88.3125C40.5426 88.1522 40.7118 88.0586 41.0132 87.9117C41.3218 87.7848 41.5057 87.7447 41.8364 87.7581C42.1451 87.865 42.2259 87.9851 42.2039 88.1654C42.248 88.0051 42.2329 87.8449 42.2329 87.5711C43.1296 86.2821 44.1954 85.574 45.827 85.3403C47.6938 85.0664 49.2959 84.225 49.4723 82.0543C50.097 81.7137 50.6115 81.7271 51.295 81.9475C52.1181 82.188 52.3755 82.7891 52.912 83.31L52.9192 83.3167Z" fill="#3F483D"/>
<path d="M22.5017 48.8535C26.125 47.6112 29.5202 46.055 33.4302 46.4824C34.2166 46.5692 34.9737 46.6093 35.7822 47.1035C35.7234 48.1855 34.8707 48.7332 34.1651 49.341C32.144 51.0842 30.439 53.0411 28.8809 55.1382C27.6168 56.8413 26.7203 58.6179 26.4704 60.6483C26.0294 64.2349 25.3459 67.8215 25.3827 71.4214C25.4268 75.3486 25.8237 79.2758 26.6983 83.1429C26.9261 84.1447 27.2569 85.1666 26.5587 86.2953C24.7727 87.0032 23.0307 87.3572 21.0831 87.611C20.1277 87.07 19.775 86.2886 19.5472 85.4738C16.9234 75.8963 15.7768 66.2386 17.8641 56.434C18.4888 53.5154 19.8265 50.9439 22.487 48.8535H22.5017Z" fill="#3E5B2D"/>
<path d="M26.5952 86.4235C26.5805 83.8988 25.559 81.5077 25.3532 79.0232C25.3311 78.7694 25.1693 78.5157 25.1913 78.2753C25.4265 75.8241 24.5228 73.4263 24.7359 70.9818C24.927 68.7511 25.2137 66.5337 25.4709 64.3096C25.7061 62.2726 25.8384 60.2356 26.4043 58.2319C26.566 57.6642 26.7644 57.1231 27.0951 56.6289C29.4396 53.1559 32.181 49.9834 35.7603 47.2852C36.554 47.3186 37.0241 47.7126 37.4724 48.1267C38.494 49.0684 39.6996 49.6629 41.2871 49.8566C39.119 51.6866 36.9579 53.5834 35.0691 55.6538C33.3125 57.5773 32.2689 59.8815 31.9308 62.4863C31.6515 64.6102 31.4166 66.7274 31.615 68.8245C31.9384 72.2642 32.3057 75.7039 33.048 79.1034C33.3346 80.4192 33.7389 81.7282 33.7022 83.2577C31.8868 84.4332 30.1157 85.4884 27.9108 86.0695C27.683 86.1362 27.6095 86.1897 27.4185 86.2966C27.1098 86.3767 26.9259 86.4034 26.5952 86.4301V86.4235Z" fill="#4E6F36"/>
<path d="M89.5367 158.221C89.1619 157.547 88.9192 156.959 88.5811 156.411C88.1401 155.696 87.9196 154.695 86.5011 155.369C85.9131 155.65 85.3696 155.095 84.958 154.467C84.9286 154.227 84.9579 154.1 85.024 153.987C85.661 152.958 85.4209 151.921 84.3038 150.874C84.1935 151.863 83.7673 152.564 82.6354 152.41C82.0034 152.324 81.5918 151.91 81.5771 151.355C81.5551 150.22 82.4739 150.026 83.5469 150.006C74.0513 137.53 66.1724 124.539 65.1361 108.938C64.4012 108.984 64.4086 109.565 64.0926 109.826C63.1298 110.634 62.1374 110.594 61.3731 109.646C60.8513 108.991 60.6749 108.243 60.8807 107.448C61.0571 106.767 61.5421 106.306 62.2624 106.092C63.0634 105.859 63.6295 106.219 64.0631 106.794C64.2542 107.048 64.4234 107.315 64.9305 107.575C64.9305 106.413 64.8422 105.244 64.9524 104.089C65.0626 102.993 64.9084 101.751 66.709 101.404C67.5763 101.237 67.2527 100.195 67.4512 99.3801C68.2817 99.153 68.7888 99.2933 68.7668 100.242C68.7227 102.305 68.7448 104.376 68.8403 106.44C69.0535 110.988 70.2366 115.363 71.633 119.711C73.5806 125.789 75.7047 131.799 78.2917 137.677C81.0919 144.028 85.1194 149.705 89.8378 155.002C90.8227 156.111 91.8078 157.226 92.3517 158.575C93.116 160.465 93.4687 162.349 91.4696 164.005C91.2418 162.028 90.9183 160.058 89.5292 158.221H89.5367Z" fill="#EDF0E9"/>
<path d="M25.7509 102.86C25.8906 103.675 26.177 104.41 26.4783 105.125C28.0805 108.905 29.5577 112.745 31.3951 116.439C33.8499 121.361 36.643 126.13 39.5607 130.845C42.0669 134.899 44.9624 138.706 48.1889 142.293C51.9004 146.42 55.6342 150.534 60.213 153.974C63.6085 156.532 67.1729 158.816 70.9064 160.92C72.4939 161.815 74.2136 162.383 75.8893 163.077C75.9554 163.104 76.0289 163.117 76.0877 163.151C76.977 163.685 77.3741 162.229 78.1458 162.683C78.7264 163.031 78.4692 163.959 79.5055 164.206C81.3429 164.633 83.2242 164.647 84.9954 164.373C86.6711 164.113 88.2 164.139 89.8903 164.694C88.6924 165.655 87.2002 165.956 85.598 165.929C84.253 165.909 82.9156 165.876 81.3795 165.842C80.9312 165.829 80.6885 165.769 80.3284 165.682C75.4704 164.921 71.0606 163.365 66.8566 161.261C61.5356 158.596 56.5747 155.45 52.2606 151.576C48.0566 147.803 44.4995 143.542 41.4347 138.907C34.9598 129.109 30.0796 118.669 25.8977 107.936C25.3759 106.601 25.0307 105.211 24.5383 103.862C24.1708 102.854 24.7367 102.747 25.7509 102.86Z" fill="#758F55"/>
<path d="M84.4646 87.0827C84.8688 87.1294 85.17 87.1695 85.6183 87.2296C86.243 88.5119 87.5584 88.6655 88.7638 89.1998C88.8446 89.4135 88.8446 89.5071 88.7491 89.7275C87.0293 90.4622 86.0814 91.8848 84.5306 92.6395C78.651 95.5181 72.7272 93.8951 66.8034 92.9066C66.2522 92.8131 65.7744 92.4791 65.0468 92.3589C64.4662 92.212 64.0769 92.0383 63.6139 91.6977C63.1508 90.4287 63.9224 90.0548 64.8925 89.7542C64.525 89.2867 62.9083 89.2266 63.9372 87.9376C64.2091 87.597 63.7975 87.3631 63.4961 87.2028C61.9527 86.3613 62.019 85.099 62.5261 83.8233C62.7981 83.1354 62.8641 82.4542 62.9891 81.6127C65.3483 80.3704 67.4502 80.7845 69.5301 82.2605C70.0078 82.9084 70.4267 83.3492 71.3822 83.0753C72.8447 83.1154 73.6972 83.9437 74.6159 84.6383C77.1589 86.5685 80.084 87.2362 83.4942 86.8422C83.7294 86.8221 83.8104 86.8089 84.0088 86.7955C84.1632 86.9291 84.2439 87.0226 84.4718 87.0827H84.4646Z" fill="#586159"/>
<path d="M42.3154 87.8986C42.0508 88.0055 41.867 88.0054 41.5363 88.0121C41.2937 88.0923 41.1907 88.1724 41.0364 88.3327C36.4356 91.4985 31.0706 92.5739 25.6687 93.6492C26.0656 94.0566 26.8003 93.5958 27.2413 93.9832C27.3148 94.09 27.2486 94.1634 27.0575 94.1968C23.9781 94.711 20.8621 94.5909 17.7533 94.6042C16.7464 94.6042 15.8203 94.6309 15.1515 93.6825C14.637 92.9545 13.439 93.1415 12.7188 92.527C13.0642 92.1597 13.8798 92.0462 13.7989 91.5252C13.6225 90.3831 14.8428 90.4299 15.3499 89.7353C17.4887 90.1962 19.5465 89.6551 21.6118 89.3813C22.92 89.2077 24.2132 88.9405 25.6831 88.7402C31.9596 88.266 36.8398 84.9199 42.3078 82.9296C44.5274 82.1214 46.7397 81.1596 49.3634 82.0546C49.5545 82.5355 49.5473 82.9363 49.6943 83.2836C49.9589 83.9047 49.6353 84.3455 49.1356 84.5659C47.8274 85.1269 46.622 85.9617 45.108 86.0419C44.3216 86.0819 43.6086 86.0152 43.5498 87.0638C43.5351 87.3242 42.7931 87.5513 42.3154 87.8919V87.8986Z" fill="#586159"/>
<path d="M22.4552 48.7684C22.4846 50.0641 21.1615 50.7321 20.456 51.734C18.8317 54.0448 18.4056 56.6228 17.9059 59.2009C17.1709 62.9611 17.3177 66.7747 17.5309 70.5483C17.7587 74.569 18.376 78.5696 19.3388 82.5168C19.7357 84.1464 20.2063 85.7562 20.8898 87.4593C20.0079 87.8066 19.3905 87.5794 19.192 86.671C19.1112 86.297 18.9419 85.9298 18.7876 85.4222C18.5671 85.1149 18.5672 84.8879 18.479 84.5806C17.2663 80.6267 15.7523 76.8398 15.1423 72.8659C14.275 67.2222 13.812 61.5519 15.3113 55.9283C16.2373 52.4553 18.2584 49.7903 22.4624 48.7617L22.4552 48.7684Z" fill="#758F55"/>
<path d="M63.4822 91.4001C63.9011 91.6005 64.2391 91.7073 64.7095 91.8542C66.8482 93.6174 69.3545 93.8179 71.9194 93.8246C74.0214 93.8246 76.0279 94.3588 78.1813 94.3588C82.6277 94.3588 85.8323 92.6757 88.6619 89.6769C88.7721 89.5767 88.7719 89.5567 88.7792 89.5634C89.6612 88.7887 88.5515 88.1875 88.6544 87.3794C89.0218 87.2391 89.3013 87.2191 89.5806 87.1723C90.1612 87.0721 90.7637 86.5646 91.3003 87.2525C91.7853 87.8804 91.8515 88.5215 91.4987 89.2562C91.0136 90.2848 90.2714 91.1797 89.3821 91.8743C87.045 93.7176 84.7151 95.6413 81.4225 95.9953C81.2829 96.0086 81.1357 96.1221 81.0181 96.0954C78.8794 95.5677 76.6965 96.5362 74.5578 95.9418C73.2716 95.5878 71.9122 95.7081 70.582 95.4943C67.8479 95.0602 65.2682 94.232 62.6518 93.484C62.2402 93.3638 61.7846 93.2702 61.6229 92.8828C60.6969 90.6921 58.7932 88.8288 58.8887 86.3042C58.9181 85.6163 58.3007 85.3157 58.0508 84.6545C58.7269 83.7729 59.4545 83.085 60.7774 83.1184C61.3874 83.4523 61.52 83.913 61.4392 84.3538C61.079 86.3108 61.6303 88.1676 62.1888 90.1312C62.3285 90.2915 62.3873 90.3516 62.5563 90.4919C62.9532 90.7791 63.2176 91.0061 63.4822 91.4068V91.4001Z" fill="#3F483D"/>
<path d="M73.1758 56.0062C74.9397 56.7142 75.1455 56.614 75.1161 55.1981C75.1014 54.5703 74.925 53.9759 74.6751 53.2345C75.4542 53.0876 75.469 53.6552 75.5866 54.1495C76.204 56.8744 76.2848 59.6262 76.1378 62.4046C75.91 66.6724 74.8073 70.7933 73.6976 74.9142C73.3154 76.3501 72.9041 77.7794 72.5219 79.2153C72.4337 79.5559 72.3159 79.823 71.75 79.6694C72.654 73.5916 73.1392 67.5607 73.5655 61.5363C73.6831 59.8065 73.4111 58.07 72.8011 56.22C72.8305 56.0396 72.9332 56.0196 73.1905 56.0196L73.1758 56.0062Z" fill="#EDF0E9"/>
<path d="M49.6654 82.1672C47.3944 81.9001 45.4026 82.2407 43.499 83.0021C40.7283 84.1175 37.9502 85.1861 35.3044 86.5553C32.5483 87.9846 29.5937 89.0866 26.0586 88.7594C27.3007 87.6907 29.1308 87.3368 30.7845 86.6556C34.8194 84.9992 38.5895 82.8152 42.9478 81.4661C43.1904 81.2991 43.3152 81.2121 43.5651 81.152C43.9546 81.1186 44.234 81.0786 44.6456 80.9984C44.9102 80.8849 45.035 80.8115 45.2776 80.7714C47.4604 80.6045 49.5037 80.5844 51.5028 81.7064C51.6865 81.86 51.738 81.9401 51.7159 82.1539C51.0398 82.2407 50.4443 82.2073 49.6579 82.1739L49.6654 82.1672Z" fill="#818A8C"/>
<path d="M61.1372 83.2153C59.9172 83.3021 59.3514 84.3041 58.1755 84.4643C57.4259 83.5961 58.1899 83.0818 58.7558 82.5675C60.5564 80.9178 62.6367 79.8559 65.5103 80.2566C65.8999 80.4236 66.1497 80.437 66.5245 80.4771C67.355 80.6641 68.0677 80.8443 68.9203 81.0647C69.1628 81.1449 69.2512 81.1783 69.4643 81.2986C70.0302 81.5524 70.4711 81.7193 71.0444 81.9464C71.2722 81.9998 71.3752 81.9931 71.5296 82.1134C72.3601 82.621 73.1389 83.0017 74.0355 83.4558C74.256 83.536 74.3592 83.5359 74.5135 83.6627C75.8438 84.4175 77.0342 85.2124 78.6731 85.4595C78.9303 85.4862 79.0333 85.4795 79.239 85.5797C80.4885 85.9537 81.635 86.2208 82.9432 86.508C83.2519 86.5414 83.3694 86.5948 83.5605 86.7351C83.656 86.7685 83.6341 86.802 83.6341 86.822C82.7815 87.5901 81.8115 87.57 80.6871 87.4364C77.7693 87.1025 75.2926 86.0606 73.2421 84.1505C72.7864 83.7297 72.1836 83.5158 71.4266 83.3288C70.6696 83.7429 70.214 83.3556 69.6628 82.9415C67.818 81.1516 65.65 81.205 63.2908 81.7393C62.666 82.4406 61.9751 82.8079 61.1372 83.2086V83.2153Z" fill="#818A8C"/>
<path d="M32.8405 7.40403C32.8405 7.88491 32.8993 8.21895 32.8111 8.51282C32.5833 9.23414 31.8557 9.42781 31.2016 8.99368C30.3197 8.40594 29.8859 5.928 30.5327 5.0731C30.9149 4.57219 31.3631 4.68569 31.7747 5.03299C32.4729 5.62741 32.8183 6.37548 32.8477 7.40403H32.8405Z" fill="#3E5B2D"/>
<path d="M88.5567 87.2584C88.7993 87.5189 88.8873 87.7393 89.1299 87.9063C89.8648 88.4139 89.7986 88.9593 88.9314 89.5426C88.3949 89.0817 87.8145 89.1151 87.2853 89.1685C85.8889 89.3088 85.6608 88.5875 85.7637 87.4121C86.631 87.2518 87.4982 87.2451 88.5492 87.2584H88.5567Z" fill="#50584D"/>
<path d="M51.6992 82.3938C51.6404 82.2001 51.6328 82.1133 51.6328 81.9062C52.5589 81.933 53.2644 82.2602 53.0733 83.3622C52.3604 83.3555 52.015 82.9749 51.6917 82.3938H51.6992Z" fill="#586159"/>
<path d="M80.3047 165.707C80.4664 165.64 80.7235 165.661 81.0762 165.754C80.9146 165.921 80.6501 165.934 80.3047 165.707Z" fill="#3F483D"/>
<path d="M18.4066 84.5938C18.5389 84.6739 18.6493 84.8608 18.7522 85.168C18.517 85.1413 18.3992 84.9544 18.4066 84.5938Z" fill="#50584D"/>
<path d="M66.5456 80.4112C66.3766 80.5916 66.1193 80.5915 65.7812 80.3644C65.9429 80.291 66.1929 80.3111 66.5456 80.4112Z" fill="#586159"/>
<path d="M84.5018 87.0235C84.5606 87.0903 84.3547 87.0903 84.3547 87.0903C84.3547 87.0903 84.193 86.9768 84.1562 86.8966C84.2444 86.8365 84.3475 86.8832 84.5018 87.0302V87.0235Z" fill="#3F483D"/>
<path d="M83.603 86.6849C83.5295 86.7384 83.3972 86.7117 83.1914 86.6049C83.2649 86.5514 83.4046 86.5781 83.603 86.6849Z" fill="#3F483D"/>
<path d="M27.3883 86.3341C27.3589 86.2406 27.4472 86.1605 27.6603 86.0938C27.6971 86.1873 27.6088 86.274 27.3883 86.3341Z" fill="#3E5B2D"/>
<path d="M79.2995 85.5999C79.2187 85.7067 79.0939 85.6867 78.9102 85.5531C78.9763 85.4997 79.1084 85.5064 79.2995 85.5999Z" fill="#50584D"/>
<path d="M74.5601 83.7041C74.4572 83.7842 74.3545 83.7442 74.2148 83.5973C74.3104 83.4637 74.4351 83.4904 74.5601 83.7041Z" fill="#586159"/>
<path d="M71.5685 82.1533C71.473 82.2401 71.3701 82.2001 71.2305 82.0665C71.3187 81.9263 71.4436 81.9462 71.5685 82.1533Z" fill="#586159"/>
<path d="M69.5291 81.2929C69.4262 81.4064 69.294 81.3729 69.125 81.1926C69.2058 81.1392 69.338 81.1727 69.5291 81.2929Z" fill="#586159"/>
<path d="M43.5631 81.1445C43.5631 81.238 43.4383 81.3181 43.2031 81.3983C43.2031 81.3114 43.3279 81.218 43.5631 81.1445Z" fill="#3F483D"/>
<path d="M45.2767 80.7734C45.262 80.8669 45.1297 80.9271 44.8945 80.9805C44.9092 80.8937 45.0342 80.8202 45.2767 80.7734Z" fill="#3F483D"/>
<path d="M64.7308 128.608C64.378 128.388 64.1208 128.241 63.9812 128.034C63.6431 127.533 63.7384 127.032 64.1721 126.624C64.613 126.204 65.179 126.157 65.7303 126.424C66.2815 126.691 66.6123 127.199 66.3698 127.706C65.9729 128.535 66.0758 128.975 67.1047 129.229C67.5824 129.343 67.9866 129.857 67.8102 130.291C67.406 131.273 67.7072 131.627 68.795 131.961C69.9194 132.301 70.3974 133.564 69.9344 134.345C69.5301 135.026 68.8463 135.354 67.9864 135.227C66.8767 135.06 65.8992 133.964 66.2226 132.956C66.5019 132.094 66.5828 131.66 65.5465 131.213C64.863 130.919 64.8779 130.158 65.3556 129.523C65.5761 129.229 66.0902 129.162 66.1343 128.728C65.7007 128.421 65.2747 128.788 64.7308 128.608Z" fill="#EDF0E9"/>
<path d="M65.6433 122.571C65.8858 122.966 66.1138 123.239 66.1726 123.533C66.3858 124.615 66.0329 125.343 65.1657 125.59C64.2543 125.851 63.5048 125.57 62.9536 124.876C62.351 124.121 62.3363 122.972 62.9536 122.385C63.6371 121.737 64.4159 121.697 65.217 122.218C65.3272 122.291 65.4303 122.384 65.6361 122.571H65.6433Z" fill="#EDF0E9"/>
<path d="M75.0789 143.031C76.3724 142.47 77.1367 142.964 77.5923 143.865C77.9451 144.56 77.7759 145.281 77.0336 145.729C76.2913 146.176 75.5342 146.016 74.9389 145.448C74.1378 144.687 74.0571 143.886 75.0713 143.031H75.0789Z" fill="#EDF0E9"/>
<path d="M64.274 116.921C64.4357 117.448 64.3402 117.823 64.0242 118.11C63.5318 118.557 62.9732 118.718 62.3264 118.33C61.6797 117.943 61.5916 117.395 61.8635 116.827C62.1501 116.233 62.7159 116.019 63.4288 116.206C63.789 116.3 64.0314 116.52 64.274 116.928V116.921Z" fill="#EDF0E9"/>
<path d="M78.13 146.273C79.3941 146.688 80.0114 147.649 80.8419 148.397C81.0992 148.631 81.18 148.972 80.8566 149.232C80.7244 149.339 80.4081 149.426 80.2979 149.359C79.2249 148.678 78.1373 147.983 77.689 146.788C77.6449 146.674 77.8799 146.474 78.1372 146.273H78.13Z" fill="#EDF0E9"/>
<path d="M61.5122 112.803C61.4681 112.135 61.7549 111.875 62.3649 112.048C62.6662 112.135 62.7764 112.429 62.6735 112.65C62.453 113.117 62.093 113.331 61.5198 112.797L61.5122 112.803Z" fill="#EDF0E9"/>
<path d="M49.6819 62.9547C46.0071 61.1981 42.4864 61.2717 38.944 62.8813C38.356 63.1484 37.6947 63.8764 37.0553 63.3488C36.3571 62.7677 37.0552 62.0064 37.3197 61.3986C38.3413 59.0343 41.384 57.3312 44.2724 57.4046C46.9182 57.4714 49.9391 59.4015 50.8945 61.6323C51.3061 62.594 51.2179 62.7142 49.6819 62.9613V62.9547Z" fill="#2B2A28"/>
<path d="M47.4734 71.62C47.2382 72.9491 46.6795 73.9777 45.7314 74.7925C44.2983 76.0214 42.5124 75.8276 41.3658 74.365C39.5652 72.0608 39.8296 67.4456 41.8801 65.3084C43.3941 63.7255 44.923 63.7923 46.6943 65.6423C46.7163 65.8494 46.6648 65.9296 46.4811 66.0698C45.2831 66.1967 43.9747 65.8427 43.7175 67.3321C43.5411 68.3406 43.35 69.4159 44.254 70.2107C45.3932 71.2192 46.0621 69.7365 47.1719 69.6964C47.7452 70.2775 47.4952 70.892 47.4658 71.62H47.4734Z" fill="#2B2A28"/>
<path d="M68.8155 72.0109C68.6244 73.2799 68.0876 74.255 67.2498 75.0632C65.8607 76.4056 64.0971 76.2721 62.9506 74.7493C62.0393 73.5404 61.8114 72.1512 61.8335 70.7085C61.8629 69.0121 62.1419 67.3757 63.2958 65.9799C64.6187 64.3702 65.9418 64.2768 67.838 65.7061C67.9997 66.0133 67.9775 66.187 67.6908 66.4141C66.7354 66.5944 65.8021 66.4875 65.3611 67.3691C64.8613 68.3643 64.6555 69.4463 65.5007 70.2879C66.7281 71.5101 67.4115 69.8336 68.5507 69.7201C69.0872 70.4414 68.8376 71.1627 68.8155 72.0109Z" fill="#2B2A28"/>
<path d="M63.1722 59.1924C66.8322 57.6362 70.8229 59.199 71.9033 62.4649C72.0356 62.8657 72.0945 63.233 71.6683 63.5002C71.3449 63.7006 70.992 63.6404 70.6613 63.4735C70.6025 63.4401 70.5363 63.4134 70.4776 63.3733C67.4936 61.0291 64.3334 61.51 61.1216 62.9059C60.7541 63.0661 60.3574 63.3866 59.9973 62.9592C59.7547 62.672 59.9825 62.3448 60.1222 62.0509C60.7101 60.7953 61.9595 60.114 63.1722 59.1924Z" fill="#2B2A28"/>
<path d="M63.7154 53.4133C64.6929 53.8074 65.5383 54.1279 66.3541 54.5019C66.6628 54.6422 66.9568 54.8892 66.751 55.2699C66.582 55.5905 66.2291 55.7442 65.869 55.644C65.0679 55.4102 64.2741 55.1498 63.5098 54.8292C61.9076 54.1613 60.4084 53.3198 58.9899 52.3647C58.5342 52.0575 57.9978 51.6967 58.4975 51.1224C58.9385 50.6081 59.3719 51.0489 59.7762 51.2693C61.0403 51.9639 62.3045 52.6586 63.7082 53.4133H63.7154Z" fill="#EDF0E9"/>
<path d="M47.5179 71.6283C47.2754 71.1608 47.5397 70.5195 47.0546 69.8516C46.0771 68.7362 46.3786 67.5207 46.3125 66.2317C46.4301 66.018 46.4815 65.9511 46.6506 65.8242C47.3855 66.2316 47.7603 66.8328 47.7677 67.5541C47.7824 68.8698 47.9808 70.1923 47.5104 71.6283H47.5179Z" fill="#3F483D"/>
<path d="M68.8627 72.0251C68.5981 71.4306 68.9216 70.6559 68.3851 69.8544C67.5987 69.1131 67.7165 68.3451 67.8855 67.4234C68.0105 67.1763 68.0765 67.0828 68.319 66.9492C69.5758 68.492 69.1714 70.2017 68.8627 72.0251Z" fill="#3F483D"/>
<path d="M57.4471 53.9686C57.3002 54.2224 57.1825 54.4028 57.0061 54.4696C56.4769 54.6766 56.0142 54.5831 55.9701 53.9887C55.9407 53.4945 56.4108 53.4077 56.8371 53.4144C57.1237 53.4144 57.3444 53.5746 57.44 53.962L57.4471 53.9686Z" fill="#EDF0E9"/>
<path d="M59.6694 54.3906C60.2353 54.8448 60.2281 55.2055 59.6034 55.4326C59.3535 55.5261 59.0006 55.486 58.8903 55.2322C58.6551 54.6912 58.9639 54.4173 59.6694 54.3973V54.3906Z" fill="#EDF0E9"/>
<path d="M73.2781 55.9051C73.2267 56.032 73.1313 56.0587 72.874 56.0587C72.3228 55.3174 71.9036 54.596 71.6758 53.3203C72.6827 54.2286 72.624 55.1972 73.2781 55.9051Z" fill="#818A8C"/>
<path d="M67.3711 66.4133C67.5475 66.1996 67.6724 66.1128 67.8635 65.9258C68.253 66.026 68.3339 66.3533 68.4588 66.7874C68.4294 66.9544 68.3632 67.0011 68.2015 67.1213C67.6723 67.1414 67.4299 66.9076 67.3711 66.4133Z" fill="#3F483D"/>
<path d="M76.5654 160.324C76.661 160.845 76.389 160.945 75.9995 160.838C75.7864 160.784 75.6465 160.584 75.7494 160.411C75.8964 160.163 76.1833 160.15 76.5654 160.324Z" fill="#679441"/>
<path d="M42.2344 88C42.2858 88.0534 42.3374 88.1135 42.3962 88.167C42.3595 88.1469 42.3228 88.127 42.2566 88.0535C42.2346 88.0001 42.2344 88 42.2344 88Z" fill="#50584D"/>
<path d="M41.0585 88.3541C40.9997 88.2673 41.0729 88.1604 41.3007 88.0469C41.3521 88.1337 41.2716 88.2339 41.0585 88.3541Z" fill="#50584D"/>
<path d="M88.6244 89.582C88.7714 89.7023 88.8009 89.8425 88.7568 89.9561C88.3232 91.1049 85.3026 93.7563 84.0826 93.763C82.6862 93.7697 81.8336 95.0654 80.5622 94.9051C79.3568 94.7515 78.2544 94.6713 77.027 94.8917C75.9172 95.0988 74.6309 95.3326 73.5873 94.4376C73.2051 94.1036 72.6392 94.2238 72.1468 94.2171C71.4339 94.2038 70.7284 94.2105 70.0155 94.2171C67.9576 94.2372 66.0686 93.9099 64.8633 92.0264C65.4218 91.8461 65.9436 92.0064 66.4728 92.2335C68.6262 93.1352 70.9415 93.3489 73.2786 93.4424C74.969 93.5092 76.6595 93.3356 78.3426 93.763C79.1878 93.9767 80.1797 93.9901 81.0617 93.6228C82.5977 92.9883 84.0531 92.2069 85.648 91.6659C86.4711 91.3854 85.42 91.2051 85.3465 90.811C86.4122 90.5305 87.4781 90.123 88.6319 89.5887L88.6244 89.582Z" fill="#50584D"/>
<path d="M60.9988 83.4167C61.3001 82.4216 62.1453 82.2078 63.0346 81.8672C63.5491 82.5284 63.8062 83.1563 63.1007 83.8108C62.4686 84.3919 62.726 85.1532 62.7701 85.8411C62.8216 86.6826 63.5856 86.7628 64.2985 86.9098C64.8498 87.0233 65.1218 87.4708 65.1071 87.9317C65.085 88.5995 64.2692 88.2188 63.9458 88.5327C64.034 88.8867 64.4382 88.9668 64.6807 89.1872C64.8792 89.3675 65.1145 89.5078 65.3349 89.6748C64.747 90.1957 63.9607 90.523 63.6006 91.3779C63.1963 91.3178 62.8214 91.1307 62.3657 90.8369C62.035 90.4361 60.9915 90.6366 61.5647 89.775C61.675 89.6147 61.5648 89.2674 61.4545 89.0604C60.5506 87.4775 60.7414 85.8212 61.0207 84.1515C61.0501 83.9645 61.0207 83.7707 61.0207 83.4167H60.9988Z" fill="#50584D"/>
<path d="M69.5977 82.9492C70.0607 82.9559 70.5239 83.1162 71.134 83.2965C70.6268 83.8308 70.0239 83.9844 69.5977 82.9492Z" fill="#50584D"/>
<path d="M46.2379 66.0055C46.9802 67.141 47.1198 68.2631 46.914 69.5989C46.6788 70.0797 46.4951 70.4537 46.1937 70.7075C45.2457 71.5023 44.1948 71.3687 43.5407 70.3401C42.7837 69.1446 42.7911 67.8624 43.4011 66.6201C43.967 65.4647 44.6063 65.331 46.2526 66.0055H46.2379Z" fill="#EDF0E9"/>
<path d="M67.283 66.2507C67.5916 66.5312 67.7535 66.785 68.0107 67.1123C68.2386 67.9338 68.356 68.6751 68.2311 69.5968C67.2756 71.2732 66.7172 71.6271 65.7912 71.3332C64.9239 71.0594 64.4535 70.111 64.4903 68.7419C64.5417 66.8451 65.2471 66.1705 67.283 66.2573V66.2507Z" fill="#EDF0E9"/>
<path d="M62.6133 88.1421C62.8191 88.0886 62.8926 88.142 62.8264 88.2489C62.8117 88.2689 62.6574 88.2155 62.6133 88.1421Z" fill="#586159"/>
<path d="M62.2852 90.7244C62.3366 90.7578 62.2779 90.4773 62.344 90.7111C62.2852 90.7378 62.2925 90.7178 62.2852 90.7244Z" fill="#586159"/>
</svg>
