<svg width="1958" height="4007" viewBox="0 0 1958 4007" fill="none" xmlns="http://www.w3.org/2000/svg">
<path d="M1605.86 3642.11C1584.77 3643.15 1563.68 3644.06 1542.59 3645.1C1538.43 3645.36 1533.75 3645.23 1531.01 3642.24C1527.89 3638.99 1528.54 3633.78 1529.32 3629.36C1545.2 3544.88 1561.08 3460.54 1577.09 3376.06C1583.08 3344.56 1588.67 3310.2 1574.09 3281.57C1563.16 3259.96 1542.46 3245.25 1522.55 3231.46C1467.62 3193.58 1410.22 3153.88 1379.63 3094.53C1373.9 3083.33 1369.09 3071.23 1368.83 3058.6C1368.57 3045.98 1373.52 3032.7 1383.93 3025.54C1393.95 3018.64 1407.36 3018.38 1419.07 3021.9C1430.66 3025.54 1440.94 3032.44 1450.96 3039.34C1498.34 3071.88 1545.85 3104.29 1593.23 3136.83C1635.27 3165.6 1680.43 3198.78 1692.54 3248.25C1701.26 3283.78 1690.85 3320.88 1680.44 3356.02C1653.62 3447.26 1626.68 3538.63 1605.86 3641.85V3642.11Z" fill="#3C5B31" stroke="#231F20" stroke-width="5" stroke-miterlimit="10"/>
<path d="M1654.01 3724.89C1595.17 3707.97 1540.64 3708.44 1488.7 3740.85C1477.25 3757.95 1449.3 3883.11 1459.94 3924.27C1459.68 3944.31 1466.68 3977.87 1481.51 3991.4C1481.51 3997.4 1504.79 4008.46 1523.47 4005.79C1537.33 4003.81 1585.81 3997.96 1636.16 3996.2C1677.31 3994.76 1720.51 3996.98 1740.46 3998.6C1767.03 4000.75 1832.94 3998.09 1873.53 3990.2C1909.86 3983.14 1922.31 3971.26 1926.28 3965.03C1961.55 3935.74 1965.09 3871.84 1946.22 3830.06C1927.47 3788.15 1889.79 3763.57 1844.76 3755.24C1799.59 3746.9 1748.15 3756.77 1706.89 3776.81C1695.05 3782.54 1685.95 3798.44 1673.33 3794.8C1662.65 3791.67 1648.82 3758.83 1650.55 3752.84C1654.01 3740.85 1646.59 3735.69 1653.88 3724.76L1654.01 3724.89Z" fill="white"/>
<path d="M1675.89 3730.35C1670.81 3736.21 1661.7 3736.86 1654.28 3734.51C1646.86 3732.17 1640.35 3727.62 1633.19 3724.49C1609.89 3714.21 1582.95 3720.07 1558.74 3727.88C1534.53 3735.69 1509.67 3745.32 1484.42 3742.07C1474.92 3740.89 1465.16 3737.38 1459.43 3729.83C1452.79 3721.11 1452.79 3708.48 1457.87 3698.85C1462.95 3689.09 1472.05 3682.19 1482.08 3677.76C1492.1 3673.34 1502.91 3671.26 1513.71 3669.3C1533.88 3665.53 1553.92 3661.63 1574.1 3657.85C1592.97 3654.21 1612.24 3650.69 1631.37 3653.03C1650.51 3655.38 1669.64 3664.75 1679.01 3681.54C1687.99 3697.55 1686.04 3718.76 1676.01 3730.35H1675.89Z" fill="white" stroke="#231F20" stroke-width="2.15" stroke-miterlimit="10"/>
<path d="M1487.15 3749.9C1469.45 3816.41 1451.61 3885.79 1465.28 3953.21C1468.14 3967.53 1472.96 3982.24 1483.76 3992C1493.65 4000.85 1507.45 4004.49 1520.73 4004.75C1534.01 4005.01 1547.15 4002.28 1560.3 4000.33C1658.57 3985.23 1759.57 4006.44 1857.85 3991.09C1882.71 3987.18 1908.34 3980.41 1926.83 3963.49C1942.71 3948.92 1951.95 3927.96 1955.2 3906.61C1964.19 3849.47 1929.95 3788.3 1876.59 3766.04C1852.12 3755.89 1825.17 3753.28 1798.75 3754.85C1763.87 3756.8 1728.98 3765.65 1699.05 3783.74C1669.11 3801.83 1644.51 3829.43 1632.92 3862.49" stroke="#231F20" stroke-width="2.15" stroke-miterlimit="10"/>
<path d="M1652.98 3735.71C1648.29 3745.6 1647.64 3757.31 1650.9 3767.86C1654.15 3778.4 1661.7 3787.38 1671.2 3792.85" stroke="#231F20" stroke-width="2.15" stroke-miterlimit="10"/>
<path d="M1943.64 3935.12C1914.87 3951.66 1882.07 3960.25 1849.01 3964.02C1816.08 3967.66 1782.76 3966.62 1749.57 3965.06" stroke="#231F20" stroke-miterlimit="10"/>
<path d="M1471.91 3958.26C1532.7 3967.63 1594.78 3969.19 1655.96 3962.94" stroke="#231F20" stroke-miterlimit="10"/>
<path d="M759.902 3341.98C776.563 3321.41 803.899 3312.56 830.321 3309.96C856.614 3307.35 883.294 3310.22 909.587 3307.88C976.359 3302.28 1037.53 3264.4 1081.53 3213.9C1125.52 3163.4 1153.64 3100.92 1174.2 3037.27C1180.58 3017.62 1186.57 2996.92 1200.62 2981.69C1214.68 2966.47 1239.41 2958.79 1256.34 2970.5C1272.87 2981.96 1274.95 3005.38 1273.51 3025.43C1269.61 3078.53 1252.17 3129.69 1234.86 3180.06C1214.69 3238.89 1191.91 3301.24 1142.18 3338.6C1104.05 3367.1 1055.5 3376.73 1008.77 3385.45C969.592 3392.87 930.413 3400.16 891.105 3407.58C860.387 3413.31 827.719 3418.9 798.823 3407.19C769.928 3395.48 747.017 3357.86 759.902 3341.98Z" fill="#3D5B30" stroke="#231F20" stroke-width="5" stroke-miterlimit="10"/>
<path d="M463.926 3581.76C458.918 3541.85 468.082 3495.3 475.699 3455.53C482.316 3420.97 490.177 3395.91 499.678 3362.02C504.624 3344.19 520.099 3321.09 533.245 3308.08C546.652 3294.8 561.806 3290.46 580.549 3288.25C617.905 3283.69 665.491 3286.91 698.682 3304.48C706.362 3308.52 709.143 3324.57 717.863 3323.66C721.46 3306.88 735.698 3302.31 747.933 3299.05C761.079 3295.54 776.9 3309.68 783.798 3321.26C790.697 3332.98 790.494 3341.62 791.926 3355.15C794.789 3382.1 812.07 3425.12 807.775 3451.94C805.457 3465.98 794.573 3494.01 783.798 3502.29C757.424 3522.56 752.629 3492.16 752.629 3501.09C740.641 3525.06 722.659 3532.26 716.664 3537.05C716.664 3540.65 696.641 3548.01 689.092 3555.03C683.098 3558.63 658.484 3568.98 648.332 3567.02C685.495 3599.39 697.798 3650.18 699.881 3691.7C701.964 3733.09 680.851 3778.34 653.127 3809.18C640.241 3823.37 623.367 3825.55 604.884 3820.99C596.749 3816.38 573.972 3793.6 566.779 3785.21C551.29 3763.6 538.505 3747.19 522.886 3725.46C505.835 3701.64 488.526 3677.56 477.202 3650.62C468.506 3625.76 463.012 3593.61 464.053 3581.89L463.926 3581.76Z" fill="white"/>
<path d="M650.172 3572.21C679.719 3602.15 697.554 3643.41 698.855 3685.45C700.157 3727.49 685.19 3769.79 657.596 3801.55C646.141 3814.83 629.221 3827.06 612.3 3822.38C604.1 3820.16 597.46 3814.31 591.473 3808.32C575.203 3792.18 561.013 3774.09 546.826 3756.12C521.705 3724.24 496.196 3691.7 481.358 3653.82C465.609 3613.73 462.486 3569.48 466.391 3526.39C470.296 3483.31 480.707 3441.4 491.12 3399.49C500.492 3361.61 512.984 3319.7 546.826 3300.56C568.042 3288.46 593.817 3287.94 618.287 3288.72C637.16 3289.37 656.291 3290.54 674.253 3296.27C692.215 3302 709.269 3312.8 719.422 3328.68L720.07 3329.72" stroke="#231F20" stroke-width="2.15" stroke-miterlimit="10"/>
<path d="M650.451 3805.63C614.397 3781.55 586.152 3747.31 562.332 3711.13C546.323 3686.92 532.008 3661.28 522.897 3633.82C513.655 3606.22 509.882 3576.54 514.959 3548.04" stroke="#231F20" stroke-miterlimit="10"/>
<path d="M584.054 3306.43C552.034 3329.08 532.508 3366.17 523.658 3404.44C514.807 3442.7 515.326 3482.4 516.107 3521.58" stroke="#231F20" stroke-miterlimit="10"/>
<path d="M808.056 3433.84C810.009 3456.36 802.586 3479.53 787.878 3496.58C784.494 3500.62 780.593 3504.39 775.777 3506.47C770.961 3508.56 765.098 3508.82 760.543 3506.08C753.514 3501.66 752.474 3492.03 752.084 3483.7C751.303 3465.86 750.653 3447.9 749.872 3430.07C749.221 3415.1 748.573 3399.74 743.237 3385.68C738.291 3372.54 729.437 3361.22 724.1 3348.07C718.894 3335.05 717.983 3318.52 727.615 3308.37C735.294 3300.3 748.049 3298.35 758.592 3301.99C769.135 3305.64 777.466 3314.1 782.933 3323.86C788.4 3333.49 791.392 3344.43 793.865 3355.23C799.982 3381.65 805.71 3408.33 807.923 3433.58L808.056 3433.84Z" stroke="#231F20" stroke-width="2.15" stroke-miterlimit="10"/>
<path d="M753.401 3494.91C744.42 3518.47 714.351 3538.91 692.744 3551.66C671.007 3564.55 644.85 3569.63 619.859 3566.11" stroke="#231F20" stroke-width="2.15" stroke-miterlimit="10"/>
<path d="M1244.82 3228.98C1116.74 3169.63 1001.8 3095.31 901.71 3000.16C819.319 2921.93 750.727 2831.99 692.545 2733.72C560.432 2510.76 456.432 2275.82 384.323 2026.95C378.986 2008.34 371.699 1997.8 350.092 1994.02C241.929 1975.15 151.471 1924.26 83.3971 1836.92C32.7648 1771.84 -0.951068 1700.12 0.871176 1615.39C1.52198 1583.24 11.0272 1553.56 27.2973 1525.84C31.983 1517.77 37.4498 1511.65 50.0753 1512.04C57.4945 1572.56 79.7493 1626.58 132.074 1661.46C179.452 1693.09 232.43 1710.4 294.126 1712.88C282.151 1671.88 272.125 1634.52 260.41 1597.81C219.93 1470.65 200.276 1340.62 205.353 1207.2C207.695 1145.38 214.467 1084.33 241.28 1027.06C269.265 967.189 312.604 924.626 374.3 900.286C436.127 875.946 498.995 856.942 564.075 841.063C672.499 814.64 767.905 757.24 849.125 678.883C880.884 648.296 891.56 607.424 898.069 566.684C912.256 477.003 904.054 388.626 876.72 301.809C849.777 216.424 797.978 192.474 711.681 199.763C675.627 202.886 640.35 214.211 604.426 220.459C516.177 235.948 492.229 187.657 501.601 114.116C505.245 85.3506 520.08 62.4451 543.769 45.2639C563.293 31.0764 584.124 19.6206 607.814 14.1538C748.647 -18.1259 880.236 4.78292 1001.42 83.1394C1033.43 103.835 1058.3 133.12 1076.13 167.092C1107.5 226.836 1127.93 289.442 1128.06 358.167C1128.19 422.596 1122.85 486.505 1116.21 550.414C1109.58 613.411 1111.79 676.148 1118.56 738.886C1125.59 802.664 1156.96 849.262 1216.18 875.945C1239.09 886.227 1262.26 896.121 1285.03 906.534C1338.66 931.134 1372.76 970.051 1385.78 1029.66C1403.09 1108.41 1402.18 1187.16 1395.15 1266.3C1386.69 1363.4 1356.75 1455.94 1335.01 1550.31C1333.06 1558.9 1332.02 1567.88 1329.03 1576.08C1322.65 1593.26 1331.24 1601.85 1345.43 1608.23C1384.35 1625.67 1422.48 1645.58 1462.44 1660.16C1512.94 1678.64 1563.45 1678.64 1609.91 1645.32C1629.96 1631.01 1644.15 1612.26 1654.82 1590.4C1673.7 1551.87 1685.67 1511 1694.39 1469.35C1708.84 1470.13 1712.22 1479.63 1715.35 1489.13C1729.79 1533.39 1730.31 1578.68 1719.12 1623.2C1702.59 1688.41 1674.74 1748.93 1634.52 1803.21C1580.24 1876.49 1506.05 1918.4 1417.41 1934.67C1374.32 1942.61 1331.24 1954.59 1286.6 1948.47C1272.41 1946.52 1269.67 1953.28 1269.41 1965.65C1268.24 2045.04 1267.99 2124.7 1287.12 2202.28C1328.9 2370.84 1379.66 2536.66 1448 2696.63C1494.33 2805.18 1559.54 2901.89 1634.38 2992.61C1666.14 3031.14 1691 3072.53 1696.21 3123.56C1701.29 3172.76 1684.89 3212.06 1645.06 3242.13C1590.13 3283.52 1527 3289.38 1461.92 3284.43C1387.34 3278.83 1316.4 3257.62 1244.42 3229.24L1244.82 3228.98Z" fill="#2B2A28"/>
<path d="M716.751 1966.81C767.774 1949.49 818.411 1938.82 864.617 1914.09C912.516 1888.58 960.936 1864.5 988.009 1811C1051.27 1864.11 1116.61 1905.63 1193.66 1931.66C1207.85 1951.71 1202.9 1969.67 1187.93 1980.47C1161.64 1999.48 1157.47 2024.6 1159.04 2053.49C1159.56 2063.51 1159.56 2073.67 1157.34 2083.56C1153.7 2099.96 1146.28 2105.82 1132.09 2092.02C1122.07 2082.26 1111.14 2070.67 1096.95 2084.73C1084.58 2097.1 1085.37 2112.32 1095 2126.12C1106.71 2142.65 1119.21 2136.8 1133.78 2127.68C1156.04 2113.89 1163.59 2119.35 1166.2 2151.11C1173.62 2244.31 1190.27 2335.68 1223.59 2423.15C1281.91 2576.22 1350.89 2723.82 1447.6 2857.1C1453.46 2865.3 1458.41 2874.41 1465.31 2881.44C1489.39 2906.04 1484.05 2928.3 1452.03 2953.81C1480.93 2951.99 1501.49 2924.91 1519.19 2954.72C1531.16 2975.03 1523.36 2990.52 1509.04 3008.09C1470.64 3025.27 1437.58 3009 1405.17 2997.15C1297.14 2957.45 1214.22 2883.52 1138.47 2799.7C1061.54 2714.71 990.088 2625.42 932.558 2526.23C883.357 2441.5 842.878 2351.82 809.426 2259.8C780.271 2179.49 750.723 2099.31 720.005 2019.65C713.757 2003.25 705.56 1986.98 716.884 1966.94L716.751 1966.81Z" fill="#679441"/>
<path d="M1272.02 1548.1C1226.33 1533.79 1182.72 1518.56 1135.21 1518.04C1077.29 1517.52 1033.56 1540.55 1005.83 1592.1C1003.49 1596.39 1000.63 1600.43 996.467 1607.33C971.216 1587.67 945.443 1571.14 917.589 1557.61C856.023 1527.67 794.588 1526.5 733.153 1557.21C689.419 1579.08 646.336 1601.99 600.259 1625.16C592.58 1621.51 589.584 1615.92 588.413 1609.67C565.114 1478.6 536.87 1348.05 556.394 1213.33C565.245 1152.55 589.453 1099.7 632.927 1057.14C663.124 1027.59 687.207 990.628 730.941 972.796C752.027 971.755 769.204 974.748 785.344 982.298C809.033 993.361 814.369 1007.03 804.347 1030.72C800.963 1038.79 796.408 1046.34 792.112 1054.02C784.043 1068.59 787.688 1080.7 799.923 1090.59C810.727 1099.31 819.836 1094.62 830.379 1087.86C887.129 1051.02 946.742 1018.48 995.812 970.842C1012.86 954.312 1032.13 957.306 1052.05 962.252C1096.04 973.316 1137.17 992.32 1177.65 1011.84C1219.56 1032.02 1261.21 1045.68 1307.55 1028.89C1310.67 1027.72 1314.84 1029.93 1320.56 1032.41C1335.01 1046.99 1336.58 1063.39 1337.62 1079.66C1338.79 1099.44 1331.5 1111.68 1305.99 1104.52C1289.06 1088.64 1283.47 1069.37 1274.36 1052.19C1271.89 1047.9 1268.24 1054.66 1272.14 1051.54C1283.21 1066.38 1286.98 1084.99 1299.22 1102.7C1311.71 1134.32 1313.01 1164.52 1311.45 1194.72C1305.33 1312.38 1301.43 1430.44 1271.63 1548.36L1272.02 1548.1Z" fill="#679441"/>
<path d="M1618.36 3194.1C1614.2 3204.9 1605.87 3206.47 1597.02 3210.89C1545.74 3203.21 1497.18 3215.84 1448.37 3213.62C1425.47 3212.58 1402.82 3211.8 1385.77 3193.06C1381.34 3188.11 1376.01 3185.38 1369.11 3185.9C1327.46 3188.89 1294.01 3166.9 1260.56 3147.76C1116.99 3065.5 996.071 2957.47 889.6 2830.3C776.361 2695.07 686.809 2546.29 605.459 2390.49C548.579 2281.55 508.881 2166.35 462.804 2053.37C457.207 2039.45 451.221 2025.13 457.86 2007.17C500.682 2001.31 542.202 2002.35 586.196 1994.15C617.955 2025.65 634.352 2064.44 648.41 2102.83C692.274 2222.58 752.538 2334.13 810.849 2446.98C890.247 2600.7 994.114 2735.15 1118.94 2854.38C1229.83 2960.2 1361.95 3027.49 1507.86 3069.93C1531.16 3076.69 1555.63 3071.1 1581.79 3077.61C1618.75 3109.24 1624.22 3148.41 1618.24 3194.1H1618.36Z" fill="#3E5B2D"/>
<path d="M1125.44 846.659C1156.81 876.336 1189.35 900.417 1224.63 919.811C1251.7 934.779 1274.09 953.911 1293.22 980.073C1272.66 999.337 1251.18 996.085 1228.01 985.542C1178.81 963.155 1130.26 938.814 1078.2 923.195C1063.75 918.9 1049.44 914.344 1034.08 913.563C1010.26 912.262 989.948 918.117 971.596 934.257C936.713 964.844 902.87 996.996 862.65 1017.82C856.272 1017.3 853.672 1014.7 853.021 1010.79C845.212 957.557 806.553 937.771 760.606 931.133C731.841 926.968 707.893 918.64 687.067 897.945C675.743 886.751 660.386 879.46 646.85 870.479C645.678 858.635 656.087 860.197 661.944 857.854C749.281 824.013 822.042 768.692 887.252 702.962C925.519 664.434 938.533 613.023 943.74 561.739C953.111 471.148 949.47 380.818 921.095 292.699C904.695 241.937 880.746 196.768 830.504 172.819C778.44 148.088 723.509 148.87 668.191 160.975C667.02 161.236 665.851 161.888 664.55 162.148C649.841 164.881 634.739 176.333 621.072 169.304C607.275 162.276 615.085 144.184 612.091 131.168C607.145 110.082 593.87 93.2936 583.848 74.6806C598.816 58.2804 618.474 56.326 636.306 53.072C747.983 32.5067 854.062 46.8238 953.375 104.615C997.499 130.257 1029 166.051 1049.95 212.258C1074.29 266.014 1084.45 321.852 1083.27 380.945C1081.71 454.095 1073.64 526.595 1068.96 599.354C1064.53 667.949 1076.11 734.723 1095.25 800.194C1100.19 817.245 1111.65 831.3 1125.58 846.268L1125.44 846.659Z" fill="#679441"/>
<path d="M1585.44 3078.65C1516.45 3094.27 1456.32 3064.33 1395.79 3041.82C1344.51 3022.68 1296.22 2995.48 1248.97 2966.97C1205.76 2940.94 1166.32 2910.09 1129.22 2876.64C1059.2 2813.51 997.502 2742.05 937.759 2669.43C902.745 2626.99 873.464 2579.62 847.822 2530.81C814.501 2467.42 774.667 2407.67 745.251 2342.2C709.847 2263.46 666.77 2188.22 640.347 2105.18C628.633 2068.48 607.546 2034.63 590.234 1996.76C630.844 1984 671.71 1974.11 715.704 1964.35C714.273 2000.4 733.537 2030.6 745.772 2061.32C766.858 2113.77 787.424 2166.36 804.865 2220.11C827.383 2289.49 861.358 2354.05 889.343 2421.08C921.622 2498.39 968.999 2565.95 1014.95 2634.8C1044.1 2678.67 1079.63 2717.84 1114.52 2757.15C1143.67 2789.95 1170.35 2825.36 1204.07 2853.86C1240.25 2884.71 1272.27 2921.42 1315.22 2943.15C1373.01 2972.57 1429.24 3007.71 1500.96 3007.84C1511.51 3009.53 1517.63 3016.56 1524.66 3016.17C1567.61 3013.44 1577.89 3043.37 1585.44 3078.65Z" fill="#4E6F36"/>
<path d="M937.899 1623.57C936.207 1634.51 933.079 1642.7 930.476 1651.03C922.666 1676.55 923.973 1685.4 946.231 1697.63C959.767 1705.18 958.07 1711.56 957.029 1724.06C953.384 1765.32 928.786 1790.18 894.554 1805.67C872.297 1815.69 864.224 1837.56 845.871 1851.22C790.293 1892.35 730.421 1921.77 662.738 1933.74C591.931 1946.37 520.995 1942.99 449.537 1935.7C392.266 1929.84 336.687 1914.74 279.286 1909.14C249.61 1906.28 218.369 1897.17 188.822 1887.27C181.794 1884.93 174.117 1882.07 168.65 1877.25C125.307 1838.34 90.1663 1794.08 74.1566 1736.29C69.7311 1720.41 71.4204 1709.22 84.3063 1700.24C97.7128 1690.99 110.341 1690.86 125.96 1699.97C169.304 1725.23 215.638 1743.32 270.045 1745.66C273.56 1770.39 248.175 1780.67 244.14 1799.94C313.386 1858.77 395.391 1822.45 463.074 1831.96C463.334 1831.96 454.615 1834.04 441.338 1821.42C535.444 1792.39 631.371 1777.94 713.372 1720.93C718.709 1717.81 721.7 1715.98 727.036 1713.12C732.503 1710.65 735.759 1709.87 741.616 1710.13C747.083 1712.21 748.514 1714.55 748.124 1718.07C748.905 1714.94 748.645 1711.82 748.645 1706.48C764.525 1681.36 783.4 1667.56 812.295 1663.01C845.356 1657.67 873.73 1641.27 876.854 1598.97C887.918 1592.33 897.029 1592.59 909.134 1596.89C923.712 1601.57 928.264 1613.29 937.765 1623.44L937.899 1623.57Z" fill="#3F483D"/>
<path d="M399.17 952.077C463.339 927.867 523.474 897.539 592.72 905.869C606.647 907.561 620.05 908.341 634.367 917.973C633.326 939.059 618.231 949.734 605.736 961.578C569.942 995.55 539.745 1033.69 512.151 1074.56C489.764 1107.75 473.881 1142.37 469.455 1181.94C461.645 1251.83 449.541 1321.73 450.192 1391.89C450.973 1468.42 458.002 1544.96 473.491 1620.32C477.526 1639.84 483.384 1659.76 471.019 1681.76C439.39 1695.55 408.539 1702.45 374.047 1707.4C357.126 1696.85 350.88 1681.63 346.845 1665.75C300.378 1479.1 280.072 1290.88 317.038 1099.81C328.101 1042.93 351.791 992.817 398.909 952.077H399.17Z" fill="#3E5B2D"/>
<path d="M471.8 1684.24C471.54 1635.04 453.448 1588.44 449.804 1540.02C449.413 1535.08 446.547 1530.13 446.938 1525.45C451.103 1477.68 435.092 1430.95 438.866 1383.31C442.25 1339.84 447.327 1296.62 451.882 1253.28C456.047 1213.58 458.39 1173.88 468.413 1134.83C471.276 1123.77 474.796 1113.23 480.654 1103.59C522.175 1035.91 570.719 974.085 634.107 921.5C648.164 922.151 656.495 929.83 664.435 937.9C682.527 956.253 703.873 967.838 731.987 971.613C693.59 1007.28 655.324 1044.24 621.872 1084.59C590.764 1122.08 572.281 1166.98 566.294 1217.75C561.348 1259.14 557.186 1300.4 560.701 1341.27C566.428 1408.3 572.932 1475.33 586.078 1541.59C591.155 1567.23 598.315 1592.74 597.664 1622.54C565.515 1645.45 534.148 1666.02 495.1 1677.34C491.065 1678.64 489.764 1679.69 486.38 1681.77C480.913 1683.33 477.658 1683.85 471.8 1684.37V1684.24Z" fill="#4E6F36"/>
<path d="M1586.34 3083.48C1579.71 3070.33 1575.41 3058.88 1569.43 3048.2C1561.62 3034.28 1557.71 3014.75 1532.59 3027.9C1522.18 3033.37 1512.54 3022.56 1505.25 3010.33C1504.73 3005.64 1505.25 3003.17 1506.42 3000.95C1517.7 2980.91 1513.45 2960.69 1493.67 2940.3C1491.72 2959.57 1484.17 2973.23 1464.12 2970.24C1452.93 2968.55 1445.64 2960.48 1445.38 2949.67C1444.99 2927.55 1461.26 2923.77 1480.26 2923.38C1312.1 2680.24 1172.57 2427.08 1154.22 2123.02C1141.2 2123.94 1141.32 2135.26 1135.73 2140.34C1118.68 2156.09 1101.11 2155.3 1087.57 2136.82C1078.33 2124.07 1075.21 2109.49 1078.85 2094C1081.98 2080.72 1090.57 2071.74 1103.32 2067.58C1117.51 2063.02 1127.53 2070.05 1135.21 2081.24C1138.59 2086.19 1141.59 2091.39 1150.57 2096.47C1150.57 2073.82 1149.01 2051.05 1150.96 2028.53C1152.91 2007.18 1150.18 1982.97 1182.07 1976.2C1197.42 1972.95 1191.7 1952.64 1195.21 1936.76C1209.92 1932.34 1218.9 1935.07 1218.51 1953.56C1217.73 1993.77 1218.12 2034.13 1219.81 2074.34C1223.59 2162.98 1244.54 2248.24 1269.28 2332.97C1303.77 2451.42 1341.38 2568.56 1387.2 2683.1C1436.79 2806.89 1508.12 2917.52 1591.68 3020.74C1609.12 3042.35 1626.56 3064.08 1636.2 3090.38C1649.73 3127.21 1655.98 3163.92 1620.57 3196.2C1616.54 3157.67 1610.82 3119.27 1586.22 3083.48H1586.34Z" fill="#EDF0E9"/>
<path d="M456.827 2004.41C459.301 2020.29 464.373 2034.61 469.71 2048.54C498.085 2122.21 524.246 2197.05 556.787 2269.03C600.26 2364.95 649.726 2457.89 701.399 2549.78C745.784 2628.79 797.064 2702.98 854.204 2772.88C919.935 2853.32 986.055 2933.49 1067.14 3000.53C1127.28 3050.38 1190.41 3094.89 1256.53 3135.9C1284.65 3153.34 1315.1 3164.4 1344.78 3177.94C1345.95 3178.46 1347.25 3178.72 1348.29 3179.37C1364.04 3189.78 1371.07 3161.41 1384.74 3170.26C1395.02 3177.02 1390.46 3195.12 1408.82 3199.93C1441.36 3208.26 1474.68 3208.52 1506.05 3203.19C1535.72 3198.11 1562.8 3198.63 1592.74 3209.43C1571.52 3228.18 1545.09 3234.04 1516.72 3233.52C1492.9 3233.13 1469.21 3232.47 1442.01 3231.82C1434.07 3231.56 1429.77 3230.39 1423.39 3228.7C1337.36 3213.86 1259.26 3183.53 1184.81 3142.53C1090.57 3090.6 1002.72 3029.29 926.313 2953.8C851.862 2880.26 788.864 2797.22 734.588 2706.89C619.916 2515.94 533.488 2312.5 459.427 2103.33C450.186 2077.3 444.073 2050.23 435.352 2023.93C428.844 2004.28 438.865 2002.2 456.827 2004.41Z" fill="#758F55"/>
<path d="M1496.53 1697.01C1503.69 1697.92 1509.02 1698.7 1516.96 1699.87C1528.03 1724.86 1551.33 1727.86 1572.67 1738.27C1574.11 1742.44 1574.11 1744.26 1572.41 1748.55C1541.96 1762.87 1525.16 1790.6 1497.7 1805.3C1393.57 1861.4 1288.67 1829.77 1183.76 1810.51C1174 1808.69 1165.53 1802.18 1152.65 1799.84C1142.36 1796.97 1135.46 1793.59 1127.26 1786.95C1119.06 1762.22 1132.73 1754.93 1149.91 1749.07C1143.41 1739.96 1114.77 1738.79 1132.99 1713.67C1137.81 1707.03 1130.52 1702.48 1125.18 1699.35C1097.85 1682.95 1099.02 1658.35 1108 1633.49C1112.82 1620.08 1113.99 1606.81 1116.2 1590.41C1157.98 1566.2 1195.21 1574.27 1232.05 1603.04C1240.51 1615.66 1247.93 1624.25 1264.85 1618.91C1290.75 1619.7 1305.85 1635.84 1322.12 1649.37C1367.15 1686.99 1418.96 1700 1479.35 1692.32C1483.52 1691.93 1484.94 1691.67 1488.46 1691.41C1491.19 1694.02 1492.62 1695.84 1496.66 1697.01H1496.53Z" fill="#586159"/>
<path d="M750.074 1712.87C745.388 1714.95 742.133 1714.95 736.276 1715.08C731.981 1716.64 730.163 1718.2 727.429 1721.33C645.949 1783.02 550.93 1803.98 455.262 1824.94C462.291 1832.88 475.308 1823.9 483.118 1831.45C484.42 1833.53 483.248 1834.96 479.864 1835.61C425.327 1845.63 370.137 1843.29 315.079 1843.55C297.247 1843.55 280.846 1844.07 269.002 1825.59C259.891 1811.4 238.674 1815.04 225.918 1803.07C232.036 1795.91 246.486 1793.7 245.054 1783.54C241.93 1761.29 263.535 1762.2 272.516 1748.66C310.393 1757.64 346.838 1747.1 383.413 1741.76C406.582 1738.38 429.49 1733.17 455.523 1729.27C566.679 1720.03 653.107 1654.82 749.947 1616.03C789.255 1600.28 828.428 1581.54 874.896 1598.98C878.28 1608.35 878.152 1616.16 880.755 1622.93C885.441 1635.03 879.717 1643.62 870.866 1647.92C847.698 1658.85 826.352 1675.12 799.539 1676.68C785.611 1677.46 772.984 1676.16 771.943 1696.6C771.683 1701.68 758.534 1706.1 750.074 1712.74V1712.87Z" fill="#586159"/>
<path d="M398.507 950.251C399.028 975.502 375.596 988.521 363.1 1008.04C334.335 1053.08 326.789 1103.32 317.938 1153.56C304.922 1226.84 307.522 1301.16 311.297 1374.71C315.332 1453.06 326.265 1531.03 343.316 1607.95C350.345 1639.71 358.673 1671.08 370.778 1704.27C355.159 1711.04 344.231 1706.61 340.716 1688.91C339.285 1681.62 336.287 1674.47 333.554 1664.57C329.649 1658.59 329.65 1654.16 328.088 1648.17C306.612 1571.12 279.798 1497.32 268.995 1419.87C253.636 1309.89 245.436 1199.38 271.988 1089.79C288.388 1022.1 324.182 970.166 398.634 950.121L398.507 950.251Z" fill="#758F55"/>
<path d="M1125.05 1781.1C1132.47 1785 1138.46 1787.09 1146.79 1789.95C1184.67 1824.31 1229.05 1828.22 1274.48 1828.35C1311.7 1828.35 1347.24 1838.76 1385.37 1838.76C1464.12 1838.76 1520.87 1805.96 1570.99 1747.52C1572.94 1745.57 1572.93 1745.18 1573.06 1745.31C1588.68 1730.21 1569.03 1718.49 1570.85 1702.74C1577.36 1700.01 1582.31 1699.62 1587.26 1698.71C1597.54 1696.76 1608.21 1686.86 1617.71 1700.27C1626.3 1712.51 1627.47 1725 1621.23 1739.32C1612.64 1759.36 1599.49 1776.8 1583.74 1790.34C1542.35 1826.27 1501.09 1863.75 1442.78 1870.65C1440.3 1870.91 1437.7 1873.12 1435.61 1872.6C1397.74 1862.32 1359.08 1881.19 1321.2 1869.61C1298.42 1862.71 1274.35 1865.05 1250.79 1860.89C1202.37 1852.43 1156.68 1836.29 1110.35 1821.71C1103.06 1819.37 1094.99 1817.54 1092.13 1810C1075.73 1767.3 1042.01 1730.99 1043.7 1681.79C1044.22 1668.38 1033.29 1662.53 1028.86 1649.64C1040.84 1632.46 1053.72 1619.05 1077.15 1619.7C1087.96 1626.21 1090.3 1635.19 1088.87 1643.78C1082.49 1681.92 1092.26 1718.1 1102.15 1756.37C1104.62 1759.49 1105.66 1760.67 1108.66 1763.4C1115.69 1769 1120.37 1773.42 1125.05 1781.23V1781.1Z" fill="#3F483D"/>
<path d="M1296.74 1091.33C1327.98 1105.13 1331.63 1103.18 1331.11 1075.58C1330.85 1063.35 1327.72 1051.76 1323.3 1037.32C1337.09 1034.45 1337.36 1045.51 1339.44 1055.15C1350.37 1108.25 1351.8 1161.88 1349.2 1216.03C1345.17 1299.2 1325.64 1379.51 1305.98 1459.82C1299.22 1487.8 1291.92 1515.65 1285.16 1543.64C1283.59 1550.28 1281.51 1555.48 1271.49 1552.49C1287.5 1434.04 1296.1 1316.51 1303.64 1199.1C1305.73 1165.39 1300.91 1131.55 1290.11 1095.5C1290.63 1091.98 1292.45 1091.59 1297 1091.59L1296.74 1091.33Z" fill="#EDF0E9"/>
<path d="M880.358 1601.34C840.138 1596.13 804.863 1602.77 771.151 1617.61C722.081 1639.35 672.882 1660.17 626.024 1686.86C577.214 1714.71 524.888 1736.19 462.281 1729.81C484.278 1708.99 516.691 1702.08 545.977 1688.81C617.435 1656.53 684.204 1613.97 761.389 1587.68C765.685 1584.42 767.895 1582.73 772.321 1581.56C779.219 1580.91 784.168 1580.13 791.457 1578.56C796.143 1576.35 798.354 1574.92 802.649 1574.14C841.307 1570.89 877.494 1570.49 912.898 1592.36C916.152 1595.35 917.063 1596.92 916.673 1601.08C904.698 1602.77 894.151 1602.12 880.224 1601.47L880.358 1601.34Z" fill="#818A8C"/>
<path d="M1083.54 1621.64C1061.94 1623.34 1051.91 1642.86 1031.09 1645.99C1017.81 1629.06 1031.35 1619.04 1041.37 1609.02C1073.26 1576.87 1110.1 1556.17 1160.99 1563.98C1167.89 1567.24 1172.32 1567.5 1178.95 1568.28C1193.66 1571.92 1206.28 1575.44 1221.38 1579.73C1225.68 1581.29 1227.24 1581.95 1231.02 1584.29C1241.04 1589.24 1248.85 1592.49 1259 1596.91C1263.04 1597.96 1264.86 1597.83 1267.59 1600.17C1282.3 1610.06 1296.09 1617.48 1311.97 1626.33C1315.88 1627.89 1317.71 1627.89 1320.44 1630.36C1344 1645.07 1365.08 1660.56 1394.11 1665.38C1398.66 1665.9 1400.48 1665.77 1404.13 1667.72C1426.26 1675.01 1446.56 1680.21 1469.73 1685.81C1475.2 1686.46 1477.28 1687.51 1480.66 1690.24C1482.35 1690.89 1481.96 1691.54 1481.96 1691.93C1466.87 1706.9 1449.69 1706.51 1429.77 1703.91C1378.1 1697.4 1334.23 1677.09 1297.92 1639.87C1289.85 1631.67 1279.18 1627.5 1265.77 1623.86C1252.36 1631.93 1244.29 1624.38 1234.53 1616.31C1201.86 1581.43 1163.47 1582.47 1121.68 1592.88C1110.62 1606.55 1098.38 1613.7 1083.54 1621.51V1621.64Z" fill="#818A8C"/>
<path d="M582.291 144.207C582.291 153.578 583.339 160.088 581.777 165.815C577.742 179.873 564.85 183.647 553.266 175.187C537.647 163.732 529.972 115.441 541.426 98.781C548.194 89.0189 556.133 91.2309 563.422 97.9992C575.787 109.584 581.904 124.162 582.425 144.207H582.291Z" fill="#3E5B2D"/>
<path d="M1569.17 1700.36C1573.47 1705.44 1575.03 1709.73 1579.32 1712.99C1592.34 1722.88 1591.17 1733.51 1575.81 1744.88C1566.31 1735.89 1556.03 1736.54 1546.66 1737.59C1521.93 1740.32 1517.89 1726.26 1519.71 1703.36C1535.07 1700.23 1550.43 1700.1 1569.04 1700.36H1569.17Z" fill="#50584D"/>
<path d="M916.434 1605.65C915.392 1601.87 915.258 1600.18 915.258 1596.14C931.658 1596.67 944.153 1603.04 940.769 1624.52C928.143 1624.39 922.027 1616.97 916.3 1605.65H916.434Z" fill="#586159"/>
<path d="M1423 3229.36C1425.87 3228.05 1430.42 3228.45 1436.67 3230.27C1433.8 3233.52 1429.12 3233.78 1423 3229.36Z" fill="#3F483D"/>
<path d="M326.791 1648.56C329.134 1650.12 331.089 1653.77 332.911 1659.75C328.746 1659.23 326.661 1655.59 326.791 1648.56Z" fill="#50584D"/>
<path d="M1179.35 1566.95C1176.35 1570.47 1171.8 1570.47 1165.81 1566.04C1168.67 1564.61 1173.1 1565 1179.35 1566.95Z" fill="#586159"/>
<path d="M1497.34 1695.81C1498.38 1697.11 1494.73 1697.12 1494.73 1697.12C1494.73 1697.12 1491.87 1694.9 1491.21 1693.34C1492.78 1692.17 1494.6 1693.08 1497.34 1695.94V1695.81Z" fill="#3F483D"/>
<path d="M1481.32 1689.34C1480.02 1690.38 1477.67 1689.86 1474.03 1687.77C1475.33 1686.73 1477.8 1687.25 1481.32 1689.34Z" fill="#3F483D"/>
<path d="M485.718 1682.54C485.198 1680.71 486.761 1679.15 490.536 1677.85C491.187 1679.67 489.623 1681.36 485.718 1682.54Z" fill="#3E5B2D"/>
<path d="M1405.17 1668.07C1403.73 1670.16 1401.52 1669.76 1398.27 1667.16C1399.44 1666.12 1401.78 1666.25 1405.17 1668.07Z" fill="#50584D"/>
<path d="M1321.23 1631.13C1319.41 1632.7 1317.59 1631.92 1315.12 1629.05C1316.81 1626.45 1319.02 1626.97 1321.23 1631.13Z" fill="#586159"/>
<path d="M1268.24 1600.96C1266.55 1602.65 1264.73 1601.87 1262.26 1599.26C1263.82 1596.53 1266.03 1596.92 1268.24 1600.96Z" fill="#586159"/>
<path d="M1232.18 1584.14C1230.35 1586.35 1228.01 1585.7 1225.02 1582.18C1226.45 1581.14 1228.79 1581.79 1232.18 1584.14Z" fill="#586159"/>
<path d="M772.32 1581.4C772.32 1583.22 770.11 1584.79 765.945 1586.35C765.945 1584.66 768.155 1582.83 772.32 1581.4Z" fill="#3F483D"/>
<path d="M802.667 1573.97C802.407 1575.79 800.064 1576.97 795.898 1578.01C796.159 1576.32 798.372 1574.88 802.667 1573.97Z" fill="#3F483D"/>
<path d="M1147.06 2506.34C1140.81 2502.04 1136.25 2499.18 1133.78 2495.15C1127.79 2485.39 1129.49 2475.62 1137.17 2467.68C1144.98 2459.48 1154.99 2458.57 1164.76 2463.78C1174.52 2468.98 1180.38 2478.88 1176.08 2488.77C1169.05 2504.91 1170.87 2513.5 1189.1 2518.45C1197.56 2520.66 1204.72 2530.68 1201.59 2539.14C1194.43 2558.27 1199.77 2565.17 1219.04 2571.68C1238.95 2578.32 1247.41 2602.92 1239.21 2618.15C1232.05 2631.42 1219.95 2637.8 1204.72 2635.33C1185.06 2632.08 1167.75 2610.73 1173.48 2591.07C1178.43 2574.28 1179.85 2565.82 1161.5 2557.1C1149.4 2551.38 1149.66 2536.54 1158.12 2524.17C1162.03 2518.45 1171.14 2517.15 1171.92 2508.68C1164.24 2502.7 1156.69 2509.85 1147.06 2506.34Z" fill="#EDF0E9"/>
<path d="M1163.34 2388.54C1167.63 2396.22 1171.67 2401.56 1172.71 2407.29C1176.49 2428.37 1170.24 2442.56 1154.88 2447.37C1138.74 2452.45 1125.46 2446.99 1115.7 2433.45C1105.02 2418.74 1104.76 2396.35 1115.7 2384.9C1127.8 2372.27 1141.6 2371.49 1155.79 2381.65C1157.74 2383.08 1159.57 2384.9 1163.21 2388.54H1163.34Z" fill="#EDF0E9"/>
<path d="M1330.45 2787.46C1353.36 2776.53 1366.9 2786.16 1374.97 2803.73C1381.22 2817.27 1378.22 2831.33 1365.08 2840.05C1351.93 2848.77 1338.52 2845.64 1327.98 2834.58C1313.79 2819.74 1312.36 2804.12 1330.32 2787.46H1330.45Z" fill="#EDF0E9"/>
<path d="M1138.99 2278.42C1141.85 2288.7 1140.16 2295.99 1134.57 2301.59C1125.85 2310.31 1115.95 2313.43 1104.5 2305.88C1093.05 2298.33 1091.49 2287.66 1096.3 2276.6C1101.38 2265.01 1111.4 2260.85 1124.02 2264.49C1130.4 2266.31 1134.7 2270.61 1138.99 2278.55V2278.42Z" fill="#EDF0E9"/>
<path d="M1384.34 2850.46C1406.73 2858.53 1417.66 2877.28 1432.37 2891.86C1436.93 2896.41 1438.36 2903.05 1432.63 2908.13C1430.29 2910.21 1424.7 2911.9 1422.74 2910.6C1403.74 2897.32 1384.47 2883.79 1376.53 2860.49C1375.75 2858.27 1379.92 2854.37 1384.48 2850.46H1384.34Z" fill="#EDF0E9"/>
<path d="M1090.05 2198.25C1089.27 2185.24 1094.35 2180.16 1105.16 2183.54C1110.49 2185.23 1112.44 2190.96 1110.62 2195.26C1106.72 2204.37 1100.33 2208.54 1090.18 2198.12L1090.05 2198.25Z" fill="#EDF0E9"/>
<path d="M880.508 1226.87C815.428 1192.64 753.083 1194.07 690.345 1225.44C679.933 1230.65 668.214 1244.84 656.89 1234.55C644.525 1223.23 656.895 1208.39 661.58 1196.55C679.673 1150.47 733.559 1117.28 784.712 1118.71C831.569 1120.01 885.062 1157.63 901.983 1201.1C909.272 1219.84 907.711 1222.19 880.508 1227V1226.87Z" fill="#2B2A28"/>
<path d="M841.58 1395.69C837.415 1421.59 827.521 1441.63 810.731 1457.51C785.35 1481.46 753.721 1477.68 733.416 1449.18C701.527 1404.27 706.209 1314.33 742.524 1272.68C769.337 1241.83 796.414 1243.14 827.783 1279.19C828.173 1283.22 827.261 1284.79 824.007 1287.52C802.791 1289.99 779.619 1283.09 775.064 1312.12C771.94 1331.77 768.556 1352.73 784.565 1368.22C804.74 1387.87 816.588 1358.98 836.242 1358.2C846.394 1369.52 841.968 1381.5 841.447 1395.69H841.58Z" fill="#2B2A28"/>
<path d="M1219.55 1403.22C1216.17 1427.95 1206.66 1446.95 1191.82 1462.7C1167.22 1488.87 1135.98 1486.26 1115.68 1456.59C1099.54 1433.03 1095.51 1405.95 1095.9 1377.84C1096.42 1344.78 1101.36 1312.89 1121.8 1285.68C1145.23 1254.32 1168.66 1252.49 1202.24 1280.35C1205.1 1286.34 1204.71 1289.72 1199.63 1294.15C1182.71 1297.66 1166.18 1295.58 1158.37 1312.76C1149.52 1332.15 1145.88 1353.24 1160.85 1369.64C1182.58 1393.46 1194.69 1360.79 1214.86 1358.57C1224.36 1372.63 1219.94 1386.69 1219.55 1403.22Z" fill="#2B2A28"/>
<path d="M1119.47 1153.57C1184.29 1123.24 1254.97 1153.7 1274.1 1217.35C1276.45 1225.16 1277.48 1232.32 1269.93 1237.52C1264.21 1241.43 1257.96 1240.26 1252.11 1237C1251.07 1236.35 1249.89 1235.83 1248.85 1235.05C1196.01 1189.37 1140.03 1198.74 1083.15 1225.94C1076.64 1229.07 1069.62 1235.31 1063.24 1226.98C1058.95 1221.38 1062.98 1215.01 1065.45 1209.28C1075.86 1184.81 1097.99 1171.53 1119.47 1153.57Z" fill="#2B2A28"/>
<path d="M1129.1 1040.87C1146.41 1048.55 1161.38 1054.8 1175.83 1062.08C1181.29 1064.82 1186.5 1069.63 1182.86 1077.05C1179.86 1083.3 1173.62 1086.29 1167.24 1084.34C1153.05 1079.79 1138.99 1074.71 1125.45 1068.46C1097.08 1055.45 1070.53 1039.05 1045.41 1020.43C1037.34 1014.45 1027.84 1007.42 1036.69 996.223C1044.5 986.201 1052.18 994.791 1059.34 999.086C1081.72 1012.62 1104.11 1026.16 1128.97 1040.87H1129.1Z" fill="#EDF0E9"/>
<path d="M842.361 1395.95C838.066 1386.84 842.753 1374.34 834.163 1361.33C816.851 1339.59 822.191 1315.9 821.02 1290.78C823.102 1286.62 824.013 1285.31 827.006 1282.84C840.022 1290.78 846.661 1302.5 846.791 1316.55C847.051 1342.19 850.564 1367.96 842.234 1395.95H842.361Z" fill="#3F483D"/>
<path d="M1220.22 1403.47C1215.53 1391.89 1221.26 1376.79 1211.76 1361.17C1197.83 1346.72 1199.91 1331.75 1202.91 1313.79C1205.12 1308.98 1206.29 1307.15 1210.58 1304.55C1232.84 1334.62 1225.68 1367.94 1220.22 1403.47Z" fill="#3F483D"/>
<path d="M1018.19 1051.68C1015.59 1056.63 1013.5 1060.14 1010.38 1061.44C1001.01 1065.48 992.804 1063.66 992.023 1052.07C991.503 1042.44 999.835 1040.75 1007.38 1040.88C1012.46 1040.88 1016.36 1044 1018.06 1051.55L1018.19 1051.68Z" fill="#EDF0E9"/>
<path d="M1057.52 1059.99C1067.54 1068.84 1067.41 1075.87 1056.35 1080.29C1051.92 1082.11 1045.67 1081.33 1043.72 1076.39C1039.55 1065.85 1045.02 1060.51 1057.52 1060.12V1059.99Z" fill="#EDF0E9"/>
<path d="M1298.44 1089.53C1297.53 1092 1295.84 1092.52 1291.28 1092.52C1281.52 1078.07 1274.11 1064.01 1270.07 1039.15C1287.9 1056.85 1286.86 1075.73 1298.44 1089.53Z" fill="#818A8C"/>
<path d="M1193.8 1294.18C1196.93 1290.01 1199.15 1288.32 1202.53 1284.68C1209.43 1286.63 1210.86 1293.01 1213.07 1301.47C1212.55 1304.72 1211.38 1305.63 1208.52 1307.97C1199.15 1308.37 1194.85 1303.81 1193.8 1294.18Z" fill="#3F483D"/>
<path d="M1356.62 3124.34C1358.31 3134.49 1353.49 3136.45 1346.59 3134.37C1342.82 3133.32 1340.35 3129.42 1342.17 3126.04C1344.77 3121.22 1349.85 3120.96 1356.62 3124.34Z" fill="#679441"/>
<path d="M748.762 1714.97C749.673 1716.01 750.587 1717.18 751.628 1718.22C750.977 1717.83 750.327 1717.44 749.156 1716.01C748.765 1714.97 748.762 1714.97 748.762 1714.97Z" fill="#50584D"/>
<path d="M727.957 1721.86C726.916 1720.17 728.212 1718.09 732.247 1715.88C733.158 1717.57 731.732 1719.52 727.957 1721.86Z" fill="#50584D"/>
<path d="M1570.23 1745.68C1572.83 1748.02 1573.35 1750.75 1572.57 1752.97C1564.89 1775.35 1511.39 1827.03 1489.79 1827.16C1465.06 1827.29 1449.96 1852.54 1427.44 1849.41C1406.09 1846.42 1386.57 1844.86 1364.83 1849.15C1345.18 1853.19 1322.4 1857.74 1303.92 1840.3C1297.15 1833.79 1287.12 1836.14 1278.4 1836.01C1265.78 1835.75 1253.28 1835.88 1240.66 1836.01C1204.21 1836.4 1170.76 1830.02 1149.42 1793.31C1159.31 1789.8 1168.55 1792.92 1177.92 1797.35C1216.06 1814.92 1257.06 1819.09 1298.45 1820.91C1328.38 1822.21 1358.32 1818.83 1388.13 1827.16C1403.1 1831.32 1420.67 1831.58 1436.29 1824.42C1463.5 1812.06 1489.26 1796.83 1517.51 1786.29C1532.09 1780.82 1513.48 1777.31 1512.18 1769.63C1531.05 1764.16 1549.92 1756.22 1570.35 1745.81L1570.23 1745.68Z" fill="#50584D"/>
<path d="M1081.08 1625.53C1086.42 1606.13 1101.39 1601.97 1117.14 1595.33C1126.25 1608.21 1130.8 1620.45 1118.31 1633.21C1107.11 1644.53 1111.66 1659.37 1112.45 1672.77C1113.36 1689.17 1126.89 1690.74 1139.52 1693.6C1149.28 1695.81 1154.1 1704.53 1153.84 1713.51C1153.45 1726.53 1139 1719.11 1133.27 1725.23C1134.83 1732.13 1141.99 1733.69 1146.29 1737.98C1149.8 1741.5 1153.97 1744.23 1157.87 1747.48C1147.46 1757.64 1133.54 1764.02 1127.16 1780.68C1120 1779.5 1113.36 1775.86 1105.29 1770.13C1099.43 1762.32 1080.95 1766.23 1091.1 1749.44C1093.06 1746.32 1091.11 1739.55 1089.15 1735.51C1073.14 1704.66 1076.52 1672.39 1081.47 1639.85C1081.99 1636.2 1081.47 1632.42 1081.47 1625.53H1081.08Z" fill="#50584D"/>
<path d="M1233.36 1616.58C1241.56 1616.71 1249.76 1619.83 1260.56 1623.35C1251.58 1633.76 1240.9 1636.75 1233.36 1616.58Z" fill="#50584D"/>
<path d="M819.705 1286.22C832.852 1308.35 835.324 1330.21 831.679 1356.25C827.514 1365.62 824.26 1372.91 818.924 1377.85C802.133 1393.34 783.522 1390.74 771.938 1370.69C758.531 1347.39 758.662 1322.41 769.465 1298.2C779.488 1275.68 790.81 1273.07 819.966 1286.22H819.705Z" fill="#EDF0E9"/>
<path d="M1192.23 1291.14C1197.7 1296.61 1200.56 1301.56 1205.11 1307.93C1209.15 1323.94 1211.23 1338.39 1209.02 1356.35C1192.1 1389.02 1182.2 1395.92 1165.8 1390.19C1150.45 1384.86 1142.12 1366.37 1142.77 1339.69C1143.68 1302.73 1156.18 1289.58 1192.23 1291.27V1291.14Z" fill="#EDF0E9"/>
<path d="M1109.71 1717.56C1113.35 1716.52 1114.65 1717.56 1113.48 1719.64C1113.22 1720.03 1110.49 1718.99 1109.71 1717.56Z" fill="#586159"/>
<path d="M1103.86 1767.95C1104.77 1768.6 1103.73 1763.13 1104.9 1767.69C1103.86 1768.21 1103.99 1767.82 1103.86 1767.95Z" fill="#586159"/>
</svg>
