<svg width="1863" height="3912" viewBox="0 0 1863 3912" fill="none" xmlns="http://www.w3.org/2000/svg">
<path d="M665.182 3247.69C681.843 3227.13 709.172 3218.27 735.595 3215.67C761.887 3213.07 788.574 3215.93 814.867 3213.59C881.639 3207.99 942.814 3170.11 986.808 3119.61C1030.8 3069.11 1058.91 3006.63 1079.48 2942.98C1085.86 2923.33 1091.85 2902.63 1105.9 2887.4C1119.96 2872.18 1144.69 2864.5 1161.61 2876.21C1178.14 2887.67 1180.23 2911.1 1178.79 2931.14C1174.89 2984.25 1157.45 3035.4 1140.13 3085.77C1119.96 3144.6 1097.18 3206.95 1047.46 3244.31C1009.32 3272.81 960.772 3282.44 914.044 3291.16C874.866 3298.58 835.687 3305.87 796.379 3313.29C765.661 3319.02 732.993 3324.62 704.097 3312.9C675.201 3301.19 652.296 3263.57 665.182 3247.69Z" fill="#3D5B30" stroke="#231F20" stroke-width="5" stroke-miterlimit="10"/>
<path d="M369.196 3487.31C365.247 3437.29 373.508 3399.33 380.832 3360.56C387.558 3324.96 391.429 3315.13 401.211 3280.24C406.157 3262.41 425.228 3226.99 438.375 3213.98C451.781 3200.7 467.076 3196.02 485.82 3193.8C523.176 3189.25 570.621 3193.14 603.812 3210.71C611.491 3214.74 614.273 3232 622.994 3231.09C635.749 3229.79 634.735 3218.27 646.97 3215.02C660.116 3211.51 676.036 3214.71 682.935 3226.29C689.833 3238.01 695.771 3247.17 697.203 3260.71C693.724 3288.63 698.019 3316.96 693.724 3343.78C689.429 3370.59 681.712 3395.29 659.324 3410.78C655.362 3413.52 648.169 3422.9 624.193 3422.9C616.383 3429.67 607.766 3442.24 600.216 3449.27C592.667 3456.3 564.813 3472.8 554.66 3470.85C589.426 3515.21 601.73 3546.82 603.813 3588.34C605.895 3629.73 587.998 3674.09 560.274 3704.94C547.388 3719.13 528.644 3731.1 510.161 3726.55C501.913 3722.6 481.533 3702.22 474.34 3693.83C458.851 3672.23 443.776 3652.75 428.156 3631.01C411.105 3607.19 394.554 3581.71 383.23 3554.77C371.906 3527.83 368.282 3499.16 369.324 3487.44L369.196 3487.31Z" fill="white"/>
<path d="M690.188 3358.72C686.804 3380.97 674.043 3401.8 655.691 3414.95C651.396 3418.07 646.712 3420.8 641.505 3421.72C636.299 3422.63 630.574 3421.45 626.799 3417.68C620.942 3411.69 622.244 3402.06 623.805 3393.99C627.32 3376.42 630.835 3358.98 634.349 3341.41C637.343 3326.7 640.337 3311.73 638.385 3296.76C636.693 3282.84 630.833 3269.69 628.75 3255.76C626.667 3241.83 629.791 3225.56 641.505 3218.02C650.877 3212.03 663.765 3213.07 673.137 3219.19C682.508 3225.3 688.495 3235.46 691.618 3246.13C694.612 3256.8 695.003 3268.13 694.872 3279.32C694.612 3306.39 693.833 3333.73 689.928 3358.85L690.188 3358.72Z" stroke="#231F20" stroke-width="2" stroke-miterlimit="10"/>
<path d="M623.795 3423.66C609.478 3444.48 588 3460.23 563.92 3467.52C539.711 3474.81 513.155 3473.64 489.727 3464.26" stroke="#231F20" stroke-width="2.15" stroke-miterlimit="10"/>
<path d="M555.452 3477.82C584.999 3507.76 602.827 3549.02 604.129 3591.06C605.43 3633.1 590.463 3675.4 562.869 3707.16C551.415 3720.44 534.494 3732.67 517.573 3727.99C509.373 3725.77 502.734 3719.92 496.747 3713.93C480.476 3697.79 466.293 3679.7 452.106 3661.73C426.985 3629.84 401.47 3597.31 386.631 3559.43C370.882 3519.34 367.759 3475.09 371.664 3432C375.569 3388.92 385.981 3347.01 396.393 3305.1C405.765 3267.22 418.264 3225.31 452.106 3206.17C473.322 3194.07 499.09 3193.55 523.56 3194.33C542.434 3194.98 561.571 3196.15 579.533 3201.88C597.495 3207.61 614.543 3218.41 624.695 3234.29L625.35 3235.33" stroke="#231F20" stroke-width="2.15" stroke-miterlimit="10"/>
<path d="M513.021 3194.34C478.919 3213.74 456.013 3249.01 443.518 3286.11C431.022 3323.2 427.769 3362.9 424.775 3402.08" stroke="#231F20" stroke-miterlimit="10"/>
<path d="M555.704 3711.34C519.649 3687.26 491.404 3653.03 467.585 3616.84C451.575 3592.63 437.254 3566.99 428.143 3539.53C418.901 3511.93 415.128 3482.26 420.205 3453.75" stroke="#231F20" stroke-miterlimit="10"/>
<path d="M1558.23 3641C1553.4 3651.04 1552.73 3662.93 1556.09 3673.63C1559.44 3684.34 1567.21 3693.45 1577 3699" stroke="#231F20" stroke-width="2.15" stroke-miterlimit="10"/>
<path d="M1849 3841C1820.25 3857.34 1787.46 3865.83 1754.41 3869.56C1721.49 3873.16 1688.18 3872.13 1655 3870.59" stroke="#231F20" stroke-miterlimit="10"/>
<path d="M1559.38 3630.49C1500.55 3613.57 1448.16 3614.66 1396.23 3647.07C1389.04 3684.24 1367 3768.33 1366.35 3825.47C1366.09 3845.51 1367.79 3867.9 1382.62 3881.44C1396.55 3894.19 1417.38 3894.59 1436.25 3894.33C1525.8 3893.15 1615.22 3891.98 1704.77 3890.81C1747.33 3890.29 1793.54 3888.47 1826.21 3861.26C1861.48 3831.98 1870.47 3777.44 1851.59 3735.66C1832.85 3693.75 1791.32 3668.59 1746.29 3660.26C1701.12 3651.93 1652.08 3667.71 1610.82 3687.76C1598.97 3693.49 1586.85 3691.4 1574.22 3687.76C1563.55 3684.64 1556 3674.35 1553.27 3663.55C1550.53 3652.75 1551.97 3641.29 1559.26 3630.36L1559.38 3630.49Z" fill="white"/>
<path d="M1581.25 3636.05C1576.17 3641.91 1567.06 3642.56 1559.64 3640.22C1552.22 3637.87 1545.71 3633.32 1538.55 3630.2C1515.25 3619.91 1488.31 3625.77 1464.1 3633.58C1439.89 3641.39 1415.03 3651.02 1389.78 3647.77C1380.28 3646.6 1370.52 3643.08 1364.79 3635.53C1358.15 3626.81 1358.15 3614.19 1363.23 3604.55C1368.3 3594.79 1377.41 3587.89 1387.43 3583.47C1397.46 3579.04 1408.26 3576.96 1419.07 3575.01C1439.24 3571.23 1459.28 3567.33 1479.46 3563.55C1498.33 3559.91 1517.6 3556.39 1536.73 3558.74C1555.86 3561.08 1574.99 3570.45 1584.37 3587.24C1593.35 3603.25 1591.39 3624.47 1581.37 3636.05H1581.25Z" fill="white" stroke="#231F20" stroke-width="2.15" stroke-miterlimit="10"/>
<path d="M1392.37 3655.6C1374.67 3722.11 1356.84 3791.49 1370.51 3858.91C1373.37 3873.23 1378.19 3887.94 1388.99 3897.7C1398.88 3906.55 1412.68 3910.19 1425.95 3910.45C1439.23 3910.71 1452.38 3907.98 1465.52 3906.03C1563.79 3890.93 1664.8 3912.14 1763.07 3896.79C1787.93 3892.88 1813.57 3886.11 1832.06 3869.19C1847.94 3854.61 1857.17 3833.66 1860.43 3812.31C1869.41 3755.17 1835.18 3693.99 1781.81 3671.74C1757.34 3661.58 1730.4 3658.98 1703.98 3660.55C1669.09 3662.5 1634.21 3671.35 1604.28 3689.44C1574.34 3707.53 1549.74 3735.13 1538.15 3768.19" stroke="#231F20" stroke-width="2.15" stroke-miterlimit="10"/>
<path d="M1377.29 3863.86C1438.07 3873.23 1500.15 3874.79 1561.33 3868.54" stroke="#231F20" stroke-miterlimit="10"/>
<path d="M1511.08 3555.01C1489.99 3556.05 1468.91 3556.96 1447.82 3558C1443.66 3558.26 1438.97 3558.13 1436.24 3555.14C1433.11 3551.88 1433.77 3546.68 1434.55 3542.25C1450.43 3457.78 1466.31 3373.43 1482.32 3288.96C1488.3 3257.46 1493.9 3223.1 1479.32 3194.46C1468.39 3172.86 1447.69 3158.15 1427.78 3144.35C1372.85 3106.48 1315.45 3066.78 1284.86 3007.42C1279.14 2996.23 1274.32 2984.12 1274.06 2971.5C1273.8 2958.87 1278.75 2945.6 1289.16 2938.44C1299.18 2931.54 1312.58 2931.28 1324.3 2934.79C1335.88 2938.44 1346.17 2945.34 1356.19 2952.24C1403.57 2984.78 1451.07 3017.18 1498.45 3049.73C1540.49 3078.49 1585.66 3111.68 1597.77 3161.14C1606.49 3196.67 1596.07 3233.77 1585.66 3268.91C1558.85 3360.16 1531.91 3451.53 1511.08 3554.74V3555.01Z" fill="#3C5B31" stroke="#231F20" stroke-width="5" stroke-miterlimit="10"/>
<path d="M1244.55 3229.06C1116.47 3169.7 1001.54 3095.38 901.445 3000.23C819.053 2922.01 750.461 2832.07 692.279 2733.8C560.167 2510.83 456.166 2275.9 384.057 2027.03C378.721 2008.42 371.433 1997.87 349.827 1994.1C241.663 1975.22 151.205 1924.33 83.1315 1836.99C32.4991 1771.91 -1.21669 1700.19 0.605551 1615.46C1.25635 1583.31 10.7616 1553.64 27.0317 1525.91C31.7174 1517.84 37.1842 1511.72 49.8097 1512.11C57.2288 1572.64 79.4837 1626.65 131.808 1661.54C179.187 1693.17 232.164 1710.48 293.86 1712.95C281.886 1671.95 271.859 1634.59 260.144 1597.89C219.665 1470.72 200.011 1340.69 205.087 1207.28C207.43 1145.45 214.201 1084.41 241.014 1027.14C268.999 967.263 312.339 924.7 374.035 900.361C435.861 876.021 498.729 857.016 563.809 841.137C672.233 814.714 767.639 757.314 848.859 678.958C880.618 648.37 891.295 607.498 897.803 566.758C911.99 477.077 903.788 388.701 876.455 301.884C849.512 216.498 797.706 192.548 711.409 199.837C675.355 202.961 640.085 214.286 604.16 220.533C515.912 236.022 491.964 187.731 501.335 114.19C504.98 85.4248 519.815 62.5193 543.504 45.3381C563.028 31.1507 583.852 19.6948 607.542 14.228C748.375 -18.0517 879.97 4.85714 1001.15 83.2136C1033.17 103.909 1058.03 133.195 1075.86 167.166C1107.23 226.91 1127.66 289.516 1127.8 358.241C1127.93 422.67 1122.59 486.579 1115.95 550.488C1109.31 613.485 1111.53 676.222 1118.29 738.96C1125.32 802.738 1156.69 849.336 1215.91 876.019C1238.82 886.302 1261.99 896.195 1284.77 906.608C1338.4 931.208 1372.49 970.126 1385.51 1029.74C1402.82 1108.49 1401.91 1187.23 1394.88 1266.37C1386.42 1363.47 1356.49 1456.01 1334.75 1550.38C1332.8 1558.97 1331.76 1567.95 1328.76 1576.15C1322.38 1593.33 1330.98 1601.92 1345.17 1608.3C1384.08 1625.74 1422.22 1645.66 1462.18 1660.23C1512.68 1678.72 1563.18 1678.72 1609.65 1645.4C1629.69 1631.08 1643.88 1612.34 1654.56 1590.47C1673.43 1551.94 1685.4 1511.07 1694.12 1469.42C1708.57 1470.2 1711.96 1479.7 1715.08 1489.21C1729.53 1533.46 1730.05 1578.76 1718.86 1623.27C1702.32 1688.48 1674.47 1749 1634.25 1803.28C1579.97 1876.56 1505.78 1918.47 1417.14 1934.74C1374.06 1942.68 1330.98 1954.66 1286.33 1948.54C1272.15 1946.59 1269.41 1953.36 1269.15 1965.72C1267.98 2045.12 1267.72 2124.78 1286.85 2202.35C1328.64 2370.91 1379.4 2536.74 1447.73 2696.7C1494.07 2805.26 1559.28 2901.97 1634.12 2992.69C1665.88 3031.21 1690.74 3072.61 1695.94 3123.63C1701.02 3172.83 1684.62 3212.14 1644.79 3242.2C1589.87 3283.59 1526.74 3289.45 1461.66 3284.51C1387.07 3278.91 1316.14 3257.69 1244.16 3229.32L1244.55 3229.06Z" fill="#2B2A28"/>
<path d="M716.615 1966.88C767.637 1949.57 818.268 1938.89 864.475 1914.16C912.374 1888.65 960.793 1864.57 987.867 1811.08C1051.12 1864.18 1116.46 1905.7 1193.52 1931.74C1207.7 1951.78 1202.76 1969.74 1187.79 1980.55C1161.5 1999.55 1157.34 2024.67 1158.9 2053.57C1159.42 2063.59 1159.41 2073.74 1157.2 2083.63C1153.56 2100.03 1146.14 2105.89 1131.95 2092.1C1121.93 2082.33 1111 2070.75 1096.81 2084.81C1084.45 2097.17 1085.23 2112.4 1094.86 2126.2C1106.58 2142.73 1119.07 2136.87 1133.65 2127.76C1155.91 2113.96 1163.45 2119.43 1166.06 2151.19C1173.47 2244.38 1190.14 2335.75 1223.46 2423.22C1281.77 2576.29 1350.75 2723.89 1447.46 2857.17C1453.32 2865.38 1458.27 2874.49 1465.16 2881.52C1489.24 2906.12 1483.91 2928.37 1451.89 2953.89C1480.78 2952.06 1501.35 2924.99 1519.05 2954.8C1531.03 2975.1 1523.21 2990.59 1508.9 3008.16C1470.5 3025.34 1437.44 3009.07 1405.03 2997.23C1296.99 2957.53 1214.09 2883.6 1138.33 2799.78C1061.41 2714.78 989.952 2625.49 932.421 2526.31C883.221 2441.57 842.735 2351.89 809.284 2259.87C780.128 2179.56 750.586 2099.38 719.869 2019.73C713.621 2003.33 705.418 1987.05 716.742 1967.01L716.615 1966.88Z" fill="#679441"/>
<path d="M1271.76 1548.18C1226.07 1533.86 1182.46 1518.63 1134.95 1518.11C1077.03 1517.59 1033.3 1540.63 1005.57 1592.17C1003.23 1596.47 1000.37 1600.5 996.207 1607.4C970.956 1587.75 945.183 1571.22 917.329 1557.68C855.763 1527.74 794.329 1526.57 732.893 1557.29C689.159 1579.16 646.076 1602.06 600 1625.23C592.32 1621.59 589.325 1615.99 588.153 1609.74C564.854 1478.67 536.61 1348.12 556.134 1213.41C564.985 1152.62 589.193 1099.78 632.667 1057.21C662.864 1027.67 686.947 990.702 730.681 972.87C751.767 971.829 768.944 974.823 785.084 982.372C808.773 993.435 814.109 1007.1 804.087 1030.79C800.703 1038.86 796.148 1046.41 791.853 1054.09C783.783 1068.67 787.429 1080.77 799.664 1090.66C810.467 1099.38 819.576 1094.7 830.119 1087.93C886.869 1051.09 946.482 1018.55 995.552 970.916C1012.6 954.386 1031.87 957.381 1051.79 962.327C1095.78 973.39 1136.91 992.394 1177.39 1011.92C1219.3 1032.09 1260.95 1045.76 1307.29 1028.97C1310.41 1027.8 1314.58 1030.01 1320.3 1032.48C1334.75 1047.06 1336.32 1063.46 1337.36 1079.73C1338.53 1099.52 1331.24 1111.75 1305.73 1104.59C1288.8 1088.71 1283.21 1069.45 1274.1 1052.27C1271.63 1047.97 1267.98 1054.74 1271.88 1051.61C1282.95 1066.45 1286.72 1085.07 1298.96 1102.77C1311.45 1134.4 1312.75 1164.59 1311.19 1194.79C1305.07 1312.46 1301.17 1430.51 1271.36 1548.44L1271.76 1548.18Z" fill="#679441"/>
<path d="M1618.23 3194.17C1614.07 3204.98 1605.74 3206.54 1596.88 3210.96C1545.6 3203.29 1497.05 3215.91 1448.24 3213.7C1425.33 3212.66 1402.69 3211.87 1385.63 3193.13C1381.21 3188.19 1375.87 3185.45 1368.97 3185.97C1327.32 3188.97 1293.87 3166.97 1260.42 3147.84C1116.85 3065.57 995.933 2957.54 889.462 2830.38C776.222 2695.14 686.671 2546.37 605.321 2390.56C548.441 2281.62 508.742 2166.43 462.665 2053.45C457.069 2039.52 451.083 2025.2 457.721 2007.24C500.544 2001.39 542.063 2002.43 586.057 1994.23C617.816 2025.73 634.22 2064.51 648.277 2102.91C692.141 2222.66 752.405 2334.2 810.717 2447.05C890.115 2600.77 993.982 2735.23 1118.81 2854.45C1229.7 2960.27 1361.81 3027.57 1507.72 3070C1531.02 3076.77 1555.49 3071.17 1581.66 3077.68C1618.62 3109.31 1624.09 3148.49 1618.1 3194.17H1618.23Z" fill="#3E5B2D"/>
<path d="M1125.18 846.733C1156.55 876.41 1189.09 900.491 1224.37 919.885C1251.44 934.853 1273.83 953.985 1292.96 980.148C1272.4 999.411 1250.92 996.159 1227.75 985.616C1178.55 963.229 1130 938.888 1077.94 923.269C1063.49 918.974 1049.17 914.418 1033.81 913.637C1009.99 912.336 989.689 918.191 971.336 934.331C936.453 964.919 902.61 997.07 862.39 1017.9C856.012 1017.38 853.413 1014.77 852.762 1010.87C844.952 957.631 806.293 937.845 760.347 931.207C731.581 927.042 707.633 918.714 686.807 898.019C675.483 886.825 660.12 879.535 646.583 870.554C645.412 858.709 655.827 860.271 661.684 857.928C749.022 824.087 821.782 768.767 886.992 703.036C925.259 664.508 938.273 613.097 943.48 561.814C952.851 471.222 949.21 380.892 920.835 292.773C904.435 242.011 880.486 196.843 830.244 172.893C778.18 148.163 723.25 148.945 667.932 161.05C666.76 161.31 665.591 161.962 664.29 162.222C649.582 164.956 634.479 176.407 620.812 169.378C607.015 162.35 614.825 144.258 611.832 131.242C606.886 110.156 593.61 93.3678 583.588 74.7549C598.556 58.3547 618.214 56.4002 636.046 53.1462C747.724 32.5809 853.802 46.898 953.115 104.689C997.239 130.331 1028.74 166.125 1049.69 212.332C1074.03 266.088 1084.19 321.926 1083.01 381.019C1081.45 454.169 1073.38 526.669 1068.7 599.429C1064.27 668.023 1075.85 734.798 1094.99 800.268C1099.93 817.319 1111.39 831.374 1125.32 846.342L1125.18 846.733Z" fill="#679441"/>
<path d="M1585.18 3078.72C1516.19 3094.34 1456.05 3064.41 1395.53 3041.89C1344.25 3022.76 1295.96 2995.55 1248.71 2967.05C1205.5 2941.02 1166.06 2910.16 1128.96 2876.71C1058.93 2813.59 997.239 2742.13 937.495 2669.5C902.482 2627.07 873.2 2579.69 847.558 2530.88C814.237 2467.49 774.404 2407.75 744.987 2342.28C709.584 2263.53 666.5 2188.3 640.077 2105.26C628.363 2068.55 607.282 2034.71 589.971 1996.83C630.581 1984.08 671.446 1974.18 715.441 1964.42C714.009 2000.48 733.273 2030.67 745.508 2061.39C766.594 2113.85 787.16 2166.43 804.602 2220.19C827.119 2289.56 861.094 2354.12 889.079 2421.15C921.359 2498.47 968.736 2566.02 1014.68 2634.88C1043.84 2678.74 1079.37 2717.92 1114.25 2757.23C1143.41 2790.03 1170.09 2825.43 1203.8 2853.94C1239.99 2884.78 1272.01 2921.49 1314.96 2943.23C1372.75 2972.64 1428.98 3007.79 1500.7 3007.92C1511.24 3009.61 1517.36 3016.64 1524.39 3016.25C1567.34 3013.51 1577.63 3043.45 1585.18 3078.72Z" fill="#4E6F36"/>
<path d="M937.764 1623.65C936.072 1634.58 932.95 1642.78 930.347 1651.11C922.537 1676.62 923.838 1685.47 946.096 1697.71C959.633 1705.26 957.941 1711.63 956.9 1724.13C953.256 1765.39 928.652 1790.25 894.419 1805.74C872.162 1815.76 864.095 1837.63 845.743 1851.3C790.164 1892.43 730.287 1921.84 662.603 1933.82C591.796 1946.44 520.86 1943.06 449.402 1935.77C392.132 1929.91 336.552 1914.81 279.151 1909.22C249.475 1906.35 218.24 1897.24 188.694 1887.35C181.665 1885.01 173.982 1882.14 168.515 1877.33C125.172 1838.41 90.0315 1794.16 74.0218 1736.36C69.5964 1720.48 71.2857 1709.29 84.1715 1700.31C97.578 1691.07 110.206 1690.94 125.825 1700.05C169.169 1725.3 215.504 1743.39 269.911 1745.74C273.425 1770.47 248.047 1780.75 244.012 1800.01C313.257 1858.84 395.256 1822.53 462.939 1832.03C463.2 1832.03 454.48 1834.12 441.204 1821.49C535.309 1792.46 631.236 1778.02 713.237 1721.01C718.574 1717.88 721.571 1716.06 726.908 1713.2C732.375 1710.72 735.624 1709.94 741.481 1710.2C746.948 1712.28 748.38 1714.63 747.989 1718.14C748.77 1715.02 748.51 1711.89 748.51 1706.56C764.39 1681.44 783.265 1667.64 812.16 1663.08C845.221 1657.75 873.596 1641.35 876.719 1599.04C887.783 1592.41 896.894 1592.67 908.999 1596.96C923.577 1601.65 928.135 1613.36 937.637 1623.52L937.764 1623.65Z" fill="#3F483D"/>
<path d="M399.029 952.151C463.198 927.941 523.333 897.613 592.579 905.943C606.506 907.636 619.915 908.416 634.232 918.047C633.191 939.133 618.09 949.808 605.595 961.652C569.8 995.624 539.604 1033.76 512.01 1074.63C489.623 1107.82 473.746 1142.44 469.32 1182.01C461.511 1251.91 449.406 1321.81 450.057 1391.96C450.838 1468.5 457.867 1545.03 473.356 1620.4C477.391 1639.92 483.243 1659.83 470.877 1681.83C439.248 1695.63 408.404 1702.53 373.912 1707.47C356.991 1696.93 350.745 1681.7 346.71 1665.82C300.243 1479.17 279.938 1290.96 316.903 1099.88C327.967 1043 351.656 992.891 398.774 952.151H399.029Z" fill="#3E5B2D"/>
<path d="M471.535 1684.31C471.274 1635.11 453.183 1588.52 449.538 1540.1C449.148 1535.15 446.282 1530.21 446.672 1525.52C450.837 1477.75 434.826 1431.02 438.601 1383.38C441.985 1339.91 447.061 1296.7 451.617 1253.35C455.782 1213.65 458.125 1173.96 468.147 1134.91C471.011 1123.85 474.524 1113.3 480.382 1103.67C521.903 1035.99 570.453 974.159 633.841 921.574C647.898 922.225 656.23 929.905 664.169 937.975C682.262 956.327 703.607 967.913 731.722 971.687C693.325 1007.35 655.058 1044.32 621.607 1084.67C590.498 1122.15 572.015 1167.06 566.028 1217.82C561.082 1259.21 556.921 1300.47 560.435 1341.34C566.162 1408.37 572.666 1475.41 585.813 1541.66C590.889 1567.3 598.049 1592.81 597.399 1622.62C565.249 1645.53 533.882 1666.09 494.834 1677.42C490.799 1678.72 489.498 1679.76 486.114 1681.84C480.647 1683.4 477.392 1683.92 471.535 1684.45V1684.31Z" fill="#4E6F36"/>
<path d="M1586.21 3083.55C1579.57 3070.41 1575.27 3058.95 1569.29 3048.28C1561.48 3034.35 1557.57 3014.83 1532.45 3027.97C1522.04 3033.44 1512.41 3022.64 1505.12 3010.4C1504.6 3005.71 1505.12 3003.24 1506.29 3001.03C1517.57 2980.98 1513.32 2960.77 1493.54 2940.38C1491.58 2959.64 1484.03 2973.31 1463.99 2970.31C1452.8 2968.62 1445.51 2960.55 1445.25 2949.75C1444.86 2927.62 1461.12 2923.84 1480.13 2923.45C1311.96 2680.31 1172.43 2427.15 1154.08 2123.1C1141.06 2124.01 1141.19 2135.33 1135.6 2140.41C1118.54 2156.16 1100.97 2155.38 1087.43 2136.9C1078.19 2124.14 1075.07 2109.56 1078.71 2094.07C1081.84 2080.8 1090.43 2071.82 1103.18 2067.65C1117.37 2063.09 1127.39 2070.12 1135.07 2081.32C1138.46 2086.26 1141.45 2091.47 1150.44 2096.55C1150.44 2073.9 1148.87 2051.12 1150.82 2028.6C1152.78 2007.26 1150.04 1983.05 1181.93 1976.28C1197.29 1973.02 1191.56 1952.72 1195.08 1936.84C1209.78 1932.41 1218.77 1935.15 1218.38 1953.63C1217.59 1993.85 1217.99 2034.2 1219.68 2074.42C1223.45 2163.06 1244.41 2248.31 1269.14 2333.05C1303.63 2451.49 1341.25 2568.64 1387.06 2683.18C1436.65 2806.96 1507.98 2917.6 1591.54 3020.81C1608.99 3042.42 1626.43 3064.16 1636.06 3090.45C1649.59 3127.29 1655.85 3163.99 1620.44 3196.27C1616.41 3157.74 1610.68 3119.35 1586.08 3083.55H1586.21Z" fill="#EDF0E9"/>
<path d="M456.683 2004.48C459.156 2020.36 464.235 2034.68 469.572 2048.61C497.947 2122.28 524.108 2197.12 556.648 2269.1C600.122 2365.03 649.581 2457.96 701.255 2549.86C745.639 2628.86 796.926 2703.05 854.066 2772.95C919.797 2853.39 985.917 2933.57 1067.01 3000.6C1127.14 3050.45 1190.27 3094.97 1256.39 3135.97C1284.5 3153.41 1314.96 3164.47 1344.64 3178.01C1345.81 3178.53 1347.11 3178.79 1348.15 3179.44C1363.9 3189.85 1370.93 3161.48 1384.6 3170.33C1394.88 3177.1 1390.32 3195.19 1408.68 3200.01C1441.22 3208.34 1474.53 3208.6 1505.9 3203.26C1535.58 3198.19 1562.66 3198.71 1592.59 3209.51C1571.38 3228.25 1544.96 3234.11 1516.58 3233.59C1492.76 3233.2 1469.07 3232.55 1441.87 3231.9C1433.93 3231.64 1429.63 3230.46 1423.26 3228.77C1337.22 3213.93 1259.12 3183.61 1184.67 3142.61C1090.44 3090.67 1002.57 3029.37 926.169 2953.88C851.717 2880.33 788.72 2797.29 734.443 2706.96C619.772 2516.02 533.35 2312.57 459.289 2103.41C450.047 2077.37 443.929 2050.3 435.208 2024.01C428.7 2004.35 438.721 2002.27 456.683 2004.48Z" fill="#758F55"/>
<path d="M1496.41 1697.08C1503.57 1698 1508.91 1698.78 1516.85 1699.95C1527.92 1724.94 1551.21 1727.93 1572.56 1738.34C1573.99 1742.51 1573.99 1744.33 1572.3 1748.63C1541.84 1762.95 1525.05 1790.67 1497.59 1805.38C1393.46 1861.48 1288.55 1829.85 1183.64 1810.58C1173.88 1808.76 1165.42 1802.25 1152.53 1799.91C1142.25 1797.05 1135.35 1793.66 1127.15 1787.02C1118.95 1762.29 1132.62 1755.01 1149.8 1749.15C1143.29 1740.04 1114.66 1738.87 1132.88 1713.75C1137.7 1707.11 1130.41 1702.55 1125.07 1699.43C1097.74 1683.03 1098.91 1658.43 1107.89 1633.56C1112.71 1620.16 1113.88 1606.88 1116.09 1590.48C1157.87 1566.27 1195.1 1574.34 1231.93 1603.11C1240.39 1615.73 1247.81 1624.33 1264.73 1618.99C1290.63 1619.77 1305.73 1635.91 1322 1649.45C1367.04 1687.06 1418.84 1700.08 1479.24 1692.4C1483.4 1692.01 1484.83 1691.75 1488.35 1691.49C1491.08 1694.09 1492.51 1695.91 1496.55 1697.08H1496.41Z" fill="#586159"/>
<path d="M749.957 1712.94C745.271 1715.03 742.016 1715.02 736.159 1715.15C731.864 1716.72 730.039 1718.28 727.306 1721.4C645.825 1783.1 550.806 1804.06 455.138 1825.01C462.167 1832.95 475.185 1823.97 482.994 1831.52C484.296 1833.6 483.125 1835.03 479.74 1835.68C425.203 1845.71 370.013 1843.36 314.956 1843.62C297.124 1843.62 280.723 1844.14 268.878 1825.66C259.767 1811.47 238.556 1815.12 225.801 1803.14C231.918 1795.98 246.363 1793.77 244.931 1783.62C241.807 1761.36 263.412 1762.27 272.393 1748.74C310.269 1757.72 346.715 1747.17 383.29 1741.84C406.458 1738.45 429.367 1733.25 455.399 1729.34C566.556 1720.1 652.984 1654.89 749.823 1616.1C789.132 1600.36 828.311 1581.61 874.778 1599.05C878.162 1608.42 878.028 1616.24 880.632 1623C885.317 1635.11 879.593 1643.7 870.743 1647.99C847.574 1658.93 826.228 1675.2 799.415 1676.76C785.488 1677.54 772.861 1676.24 771.819 1696.67C771.559 1701.75 758.417 1706.17 749.957 1712.81V1712.94Z" fill="#586159"/>
<path d="M398.243 950.326C398.764 975.577 375.332 988.595 362.837 1008.12C334.071 1053.15 326.519 1103.4 317.668 1153.64C304.652 1226.92 307.259 1301.24 311.033 1374.78C315.068 1453.14 326.001 1531.1 343.052 1608.03C350.081 1639.79 358.409 1671.16 370.514 1704.35C354.895 1711.11 343.961 1706.69 340.446 1688.99C339.015 1681.7 336.024 1674.54 333.29 1664.65C329.385 1658.66 329.386 1654.23 327.824 1648.25C306.348 1571.19 279.534 1497.39 268.731 1419.95C253.372 1309.96 245.172 1199.46 271.725 1089.86C288.125 1022.18 323.919 970.24 398.37 950.195L398.243 950.326Z" fill="#758F55"/>
<path d="M1124.94 1781.17C1132.35 1785.08 1138.35 1787.16 1146.68 1790.02C1184.55 1824.39 1228.93 1828.29 1274.36 1828.42C1311.59 1828.42 1347.12 1838.83 1385.26 1838.83C1464 1838.83 1520.76 1806.03 1570.87 1747.59C1572.82 1745.64 1572.82 1745.25 1572.95 1745.38C1588.57 1730.28 1568.91 1718.57 1570.73 1702.82C1577.24 1700.08 1582.19 1699.69 1587.14 1698.78C1597.42 1696.83 1608.09 1686.94 1617.59 1700.35C1626.18 1712.58 1627.36 1725.08 1621.11 1739.39C1612.52 1759.44 1599.37 1776.88 1583.62 1790.42C1542.23 1826.34 1500.97 1863.83 1442.66 1870.73C1440.19 1870.99 1437.59 1873.2 1435.5 1872.68C1397.63 1862.39 1358.97 1881.27 1321.09 1869.68C1298.31 1862.79 1274.23 1865.13 1250.67 1860.96C1202.25 1852.5 1156.57 1836.36 1110.23 1821.79C1102.94 1819.44 1094.87 1817.62 1092.01 1810.07C1075.61 1767.38 1041.89 1731.06 1043.59 1681.86C1044.11 1668.46 1033.18 1662.6 1028.75 1649.71C1040.73 1632.53 1053.61 1619.13 1077.04 1619.78C1087.84 1626.28 1090.19 1635.26 1088.75 1643.85C1082.38 1681.99 1092.14 1718.18 1102.03 1756.44C1104.5 1759.57 1105.55 1760.74 1108.54 1763.47C1115.57 1769.07 1120.25 1773.49 1124.94 1781.3V1781.17Z" fill="#3F483D"/>
<path d="M1296.48 1091.4C1327.72 1105.2 1331.36 1103.25 1330.84 1075.66C1330.58 1063.42 1327.46 1051.84 1323.03 1037.39C1336.83 1034.53 1337.09 1045.59 1339.17 1055.22C1350.11 1108.33 1351.54 1161.95 1348.94 1216.1C1344.9 1299.27 1325.37 1379.58 1305.72 1459.89C1298.95 1487.87 1291.66 1515.73 1284.89 1543.71C1283.33 1550.35 1281.25 1555.56 1271.23 1552.56C1287.24 1434.12 1295.83 1316.58 1303.38 1199.18C1305.46 1165.47 1300.65 1131.63 1289.84 1095.57C1290.36 1092.06 1292.18 1091.67 1296.74 1091.67L1296.48 1091.4Z" fill="#EDF0E9"/>
<path d="M880.223 1601.42C840.003 1596.21 804.728 1602.85 771.017 1617.69C721.946 1639.42 672.747 1660.25 625.889 1686.93C577.079 1714.79 524.754 1736.26 462.146 1729.89C484.144 1709.06 516.556 1702.16 545.842 1688.88C617.3 1656.6 684.07 1614.04 761.255 1587.75C765.55 1584.5 767.767 1582.8 772.192 1581.63C779.091 1580.98 784.033 1580.2 791.322 1578.64C796.008 1576.42 798.219 1574.99 802.514 1574.21C841.172 1570.96 877.359 1570.57 912.763 1592.44C916.017 1595.43 916.929 1596.99 916.538 1601.15C904.563 1602.85 894.023 1602.2 880.096 1601.55L880.223 1601.42Z" fill="#818A8C"/>
<path d="M1083.4 1621.72C1061.8 1623.41 1051.78 1642.94 1030.95 1646.06C1017.67 1629.14 1031.21 1619.12 1041.23 1609.09C1073.12 1576.94 1109.96 1556.25 1160.85 1564.06C1167.75 1567.31 1172.17 1567.57 1178.81 1568.35C1193.52 1572 1206.15 1575.51 1221.25 1579.81C1225.54 1581.37 1227.1 1582.02 1230.87 1584.36C1240.9 1589.31 1248.71 1592.56 1258.86 1596.99C1262.89 1598.03 1264.72 1597.9 1267.45 1600.24C1282.16 1610.13 1295.96 1617.55 1311.84 1626.41C1315.74 1627.97 1317.56 1627.96 1320.3 1630.44C1343.86 1645.15 1364.94 1660.64 1393.97 1665.45C1398.52 1665.97 1400.35 1665.84 1403.99 1667.8C1426.12 1675.08 1446.42 1680.29 1469.59 1685.89C1475.05 1686.54 1477.14 1687.58 1480.52 1690.31C1482.22 1690.96 1481.83 1691.62 1481.83 1692.01C1466.73 1706.97 1449.54 1706.58 1429.63 1703.98C1377.96 1697.47 1334.09 1677.17 1297.78 1639.94C1289.71 1631.74 1279.03 1627.57 1265.63 1623.93C1252.22 1632 1244.15 1624.45 1234.39 1616.38C1201.72 1581.5 1163.32 1582.54 1121.54 1592.95C1110.48 1606.62 1098.24 1613.78 1083.4 1621.59V1621.72Z" fill="#818A8C"/>
<path d="M582.156 144.281C582.156 153.653 583.196 160.163 581.634 165.89C577.599 179.947 564.714 183.721 553.13 175.261C537.511 163.807 529.829 115.516 541.283 98.8552C548.052 89.0932 555.991 91.3051 563.28 98.0735C575.645 109.658 581.762 124.236 582.283 144.281H582.156Z" fill="#3E5B2D"/>
<path d="M1568.91 1700.44C1573.21 1705.51 1574.76 1709.81 1579.06 1713.06C1592.08 1722.95 1590.9 1733.58 1575.55 1744.95C1566.04 1735.97 1555.76 1736.62 1546.39 1737.66C1521.66 1740.39 1517.62 1726.34 1519.45 1703.43C1534.8 1700.31 1550.16 1700.18 1568.78 1700.44H1568.91Z" fill="#50584D"/>
<path d="M916.287 1605.72C915.245 1601.95 915.117 1600.25 915.117 1596.22C931.517 1596.74 944.012 1603.12 940.628 1624.59C928.003 1624.46 921.887 1617.04 916.159 1605.72H916.287Z" fill="#586159"/>
<path d="M1422.87 3229.43C1425.73 3228.13 1430.29 3228.52 1436.54 3230.34C1433.68 3233.6 1428.99 3233.86 1422.87 3229.43Z" fill="#3F483D"/>
<path d="M326.525 1648.64C328.868 1650.2 330.823 1653.84 332.646 1659.83C328.48 1659.31 326.395 1655.67 326.525 1648.64Z" fill="#50584D"/>
<path d="M1179.21 1567.03C1176.22 1570.54 1171.66 1570.54 1165.68 1566.11C1168.54 1564.68 1172.97 1565.07 1179.21 1567.03Z" fill="#586159"/>
<path d="M1497.07 1695.89C1498.11 1697.19 1494.46 1697.19 1494.46 1697.19C1494.46 1697.19 1491.6 1694.98 1490.95 1693.42C1492.51 1692.24 1494.33 1693.15 1497.07 1696.02V1695.89Z" fill="#3F483D"/>
<path d="M1481.18 1689.41C1479.88 1690.45 1477.53 1689.93 1473.89 1687.85C1475.19 1686.81 1477.66 1687.33 1481.18 1689.41Z" fill="#3F483D"/>
<path d="M485.584 1682.61C485.063 1680.79 486.62 1679.23 490.395 1677.93C491.046 1679.75 489.489 1681.44 485.584 1682.61Z" fill="#3E5B2D"/>
<path d="M1404.9 1668.15C1403.47 1670.23 1401.26 1669.84 1398 1667.24C1399.17 1666.19 1401.52 1666.33 1404.9 1668.15Z" fill="#50584D"/>
<path d="M1321.09 1631.21C1319.27 1632.77 1317.45 1631.99 1314.97 1629.13C1316.67 1626.52 1318.88 1627.04 1321.09 1631.21Z" fill="#586159"/>
<path d="M1268.11 1601.03C1266.42 1602.72 1264.6 1601.94 1262.12 1599.34C1263.68 1596.61 1265.9 1596.99 1268.11 1601.03Z" fill="#586159"/>
<path d="M1231.93 1584.21C1230.11 1586.42 1227.77 1585.77 1224.78 1582.26C1226.21 1581.22 1228.55 1581.87 1231.93 1584.21Z" fill="#586159"/>
<path d="M772.06 1581.48C772.06 1583.3 769.851 1584.86 765.686 1586.42C765.686 1584.73 767.895 1582.91 772.06 1581.48Z" fill="#3F483D"/>
<path d="M802.522 1574.05C802.262 1575.87 799.925 1577.04 795.76 1578.08C796.02 1576.39 798.227 1574.96 802.522 1574.05Z" fill="#3F483D"/>
<path d="M1146.94 2506.41C1140.7 2502.12 1136.14 2499.26 1133.67 2495.22C1127.68 2485.46 1129.37 2475.7 1137.05 2467.76C1144.86 2459.56 1154.88 2458.64 1164.64 2463.85C1174.4 2469.06 1180.26 2478.95 1175.97 2488.84C1168.94 2504.98 1170.76 2513.57 1188.98 2518.52C1197.44 2520.73 1204.6 2530.75 1201.48 2539.21C1194.32 2558.35 1199.65 2565.25 1218.92 2571.75C1238.83 2578.39 1247.29 2602.99 1239.09 2618.22C1231.93 2631.5 1219.83 2637.88 1204.6 2635.4C1184.95 2632.15 1167.64 2610.8 1173.36 2591.15C1178.31 2574.36 1179.74 2565.9 1161.39 2557.18C1149.28 2551.45 1149.54 2536.61 1158 2524.25C1161.91 2518.52 1171.02 2517.22 1171.8 2508.76C1164.12 2502.77 1156.57 2509.93 1146.94 2506.41Z" fill="#EDF0E9"/>
<path d="M1163.2 2388.62C1167.5 2396.3 1171.53 2401.63 1172.57 2407.36C1176.34 2428.45 1170.09 2442.63 1154.74 2447.45C1138.6 2452.52 1125.32 2447.06 1115.56 2433.52C1104.89 2418.82 1104.63 2396.43 1115.56 2384.97C1127.66 2372.35 1141.46 2371.57 1155.65 2381.72C1157.6 2383.15 1159.42 2384.97 1163.07 2388.62H1163.2Z" fill="#EDF0E9"/>
<path d="M1330.19 2787.54C1353.1 2776.6 1366.64 2786.24 1374.71 2803.81C1380.96 2817.34 1377.96 2831.4 1364.82 2840.12C1351.67 2848.84 1338.26 2845.72 1327.72 2834.65C1313.53 2819.82 1312.1 2804.2 1330.07 2787.54H1330.19Z" fill="#EDF0E9"/>
<path d="M1138.86 2278.49C1141.72 2288.77 1140.02 2296.06 1134.43 2301.66C1125.71 2310.38 1115.82 2313.51 1104.37 2305.96C1092.91 2298.41 1091.35 2287.73 1096.16 2276.67C1101.24 2265.09 1111.26 2260.92 1123.89 2264.57C1130.27 2266.39 1134.56 2270.68 1138.86 2278.62V2278.49Z" fill="#EDF0E9"/>
<path d="M1384.2 2850.54C1406.59 2858.61 1417.52 2877.35 1432.23 2891.93C1436.78 2896.49 1438.21 2903.13 1432.49 2908.2C1430.14 2910.28 1424.54 2911.98 1422.59 2910.67C1403.59 2897.4 1384.33 2883.86 1376.39 2860.56C1375.61 2858.35 1379.77 2854.44 1384.33 2850.54H1384.2Z" fill="#EDF0E9"/>
<path d="M1089.92 2198.33C1089.14 2185.31 1094.22 2180.23 1105.02 2183.62C1110.36 2185.31 1112.31 2191.04 1110.48 2195.33C1106.58 2204.44 1100.2 2208.61 1090.05 2198.2L1089.92 2198.33Z" fill="#EDF0E9"/>
<path d="M880.369 1226.95C815.289 1192.72 752.937 1194.15 690.2 1225.52C679.787 1230.72 668.075 1244.91 656.751 1234.63C644.386 1223.3 656.749 1208.47 661.435 1196.62C679.527 1150.55 733.413 1117.36 784.566 1118.79C831.424 1120.09 884.923 1157.7 901.844 1201.18C909.133 1219.92 907.572 1222.26 880.369 1227.08V1226.95Z" fill="#2B2A28"/>
<path d="M841.437 1395.76C837.272 1421.66 827.378 1441.71 810.587 1457.59C785.206 1481.54 753.578 1477.76 733.273 1449.25C701.384 1404.35 706.072 1314.41 742.387 1272.76C769.2 1241.91 796.271 1243.21 827.639 1279.26C828.03 1283.3 827.118 1284.86 823.864 1287.6C802.648 1290.07 779.482 1283.17 774.927 1312.19C771.803 1331.85 768.419 1352.81 784.428 1368.29C804.603 1387.95 816.444 1359.05 836.098 1358.27C846.251 1369.6 841.831 1381.57 841.31 1395.76H841.437Z" fill="#2B2A28"/>
<path d="M1219.29 1403.29C1215.9 1428.02 1206.4 1447.03 1191.56 1462.78C1166.96 1488.94 1135.72 1486.34 1115.42 1456.66C1099.28 1433.1 1095.24 1406.03 1095.63 1377.91C1096.16 1344.85 1101.1 1312.96 1121.54 1285.76C1144.97 1254.39 1168.4 1252.57 1201.98 1280.42C1204.84 1286.41 1204.45 1289.8 1199.38 1294.22C1182.45 1297.73 1165.92 1295.65 1158.12 1312.83C1149.26 1332.23 1145.62 1353.31 1160.59 1369.71C1182.32 1393.53 1194.43 1360.86 1214.6 1358.65C1224.1 1372.71 1219.68 1386.76 1219.29 1403.29Z" fill="#2B2A28"/>
<path d="M1119.33 1153.65C1184.15 1123.32 1254.83 1153.78 1273.96 1217.42C1276.31 1225.23 1277.35 1232.39 1269.8 1237.6C1264.07 1241.5 1257.82 1240.33 1251.97 1237.08C1250.92 1236.43 1249.75 1235.91 1248.71 1235.13C1195.87 1189.44 1139.9 1198.81 1083.02 1226.02C1076.51 1229.14 1069.48 1235.39 1063.1 1227.06C1058.8 1221.46 1062.85 1215.08 1065.32 1209.36C1075.73 1184.89 1097.86 1171.61 1119.33 1153.65Z" fill="#2B2A28"/>
<path d="M1128.96 1040.94C1146.27 1048.62 1161.24 1054.87 1175.69 1062.16C1181.16 1064.89 1186.36 1069.71 1182.72 1077.13C1179.72 1083.37 1173.47 1086.37 1167.1 1084.42C1152.91 1079.86 1138.85 1074.78 1125.31 1068.54C1096.94 1055.52 1070.39 1039.12 1045.27 1020.51C1037.2 1014.52 1027.7 1007.49 1036.55 996.297C1044.36 986.275 1052.03 994.865 1059.19 999.16C1081.58 1012.7 1103.97 1026.24 1128.83 1040.94H1128.96Z" fill="#EDF0E9"/>
<path d="M842.09 1396.02C837.794 1386.91 842.482 1374.42 833.891 1361.4C816.58 1339.66 821.919 1315.98 820.748 1290.86C822.831 1286.69 823.741 1285.39 826.735 1282.91C839.751 1290.85 846.389 1302.57 846.52 1316.63C846.78 1342.27 850.293 1368.04 841.963 1396.02H842.09Z" fill="#3F483D"/>
<path d="M1220.08 1403.54C1215.39 1391.96 1221.12 1376.86 1211.62 1361.24C1197.69 1346.8 1199.77 1331.83 1202.77 1313.87C1204.98 1309.05 1206.16 1307.23 1210.45 1304.62C1232.71 1334.69 1225.55 1368.01 1220.08 1403.54Z" fill="#3F483D"/>
<path d="M1018.07 1051.76C1015.47 1056.7 1013.39 1060.22 1010.27 1061.52C1000.89 1065.55 992.693 1063.73 991.912 1052.15C991.391 1042.52 999.724 1040.83 1007.27 1040.96C1012.35 1040.96 1016.25 1044.08 1017.94 1051.63L1018.07 1051.76Z" fill="#EDF0E9"/>
<path d="M1057.25 1060.06C1067.27 1068.91 1067.14 1075.94 1056.08 1080.37C1051.65 1082.19 1045.4 1081.41 1043.45 1076.46C1039.28 1065.92 1044.75 1060.58 1057.25 1060.19V1060.06Z" fill="#EDF0E9"/>
<path d="M1298.31 1089.6C1297.4 1092.07 1295.7 1092.59 1291.14 1092.59C1281.38 1078.15 1273.96 1064.09 1269.93 1039.23C1287.76 1056.93 1286.72 1075.8 1298.31 1089.6Z" fill="#818A8C"/>
<path d="M1193.66 1294.25C1196.79 1290.09 1199 1288.39 1202.38 1284.75C1209.28 1286.7 1210.71 1293.08 1212.93 1301.54C1212.41 1304.8 1211.23 1305.71 1208.37 1308.05C1199 1308.44 1194.71 1303.88 1193.66 1294.25Z" fill="#3F483D"/>
<path d="M1356.47 3124.42C1358.16 3134.57 1353.35 3136.52 1346.45 3134.44C1342.68 3133.4 1340.2 3129.49 1342.03 3126.11C1344.63 3121.29 1349.7 3121.03 1356.47 3124.42Z" fill="#679441"/>
<path d="M748.5 1715.04C749.411 1716.08 750.325 1717.25 751.366 1718.29C750.716 1717.9 750.065 1717.51 748.894 1716.08C748.504 1715.04 748.5 1715.04 748.5 1715.04Z" fill="#50584D"/>
<path d="M727.667 1721.94C726.626 1720.24 727.928 1718.16 731.963 1715.95C732.874 1717.64 731.442 1719.59 727.667 1721.94Z" fill="#50584D"/>
<path d="M1570.08 1745.75C1572.69 1748.09 1573.21 1750.83 1572.43 1753.04C1564.75 1775.43 1511.25 1827.1 1489.64 1827.23C1464.91 1827.36 1449.81 1852.61 1427.3 1849.49C1405.95 1846.49 1386.43 1844.93 1364.69 1849.23C1345.04 1853.26 1322.26 1857.82 1303.78 1840.38C1297.01 1833.87 1286.99 1836.21 1278.27 1836.08C1265.64 1835.82 1253.15 1835.95 1240.52 1836.08C1204.08 1836.47 1170.62 1830.09 1149.28 1793.39C1159.17 1789.87 1168.41 1793 1177.78 1797.42C1215.92 1814.99 1256.92 1819.16 1298.31 1820.98C1328.25 1822.28 1358.19 1818.9 1387.99 1827.23C1402.96 1831.4 1420.53 1831.66 1436.15 1824.5C1463.35 1812.13 1489.13 1796.9 1517.37 1786.36C1531.95 1780.89 1513.34 1777.38 1512.03 1769.7C1530.91 1764.23 1549.78 1756.29 1570.22 1745.88L1570.08 1745.75Z" fill="#50584D"/>
<path d="M1080.8 1625.6C1086.13 1606.21 1101.1 1602.04 1116.85 1595.4C1125.96 1608.29 1130.52 1620.53 1118.02 1633.28C1106.83 1644.6 1111.38 1659.44 1112.16 1672.85C1113.07 1689.25 1126.61 1690.81 1139.24 1693.67C1149 1695.89 1153.81 1704.61 1153.55 1713.59C1153.16 1726.6 1138.72 1719.18 1132.99 1725.3C1134.55 1732.2 1141.71 1733.76 1146 1738.06C1149.52 1741.57 1153.69 1744.3 1157.59 1747.56C1147.18 1757.71 1133.25 1764.09 1126.87 1780.75C1119.72 1779.58 1113.08 1775.93 1105.01 1770.21C1099.15 1762.4 1080.67 1766.3 1090.82 1749.51C1092.77 1746.39 1090.81 1739.62 1088.86 1735.59C1072.85 1704.74 1076.24 1672.46 1081.18 1639.92C1081.71 1636.27 1081.18 1632.5 1081.18 1625.6H1080.8Z" fill="#50584D"/>
<path d="M1233.09 1616.65C1241.29 1616.78 1249.5 1619.91 1260.3 1623.42C1251.32 1633.83 1240.64 1636.83 1233.09 1616.65Z" fill="#50584D"/>
<path d="M819.44 1286.29C832.586 1308.42 835.058 1330.29 831.414 1356.32C827.248 1365.69 823.995 1372.98 818.658 1377.93C801.867 1393.42 783.256 1390.81 771.672 1370.77C758.266 1347.47 758.396 1322.48 769.2 1298.27C779.222 1275.75 790.545 1273.15 819.7 1286.29H819.44Z" fill="#EDF0E9"/>
<path d="M1192.08 1291.22C1197.55 1296.68 1200.42 1301.63 1204.97 1308.01C1209.01 1324.02 1211.09 1338.46 1208.87 1356.43C1191.95 1389.1 1182.06 1395.99 1165.66 1390.27C1150.3 1384.93 1141.97 1366.45 1142.62 1339.77C1143.53 1302.8 1156.03 1289.65 1192.08 1291.35V1291.22Z" fill="#EDF0E9"/>
<path d="M1109.44 1717.63C1113.08 1716.59 1114.38 1717.63 1113.21 1719.71C1112.95 1720.1 1110.22 1719.06 1109.44 1717.63Z" fill="#586159"/>
<path d="M1103.72 1768.02C1104.63 1768.67 1103.59 1763.21 1104.76 1767.76C1103.72 1768.28 1103.85 1767.89 1103.72 1768.02Z" fill="#586159"/>
</svg>
