<svg width="1906" height="3945" viewBox="0 0 1906 3945" fill="none" xmlns="http://www.w3.org/2000/svg">
<g filter="url(#filter0_d_509_6893)">
<path d="M798.039 3330C804.157 3312.95 820.036 3300.98 837.087 3295.12C854.138 3289.13 872.492 3288.48 890.454 3287.7C934.318 3286.01 978.187 3284.32 1022.05 3282.63C1057.71 3281.19 1096.11 3278.85 1123.83 3256.46C1144.01 3240.19 1155.46 3215.33 1161.58 3190.21C1167.7 3165.09 1169.26 3139.06 1173.17 3113.42C1179.54 3072.29 1192.56 3032.07 1211.43 2994.84C1221.58 2974.8 1238.63 2953.06 1260.89 2955.79C1275.08 2957.61 1286.27 2969.59 1291.22 2983C1296.16 2996.4 1295.77 3011.11 1295.25 3025.43C1291.09 3120.58 1273.91 3215.2 1244.49 3305.93C1238.51 3324.54 1231.35 3343.67 1216.9 3356.82C1199.85 3372.31 1175.64 3376.47 1152.86 3379.6C1065.65 3391.83 977.921 3399.51 889.933 3402.63C876.526 3403.15 862.732 3403.41 850.497 3398.08C822.122 3385.58 814.439 3349.79 798.039 3330.13V3330Z" fill="#3B5B33" stroke="#231F20" stroke-width="5" stroke-miterlimit="10"/>
<path d="M498.029 3565.74C493.787 3526.26 502.297 3474.69 511.306 3430.35C517.369 3400.52 528.724 3368.45 536.944 3339.13C539.602 3329.65 556.166 3303.11 569.313 3290.09C578.904 3284.1 595.909 3274.44 614.652 3272.23C652.008 3267.68 696.764 3270.13 729.955 3287.7C737.634 3291.73 743.142 3297.29 744.341 3297.29C744.341 3299.03 753.806 3312.87 756.329 3311.67C758.726 3306.88 768.317 3294.89 771.913 3292.49C785.06 3288.98 806.974 3294.1 813.872 3305.68C820.771 3317.26 824.604 3325.6 826.036 3339.13C824.662 3362.02 818.261 3413.98 823.463 3421.97C819.037 3448.78 804.282 3484.3 788.157 3489.21C787.498 3491.5 773.112 3507.08 755.13 3501.09C748.363 3504.48 744.033 3514.11 738.347 3519.07C730.537 3525.84 726.715 3528.82 719.165 3535.85C715.569 3539.2 688.561 3552.19 678.409 3550.24C722.762 3586.2 732.671 3638.19 734.753 3679.71C735.658 3697.74 730.197 3717.95 723.964 3734.85C715.847 3756.87 706.079 3771.35 690.397 3788.8C677.511 3802.99 662.126 3811.34 643.643 3806.78C628.154 3803.01 601.543 3769.65 598.088 3764.82C582.599 3743.22 572.608 3731.18 556.989 3709.44C539.938 3685.62 524.292 3662.3 512.969 3635.36C506.231 3619.33 498.163 3569.42 498.163 3565.87L498.029 3565.74Z" fill="white"/>
<path d="M819.019 3436.99C815.634 3459.25 802.88 3480.07 784.527 3493.22C780.232 3496.34 775.542 3499.08 770.336 3499.99C765.129 3500.9 759.404 3499.73 755.629 3495.95C749.772 3489.97 751.074 3480.34 752.636 3472.27C756.15 3454.69 759.665 3437.25 763.179 3419.68C766.173 3404.97 769.167 3390 767.215 3375.03C765.523 3361.11 759.663 3347.96 757.58 3334.03C755.498 3320.11 758.621 3303.84 770.336 3296.29C779.707 3290.3 792.595 3291.34 801.967 3297.46C811.338 3303.58 817.325 3313.73 820.449 3324.4C823.572 3335.08 823.833 3346.4 823.703 3357.59C823.442 3384.67 822.663 3412 818.758 3437.12L819.019 3436.99Z" stroke="#231F20" stroke-width="2.15" stroke-miterlimit="10"/>
<path d="M752.625 3501.93C738.307 3522.76 716.83 3538.51 692.75 3545.8C668.54 3553.08 641.991 3551.91 618.562 3542.54" stroke="#231F20" stroke-width="2.15" stroke-miterlimit="10"/>
<path d="M684.288 3556.24C713.834 3586.18 731.663 3627.44 732.965 3669.48C734.266 3711.52 719.299 3753.82 691.705 3785.58C680.251 3798.86 663.33 3811.09 646.409 3806.41C638.209 3804.2 631.57 3798.34 625.582 3792.35C609.312 3776.21 595.129 3758.12 580.942 3740.16C555.821 3708.27 530.306 3675.73 515.467 3637.85C499.718 3597.76 496.595 3553.51 500.5 3510.42C504.405 3467.47 514.817 3425.43 525.229 3383.52C534.601 3345.64 547.1 3303.73 580.942 3284.59C602.158 3272.49 627.926 3271.97 652.396 3272.75C671.27 3273.4 690.407 3274.57 708.369 3280.3C726.331 3286.03 743.379 3296.83 753.531 3312.71L754.186 3313.75" stroke="#231F20" stroke-width="2.15" stroke-miterlimit="10"/>
<path d="M633.133 3277.66C599.031 3297.05 576.124 3332.32 563.629 3369.42C551.134 3406.65 547.88 3446.22 544.887 3485.39" stroke="#231F20" stroke-miterlimit="10"/>
<path d="M675.844 3794.54C639.79 3770.47 611.545 3736.23 587.725 3700.05C571.716 3675.84 557.395 3650.19 548.283 3622.73C539.042 3595.14 535.269 3565.46 540.345 3536.96" stroke="#231F20" stroke-miterlimit="10"/>
<path d="M1600.06 3663.06C1541.23 3646.14 1480.8 3644.9 1428.86 3677.31C1423.48 3703.67 1413.42 3733.66 1409.68 3761.23C1405.1 3795.1 1400.34 3843.04 1404.89 3859.53C1404.63 3879.58 1409.23 3905.94 1424.07 3919.47C1438 3932.23 1439.96 3936.52 1458.84 3936.26C1491.77 3935.83 1525.93 3928.7 1561.93 3926.67C1623.84 3923.17 1741.66 3933.55 1747.75 3927.87C1758.44 3929.95 1832.57 3927.5 1865.24 3900.29C1900.51 3871.01 1911.15 3810.01 1892.28 3768.23C1873.53 3726.32 1838.34 3695.23 1793.31 3686.9C1748.27 3678.57 1668.63 3694.1 1651.85 3708.48C1640 3714.21 1621.88 3722.37 1614.9 3720.33C1604.23 3717.21 1596.68 3706.92 1593.95 3696.12C1591.22 3685.32 1592.65 3673.86 1599.94 3662.93L1600.06 3663.06Z" fill="white"/>
<path d="M1619.74 3661.1C1614.67 3666.96 1605.55 3667.61 1598.13 3665.26C1590.71 3662.92 1584.2 3658.37 1577.05 3655.24C1553.75 3644.96 1526.81 3650.82 1502.6 3658.63C1478.39 3666.44 1453.53 3676.07 1428.28 3672.82C1418.78 3671.64 1409.01 3668.13 1403.28 3660.58C1396.64 3651.86 1396.65 3639.23 1401.72 3629.6C1406.8 3619.97 1415.91 3612.94 1425.93 3608.52C1435.95 3604.09 1446.76 3602.01 1457.56 3600.05C1477.74 3596.28 1497.78 3592.38 1517.95 3588.6C1536.83 3584.96 1556.09 3581.44 1575.23 3583.78C1594.36 3586.13 1613.49 3595.5 1622.86 3612.29C1631.84 3628.3 1629.89 3649.52 1619.87 3661.1H1619.74Z" fill="white" stroke="#231F20" stroke-width="2.15" stroke-miterlimit="10"/>
<path d="M1430.87 3680.65C1413.17 3747.16 1395.34 3816.53 1409.01 3883.96C1411.87 3898.27 1416.69 3912.98 1427.49 3922.74C1437.38 3931.6 1451.18 3935.24 1464.45 3935.5C1477.73 3935.76 1490.88 3933.03 1504.02 3931.08C1602.29 3915.98 1703.3 3937.19 1801.57 3921.83C1826.43 3917.93 1852.07 3911.16 1870.56 3894.24C1886.43 3879.66 1895.67 3858.71 1898.93 3837.36C1907.91 3780.22 1873.67 3719.05 1820.31 3696.79C1795.84 3686.64 1768.9 3684.03 1742.47 3685.59C1707.59 3687.55 1672.71 3696.4 1642.77 3714.49C1612.84 3732.58 1588.24 3760.18 1576.65 3793.24" stroke="#231F20" stroke-width="2.15" stroke-miterlimit="10"/>
<path d="M1875.61 3868.06C1846.85 3884.59 1814.05 3893.18 1780.98 3896.95C1748.05 3900.6 1714.74 3899.56 1681.55 3898" stroke="#231F20" stroke-miterlimit="10"/>
<path d="M1415.63 3823.42C1476.42 3832.79 1538.51 3834.35 1599.68 3828.1" stroke="#231F20" stroke-miterlimit="10"/>
<path d="M1553.87 3575.48C1519.25 3578.34 1484.75 3581.2 1450.13 3584.07C1492.04 3485.67 1542.16 3390.91 1599.95 3300.84C1612.44 3281.32 1625.72 3257.63 1616.35 3236.41C1607.89 3217.41 1585.24 3210.25 1565.58 3203.35C1509.49 3183.7 1458.47 3149.59 1419.03 3105.21C1407.83 3092.58 1397.29 3078.66 1393.12 3062.26C1389.09 3045.86 1392.99 3026.46 1406.4 3016.31C1428.01 2999.91 1458.72 3014.23 1481.76 3028.68C1550.1 3071.63 1618.56 3114.58 1686.89 3157.66C1707.46 3170.55 1729.72 3186.04 1734.41 3209.73C1738.44 3230.42 1727.63 3250.86 1717.22 3269.21C1660.34 3369.56 1603.33 3469.79 1553.74 3575.61L1553.87 3575.48Z" fill="#3B5B33" stroke="#231F20" stroke-width="5" stroke-miterlimit="10"/>
<path d="M1248.42 3228.98C1120.35 3169.63 1005.42 3095.31 905.322 3000.16C822.931 2921.93 754.332 2831.99 696.15 2733.72C564.038 2510.76 460.044 2275.82 387.935 2026.95C382.598 2008.34 375.304 1997.8 353.698 1994.02C245.535 1975.15 155.076 1924.26 87.0026 1836.92C36.3702 1771.84 2.6544 1700.12 4.47664 1615.39C5.12745 1583.24 14.6327 1553.56 30.9027 1525.84C35.5885 1517.77 41.0553 1511.65 53.6808 1512.04C61.0999 1572.56 83.3548 1626.58 135.679 1661.46C183.058 1693.09 236.035 1710.4 297.731 1712.88C285.757 1671.88 275.736 1634.52 264.022 1597.81C223.542 1470.65 203.888 1340.62 208.964 1207.2C211.307 1145.38 218.073 1084.33 244.886 1027.06C272.87 967.189 316.216 924.626 377.912 900.286C439.738 875.946 502.6 856.942 567.681 841.063C676.104 814.64 771.517 757.24 852.737 678.883C884.496 648.296 895.166 607.424 901.674 566.684C915.861 477.003 907.66 388.626 880.326 301.809C853.383 216.424 801.583 192.474 715.287 199.763C679.232 202.886 643.956 214.211 608.032 220.459C519.783 235.948 495.835 187.657 505.206 114.116C508.851 85.3506 523.692 62.4451 547.381 45.2639C566.905 31.0764 587.73 19.6206 611.419 14.1538C752.252 -18.1259 883.841 4.78292 1005.02 83.1394C1037.04 103.835 1061.9 133.12 1079.74 167.092C1111.1 226.836 1131.54 289.442 1131.67 358.167C1131.8 422.596 1126.46 486.505 1119.83 550.414C1113.19 613.411 1115.4 676.148 1122.16 738.886C1129.19 802.664 1160.56 849.262 1219.79 875.945C1242.69 886.227 1265.86 896.121 1288.64 906.534C1342.27 931.134 1376.37 970.051 1389.39 1029.66C1406.7 1108.41 1405.78 1187.16 1398.76 1266.3C1390.3 1363.4 1360.36 1455.94 1338.62 1550.31C1336.67 1558.9 1335.63 1567.88 1332.63 1576.08C1326.26 1593.26 1334.85 1601.85 1349.04 1608.23C1387.95 1625.67 1426.09 1645.58 1466.05 1660.16C1516.55 1678.64 1567.05 1678.64 1613.52 1645.32C1633.56 1631.01 1647.75 1612.26 1658.43 1590.4C1677.3 1551.87 1689.28 1511 1698 1469.35C1712.44 1470.13 1715.83 1479.63 1718.95 1489.13C1733.4 1533.39 1733.92 1578.68 1722.73 1623.2C1706.2 1688.41 1678.34 1748.93 1638.12 1803.21C1583.85 1876.49 1509.65 1918.4 1421.01 1934.67C1377.93 1942.61 1334.85 1954.59 1290.2 1948.47C1276.02 1946.52 1273.29 1953.28 1273.02 1965.65C1271.85 2045.04 1271.59 2124.7 1290.72 2202.28C1332.51 2370.84 1383.27 2536.66 1451.6 2696.63C1497.94 2805.18 1563.15 2901.89 1637.99 2992.61C1669.75 3031.14 1694.61 3072.53 1699.81 3123.56C1704.89 3172.76 1688.49 3212.06 1648.67 3242.13C1593.74 3283.52 1530.61 3289.38 1465.53 3284.43C1390.94 3278.83 1320.01 3257.62 1248.03 3229.24L1248.42 3228.98Z" fill="#2B2A28"/>
<path d="M720.356 1966.81C771.379 1949.49 822.016 1938.82 868.223 1914.09C916.122 1888.58 964.541 1864.5 991.615 1811C1054.87 1864.11 1120.21 1905.63 1197.27 1931.66C1211.45 1951.71 1206.51 1969.67 1191.54 1980.47C1165.25 1999.48 1161.08 2024.6 1162.64 2053.49C1163.16 2063.51 1163.16 2073.67 1160.95 2083.56C1157.31 2099.96 1149.89 2105.82 1135.7 2092.02C1125.68 2082.26 1114.75 2070.67 1100.56 2084.73C1088.2 2097.1 1088.97 2112.32 1098.6 2126.12C1110.32 2142.65 1122.81 2136.8 1137.39 2127.68C1159.65 2113.89 1167.2 2119.35 1169.8 2151.11C1177.22 2244.31 1193.89 2335.68 1227.21 2423.15C1285.52 2576.22 1354.5 2723.82 1451.21 2857.1C1457.07 2865.3 1462.01 2874.41 1468.91 2881.44C1492.99 2906.04 1487.65 2928.3 1455.63 2953.81C1484.53 2951.99 1505.1 2924.91 1522.8 2954.72C1534.77 2975.03 1526.96 2990.52 1512.64 3008.09C1474.25 3025.27 1441.19 3009 1408.78 2997.15C1300.74 2957.45 1217.83 2883.52 1142.08 2799.7C1065.16 2714.71 993.694 2625.42 936.163 2526.23C886.962 2441.5 846.483 2351.82 813.032 2259.8C783.876 2179.49 754.328 2099.31 723.61 2019.65C717.363 2003.25 709.166 1986.98 720.49 1966.94L720.356 1966.81Z" fill="#679441"/>
<path d="M1275.63 1548.1C1229.94 1533.79 1186.34 1518.56 1138.83 1518.04C1080.91 1517.52 1037.18 1540.55 1009.45 1592.1C1007.11 1596.39 1004.24 1600.43 1000.08 1607.33C974.827 1587.67 949.054 1571.14 921.2 1557.61C859.634 1527.67 798.2 1526.5 736.764 1557.21C693.03 1579.08 649.948 1601.99 603.871 1625.16C596.191 1621.51 593.196 1615.92 592.024 1609.67C568.725 1478.6 540.481 1348.05 560.005 1213.33C568.856 1152.55 593.064 1099.7 636.538 1057.14C666.735 1027.59 690.818 990.628 734.552 972.796C755.638 971.755 772.815 974.748 788.955 982.298C812.644 993.361 817.98 1007.03 807.958 1030.72C804.574 1038.79 800.019 1046.34 795.724 1054.02C787.654 1068.59 791.3 1080.7 803.535 1090.59C814.338 1099.31 823.447 1094.62 833.99 1087.86C890.74 1051.02 950.359 1018.48 999.43 970.842C1016.48 954.312 1035.74 957.306 1055.66 962.252C1099.65 973.316 1140.78 992.32 1181.26 1011.84C1223.17 1032.02 1264.82 1045.68 1311.16 1028.89C1314.28 1027.72 1318.45 1029.93 1324.18 1032.41C1338.62 1046.99 1340.19 1063.39 1341.23 1079.66C1342.4 1099.44 1335.11 1111.68 1309.6 1104.52C1292.68 1088.64 1287.08 1069.37 1277.97 1052.19C1275.5 1047.9 1271.86 1054.66 1275.76 1051.54C1286.82 1066.38 1290.59 1084.99 1302.83 1102.7C1315.32 1134.32 1316.63 1164.52 1315.07 1194.72C1308.95 1312.38 1305.05 1430.44 1275.24 1548.36L1275.63 1548.1Z" fill="#679441"/>
<path d="M1622.1 3194.1C1617.94 3204.9 1609.61 3206.47 1600.76 3210.89C1549.47 3203.21 1500.92 3215.84 1452.11 3213.62C1429.21 3212.58 1406.56 3211.8 1389.51 3193.06C1385.08 3188.11 1379.75 3185.38 1372.85 3185.9C1331.2 3188.89 1297.74 3166.9 1264.29 3147.76C1120.72 3065.5 999.804 2957.47 893.333 2830.3C780.093 2695.07 690.548 2546.29 609.198 2390.49C552.318 2281.55 512.613 2166.35 466.536 2053.37C460.94 2039.45 454.954 2025.13 461.592 2007.17C504.415 2001.31 545.934 2002.35 589.928 1994.15C621.687 2025.65 638.091 2064.44 652.148 2102.83C696.012 2222.58 756.276 2334.13 814.588 2446.98C893.986 2600.7 997.853 2735.15 1122.68 2854.38C1233.57 2960.2 1365.68 3027.49 1511.59 3069.93C1534.89 3076.69 1559.37 3071.1 1585.53 3077.61C1622.49 3109.24 1627.96 3148.41 1621.97 3194.1H1622.1Z" fill="#3E5B2D"/>
<path d="M1129.06 846.659C1160.43 876.336 1192.96 900.417 1228.24 919.811C1255.31 934.779 1277.7 953.911 1296.83 980.073C1276.27 999.337 1254.79 996.085 1231.63 985.542C1182.42 963.155 1133.87 938.814 1081.81 923.195C1067.36 918.9 1053.05 914.344 1037.69 913.563C1013.87 912.262 993.56 918.117 975.207 934.257C940.324 964.844 906.487 996.996 866.268 1017.82C859.89 1017.3 857.284 1014.7 856.633 1010.79C848.823 957.557 810.164 937.771 764.218 931.133C735.452 926.968 711.504 918.64 690.678 897.945C679.354 886.751 663.998 879.46 650.461 870.479C649.289 858.635 659.698 860.197 665.555 857.854C752.893 824.013 825.653 768.692 890.863 702.962C929.131 664.434 942.151 613.023 947.357 561.739C956.729 471.148 953.081 380.818 924.706 292.699C908.306 241.937 884.357 196.768 834.115 172.819C782.051 148.088 727.121 148.87 671.803 160.975C670.631 161.236 669.463 161.888 668.161 162.148C653.453 164.881 638.356 176.333 624.689 169.304C610.892 162.276 618.703 144.184 615.709 131.168C610.763 110.082 597.481 93.2936 587.459 74.6806C602.427 58.2804 622.085 56.326 639.917 53.072C751.595 32.5067 857.674 46.8238 956.986 104.615C1001.11 130.257 1032.61 166.051 1053.56 212.258C1077.9 266.014 1088.06 321.852 1086.89 380.945C1085.32 454.095 1077.25 526.595 1072.57 599.354C1068.14 667.949 1079.73 734.723 1098.86 800.194C1103.81 817.245 1115.26 831.3 1129.19 846.268L1129.06 846.659Z" fill="#679441"/>
<path d="M1589.05 3078.65C1520.06 3094.27 1459.93 3064.33 1399.41 3041.82C1348.12 3022.68 1299.83 2995.48 1252.58 2966.97C1209.37 2940.94 1169.93 2910.09 1132.84 2876.64C1062.81 2813.51 1001.11 2742.05 941.366 2669.43C906.353 2626.99 877.071 2579.62 851.43 2530.81C818.109 2467.42 778.281 2407.67 748.865 2342.2C713.461 2263.46 670.377 2188.22 643.955 2105.18C632.24 2068.48 611.153 2034.63 593.842 1996.76C634.452 1984 675.324 1974.11 719.318 1964.35C717.886 2000.4 737.144 2030.6 749.38 2061.32C770.466 2113.77 791.031 2166.36 808.473 2220.11C830.991 2289.49 864.965 2354.05 892.95 2421.08C925.23 2498.39 972.607 2565.95 1018.55 2634.8C1047.71 2678.67 1083.24 2717.84 1118.12 2757.15C1147.28 2789.95 1173.97 2825.36 1207.68 2853.86C1243.86 2884.71 1275.88 2921.42 1318.83 2943.15C1376.62 2972.57 1432.85 3007.71 1504.57 3007.84C1515.11 3009.53 1521.23 3016.56 1528.26 3016.17C1571.22 3013.44 1581.5 3043.37 1589.05 3078.65Z" fill="#4E6F36"/>
<path d="M941.633 1623.57C939.941 1634.51 936.82 1642.7 934.217 1651.03C926.407 1676.55 927.708 1685.4 949.966 1697.63C963.502 1705.18 961.811 1711.56 960.77 1724.06C957.125 1765.32 932.528 1790.18 898.295 1805.67C876.038 1815.69 867.965 1837.56 849.612 1851.22C794.034 1892.35 734.162 1921.77 666.479 1933.74C595.672 1946.37 524.73 1942.99 453.272 1935.7C396.001 1929.84 340.428 1914.74 283.027 1909.14C253.351 1906.28 222.11 1897.17 192.563 1887.27C185.535 1884.93 177.858 1882.07 172.391 1877.25C129.048 1838.34 93.9011 1794.08 77.8914 1736.29C73.4659 1720.41 75.1616 1709.22 88.0475 1700.24C101.454 1690.99 114.076 1690.86 129.695 1699.97C173.038 1725.23 219.379 1743.32 273.786 1745.66C277.301 1770.39 251.916 1780.67 247.882 1799.94C317.127 1858.77 399.126 1822.45 466.809 1831.96C467.069 1831.96 458.349 1834.04 445.073 1821.42C539.179 1792.39 635.106 1777.94 717.107 1720.93C722.443 1717.81 725.441 1715.98 730.778 1713.12C736.244 1710.65 739.5 1709.87 745.357 1710.13C750.824 1712.21 752.256 1714.55 751.865 1718.07C752.646 1714.94 752.386 1711.82 752.386 1706.48C768.266 1681.36 787.134 1667.56 816.03 1663.01C849.091 1657.67 877.465 1641.27 880.589 1598.97C891.653 1592.33 900.764 1592.59 912.869 1596.89C927.447 1601.57 932.005 1613.29 941.506 1623.44L941.633 1623.57Z" fill="#3F483D"/>
<path d="M402.906 952.077C467.075 927.867 527.204 897.539 596.45 905.869C610.377 907.561 623.786 908.341 638.103 917.973C637.062 939.059 621.961 949.734 609.466 961.578C573.672 995.55 543.475 1033.69 515.881 1074.56C493.494 1107.75 477.617 1142.37 473.191 1181.94C465.382 1251.83 453.277 1321.73 453.928 1391.89C454.709 1468.42 461.738 1544.96 477.227 1620.32C481.262 1639.84 487.12 1659.76 474.755 1681.76C443.126 1695.55 412.275 1702.45 377.783 1707.4C360.862 1696.85 354.616 1681.63 350.581 1665.75C304.114 1479.1 283.809 1290.88 320.774 1099.81C331.838 1042.93 355.527 992.817 402.646 952.077H402.906Z" fill="#3E5B2D"/>
<path d="M475.4 1684.24C475.139 1635.04 457.048 1588.44 453.403 1540.02C453.013 1535.08 450.146 1530.13 450.537 1525.45C454.702 1477.68 438.697 1430.95 442.472 1383.31C445.856 1339.84 450.932 1296.62 455.488 1253.28C459.653 1213.58 461.996 1173.88 472.019 1134.83C474.882 1123.77 478.396 1113.23 484.253 1103.59C525.774 1035.91 574.324 974.085 637.712 921.5C651.77 922.151 660.095 929.83 668.034 937.9C686.127 956.253 707.479 967.838 735.593 971.613C697.196 1007.28 658.929 1044.24 625.478 1084.59C594.37 1122.08 575.887 1166.98 569.899 1217.75C564.953 1259.14 560.786 1300.4 564.3 1341.27C570.027 1408.3 576.538 1475.33 589.684 1541.59C594.76 1567.23 601.914 1592.74 601.264 1622.54C569.114 1645.45 537.747 1666.02 498.699 1677.34C494.664 1678.64 493.363 1679.69 489.979 1681.77C484.512 1683.33 481.257 1683.85 475.4 1684.37V1684.24Z" fill="#4E6F36"/>
<path d="M1590.08 3083.48C1583.44 3070.33 1579.15 3058.88 1573.16 3048.2C1565.35 3034.28 1561.45 3014.75 1536.33 3027.9C1525.92 3033.37 1516.28 3022.56 1508.99 3010.33C1508.47 3005.64 1508.99 3003.17 1510.16 3000.95C1521.44 2980.91 1517.19 2960.69 1497.41 2940.3C1495.45 2959.57 1487.91 2973.23 1467.86 2970.24C1456.67 2968.55 1449.38 2960.48 1449.12 2949.67C1448.73 2927.55 1465 2923.77 1484 2923.38C1315.84 2680.24 1176.3 2427.08 1157.95 2123.02C1144.93 2123.94 1145.06 2135.26 1139.47 2140.34C1122.42 2156.09 1104.84 2155.3 1091.3 2136.82C1082.06 2124.07 1078.94 2109.49 1082.58 2094C1085.71 2080.72 1094.3 2071.74 1107.06 2067.58C1121.25 2063.02 1131.27 2070.05 1138.95 2081.24C1142.33 2086.19 1145.33 2091.39 1154.31 2096.47C1154.31 2073.82 1152.74 2051.05 1154.69 2028.53C1156.65 2007.18 1153.91 1982.97 1185.8 1976.2C1201.16 1972.95 1195.43 1952.64 1198.95 1936.76C1213.66 1932.34 1222.64 1935.07 1222.25 1953.56C1221.47 1993.77 1221.86 2034.13 1223.55 2074.34C1227.32 2162.98 1248.28 2248.24 1273.01 2332.97C1307.51 2451.42 1345.12 2568.56 1390.93 2683.1C1440.52 2806.89 1511.85 2917.52 1595.41 3020.74C1612.86 3042.35 1630.3 3064.08 1639.94 3090.38C1653.47 3127.21 1659.72 3163.92 1624.31 3196.2C1620.28 3157.67 1614.55 3119.27 1589.95 3083.48H1590.08Z" fill="#EDF0E9"/>
<path d="M460.554 2004.41C463.027 2020.29 468.106 2034.61 473.443 2048.54C501.818 2122.21 527.979 2197.05 560.519 2269.03C603.993 2364.95 653.452 2457.89 705.126 2549.78C749.51 2628.79 800.797 2702.98 857.937 2772.88C923.668 2853.32 989.788 2933.49 1070.88 3000.53C1131.01 3050.38 1194.14 3094.89 1260.26 3135.9C1288.37 3153.34 1318.83 3164.4 1348.51 3177.94C1349.68 3178.46 1350.98 3178.72 1352.03 3179.37C1367.77 3189.78 1374.8 3161.41 1388.47 3170.26C1398.75 3177.02 1394.2 3195.12 1412.55 3199.93C1445.09 3208.26 1478.41 3208.52 1509.78 3203.19C1539.46 3198.11 1566.53 3198.63 1596.46 3209.43C1575.25 3228.18 1548.83 3234.04 1520.45 3233.52C1496.63 3233.13 1472.94 3232.47 1445.74 3231.82C1437.8 3231.56 1433.51 3230.39 1427.13 3228.7C1341.09 3213.86 1262.99 3183.53 1188.54 3142.53C1094.31 3090.6 1006.45 3029.29 930.046 2953.8C855.595 2880.26 792.597 2797.22 738.32 2706.89C623.649 2515.94 537.221 2312.5 463.16 2103.33C453.918 2077.3 447.8 2050.23 439.079 2023.93C432.571 2004.28 442.592 2002.2 460.554 2004.41Z" fill="#758F55"/>
<path d="M1500.29 1697.01C1507.45 1697.92 1512.78 1698.7 1520.72 1699.87C1531.79 1724.86 1555.08 1727.86 1576.43 1738.27C1577.86 1742.44 1577.86 1744.26 1576.17 1748.55C1545.71 1762.87 1528.92 1790.6 1501.46 1805.3C1397.33 1861.4 1292.42 1829.77 1187.51 1810.51C1177.75 1808.69 1169.29 1802.18 1156.4 1799.84C1146.12 1796.97 1139.23 1793.59 1131.03 1786.95C1122.82 1762.22 1136.49 1754.93 1153.67 1749.07C1147.16 1739.96 1118.53 1738.79 1136.75 1713.67C1141.57 1707.03 1134.28 1702.48 1128.94 1699.35C1101.61 1682.95 1102.78 1658.35 1111.76 1633.49C1116.58 1620.08 1117.75 1606.81 1119.96 1590.41C1161.74 1566.2 1198.97 1574.27 1235.8 1603.04C1244.26 1615.66 1251.68 1624.25 1268.6 1618.91C1294.5 1619.7 1309.6 1635.84 1325.87 1649.37C1370.91 1686.99 1422.71 1700 1483.11 1692.32C1487.27 1691.93 1488.71 1691.67 1492.22 1691.41C1494.95 1694.02 1496.38 1695.84 1500.42 1697.01H1500.29Z" fill="#586159"/>
<path d="M753.8 1712.87C749.115 1714.95 745.86 1714.95 740.003 1715.08C735.707 1716.64 733.883 1718.2 731.149 1721.33C649.669 1783.02 554.656 1803.98 458.989 1824.94C466.017 1832.88 479.029 1823.9 486.838 1831.45C488.14 1833.53 486.968 1834.96 483.584 1835.61C429.047 1845.63 373.863 1843.29 318.806 1843.55C300.974 1843.55 284.573 1844.07 272.728 1825.59C263.617 1811.4 242.4 1815.04 229.645 1803.07C235.762 1795.91 250.206 1793.7 248.775 1783.54C245.651 1761.29 267.262 1762.2 276.243 1748.66C314.12 1757.64 350.565 1747.1 387.14 1741.76C410.308 1738.38 433.217 1733.17 459.249 1729.27C570.406 1720.03 656.828 1654.82 753.667 1616.03C792.975 1600.28 832.155 1581.54 878.622 1598.98C882.006 1608.35 881.879 1616.16 884.482 1622.93C889.168 1635.03 883.437 1643.62 874.586 1647.92C851.418 1658.85 830.072 1675.12 803.259 1676.68C789.332 1677.46 776.705 1676.16 775.663 1696.6C775.403 1701.68 762.261 1706.1 753.8 1712.74V1712.87Z" fill="#586159"/>
<path d="M402.114 950.251C402.635 975.502 379.203 988.521 366.708 1008.04C337.942 1053.08 330.397 1103.32 321.546 1153.56C308.53 1226.84 311.13 1301.16 314.904 1374.71C318.939 1453.06 329.872 1531.03 346.923 1607.95C353.952 1639.71 362.287 1671.08 374.392 1704.27C358.772 1711.04 347.838 1706.61 344.324 1688.91C342.892 1681.62 339.895 1674.47 337.161 1664.57C333.256 1658.59 333.257 1654.16 331.696 1648.17C310.219 1571.12 283.406 1497.32 272.602 1419.87C257.243 1309.89 249.043 1199.38 275.596 1089.79C291.996 1022.1 327.79 970.166 402.241 950.121L402.114 950.251Z" fill="#758F55"/>
<path d="M1128.66 1781.1C1136.08 1785 1142.06 1787.09 1150.39 1789.95C1188.27 1824.31 1232.66 1828.22 1278.08 1828.35C1315.31 1828.35 1350.84 1838.76 1388.98 1838.76C1467.73 1838.76 1524.48 1805.96 1574.59 1747.52C1576.54 1745.57 1576.54 1745.18 1576.67 1745.31C1592.29 1730.21 1572.64 1718.49 1574.46 1702.74C1580.97 1700.01 1585.92 1699.62 1590.86 1698.71C1601.14 1696.76 1611.82 1686.86 1621.32 1700.27C1629.91 1712.51 1631.08 1725 1624.83 1739.32C1616.24 1759.36 1603.1 1776.8 1587.35 1790.34C1545.96 1826.27 1504.69 1863.75 1446.38 1870.65C1443.91 1870.91 1441.3 1873.12 1439.22 1872.6C1401.34 1862.32 1362.69 1881.19 1324.81 1869.61C1302.04 1862.71 1277.95 1865.05 1254.4 1860.89C1205.98 1852.43 1160.29 1836.29 1113.95 1821.71C1106.66 1819.37 1098.59 1817.54 1095.73 1810C1079.33 1767.3 1045.62 1730.99 1047.31 1681.79C1047.83 1668.38 1036.89 1662.53 1032.47 1649.64C1044.44 1632.46 1057.34 1619.05 1080.76 1619.7C1091.57 1626.21 1093.91 1635.19 1092.48 1643.78C1086.1 1681.92 1095.86 1718.1 1105.75 1756.37C1108.23 1759.49 1109.27 1760.67 1112.26 1763.4C1119.29 1769 1123.97 1773.42 1128.66 1781.23V1781.1Z" fill="#3F483D"/>
<path d="M1300.35 1091.33C1331.59 1105.13 1335.23 1103.18 1334.71 1075.58C1334.45 1063.35 1331.33 1051.76 1326.9 1037.32C1340.7 1034.45 1340.96 1045.51 1343.04 1055.15C1353.98 1108.25 1355.41 1161.88 1352.81 1216.03C1348.77 1299.2 1329.24 1379.51 1309.59 1459.82C1302.82 1487.8 1295.54 1515.65 1288.77 1543.64C1287.21 1550.28 1285.12 1555.48 1275.1 1552.49C1291.11 1434.04 1299.7 1316.51 1307.25 1199.1C1309.33 1165.39 1304.52 1131.55 1293.71 1095.5C1294.23 1091.98 1296.05 1091.59 1300.61 1091.59L1300.35 1091.33Z" fill="#EDF0E9"/>
<path d="M884.088 1601.34C843.868 1596.13 808.599 1602.77 774.888 1617.61C725.817 1639.35 676.612 1660.17 629.754 1686.86C580.944 1714.71 528.625 1736.19 466.018 1729.81C488.015 1708.99 520.421 1702.08 549.707 1688.81C621.165 1656.53 687.941 1613.97 765.126 1587.68C769.421 1584.42 771.632 1582.73 776.057 1581.56C782.956 1580.91 787.898 1580.13 795.187 1578.56C799.873 1576.35 802.09 1574.92 806.386 1574.14C845.043 1570.89 881.224 1570.49 916.628 1592.36C919.882 1595.35 920.793 1596.92 920.403 1601.08C908.428 1602.77 897.888 1602.12 883.961 1601.47L884.088 1601.34Z" fill="#818A8C"/>
<path d="M1087.14 1621.64C1065.54 1623.34 1055.52 1642.86 1034.69 1645.99C1021.41 1629.06 1034.95 1619.04 1044.97 1609.02C1076.86 1576.87 1113.7 1556.17 1164.59 1563.98C1171.49 1567.24 1175.91 1567.5 1182.55 1568.28C1197.26 1571.92 1209.88 1575.44 1224.98 1579.73C1229.28 1581.29 1230.84 1581.95 1234.61 1584.29C1244.64 1589.24 1252.45 1592.49 1262.6 1596.91C1266.63 1597.96 1268.46 1597.83 1271.19 1600.17C1285.9 1610.06 1299.69 1617.48 1315.57 1626.33C1319.48 1627.89 1321.3 1627.89 1324.04 1630.36C1347.6 1645.07 1368.68 1660.56 1397.7 1665.38C1402.26 1665.9 1404.08 1665.77 1407.73 1667.72C1429.85 1675.01 1450.16 1680.21 1473.33 1685.81C1478.79 1686.46 1480.88 1687.51 1484.26 1690.24C1485.96 1690.89 1485.56 1691.54 1485.56 1691.93C1470.46 1706.9 1453.28 1706.51 1433.37 1703.91C1381.7 1697.4 1337.83 1677.09 1301.52 1639.87C1293.45 1631.67 1282.77 1627.5 1269.37 1623.86C1255.96 1631.93 1247.89 1624.38 1238.13 1616.31C1205.46 1581.43 1167.06 1582.47 1125.28 1592.88C1114.22 1606.55 1101.98 1613.7 1087.14 1621.51V1621.64Z" fill="#818A8C"/>
<path d="M586.027 144.207C586.027 153.578 587.067 160.088 585.506 165.815C581.471 179.873 568.585 183.647 557.001 175.187C541.382 163.732 533.7 115.441 545.155 98.781C551.923 89.0189 559.862 91.2309 567.151 97.9992C579.516 109.584 585.639 124.162 586.16 144.207H586.027Z" fill="#3E5B2D"/>
<path d="M1572.77 1700.36C1577.07 1705.44 1578.63 1709.73 1582.92 1712.99C1595.94 1722.88 1594.77 1733.51 1579.41 1744.88C1569.91 1735.89 1559.63 1736.54 1550.26 1737.59C1525.53 1740.32 1521.49 1726.26 1523.32 1703.36C1538.67 1700.23 1554.03 1700.1 1572.64 1700.36H1572.77Z" fill="#50584D"/>
<path d="M920.033 1605.65C918.992 1601.87 918.857 1600.18 918.857 1596.14C935.258 1596.67 947.759 1603.04 944.375 1624.52C931.749 1624.39 925.627 1616.97 919.9 1605.65H920.033Z" fill="#586159"/>
<path d="M1426.61 3229.36C1429.48 3228.05 1434.03 3228.45 1440.28 3230.27C1437.41 3233.52 1432.73 3233.78 1426.61 3229.36Z" fill="#3F483D"/>
<path d="M330.396 1648.56C332.739 1650.12 334.694 1653.77 336.517 1659.75C332.352 1659.23 330.266 1655.59 330.396 1648.56Z" fill="#50584D"/>
<path d="M1183.08 1566.95C1180.09 1570.47 1175.53 1570.47 1169.55 1566.04C1172.41 1564.61 1176.84 1565 1183.08 1566.95Z" fill="#586159"/>
<path d="M1500.94 1695.81C1501.98 1697.11 1498.33 1697.12 1498.33 1697.12C1498.33 1697.12 1495.47 1694.9 1494.82 1693.34C1496.38 1692.17 1498.21 1693.08 1500.94 1695.94V1695.81Z" fill="#3F483D"/>
<path d="M1485.04 1689.34C1483.74 1690.38 1481.4 1689.86 1477.76 1687.77C1479.06 1686.73 1481.53 1687.25 1485.04 1689.34Z" fill="#3F483D"/>
<path d="M489.455 1682.54C488.934 1680.71 490.498 1679.15 494.272 1677.85C494.923 1679.67 493.36 1681.36 489.455 1682.54Z" fill="#3E5B2D"/>
<path d="M1408.77 1668.07C1407.34 1670.16 1405.13 1669.76 1401.87 1667.16C1403.04 1666.12 1405.38 1666.25 1408.77 1668.07Z" fill="#50584D"/>
<path d="M1324.84 1631.13C1323.02 1632.7 1321.19 1631.92 1318.72 1629.05C1320.41 1626.45 1322.63 1626.97 1324.84 1631.13Z" fill="#586159"/>
<path d="M1271.86 1600.96C1270.16 1602.65 1268.34 1601.87 1265.87 1599.26C1267.43 1596.53 1269.64 1596.92 1271.86 1600.96Z" fill="#586159"/>
<path d="M1235.78 1584.14C1233.96 1586.35 1231.62 1585.7 1228.62 1582.18C1230.06 1581.14 1232.4 1581.79 1235.78 1584.14Z" fill="#586159"/>
<path d="M775.931 1581.4C775.931 1583.22 773.722 1584.79 769.557 1586.35C769.557 1584.66 771.766 1582.83 775.931 1581.4Z" fill="#3F483D"/>
<path d="M806.399 1573.97C806.139 1575.79 803.796 1576.97 799.631 1578.01C799.891 1576.32 802.104 1574.88 806.399 1573.97Z" fill="#3F483D"/>
<path d="M1150.79 2506.34C1144.54 2502.04 1139.99 2499.18 1137.51 2495.15C1131.53 2485.39 1133.22 2475.62 1140.89 2467.68C1148.7 2459.48 1158.73 2458.57 1168.49 2463.78C1178.25 2468.98 1184.11 2478.88 1179.82 2488.77C1172.79 2504.91 1174.61 2513.5 1192.83 2518.45C1201.29 2520.66 1208.45 2530.68 1205.33 2539.14C1198.17 2558.27 1203.5 2565.17 1222.77 2571.68C1242.68 2578.32 1251.15 2602.92 1242.94 2618.15C1235.79 2631.42 1223.68 2637.8 1208.45 2635.33C1188.79 2632.08 1171.48 2610.73 1177.21 2591.07C1182.16 2574.28 1183.59 2565.82 1165.24 2557.1C1153.13 2551.38 1153.39 2536.54 1161.86 2524.17C1165.76 2518.45 1174.87 2517.15 1175.65 2508.68C1167.97 2502.7 1160.42 2509.85 1150.79 2506.34Z" fill="#EDF0E9"/>
<path d="M1166.94 2388.54C1171.23 2396.22 1175.27 2401.56 1176.31 2407.29C1180.09 2428.37 1173.84 2442.56 1158.48 2447.37C1142.34 2452.45 1129.07 2446.99 1119.3 2433.45C1108.63 2418.74 1108.37 2396.35 1119.3 2384.9C1131.41 2372.27 1145.2 2371.49 1159.39 2381.65C1161.34 2383.08 1163.17 2384.9 1166.81 2388.54H1166.94Z" fill="#EDF0E9"/>
<path d="M1334.07 2787.46C1356.97 2776.53 1370.51 2786.16 1378.58 2803.73C1384.83 2817.27 1381.83 2831.33 1368.68 2840.05C1355.54 2848.77 1342.14 2845.64 1331.59 2834.58C1317.41 2819.74 1315.97 2804.12 1333.93 2787.46H1334.07Z" fill="#EDF0E9"/>
<path d="M1142.73 2278.42C1145.59 2288.7 1143.9 2295.99 1138.3 2301.59C1129.58 2310.31 1119.69 2313.43 1108.23 2305.88C1096.78 2298.33 1095.22 2287.66 1100.04 2276.6C1105.11 2265.01 1115.13 2260.85 1127.76 2264.49C1134.14 2266.31 1138.43 2270.61 1142.73 2278.55V2278.42Z" fill="#EDF0E9"/>
<path d="M1388.1 2850.46C1410.48 2858.53 1421.42 2877.28 1436.13 2891.86C1440.68 2896.41 1442.11 2903.05 1436.39 2908.13C1434.04 2910.21 1428.44 2911.9 1426.49 2910.6C1407.49 2897.32 1388.23 2883.79 1380.29 2860.49C1379.51 2858.27 1383.67 2854.37 1388.22 2850.46H1388.1Z" fill="#EDF0E9"/>
<path d="M1093.79 2198.25C1093.01 2185.24 1098.08 2180.16 1108.88 2183.54C1114.22 2185.23 1116.17 2190.96 1114.35 2195.26C1110.44 2204.37 1104.07 2208.54 1093.92 2198.12L1093.79 2198.25Z" fill="#EDF0E9"/>
<path d="M884.24 1226.87C819.16 1192.64 756.808 1194.07 694.071 1225.44C683.658 1230.65 671.946 1244.84 660.622 1234.55C648.257 1223.23 660.62 1208.39 665.306 1196.55C683.398 1150.47 737.284 1117.28 788.437 1118.71C835.295 1120.01 888.794 1157.63 905.715 1201.1C913.004 1219.84 911.443 1222.19 884.24 1227V1226.87Z" fill="#2B2A28"/>
<path d="M845.184 1395.69C841.019 1421.59 831.125 1441.63 814.334 1457.51C788.953 1481.46 757.325 1477.68 737.02 1449.18C705.131 1404.27 709.813 1314.33 746.127 1272.68C772.94 1241.83 800.017 1243.14 831.386 1279.19C831.777 1283.22 830.865 1284.79 827.611 1287.52C806.395 1289.99 783.223 1283.09 778.667 1312.12C775.543 1331.77 772.165 1352.73 788.175 1368.22C808.35 1387.87 820.191 1358.98 839.845 1358.2C849.998 1369.52 845.571 1381.5 845.05 1395.69H845.184Z" fill="#2B2A28"/>
<path d="M1223.16 1403.22C1219.77 1427.95 1210.27 1446.95 1195.43 1462.7C1170.83 1488.87 1139.6 1486.26 1119.29 1456.59C1103.15 1433.03 1099.12 1405.95 1099.51 1377.84C1100.03 1344.78 1104.97 1312.89 1125.4 1285.68C1148.83 1254.32 1172.26 1252.49 1205.85 1280.35C1208.71 1286.34 1208.32 1289.72 1203.24 1294.15C1186.32 1297.66 1169.79 1295.58 1161.98 1312.76C1153.13 1332.15 1149.48 1353.24 1164.45 1369.64C1186.19 1393.46 1198.29 1360.79 1218.47 1358.57C1227.97 1372.63 1223.55 1386.69 1223.16 1403.22Z" fill="#2B2A28"/>
<path d="M1123.2 1153.57C1188.02 1123.24 1258.7 1153.7 1277.83 1217.35C1280.17 1225.16 1281.22 1232.32 1273.67 1237.52C1267.94 1241.43 1261.69 1240.26 1255.83 1237C1254.79 1236.35 1253.62 1235.83 1252.58 1235.05C1199.73 1189.37 1143.76 1198.74 1086.88 1225.94C1080.38 1229.07 1073.35 1235.31 1066.97 1226.98C1062.68 1221.38 1066.71 1215.01 1069.18 1209.28C1079.6 1184.81 1101.72 1171.53 1123.2 1153.57Z" fill="#2B2A28"/>
<path d="M1132.83 1040.87C1150.15 1048.55 1165.11 1054.8 1179.56 1062.08C1185.03 1064.82 1190.23 1069.63 1186.59 1077.05C1183.59 1083.3 1177.34 1086.29 1170.97 1084.34C1156.78 1079.79 1142.72 1074.71 1129.19 1068.46C1100.81 1055.45 1074.26 1039.05 1049.14 1020.43C1041.07 1014.45 1031.57 1007.42 1040.42 996.223C1048.23 986.201 1055.9 994.791 1063.06 999.086C1085.45 1012.62 1107.84 1026.16 1132.7 1040.87H1132.83Z" fill="#EDF0E9"/>
<path d="M845.967 1395.95C841.672 1386.84 846.353 1374.34 837.762 1361.33C820.451 1339.59 825.791 1315.9 824.619 1290.78C826.702 1286.62 827.612 1285.31 830.606 1282.84C843.622 1290.78 850.26 1302.5 850.391 1316.55C850.651 1342.19 854.164 1367.96 845.834 1395.95H845.967Z" fill="#3F483D"/>
<path d="M1223.95 1403.47C1219.27 1391.89 1224.99 1376.79 1215.49 1361.17C1201.56 1346.72 1203.65 1331.75 1206.64 1313.79C1208.85 1308.98 1210.02 1307.15 1214.32 1304.55C1236.57 1334.62 1229.42 1367.94 1223.95 1403.47Z" fill="#3F483D"/>
<path d="M1021.82 1051.68C1019.21 1056.63 1017.13 1060.14 1014 1061.44C1004.63 1065.48 996.437 1063.66 995.656 1052.07C995.135 1042.44 1003.46 1040.75 1011.01 1040.88C1016.09 1040.88 1020 1044 1021.69 1051.55L1021.82 1051.68Z" fill="#EDF0E9"/>
<path d="M1061.12 1059.99C1071.14 1068.84 1071.01 1075.87 1059.95 1080.29C1055.52 1082.11 1049.27 1081.33 1047.32 1076.39C1043.15 1065.85 1048.62 1060.51 1061.12 1060.12V1059.99Z" fill="#EDF0E9"/>
<path d="M1302.18 1089.53C1301.27 1092 1299.58 1092.52 1295.02 1092.52C1285.26 1078.07 1277.84 1064.01 1273.8 1039.15C1291.63 1056.85 1290.59 1075.73 1302.18 1089.53Z" fill="#818A8C"/>
<path d="M1197.54 1294.18C1200.66 1290.01 1202.87 1288.32 1206.25 1284.68C1213.15 1286.63 1214.59 1293.01 1216.8 1301.47C1216.28 1304.72 1215.11 1305.63 1212.24 1307.97C1202.87 1308.37 1198.58 1303.81 1197.54 1294.18Z" fill="#3F483D"/>
<path d="M1360.38 3124.34C1362.07 3134.49 1357.25 3136.45 1350.35 3134.37C1346.58 3133.32 1344.1 3129.42 1345.92 3126.04C1348.53 3121.22 1353.61 3120.96 1360.38 3124.34Z" fill="#679441"/>
<path d="M752.371 1714.97C753.282 1716.01 754.19 1717.18 755.231 1718.22C754.58 1717.83 753.93 1717.44 752.759 1716.01C752.368 1714.97 752.371 1714.97 752.371 1714.97Z" fill="#50584D"/>
<path d="M731.562 1721.86C730.52 1720.17 731.823 1718.09 735.858 1715.88C736.769 1717.57 735.336 1719.52 731.562 1721.86Z" fill="#50584D"/>
<path d="M1573.96 1745.68C1576.56 1748.02 1577.08 1750.75 1576.3 1752.97C1568.62 1775.35 1515.13 1827.03 1493.52 1827.16C1468.79 1827.29 1453.69 1852.54 1431.17 1849.41C1409.83 1846.42 1390.3 1844.86 1368.57 1849.15C1348.91 1853.19 1326.13 1857.74 1307.65 1840.3C1300.88 1833.79 1290.86 1836.14 1282.14 1836.01C1269.51 1835.75 1257.02 1835.88 1244.39 1836.01C1207.95 1836.4 1174.49 1830.02 1153.15 1793.31C1163.04 1789.8 1172.29 1792.92 1181.66 1797.35C1219.79 1814.92 1260.79 1819.09 1302.18 1820.91C1332.12 1822.21 1362.06 1818.83 1391.86 1827.16C1406.83 1831.32 1424.4 1831.58 1440.02 1824.42C1467.22 1812.06 1493 1796.83 1521.24 1786.29C1535.82 1780.82 1517.21 1777.31 1515.9 1769.63C1534.78 1764.16 1553.65 1756.22 1574.09 1745.81L1573.96 1745.68Z" fill="#50584D"/>
<path d="M1084.69 1625.53C1090.03 1606.13 1104.99 1601.97 1120.74 1595.33C1129.85 1608.21 1134.41 1620.45 1121.91 1633.21C1110.72 1644.53 1115.28 1659.37 1116.06 1672.77C1116.97 1689.17 1130.5 1690.74 1143.13 1693.6C1152.89 1695.81 1157.71 1704.53 1157.45 1713.51C1157.06 1726.53 1142.61 1719.11 1136.88 1725.23C1138.44 1732.13 1145.6 1733.69 1149.9 1737.98C1153.41 1741.5 1157.58 1744.23 1161.48 1747.48C1151.07 1757.64 1137.14 1764.02 1130.77 1780.68C1123.61 1779.5 1116.97 1775.86 1108.9 1770.13C1103.04 1762.32 1084.56 1766.23 1094.71 1749.44C1096.66 1746.32 1094.71 1739.55 1092.76 1735.51C1076.75 1704.66 1080.13 1672.39 1085.08 1639.85C1085.6 1636.2 1085.08 1632.42 1085.08 1625.53H1084.69Z" fill="#50584D"/>
<path d="M1236.96 1616.58C1245.16 1616.71 1253.36 1619.83 1264.17 1623.35C1255.19 1633.76 1244.51 1636.75 1236.96 1616.58Z" fill="#50584D"/>
<path d="M823.311 1286.22C836.457 1308.35 838.929 1330.21 835.285 1356.25C831.12 1365.62 827.866 1372.91 822.529 1377.85C805.739 1393.34 787.127 1390.74 775.543 1370.69C762.137 1347.39 762.268 1322.41 773.071 1298.2C783.093 1275.68 794.416 1273.07 823.572 1286.22H823.311Z" fill="#EDF0E9"/>
<path d="M1195.95 1291.14C1201.42 1296.61 1204.29 1301.56 1208.84 1307.93C1212.88 1323.94 1214.96 1338.39 1212.74 1356.35C1195.82 1389.02 1185.93 1395.92 1169.53 1390.19C1154.17 1384.86 1145.84 1366.37 1146.49 1339.69C1147.41 1302.73 1159.9 1289.58 1195.95 1291.27V1291.14Z" fill="#EDF0E9"/>
<path d="M1113.31 1717.56C1116.95 1716.52 1118.25 1717.56 1117.08 1719.64C1116.82 1720.03 1114.09 1718.99 1113.31 1717.56Z" fill="#586159"/>
<path d="M1107.46 1767.95C1108.38 1768.6 1107.34 1763.13 1108.51 1767.69C1107.47 1768.21 1107.6 1767.82 1107.46 1767.95Z" fill="#586159"/>
</g>
<defs>
<filter id="filter0_d_509_6893" x="0.40625" y="0" width="1905.09" height="3944.59" filterUnits="userSpaceOnUse" color-interpolation-filters="sRGB">
<feFlood flood-opacity="0" result="BackgroundImageFix"/>
<feColorMatrix in="SourceAlpha" type="matrix" values="0 0 0 0 0 0 0 0 0 0 0 0 0 0 0 0 0 0 127 0" result="hardAlpha"/>
<feOffset dy="4"/>
<feGaussianBlur stdDeviation="2"/>
<feComposite in2="hardAlpha" operator="out"/>
<feColorMatrix type="matrix" values="0 0 0 0 0 0 0 0 0 0 0 0 0 0 0 0 0 0 0.25 0"/>
<feBlend mode="normal" in2="BackgroundImageFix" result="effect1_dropShadow_509_6893"/>
<feBlend mode="normal" in="SourceGraphic" in2="effect1_dropShadow_509_6893" result="shape"/>
</filter>
</defs>
</svg>
