<svg width="1891" height="3987" viewBox="0 0 1891 3987" fill="none" xmlns="http://www.w3.org/2000/svg">
<path d="M685.207 3315.04C746.643 3279.38 809.249 3245.93 872.897 3214.56C912.466 3195.03 952.945 3176.03 986.266 3147.26C1051.61 3090.77 1084.54 3001.09 1157.17 2954.37C1171.62 2945.13 1191.14 2938.1 1204.94 2948.25C1216 2956.32 1217.96 2971.94 1217.43 2985.6C1214.57 3052.9 1171.88 3110.95 1131.01 3164.44C1098.47 3207.01 1065.15 3250.22 1020.76 3280.29C986.662 3303.33 947.609 3317.64 908.952 3331.7C840.357 3356.69 771.762 3381.55 703.168 3406.54C703.558 3377.26 696.661 3347.84 685.207 3315.04Z" fill="#385B35" stroke="#231F20" stroke-width="5" stroke-miterlimit="10"/>
<path d="M409.003 3603.36C401.193 3528.13 400.019 3452.11 405.876 3376.62C407.308 3358.14 409.388 3338.87 419.801 3323.51C430.344 3307.89 448.176 3298.52 466.139 3292.67C501.802 3280.95 547.857 3275.83 583.912 3286.5C592.242 3288.97 609.85 3303.69 611.484 3300.89C619.876 3286.5 621.609 3284.9 633.063 3279.31C645.298 3273.32 658.718 3276.48 667.829 3286.5C676.94 3296.65 682.467 3304.12 686.502 3317.14C690.496 3329.96 695.504 3364.49 697.799 3378.81C700.142 3393.42 700.077 3397.99 700.197 3401.58C700.687 3416.22 701.415 3430.12 696.601 3445.94C692.47 3459.51 677.419 3478.31 675.022 3480.71C651.855 3496.64 656.407 3485.18 648.648 3489.1C642.314 3492.3 640.612 3502.26 635.347 3508.99C628.969 3517.19 628.261 3520.33 622.274 3528.66C618.677 3531.06 595.9 3549.04 588.707 3551.44C621.075 3581.41 650.484 3614.32 660.636 3654.54C670.789 3694.76 661.602 3749.54 640.256 3785.21C630.494 3801.61 615.081 3818.77 593.699 3810.45C587.508 3809.18 564.327 3794.94 552.742 3784.01C533.348 3765.79 514.037 3750.96 494.643 3732.74C473.297 3712.7 451.692 3692.52 435.162 3668.18C418.762 3643.97 410.041 3614.94 408.869 3603.36H409.003Z" fill="white"/>
<path d="M646.16 3491.16C636.268 3514.33 618.177 3533.98 595.92 3545.83C573.663 3557.67 547.368 3561.7 522.508 3557.15" stroke="#231F20" stroke-width="2.15" stroke-miterlimit="10"/>
<path d="M698.598 3414.48C699.639 3436.99 691.178 3459.9 675.819 3476.3C672.175 3480.21 668.137 3483.72 663.191 3485.67C658.245 3487.63 652.386 3487.63 648.09 3484.64C641.192 3479.95 640.547 3470.32 640.547 3461.99C640.547 3444.16 640.547 3426.19 640.547 3408.36C640.547 3393.39 640.542 3378.03 635.856 3363.85C631.431 3350.44 623.102 3338.73 618.417 3325.45C613.731 3312.17 613.469 3295.64 623.622 3285.88C631.562 3278.07 644.446 3276.77 654.859 3280.8C665.272 3284.97 673.215 3293.69 678.292 3303.71C683.368 3313.6 685.838 3324.67 687.92 3335.6C692.866 3362.29 697.426 3389.23 698.598 3414.48Z" stroke="#231F20" stroke-width="2.15" stroke-miterlimit="10"/>
<path d="M589.793 3557.66C624.676 3581.22 650.189 3618.18 659.691 3659.18C669.193 3700.18 662.683 3744.7 641.857 3781.14C633.137 3796.37 619.084 3811.73 601.513 3810.43C593.052 3809.78 585.369 3805.35 578.341 3800.67C559.207 3788.04 541.767 3773.07 524.325 3758.24C493.477 3731.81 462.106 3704.87 440.109 3670.64C416.81 3634.32 405.225 3591.5 400.54 3548.68C395.984 3505.72 397.936 3462.51 400.018 3419.43C401.841 3380.51 405.882 3336.91 435.298 3311.53C453.78 3295.52 478.898 3290.05 502.977 3286.01C521.59 3282.89 540.595 3280.42 559.338 3282.5C578.081 3284.58 596.826 3291.87 609.972 3305.54L610.881 3306.45" stroke="#231F20" stroke-width="2.15" stroke-miterlimit="10"/>
<path d="M485.145 3294.59C455.469 3320.36 439.982 3359.28 434.905 3398.2C429.959 3437.11 434.516 3476.55 439.202 3515.6" stroke="#231F20" stroke-miterlimit="10"/>
<path d="M628.053 3793.11C587.964 3776.45 553.607 3748.46 523.15 3717.62C502.715 3696.92 483.709 3674.66 469.262 3649.41C454.814 3624.16 445.314 3595.79 444.793 3566.76" stroke="#231F20" stroke-miterlimit="10"/>
<path d="M1474.23 3635.65C1484.38 3548.31 1489.59 3460.45 1489.72 3372.59C1489.72 3342.53 1489.07 3311.55 1477.48 3283.7C1465.51 3255.06 1442.99 3232.28 1422.16 3209.11C1381.42 3163.69 1345.76 3113.84 1316.08 3060.6C1310.49 3050.45 1304.76 3039.38 1306.58 3027.93C1308.41 3016.35 1317.9 3006.85 1328.97 3002.81C1340.03 2998.78 1352.39 2999.69 1363.72 3002.68C1393 3010.36 1416.69 3031.19 1438.56 3052.01C1473.57 3085.33 1507.16 3120.22 1539.05 3156.53C1563.26 3184.25 1587.08 3213.67 1598.66 3248.55C1611.16 3286.82 1607.9 3328.21 1602.82 3368.04C1591.37 3456.16 1571.32 3543.11 1542.95 3627.32C1520.04 3629.4 1497.26 3631.61 1474.36 3635.52L1474.23 3635.65Z" fill="#385B35" stroke="#231F20" stroke-width="5" stroke-miterlimit="10"/>
<path d="M1587.86 3711.16C1529.02 3694.24 1470.22 3686.87 1418.28 3719.28C1405.1 3766.03 1382.32 3885.91 1391.92 3909.88C1391.92 3915.88 1402.71 3965.03 1407.5 3965.03C1412.3 3971.48 1438.92 3988.64 1447.06 3986.61C1455.55 3984.49 1493.83 3979.78 1542.97 3977.02C1604.88 3973.54 1668.07 3977.67 1717.99 3977.02C1760.56 3976.5 1823.19 3974.25 1855.86 3947.05C1891.13 3917.76 1898.94 3858.11 1880.07 3816.33C1861.33 3774.42 1825.37 3743.19 1780.33 3734.86C1735.17 3726.53 1665.25 3734.86 1640.18 3759.58C1628.34 3765.31 1615.32 3772.08 1602.7 3768.43C1592.02 3765.31 1584.47 3755.03 1581.74 3744.22C1579 3733.42 1580.43 3721.96 1587.72 3711.03L1587.86 3711.16Z" fill="white"/>
<path d="M1607.5 3709.19C1602.43 3715.05 1593.32 3715.7 1585.9 3713.36C1578.48 3711.14 1571.97 3706.46 1564.82 3703.34C1541.52 3693.05 1514.57 3698.91 1490.36 3706.72C1466.15 3714.53 1441.29 3724.16 1416.04 3720.91C1406.54 3719.73 1396.78 3716.22 1391.05 3708.67C1384.41 3699.95 1384.41 3687.32 1389.49 3677.69C1394.56 3668.06 1403.68 3661.03 1413.7 3656.61C1423.72 3652.18 1434.52 3650.1 1445.33 3648.15C1465.5 3644.37 1485.55 3640.47 1505.72 3636.69C1524.6 3633.05 1543.86 3629.54 1562.99 3631.88C1582.12 3634.22 1601.26 3643.59 1610.63 3660.38C1619.61 3676.39 1617.66 3697.61 1607.64 3709.19H1607.5Z" fill="white" stroke="#231F20" stroke-width="2.15" stroke-miterlimit="10"/>
<path d="M1418.64 3728.69C1400.94 3795.2 1383.11 3864.58 1396.77 3932C1399.64 3946.32 1404.45 3961.03 1415.25 3970.79C1425.15 3979.64 1438.95 3983.28 1452.22 3983.54C1465.5 3983.8 1478.65 3981.07 1491.79 3979.12C1590.06 3964.02 1691.07 3985.24 1789.34 3969.88C1814.2 3965.97 1839.84 3959.2 1858.32 3942.28C1874.2 3927.71 1883.44 3906.75 1886.7 3885.4C1895.68 3828.26 1861.45 3767.09 1808.08 3744.83C1783.61 3734.68 1756.67 3732.07 1730.24 3733.64C1695.36 3735.59 1660.48 3744.44 1630.54 3762.53C1600.6 3780.62 1576.01 3808.22 1564.42 3841.28" stroke="#231F20" stroke-width="2.15" stroke-miterlimit="10"/>
<path d="M1584.6 3714.51C1579.91 3724.4 1579.26 3736.12 1582.51 3746.66C1585.77 3757.2 1593.32 3766.19 1602.82 3771.65" stroke="#231F20" stroke-width="2.15" stroke-miterlimit="10"/>
<path d="M1875.26 3913.92C1846.49 3930.45 1813.69 3939.04 1780.63 3942.82C1747.7 3946.46 1714.38 3945.42 1681.19 3943.86" stroke="#231F20" stroke-miterlimit="10"/>
<path d="M1403.56 3937.1C1464.34 3946.47 1526.43 3948.03 1587.61 3941.79" stroke="#231F20" stroke-miterlimit="10"/>
<path d="M1244.13 3228.98C1116.05 3169.63 1001.12 3095.31 901.025 3000.16C818.634 2921.93 750.035 2831.99 691.853 2733.72C559.741 2510.76 455.747 2275.82 383.638 2026.95C378.301 2008.34 371.008 1997.8 349.401 1994.02C241.238 1975.15 150.78 1924.26 82.7057 1836.92C32.0734 1771.84 -1.64247 1700.12 0.17977 1615.39C0.830571 1583.24 10.3358 1553.56 26.6059 1525.84C31.2916 1517.77 36.7584 1511.65 49.3839 1512.04C56.8031 1572.56 79.0579 1626.58 131.382 1661.46C178.761 1693.09 231.739 1710.4 293.435 1712.88C281.46 1671.88 271.439 1634.52 259.725 1597.81C219.245 1470.65 199.591 1340.62 204.667 1207.2C207.01 1145.38 213.776 1084.33 240.589 1027.06C268.573 967.189 311.919 924.626 373.615 900.286C435.441 875.946 498.304 856.942 563.384 841.063C671.807 814.64 767.22 757.24 848.44 678.883C880.199 648.296 890.869 607.424 897.377 566.684C911.565 477.003 903.363 388.626 876.029 301.809C849.086 216.424 797.286 192.474 710.99 199.763C674.935 202.886 639.659 214.211 603.735 220.459C515.486 235.948 491.538 187.657 500.909 114.116C504.554 85.3506 519.395 62.4451 543.084 45.2639C562.608 31.0764 583.433 19.6206 607.122 14.1538C747.956 -18.1259 879.544 4.78292 1000.72 83.1394C1032.74 103.835 1057.61 133.12 1075.44 167.092C1106.81 226.836 1127.24 289.442 1127.37 358.167C1127.5 422.596 1122.17 486.505 1115.53 550.414C1108.89 613.411 1111.1 676.148 1117.87 738.886C1124.9 802.664 1156.27 849.262 1215.49 875.945C1238.4 886.227 1261.57 896.121 1284.34 906.534C1337.97 931.134 1372.07 970.051 1385.09 1029.66C1402.4 1108.41 1401.49 1187.16 1394.46 1266.3C1386 1363.4 1356.06 1455.94 1334.32 1550.31C1332.37 1558.9 1331.33 1567.88 1328.34 1576.08C1321.96 1593.26 1330.55 1601.85 1344.74 1608.23C1383.66 1625.67 1421.79 1645.58 1461.75 1660.16C1512.25 1678.64 1562.76 1678.64 1609.22 1645.32C1629.27 1631.01 1643.46 1612.26 1654.13 1590.4C1673 1551.87 1684.98 1511 1693.7 1469.35C1708.15 1470.13 1711.53 1479.63 1714.65 1489.13C1729.1 1533.39 1729.62 1578.68 1718.43 1623.2C1701.9 1688.41 1674.04 1748.93 1633.83 1803.21C1579.55 1876.49 1505.35 1918.4 1416.72 1934.67C1373.63 1942.61 1330.55 1954.59 1285.91 1948.47C1271.72 1946.52 1268.99 1953.28 1268.73 1965.65C1267.56 2045.04 1267.29 2124.7 1286.43 2202.28C1328.21 2370.84 1378.97 2536.66 1447.3 2696.63C1493.64 2805.18 1558.85 2901.89 1633.69 2992.61C1665.45 3031.14 1690.31 3072.53 1695.52 3123.56C1700.59 3172.76 1684.2 3212.06 1644.37 3242.13C1589.44 3283.52 1526.31 3289.38 1461.23 3284.43C1386.65 3278.83 1315.71 3257.62 1243.73 3229.24L1244.13 3228.98Z" fill="#2B2A28"/>
<path d="M716.189 1966.81C767.212 1949.49 817.842 1938.82 864.049 1914.09C911.948 1888.58 960.368 1864.5 987.441 1811C1050.7 1864.11 1116.04 1905.63 1193.1 1931.66C1207.29 1951.71 1202.34 1969.67 1187.37 1980.47C1161.08 1999.48 1156.91 2024.6 1158.47 2053.49C1158.99 2063.51 1159 2073.67 1156.78 2083.56C1153.14 2099.96 1145.72 2105.82 1131.53 2092.02C1121.51 2082.26 1110.57 2070.67 1096.39 2084.73C1084.02 2097.1 1084.8 2112.32 1094.44 2126.12C1106.15 2142.65 1118.65 2136.8 1133.22 2127.68C1155.48 2113.89 1163.03 2119.35 1165.63 2151.11C1173.05 2244.31 1189.71 2335.68 1223.03 2423.15C1281.34 2576.22 1350.33 2723.82 1447.04 2857.1C1452.89 2865.3 1457.84 2874.41 1464.74 2881.44C1488.82 2906.04 1483.48 2928.3 1451.46 2953.81C1480.36 2951.99 1500.92 2924.91 1518.63 2954.72C1530.6 2975.03 1522.79 2990.52 1508.48 3008.09C1470.08 3025.27 1437.02 3009 1404.61 2997.15C1296.58 2957.45 1213.66 2883.52 1137.91 2799.7C1060.98 2714.71 989.527 2625.42 931.996 2526.23C882.795 2441.5 842.316 2351.82 808.865 2259.8C779.709 2179.49 750.161 2099.31 719.443 2019.65C713.195 2003.25 704.992 1986.98 716.316 1966.94L716.189 1966.81Z" fill="#679441"/>
<path d="M1271.33 1548.1C1225.64 1533.79 1182.04 1518.56 1134.53 1518.04C1076.61 1517.52 1032.88 1540.55 1005.15 1592.1C1002.81 1596.39 999.944 1600.43 995.779 1607.33C970.528 1587.67 944.756 1571.14 916.901 1557.61C855.335 1527.67 793.901 1526.5 732.465 1557.21C688.731 1579.08 645.649 1601.99 599.572 1625.16C591.893 1621.51 588.897 1615.92 587.725 1609.67C564.427 1478.6 536.182 1348.05 555.706 1213.33C564.557 1152.55 588.766 1099.7 632.239 1057.14C662.436 1027.59 686.52 990.628 730.253 972.796C751.339 971.755 768.517 974.748 784.656 982.298C808.346 993.361 813.688 1007.03 803.666 1030.72C800.281 1038.79 795.72 1046.34 791.425 1054.02C783.355 1068.59 787.001 1080.7 799.236 1090.59C810.039 1099.31 819.155 1094.62 829.698 1087.86C886.448 1051.02 946.061 1018.48 995.131 970.842C1012.18 954.312 1031.44 957.306 1051.36 962.252C1095.35 973.316 1136.48 992.32 1176.96 1011.84C1218.87 1032.02 1260.52 1045.68 1306.86 1028.89C1309.99 1027.72 1314.15 1029.93 1319.88 1032.41C1334.32 1046.99 1335.89 1063.39 1336.93 1079.66C1338.1 1099.44 1330.81 1111.68 1305.3 1104.52C1288.38 1088.64 1282.78 1069.37 1273.67 1052.19C1271.2 1047.9 1267.56 1054.66 1271.46 1051.54C1282.52 1066.38 1286.29 1084.99 1298.53 1102.7C1311.02 1134.32 1312.33 1164.52 1310.77 1194.72C1304.65 1312.38 1300.75 1430.44 1270.94 1548.36L1271.33 1548.1Z" fill="#679441"/>
<path d="M1617.8 3194.1C1613.64 3204.9 1605.31 3206.47 1596.46 3210.89C1545.17 3203.21 1496.62 3215.84 1447.81 3213.62C1424.91 3212.58 1402.26 3211.8 1385.21 3193.06C1380.78 3188.11 1375.45 3185.38 1368.55 3185.9C1326.9 3188.89 1293.44 3166.9 1259.99 3147.76C1116.42 3065.5 995.505 2957.47 889.034 2830.3C775.794 2695.07 686.249 2546.29 604.899 2390.49C548.019 2281.55 508.314 2166.35 462.238 2053.37C456.641 2039.45 450.655 2025.13 457.293 2007.17C500.116 2001.31 541.642 2002.35 585.636 1994.15C617.395 2025.65 633.792 2064.44 647.85 2102.83C691.714 2222.58 751.978 2334.13 810.289 2446.98C889.687 2600.7 993.554 2735.15 1118.38 2854.38C1229.27 2960.2 1361.39 3027.49 1507.3 3069.93C1530.59 3076.69 1555.07 3071.1 1581.23 3077.61C1618.19 3109.24 1623.66 3148.41 1617.67 3194.1H1617.8Z" fill="#3E5B2D"/>
<path d="M1124.76 846.659C1156.13 876.336 1188.67 900.417 1223.94 919.811C1251.01 934.779 1273.4 953.911 1292.53 980.073C1271.97 999.337 1250.5 996.085 1227.33 985.542C1178.13 963.155 1129.57 938.814 1077.51 923.195C1063.06 918.9 1048.75 914.344 1033.39 913.563C1009.57 912.262 989.261 918.117 970.908 934.257C936.025 964.844 902.188 996.996 861.969 1017.82C855.591 1017.3 852.985 1014.7 852.334 1010.79C844.524 957.557 805.865 937.771 759.919 931.133C731.153 926.968 707.205 918.64 686.38 897.945C675.056 886.751 659.699 879.46 646.162 870.479C644.991 858.635 655.399 860.197 661.256 857.854C748.594 824.013 821.354 768.692 886.565 702.962C924.832 664.434 937.852 613.023 943.059 561.739C952.43 471.148 948.783 380.818 920.408 292.699C904.007 241.937 880.058 196.768 829.816 172.819C777.752 148.088 722.822 148.87 667.504 160.975C666.332 161.236 665.164 161.888 663.862 162.148C649.154 164.881 634.057 176.333 620.391 169.304C606.594 162.276 614.404 144.184 611.41 131.168C606.464 110.082 593.183 93.2936 583.16 74.6806C598.129 58.2804 617.786 56.326 635.618 53.072C747.296 32.5067 853.375 46.8238 952.687 104.615C996.811 130.257 1028.31 166.051 1049.26 212.258C1073.6 266.014 1083.76 321.852 1082.59 380.945C1081.02 454.095 1072.95 526.595 1068.27 599.354C1063.84 667.949 1075.43 734.723 1094.56 800.194C1099.51 817.245 1110.96 831.3 1124.89 846.268L1124.76 846.659Z" fill="#679441"/>
<path d="M1584.75 3078.65C1515.76 3094.27 1455.63 3064.33 1395.11 3041.82C1343.82 3022.68 1295.53 2995.48 1248.28 2966.97C1205.07 2940.94 1165.63 2910.09 1128.54 2876.64C1058.51 2813.51 996.817 2742.05 937.074 2669.43C902.06 2626.99 872.772 2579.62 847.131 2530.81C813.81 2467.42 773.982 2407.67 744.566 2342.2C709.162 2263.46 666.079 2188.22 639.656 2105.18C627.942 2068.48 606.854 2034.63 589.543 1996.76C630.153 1984 671.025 1974.11 715.019 1964.35C713.588 2000.4 732.852 2030.6 745.087 2061.32C766.173 2113.77 786.733 2166.36 804.174 2220.11C826.692 2289.49 860.667 2354.05 888.651 2421.08C920.931 2498.39 968.308 2565.95 1014.25 2634.8C1043.41 2678.67 1078.94 2717.84 1113.83 2757.15C1142.98 2789.95 1169.67 2825.36 1203.38 2853.86C1239.57 2884.71 1271.59 2921.42 1314.54 2943.15C1372.33 2972.57 1428.55 3007.71 1500.27 3007.84C1510.81 3009.53 1516.94 3016.56 1523.96 3016.17C1566.92 3013.44 1577.2 3043.37 1584.75 3078.65Z" fill="#4E6F36"/>
<path d="M937.335 1623.57C935.643 1634.51 932.521 1642.7 929.918 1651.03C922.108 1676.55 923.409 1685.4 945.667 1697.63C959.203 1705.18 957.512 1711.56 956.471 1724.06C952.827 1765.32 928.229 1790.18 893.997 1805.67C871.739 1815.69 863.666 1837.56 845.314 1851.22C789.735 1892.35 729.864 1921.77 662.18 1933.74C591.373 1946.37 520.437 1942.99 448.979 1935.7C391.709 1929.84 336.129 1914.74 278.729 1909.14C249.052 1906.28 217.811 1897.17 188.265 1887.27C181.236 1884.93 173.559 1882.07 168.092 1877.25C124.749 1838.34 89.6023 1794.08 73.5926 1736.29C69.1671 1720.41 70.8628 1709.22 83.7486 1700.24C97.1551 1690.99 109.777 1690.86 125.396 1699.97C168.739 1725.23 215.081 1743.32 269.488 1745.66C273.002 1770.39 247.618 1780.67 243.583 1799.94C312.828 1858.77 394.827 1822.45 462.51 1831.96C462.77 1831.96 454.051 1834.04 440.774 1821.42C534.88 1792.39 630.807 1777.94 712.808 1720.93C718.145 1717.81 721.142 1715.98 726.479 1713.12C731.945 1710.65 735.201 1709.87 741.058 1710.13C746.525 1712.21 747.957 1714.55 747.566 1718.07C748.347 1714.94 748.087 1711.82 748.087 1706.48C763.967 1681.36 782.836 1667.56 811.731 1663.01C844.792 1657.67 873.166 1641.27 876.29 1598.97C887.354 1592.33 896.465 1592.59 908.57 1596.89C923.148 1601.57 927.706 1613.29 937.208 1623.44L937.335 1623.57Z" fill="#3F483D"/>
<path d="M398.611 952.077C462.78 927.867 522.916 897.539 592.161 905.869C606.088 907.561 619.491 908.341 633.809 917.973C632.767 939.059 617.673 949.734 605.177 961.578C569.383 995.55 539.18 1033.69 511.586 1074.56C489.199 1107.75 473.322 1142.37 468.896 1181.94C461.087 1251.83 448.982 1321.73 449.633 1391.89C450.414 1468.42 457.443 1544.96 472.932 1620.32C476.967 1639.84 482.825 1659.76 470.46 1681.76C438.831 1695.55 407.98 1702.45 373.488 1707.4C356.567 1696.85 350.321 1681.63 346.286 1665.75C299.819 1479.1 279.514 1290.88 316.479 1099.81C327.543 1042.93 351.233 992.817 398.351 952.077H398.611Z" fill="#3E5B2D"/>
<path d="M471.103 1684.24C470.842 1635.04 452.751 1588.44 449.106 1540.02C448.716 1535.08 445.85 1530.13 446.24 1525.45C450.405 1477.68 434.4 1430.95 438.175 1383.31C441.559 1339.84 446.635 1296.62 451.191 1253.28C455.356 1213.58 457.699 1173.88 467.722 1134.83C470.585 1123.77 474.099 1113.23 479.956 1103.59C521.477 1035.91 570.027 974.085 633.415 921.5C647.473 922.151 655.804 929.83 663.744 937.9C681.836 956.253 703.182 967.838 731.296 971.613C692.899 1007.28 654.632 1044.24 621.181 1084.59C590.073 1122.08 571.59 1166.98 565.602 1217.75C560.656 1259.14 556.489 1300.4 560.003 1341.27C565.73 1408.3 572.241 1475.33 585.387 1541.59C590.463 1567.23 597.618 1592.74 596.967 1622.54C564.817 1645.45 533.45 1666.02 494.402 1677.34C490.367 1678.64 489.066 1679.69 485.682 1681.77C480.215 1683.33 476.96 1683.85 471.103 1684.37V1684.24Z" fill="#4E6F36"/>
<path d="M1585.79 3083.48C1579.15 3070.33 1574.85 3058.88 1568.86 3048.2C1561.05 3034.28 1557.15 3014.75 1532.03 3027.9C1521.62 3033.37 1511.99 3022.56 1504.7 3010.33C1504.18 3005.64 1504.7 3003.17 1505.87 3000.95C1517.15 2980.91 1512.9 2960.69 1493.11 2940.3C1491.16 2959.57 1483.61 2973.23 1463.57 2970.24C1452.37 2968.55 1445.08 2960.48 1444.82 2949.67C1444.43 2927.55 1460.7 2923.77 1479.71 2923.38C1311.54 2680.24 1172.01 2427.08 1153.65 2123.02C1140.64 2123.94 1140.77 2135.26 1135.17 2140.34C1118.12 2156.09 1100.55 2155.3 1087.01 2136.82C1077.77 2124.07 1074.65 2109.49 1078.29 2094C1081.41 2080.72 1090.01 2071.74 1102.76 2067.58C1116.95 2063.02 1126.97 2070.05 1134.65 2081.24C1138.03 2086.19 1141.03 2091.39 1150.01 2096.47C1150.01 2073.82 1148.45 2051.05 1150.4 2028.53C1152.35 2007.18 1149.62 1982.97 1181.51 1976.2C1196.87 1972.95 1191.14 1952.64 1194.65 1936.76C1209.36 1932.34 1218.34 1935.07 1217.95 1953.56C1217.17 1993.77 1217.56 2034.13 1219.25 2074.34C1223.03 2162.98 1243.99 2248.24 1268.72 2332.97C1303.21 2451.42 1340.82 2568.56 1386.64 2683.1C1436.23 2806.89 1507.56 2917.52 1591.13 3020.74C1608.57 3042.35 1626.01 3064.08 1635.64 3090.38C1649.18 3127.21 1655.42 3163.92 1620.02 3196.2C1615.98 3157.67 1610.25 3119.27 1585.65 3083.48H1585.79Z" fill="#EDF0E9"/>
<path d="M456.257 2004.41C458.73 2020.29 463.81 2034.61 469.146 2048.54C497.521 2122.21 523.683 2197.05 556.223 2269.03C599.696 2364.95 649.155 2457.89 700.829 2549.78C745.214 2628.79 796.5 2702.98 853.64 2772.88C919.371 2853.32 985.491 2933.49 1066.58 3000.53C1126.71 3050.38 1189.85 3094.89 1255.97 3135.9C1284.08 3153.34 1314.54 3164.4 1344.21 3177.94C1345.39 3178.46 1346.69 3178.72 1347.73 3179.37C1363.48 3189.78 1370.5 3161.41 1384.17 3170.26C1394.45 3177.02 1389.9 3195.12 1408.25 3199.93C1440.79 3208.26 1474.12 3208.52 1505.48 3203.19C1535.16 3198.11 1562.23 3198.63 1592.17 3209.43C1570.95 3228.18 1544.53 3234.04 1516.15 3233.52C1492.34 3233.13 1468.65 3232.47 1441.45 3231.82C1433.51 3231.56 1429.21 3230.39 1422.83 3228.7C1336.8 3213.86 1258.7 3183.53 1184.25 3142.53C1090.01 3090.6 1002.15 3029.29 925.749 2953.8C851.298 2880.26 788.3 2797.22 734.024 2706.89C619.352 2515.94 532.924 2312.5 458.863 2103.33C449.622 2077.3 443.503 2050.23 434.782 2023.93C428.274 2004.28 438.295 2002.2 456.257 2004.41Z" fill="#758F55"/>
<path d="M1496 1697.01C1503.16 1697.92 1508.49 1698.7 1516.43 1699.87C1527.49 1724.86 1550.79 1727.86 1572.14 1738.27C1573.57 1742.44 1573.57 1744.26 1571.87 1748.55C1541.42 1762.87 1524.63 1790.6 1497.17 1805.3C1393.04 1861.4 1288.13 1829.77 1183.22 1810.51C1173.46 1808.69 1164.99 1802.18 1152.11 1799.84C1141.82 1796.97 1134.93 1793.59 1126.73 1786.95C1118.53 1762.22 1132.19 1754.93 1149.37 1749.07C1142.87 1739.96 1114.23 1738.79 1132.46 1713.67C1137.27 1707.03 1129.98 1702.48 1124.65 1699.35C1097.31 1682.95 1098.49 1658.35 1107.47 1633.49C1112.28 1620.08 1113.45 1606.81 1115.67 1590.41C1157.45 1566.2 1194.67 1574.27 1231.51 1603.04C1239.97 1615.66 1247.39 1624.25 1264.31 1618.91C1290.21 1619.7 1305.31 1635.84 1321.58 1649.37C1366.61 1686.99 1418.42 1700 1478.81 1692.32C1482.98 1691.93 1484.41 1691.67 1487.93 1691.41C1490.66 1694.02 1492.09 1695.84 1496.12 1697.01H1496Z" fill="#586159"/>
<path d="M749.531 1712.87C744.845 1714.95 741.59 1714.95 735.733 1715.08C731.438 1716.64 729.613 1718.2 726.88 1721.33C645.4 1783.02 550.387 1803.98 454.719 1824.94C461.748 1832.88 474.759 1823.9 482.569 1831.45C483.87 1833.53 482.699 1834.96 479.315 1835.61C424.778 1845.63 369.594 1843.29 314.536 1843.55C296.704 1843.55 280.303 1844.07 268.459 1825.59C259.348 1811.4 238.131 1815.04 225.375 1803.07C231.493 1795.91 245.937 1793.7 244.505 1783.54C241.381 1761.29 262.992 1762.2 271.973 1748.66C309.85 1757.64 346.295 1747.1 382.87 1741.76C406.039 1738.38 428.948 1733.17 454.98 1729.27C566.137 1720.03 652.558 1654.82 749.397 1616.03C788.706 1600.28 827.885 1581.54 874.353 1598.98C877.737 1608.35 877.609 1616.16 880.212 1622.93C884.898 1635.03 879.168 1643.62 870.317 1647.92C847.148 1658.85 825.802 1675.12 798.989 1676.68C785.062 1677.46 772.435 1676.16 771.394 1696.6C771.133 1701.68 757.991 1706.1 749.531 1712.74V1712.87Z" fill="#586159"/>
<path d="M397.815 950.251C398.336 975.502 374.904 988.521 362.409 1008.04C333.644 1053.08 326.098 1103.32 317.247 1153.56C304.231 1226.84 306.831 1301.16 310.606 1374.71C314.64 1453.06 325.573 1531.03 342.624 1607.95C349.653 1639.71 357.988 1671.08 370.093 1704.27C354.474 1711.04 343.539 1706.61 340.025 1688.91C338.593 1681.62 335.596 1674.47 332.862 1664.57C328.958 1658.59 328.959 1654.16 327.397 1648.17C305.92 1571.12 279.107 1497.32 268.303 1419.87C252.945 1309.89 244.744 1199.38 271.297 1089.79C287.697 1022.1 323.491 970.166 397.943 950.121L397.815 950.251Z" fill="#758F55"/>
<path d="M1124.52 1781.1C1131.94 1785 1137.92 1787.09 1146.25 1789.95C1184.13 1824.31 1228.52 1828.22 1273.94 1828.35C1311.17 1828.35 1346.7 1838.76 1384.84 1838.76C1463.59 1838.76 1520.33 1805.96 1570.44 1747.52C1572.4 1745.57 1572.4 1745.18 1572.53 1745.31C1588.15 1730.21 1568.5 1718.49 1570.32 1702.74C1576.83 1700.01 1581.77 1699.62 1586.71 1698.71C1597 1696.76 1607.67 1686.86 1617.18 1700.27C1625.77 1712.51 1626.93 1725 1620.68 1739.32C1612.09 1759.36 1598.95 1776.8 1583.2 1790.34C1541.81 1826.27 1500.55 1863.75 1442.24 1870.65C1439.76 1870.91 1437.16 1873.12 1435.08 1872.6C1397.2 1862.32 1358.54 1881.19 1320.67 1869.61C1297.89 1862.71 1273.81 1865.05 1250.25 1860.89C1201.83 1852.43 1156.14 1836.29 1109.81 1821.71C1102.52 1819.37 1094.45 1817.54 1091.58 1810C1075.18 1767.3 1041.48 1730.99 1043.17 1681.79C1043.69 1668.38 1032.75 1662.53 1028.33 1649.64C1040.3 1632.46 1053.19 1619.05 1076.62 1619.7C1087.42 1626.21 1089.76 1635.19 1088.33 1643.78C1081.95 1681.92 1091.71 1718.1 1101.61 1756.37C1104.08 1759.49 1105.12 1760.67 1108.11 1763.4C1115.14 1769 1119.83 1773.42 1124.52 1781.23V1781.1Z" fill="#3F483D"/>
<path d="M1296.05 1091.33C1327.29 1105.13 1330.93 1103.18 1330.41 1075.58C1330.15 1063.35 1327.03 1051.76 1322.6 1037.32C1336.4 1034.45 1336.66 1045.51 1338.74 1055.15C1349.68 1108.25 1351.11 1161.88 1348.51 1216.03C1344.47 1299.2 1324.94 1379.51 1305.29 1459.82C1298.52 1487.8 1291.24 1515.65 1284.47 1543.64C1282.91 1550.28 1280.82 1555.48 1270.8 1552.49C1286.81 1434.04 1295.4 1316.51 1302.95 1199.1C1305.03 1165.39 1300.22 1131.55 1289.41 1095.5C1289.93 1091.98 1291.75 1091.59 1296.31 1091.59L1296.05 1091.33Z" fill="#EDF0E9"/>
<path d="M879.82 1601.34C839.601 1596.13 804.332 1602.77 770.62 1617.61C721.55 1639.35 672.344 1660.17 625.486 1686.86C576.676 1714.71 524.357 1736.19 461.75 1729.81C483.747 1708.99 516.153 1702.08 545.439 1688.81C616.897 1656.53 683.673 1613.97 760.858 1587.68C765.153 1584.42 767.364 1582.73 771.79 1581.56C778.688 1580.91 783.631 1580.13 790.92 1578.56C795.605 1576.35 797.823 1574.92 802.118 1574.14C840.776 1570.89 876.957 1570.49 912.36 1592.36C915.614 1595.35 916.526 1596.92 916.135 1601.08C904.161 1602.77 893.62 1602.12 879.693 1601.47L879.82 1601.34Z" fill="#818A8C"/>
<path d="M1082.98 1621.64C1061.37 1623.34 1051.35 1642.86 1030.52 1645.99C1017.24 1629.06 1030.78 1619.04 1040.8 1609.02C1072.69 1576.87 1109.53 1556.17 1160.42 1563.98C1167.32 1567.24 1171.74 1567.5 1178.38 1568.28C1193.09 1571.92 1205.72 1575.44 1220.82 1579.73C1225.11 1581.29 1226.67 1581.95 1230.44 1584.29C1240.47 1589.24 1248.28 1592.49 1258.43 1596.91C1262.47 1597.96 1264.29 1597.83 1267.02 1600.17C1281.73 1610.06 1295.53 1617.48 1311.41 1626.33C1315.31 1627.89 1317.13 1627.89 1319.87 1630.36C1343.43 1645.07 1364.51 1660.56 1393.54 1665.38C1398.09 1665.9 1399.92 1665.77 1403.56 1667.72C1425.69 1675.01 1445.99 1680.21 1469.16 1685.81C1474.63 1686.46 1476.71 1687.51 1480.09 1690.24C1481.79 1690.89 1481.4 1691.54 1481.4 1691.93C1466.3 1706.9 1449.11 1706.51 1429.2 1703.91C1377.53 1697.4 1333.66 1677.09 1297.35 1639.87C1289.28 1631.67 1278.61 1627.5 1265.2 1623.86C1251.8 1631.93 1243.72 1624.38 1233.96 1616.31C1201.29 1581.43 1162.89 1582.47 1121.11 1592.88C1110.05 1606.55 1097.82 1613.7 1082.98 1621.51V1621.64Z" fill="#818A8C"/>
<path d="M581.73 144.207C581.73 153.578 582.771 160.088 581.209 165.815C577.174 179.873 564.289 183.647 552.704 175.187C537.085 163.732 529.404 115.441 540.858 98.781C547.626 89.0189 555.571 91.2309 562.86 97.9992C575.226 109.584 581.343 124.162 581.863 144.207H581.73Z" fill="#3E5B2D"/>
<path d="M1568.47 1700.36C1572.77 1705.44 1574.33 1709.73 1578.62 1712.99C1591.64 1722.88 1590.47 1733.51 1575.11 1744.88C1565.61 1735.89 1555.33 1736.54 1545.96 1737.59C1521.22 1740.32 1517.19 1726.26 1519.01 1703.36C1534.37 1700.23 1549.73 1700.1 1568.35 1700.36H1568.47Z" fill="#50584D"/>
<path d="M915.861 1605.65C914.82 1601.87 914.691 1600.18 914.691 1596.14C931.092 1596.67 943.586 1603.04 940.202 1624.52C927.577 1624.39 921.461 1616.97 915.734 1605.65H915.861Z" fill="#586159"/>
<path d="M1422.44 3229.36C1425.3 3228.05 1429.86 3228.45 1436.11 3230.27C1433.24 3233.52 1428.56 3233.78 1422.44 3229.36Z" fill="#3F483D"/>
<path d="M326.099 1648.56C328.442 1650.12 330.398 1653.77 332.22 1659.75C328.055 1659.23 325.969 1655.59 326.099 1648.56Z" fill="#50584D"/>
<path d="M1178.78 1566.95C1175.79 1570.47 1171.23 1570.47 1165.25 1566.04C1168.11 1564.61 1172.54 1565 1178.78 1566.95Z" fill="#586159"/>
<path d="M1496.64 1695.81C1497.68 1697.11 1494.03 1697.12 1494.03 1697.12C1494.03 1697.12 1491.17 1694.9 1490.52 1693.34C1492.08 1692.17 1493.91 1693.08 1496.64 1695.94V1695.81Z" fill="#3F483D"/>
<path d="M1480.74 1689.34C1479.44 1690.38 1477.11 1689.86 1473.46 1687.77C1474.76 1686.73 1477.23 1687.25 1480.74 1689.34Z" fill="#3F483D"/>
<path d="M485.156 1682.54C484.635 1680.71 486.199 1679.15 489.973 1677.85C490.624 1679.67 489.061 1681.36 485.156 1682.54Z" fill="#3E5B2D"/>
<path d="M1404.48 1668.07C1403.05 1670.16 1400.84 1669.76 1397.58 1667.16C1398.75 1666.12 1401.09 1666.25 1404.48 1668.07Z" fill="#50584D"/>
<path d="M1320.67 1631.13C1318.85 1632.7 1317.03 1631.92 1314.55 1629.05C1316.25 1626.45 1318.46 1626.97 1320.67 1631.13Z" fill="#586159"/>
<path d="M1267.69 1600.96C1266 1602.65 1264.18 1601.87 1261.7 1599.26C1263.27 1596.53 1265.48 1596.92 1267.69 1600.96Z" fill="#586159"/>
<path d="M1231.51 1584.14C1229.69 1586.35 1227.35 1585.7 1224.35 1582.18C1225.78 1581.14 1228.12 1581.79 1231.51 1584.14Z" fill="#586159"/>
<path d="M771.636 1581.4C771.636 1583.22 769.427 1584.79 765.262 1586.35C765.262 1584.66 767.471 1582.83 771.636 1581.4Z" fill="#3F483D"/>
<path d="M802.101 1573.97C801.84 1575.79 799.497 1576.97 795.332 1578.01C795.592 1576.32 797.805 1574.88 802.101 1573.97Z" fill="#3F483D"/>
<path d="M1146.52 2506.34C1140.28 2502.04 1135.72 2499.18 1133.25 2495.15C1127.26 2485.39 1128.95 2475.62 1136.63 2467.68C1144.44 2459.48 1154.46 2458.57 1164.22 2463.78C1173.98 2468.98 1179.84 2478.88 1175.55 2488.77C1168.52 2504.91 1170.34 2513.5 1188.56 2518.45C1197.02 2520.66 1204.18 2530.68 1201.06 2539.14C1193.9 2558.27 1199.23 2565.17 1218.5 2571.68C1238.41 2578.32 1246.88 2602.92 1238.68 2618.15C1231.52 2631.42 1219.41 2637.8 1204.18 2635.33C1184.53 2632.08 1167.22 2610.73 1172.94 2591.07C1177.89 2574.28 1179.32 2565.82 1160.97 2557.1C1148.86 2551.38 1149.13 2536.54 1157.59 2524.17C1161.49 2518.45 1170.6 2517.15 1171.39 2508.68C1163.71 2502.7 1156.15 2509.85 1146.52 2506.34Z" fill="#EDF0E9"/>
<path d="M1162.77 2388.54C1167.07 2396.22 1171.1 2401.56 1172.14 2407.29C1175.91 2428.37 1169.67 2442.56 1154.31 2447.37C1138.17 2452.45 1124.89 2446.99 1115.13 2433.45C1104.46 2418.74 1104.2 2396.35 1115.13 2384.9C1127.24 2372.27 1141.03 2371.49 1155.22 2381.65C1157.17 2383.08 1158.99 2384.9 1162.64 2388.54H1162.77Z" fill="#EDF0E9"/>
<path d="M1329.77 2787.46C1352.68 2776.53 1366.21 2786.16 1374.28 2803.73C1380.53 2817.27 1377.53 2831.33 1364.39 2840.05C1351.24 2848.77 1337.84 2845.64 1327.3 2834.58C1313.11 2819.74 1311.67 2804.12 1329.63 2787.46H1329.77Z" fill="#EDF0E9"/>
<path d="M1138.43 2278.42C1141.29 2288.7 1139.6 2295.99 1134.01 2301.59C1125.28 2310.31 1115.39 2313.43 1103.94 2305.88C1092.48 2298.33 1090.92 2287.66 1095.74 2276.6C1100.82 2265.01 1110.84 2260.85 1123.46 2264.49C1129.84 2266.31 1134.13 2270.61 1138.43 2278.55V2278.42Z" fill="#EDF0E9"/>
<path d="M1383.78 2850.46C1406.16 2858.53 1417.1 2877.28 1431.81 2891.86C1436.36 2896.41 1437.79 2903.05 1432.07 2908.13C1429.72 2910.21 1424.12 2911.9 1422.17 2910.6C1403.17 2897.32 1383.91 2883.79 1375.97 2860.49C1375.19 2858.27 1379.35 2854.37 1383.9 2850.46H1383.78Z" fill="#EDF0E9"/>
<path d="M1089.49 2198.25C1088.71 2185.24 1093.78 2180.16 1104.58 2183.54C1109.92 2185.23 1111.87 2190.96 1110.05 2195.26C1106.14 2204.37 1099.77 2208.54 1089.62 2198.12L1089.49 2198.25Z" fill="#EDF0E9"/>
<path d="M879.943 1226.87C814.863 1192.64 752.518 1194.07 689.78 1225.44C679.368 1230.65 667.649 1244.84 656.325 1234.55C643.96 1223.23 656.323 1208.39 661.009 1196.55C679.101 1150.47 732.994 1117.28 784.147 1118.71C831.004 1120.01 884.497 1157.63 901.418 1201.1C908.707 1219.84 907.146 1222.19 879.943 1227V1226.87Z" fill="#2B2A28"/>
<path d="M840.886 1395.69C836.721 1421.59 826.827 1441.63 810.037 1457.51C784.655 1481.46 753.027 1477.68 732.722 1449.18C700.833 1404.27 705.521 1314.33 741.836 1272.68C768.649 1241.83 795.72 1243.14 827.088 1279.19C827.479 1283.22 826.567 1284.79 823.313 1287.52C802.097 1289.99 778.932 1283.09 774.376 1312.12C771.252 1331.77 767.868 1352.73 783.878 1368.22C804.052 1387.87 815.893 1358.98 835.548 1358.2C845.7 1369.52 841.273 1381.5 840.753 1395.69H840.886Z" fill="#2B2A28"/>
<path d="M1218.88 1403.22C1215.5 1427.95 1205.99 1446.95 1191.16 1462.7C1166.56 1488.87 1135.32 1486.26 1115.02 1456.59C1098.88 1433.03 1094.84 1405.95 1095.23 1377.84C1095.75 1344.78 1100.7 1312.89 1121.13 1285.68C1144.56 1254.32 1167.99 1252.49 1201.57 1280.35C1204.44 1286.34 1204.04 1289.72 1198.97 1294.15C1182.05 1297.66 1165.52 1295.58 1157.71 1312.76C1148.86 1332.15 1145.21 1353.24 1160.18 1369.64C1181.92 1393.46 1194.02 1360.79 1214.19 1358.57C1223.7 1372.63 1219.28 1386.69 1218.88 1403.22Z" fill="#2B2A28"/>
<path d="M1118.9 1153.57C1183.72 1123.24 1254.4 1153.7 1273.53 1217.35C1275.88 1225.16 1276.92 1232.32 1269.37 1237.52C1263.64 1241.43 1257.39 1240.26 1251.54 1237C1250.5 1236.35 1249.32 1235.83 1248.28 1235.05C1195.44 1189.37 1139.47 1198.74 1082.59 1225.94C1076.08 1229.07 1069.06 1235.31 1062.68 1226.98C1058.38 1221.38 1062.42 1215.01 1064.89 1209.28C1075.3 1184.81 1097.43 1171.53 1118.9 1153.57Z" fill="#2B2A28"/>
<path d="M1128.54 1040.87C1145.85 1048.55 1160.82 1054.8 1175.26 1062.08C1180.73 1064.82 1185.94 1069.63 1182.29 1077.05C1179.3 1083.3 1173.05 1086.29 1166.67 1084.34C1152.48 1079.79 1138.43 1074.71 1124.89 1068.46C1096.52 1055.45 1069.96 1039.05 1044.84 1020.43C1036.77 1014.45 1027.27 1007.42 1036.12 996.223C1043.93 986.201 1051.61 994.791 1058.77 999.086C1081.16 1012.62 1103.54 1026.16 1128.41 1040.87H1128.54Z" fill="#EDF0E9"/>
<path d="M841.668 1395.95C837.373 1386.84 842.054 1374.34 833.463 1361.33C816.152 1339.59 821.492 1315.9 820.32 1290.78C822.403 1286.62 823.313 1285.31 826.307 1282.84C839.323 1290.78 845.962 1302.5 846.092 1316.55C846.352 1342.19 849.865 1367.96 841.535 1395.95H841.668Z" fill="#3F483D"/>
<path d="M1219.66 1403.47C1214.97 1391.89 1220.69 1376.79 1211.19 1361.17C1197.26 1346.72 1199.35 1331.75 1202.34 1313.79C1204.56 1308.98 1205.73 1307.15 1210.02 1304.55C1232.28 1334.62 1225.12 1367.94 1219.66 1403.47Z" fill="#3F483D"/>
<path d="M1017.65 1051.68C1015.05 1056.63 1012.96 1060.14 1009.84 1061.44C1000.47 1065.48 992.265 1063.66 991.484 1052.07C990.964 1042.44 999.296 1040.75 1006.85 1040.88C1011.92 1040.88 1015.82 1044 1017.52 1051.55L1017.65 1051.68Z" fill="#EDF0E9"/>
<path d="M1056.82 1059.99C1066.84 1068.84 1066.71 1075.87 1055.65 1080.29C1051.23 1082.11 1044.98 1081.33 1043.02 1076.39C1038.86 1065.85 1044.33 1060.51 1056.82 1060.12V1059.99Z" fill="#EDF0E9"/>
<path d="M1297.88 1089.53C1296.97 1092 1295.28 1092.52 1290.72 1092.52C1280.96 1078.07 1273.54 1064.01 1269.5 1039.15C1287.34 1056.85 1286.3 1075.73 1297.88 1089.53Z" fill="#818A8C"/>
<path d="M1193.24 1294.18C1196.36 1290.01 1198.57 1288.32 1201.96 1284.68C1208.86 1286.63 1210.29 1293.01 1212.5 1301.47C1211.98 1304.72 1210.81 1305.63 1207.94 1307.97C1198.57 1308.37 1194.28 1303.81 1193.24 1294.18Z" fill="#3F483D"/>
<path d="M1356.06 3124.34C1357.75 3134.49 1352.93 3136.45 1346.03 3134.37C1342.26 3133.32 1339.78 3129.42 1341.6 3126.04C1344.21 3121.22 1349.29 3120.96 1356.06 3124.34Z" fill="#679441"/>
<path d="M748.098 1714.97C749.009 1716.01 749.916 1717.18 750.958 1718.22C750.307 1717.83 749.657 1717.44 748.485 1716.01C748.095 1714.97 748.098 1714.97 748.098 1714.97Z" fill="#50584D"/>
<path d="M727.265 1721.86C726.223 1720.17 727.526 1718.09 731.561 1715.88C732.472 1717.57 731.039 1719.52 727.265 1721.86Z" fill="#50584D"/>
<path d="M1569.66 1745.68C1572.27 1748.02 1572.79 1750.75 1572.01 1752.97C1564.33 1775.35 1510.84 1827.03 1489.23 1827.16C1464.5 1827.29 1449.4 1852.54 1426.88 1849.41C1405.54 1846.42 1386.01 1844.86 1364.27 1849.15C1344.62 1853.19 1321.84 1857.74 1303.36 1840.3C1296.59 1833.79 1286.57 1836.14 1277.85 1836.01C1265.22 1835.75 1252.73 1835.88 1240.1 1836.01C1203.66 1836.4 1170.2 1830.02 1148.86 1793.31C1158.75 1789.8 1167.99 1792.92 1177.37 1797.35C1215.5 1814.92 1256.5 1819.09 1297.89 1820.91C1327.83 1822.21 1357.77 1818.83 1387.57 1827.16C1402.54 1831.32 1420.11 1831.58 1435.73 1824.42C1462.93 1812.06 1488.71 1796.83 1516.95 1786.29C1531.53 1780.82 1512.92 1777.31 1511.61 1769.63C1530.49 1764.16 1549.36 1756.22 1569.8 1745.81L1569.66 1745.68Z" fill="#50584D"/>
<path d="M1080.4 1625.53C1085.73 1606.13 1100.7 1601.97 1116.45 1595.33C1125.56 1608.21 1130.12 1620.45 1117.62 1633.21C1106.43 1644.53 1110.99 1659.37 1111.77 1672.77C1112.68 1689.17 1126.22 1690.74 1138.84 1693.6C1148.6 1695.81 1153.42 1704.53 1153.16 1713.51C1152.77 1726.53 1138.32 1719.11 1132.59 1725.23C1134.15 1732.13 1141.31 1733.69 1145.61 1737.98C1149.12 1741.5 1153.29 1744.23 1157.19 1747.48C1146.78 1757.64 1132.85 1764.02 1126.48 1780.68C1119.32 1779.5 1112.68 1775.86 1104.61 1770.13C1098.75 1762.32 1080.27 1766.23 1090.42 1749.44C1092.37 1746.32 1090.42 1739.55 1088.47 1735.51C1072.46 1704.66 1075.84 1672.39 1080.79 1639.85C1081.31 1636.2 1080.79 1632.42 1080.79 1625.53H1080.4Z" fill="#50584D"/>
<path d="M1232.67 1616.58C1240.87 1616.71 1249.07 1619.83 1259.87 1623.35C1250.89 1633.76 1240.22 1636.75 1232.67 1616.58Z" fill="#50584D"/>
<path d="M819.014 1286.22C832.16 1308.35 834.632 1330.21 830.988 1356.25C826.823 1365.62 823.569 1372.91 818.232 1377.85C801.442 1393.34 782.831 1390.74 771.246 1370.69C757.84 1347.39 757.971 1322.41 768.774 1298.2C778.796 1275.68 790.119 1273.07 819.275 1286.22H819.014Z" fill="#EDF0E9"/>
<path d="M1191.66 1291.14C1197.13 1296.61 1200 1301.56 1204.55 1307.93C1208.59 1323.94 1210.67 1338.39 1208.45 1356.35C1191.53 1389.02 1181.64 1395.92 1165.24 1390.19C1149.88 1384.86 1141.55 1366.37 1142.2 1339.69C1143.11 1302.73 1155.61 1289.58 1191.66 1291.27V1291.14Z" fill="#EDF0E9"/>
<path d="M1109.01 1717.56C1112.66 1716.52 1113.96 1717.56 1112.79 1719.64C1112.53 1720.03 1109.79 1718.99 1109.01 1717.56Z" fill="#586159"/>
<path d="M1103.29 1767.95C1104.2 1768.6 1103.16 1763.13 1104.33 1767.69C1103.29 1768.21 1103.42 1767.82 1103.29 1767.95Z" fill="#586159"/>
</svg>
