<svg width="100" height="202" viewBox="0 0 100 202" fill="none" xmlns="http://www.w3.org/2000/svg">
<path d="M32.2109 165.854C32.617 164.469 33.671 163.497 34.8028 163.021C35.9345 162.535 37.1528 162.482 38.345 162.418C41.2565 162.281 44.1683 162.143 47.0797 162.006C49.4469 161.89 51.9954 161.699 53.8356 159.881C55.1747 158.56 55.9349 156.54 56.3409 154.5C56.747 152.46 56.8508 150.345 57.11 148.263C57.5333 144.922 58.3972 141.655 59.6499 138.632C60.3238 137.004 61.4554 135.238 62.9327 135.46C63.8744 135.608 64.6174 136.581 64.9457 137.67C65.274 138.759 65.2482 139.953 65.2136 141.116C64.9372 148.844 63.7968 156.53 61.8443 163.898C61.4469 165.41 60.9717 166.964 60.0127 168.032C58.8809 169.29 57.2741 169.628 55.7622 169.882C49.9738 170.876 44.1506 171.499 38.3104 171.753C37.4205 171.795 36.505 171.816 35.6929 171.383C33.8095 170.368 33.2995 167.461 32.2109 165.865V165.854Z" fill="#3B5B33" stroke="#231F20" stroke-width="5" stroke-miterlimit="10"/>
<path d="M14.8385 180.406C14.5927 178.318 15.0857 175.59 15.6077 173.246C15.9589 171.668 16.6167 169.972 17.093 168.421C17.2469 167.92 18.2066 166.516 18.9682 165.828C19.5238 165.511 20.509 165 21.5949 164.883C23.7591 164.642 26.3519 164.772 28.2748 165.701C28.7197 165.915 29.0387 166.208 29.1082 166.208C29.1082 166.3 29.6566 167.032 29.8027 166.969C29.9416 166.716 30.4972 166.082 30.7056 165.955C31.4672 165.769 32.7367 166.039 33.1364 166.652C33.536 167.265 33.7581 167.705 33.8411 168.421C33.7615 169.632 33.3906 172.38 33.692 172.802C33.4356 174.22 32.5808 176.099 31.6466 176.358C31.6085 176.479 30.775 177.303 29.7333 176.986C29.3412 177.166 29.0904 177.675 28.7609 177.937C28.3085 178.295 28.0871 178.453 27.6497 178.825C27.4413 179.002 25.8767 179.689 25.2885 179.586C27.8581 181.488 28.4321 184.237 28.5528 186.433C28.6052 187.387 28.2888 188.456 27.9277 189.35C27.4575 190.514 26.8916 191.28 25.983 192.203C25.2365 192.953 24.3452 193.394 23.2744 193.154C22.3771 192.954 20.8354 191.189 20.6353 190.935C19.7379 189.792 19.1591 189.155 18.2542 188.005C17.2664 186.746 16.36 185.512 15.704 184.087C15.3137 183.24 14.8462 180.6 14.8462 180.413L14.8385 180.406Z" fill="white"/>
<path d="M33.4342 173.594C33.2381 174.771 32.4992 175.872 31.436 176.567C31.1871 176.733 30.9154 176.877 30.6138 176.925C30.3122 176.974 29.9805 176.912 29.7618 176.712C29.4225 176.395 29.4979 175.886 29.5884 175.459C29.792 174.53 29.9956 173.608 30.1992 172.678C30.3726 171.9 30.5461 171.109 30.433 170.317C30.335 169.58 29.9955 168.885 29.8748 168.149C29.7542 167.412 29.9351 166.552 30.6138 166.153C31.1567 165.836 31.9034 165.891 32.4463 166.214C32.9892 166.538 33.336 167.075 33.517 167.639C33.698 168.204 33.7131 168.803 33.7055 169.395C33.6904 170.827 33.6453 172.272 33.4191 173.601L33.4342 173.594Z" stroke="#231F20" stroke-width="2.15" stroke-miterlimit="10"/>
<path d="M29.587 177.031C28.7576 178.133 27.5133 178.966 26.1183 179.351C24.7157 179.737 23.1776 179.675 21.8203 179.179" stroke="#231F20" stroke-width="2.15" stroke-miterlimit="10"/>
<path d="M25.6303 179.904C27.342 181.487 28.3749 183.669 28.4503 185.892C28.5257 188.116 27.6586 190.353 26.06 192.033C25.3964 192.735 24.4161 193.382 23.4358 193.134C22.9608 193.017 22.5761 192.707 22.2293 192.39C21.2867 191.537 20.465 190.58 19.6431 189.63C18.1877 187.944 16.7095 186.223 15.8499 184.22C14.9375 182.099 14.7566 179.759 14.9828 177.48C15.209 175.209 15.8122 172.985 16.4155 170.769C16.9584 168.766 17.6825 166.549 19.6431 165.537C20.8722 164.897 22.365 164.87 23.7827 164.911C24.8761 164.945 25.9848 165.007 27.0254 165.31C28.066 165.613 29.0536 166.184 29.6418 167.024L29.6797 167.079" stroke="#231F20" stroke-width="2.15" stroke-miterlimit="10"/>
<path d="M22.6632 165.168C20.6875 166.194 19.3605 168.059 18.6366 170.021C17.9127 171.99 17.7242 174.082 17.5508 176.154" stroke="#231F20" stroke-miterlimit="10"/>
<path d="M25.1378 192.506C23.049 191.232 21.4127 189.422 20.0327 187.508C19.1052 186.228 18.2755 184.872 17.7477 183.419C17.2123 181.96 16.9937 180.39 17.2878 178.883" stroke="#231F20" stroke-miterlimit="10"/>
<path d="M78.6833 185.552C75.275 184.657 71.7737 184.592 68.765 186.306C68.4534 187.7 67.8702 189.286 67.654 190.744C67.3883 192.535 67.1128 195.071 67.376 195.943C67.3609 197.003 67.6277 198.397 68.4874 199.113C69.2942 199.788 69.4081 200.014 70.5015 200.001C72.4093 199.978 74.3885 199.601 76.4743 199.494C80.0605 199.309 86.8864 199.858 87.2394 199.557C87.8587 199.667 92.153 199.537 94.0457 198.099C96.0892 196.55 96.7056 193.324 95.6123 191.114C94.5264 188.898 92.4876 187.254 89.8785 186.813C87.2695 186.373 82.6556 187.194 81.6832 187.955C80.997 188.257 79.9469 188.689 79.5431 188.581C78.9248 188.416 78.4875 187.872 78.3291 187.301C78.1708 186.73 78.2537 186.124 78.676 185.545L78.6833 185.552Z" fill="white"/>
<path d="M79.8216 185.449C79.5275 185.759 78.9995 185.793 78.5697 185.67C78.1399 185.546 77.7628 185.305 77.348 185.139C75.9983 184.596 74.4375 184.905 73.035 185.318C71.6324 185.731 70.1922 186.241 68.7293 186.069C68.1788 186.007 67.613 185.821 67.2812 185.422C66.8966 184.961 66.8969 184.293 67.191 183.783C67.4851 183.274 68.0128 182.902 68.5934 182.668C69.1741 182.434 69.8001 182.324 70.4259 182.221C71.5947 182.021 72.7557 181.815 73.9245 181.615C75.0179 181.422 76.1342 181.236 77.2427 181.36C78.3512 181.484 79.4594 181.98 80.0024 182.868C80.5227 183.715 80.4096 184.837 79.8289 185.449H79.8216Z" fill="white" stroke="#231F20" stroke-width="2.15" stroke-miterlimit="10"/>
<path d="M68.879 186.48C67.8535 189.998 66.8206 193.667 67.6124 197.233C67.7783 197.99 68.0572 198.768 68.6831 199.284C69.2562 199.752 70.0554 199.945 70.8245 199.959C71.5937 199.972 72.3553 199.828 73.1169 199.725C78.8101 198.926 84.6615 200.048 90.3547 199.236C91.795 199.029 93.2807 198.671 94.3515 197.777C95.2715 197.006 95.8066 195.897 95.9951 194.768C96.5154 191.746 94.5322 188.511 91.4405 187.334C90.0229 186.797 88.462 186.659 86.9312 186.742C84.9104 186.845 82.8897 187.313 81.1554 188.27C79.421 189.227 77.9958 190.686 77.3247 192.435" stroke="#231F20" stroke-width="2.15" stroke-miterlimit="10"/>
<path d="M76.0073 180.758C74.0054 180.971 72.0108 181.185 70.0088 181.398C72.4323 174.059 75.33 166.992 78.6716 160.274C79.3941 158.818 80.1616 157.051 79.6197 155.469C79.1305 154.052 77.8211 153.518 76.6846 153.003C73.4408 151.537 70.4908 148.994 68.2104 145.683C67.5631 144.742 66.9533 143.703 66.7125 142.48C66.4792 141.257 66.705 139.81 67.4802 139.053C68.7295 137.83 70.5057 138.898 71.8378 139.975C75.789 143.179 79.7476 146.382 83.6988 149.596C84.888 150.557 86.1752 151.712 86.4462 153.479C86.6795 155.022 86.0546 156.547 85.4525 157.915C82.1636 165.4 78.8671 172.875 75.9996 180.768L76.0073 180.758Z" fill="#3B5B33" stroke="#231F20" stroke-width="5" stroke-miterlimit="10"/>
<path d="M72.0703 170.768C64.6503 167.63 57.9916 163.699 52.1929 158.667C47.4196 154.53 43.4459 149.773 40.0752 144.576C32.4214 132.784 26.3963 120.359 22.2188 107.198C21.9096 106.213 21.4874 105.656 20.2357 105.456C13.9694 104.458 8.72886 101.767 4.7851 97.1476C1.85179 93.7057 -0.101491 89.9128 0.00407822 85.4315C0.0417815 83.7313 0.592455 82.1619 1.53504 80.6957C1.8065 80.2689 2.12321 79.9453 2.85465 79.9659C3.28447 83.1669 4.57377 86.0236 7.60511 87.8684C10.3499 89.5411 13.4191 90.4566 16.9934 90.5874C16.2996 88.4191 15.7187 86.4434 15.0401 84.5022C12.6949 77.7768 11.5563 70.9002 11.8504 63.8444C11.9861 60.5747 12.3784 57.3462 13.9318 54.3174C15.5531 51.1509 18.0639 48.8999 21.6382 47.6127C25.22 46.3254 28.8622 45.3204 32.6325 44.4806C38.9138 43.0832 44.4414 40.0475 49.1468 35.9035C50.9867 34.2859 51.6049 32.1243 51.9819 29.9697C52.8038 25.2269 52.3287 20.5529 50.7451 15.9615C49.1842 11.4458 46.1833 10.1792 41.1838 10.5647C39.0951 10.7299 37.0514 11.3288 34.9702 11.6592C29.8576 12.4784 28.4702 9.92444 29.0131 6.03516C29.2243 4.51387 30.0837 3.30248 31.4561 2.39383C32.5872 1.64351 33.794 1.03766 35.1664 0.748541C43.3254 -0.958611 50.9488 0.25295 57.9691 4.39692C59.8241 5.49143 61.2646 7.04022 62.2976 8.83686C64.1149 11.9965 65.2986 15.3075 65.3062 18.9421C65.3137 22.3495 65.0044 25.7294 64.6198 29.1093C64.2353 32.441 64.3636 35.7589 64.7557 39.0768C65.1629 42.4498 66.9802 44.9142 70.4112 46.3253C71.7384 46.8691 73.0806 47.3924 74.4002 47.9431C77.507 49.2441 79.4828 51.3023 80.2369 54.455C81.2398 58.6196 81.1868 62.7842 80.7796 66.9695C80.2894 72.1047 78.555 76.999 77.2957 81.9897C77.1826 82.444 77.1223 82.919 76.9489 83.3527C76.5794 84.2613 77.0773 84.7156 77.8992 85.0529C80.1538 85.9753 82.3631 87.0285 84.678 87.7995C87.6038 88.777 90.5296 88.777 93.2217 87.0148C94.3829 86.2576 95.205 85.2664 95.8233 84.1099C96.9167 82.0724 97.6105 79.9109 98.1157 77.7081C98.9527 77.7494 99.1487 78.2519 99.3297 78.7544C100.167 81.0949 100.197 83.4904 99.5484 85.8446C98.5907 89.2934 96.977 92.4942 94.6469 95.3646C91.5025 99.2402 87.2042 101.457 82.069 102.317C79.5731 102.737 77.0772 103.37 74.4908 103.047C73.6689 102.944 73.5103 103.302 73.4952 103.955C73.4273 108.155 73.4125 112.367 74.521 116.47C76.9415 125.384 79.8823 134.154 83.8411 142.614C86.5256 148.355 90.3033 153.47 94.6392 158.268C96.4791 160.305 97.9194 162.494 98.221 165.193C98.5151 167.795 97.5652 169.874 95.2578 171.464C92.0756 173.653 88.4182 173.962 84.6479 173.701C80.3271 173.405 76.2174 172.283 72.0475 170.782L72.0703 170.768Z" fill="#2B2A28"/>
<path d="M41.4793 104.025C44.4352 103.109 47.3688 102.545 50.0457 101.237C52.8207 99.8878 55.6258 98.6143 57.1942 95.7852C60.859 98.5937 64.6443 100.79 69.1083 102.166C69.9303 103.226 69.6438 104.176 68.7766 104.748C67.2534 105.753 67.0119 107.081 67.1024 108.609C67.1326 109.139 67.1326 109.676 67.0045 110.2C66.7933 111.067 66.3635 111.377 65.5416 110.647C64.961 110.131 64.3274 109.518 63.5055 110.262C62.7891 110.915 62.8344 111.721 63.3925 112.451C64.0711 113.325 64.795 113.015 65.6396 112.533C66.929 111.804 67.3665 112.093 67.5174 113.772C67.9472 118.701 68.9121 123.533 70.8425 128.159C74.2207 136.254 78.2176 144.06 83.8203 151.109C84.1597 151.543 84.4461 152.025 84.8457 152.397C86.2408 153.698 85.9316 154.875 84.0766 156.224C85.7506 156.127 86.9422 154.696 87.9677 156.272C88.6614 157.346 88.2088 158.165 87.3793 159.094C85.1548 160.003 83.2395 159.142 81.3619 158.516C75.1031 156.416 70.2999 152.507 65.9113 148.074C61.4548 143.578 57.3147 138.856 53.9817 133.611C51.1314 129.13 48.7863 124.387 46.8483 119.52C45.1592 115.273 43.4474 111.033 41.6678 106.82C41.3059 105.952 40.831 105.092 41.487 104.032L41.4793 104.025Z" fill="#679441"/>
<path d="M73.6456 81.8772C70.9989 81.12 68.4729 80.3146 65.7206 80.2871C62.365 80.2595 59.831 81.4779 58.2249 84.2038C58.0891 84.431 57.9234 84.6445 57.6821 85.0093C56.2193 83.9699 54.7262 83.0956 53.1125 82.3797C49.5457 80.7965 45.9866 80.7345 42.4274 82.3591C39.8938 83.5155 37.3978 84.727 34.7285 85.9523C34.2836 85.7596 34.11 85.4636 34.0421 85.1332C32.6924 78.2013 31.0561 71.297 32.1872 64.1724C32.6999 60.9578 34.1024 58.163 36.621 55.912C38.3704 54.3494 39.7656 52.3945 42.2993 51.4514C43.5209 51.3964 44.516 51.5547 45.451 51.9539C46.8234 52.539 47.1326 53.2618 46.552 54.5146C46.3559 54.9414 46.092 55.3407 45.8432 55.7468C45.3757 56.5178 45.5869 57.1579 46.2957 57.681C46.9216 58.1422 47.4493 57.8944 48.0601 57.5365C51.3478 55.5884 54.8014 53.8675 57.6442 51.3481C58.632 50.4738 59.7483 50.6322 60.902 50.8938C63.4508 51.4789 65.8335 52.484 68.1787 53.5165C70.6068 54.5835 73.0197 55.3062 75.7042 54.4182C75.8852 54.3562 76.1265 54.4732 76.4583 54.604C77.2953 55.375 77.3858 56.2424 77.4462 57.1029C77.514 58.1492 77.0916 58.7962 75.6136 58.4176C74.6334 57.5778 74.3093 56.559 73.7815 55.6504C73.6382 55.4232 73.4271 55.7811 73.6534 55.6159C74.2943 56.4006 74.5127 57.3851 75.2215 58.3213C75.9454 59.9941 76.0208 61.5909 75.9303 63.188C75.5759 69.4108 75.35 75.6544 73.6232 81.891L73.6456 81.8772Z" fill="#679441"/>
<path d="M93.7182 168.925C93.4769 169.497 92.9942 169.579 92.4815 169.813C89.5104 169.407 86.6978 170.075 83.8701 169.958C82.5429 169.903 81.2308 169.862 80.243 168.87C79.9866 168.609 79.6776 168.464 79.278 168.492C76.865 168.65 74.9268 167.487 72.9888 166.475C64.6715 162.124 57.6662 156.411 51.498 149.686C44.9376 142.533 39.7496 134.665 35.0367 126.426C31.7414 120.664 29.4415 114.572 26.7721 108.597C26.4479 107.86 26.1011 107.103 26.4857 106.153C28.9666 105.843 31.3719 105.899 33.9207 105.465C35.7606 107.131 36.7109 109.182 37.5253 111.213C40.0665 117.546 43.5578 123.445 46.936 129.413C51.5358 137.543 57.5532 144.654 64.7847 150.959C71.2093 156.555 78.863 160.114 87.316 162.358C88.6658 162.716 90.0836 162.42 91.5993 162.765C93.7408 164.437 94.0574 166.509 93.7105 168.925H93.7182Z" fill="#3E5B2D"/>
<path d="M65.1542 44.7834C66.9715 46.3528 68.8564 47.6264 70.8999 48.6521C72.4684 49.4437 73.7654 50.4555 74.8739 51.8391C73.6825 52.8579 72.4384 52.6859 71.0962 52.1284C68.2458 50.9444 65.433 49.6571 62.4167 48.8311C61.5797 48.6039 60.7505 48.363 59.8607 48.3217C58.4808 48.2528 57.3042 48.5625 56.241 49.4161C54.2201 51.0337 52.2594 52.7341 49.9294 53.8355C49.5599 53.808 49.4092 53.6703 49.3715 53.4638C48.9191 50.6483 46.6795 49.6019 44.0176 49.2509C42.3511 49.0306 40.9637 48.5902 39.7572 47.4957C39.1012 46.9037 38.2115 46.5181 37.4273 46.0431C37.3594 45.4167 37.9624 45.4993 38.3017 45.3754C43.3615 43.5857 47.5768 40.66 51.3546 37.1838C53.5716 35.1462 54.3255 32.4272 54.6272 29.7151C55.1701 24.924 54.9591 20.1468 53.3153 15.4866C52.3652 12.8019 50.9777 10.4132 48.067 9.14656C45.0508 7.83867 41.8684 7.88003 38.6637 8.52021C38.5958 8.53398 38.5281 8.56846 38.4527 8.58222C37.6006 8.72678 36.726 9.33241 35.9342 8.96069C35.1349 8.58897 35.587 7.63219 35.4136 6.94382C35.1271 5.82867 34.358 4.94078 33.7773 3.95641C34.6445 3.08907 35.7834 2.98571 36.8164 2.81362C43.2863 1.726 49.4318 2.48317 55.1853 5.53953C57.7416 6.89561 59.5664 8.78863 60.7805 11.2323C62.1906 14.0753 62.7788 17.0284 62.7109 20.1536C62.6204 24.0222 62.1528 27.8564 61.8814 31.7044C61.625 35.3321 62.2961 38.8635 63.4046 42.326C63.6911 43.2278 64.3548 43.9711 65.1616 44.7627L65.1542 44.7834Z" fill="#679441"/>
<path d="M91.8042 162.822C87.8077 163.648 84.324 162.065 80.8176 160.874C77.8466 159.862 75.0488 158.423 72.3116 156.916C69.8081 155.539 67.5231 153.907 65.374 152.138C61.3171 148.8 57.7429 145.021 54.2817 141.179C52.2533 138.935 50.5569 136.43 49.0714 133.848C47.141 130.496 44.8333 127.336 43.1291 123.874C41.078 119.709 38.5824 115.731 37.0517 111.339C36.373 109.398 35.1513 107.608 34.1484 105.605C36.5011 104.93 38.869 104.407 41.4177 103.891C41.3348 105.797 42.4505 107.394 43.1593 109.019C44.3809 111.793 45.5723 114.574 46.5828 117.417C47.8873 121.086 49.8556 124.5 51.4768 128.045C53.3469 132.134 56.0916 135.707 58.7535 139.348C60.4426 141.668 62.5011 143.74 64.522 145.819C66.2111 147.554 67.7569 149.426 69.7099 150.934C71.8062 152.565 73.6612 154.506 76.1496 155.656C79.4977 157.212 82.7552 159.07 86.9101 159.077C87.5209 159.166 87.8756 159.538 88.2828 159.518C90.7712 159.373 91.3668 160.956 91.8042 162.822Z" fill="#4E6F36"/>
<path d="M54.2961 85.8714C54.1981 86.4496 54.0172 86.8832 53.8664 87.3237C53.414 88.6729 53.4894 89.1411 54.7788 89.7881C55.563 90.1874 55.4651 90.5247 55.4047 91.1855C55.1936 93.3677 53.7686 94.6825 51.7854 95.5016C50.4959 96.0317 50.0282 97.1881 48.965 97.9109C45.7451 100.086 42.2766 101.642 38.3554 102.275C34.2533 102.943 30.1434 102.764 26.0036 102.378C22.6857 102.069 19.4662 101.27 16.1407 100.974C14.4215 100.823 12.6116 100.341 10.8998 99.8175C10.4926 99.6936 10.0479 99.5423 9.73117 99.2876C7.22014 97.2294 5.18397 94.8889 4.25647 91.8326C4.00009 90.9928 4.09832 90.4008 4.84485 89.9258C5.62154 89.437 6.35276 89.4301 7.25764 89.912C9.76867 91.2474 12.453 92.2043 15.605 92.3282C15.8086 93.6361 14.3384 94.1798 14.1046 95.1986C18.1162 98.31 22.8667 96.3895 26.7878 96.892C26.8029 96.892 26.2978 97.0022 25.5286 96.3345C30.9805 94.7995 36.5379 94.0354 41.2885 91.0203C41.5977 90.8551 41.7713 90.7587 42.0805 90.6073C42.3972 90.4765 42.5858 90.4352 42.9251 90.4489C43.2418 90.5591 43.3248 90.6829 43.3022 90.8688C43.3474 90.7036 43.332 90.5384 43.332 90.2562C44.2519 88.9276 45.3454 88.1979 47.0195 87.957C48.9348 87.6747 50.5786 86.8075 50.7596 84.5703C51.4005 84.2192 51.9284 84.233 52.6297 84.4602C53.4742 84.708 53.7383 85.3276 54.2887 85.8645L54.2961 85.8714Z" fill="#3F483D"/>
<path d="M23.0879 50.3502C26.8054 49.0699 30.2889 47.466 34.3005 47.9065C35.1074 47.996 35.8842 48.0373 36.7137 48.5466C36.6533 49.6618 35.7785 50.2263 35.0546 50.8527C32.9809 52.6494 31.2315 54.6663 29.6329 56.8277C28.3359 58.5831 27.4161 60.4141 27.1597 62.5068C26.7073 66.2033 26.006 69.8999 26.0437 73.6102C26.089 77.6578 26.4962 81.7055 27.3935 85.6911C27.6273 86.7237 27.9667 87.7768 27.2503 88.9402C25.4179 89.6698 23.6306 90.0347 21.6324 90.2962C20.6521 89.7387 20.2903 88.9333 20.0565 88.0935C17.3645 78.2223 16.1881 68.2685 18.3297 58.1633C18.9706 55.1551 20.343 52.5048 23.0728 50.3502H23.0879Z" fill="#3E5B2D"/>
<path d="M27.285 89.0728C27.27 86.4708 26.2219 84.0063 26.0107 81.4456C25.9881 81.184 25.822 80.9225 25.8447 80.6747C26.086 78.1484 25.1587 75.6771 25.3774 73.1576C25.5735 70.8585 25.8676 68.5731 26.1315 66.2809C26.3728 64.1813 26.5085 62.0819 27.0892 60.0168C27.2551 59.4317 27.4586 58.874 27.7979 58.3646C30.2034 54.7851 33.0161 51.5154 36.6884 48.7344C37.5028 48.7688 37.9851 49.1749 38.4451 49.6017C39.4932 50.5723 40.7302 51.185 42.359 51.3847C40.1345 53.2708 37.9172 55.2257 35.9793 57.3596C34.177 59.3421 33.1062 61.717 32.7594 64.4016C32.4728 66.5906 32.2318 68.7728 32.4354 70.9342C32.7672 74.4793 33.144 78.0245 33.9056 81.5283C34.1997 82.8844 34.6145 84.2336 34.5768 85.8099C32.7143 87.0215 30.897 88.1091 28.6349 88.7079C28.4011 88.7768 28.3257 88.8319 28.1297 88.942C27.813 89.0246 27.6244 89.0521 27.285 89.0797V89.0728Z" fill="#4E6F36"/>
<path d="M91.8622 163.075C91.4776 162.38 91.2286 161.774 90.8817 161.21C90.4293 160.473 90.203 159.441 88.7476 160.136C88.1444 160.425 87.5867 159.853 87.1644 159.206C87.1342 158.959 87.1643 158.828 87.2321 158.711C87.8857 157.651 87.6393 156.582 86.4932 155.503C86.3801 156.522 85.9427 157.245 84.7814 157.086C84.1329 156.997 83.7107 156.57 83.6956 155.999C83.673 154.828 84.6157 154.629 85.7166 154.608C75.9741 141.749 67.8903 128.361 66.8271 112.28C66.073 112.329 66.0806 112.928 65.7564 113.196C64.7686 114.029 63.7504 113.988 62.9662 113.01C62.4308 112.336 62.2499 111.565 62.461 110.745C62.642 110.043 63.1396 109.568 63.8786 109.348C64.7005 109.107 65.2813 109.479 65.7262 110.071C65.9222 110.332 66.0958 110.608 66.6161 110.876C66.6161 109.678 66.5255 108.474 66.6386 107.283C66.7517 106.154 66.5934 104.874 68.4409 104.516C69.3307 104.344 68.9987 103.27 69.2023 102.43C70.0544 102.196 70.5748 102.34 70.5521 103.318C70.5069 105.445 70.5296 107.579 70.6276 109.706C70.8463 114.394 72.0602 118.903 73.4929 123.384C75.4912 129.648 77.6705 135.843 80.3248 141.901C83.1978 148.447 87.33 154.298 92.1711 159.757C93.1816 160.9 94.1923 162.049 94.7503 163.44C95.5346 165.388 95.8964 167.329 93.8453 169.036C93.6115 166.999 93.2796 164.968 91.8545 163.075H91.8622Z" fill="#EDF0E9"/>
<path d="M26.4182 106.014C26.5615 106.854 26.8554 107.611 27.1645 108.348C28.8084 112.244 30.324 116.202 32.2092 120.008C34.7277 125.082 37.5935 129.997 40.5871 134.857C43.1585 139.035 46.1293 142.959 49.4396 146.655C53.2476 150.909 57.0786 155.15 61.7764 158.695C65.2602 161.331 68.9172 163.685 72.7479 165.854C74.3767 166.776 76.141 167.361 77.8603 168.077C77.9281 168.105 78.0036 168.118 78.0639 168.153C78.9763 168.704 79.3837 167.203 80.1755 167.671C80.7712 168.029 80.5074 168.986 81.5706 169.241C83.4557 169.681 85.3859 169.695 87.2032 169.413C88.9225 169.144 90.4911 169.172 92.2254 169.743C90.9963 170.734 89.4653 171.044 87.8214 171.017C86.4415 170.996 85.0693 170.961 83.4933 170.927C83.0333 170.913 82.7844 170.851 82.4149 170.762C77.4305 169.977 72.906 168.373 68.5928 166.205C63.1334 163.458 58.0435 160.216 53.6172 156.224C49.3039 152.334 45.6543 147.943 42.5098 143.165C35.8665 133.067 30.8594 122.308 26.5688 111.246C26.0334 109.869 25.6793 108.437 25.1741 107.046C24.797 106.007 25.3776 105.897 26.4182 106.014Z" fill="#758F55"/>
<path d="M86.6606 89.7534C87.0754 89.8016 87.3844 89.8428 87.8444 89.9048C88.4853 91.2265 89.835 91.3847 91.0716 91.9354C91.1546 92.1557 91.1546 92.2521 91.0565 92.4793C89.292 93.2365 88.3195 94.7028 86.7284 95.4806C80.6959 98.4475 74.618 96.7747 68.5403 95.7559C67.9747 95.6595 67.4845 95.3153 66.7379 95.1914C66.1422 95.04 65.7428 94.861 65.2677 94.5099C64.7927 93.202 65.5842 92.8166 66.5796 92.5068C66.2026 92.025 64.5438 91.963 65.5995 90.6345C65.8785 90.2834 65.4561 90.0424 65.147 89.8772C63.5634 89.0099 63.6314 87.7088 64.1517 86.394C64.4307 85.685 64.4985 84.983 64.6267 84.1157C67.0472 82.8353 69.2038 83.2621 71.3378 84.7834C71.8279 85.4511 72.2578 85.9054 73.2381 85.6232C74.7386 85.6645 75.6133 86.5181 76.5559 87.234C79.1649 89.2234 82.1662 89.9116 85.665 89.5055C85.9063 89.4848 85.9894 89.4712 86.193 89.4574C86.3514 89.5951 86.4342 89.6914 86.668 89.7534H86.6606Z" fill="#586159"/>
<path d="M43.417 90.5966C43.1455 90.7068 42.957 90.7067 42.6176 90.7136C42.3688 90.7962 42.2631 90.8788 42.1047 91.044C37.3843 94.3069 31.8799 95.4153 26.3375 96.5236C26.7447 96.9435 27.4985 96.4685 27.9509 96.8678C28.0263 96.9779 27.9585 97.0535 27.7624 97.0879C24.6029 97.618 21.4059 97.4941 18.2162 97.5079C17.1831 97.5079 16.233 97.5353 15.5468 96.5579C15.0189 95.8075 13.7898 96.0003 13.0508 95.367C13.4052 94.9884 14.242 94.8714 14.1591 94.3344C13.9781 93.1573 15.2301 93.2056 15.7504 92.4897C17.9447 92.9646 20.0561 92.407 22.175 92.1248C23.5173 91.9458 24.8441 91.6705 26.3522 91.464C32.7919 90.9753 37.799 87.5266 43.4093 85.4752C45.6865 84.6423 47.9563 83.651 50.6483 84.5734C50.8444 85.0691 50.837 85.4821 50.9878 85.8401C51.2593 86.4803 50.9273 86.9345 50.4145 87.1617C49.0723 87.7399 47.8357 88.6004 46.2823 88.683C45.4754 88.7243 44.7439 88.6555 44.6836 89.7362C44.6685 90.0047 43.9071 90.2387 43.417 90.5898V90.5966Z" fill="#586159"/>
<path d="M23.0413 50.2647C23.0715 51.6001 21.714 52.2886 20.9901 53.3212C19.3236 55.7029 18.8865 58.36 18.3737 61.0171C17.6196 64.8926 17.7703 68.8232 17.9889 72.7124C18.2227 76.8564 18.8561 80.9797 19.8439 85.0479C20.2511 86.7276 20.734 88.3866 21.4352 90.142C20.5304 90.4999 19.8969 90.2657 19.6933 89.3296C19.6104 88.9441 19.4367 88.5656 19.2784 88.0424C19.0521 87.7258 19.0522 87.4917 18.9617 87.1751C17.7175 83.0999 16.1641 79.1968 15.5382 75.1011C14.6484 69.2844 14.1734 63.4402 15.7116 57.6442C16.6618 54.0646 18.7354 51.3179 23.0487 50.2578L23.0413 50.2647Z" fill="#758F55"/>
<path d="M65.1312 94.201C65.5611 94.4075 65.9079 94.5176 66.3905 94.669C68.5848 96.4863 71.1562 96.6929 73.7879 96.6998C75.9445 96.6998 78.0031 97.2504 80.2125 97.2504C84.7746 97.2504 88.0625 95.5157 90.9657 92.4249C91.0788 92.3217 91.0785 92.3011 91.0861 92.3079C91.991 91.5094 90.8524 90.8899 90.958 90.057C91.335 89.9124 91.6217 89.8917 91.9083 89.8435C92.504 89.7403 93.1222 89.2172 93.6727 89.9262C94.1703 90.5733 94.2382 91.2341 93.8763 91.9913C93.3786 93.0514 92.6171 93.9738 91.7047 94.6897C89.3067 96.5896 86.9163 98.5722 83.5381 98.937C83.3948 98.9508 83.2438 99.0677 83.1231 99.0402C80.9288 98.4964 78.6892 99.4945 76.4949 98.8819C75.1752 98.5171 73.7805 98.641 72.4156 98.4207C69.6105 97.9733 66.9637 97.1197 64.2792 96.3487C63.857 96.2248 63.3895 96.1284 63.2236 95.7291C62.2735 93.4713 60.3203 91.5508 60.4183 88.9488C60.4485 88.2398 59.815 87.93 59.5586 87.2485C60.2523 86.3399 60.9988 85.6308 62.3561 85.6653C62.982 86.0094 63.118 86.4843 63.0351 86.9386C62.6656 88.9556 63.2312 90.8693 63.8043 92.8931C63.9475 93.0583 64.0079 93.1203 64.1813 93.2649C64.5885 93.5609 64.8598 93.7948 65.1312 94.2078V94.201Z" fill="#3F483D"/>
<path d="M75.08 57.7247C76.8898 58.4544 77.101 58.3512 77.0709 56.8918C77.0558 56.2448 76.8747 55.6322 76.6184 54.8681C77.4177 54.7166 77.4329 55.3017 77.5536 55.811C78.187 58.6196 78.2699 61.4557 78.1191 64.3193C77.8854 68.718 76.754 72.9652 75.6154 77.2125C75.2233 78.6924 74.8013 80.1655 74.4092 81.6455C74.3187 81.9966 74.1978 82.2719 73.6172 82.1135C74.5447 75.8494 75.0425 69.6335 75.4799 63.4244C75.6005 61.6416 75.3215 59.8518 74.6956 57.9451C74.7258 57.7592 74.8312 57.7385 75.0951 57.7385L75.08 57.7247Z" fill="#EDF0E9"/>
<path d="M50.955 84.6892C48.625 84.4138 46.5813 84.7649 44.6283 85.5496C41.7855 86.6992 38.9352 87.8006 36.2206 89.2118C33.3928 90.6849 30.3614 91.8207 26.7344 91.4834C28.0087 90.382 29.8865 90.0173 31.5831 89.3151C35.723 87.608 39.5912 85.357 44.0628 83.9665C44.3116 83.7944 44.4397 83.7048 44.6961 83.6428C45.0957 83.6084 45.3824 83.5671 45.8047 83.4845C46.0762 83.3675 46.2043 83.2919 46.4531 83.2506C48.6927 83.0785 50.7891 83.0578 52.8402 84.2142C53.0287 84.3726 53.0815 84.4551 53.0589 84.6754C52.3652 84.7649 51.7541 84.7305 50.9473 84.6961L50.955 84.6892Z" fill="#818A8C"/>
<path d="M62.7263 85.7696C61.4745 85.8591 60.894 86.8917 59.6875 87.0569C58.9184 86.162 59.7023 85.6319 60.2829 85.1019C62.1304 83.4016 64.2647 82.3071 67.2131 82.7202C67.6127 82.8922 67.869 82.9061 68.2536 82.9474C69.1057 83.1401 69.837 83.3259 70.7117 83.5531C70.9605 83.6357 71.0512 83.6701 71.2699 83.794C71.8505 84.0556 72.3029 84.2277 72.891 84.4617C73.1248 84.5168 73.2305 84.5099 73.3888 84.6338C74.2409 85.157 75.04 85.5494 75.9599 86.0175C76.1862 86.1001 76.292 86.0999 76.4504 86.2307C77.8152 87.0086 79.0366 87.8279 80.7181 88.0826C80.9821 88.1101 81.0876 88.1032 81.2988 88.2064C82.5807 88.5919 83.7571 88.8672 85.0993 89.1632C85.416 89.1976 85.5365 89.2527 85.7326 89.3973C85.8306 89.4317 85.8081 89.4662 85.8081 89.4869C84.9334 90.2785 83.9382 90.2578 82.7845 90.1201C79.7908 89.7759 77.2497 88.7021 75.1459 86.7334C74.6783 86.2997 74.0598 86.0793 73.2832 85.8865C72.5065 86.3133 72.039 85.9142 71.4735 85.4874C69.5808 83.6426 67.3563 83.6976 64.9358 84.2483C64.2948 84.9711 63.5859 85.3497 62.7263 85.7627V85.7696Z" fill="#818A8C"/>
<path d="M33.6938 7.63042C33.6938 8.12604 33.7541 8.47033 33.6636 8.77322C33.4298 9.51665 32.6833 9.71626 32.0122 9.26882C31.1073 8.66306 30.6623 6.10913 31.3259 5.22802C31.718 4.71175 32.1779 4.82873 32.6002 5.18668C33.3166 5.79933 33.671 6.57033 33.7011 7.63042H33.6938Z" fill="#3E5B2D"/>
<path d="M90.8604 89.9344C91.1092 90.2028 91.1996 90.43 91.4484 90.6021C92.2025 91.1252 92.1346 91.6874 91.2448 92.2885C90.6943 91.8136 90.0988 91.8479 89.5559 91.903C88.1232 92.0476 87.8892 91.3042 87.9947 90.0927C88.8845 89.9275 89.7744 89.9206 90.8527 89.9344H90.8604Z" fill="#50584D"/>
<path d="M53.0447 84.9205C52.9844 84.7208 52.9766 84.6314 52.9766 84.418C53.9267 84.4455 54.6506 84.7828 54.4545 85.9186C53.7231 85.9117 53.3687 85.5193 53.0369 84.9205H53.0447Z" fill="#586159"/>
<path d="M82.3945 170.787C82.5604 170.718 82.8242 170.738 83.1862 170.835C83.0203 171.007 82.7489 171.021 82.3945 170.787Z" fill="#3F483D"/>
<path d="M18.8871 87.1875C19.0228 87.2701 19.1361 87.4628 19.2416 87.7794C19.0003 87.7519 18.8795 87.5592 18.8871 87.1875Z" fill="#50584D"/>
<path d="M68.2764 82.8789C68.103 83.0647 67.8391 83.0647 67.4922 82.8306C67.6581 82.7549 67.9145 82.7756 68.2764 82.8789Z" fill="#586159"/>
<path d="M86.6983 89.6922C86.7586 89.761 86.5474 89.7611 86.5474 89.7611C86.5474 89.7611 86.3815 89.6441 86.3438 89.5615C86.4342 89.4995 86.54 89.5477 86.6983 89.6991V89.6922Z" fill="#3F483D"/>
<path d="M85.7778 89.3405C85.7024 89.3956 85.5666 89.3682 85.3555 89.258C85.4309 89.203 85.5742 89.2304 85.7778 89.3405Z" fill="#3F483D"/>
<path d="M28.0994 88.9821C28.0692 88.8857 28.1598 88.8032 28.3785 88.7344C28.4162 88.8307 28.3256 88.9201 28.0994 88.9821Z" fill="#3E5B2D"/>
<path d="M81.3604 88.2273C81.2775 88.3375 81.1495 88.3168 80.9609 88.1791C81.0288 88.124 81.1644 88.131 81.3604 88.2273Z" fill="#50584D"/>
<path d="M76.4987 86.2724C76.3932 86.355 76.2878 86.3137 76.1445 86.1623C76.2426 86.0246 76.3705 86.0521 76.4987 86.2724Z" fill="#586159"/>
<path d="M73.4289 84.6743C73.3308 84.7638 73.2253 84.7226 73.082 84.5849C73.1725 84.4403 73.3007 84.4609 73.4289 84.6743Z" fill="#586159"/>
<path d="M71.3365 83.785C71.2309 83.902 71.0953 83.8675 70.9219 83.6816C71.0048 83.6266 71.1404 83.6611 71.3365 83.785Z" fill="#586159"/>
<path d="M44.6974 83.6328C44.6974 83.7292 44.5694 83.8117 44.3281 83.8943C44.3281 83.8048 44.4561 83.7085 44.6974 83.6328Z" fill="#3F483D"/>
<path d="M46.4546 83.25C46.4395 83.3464 46.3038 83.4084 46.0625 83.4634C46.0776 83.3739 46.2058 83.2982 46.4546 83.25Z" fill="#3F483D"/>
<path d="M66.4158 132.551C66.0538 132.324 65.7899 132.173 65.6466 131.959C65.2997 131.443 65.3976 130.927 65.8425 130.507C66.2949 130.073 66.8756 130.025 67.4412 130.3C68.0067 130.575 68.3462 131.099 68.0973 131.622C67.6901 132.475 67.7957 132.93 68.8514 133.191C69.3415 133.308 69.7562 133.838 69.5753 134.286C69.1605 135.298 69.4696 135.663 70.5856 136.007C71.7393 136.358 72.2297 137.659 71.7546 138.464C71.3399 139.166 70.6383 139.504 69.756 139.373C68.6174 139.201 67.6146 138.072 67.9464 137.032C68.2329 136.144 68.3159 135.697 67.2527 135.236C66.5514 134.933 66.5667 134.148 67.0568 133.494C67.283 133.191 67.8105 133.123 67.8558 132.675C67.4109 132.358 66.9738 132.737 66.4158 132.551Z" fill="#EDF0E9"/>
<path d="M67.3501 126.328C67.599 126.734 67.8329 127.016 67.8932 127.319C68.1119 128.434 67.7499 129.184 66.8601 129.439C65.925 129.708 65.1561 129.419 64.5905 128.703C63.9722 127.925 63.9571 126.741 64.5905 126.135C65.2918 125.467 66.0908 125.426 66.9127 125.963C67.0258 126.039 67.1316 126.135 67.3428 126.328H67.3501Z" fill="#EDF0E9"/>
<path d="M77.0321 147.417C78.3592 146.839 79.1434 147.348 79.6109 148.277C79.9729 148.993 79.7992 149.737 79.0376 150.198C78.276 150.659 77.4993 150.494 76.8885 149.909C76.0665 149.124 75.9837 148.298 77.0243 147.417H77.0321Z" fill="#EDF0E9"/>
<path d="M65.9459 120.503C66.1118 121.047 66.0139 121.433 65.6896 121.729C65.1844 122.19 64.6113 122.355 63.9477 121.956C63.2841 121.557 63.1937 120.992 63.4727 120.407C63.7668 119.794 64.3473 119.574 65.0788 119.767C65.4483 119.863 65.697 120.09 65.9459 120.51V120.503Z" fill="#EDF0E9"/>
<path d="M80.1611 150.758C81.4581 151.185 82.0915 152.176 82.9436 152.947C83.2075 153.188 83.2905 153.539 82.9587 153.807C82.823 153.918 82.4985 154.007 82.3854 153.938C81.2845 153.236 80.1686 152.52 79.7086 151.288C79.6634 151.171 79.9046 150.964 80.1685 150.758H80.1611Z" fill="#EDF0E9"/>
<path d="M63.11 116.262C63.0647 115.573 63.359 115.305 63.9848 115.484C64.294 115.573 64.407 115.876 64.3015 116.103C64.0753 116.585 63.7059 116.805 63.1177 116.255L63.11 116.262Z" fill="#EDF0E9"/>
<path d="M50.9712 64.8827C47.2009 63.0723 43.5886 63.1481 39.954 64.8071C39.3508 65.0824 38.6723 65.8327 38.0162 65.2889C37.2999 64.69 38.0161 63.9054 38.2876 63.2789C39.3357 60.8421 42.4575 59.0868 45.421 59.1625C48.1356 59.2314 51.235 61.2206 52.2153 63.5198C52.6376 64.511 52.5472 64.6349 50.9712 64.8896V64.8827Z" fill="#2B2A28"/>
<path d="M48.7103 73.8168C48.469 75.1867 47.8958 76.2467 46.9231 77.0866C45.4526 78.3532 43.6203 78.1534 42.444 76.6459C40.5965 74.271 40.8678 69.5144 42.9716 67.3116C44.525 65.6802 46.0936 65.749 47.9109 67.6558C47.9336 67.8692 47.8807 67.9519 47.6922 68.0964C46.4631 68.2272 45.1207 67.8623 44.8568 69.3974C44.6758 70.4368 44.4797 71.5451 45.4072 72.3643C46.576 73.4037 47.2624 71.8755 48.401 71.8342C48.9892 72.4331 48.7327 73.0665 48.7026 73.8168H48.7103Z" fill="#2B2A28"/>
<path d="M70.6065 74.2195C70.4104 75.5274 69.8597 76.5324 69 77.3654C67.5749 78.749 65.7654 78.6113 64.5891 77.0418C63.654 75.7959 63.4202 74.3641 63.4429 72.8772C63.473 71.1287 63.7594 69.4422 64.9433 68.0035C66.3006 66.3445 67.658 66.2482 69.6035 67.7213C69.7694 68.038 69.7466 68.217 69.4526 68.451C68.4723 68.6369 67.5147 68.5267 67.0622 69.4354C66.5495 70.461 66.3383 71.5763 67.2055 72.4436C68.4647 73.7033 69.166 71.9754 70.3348 71.8584C70.8852 72.6019 70.6291 73.3452 70.6065 74.2195Z" fill="#2B2A28"/>
<path d="M64.8161 61.0078C68.5713 59.4039 72.6658 61.0146 73.7743 64.3808C73.91 64.7938 73.9705 65.1724 73.5331 65.4478C73.2013 65.6543 72.8393 65.5923 72.5 65.4202C72.4396 65.3858 72.3718 65.3583 72.3114 65.317C69.2499 62.9008 66.0075 63.3965 62.7122 64.8352C62.3352 65.0004 61.9281 65.3307 61.5586 64.8901C61.3098 64.5942 61.5435 64.2569 61.6868 63.9541C62.29 62.6599 63.5719 61.9578 64.8161 61.0078Z" fill="#2B2A28"/>
<path d="M65.3719 55.0534C66.3748 55.4596 67.2423 55.7899 68.0793 56.1754C68.396 56.3199 68.6976 56.5746 68.4865 56.9669C68.3131 57.2974 67.951 57.4557 67.5815 57.3525C66.7596 57.1115 65.9452 56.8431 65.161 56.5127C63.5171 55.8243 61.9789 54.957 60.5235 53.9726C60.056 53.656 59.5056 53.2842 60.0184 52.6922C60.4708 52.1622 60.9155 52.6165 61.3303 52.8436C62.6272 53.5595 63.9243 54.2756 65.3646 55.0534H65.3719Z" fill="#EDF0E9"/>
<path d="M48.7563 73.8258C48.5075 73.3439 48.7786 72.683 48.281 71.9946C47.2781 70.8451 47.5874 69.5923 47.5195 68.2637C47.6402 68.0435 47.6929 67.9745 47.8664 67.8438C48.6204 68.2637 49.005 68.8832 49.0126 69.6267C49.0276 70.9828 49.2312 72.3458 48.7486 73.8258H48.7563Z" fill="#3F483D"/>
<path d="M70.6531 74.2315C70.3816 73.6188 70.7135 72.8203 70.163 71.9943C69.3561 71.2302 69.477 70.4387 69.6505 69.4887C69.7787 69.234 69.8464 69.1377 70.0952 69C71.3847 70.5901 70.9698 72.3522 70.6531 74.2315Z" fill="#3F483D"/>
<path d="M58.9426 55.6263C58.7918 55.8879 58.6711 56.0737 58.4901 56.1425C57.9472 56.3559 57.4724 56.2596 57.4271 55.6469C57.397 55.1376 57.8793 55.0482 58.3167 55.055C58.6108 55.055 58.8372 55.2201 58.9353 55.6194L58.9426 55.6263Z" fill="#EDF0E9"/>
<path d="M61.219 56.0586C61.7997 56.5267 61.7923 56.8984 61.1513 57.1325C60.8949 57.2289 60.5328 57.1875 60.4197 56.9259C60.1784 56.3684 60.4951 56.0861 61.219 56.0655V56.0586Z" fill="#EDF0E9"/>
<path d="M75.1831 57.6211C75.1303 57.7519 75.0324 57.7794 74.7685 57.7794C74.2029 57.0153 73.7728 56.2718 73.5391 54.957C74.5721 55.8932 74.5119 56.8914 75.1831 57.6211Z" fill="#818A8C"/>
<path d="M69.1211 68.4478C69.3021 68.2275 69.4302 68.1381 69.6263 67.9453C70.0259 68.0486 70.1089 68.3859 70.2371 68.8333C70.2069 69.0054 70.139 69.0536 69.9731 69.1775C69.4302 69.1982 69.1814 68.9572 69.1211 68.4478Z" fill="#3F483D"/>
<path d="M78.5563 165.241C78.6543 165.778 78.3753 165.881 77.9757 165.771C77.757 165.716 77.6135 165.51 77.719 165.331C77.8698 165.076 78.1642 165.062 78.5563 165.241Z" fill="#679441"/>
<path d="M43.332 90.6992C43.3848 90.7543 43.4378 90.8162 43.4981 90.8713C43.4604 90.8507 43.4227 90.8301 43.3549 90.7543C43.3322 90.6993 43.332 90.6992 43.332 90.6992Z" fill="#50584D"/>
<path d="M42.1254 91.0627C42.065 90.9732 42.1401 90.8631 42.3739 90.7461C42.4267 90.8356 42.3441 90.9388 42.1254 91.0627Z" fill="#50584D"/>
<path d="M90.9298 92.332C91.0806 92.4559 91.1109 92.6005 91.0656 92.7176C90.6207 93.9015 87.5216 96.6343 86.2699 96.6412C84.8371 96.6481 83.9624 97.9835 82.6579 97.8183C81.4212 97.66 80.2901 97.5774 79.0308 97.8045C77.8921 98.0179 76.5724 98.2589 75.5016 97.3365C75.1095 96.9923 74.5289 97.1161 74.0237 97.1093C73.2922 97.0955 72.5684 97.1024 71.837 97.1093C69.7256 97.1299 67.7874 96.7926 66.5508 94.8514C67.1239 94.6655 67.6592 94.8308 68.2021 95.0648C70.4115 95.9941 72.787 96.2144 75.185 96.3108C76.9193 96.3797 78.6538 96.2007 80.3806 96.6412C81.2478 96.8615 82.2655 96.8753 83.1704 96.4967C84.7464 95.8427 86.2396 95.0374 87.8759 94.4798C88.7205 94.1907 87.6421 94.0048 87.5667 93.5987C88.6601 93.3096 89.7536 92.8896 90.9375 92.3389L90.9298 92.332Z" fill="#50584D"/>
<path d="M62.5863 85.976C62.8954 84.9503 63.7626 84.73 64.6751 84.3789C65.2029 85.0604 65.4667 85.7076 64.7428 86.3822C64.0943 86.981 64.3584 87.7656 64.4037 88.4747C64.4565 89.342 65.2404 89.4247 65.9718 89.5761C66.5374 89.6931 66.8165 90.1544 66.8014 90.6293C66.7788 91.3177 65.9417 90.9253 65.6099 91.2488C65.7004 91.6136 66.1151 91.6962 66.364 91.9234C66.5676 92.1092 66.809 92.2538 67.0352 92.4259C66.4319 92.9628 65.6252 93.3001 65.2557 94.1813C64.841 94.1193 64.4563 93.9265 63.9887 93.6236C63.6494 93.2106 62.5788 93.4172 63.1669 92.5292C63.28 92.364 63.167 92.006 63.0539 91.7926C62.1264 90.1612 62.3222 88.4542 62.6087 86.7332C62.6389 86.5405 62.6087 86.3408 62.6087 85.976H62.5863Z" fill="#50584D"/>
<path d="M71.4062 85.4961C71.8813 85.503 72.3566 85.6682 72.9825 85.8541C72.4622 86.4048 71.8436 86.5631 71.4062 85.4961Z" fill="#50584D"/>
<path d="M47.4404 68.0298C48.202 69.2 48.3452 70.3565 48.1341 71.7333C47.8928 72.2289 47.7043 72.6143 47.3951 72.8759C46.4224 73.6951 45.3441 73.5574 44.673 72.4973C43.8963 71.2651 43.9039 69.9435 44.5298 68.6632C45.1104 67.4723 45.7664 67.3345 47.4555 68.0298H47.4404Z" fill="#EDF0E9"/>
<path d="M69.0314 68.2819C69.3481 68.571 69.5142 68.8326 69.7781 69.1699C70.0119 70.0166 70.1324 70.7807 70.0042 71.7307C69.0239 73.4585 68.4509 73.8232 67.5008 73.5203C66.611 73.2381 66.1284 72.2607 66.1661 70.8495C66.2189 68.8946 66.9427 68.1993 69.0314 68.2888V68.2819Z" fill="#EDF0E9"/>
<path d="M64.2422 90.8419C64.4533 90.7869 64.5288 90.8419 64.4609 90.952C64.4458 90.9727 64.2874 90.9176 64.2422 90.8419Z" fill="#586159"/>
<path d="M63.9023 93.5051C63.9551 93.5395 63.8949 93.2504 63.9627 93.4913C63.9024 93.5188 63.9099 93.4982 63.9023 93.5051Z" fill="#586159"/>
</svg>
