<svg width="100" height="202" viewBox="0 0 100 202" fill="none" xmlns="http://www.w3.org/2000/svg">
<path d="M26.5647 175.866C28.1105 175.692 29.5506 176.552 30.7194 177.465C31.6846 178.224 32.582 179.064 33.2305 180.051C33.879 181.039 34.2713 182.187 34.1657 183.322C34.128 183.772 33.9392 184.29 33.4566 184.431C32.891 184.592 32.3557 184.135 31.9786 183.725C30.1613 181.73 28.3442 179.736 26.5345 177.741C26.2856 177.465 26.0217 177.163 25.9991 176.807C25.9765 176.39 26.3158 175.893 26.5647 175.866Z" stroke="#231F20" stroke-width="2.15" stroke-miterlimit="10"/>
<path d="M25.9324 177.699C23.4213 178.169 21.0311 179.116 18.965 180.473C18.2637 180.93 17.5701 181.488 17.3589 182.233C17.1779 182.892 17.4116 183.583 17.6756 184.215C19.0404 187.533 21.182 190.542 23.3462 193.505C24.432 194.996 25.5556 196.5 27.1165 197.609C29.0318 198.972 31.4825 199.63 33.9182 199.845C36.3613 200.054 38.8196 199.845 41.2552 199.637C41.7604 196.883 40.78 193.948 38.6686 191.892C37.3942 190.65 35.6824 189.709 33.8048 189.494C31.9271 189.28 29.8989 189.85 28.6924 191.154" stroke="#231F20" stroke-width="2.15" stroke-miterlimit="10"/>
<path d="M32.4922 184.262C32.8918 185.236 33.118 186.27 33.1557 187.305C33.1783 187.815 33.1105 188.406 32.6505 188.708" stroke="#231F20" stroke-width="2.15" stroke-miterlimit="10"/>
<path d="M18.5488 181.594C19.4914 185.281 21.3994 188.774 24.0839 191.71" stroke="#231F20" stroke-width="2.15" stroke-miterlimit="10"/>
<path d="M41.2154 198.621C39.285 198.46 37.3471 198.306 35.4167 198.144C34.346 198.057 33.2678 197.97 32.2197 197.748C29.2638 197.123 26.6546 195.444 24.8223 193.281" stroke="#231F20" stroke-width="2.15" stroke-miterlimit="10"/>
<path d="M21.1582 179.148C23.066 178.906 24.8529 177.999 26.0519 176.663C26.3384 176.347 26.64 175.977 27.0924 175.924C27.394 175.89 27.6881 176.011 27.9595 176.132C30.0106 177.072 31.8053 178.456 33.14 180.135C33.781 180.941 34.339 181.915 34.0977 182.876C33.962 183.427 33.5774 183.897 33.3135 184.407C32.582 185.825 32.7781 187.464 32.9968 189.009C35.4701 189.627 37.7024 190.977 39.2558 192.797C40.8091 194.617 41.6763 196.894 41.6763 199.185C40.2436 200.058 38.3656 199.998 36.6313 199.911C34.3917 199.796 32.0995 199.675 30.0258 198.916C27.9069 198.144 26.1424 196.747 24.6042 195.235C21.5502 192.219 19.2277 188.612 17.8478 184.743C17.516 183.816 17.2444 182.822 17.5536 181.895C18.0663 180.357 19.8535 179.316 21.1505 179.155L21.1582 179.148Z" stroke="#231F20" stroke-width="2.15" stroke-miterlimit="10"/>
<path d="M29.4956 174.89C32.4903 165.486 38.2685 157.572 39.7093 147.556C40.3505 143.076 40.1017 138.3 41.5273 134.135C42.0554 132.596 42.968 131.057 44.2504 130.889C45.4724 130.731 46.6041 131.945 47.117 133.415C47.63 134.885 47.6526 136.543 47.6677 138.152C47.7205 144.477 47.6674 150.96 45.9174 156.861C44.6652 161.065 42.6136 164.766 40.4562 168.289C38.1254 172.098 35.6662 175.769 33.0713 179.282C32.0002 177.515 30.9215 175.759 29.4883 174.9L29.4956 174.89Z" fill="#3B5B33" stroke="#231F20" stroke-width="5" stroke-miterlimit="10"/>
<path d="M21.1592 179.151C22.182 178.63 25.0098 177.667 26.2599 177.544C26.368 177.466 26.1898 177.468 26.0518 177.296C25.8844 177.087 25.7539 176.68 25.9824 176.306C26.2689 175.991 26.5717 175.803 27.0242 175.75C27.3258 175.716 28.2112 175.938 28.4826 176.059C30.5337 177 31.6774 177.915 32.7887 179.214C33.4296 180.02 34.4884 181.78 34.2471 182.741C34.4651 183.036 34.3861 184.225 33.3144 184.41C33.2613 184.513 32.7272 184.243 32.7192 184.535C32.695 185.417 33.3144 185.648 33.2054 187.999C32.9913 189.061 32.4246 188.576 32.7887 189.298C32.997 189.484 34.7333 189.298 34.8722 189.608C37.3455 190.226 38.3448 191.402 39.456 192.577C40.0069 193.223 40.5198 193.972 40.8451 194.805C41.4371 196.32 41.4007 198.276 41.4007 199.754C40.4284 199.816 37.9975 200.001 36.6085 200.001C35.5611 199.948 34.5259 200.034 33.4832 199.913C32.2964 199.776 31.1144 199.416 30.0106 199.011C28.8419 198.585 27.7859 198.21 26.8158 197.465C26.027 196.858 25.2949 195.916 24.6051 195.238C23.4738 194.121 22.55 192.629 21.6069 191.216C20.0039 188.814 18.597 186.405 17.8487 184.746C17.5169 183.819 16.9918 183.049 17.301 182.122C17.5634 181.335 18.6908 180.614 19.3842 180.138C20.0458 179.684 20.9121 179.276 21.1514 179.157L21.1592 179.151Z" fill="white"/>
<path d="M26.5647 175.866C28.1105 175.692 29.5506 176.552 30.7194 177.465C31.6846 178.224 32.582 179.064 33.2305 180.051C33.879 181.039 34.2713 182.187 34.1657 183.322C34.128 183.772 33.9392 184.29 33.4566 184.431C32.891 184.592 32.3557 184.135 31.9786 183.725C30.1613 181.73 28.3442 179.736 26.5345 177.741C26.2856 177.465 26.0217 177.163 25.9991 176.807C25.9765 176.39 26.3158 175.893 26.5647 175.866Z" stroke="#231F20" stroke-width="2.15" stroke-miterlimit="10"/>
<path d="M25.9324 177.699C23.4213 178.169 21.0311 179.116 18.965 180.473C18.2637 180.93 17.5701 181.488 17.3589 182.233C17.1779 182.892 17.4116 183.583 17.6756 184.215C19.0404 187.533 21.182 190.542 23.3462 193.505C24.432 194.996 25.5556 196.5 27.1165 197.609C29.0318 198.972 31.4825 199.63 33.9182 199.845C36.3613 200.054 38.8196 199.845 41.2552 199.637C41.7604 196.883 40.78 193.948 38.6686 191.892C37.3942 190.65 35.6824 189.709 33.8048 189.494C31.9271 189.28 29.8989 189.85 28.6924 191.154" stroke="#231F20" stroke-width="2.15" stroke-miterlimit="10"/>
<path d="M32.4922 184.262C32.8918 185.236 33.118 186.27 33.1557 187.305C33.1783 187.815 33.1105 188.406 32.6505 188.708" stroke="#231F20" stroke-width="2.15" stroke-miterlimit="10"/>
<path d="M18.5488 181.594C19.4914 185.281 21.3994 188.774 24.0839 191.71" stroke="#231F20" stroke-miterlimit="10"/>
<path d="M41.2154 198.621C39.285 198.46 37.3471 198.306 35.4167 198.144C34.346 198.057 33.2678 197.97 32.2197 197.748C29.2638 197.123 26.6546 195.444 24.8223 193.281" stroke="#231F20" stroke-miterlimit="10"/>
<path d="M70.0904 168.709C69.0006 164.265 67.9016 159.821 66.8117 155.376C66.3961 153.673 65.9618 151.95 65.1859 150.384C63.5511 147.114 60.531 144.892 57.4645 143.11C54.3981 141.329 51.1379 139.841 48.4686 137.452C47.0924 136.229 45.8083 134.378 46.3625 132.567C46.7966 131.138 48.2928 130.306 49.7152 130.257C51.1375 130.208 52.5047 130.756 53.8255 131.304C57.5569 132.851 61.3069 134.408 64.6966 136.669C68.0863 138.93 71.1249 141.965 72.8243 145.802C75.9462 152.841 74.172 161.898 75.8345 169.475C73.8302 169.103 70.9005 168.7 70.0904 168.7V168.709Z" fill="#3B5B33" stroke="#231F20" stroke-width="5" stroke-miterlimit="10"/>
<path d="M67.8334 169.627C68.2255 169.164 68.9417 169.043 69.5978 168.996C71.8826 168.834 74.1825 169.197 76.3994 169.728C77.9076 170.09 79.5214 170.621 80.3056 171.824C80.5243 172.159 80.6675 172.542 80.6374 172.925C80.6072 173.308 80.4034 173.698 80.0339 173.899C79.3703 174.269 78.5183 173.96 77.817 173.651C75.8489 172.791 73.7676 171.965 71.5809 172.018C70.8645 172.038 70.1407 172.153 69.4243 172.099C68.708 172.045 67.954 171.79 67.5845 171.239C67.2074 170.695 67.5391 169.976 67.8407 169.62L67.8334 169.627Z" stroke="#231F20" stroke-width="2.15" stroke-miterlimit="10"/>
<path d="M69.0386 172.32C67.6737 174.759 66.4373 177.251 65.3364 179.796C64.9895 180.596 64.6501 181.409 64.537 182.262C64.4239 183.115 64.5596 184.021 65.0875 184.733C65.9245 185.862 67.5232 186.292 68.9937 186.641C73.0053 187.595 77.0243 188.542 81.0359 189.496C82.5214 189.845 84.0222 190.201 85.5529 190.282C87.0912 190.362 88.682 190.154 89.9941 189.442C92.0904 188.314 93.1915 185.97 92.8597 183.807C92.528 181.644 90.8839 179.722 88.7499 178.654C86.6159 177.586 84.0373 177.318 81.6243 177.681C79.2112 178.05 76.9414 179.017 74.9356 180.267" stroke="#231F20" stroke-width="2.15" stroke-miterlimit="10"/>
<path d="M64.4766 182.906C67.5909 184.592 71.0293 185.795 74.5961 186.446" stroke="#231F20" stroke-miterlimit="10"/>
<path d="M66.378 177.285C66.9963 176.425 67.5838 174.511 67.9314 174.264C68.1533 173.667 68.9615 172.967 68.9034 172.346C68.8667 171.954 67.7706 171.962 67.5838 171.603C67.3425 171.147 67.3205 170.675 67.4034 170.185C67.4788 169.762 67.8862 169.439 68.3386 169.298C68.7911 169.157 69.281 169.164 69.7636 169.171C73.3077 169.225 77.1462 169.366 79.9136 171.347C80.5244 171.784 80.9499 172.753 80.6407 173.398C80.3844 173.942 79.9136 174.264 79.2122 174.108C78.5788 174.376 78.0208 174.813 77.7494 175.391C77.4779 175.962 77.5305 176.68 77.9905 177.151C78.6616 177.849 79.8682 177.802 80.8937 177.735C82.711 177.614 84.5587 177.607 86.3383 177.97C88.1179 178.333 89.8369 179.092 91.0283 180.321C92.5666 181.9 93.0947 184.21 92.3406 186.185C91.5865 188.16 89.5504 189.712 87.2429 190.041C85.2069 190.33 83.1636 189.738 81.1879 189.194C77.3196 188.133 73.3982 187.24 69.4318 186.528C68.361 186.333 67.2376 186.138 66.3629 185.554C64.9905 184.64 64.5305 182.934 64.7793 181.43C64.9924 180.141 65.9864 177.976 66.3703 177.305L66.378 177.285Z" fill="white"/>
<path d="M67.7575 169.705C68.1496 169.242 68.866 169.114 69.5145 169.06C71.7994 168.879 74.0991 169.228 76.3236 169.745C77.8317 170.095 79.4529 170.619 80.2522 171.814C80.4709 172.143 80.6217 172.526 80.5991 172.916C80.5765 173.305 80.3653 173.688 80.0033 173.897C79.3473 174.273 78.4879 173.964 77.7791 173.668C75.8034 172.822 73.7146 172.009 71.5278 172.083C70.8115 172.11 70.0877 172.231 69.3713 172.184C68.655 172.137 67.9007 171.881 67.5237 171.337C67.1467 170.793 67.4632 170.081 67.7649 169.718L67.7575 169.705Z" stroke="#231F20" stroke-width="2.15" stroke-miterlimit="10"/>
<path d="M68.9868 172.391C67.6445 174.836 66.4306 177.341 65.3523 179.894C65.013 180.7 64.6812 181.512 64.5831 182.366C64.4776 183.219 64.6207 184.125 65.156 184.837C66.0006 185.959 67.6069 186.382 69.0773 186.718C73.104 187.638 77.123 188.566 81.1497 189.486C82.6352 189.828 84.1358 190.171 85.6741 190.238C87.2124 190.305 88.8038 190.083 90.1083 189.365C92.1971 188.216 93.2678 185.865 92.9209 183.709C92.5665 181.546 90.9074 179.639 88.7659 178.584C86.6168 177.529 84.0381 177.281 81.6251 177.664C79.2121 178.046 76.9572 179.034 74.9589 180.297" stroke="#231F20" stroke-width="2.15" stroke-miterlimit="10"/>
<path d="M91.2477 187.931C90.2222 188.536 88.9024 188.536 87.6733 188.476C84.8229 188.335 81.9878 187.965 79.2129 187.367" stroke="#231F20" stroke-miterlimit="10"/>
<path d="M82.3926 166.657C82.5585 166.59 82.8222 166.61 83.1842 166.704C83.0183 166.872 82.747 166.885 82.3926 166.657Z" fill="#3F483D"/>
<path d="M72.0703 166.636C64.6503 163.573 57.9916 159.737 52.1929 154.827C47.4196 150.79 43.4459 146.149 40.0752 141.077C32.4214 129.571 26.3963 117.447 22.2188 104.604C21.9096 103.643 21.4874 103.099 20.2357 102.904C13.9694 101.93 8.72886 99.3037 4.7851 94.7966C1.85179 91.438 -0.101491 87.7369 0.00407822 83.3641C0.0417815 81.705 0.592455 80.1735 1.53504 78.7428C1.8065 78.3263 2.12321 78.0106 2.85465 78.0307C3.28447 81.1542 4.57377 83.9418 7.60511 85.742C10.3499 87.3742 13.4191 88.2675 16.9934 88.3952C16.2996 86.2793 15.7187 84.3514 15.0401 82.4572C12.6949 75.8946 11.5563 69.1844 11.8504 62.2994C11.9861 59.1088 12.3784 55.9584 13.9318 53.0029C15.5531 49.913 18.0639 47.7165 21.6382 46.4604C25.22 45.2043 28.8622 44.2236 32.6325 43.4041C38.9138 42.0405 44.4414 39.0783 49.1468 35.0346C50.9867 33.4561 51.6049 31.3469 51.9819 29.2444C52.8038 24.6164 52.3287 20.0556 50.7451 15.5753C49.1842 11.1688 46.1833 9.93285 41.1838 10.309C39.0951 10.4702 37.0514 11.0547 34.9702 11.3771C29.8576 12.1764 28.4702 9.68426 29.0131 5.8891C29.2243 4.40463 30.0837 3.22256 31.4561 2.3359C32.5872 1.60374 33.794 1.01254 35.1664 0.730426C43.3254 -0.935412 50.9488 0.246829 57.9691 4.29052C59.8241 5.35853 61.2646 6.86985 62.2976 8.62301C64.1149 11.7062 65.2986 14.937 65.3062 18.4836C65.3137 21.8086 65.0044 25.1067 64.6198 28.4048C64.2353 31.6559 64.3636 34.8935 64.7557 38.1311C65.1629 41.4225 66.9802 43.8272 70.4112 45.2043C71.7384 45.7349 73.0806 46.2455 74.4002 46.7828C77.507 48.0524 79.4828 50.0607 80.2369 53.1372C81.2398 57.201 81.1868 61.2648 80.7796 65.3488C80.2894 70.3597 78.555 75.1356 77.2957 80.0055C77.1826 80.4489 77.1223 80.9123 76.9489 81.3355C76.5794 82.2222 77.0773 82.6655 77.8992 82.9946C80.1538 83.8947 82.3631 84.9224 84.678 85.6747C87.6038 86.6285 90.5296 86.6286 93.2217 84.909C94.3829 84.1702 95.205 83.2029 95.8233 82.0744C96.9167 80.0862 97.6105 77.977 98.1157 75.8275C98.9527 75.8678 99.1487 76.3582 99.3297 76.8485C100.167 79.1323 100.197 81.4699 99.5484 83.7672C98.5907 87.1324 96.977 90.2558 94.6469 93.0568C91.5025 96.8385 87.2042 99.0015 82.069 99.8411C79.5731 100.251 77.0772 100.869 74.4908 100.553C73.6689 100.452 73.5103 100.802 73.4952 101.44C73.4273 105.537 73.4125 109.648 74.521 113.651C76.9415 122.35 79.8823 130.908 83.8411 139.163C86.5256 144.765 90.3033 149.756 94.6392 154.438C96.4791 156.426 97.9194 158.562 98.221 161.195C98.5151 163.734 97.5652 165.763 95.2578 167.314C92.0756 169.45 88.4182 169.753 84.6479 169.497C80.3271 169.208 76.2174 168.114 72.0475 166.649L72.0703 166.636Z" fill="#2B2A28"/>
<path d="M41.4773 101.509C44.4333 100.616 47.3668 100.065 50.0438 98.7886C52.8187 97.4721 55.6238 96.2295 57.1923 93.4688C60.8571 96.2093 64.6423 98.3521 69.1064 99.6955C69.9283 100.73 69.6418 101.657 68.7746 102.214C67.2514 103.195 67.01 104.491 67.1004 105.983C67.1306 106.5 67.1307 107.024 67.0025 107.534C66.7914 108.381 66.3616 108.683 65.5397 107.971C64.959 107.467 64.3255 106.869 63.5035 107.595C62.7872 108.233 62.8325 109.019 63.3905 109.731C64.0692 110.584 64.793 110.282 65.6376 109.811C66.9271 109.099 67.3646 109.381 67.5154 111.02C67.9452 115.83 68.9102 120.545 70.8406 125.059C74.2188 132.959 78.2157 140.576 83.8184 147.454C84.1577 147.877 84.4441 148.347 84.8438 148.71C86.2388 149.98 85.9296 151.128 84.0746 152.445C85.7487 152.351 86.9402 150.954 87.9657 152.492C88.6595 153.54 88.2068 154.339 87.3773 155.246C85.1529 156.132 83.2375 155.293 81.3599 154.682C75.1012 152.633 70.298 148.818 65.9093 144.492C61.4528 140.105 57.3128 135.498 53.9798 130.379C51.1294 126.006 48.7843 121.378 46.8464 116.629C45.1573 112.485 43.4454 108.347 41.6659 104.236C41.3039 103.39 40.829 102.55 41.4851 101.516L41.4773 101.509Z" fill="#679441"/>
<path d="M73.6456 79.8959C70.9989 79.157 68.4729 78.3711 65.7206 78.3442C62.365 78.3173 59.831 79.5062 58.2249 82.1662C58.0891 82.3878 57.9234 82.5962 57.6821 82.9522C56.2193 81.9379 54.7262 81.0848 53.1125 80.3862C49.5457 78.8413 45.9866 78.7808 42.4274 80.366C39.8938 81.4945 37.3978 82.6767 34.7285 83.8723C34.2836 83.6843 34.11 83.3955 34.0421 83.073C32.6924 76.3089 31.0561 69.5717 32.1872 62.6195C32.6999 59.4827 34.1024 56.7555 36.621 54.559C38.3704 53.0343 39.7656 51.1266 42.2993 50.2064C43.5209 50.1526 44.516 50.3071 45.451 50.6967C46.8234 51.2677 47.1326 51.9729 46.552 53.1954C46.3559 53.6119 46.092 54.0015 45.8432 54.3978C45.3757 55.1501 45.5869 55.7747 46.2957 56.2852C46.9216 56.7353 47.4493 56.4935 48.0601 56.1442C51.3478 54.2432 54.8014 52.564 57.6442 50.1055C58.632 49.2524 59.7483 49.407 60.902 49.6622C63.4508 50.2332 65.8335 51.2139 68.1787 52.2215C70.6068 53.2626 73.0197 53.9678 75.7042 53.1013C75.8852 53.0409 76.1265 53.1551 76.4583 53.2827C77.2953 54.035 77.3858 54.8814 77.4462 55.7211C77.514 56.7421 77.0916 57.3734 75.6136 57.004C74.6334 56.1845 74.3093 55.1904 73.7815 54.3037C73.6382 54.082 73.4271 54.4313 73.6534 54.2701C74.2943 55.0358 74.5127 55.9965 75.2215 56.91C75.9454 58.5423 76.0208 60.1005 75.9303 61.6589C75.5759 67.7311 75.35 73.8236 73.6232 79.9093L73.6456 79.8959Z" fill="#679441"/>
<path d="M93.7182 164.835C93.4769 165.392 92.9942 165.473 92.4815 165.701C89.5104 165.305 86.6978 165.957 83.8701 165.843C82.5429 165.789 81.2308 165.748 80.243 164.781C79.9866 164.526 79.6776 164.385 79.278 164.412C76.865 164.566 74.9268 163.431 72.9888 162.444C64.6715 158.198 57.6662 152.623 51.498 146.061C44.9376 139.082 39.7496 131.404 35.0367 123.364C31.7414 117.741 29.4415 111.797 26.7721 105.966C26.4479 105.248 26.1011 104.509 26.4857 103.582C28.9666 103.28 31.3719 103.333 33.9207 102.91C35.7606 104.536 36.7109 106.537 37.5253 108.519C40.0665 114.699 43.5578 120.455 46.936 126.279C51.5358 134.212 57.5532 141.15 64.7847 147.303C71.2093 152.764 78.863 156.237 87.316 158.427C88.6658 158.776 90.0836 158.487 91.5993 158.823C93.7408 160.455 94.0574 162.477 93.7105 164.835H93.7182Z" fill="#3E5B2D"/>
<path d="M65.1542 43.7016C66.9715 45.2331 68.8564 46.4759 70.8999 47.4767C72.4684 48.2492 73.7654 49.2365 74.8739 50.5866C73.6825 51.5808 72.4384 51.413 71.0962 50.8689C68.2458 49.7135 65.433 48.4574 62.4167 47.6514C61.5797 47.4297 60.7505 47.1946 59.8607 47.1543C58.4808 47.0871 57.3042 47.3893 56.241 48.2222C54.2201 49.8007 52.2594 51.46 49.9294 52.5347C49.5599 52.5078 49.4092 52.3735 49.3715 52.1719C48.9191 49.4247 46.6795 48.4036 44.0176 48.061C42.3511 47.8461 40.9637 47.4163 39.7572 46.3483C39.1012 45.7706 38.2115 45.3944 37.4273 44.9309C37.3594 44.3197 37.9624 44.4003 38.3017 44.2794C43.3615 42.5329 47.5768 39.6781 51.3546 36.2859C53.5716 34.2977 54.3255 31.6445 54.6272 28.998C55.1701 24.3229 54.9591 19.6613 53.3153 15.1138C52.3652 12.4942 50.9777 10.1632 48.067 8.92725C45.0508 7.651 41.8684 7.69136 38.6637 8.31605C38.5958 8.32949 38.5281 8.36313 38.4527 8.37656C37.6006 8.51762 36.726 9.1086 35.9342 8.74587C35.1349 8.38315 35.587 7.44952 35.4136 6.77781C35.1271 5.68964 34.358 4.82324 33.7773 3.8627C34.6445 3.01635 35.7834 2.91549 36.8164 2.74756C43.2863 1.68626 49.4318 2.42511 55.1853 5.4075C57.7416 6.73077 59.5664 8.57798 60.7805 10.9625C62.1906 13.7367 62.7788 16.6183 62.7109 19.6679C62.6204 23.4429 62.1528 27.1843 61.8814 30.9392C61.625 34.4791 62.2961 37.925 63.4046 41.3037C63.6911 42.1837 64.3548 42.909 65.1616 43.6815L65.1542 43.7016Z" fill="#679441"/>
<path d="M91.8042 158.884C87.8077 159.69 84.324 158.145 80.8176 156.983C77.8466 155.996 75.0488 154.592 72.3116 153.121C69.8081 151.777 67.5231 150.185 65.374 148.459C61.3171 145.201 57.7429 141.513 54.2817 137.765C52.2533 135.576 50.5569 133.131 49.0714 130.612C47.141 127.34 44.8333 124.257 43.1291 120.879C41.078 116.815 38.5824 112.932 37.0517 108.647C36.373 106.753 35.1513 105.006 34.1484 103.051C36.5011 102.393 38.869 101.883 41.4177 101.379C41.3348 103.24 42.4505 104.798 43.1593 106.383C44.3809 109.09 45.5723 111.804 46.5828 114.578C47.8873 118.158 49.8556 121.49 51.4768 124.949C53.3469 128.939 56.0916 132.425 58.7535 135.979C60.4426 138.242 62.5011 140.264 64.522 142.293C66.2111 143.985 67.7569 145.812 69.7099 147.283C71.8062 148.875 73.6612 150.77 76.1496 151.891C79.4977 153.409 82.7552 155.223 86.9101 155.23C87.5209 155.317 87.8756 155.68 88.2828 155.66C90.7712 155.519 91.3668 157.063 91.8042 158.884Z" fill="#4E6F36"/>
<path d="M54.2961 83.7942C54.1981 84.3584 54.0172 84.7815 53.8664 85.2114C53.414 86.528 53.4894 86.9848 54.7788 87.6162C55.563 88.0058 55.4651 88.3349 55.4047 88.9798C55.1936 91.1091 53.7686 92.3921 51.7854 93.1914C50.4959 93.7086 50.0282 94.8371 48.965 95.5424C45.7451 97.665 42.2766 99.1829 38.3554 99.8009C34.2533 100.452 30.1434 100.278 26.0036 99.9018C22.6857 99.5995 19.4662 98.8203 16.1407 98.5315C14.4215 98.3837 12.6116 97.9134 10.8998 97.4029C10.4926 97.282 10.0479 97.1343 9.73117 96.8858C7.22014 94.8774 5.18397 92.5935 4.25647 89.6111C4.00009 88.7917 4.09832 88.214 4.84485 87.7505C5.62154 87.2736 6.35276 87.2669 7.25764 87.7371C9.76867 89.0402 12.453 89.9738 15.605 90.0948C15.8086 91.371 14.3384 91.9016 14.1046 92.8957C18.1162 95.9319 22.8667 94.0578 26.7878 94.5481C26.8029 94.5481 26.2978 94.6557 25.5286 94.0041C30.9805 92.5062 36.5379 91.7607 41.2885 88.8186C41.5977 88.6574 41.7713 88.5633 42.0805 88.4155C42.3972 88.2879 42.5858 88.2476 42.9251 88.261C43.2418 88.3685 43.3248 88.4893 43.3022 88.6707C43.3474 88.5094 43.332 88.3483 43.332 88.0729C44.2519 86.7765 45.3454 86.0644 47.0195 85.8293C48.9348 85.5539 50.5786 84.7076 50.7596 82.5246C51.4005 82.182 51.9284 82.1955 52.6297 82.4172C53.4742 82.659 53.7383 83.2635 54.2887 83.7875L54.2961 83.7942Z" fill="#3F483D"/>
<path d="M23.0859 49.1331C26.8034 47.8837 30.2869 46.3186 34.2986 46.7485C35.1054 46.8358 35.8822 46.876 36.7117 47.3731C36.6514 48.4613 35.7765 49.0121 35.0526 49.6234C32.9789 51.3766 31.2296 53.3446 29.6309 55.4538C28.334 57.1666 27.4142 58.9534 27.1578 60.9954C26.7053 64.6025 26.0041 68.2096 26.0418 71.8301C26.087 75.7798 26.4942 79.7295 27.3916 83.6186C27.6253 84.6262 27.9647 85.6539 27.2484 86.7891C25.416 87.5011 23.6287 87.8571 21.6304 88.1123C20.6501 87.5683 20.2883 86.7824 20.0545 85.9629C17.3625 76.3306 16.1862 66.6177 18.3277 56.757C18.9687 53.8217 20.3411 51.2355 23.0708 49.1331H23.0859Z" fill="#3E5B2D"/>
<path d="M27.287 86.9169C27.2719 84.3778 26.2238 81.9731 26.0127 79.4743C25.9901 79.2191 25.824 78.9639 25.8466 78.7221C26.0879 76.2569 25.1607 73.8454 25.3794 71.3869C25.5754 69.1434 25.8695 66.9133 26.1334 64.6765C26.3747 62.6278 26.5105 60.5792 27.0911 58.5641C27.257 57.9931 27.4606 57.449 27.7999 56.9519C30.2054 53.459 33.0181 50.2684 36.6903 47.5547C37.5047 47.5883 37.987 47.9846 38.447 48.401C39.4952 49.3482 40.7322 49.946 42.3609 50.1408C40.1364 51.9813 37.9192 53.8889 35.9812 55.9712C34.179 57.9057 33.1082 60.2231 32.7613 62.8428C32.4748 64.9788 32.2337 67.1081 32.4373 69.2173C32.7691 72.6766 33.1459 76.136 33.9075 79.555C34.2016 80.8783 34.6164 82.1948 34.5787 83.733C32.7162 84.9152 30.899 85.9765 28.6368 86.5609C28.403 86.628 28.3277 86.6818 28.1316 86.7893C27.8149 86.8699 27.6263 86.8968 27.287 86.9236V86.9169Z" fill="#4E6F36"/>
<path d="M91.8641 159.129C91.4796 158.45 91.2305 157.859 90.8836 157.308C90.4312 156.59 90.2049 155.582 88.7496 156.26C88.1463 156.542 87.5886 155.985 87.1663 155.353C87.1362 155.112 87.1662 154.984 87.2341 154.87C87.8876 153.835 87.6413 152.792 86.4951 151.74C86.382 152.734 85.9446 153.439 84.7834 153.285C84.1349 153.197 83.7126 152.781 83.6976 152.223C83.6749 151.081 84.6177 150.887 85.7186 150.867C75.9761 138.319 67.8923 125.254 66.829 109.563C66.075 109.61 66.0826 110.195 65.7583 110.457C64.7705 111.269 63.7524 111.229 62.9681 110.275C62.4328 109.617 62.2518 108.865 62.463 108.065C62.644 107.38 63.1416 106.917 63.8805 106.702C64.7025 106.467 65.2832 106.829 65.7281 107.407C65.9242 107.662 66.0978 107.931 66.6181 108.193C66.6181 107.024 66.5274 105.849 66.6405 104.687C66.7536 103.585 66.5954 102.336 68.4428 101.986C69.3326 101.818 69.0007 100.77 69.2043 99.9509C70.0564 99.7226 70.5767 99.8637 70.5541 100.817C70.5088 102.893 70.5315 104.975 70.6296 107.051C70.8482 111.625 72.0621 116.025 73.4949 120.398C75.4931 126.51 77.6724 132.556 80.3267 138.467C83.1997 144.855 87.332 150.564 92.1731 155.891C93.1835 157.006 94.1943 158.128 94.7523 159.485C95.5365 161.386 95.8983 163.28 93.8473 164.946C93.6135 162.957 93.2816 160.976 91.8564 159.129H91.8641Z" fill="#EDF0E9"/>
<path d="M26.4182 103.447C26.5615 104.266 26.8554 105.005 27.1645 105.724C28.8084 109.526 30.324 113.388 32.2092 117.102C34.7277 122.053 37.5935 126.849 40.5871 131.591C43.1585 135.669 46.1293 139.497 49.4396 143.104C53.2476 147.255 57.0786 151.393 61.7764 154.853C65.2602 157.425 68.9172 159.722 72.7479 161.838C74.3767 162.738 76.141 163.309 77.8603 164.008C77.9281 164.035 78.0036 164.048 78.0639 164.082C78.9763 164.619 79.3837 163.155 80.1755 163.612C80.7712 163.961 80.5074 164.895 81.5706 165.143C83.4557 165.573 85.3859 165.586 87.2032 165.311C88.9225 165.049 90.4911 165.076 92.2254 165.633C90.9963 166.601 89.4653 166.903 87.8214 166.876C86.4415 166.856 85.0693 166.822 83.4933 166.789C83.0333 166.775 82.7844 166.715 82.4149 166.628C77.4305 165.862 72.906 164.297 68.5928 162.181C63.1334 159.501 58.0435 156.337 53.6172 152.441C49.3039 148.646 45.6543 144.361 42.5098 139.699C35.8665 129.845 30.8594 119.346 26.5688 108.552C26.0334 107.208 25.6793 105.811 25.1741 104.454C24.797 103.44 25.3776 103.332 26.4182 103.447Z" fill="#758F55"/>
<path d="M86.6626 87.583C87.0773 87.63 87.3864 87.6703 87.8463 87.7308C88.4873 89.0204 89.8369 89.1749 91.0736 89.7123C91.1565 89.9272 91.1565 90.0213 91.0585 90.2429C89.294 90.9818 88.3214 92.4126 86.7303 93.1717C80.6978 96.0667 74.62 94.4344 68.5422 93.4403C67.9767 93.3462 67.4864 93.0103 66.7399 92.8894C66.1442 92.7417 65.7447 92.567 65.2697 92.2245C64.7946 90.9482 65.5862 90.5721 66.5816 90.2698C66.2045 89.7996 64.5457 89.7392 65.6014 88.4428C65.8804 88.1002 65.4581 87.8651 65.1489 87.7039C63.5654 86.8575 63.6334 85.5879 64.1537 84.305C64.4327 83.6131 64.5005 82.9281 64.6287 82.0817C67.0492 80.8324 69.2058 81.2488 71.3398 82.7333C71.8299 83.3848 72.2597 83.8282 73.24 83.5528C74.7406 83.5931 75.6152 84.426 76.5578 85.1246C79.1669 87.0658 82.1681 87.7374 85.667 87.3411C85.9083 87.321 85.9914 87.3077 86.195 87.2942C86.3533 87.4286 86.4362 87.5226 86.67 87.583H86.6626Z" fill="#586159"/>
<path d="M43.415 88.4029C43.1436 88.5103 42.955 88.5103 42.6157 88.517C42.3668 88.5976 42.2611 88.6782 42.1028 88.8394C37.3823 92.0233 31.8779 93.1049 26.3355 94.1863C26.7427 94.5961 27.4965 94.1326 27.949 94.5222C28.0244 94.6297 27.9565 94.7034 27.7605 94.737C24.6009 95.2542 21.4039 95.1334 18.2142 95.1468C17.1812 95.1468 16.231 95.1736 15.5448 94.2198C15.017 93.4876 13.7878 93.6757 13.0488 93.0578C13.4032 92.6883 14.24 92.5741 14.1571 92.0502C13.9761 90.9016 15.2281 90.9486 15.7484 90.2501C17.9428 90.7135 20.0542 90.1694 22.1731 89.894C23.5153 89.7194 24.8421 89.4507 26.3503 89.2492C32.79 88.7723 37.7971 85.4071 43.4073 83.4054C45.6846 82.5926 47.9544 81.6253 50.6464 82.5254C50.8425 83.009 50.8351 83.4121 50.9859 83.7614C51.2573 84.3861 50.9254 84.8294 50.4126 85.051C49.0704 85.6153 47.8337 86.4549 46.2803 86.5355C45.4735 86.5758 44.742 86.5086 44.6816 87.5632C44.6665 87.8252 43.9052 88.0536 43.415 88.3961V88.4029Z" fill="#586159"/>
<path d="M23.0413 49.0458C23.0715 50.3489 21.714 51.0207 20.9901 52.0283C19.3236 54.3524 18.8865 56.9452 18.3737 59.538C17.6196 63.3197 17.7703 67.1551 17.9889 70.9503C18.2227 74.994 18.8561 79.0175 19.8439 82.9873C20.2511 84.6262 20.734 86.2451 21.4352 87.958C20.5304 88.3073 19.8969 88.0788 19.6933 87.1653C19.6104 86.7891 19.4367 86.4198 19.2784 85.9093C19.0521 85.6003 19.0522 85.3719 18.9617 85.0629C17.7175 81.0864 16.1641 77.2778 15.5382 73.2811C14.6484 67.6052 14.1734 61.9024 15.7116 56.2467C16.6618 52.7538 18.7354 50.0735 23.0487 49.0391L23.0413 49.0458Z" fill="#758F55"/>
<path d="M65.1312 91.9201C65.5611 92.1217 65.9079 92.2291 66.3905 92.3769C68.5848 94.1502 71.1562 94.3518 73.7879 94.3585C75.9445 94.3585 78.0031 94.8958 80.2125 94.8958C84.7746 94.8958 88.0625 93.2031 90.9657 90.1871C91.0788 90.0863 91.0785 90.0662 91.0861 90.0729C91.991 89.2938 90.8524 88.6892 90.958 87.8764C91.335 87.7354 91.6217 87.7152 91.9083 87.6682C92.504 87.5674 93.1222 87.057 93.6727 87.7489C94.1703 88.3803 94.2382 89.0251 93.8763 89.764C93.3786 90.7984 92.6171 91.6985 91.7047 92.397C89.3067 94.2509 86.9163 96.1856 83.5381 96.5416C83.3948 96.555 83.2438 96.6691 83.1231 96.6423C80.9288 96.1116 78.6892 97.0856 76.4949 96.4878C75.1752 96.1318 73.7805 96.2527 72.4156 96.0378C69.6105 95.6012 66.9637 94.7683 64.2792 94.016C63.857 93.895 63.3895 93.8009 63.2236 93.4113C62.2735 91.2081 60.3203 89.3341 60.4183 86.7951C60.4485 86.1032 59.815 85.801 59.5586 85.136C60.2523 84.2493 60.9988 83.5574 62.3561 83.591C62.982 83.9269 63.118 84.3903 63.0351 84.8336C62.6656 86.8017 63.2312 88.6691 63.8043 90.644C63.9475 90.8052 64.0079 90.8657 64.1813 91.0067C64.5885 91.2955 64.8598 91.5238 65.1312 91.9269V91.9201Z" fill="#3F483D"/>
<path d="M75.0781 56.3269C76.8878 57.0389 77.0991 56.9382 77.0689 55.5141C77.0538 54.8827 76.8728 54.285 76.6164 53.5394C77.4157 53.3916 77.431 53.9625 77.5516 54.4595C78.185 57.2001 78.268 59.9676 78.1172 62.7619C77.8834 67.0541 76.7521 71.1986 75.6134 75.343C75.2213 76.7872 74.7993 78.2246 74.4072 79.6688C74.3167 80.0113 74.1959 80.28 73.6152 80.1255C74.5427 74.0129 75.0406 67.9475 75.4779 61.8887C75.5986 60.1489 75.3196 58.4025 74.6937 56.5419C74.7238 56.3605 74.8292 56.3403 75.0932 56.3403L75.0781 56.3269Z" fill="#EDF0E9"/>
<path d="M50.957 82.6405C48.6269 82.3718 46.5833 82.7144 44.6303 83.4802C41.7874 84.6019 38.9372 85.6767 36.2225 87.0537C33.3948 88.4912 30.3634 89.5995 26.7363 89.2704C28.0107 88.1956 29.8885 87.8397 31.5851 87.1546C35.7249 85.4887 39.5931 83.2922 44.0647 81.9354C44.3136 81.7674 44.4416 81.68 44.698 81.6195C45.0977 81.5859 45.3844 81.5456 45.8067 81.465C46.0781 81.3509 46.2062 81.2771 46.455 81.2368C48.6946 81.0688 50.7911 81.0486 52.8421 82.1771C53.0307 82.3316 53.0835 82.4121 53.0608 82.6271C52.3671 82.7144 51.7561 82.6808 50.9492 82.6473L50.957 82.6405Z" fill="#818A8C"/>
<path d="M62.7263 83.6937C61.4745 83.781 60.894 84.7886 59.6875 84.9498C58.9184 84.0766 59.7023 83.5593 60.2829 83.0421C62.1304 81.383 64.2647 80.315 67.2131 80.718C67.6127 80.886 67.869 80.8995 68.2536 80.9398C69.1057 81.1278 69.837 81.3091 70.7117 81.5308C70.9605 81.6114 71.0512 81.645 71.2699 81.7659C71.8505 82.0212 72.3029 82.1891 72.891 82.4175C73.1248 82.4712 73.2305 82.4645 73.3888 82.5854C74.2409 83.0959 75.04 83.4788 75.9599 83.9356C76.1862 84.0162 76.292 84.016 76.4504 84.1437C77.8152 84.9027 79.0366 85.7021 80.7181 85.9507C80.9821 85.9775 81.0876 85.9708 81.2988 86.0715C82.5807 86.4477 83.7571 86.7163 85.0993 87.0051C85.416 87.0387 85.5365 87.0925 85.7326 87.2336C85.8306 87.2672 85.8081 87.3008 85.8081 87.321C84.9334 88.0935 83.9382 88.0733 82.7845 87.9389C79.7908 87.6031 77.2497 86.5552 75.1459 84.6342C74.6783 84.211 74.0598 83.9959 73.2832 83.8078C72.5065 84.2243 72.039 83.8348 71.4735 83.4183C69.5808 81.6181 67.3563 81.6718 64.9358 82.2092C64.2948 82.9145 63.5859 83.2839 62.7263 83.6869V83.6937Z" fill="#818A8C"/>
<path d="M33.6957 7.44664C33.6957 7.93027 33.756 8.26623 33.6655 8.56179C33.4318 9.28723 32.6853 9.48201 32.0142 9.0454C31.1093 8.45429 30.6643 5.96217 31.3278 5.10239C31.72 4.5986 32.1799 4.71276 32.6022 5.06204C33.3185 5.65986 33.6729 6.41221 33.7031 7.44664H33.6957Z" fill="#3E5B2D"/>
<path d="M90.8624 87.7585C91.1112 88.0204 91.2015 88.2421 91.4504 88.41C92.2044 88.9205 92.1366 89.469 91.2468 90.0557C90.6963 89.5922 90.1008 89.6257 89.5578 89.6795C88.1251 89.8205 87.8911 89.0952 87.9967 87.913C88.8865 87.7517 89.7763 87.745 90.8546 87.7585H90.8624Z" fill="#50584D"/>
<path d="M53.0447 82.8653C52.9844 82.6705 52.9766 82.5832 52.9766 82.375C53.9267 82.4019 54.6506 82.731 54.4545 83.8393C53.7231 83.8326 53.3687 83.4497 53.0369 82.8653H53.0447Z" fill="#586159"/>
<path d="M18.8851 85.0781C19.0208 85.1587 19.1341 85.3467 19.2397 85.6557C18.9984 85.6288 18.8776 85.4408 18.8851 85.0781Z" fill="#50584D"/>
<path d="M68.2784 80.8727C68.105 81.0541 67.841 81.054 67.4941 80.8256C67.66 80.7517 67.9164 80.7719 68.2784 80.8727Z" fill="#586159"/>
<path d="M86.7003 87.5243C86.7606 87.5915 86.5493 87.5916 86.5493 87.5916C86.5493 87.5916 86.3834 87.4774 86.3457 87.3968C86.4362 87.3363 86.5419 87.3833 86.7003 87.5311V87.5243Z" fill="#3F483D"/>
<path d="M85.7797 87.1816C85.7043 87.2354 85.5686 87.2086 85.3574 87.1011C85.4328 87.0474 85.5761 87.0742 85.7797 87.1816Z" fill="#3F483D"/>
<path d="M28.1013 86.8277C28.0712 86.7336 28.1618 86.6531 28.3804 86.5859C28.4181 86.68 28.3276 86.7672 28.1013 86.8277Z" fill="#3E5B2D"/>
<path d="M81.3604 86.0925C81.2775 86.2 81.1495 86.1798 80.9609 86.0455C81.0288 85.9917 81.1644 85.9985 81.3604 86.0925Z" fill="#50584D"/>
<path d="M76.4968 84.1856C76.3912 84.2662 76.2859 84.226 76.1426 84.0782C76.2406 83.9439 76.3686 83.9707 76.4968 84.1856Z" fill="#586159"/>
<path d="M73.4269 82.623C73.3289 82.7103 73.2234 82.6701 73.0801 82.5358C73.1706 82.3947 73.2987 82.4148 73.4269 82.623Z" fill="#586159"/>
<path d="M71.3384 81.7584C71.2328 81.8726 71.0973 81.839 70.9238 81.6576C71.0068 81.6039 71.1424 81.6375 71.3384 81.7584Z" fill="#586159"/>
<path d="M44.6974 81.6094C44.6974 81.7034 44.5694 81.7839 44.3281 81.8645C44.3281 81.7772 44.4561 81.6833 44.6974 81.6094Z" fill="#3F483D"/>
<path d="M46.4546 81.2344C46.4395 81.3284 46.3038 81.3889 46.0625 81.4426C46.0776 81.3553 46.2058 81.2814 46.4546 81.2344Z" fill="#3F483D"/>
<path d="M66.4138 129.344C66.0519 129.122 65.7879 128.975 65.6447 128.766C65.2978 128.263 65.3956 127.759 65.8405 127.349C66.293 126.926 66.8737 126.879 67.4392 127.148C68.0048 127.416 68.3442 127.927 68.0954 128.437C67.6882 129.27 67.7937 129.714 68.8494 129.969C69.3396 130.083 69.7543 130.6 69.5733 131.037C69.1586 132.024 69.4676 132.38 70.5836 132.716C71.7374 133.059 72.2277 134.328 71.7527 135.114C71.3379 135.799 70.6363 136.128 69.7541 136.001C68.6155 135.833 67.6126 134.731 67.9444 133.717C68.231 132.85 68.314 132.414 67.2507 131.964C66.5494 131.668 66.5647 130.903 67.0548 130.264C67.2811 129.969 67.8086 129.902 67.8538 129.465C67.4089 129.156 66.9718 129.525 66.4138 129.344Z" fill="#EDF0E9"/>
<path d="M67.3501 123.271C67.599 123.667 67.8329 123.943 67.8932 124.238C68.1119 125.326 67.7499 126.058 66.8601 126.307C65.925 126.569 65.1561 126.287 64.5905 125.588C63.9722 124.829 63.9571 123.674 64.5905 123.083C65.2918 122.431 66.0908 122.391 66.9127 122.915C67.0258 122.989 67.1316 123.083 67.3428 123.271H67.3501Z" fill="#EDF0E9"/>
<path d="M77.0321 143.852C78.3592 143.288 79.1434 143.785 79.6109 144.692C79.9729 145.391 79.7992 146.116 79.0376 146.566C78.276 147.016 77.4993 146.855 76.8885 146.284C76.0665 145.518 75.9837 144.712 77.0243 143.852H77.0321Z" fill="#EDF0E9"/>
<path d="M65.9478 117.589C66.1137 118.12 66.0158 118.496 65.6916 118.785C65.1864 119.235 64.6132 119.396 63.9496 119.007C63.2861 118.617 63.1957 118.066 63.4747 117.495C63.7688 116.898 64.3493 116.683 65.0807 116.871C65.4502 116.965 65.699 117.186 65.9478 117.596V117.589Z" fill="#EDF0E9"/>
<path d="M80.1631 147.109C81.4601 147.526 82.0934 148.493 82.9455 149.246C83.2095 149.481 83.2924 149.823 82.9606 150.085C82.8249 150.193 82.5005 150.28 82.3874 150.213C81.2864 149.528 80.1706 148.829 79.7106 147.627C79.6653 147.512 79.9065 147.311 80.1705 147.109H80.1631Z" fill="#EDF0E9"/>
<path d="M63.1119 113.448C63.0667 112.777 63.3609 112.515 63.9868 112.689C64.2959 112.777 64.409 113.072 64.3034 113.294C64.0772 113.764 63.7078 113.979 63.1197 113.442L63.1119 113.448Z" fill="#EDF0E9"/>
<path d="M50.9712 63.3145C47.2009 61.548 43.5886 61.6219 39.954 63.2408C39.3508 63.5094 38.6723 64.2416 38.0162 63.7109C37.2999 63.1265 38.0161 62.3608 38.2876 61.7496C39.3357 59.3717 42.4575 57.6589 45.421 57.7328C48.1356 57.7999 51.235 59.7411 52.2153 61.9846C52.6376 62.9518 52.5472 63.0727 50.9712 63.3213V63.3145Z" fill="#2B2A28"/>
<path d="M48.7083 72.0298C48.467 73.3665 47.8939 74.4009 46.9211 75.2204C45.4507 76.4563 43.6184 76.2614 42.442 74.7904C40.5946 72.473 40.8658 67.8315 42.9696 65.682C44.523 64.09 46.0917 64.1572 47.909 66.0178C47.9316 66.2261 47.8788 66.3068 47.6903 66.4478C46.4612 66.5755 45.1187 66.2194 44.8548 67.7173C44.6738 68.7316 44.4778 69.8131 45.4053 70.6124C46.5741 71.6267 47.2604 70.1355 48.3991 70.0952C48.9872 70.6795 48.7308 71.2976 48.7006 72.0298H48.7083Z" fill="#2B2A28"/>
<path d="M70.6065 72.4238C70.4104 73.7001 69.8597 74.6808 69 75.4936C67.5749 76.8437 65.7654 76.7094 64.5891 75.1779C63.654 73.9621 63.4202 72.5649 63.4429 71.114C63.473 69.4079 63.7594 67.7621 64.9433 66.3583C66.3006 64.7395 67.658 64.6455 69.6035 66.0829C69.7694 66.3919 69.7466 66.5666 69.4526 66.795C68.4723 66.9763 67.5147 66.8688 67.0622 67.7555C66.5495 68.7563 66.3383 69.8446 67.2055 70.6909C68.4647 71.9202 69.166 70.2341 70.3348 70.1199C70.8852 70.8454 70.6291 71.5708 70.6065 72.4238Z" fill="#2B2A28"/>
<path d="M64.8161 59.5318C68.5713 57.9667 72.6658 59.5384 73.7743 62.8231C73.91 63.2261 73.9705 63.5956 73.5331 63.8643C73.2013 64.0658 72.8393 64.0053 72.5 63.8374C72.4396 63.8038 72.3718 63.777 72.3114 63.7367C69.2499 61.379 66.0075 61.8626 62.7122 63.2665C62.3352 63.4277 61.9281 63.75 61.5586 63.3201C61.3098 63.0313 61.5435 62.7023 61.6868 62.4067C62.29 61.1439 63.5719 60.4587 64.8161 59.5318Z" fill="#2B2A28"/>
<path d="M65.3739 53.7208C66.3768 54.1171 67.2442 54.4394 68.0812 54.8156C68.3979 54.9566 68.6996 55.2051 68.4885 55.588C68.315 55.9104 67.9529 56.0649 67.5834 55.9642C66.7615 55.7291 65.9471 55.4671 65.1629 55.1447C63.5191 54.473 61.9808 53.6267 60.5255 52.6661C60.058 52.3572 59.5076 51.9944 60.0203 51.4167C60.4728 50.8995 60.9175 51.3428 61.3322 51.5645C62.6292 52.263 63.9263 52.9617 65.3665 53.7208H65.3739Z" fill="#EDF0E9"/>
<path d="M48.7543 72.0404C48.5055 71.5702 48.7767 70.9253 48.279 70.2535C47.2761 69.1318 47.5854 67.9093 47.5176 66.6129C47.6382 66.398 47.691 66.3307 47.8644 66.2031C48.6185 66.6129 49.0031 67.2175 49.0106 67.9429C49.0257 69.2662 49.2292 70.5962 48.7466 72.0404H48.7543Z" fill="#3F483D"/>
<path d="M70.6531 72.4369C70.3816 71.8391 70.7135 71.0599 70.163 70.2539C69.3561 69.5083 69.477 68.7359 69.6505 67.8089C69.7787 67.5604 69.8464 67.4664 70.0952 67.332C71.3847 68.8837 70.9698 70.6032 70.6531 72.4369Z" fill="#3F483D"/>
<path d="M58.9426 54.2804C58.7918 54.5357 58.6711 54.717 58.4901 54.7842C57.9472 54.9924 57.4724 54.8984 57.4271 54.3006C57.397 53.8035 57.8793 53.7163 58.3167 53.723C58.6108 53.723 58.8372 53.8841 58.9353 54.2737L58.9426 54.2804Z" fill="#EDF0E9"/>
<path d="M61.219 54.7031C61.7997 55.1599 61.7923 55.5226 61.1513 55.751C60.8949 55.8451 60.5328 55.8047 60.4197 55.5495C60.1784 55.0054 60.4951 54.73 61.219 54.7098V54.7031Z" fill="#EDF0E9"/>
<path d="M75.185 56.2246C75.1322 56.3522 75.0343 56.3791 74.7704 56.3791C74.2049 55.6335 73.7748 54.908 73.541 53.625C74.5741 54.5385 74.5139 55.5126 75.185 56.2246Z" fill="#818A8C"/>
<path d="M69.123 66.7911C69.304 66.5762 69.4322 66.4889 69.6282 66.3008C70.0279 66.4015 70.1109 66.7307 70.239 67.1673C70.2089 67.3352 70.1409 67.3823 69.9751 67.5032C69.4321 67.5233 69.1834 67.2882 69.123 66.7911Z" fill="#3F483D"/>
<path d="M78.5563 161.242C78.6543 161.766 78.3753 161.867 77.9757 161.759C77.757 161.706 77.6135 161.504 77.719 161.33C77.8698 161.081 78.1642 161.068 78.5563 161.242Z" fill="#679441"/>
<path d="M43.332 88.5039C43.3848 88.5576 43.4378 88.6181 43.4981 88.6718C43.4604 88.6517 43.4227 88.6316 43.3549 88.5577C43.3322 88.504 43.332 88.5039 43.332 88.5039Z" fill="#50584D"/>
<path d="M42.1273 88.8597C42.067 88.7724 42.1421 88.665 42.3759 88.5508C42.4286 88.6381 42.346 88.7388 42.1273 88.8597Z" fill="#50584D"/>
<path d="M90.9298 90.0938C91.0806 90.2147 91.1109 90.3558 91.0656 90.4699C90.6207 91.6253 87.5216 94.2919 86.2699 94.2987C84.8371 94.3054 83.9624 95.6085 82.6579 95.4473C81.4212 95.2928 80.2901 95.2121 79.0308 95.4338C77.8921 95.642 76.5724 95.8772 75.5016 94.9771C75.1095 94.6412 74.5289 94.7621 74.0237 94.7554C73.2922 94.7419 72.5684 94.7487 71.837 94.7554C69.7256 94.7755 67.7874 94.4464 66.5508 92.5521C67.1239 92.3708 67.6592 92.532 68.2021 92.7604C70.4115 93.6672 72.787 93.8822 75.185 93.9762C76.9193 94.0434 78.6538 93.8688 80.3806 94.2987C81.2478 94.5136 82.2655 94.5271 83.1704 94.1576C84.7464 93.5195 86.2396 92.7336 87.8759 92.1896C88.7205 91.9074 87.6421 91.7261 87.5667 91.3298C88.6601 91.0476 89.7536 90.6378 90.9375 90.1005L90.9298 90.0938Z" fill="#50584D"/>
<path d="M62.5843 83.8943C62.8935 82.8935 63.7607 82.6785 64.6731 82.3359C65.2009 83.0009 65.4647 83.6324 64.7408 84.2907C64.0924 84.8751 64.3565 85.6407 64.4017 86.3326C64.4545 87.1789 65.2384 87.2596 65.9699 87.4074C66.5354 87.5216 66.8145 87.9716 66.7994 88.4351C66.7768 89.1068 65.9397 88.7239 65.6079 89.0396C65.6984 89.3956 66.1132 89.4762 66.362 89.6978C66.5656 89.8792 66.807 90.0202 67.0332 90.1882C66.43 90.7121 65.6232 91.0413 65.2537 91.9011C64.839 91.8406 64.4543 91.6525 63.9868 91.3569C63.6475 90.9539 62.5768 91.1555 63.165 90.289C63.2781 90.1278 63.165 89.7785 63.0519 89.5703C62.1244 87.9783 62.3202 86.3126 62.6068 84.6333C62.6369 84.4452 62.6068 84.2504 62.6068 83.8943H62.5843Z" fill="#50584D"/>
<path d="M71.4062 83.4258C71.8813 83.4325 72.3566 83.5937 72.9825 83.7751C72.4622 84.3125 71.8436 84.4669 71.4062 83.4258Z" fill="#50584D"/>
<path d="M47.4423 66.3829C48.2039 67.5248 48.3472 68.6533 48.136 69.9968C47.8947 70.4804 47.7062 70.8565 47.397 71.1117C46.4243 71.9111 45.3461 71.7767 44.675 70.7423C43.8983 69.5399 43.9059 68.2503 44.5318 67.001C45.1124 65.8389 45.7683 65.7044 47.4574 66.3829H47.4423Z" fill="#EDF0E9"/>
<path d="M69.0314 66.6296C69.3481 66.9117 69.5142 67.167 69.7781 67.4961C70.0119 68.3223 70.1324 69.0679 70.0042 69.9948C69.0239 71.6808 68.4509 72.0367 67.5008 71.7412C66.611 71.4658 66.1284 70.512 66.1661 69.135C66.2189 67.2274 66.9427 66.549 69.0314 66.6363V66.6296Z" fill="#EDF0E9"/>
<path d="M64.2422 88.6461C64.4533 88.5924 64.5288 88.646 64.4609 88.7535C64.4458 88.7737 64.2874 88.72 64.2422 88.6461Z" fill="#586159"/>
<path d="M63.9043 91.2446C63.9571 91.2782 63.8968 90.996 63.9647 91.2311C63.9044 91.258 63.9118 91.2379 63.9043 91.2446Z" fill="#586159"/>
</svg>
