<?xml version="1.0" encoding="UTF-8"?>
<svg id="Layer_2" data-name="Layer 2" xmlns="http://www.w3.org/2000/svg" viewBox="0 0 1821.19 511.28">
  <defs>
    <style>
      .cls-1, .cls-2, .cls-3, .cls-4, .cls-5, .cls-6, .cls-7, .cls-8 {
        fill-rule: evenodd;
      }

      .cls-1, .cls-2, .cls-3, .cls-4, .cls-5, .cls-6, .cls-7, .cls-8, .cls-9, .cls-10, .cls-11 {
        stroke-width: 0px;
      }

      .cls-1, .cls-9 {
        fill: #be8620;
      }

      .cls-2 {
        fill: #ca9222;
      }

      .cls-3 {
        fill: #d89427;
      }

      .cls-4 {
        fill: #dc9e42;
      }

      .cls-5, .cls-11 {
        fill: #e6c28f;
      }

      .cls-6 {
        fill: #e8a945;
      }

      .cls-7 {
        fill: #e49f29;
      }

      .cls-8, .cls-10 {
        fill: #f2cd96;
      }
    </style>
  </defs>
  <g id="Layer_1-2" data-name="Layer 1">
    <g>
      <g>
        <polygon class="cls-3" points="849.67 301.61 709.44 24.41 535.74 273.98 849.67 301.61"/>
        <polygon class="cls-4" points="849.43 301.13 709.44 24.41 1000.74 211.13 849.43 301.13"/>
      </g>
      <g>
        <polygon class="cls-3" points="1410.29 215.38 1528.42 0 1673.81 222.36 1410.29 215.38"/>
        <polygon class="cls-4" points="1410.49 215.01 1528.42 0 1283.01 145.08 1410.49 215.01"/>
      </g>
      <g>
        <path class="cls-4" d="M1821.19,447.06H0v-238.2c101.85,0,201.65-69.7,296.3-61.26,188.63,16.81,365.62,114.93,559.23,90.37,144.58-18.34,314.63-153.6,466.2-153.6s348.78,124.5,499.45,124.5v238.2Z"/>
        <path class="cls-3" d="M1821.19,447.06H0v-125.56c101.85,0,195.72,63.69,290.37,72.12,188.63,16.81,335.98-71.81,529.59-96.37,144.58-18.33,344.27-29.11,495.84-29.11s354.71,53.36,505.38,53.36v125.56Z"/>
        <path class="cls-5" d="M0,220.72v-11.86c101.85,0,201.65-69.7,296.3-61.26,188.63,16.81,365.62,114.93,559.23,90.37,144.58-18.34,314.63-153.6,466.2-153.6s348.78,124.5,499.45,124.5v11.86c-150.67,0-348.78-124.5-499.45-124.5s-321.62,135.26-466.2,153.6c-193.61,24.56-370.6-73.56-559.23-90.37C201.65,151.02,101.85,220.72,0,220.72Z"/>
        <path class="cls-1" d="M1533.63,212.6c17.14,0,31.12-6.99,31.12-15.56s-13.98-15.56-31.12-15.56-31.12,6.99-31.12,15.56,13.98,15.56,31.12,15.56Z"/>
        <ellipse class="cls-11" cx="1254.26" cy="165.91" rx="24.45" ry="9.63"/>
        <path class="cls-1" d="M1160.14,320.79c8.98,0,16.3-2.99,16.3-6.67s-7.32-6.67-16.3-6.67-16.3,3-16.3,6.67,7.32,6.67,16.3,6.67Z"/>
        <path class="cls-1" d="M611.77,297.07c8.98,0,16.3-3.33,16.3-7.41s-7.32-7.41-16.3-7.41-16.3,3.33-16.3,7.41,7.32,7.41,16.3,7.41Z"/>
        <ellipse class="cls-11" cx="712.55" cy="383.04" rx="8.89" ry="1.48"/>
        <ellipse class="cls-11" cx="198.27" cy="244.47" rx="11.86" ry="3.71"/>
        <ellipse class="cls-9" cx="141.21" cy="323.76" rx="15.56" ry="8.89"/>
      </g>
      <g>
        <path class="cls-6" d="M0,511.28h1821.19v-238.2c-101.85,0-201.65-69.7-296.3-61.27-188.63,16.81-365.62,114.93-559.24,90.37-144.58-18.34-314.63-153.6-466.19-153.6S150.68,273.08,0,273.08v238.2Z"/>
        <path class="cls-7" d="M0,511.28h1821.19v-125.56c-101.85,0-195.72,63.69-290.37,72.12-188.63,16.81-335.98-71.81-529.59-96.37-144.57-18.33-344.27-29.11-495.84-29.11S150.68,385.72,0,385.72v125.56Z"/>
        <path class="cls-8" d="M1821.19,284.94v-11.86c-101.85,0-201.65-69.7-296.3-61.27-188.63,16.81-365.62,114.93-559.24,90.37-144.58-18.34-314.63-153.6-466.19-153.6S150.68,273.08,0,273.08v11.86c150.68,0,348.78-124.5,499.46-124.5s321.62,135.27,466.19,153.6c193.61,24.56,370.61-73.56,559.24-90.37,94.65-8.44,194.45,61.27,296.3,61.27Z"/>
        <path class="cls-2" d="M287.56,276.82c17.14,0,31.12-6.99,31.12-15.56s-13.98-15.56-31.12-15.56-31.12,6.99-31.12,15.56,13.98,15.56,31.12,15.56Z"/>
        <ellipse class="cls-10" cx="566.94" cy="230.13" rx="24.45" ry="9.63"/>
        <path class="cls-2" d="M661.05,385.01c8.98,0,16.3-2.99,16.3-6.67s-7.32-6.67-16.3-6.67-16.3,3-16.3,6.67,7.32,6.67,16.3,6.67Z"/>
        <path class="cls-2" d="M1209.42,361.3c8.98,0,16.3-3.33,16.3-7.41s-7.32-7.41-16.3-7.41-16.31,3.33-16.31,7.41,7.33,7.41,16.31,7.41Z"/>
        <ellipse class="cls-10" cx="1108.64" cy="447.26" rx="8.89" ry="1.48"/>
        <path class="cls-8" d="M1622.93,312.39c6.53,0,11.85-1.67,11.85-3.71s-5.32-3.71-11.85-3.71-11.86,1.66-11.86,3.71,5.33,3.71,11.86,3.71Z"/>
        <path class="cls-2" d="M1679.99,396.87c8.57,0,15.56-3.99,15.56-8.89s-6.99-8.89-15.56-8.89-15.56,4-15.56,8.89,6.99,8.89,15.56,8.89Z"/>
      </g>
    </g>
  </g>
</svg>