<?xml version="1.0" encoding="UTF-8"?>
<svg id="Layer_2" data-name="Layer 2" xmlns="http://www.w3.org/2000/svg" viewBox="0 0 1821.19 458.02">
  <defs>
    <style>
      .cls-1 {
        fill: #b1875e;
      }

      .cls-1, .cls-2, .cls-3 {
        fill-rule: evenodd;
        stroke-width: 0px;
      }

      .cls-2 {
        fill: #bbe1f8;
      }

      .cls-3 {
        fill: #a0774d;
      }
    </style>
  </defs>
  <g id="Layer_1-2" data-name="Layer 1">
    <g>
      <path class="cls-2" d="M1821.19,143.39c-30.27,0-171.99,41.39-282.15,13.78-91.29-22.88-152.76-115.66-184.74-115.66-58.07,0-119.27,101.88-184.89,101.88-60.92,0-145.76-119.57-211.12-119.57-90.64,0-163.4,119.57-258.03,119.57-68.32,0-101.78-132.07-169.8-132.07s-166.4,132.07-230.17,132.07C241.76,143.39,193.31,0,138.03,0,93.56,0,41.56,143.39,0,143.39v238.89h1821.19v-238.89Z"/>
      <g>
        <path class="cls-1" d="M0,176.52c65.22,0,142.2-120.05,225.36-120.05,68.42,0,140.54,120.05,217.87,120.05,71.78,0,143.81-81.51,220.83-81.51,106.8,0,220.48,81.51,331.99,81.51,80.5,0,119.93-155.62,200.08-155.62s196.07,155.62,271.22,155.62c68.96,0,126.05-168.96,191.19-168.96,52.41,0,113.68,168.96,162.65,168.96v281.5H0V176.52Z"/>
        <path class="cls-3" d="M1821.19,268.41v189.61H0v-189.61c48.97,0,114.69-124.5,167.09-124.5,65.14,0,117.78,124.5,186.74,124.5,75.15,0,171.35-85.96,248.99-85.96s141.81,85.96,222.32,85.96c111.51,0,225.18-81.51,331.99-81.51,77.03,0,149.05,81.51,220.83,81.51,77.32,0,149.45-120.05,217.87-120.05,83.16,0,160.14,120.05,225.36,120.05Z"/>
      </g>
    </g>
  </g>
</svg>